<svg width="24" height="24" viewBox="0 0 24 24" fill="none" xmlns="http://www.w3.org/2000/svg">
<path d="M19.5 3H4.5C3.465 3 2.625 3.84 2.625 4.875V17.25H21.375V4.875C21.375 3.84 20.535 3 19.5 3Z" fill="#076DF3"/>
<path d="M23.2089 20.4562L21.3751 17.25H2.62512L0.79137 20.4562C0.73512 20.5725 0.73887 20.7113 0.80637 20.82C0.87387 20.9288 0.99387 20.9963 1.12512 20.9963H22.8751C23.0064 20.9963 23.1264 20.9288 23.1939 20.82C23.2614 20.7113 23.2689 20.5725 23.2089 20.4562Z" fill="#282572"/>
<path d="M22.875 20.25H1.125C0.91875 20.25 0.75 20.4187 0.75 20.625C0.75 21.66 1.59 22.5 2.625 22.5H21.375C22.41 22.5 23.25 21.66 23.25 20.625C23.25 20.4187 23.0812 20.25 22.875 20.25Z" fill="#076DF3"/>
<path d="M19.8563 4.125H4.14375C3.92625 4.125 3.75 4.305 3.75 4.52625V15.7275C3.75 15.9487 3.92625 16.1287 4.14375 16.1287H19.8563C20.0737 16.1287 20.25 15.9487 20.25 15.7275V4.52625C20.25 4.305 20.0737 4.125 19.8563 4.125Z" fill="white"/>
<path d="M13.875 21H10.125C9.91789 21 9.75 21.1679 9.75 21.375C9.75 21.5821 9.91789 21.75 10.125 21.75H13.875C14.0821 21.75 14.25 21.5821 14.25 21.375C14.25 21.1679 14.0821 21 13.875 21Z" fill="#282572"/>
<path d="M19.5 19.125H4.5C4.29375 19.125 4.125 18.9563 4.125 18.75C4.125 18.5437 4.29375 18.375 4.5 18.375H19.5C19.7063 18.375 19.875 18.5437 19.875 18.75C19.875 18.9563 19.7063 19.125 19.5 19.125Z" fill="white"/>
<path d="M9.75 10.125C7.89 10.125 6.375 11.64 6.375 13.5C6.375 13.7062 6.54375 13.875 6.75 13.875H12.75C12.9563 13.875 13.125 13.7062 13.125 13.5C13.125 11.64 11.61 10.125 9.75 10.125Z" fill="#F37781"/>
<path d="M21.75 1.5H14.25C13.4212 1.5 12.75 2.17125 12.75 3V7.5C12.75 8.32875 13.4212 9 14.25 9V10.125C14.25 10.2638 14.325 10.3912 14.4487 10.455C14.505 10.485 14.565 10.5 14.625 10.5C14.6962 10.5 14.7712 10.4775 14.8312 10.4362L16.9875 9H21.75C22.5787 9 23.25 8.32875 23.25 7.5V3C23.25 2.17125 22.5787 1.5 21.75 1.5Z" fill="#F2B443"/>
<path d="M19.4325 4.60903L17.5837 3.81778C17.3362 3.71278 17.0437 3.73528 16.8187 3.88528C16.62 4.01653 16.5 4.23403 16.5 4.46278V6.04528C16.5 6.27403 16.62 6.49153 16.8187 6.62278C16.95 6.70903 17.1075 6.75403 17.2612 6.75403C17.37 6.75403 17.4787 6.73153 17.5837 6.69028L19.4325 5.89903C19.7062 5.78278 19.875 5.53528 19.875 5.25778C19.875 4.98028 19.7062 4.73278 19.4325 4.61653V4.60903Z" fill="white"/>
<path d="M9.75 6.375C8.715 6.375 7.875 7.215 7.875 8.25V9C7.875 10.035 8.715 10.875 9.75 10.875C10.785 10.875 11.625 10.035 11.625 9V8.25C11.625 7.215 10.785 6.375 9.75 6.375Z" fill="#F29494"/>
</svg>
