<svg width="25" height="24" viewBox="0 0 25 24" fill="none" xmlns="http://www.w3.org/2000/svg">
<path d="M12.5 1C10.3244 1 8.19767 1.64514 6.38873 2.85383C4.57979 4.06253 3.16989 5.78049 2.33733 7.79048C1.50477 9.80047 1.28693 12.0122 1.71137 14.146C2.1358 16.2798 3.18345 18.2398 4.72183 19.7782C6.26021 21.3166 8.22022 22.3642 10.354 22.7886C12.4878 23.2131 14.6995 22.9952 16.7095 22.1627C18.7195 21.3301 20.4375 19.9202 21.6462 18.1113C22.8549 16.3023 23.5 14.1756 23.5 12C23.4966 9.08367 22.3365 6.28778 20.2744 4.22563C18.2122 2.16347 15.4163 1.00344 12.5 1ZM17.5 13H13.5V17C13.5 17.2652 13.3946 17.5196 13.2071 17.7071C13.0196 17.8946 12.7652 18 12.5 18C12.2348 18 11.9804 17.8946 11.7929 17.7071C11.6054 17.5196 11.5 17.2652 11.5 17V13H7.5C7.23479 13 6.98043 12.8946 6.7929 12.7071C6.60536 12.5196 6.5 12.2652 6.5 12C6.5 11.7348 6.60536 11.4804 6.7929 11.2929C6.98043 11.1054 7.23479 11 7.5 11H11.5V7C11.5 6.73478 11.6054 6.48043 11.7929 6.29289C11.9804 6.10536 12.2348 6 12.5 6C12.7652 6 13.0196 6.10536 13.2071 6.29289C13.3946 6.48043 13.5 6.73478 13.5 7V11H17.5C17.7652 11 18.0196 11.1054 18.2071 11.2929C18.3946 11.4804 18.5 11.7348 18.5 12C18.5 12.2652 18.3946 12.5196 18.2071 12.7071C18.0196 12.8946 17.7652 13 17.5 13Z" fill="black"/>
</svg>
