<svg width="54" height="32" viewBox="0 0 54 32" fill="none" xmlns="http://www.w3.org/2000/svg">
<g clip-path="url(#clip0_388_5414)">
<path d="M53.3761 17.3185V0H0.376099V32H53.3761V22.6637C53.2581 22.6637 53.3761 17.3185 53.3761 17.3185Z" fill="#006FCF"/>
<path d="M41.8802 15.1258H44.9436V8.1543H41.6099V9.12502L40.9792 8.1543H38.0961V9.38976L37.5555 8.1543H32.2397C32.0595 8.1543 31.8793 8.24254 31.6991 8.24254C31.5189 8.24254 31.4288 8.33079 31.2486 8.41904C31.0684 8.50729 30.9783 8.50729 30.7981 8.59553V8.1543H15.5715L15.121 9.30151L14.6705 8.1543H11.0665V9.38976L10.5259 8.1543H7.64279L6.38141 11.1547L4.81177 15.1258H8.45367L8.81407 14.1551H9.53486L9.89525 15.1258H25.7526V14.2434L26.3833 15.1258H30.7981V14.5964C30.8882 14.6846 31.0684 14.6846 31.1585 14.7729C31.2486 14.8611 31.4288 14.8611 31.5189 14.9494C31.6991 15.0376 31.8793 15.0376 32.0595 15.0376H35.303L35.6634 14.0669H36.3842L36.7446 15.0376H41.1594V14.1551L41.8802 15.1258ZM47.6464 24.4801V17.4203H22.0586L21.4279 18.3028L20.7972 17.4203H13.5893V24.3918H20.7972L21.4279 23.5094L22.0586 24.3918H26.5635V22.8916H26.3833C27.014 22.8916 27.5546 22.8034 28.0051 22.6269V24.4801H31.2486V23.5976L31.8793 24.4801H45.304C46.0247 24.4801 47.3762 24.4801 47.6464 24.4801Z" fill="white"/>
<path d="M45.3039 22.2732H42.8713V23.2439H45.2138C46.2049 23.2439 46.8356 22.6261 46.8356 21.7437C46.8356 20.8612 46.295 20.42 45.394 20.42H44.3128C44.0425 20.42 43.8623 20.2435 43.8623 19.9787C43.8623 19.714 44.0425 19.5375 44.3128 19.5375H46.3851L46.8356 18.5668H44.4029C43.4118 18.5668 42.7812 19.1845 42.7812 19.9787C42.7812 20.8612 43.3218 21.3024 44.2227 21.3024H45.3039C45.5742 21.3024 45.7544 21.4789 45.7544 21.7437C45.8445 22.0967 45.6643 22.2732 45.3039 22.2732ZM40.8891 22.2732H38.4564V23.2439H40.799C41.7901 23.2439 42.4208 22.6261 42.4208 21.7437C42.4208 20.8612 41.8802 20.42 40.9792 20.42H39.898C39.6277 20.42 39.4475 20.2435 39.4475 19.9787C39.4475 19.714 39.6277 19.5375 39.898 19.5375H41.9703L42.4208 18.5668H39.9881C38.997 18.5668 38.3663 19.1845 38.3663 19.9787C38.3663 20.8612 38.9069 21.3024 39.8079 21.3024H40.8891C41.1594 21.3024 41.3396 21.4789 41.3396 21.7437C41.4297 22.0967 41.1594 22.2732 40.8891 22.2732ZM37.7356 19.4492V18.4785H33.9515V23.1556H37.7356V22.1849H35.0327V21.2142H37.6455V20.2435H35.0327V19.361H37.7356V19.4492ZM31.6089 19.4492C32.0594 19.4492 32.2396 19.714 32.2396 19.9787C32.2396 20.2435 32.0594 20.5082 31.6089 20.5082H30.2575V19.361L31.6089 19.4492ZM30.2575 21.4789H30.7981L32.2396 23.1556H33.5911L31.9693 21.3907C32.7802 21.2142 33.2307 20.6847 33.2307 19.9787C33.2307 19.0962 32.6 18.4785 31.6089 18.4785H29.0862V23.1556H30.1674L30.2575 21.4789ZM27.3743 20.067C27.3743 20.42 27.1941 20.6847 26.7436 20.6847H25.302V19.4492H26.6535C27.104 19.4492 27.3743 19.714 27.3743 20.067ZM24.2209 18.4785V23.1556H25.302V21.5672H26.7436C27.7347 21.5672 28.4555 20.9494 28.4555 19.9787C28.4555 19.0962 27.8248 18.3903 26.8337 18.3903L24.2209 18.4785ZM22.5991 23.1556H23.9506L22.0585 20.773L23.9506 18.4785H22.5991L21.4278 19.9787L20.2565 18.4785H18.905L20.7971 20.773L18.905 23.0674H20.2565L21.4278 21.5672L22.5991 23.1556ZM18.5447 19.4492V18.4785H14.7605V23.1556H18.5447V22.1849H15.8417V21.2142H18.4546V20.2435H15.8417V19.361H18.5447V19.4492ZM40.4386 11.154L42.3307 13.9779H43.6821V9.30078H42.601V12.3894L42.3307 11.9482L40.6188 9.30078H39.1772V13.9779H40.2584V10.801L40.4386 11.154ZM35.7535 11.0657L36.1139 10.095L36.4743 11.0657L36.9248 12.1247H35.303L35.7535 11.0657ZM37.6455 13.9779H38.8168L36.7446 9.30078H35.303L33.2307 13.9779H34.402L34.8525 13.0072H37.195L37.6455 13.9779ZM32.6 13.9779L33.0505 13.0072H32.7802C31.9693 13.0072 31.5188 12.4777 31.5188 11.6835V11.5952C31.5188 10.801 31.9693 10.2715 32.7802 10.2715H33.9515V9.30078H32.6901C31.2485 9.30078 30.4377 10.2715 30.4377 11.5952V11.6835C30.4377 13.0954 31.2485 13.9779 32.6 13.9779ZM28.5456 13.9779H29.6268V9.38903H28.5456V13.9779ZM26.203 10.2715C26.6535 10.2715 26.8337 10.5362 26.8337 10.801C26.8337 11.0657 26.6535 11.3305 26.203 11.3305H24.8515V10.1833L26.203 10.2715ZM24.8515 12.3012H25.3921L26.8337 13.9779H28.1852L26.5634 12.2129C27.3743 12.0365 27.8248 11.507 27.8248 10.801C27.8248 9.91851 27.1941 9.30078 26.203 9.30078H23.6803V13.9779H24.7614L24.8515 12.3012ZM22.8694 10.2715V9.30078H19.0852V13.9779H22.8694V13.0072H20.1664V12.0365H22.7793V11.0657H20.1664V10.1833H22.8694V10.2715ZM14.6704 13.9779H15.6615L17.013 10.1833V13.9779H18.0942V9.30078H16.2922L15.211 12.4777L14.1298 9.30078H12.3279V13.9779H13.409V10.1833L14.6704 13.9779ZM8.81401 11.0657L9.1744 10.095L9.5348 11.0657L9.98529 12.1247H8.36352L8.81401 11.0657ZM10.7061 13.9779H11.8774L9.80509 9.30078H8.45361L6.38135 13.9779H7.55263L8.00312 13.0072H10.3457L10.7061 13.9779Z" fill="#006FCF"/>
</g>
<rect x="1.03894" y="0.662844" width="51.6743" height="30.6743" rx="3.31422" stroke="black" stroke-opacity="0.07" stroke-width="1.32569"/>
<defs>
<clipPath id="clip0_388_5414">
<rect x="0.376099" width="53" height="32" rx="3.97706" fill="white"/>
</clipPath>
</defs>
</svg>
