<svg width="73" height="61" viewBox="0 0 73 61" fill="none" xmlns="http://www.w3.org/2000/svg">
<path d="M1.5 1.5H42.5C58.5163 1.5 71.5 14.4837 71.5 30.5C71.5 46.5163 58.5163 59.5 42.5 59.5H1.5V1.5Z" fill="#FC9EC2" stroke="#FF1D92" stroke-width="3"/>
<path d="M45.3611 42.5807C45.3615 40.8513 45.9766 39.1888 47.0785 37.9394C47.1471 37.8612 47.2294 37.7987 47.3206 37.7555C47.4118 37.7122 47.51 37.6892 47.6095 37.6876C47.709 37.686 47.8078 37.706 47.9001 37.7463C47.9924 37.7866 48.0763 37.8465 48.1471 37.9225C48.2178 37.9984 48.2739 38.0889 48.312 38.1887C48.3501 38.2884 48.3695 38.3954 48.3691 38.5034C48.3687 38.6113 48.3485 38.7181 48.3096 38.8175C48.2707 38.9169 48.214 39.0069 48.1427 39.0822C47.6218 39.6799 47.243 40.4064 47.0389 41.1987C46.8349 41.991 46.8119 42.8253 46.9718 43.6295C47.0199 43.8386 46.9894 44.0598 46.8871 44.2445C46.7848 44.4292 46.6191 44.5622 46.4264 44.6144C46.2337 44.6665 46.0299 44.6334 45.8597 44.5224C45.6895 44.4114 45.5669 44.2316 45.5188 44.0225C45.4126 43.5506 45.3596 43.0664 45.3611 42.5807Z" fill="black"/>
<path d="M45.3598 15.5794C45.358 15.0921 45.411 14.6063 45.5176 14.1328C45.5414 14.0291 45.5837 13.9315 45.6423 13.8456C45.7008 13.7597 45.7744 13.6871 45.8587 13.632C45.9431 13.577 46.0367 13.5405 46.134 13.5246C46.2314 13.5088 46.3307 13.5139 46.4263 13.5397C46.5218 13.5655 46.6117 13.6115 46.6909 13.675C46.7701 13.7385 46.837 13.8184 46.8877 13.9099C46.9385 14.0015 46.9721 14.103 46.9867 14.2087C47.0013 14.3144 46.9966 14.4221 46.9728 14.5258C46.8129 15.33 46.8359 16.1643 47.0399 16.9566C47.2439 17.7489 47.6228 18.4753 48.1436 19.073C48.2149 19.1484 48.2717 19.2383 48.3106 19.3377C48.3495 19.4371 48.3697 19.5439 48.3701 19.6519C48.3705 19.7599 48.3511 19.8669 48.313 19.9666C48.2748 20.0664 48.2188 20.1568 48.148 20.2328C48.0773 20.3088 47.9933 20.3686 47.901 20.409C47.8087 20.4493 47.71 20.4693 47.6105 20.4677C47.511 20.4661 47.4128 20.443 47.3216 20.3998C47.2304 20.3566 47.1481 20.294 47.0794 20.2159C45.9779 18.9681 45.362 17.3075 45.3598 15.5794Z" fill="black"/>
<path d="M24.0011 34.083C24.001 33.9408 24.0354 33.8011 24.1011 33.678C25.2897 31.443 25.2897 26.7197 24.1011 24.4847C24.0519 24.3923 24.02 24.2902 24.0072 24.1844C23.9944 24.0785 24.0009 23.971 24.0264 23.8679C24.0518 23.7648 24.0958 23.6682 24.1557 23.5835C24.2156 23.4988 24.2902 23.4278 24.3754 23.3744C24.4606 23.3211 24.5547 23.2865 24.6522 23.2726C24.7497 23.2586 24.8488 23.2657 24.9438 23.2934C25.0388 23.321 25.1279 23.3687 25.2059 23.4337C25.2839 23.4987 25.3494 23.5797 25.3985 23.6722C26.8515 26.4015 26.8515 31.7612 25.3985 34.4905C25.3161 34.6457 25.1888 34.767 25.0364 34.8355C24.8839 34.9041 24.7149 34.916 24.5555 34.8696C24.3961 34.8231 24.2554 34.7208 24.1551 34.5786C24.0549 34.4363 24.0007 34.2621 24.0011 34.083Z" fill="black"/>
<path d="M41.9203 31.1307C40.8698 30.4258 39.683 29.9951 38.4532 29.8723C37.2233 29.7496 35.984 29.9382 34.8327 30.4234C33.6814 30.9085 32.6496 31.6769 31.8183 32.6682C30.9871 33.6595 30.3791 34.8465 30.0422 36.136C29.7054 37.4254 29.6488 38.7821 29.877 40.0993C30.1052 41.4165 30.6119 42.6583 31.3573 43.727C32.1026 44.7957 33.0663 45.6621 34.1726 46.2581C35.2788 46.854 36.4973 47.1633 37.7324 47.1616C38.0174 47.1613 38.3021 47.1444 38.5855 47.111C41.3249 41.4668 42.0491 35.6513 41.9314 31.1307L41.9203 31.1307Z" fill="white"/>
<path d="M41.9219 33.0451C41.1514 32.2193 40.1889 31.636 39.1369 31.3572C38.0849 31.0784 36.983 31.1147 35.9485 31.4622C34.914 31.8097 33.9859 32.4553 33.263 33.3303C32.5401 34.2053 32.0495 35.2767 31.8437 36.4305C31.6378 37.5842 31.7244 38.7769 32.094 39.8815C32.4637 40.986 33.1027 41.961 33.9429 42.7024C34.7831 43.4438 35.7929 43.9239 36.8647 44.0914C37.9365 44.2589 39.0302 44.1076 40.029 43.6537C40.8777 41.5175 41.8641 37.0474 41.9219 33.0451Z" fill="black"/>
<path d="M37.6899 32.4453C37.6902 32.3235 37.7157 32.2034 37.7645 32.0937C37.8132 31.9841 37.884 31.8876 37.9716 31.8115C38.0591 31.7355 38.1613 31.6816 38.2706 31.654C38.3799 31.6264 38.4935 31.6257 38.603 31.652C39.6358 31.93 40.5834 32.4969 41.3513 33.2964C41.4185 33.3743 41.471 33.4658 41.5057 33.5657C41.5403 33.6655 41.5565 33.7719 41.5533 33.8785C41.5501 33.9852 41.5276 34.0902 41.487 34.1874C41.4464 34.2846 41.3886 34.3723 41.3168 34.4452C41.2451 34.5182 41.1608 34.5751 41.0687 34.6128C40.9767 34.6504 40.8787 34.668 40.7804 34.6645C40.6821 34.661 40.5854 34.6366 40.4958 34.5925C40.4062 34.5485 40.3254 34.4858 40.2582 34.4079C39.6948 33.8475 39.0137 33.4453 38.2742 33.2361C38.1086 33.1957 37.9607 33.0954 37.8545 32.9517C37.7483 32.808 37.6903 32.6294 37.6899 32.4453Z" fill="white"/>
<path d="M41.9203 27.031C40.8698 27.7358 39.683 28.1666 38.4532 28.2893C37.2233 28.412 35.984 28.2234 34.8327 27.7383C33.6814 27.2531 32.6496 26.4847 31.8183 25.4934C30.9871 24.5022 30.3791 23.3151 30.0422 22.0257C29.7054 20.7362 29.6488 19.3795 29.877 18.0623C30.1052 16.7451 30.6119 15.5033 31.3573 14.4346C32.1026 13.366 33.0663 12.4996 34.1726 11.9036C35.2788 11.3076 36.4973 10.9983 37.7324 11C38.0174 11.0004 38.3021 11.0173 38.5855 11.0506C41.3249 16.6949 42.0491 22.5103 41.9314 27.031L41.9203 27.031Z" fill="white"/>
<path d="M41.9219 25.1361C41.1514 25.9618 40.1889 26.5452 39.1369 26.824C38.0849 27.1027 36.983 27.0664 35.9485 26.7189C34.914 26.3715 33.9859 25.7258 33.263 24.8509C32.5401 23.9759 32.0495 22.9044 31.8437 21.7507C31.6378 20.597 31.7244 19.4042 32.094 18.2997C32.4637 17.1951 33.1027 16.2202 33.9429 15.4788C34.7831 14.7373 35.7929 14.2573 36.8647 14.0898C37.9365 13.9222 39.0302 14.0735 40.029 14.5275C40.8777 16.6516 41.8641 21.1241 41.9219 25.1361Z" fill="black"/>
<path d="M38.2531 15.5103C38.2525 15.3243 38.3108 15.1438 38.4181 14.9989C38.5254 14.854 38.6753 14.7534 38.8427 14.7139C39.0101 14.6744 39.185 14.6984 39.338 14.7819C39.4911 14.8654 39.6132 15.0033 39.6838 15.1727C40.1415 16.2673 40.637 18.3673 40.7547 18.9677C40.7965 19.1787 40.7594 19.3991 40.6515 19.5804C40.5436 19.7617 40.3737 19.8891 40.1793 19.9345C39.9848 19.9799 39.7817 19.9396 39.6147 19.8225C39.4476 19.7054 39.3302 19.5211 39.2884 19.3101C39.1662 18.6928 38.6974 16.7544 38.3175 15.8454C38.2743 15.7399 38.2524 15.6257 38.2531 15.5103Z" fill="white"/>
</svg>
