<svg width="241" height="162" viewBox="0 0 241 162" fill="none" xmlns="http://www.w3.org/2000/svg">
<line x1="197" y1="54" x2="102" y2="54" stroke="#7CFF45" stroke-width="4"/>
<circle cx="101.5" cy="53.5" r="7.5" transform="rotate(-180 101.5 53.5)" fill="#FF0000"/>
<line x1="197" y1="132" x2="102" y2="132" stroke="#7CFF45" stroke-width="4"/>
<circle cx="101.5" cy="131.5" r="7.5" transform="rotate(-180 101.5 131.5)" fill="#FF0000"/>
<circle cx="7.5" cy="154.5" r="7.5" transform="rotate(-180 7.5 154.5)" fill="#FF0000"/>
<circle cx="7.5" cy="7.5" r="7.5" transform="rotate(-180 7.5 7.5)" fill="#FF0000"/>
<path d="M125.5 54.5H201C221.711 54.5 238.5 71.2893 238.5 92V94C238.5 114.711 221.711 131.5 201 131.5H125.5V54.5Z" fill="#43D000" stroke="#7CFF45" stroke-width="5"/>
<path d="M169.622 67.0972C169.622 69.36 171.456 71.1944 173.719 71.1944C175.982 71.1944 177.816 69.36 177.816 67.0972C177.816 64.8344 175.982 63 173.719 63C171.456 63 169.622 64.8344 169.622 67.0972Z" fill="#7CFF45"/>
<path d="M169.622 119.902C169.622 122.165 171.456 123.999 173.719 123.999C175.982 123.999 177.816 122.165 177.816 119.902C177.816 117.639 175.982 115.805 173.719 115.805C171.456 115.805 169.622 117.639 169.622 119.902Z" fill="#7CFF45"/>
<path d="M195.887 111.735C195.887 106.64 191.742 102.496 186.648 102.496C181.554 102.496 177.409 106.641 177.409 111.735C177.409 116.829 181.554 120.974 186.648 120.974C191.742 120.974 195.887 116.829 195.887 111.735Z" fill="black"/>
<path d="M195.887 75.2627C195.887 70.1682 191.742 66.0234 186.648 66.0234C181.554 66.0234 177.409 70.1682 177.409 75.2627C177.409 80.3572 181.554 84.5016 186.648 84.5016C191.742 84.5016 195.887 80.3568 195.887 75.2627Z" fill="black"/>
<path d="M176.942 103.168C176.942 102.309 176.246 101.613 175.388 101.613C173.58 101.613 172.108 100.142 172.108 98.3338C172.108 96.5256 173.58 95.0542 175.388 95.0542C176.246 95.0542 176.942 94.3586 176.942 93.4999C176.942 92.6415 176.246 91.9455 175.388 91.9455C173.58 91.9455 172.108 90.4741 172.108 88.6658C172.108 86.8575 173.58 85.386 175.388 85.386C176.246 85.386 176.942 84.6901 176.942 83.8317C176.942 82.9733 176.246 82.2773 175.388 82.2773C171.865 82.2773 169 85.1429 169 88.6656C169 90.595 169.859 92.3272 171.216 93.4995C169.859 94.6718 169 96.4042 169 98.3333C169 101.856 171.865 104.721 175.388 104.721C176.247 104.722 176.942 104.026 176.942 103.168Z" fill="black"/>
<path d="M183.129 80.9997C183.129 81.8581 183.825 82.554 184.683 82.554C185.541 82.554 186.237 81.8581 186.237 80.9997C186.237 80.1412 185.541 79.4453 184.683 79.4453C183.825 79.4453 183.129 80.1412 183.129 80.9997Z" fill="white"/>
<path d="M183.129 118.089C183.129 118.948 183.825 119.644 184.683 119.644C185.541 119.644 186.237 118.948 186.237 118.089C186.237 117.231 185.541 116.535 184.683 116.535C183.825 116.535 183.129 117.231 183.129 118.089Z" fill="white"/>
<path d="M180.227 71.6012C180.227 72.4597 180.923 73.1556 181.782 73.1556C182.64 73.1556 183.336 72.4597 183.336 71.6012C183.336 70.7428 182.64 70.0469 181.782 70.0469C180.923 70.0469 180.227 70.7428 180.227 71.6012Z" fill="white"/>
<path d="M180.227 108.695C180.227 109.553 180.923 110.249 181.782 110.249C182.64 110.249 183.336 109.553 183.336 108.695C183.336 107.837 182.64 107.141 181.782 107.141C180.923 107.141 180.227 107.837 180.227 108.695Z" fill="white"/>
<path d="M186.322 114.295C186.322 116.108 187.792 117.577 189.605 117.577C191.418 117.577 192.888 116.108 192.888 114.295C192.888 112.481 191.418 111.012 189.605 111.012C187.792 111.012 186.322 112.481 186.322 114.295Z" fill="white"/>
<path d="M186.322 77.818C186.322 79.631 187.792 81.1008 189.605 81.1008C191.418 81.1008 192.888 79.631 192.888 77.818C192.888 76.0049 191.418 74.5352 189.605 74.5352C187.792 74.5352 186.322 76.0049 186.322 77.818Z" fill="white"/>
</svg>
