<svg width="118" height="82" viewBox="0 0 118 82" fill="none" xmlns="http://www.w3.org/2000/svg">
<path d="M1.5 1.5H77C98.8152 1.5 116.5 19.1848 116.5 41C116.5 62.8152 98.8152 80.5 77 80.5H1.5V1.5Z" fill="#FC9EC2" stroke="#FF1D92" stroke-width="3"/>
<path d="M73.3232 57.2378C73.3238 54.9131 74.3182 52.6783 76.0993 50.9988C76.2102 50.8937 76.3433 50.8097 76.4907 50.7515C76.6381 50.6934 76.7968 50.6624 76.9576 50.6603C77.1184 50.6582 77.2781 50.685 77.4273 50.7392C77.5765 50.7934 77.7122 50.8739 77.8266 50.976C77.9409 51.0781 78.0315 51.1998 78.0932 51.3338C78.1548 51.4679 78.1862 51.6117 78.1855 51.7569C78.1849 51.902 78.1522 52.0456 78.0893 52.1792C78.0265 52.3128 77.9347 52.4338 77.8195 52.5351C76.9775 53.3385 76.3651 54.315 76.0354 55.3801C75.7056 56.4452 75.6684 57.5667 75.9269 58.6477C76.0045 58.9288 75.9552 59.2262 75.7899 59.4745C75.6245 59.7228 75.3567 59.9016 75.0452 59.9717C74.7338 60.0417 74.4042 59.9973 74.1291 59.848C73.854 59.6988 73.6558 59.4571 73.5782 59.176C73.4064 58.5417 73.3208 57.8908 73.3232 57.2378Z" fill="black"/>
<path d="M73.3216 20.9423C73.3186 20.2871 73.4042 19.6341 73.5766 18.9976C73.615 18.8583 73.6835 18.7271 73.7781 18.6116C73.8727 18.496 73.9916 18.3985 74.128 18.3245C74.2644 18.2504 74.4156 18.2013 74.573 18.1801C74.7304 18.1588 74.8909 18.1657 75.0454 18.2003C75.1998 18.235 75.3452 18.2968 75.4732 18.3822C75.6012 18.4676 75.7093 18.5749 75.7913 18.698C75.8733 18.8211 75.9277 18.9576 75.9513 19.0996C75.9749 19.2417 75.9673 19.3865 75.9288 19.5259C75.6703 20.6069 75.7076 21.7285 76.0373 22.7935C76.3671 23.8586 76.9795 24.8351 77.8214 25.6386C77.9367 25.7398 78.0284 25.8608 78.0913 25.9944C78.1541 26.128 78.1868 26.2716 78.1875 26.4168C78.1882 26.5619 78.1567 26.7057 78.0951 26.8398C78.0335 26.9739 77.9428 27.0955 77.8285 27.1976C77.7142 27.2997 77.5785 27.3802 77.4293 27.4344C77.2801 27.4887 77.1204 27.5155 76.9596 27.5134C76.7988 27.5112 76.64 27.4802 76.4926 27.4221C76.3453 27.364 76.2122 27.2799 76.1012 27.1748C74.3206 25.4975 73.325 23.2652 73.3216 20.9423Z" fill="black"/>
<path d="M38.796 45.8149C38.7958 45.6237 38.8516 45.4359 38.9576 45.2704C40.8789 42.2659 40.8789 35.9167 38.9576 32.9122C38.8781 32.7879 38.8266 32.6507 38.8059 32.5085C38.7851 32.3662 38.7957 32.2217 38.8369 32.0831C38.878 31.9445 38.9491 31.8146 39.0459 31.7007C39.1427 31.5869 39.2634 31.4914 39.4011 31.4197C39.5388 31.348 39.6908 31.3015 39.8485 31.2828C40.0061 31.2641 40.1663 31.2736 40.3199 31.3107C40.4734 31.3479 40.6174 31.412 40.7435 31.4994C40.8696 31.5868 40.9754 31.6957 41.0549 31.82C43.4036 35.4889 43.4036 42.6937 41.0549 46.3626C40.9217 46.5712 40.7159 46.7343 40.4695 46.8264C40.2231 46.9186 39.9498 46.9346 39.6922 46.8722C39.4346 46.8097 39.2071 46.6722 39.045 46.481C38.8829 46.2898 38.7954 46.0556 38.796 45.8149Z" fill="black"/>
<path d="M67.7615 41.8459C66.0635 40.8984 64.1451 40.3194 62.1571 40.1544C60.1692 39.9894 58.1659 40.243 56.3049 40.8951C54.4439 41.5473 52.776 42.5803 51.4323 43.9128C50.0887 45.2453 49.1059 46.841 48.5614 48.5744C48.0169 50.3078 47.9255 52.1315 48.2943 53.9022C48.6632 55.6728 49.4822 57.3421 50.6871 58.7787C51.8919 60.2153 53.4497 61.3799 55.2378 62.1811C57.0259 62.9823 58.9956 63.398 60.992 63.3957C61.4527 63.3953 61.913 63.3725 62.371 63.3277C66.7991 55.7404 67.9698 47.9229 67.7795 41.8459L67.7615 41.8459Z" fill="white"/>
<path d="M67.7646 44.4204C66.5192 43.3104 64.9634 42.5262 63.2629 42.1515C61.5625 41.7767 59.7812 41.8255 58.1091 42.2926C56.4369 42.7597 54.9366 43.6277 53.7681 44.8038C52.5996 45.98 51.8066 47.4203 51.4739 48.9713C51.1411 50.5222 51.281 52.1255 51.8786 53.6103C52.4762 55.0951 53.5091 56.4057 54.8671 57.4024C56.2252 58.399 57.8575 59.0444 59.5901 59.2696C61.3226 59.4948 63.0904 59.2914 64.7049 58.6811C66.0768 55.8095 67.6713 49.8006 67.7646 44.4204Z" fill="black"/>
<path d="M60.9233 43.6117C60.9239 43.448 60.9651 43.2865 61.0439 43.1391C61.1226 42.9917 61.237 42.8621 61.3786 42.7598C61.5202 42.6575 61.6854 42.5852 61.862 42.548C62.0387 42.5109 62.2223 42.51 62.3993 42.5454C64.0688 42.919 65.6005 43.6811 66.8417 44.7558C66.9504 44.8605 67.0352 44.9835 67.0913 45.1178C67.1473 45.2521 67.1735 45.395 67.1683 45.5384C67.1631 45.6818 67.1267 45.8229 67.0611 45.9536C66.9955 46.0843 66.9021 46.2021 66.7861 46.3002C66.67 46.3983 66.5338 46.4748 66.385 46.5254C66.2362 46.5759 66.0778 46.5996 65.9189 46.5949C65.76 46.5902 65.6037 46.5574 65.4589 46.4982C65.314 46.439 65.1835 46.3546 65.0748 46.2499C64.1642 45.4967 63.0632 44.9559 61.8678 44.6748C61.6002 44.6204 61.361 44.4856 61.1894 44.2925C61.0178 44.0993 60.924 43.8593 60.9233 43.6117Z" fill="white"/>
<path d="M67.7615 36.335C66.0635 37.2825 64.1451 37.8615 62.1571 38.0265C60.1692 38.1915 58.1659 37.9379 56.3049 37.2858C54.4439 36.6336 52.776 35.6006 51.4323 34.2681C50.0887 32.9356 49.1059 31.3399 48.5614 29.6065C48.0169 27.8732 47.9255 26.0494 48.2943 24.2787C48.6632 22.5081 49.4822 20.8388 50.6871 19.4022C51.8919 17.9656 53.4497 16.801 55.2378 15.9998C57.0259 15.1987 58.9956 14.7829 60.992 14.7852C61.4527 14.7857 61.913 14.8084 62.371 14.8532C66.7991 22.4406 67.9698 30.258 67.7795 36.335L67.7615 36.335Z" fill="white"/>
<path d="M67.7646 33.7859C66.5192 34.896 64.9634 35.6802 63.2629 36.0549C61.5625 36.4296 59.7812 36.3809 58.1091 35.9137C56.4369 35.4466 54.9366 34.5787 53.7681 33.4025C52.5996 32.2264 51.8066 30.786 51.4739 29.2351C51.1411 27.6842 51.281 26.0809 51.8786 24.5961C52.4762 23.1112 53.5091 21.8006 54.8671 20.804C56.2252 19.8073 57.8575 19.162 59.5901 18.9368C61.3226 18.7116 63.0904 18.915 64.7049 19.5252C66.0768 22.3806 67.6713 28.3928 67.7646 33.7859Z" fill="black"/>
<path d="M61.8334 20.8494C61.8326 20.5995 61.9268 20.3568 62.1002 20.162C62.2737 19.9672 62.5159 19.8319 62.7866 19.7788C63.0572 19.7257 63.3398 19.758 63.5872 19.8703C63.8347 19.9825 64.032 20.168 64.1462 20.3957C64.886 21.8671 65.6868 24.6901 65.8772 25.4971C65.9448 25.7808 65.8848 26.077 65.7104 26.3208C65.5359 26.5645 65.2613 26.7357 64.947 26.7968C64.6327 26.8578 64.3044 26.8036 64.0344 26.6462C63.7643 26.4888 63.5746 26.241 63.5069 25.9573C63.3094 25.1276 62.5517 22.5218 61.9376 21.2999C61.8678 21.1581 61.8323 21.0045 61.8334 20.8494Z" fill="white"/>
</svg>
