<svg width="147" height="93" viewBox="0 0 147 93" fill="none" xmlns="http://www.w3.org/2000/svg">
<line x1="103" y1="8" x2="8" y2="8" stroke="#2C4CDB" stroke-width="4"/>
<circle cx="7.5" cy="7.5" r="7.5" transform="rotate(-180 7.5 7.5)" fill="#008000"/>
<line x1="103" y1="86" x2="8" y2="86" stroke="#2C4CDB" stroke-width="4"/>
<circle cx="7.5" cy="85.5" r="7.5" transform="rotate(-180 7.5 85.5)" fill="#008000"/>
<path d="M31.5 8.5H107C127.711 8.5 144.5 25.2893 144.5 46V48C144.5 68.7107 127.711 85.5 107 85.5H31.5V8.5Z" fill="#FC9EC2" stroke="#FF1D92" stroke-width="5"/>
<path d="M75.6221 21.0972C75.6221 23.36 77.4564 25.1944 79.7192 25.1944C81.982 25.1944 83.8164 23.36 83.8164 21.0972C83.8164 18.8344 81.982 17 79.7192 17C77.4564 17 75.6221 18.8344 75.6221 21.0972Z" fill="#FF1D92"/>
<path d="M75.6221 73.9019C75.6221 76.1647 77.4564 77.999 79.7192 77.999C81.982 77.999 83.8164 76.1647 83.8164 73.9019C83.8164 71.6391 81.982 69.8047 79.7192 69.8047C77.4564 69.8047 75.6221 71.6391 75.6221 73.9019Z" fill="#FF1D92"/>
<path d="M101.887 65.735C101.887 60.6405 97.742 56.4961 92.6478 56.4961C87.5537 56.4961 83.4089 60.6407 83.4089 65.735C83.4089 70.8293 87.5537 74.9739 92.6478 74.9739C97.742 74.9739 101.887 70.8295 101.887 65.735Z" fill="black"/>
<path d="M101.887 29.2627C101.887 24.1682 97.742 20.0234 92.6478 20.0234C87.5537 20.0234 83.4089 24.1682 83.4089 29.2627C83.4089 34.3572 87.5537 38.5016 92.6478 38.5016C97.742 38.5016 101.887 34.3568 101.887 29.2627Z" fill="black"/>
<path d="M82.9424 57.1677C82.9424 56.3092 82.2464 55.6133 81.388 55.6133C79.5797 55.6133 78.1083 54.1419 78.1083 52.3338C78.1083 50.5256 79.5797 49.0542 81.388 49.0542C82.2464 49.0542 82.9424 48.3586 82.9424 47.4999C82.9424 46.6415 82.2464 45.9455 81.388 45.9455C79.5797 45.9455 78.1083 44.4741 78.1083 42.6658C78.1083 40.8575 79.5797 39.386 81.388 39.386C82.2464 39.386 82.9424 38.6901 82.9424 37.8317C82.9424 36.9733 82.2464 36.2773 81.388 36.2773C77.8654 36.2773 74.9998 39.1429 74.9998 42.6656C74.9998 44.595 75.8593 46.3272 77.2159 47.4995C75.8593 48.6718 74.9998 50.4042 74.9998 52.3333C74.9998 55.8556 77.8654 58.7214 81.388 58.7214C82.2466 58.722 82.9424 58.0264 82.9424 57.1677Z" fill="black"/>
<path d="M89.1286 34.9997C89.1286 35.8581 89.8245 36.554 90.683 36.554C91.5414 36.554 92.2373 35.8581 92.2373 34.9997C92.2373 34.1412 91.5414 33.4453 90.683 33.4453C89.8245 33.4453 89.1286 34.1412 89.1286 34.9997Z" fill="white"/>
<path d="M89.1286 72.0895C89.1286 72.9479 89.8245 73.6438 90.683 73.6438C91.5414 73.6438 92.2373 72.9479 92.2373 72.0895C92.2373 71.2311 91.5414 70.5352 90.683 70.5352C89.8245 70.5352 89.1286 71.2311 89.1286 72.0895Z" fill="white"/>
<path d="M86.2273 25.6012C86.2273 26.4597 86.9232 27.1556 87.7816 27.1556C88.64 27.1556 89.3359 26.4597 89.3359 25.6012C89.3359 24.7428 88.64 24.0469 87.7816 24.0469C86.9232 24.0469 86.2273 24.7428 86.2273 25.6012Z" fill="white"/>
<path d="M86.2273 62.695C86.2273 63.5534 86.9232 64.2493 87.7816 64.2493C88.64 64.2493 89.3359 63.5534 89.3359 62.695C89.3359 61.8365 88.64 61.1406 87.7816 61.1406C86.9232 61.1406 86.2273 61.8365 86.2273 62.695Z" fill="white"/>
<path d="M92.3221 68.2945C92.3221 70.1076 93.7919 71.5773 95.6049 71.5773C97.4179 71.5773 98.8877 70.1076 98.8877 68.2945C98.8877 66.4815 97.4179 65.0117 95.6049 65.0117C93.7919 65.0117 92.3221 66.4815 92.3221 68.2945Z" fill="white"/>
<path d="M92.3221 31.818C92.3221 33.631 93.7919 35.1008 95.6049 35.1008C97.4179 35.1008 98.8877 33.631 98.8877 31.818C98.8877 30.0049 97.4179 28.5352 95.6049 28.5352C93.7919 28.5352 92.3221 30.0049 92.3221 31.818Z" fill="white"/>
</svg>
