<svg width="93" height="51" viewBox="0 0 93 51" fill="none" xmlns="http://www.w3.org/2000/svg">
<g filter="url(#filter0_d_885_180142)">
<path d="M4 8.07812C4 3.65984 7.58172 0.078125 12 0.078125H89V42.6257H12C7.58172 42.6257 4 39.044 4 34.6257V8.07812Z" fill="#00DDA8" shape-rendering="crispEdges"/>
<path fill-rule="evenodd" clip-rule="evenodd" d="M45 25.3516C45 24.5556 44.684 23.7926 44.121 23.2306C43.559 22.6676 42.796 22.3516 42 22.3516C40.014 22.3516 36.986 22.3516 35 22.3516C34.204 22.3516 33.441 22.6676 32.879 23.2306C32.316 23.7926 32 24.5556 32 25.3516V32.3516C32 33.1476 32.316 33.9106 32.879 34.4726C33.441 35.0356 34.204 35.3516 35 35.3516H42C42.796 35.3516 43.559 35.0356 44.121 34.4726C44.684 33.9106 45 33.1476 45 32.3516V25.3516ZM60 25.3516C60 24.5556 59.684 23.7926 59.121 23.2306C58.559 22.6676 57.796 22.3516 57 22.3516C55.014 22.3516 51.986 22.3516 50 22.3516C49.204 22.3516 48.441 22.6676 47.879 23.2306C47.316 23.7926 47 24.5556 47 25.3516V32.3516C47 33.1476 47.316 33.9106 47.879 34.4726C48.441 35.0356 49.204 35.3516 50 35.3516H57C57.796 35.3516 58.559 35.0356 59.121 34.4726C59.684 33.9106 60 33.1476 60 32.3516V25.3516ZM45 10.3516C45 9.55556 44.684 8.79256 44.121 8.23056C43.559 7.66756 42.796 7.35156 42 7.35156C40.014 7.35156 36.986 7.35156 35 7.35156C34.204 7.35156 33.441 7.66756 32.879 8.23056C32.316 8.79256 32 9.55556 32 10.3516V17.3516C32 18.1476 32.316 18.9106 32.879 19.4726C33.441 20.0356 34.204 20.3516 35 20.3516H42C42.796 20.3516 43.559 20.0356 44.121 19.4726C44.684 18.9106 45 18.1476 45 17.3516V10.3516Z" fill="white"/>
<path fill-rule="evenodd" clip-rule="evenodd" d="M55.621 20.1439L59.793 15.9719C60.964 14.8009 60.964 12.9009 59.793 11.7299L55.621 7.55794C54.45 6.38694 52.55 6.38694 51.379 7.55794L47.207 11.7299C46.036 12.9009 46.036 14.8009 47.207 15.9719L51.379 20.1439C52.55 21.3149 54.45 21.3149 55.621 20.1439Z" fill="#FF9900"/>
</g>
<defs>
<filter id="filter0_d_885_180142" x="0" y="0.078125" width="93" height="50.5469" filterUnits="userSpaceOnUse" color-interpolation-filters="sRGB">
<feFlood flood-opacity="0" result="BackgroundImageFix"/>
<feColorMatrix in="SourceAlpha" type="matrix" values="0 0 0 0 0 0 0 0 0 0 0 0 0 0 0 0 0 0 127 0" result="hardAlpha"/>
<feOffset dy="4"/>
<feGaussianBlur stdDeviation="2"/>
<feComposite in2="hardAlpha" operator="out"/>
<feColorMatrix type="matrix" values="0 0 0 0 0 0 0 0 0 0.313726 0 0 0 0 0.4 0 0 0 0.16 0"/>
<feBlend mode="normal" in2="BackgroundImageFix" result="effect1_dropShadow_885_180142"/>
<feBlend mode="normal" in="SourceGraphic" in2="effect1_dropShadow_885_180142" result="shape"/>
</filter>
</defs>
</svg>
