<svg width="46" height="32" viewBox="0 0 46 32" fill="none" xmlns="http://www.w3.org/2000/svg">
<g clip-path="url(#clip0_388_5418)">
<path d="M0.376099 4C0.376099 2.38781 2.74635 0 5.67022 0H40.082C43.0058 0 45.3761 2.38781 45.3761 5.33333V26.6667C45.3761 29.6121 43.0058 32 40.082 32H5.67022C2.74635 32 0.376099 29.6121 0.376099 26.6667V5.33333V4Z" fill="white"/>
<path d="M5.67002 1.33268H40.0818V-1.33398H5.67002V1.33268ZM44.0524 5.33268V26.666H46.6994V5.33268H44.0524ZM40.0818 30.666H5.67002V33.3327H40.0818V30.666ZM1.69943 26.666V5.33268H-0.947632V26.666H1.69943ZM5.67002 30.666C3.47713 30.666 1.69943 28.8752 1.69943 26.666H-0.947632C-0.947632 30.3479 2.01519 33.3327 5.67002 33.3327V30.666ZM44.0524 26.666C44.0524 28.8752 42.2747 30.666 40.0818 30.666V33.3327C43.7366 33.3327 46.6994 30.3479 46.6994 26.666H44.0524ZM40.0818 1.33268C42.2747 1.33268 44.0524 3.12355 44.0524 5.33268H46.6994C46.6994 1.65079 43.7366 -1.33398 40.0818 -1.33398V1.33268ZM5.67002 -1.33398C2.01519 -1.33398 -0.947632 1.65079 -0.947632 5.33268H1.69943C1.69943 3.12355 3.47713 1.33268 5.67002 1.33268V-1.33398Z" fill="#C6C6C6"/>
<path fill-rule="evenodd" clip-rule="evenodd" d="M12.8822 11.1249C12.5045 11.5941 11.9001 11.9641 11.2958 11.9113C11.2203 11.2769 11.5161 10.6028 11.8624 10.1865C12.2401 9.70405 12.9011 9.36042 13.4362 9.33398C13.4991 9.99482 13.2536 10.6425 12.8822 11.1249ZM13.4298 12.0368C12.8974 12.0047 12.4116 12.2049 12.0192 12.3667C11.7667 12.4707 11.5529 12.5589 11.3902 12.5589C11.2076 12.5589 10.985 12.466 10.735 12.3618C10.4074 12.2252 10.0329 12.069 9.64011 12.0765C8.7399 12.0897 7.90264 12.625 7.4431 13.4775C6.49881 15.1824 7.19758 17.7068 8.11038 19.0947C8.55735 19.7819 9.09244 20.5352 9.79749 20.5088C10.1077 20.4965 10.3308 20.3971 10.5617 20.2943C10.8276 20.1759 11.1037 20.0528 11.535 20.0528C11.9512 20.0528 12.2153 20.1727 12.4688 20.2876C12.7099 20.3971 12.9414 20.502 13.285 20.4956C14.0153 20.4824 14.4748 19.8083 14.9217 19.1211C15.4042 18.3835 15.6161 17.6635 15.6482 17.5543L15.6521 17.5416C15.6513 17.5408 15.6453 17.538 15.6347 17.5329C15.4735 17.4555 14.2412 16.8632 14.2293 15.2749C14.2175 13.9419 15.2068 13.2665 15.3626 13.1601C15.372 13.1537 15.3785 13.1493 15.3813 13.147C14.7518 12.169 13.7697 12.0633 13.4298 12.0368ZM18.4849 20.4229V10.1204H22.1677C24.0688 10.1204 25.3971 11.4949 25.3971 13.5039C25.3971 15.5128 24.0435 16.9007 22.1172 16.9007H20.0083V20.4229H18.4849ZM20.0082 11.4685H21.7645C23.0866 11.4685 23.8419 12.2086 23.8419 13.5105C23.8419 14.8124 23.0866 15.5591 21.7583 15.5591H20.0082V11.4685ZM30.427 19.1871C30.0241 19.9933 29.1364 20.5021 28.1795 20.5021C26.7632 20.5021 25.7748 19.6167 25.7748 18.2817C25.7748 16.9601 26.7317 16.2001 28.5006 16.0877L30.4017 15.9688V15.4005C30.4017 14.5612 29.8793 14.1052 28.9476 14.1052C28.1795 14.1052 27.6193 14.5216 27.506 15.156H26.1336C26.1777 13.8211 27.3738 12.8497 28.9916 12.8497C30.7354 12.8497 31.8686 13.8079 31.8686 15.2948V20.4229H30.4584V19.1871H30.427ZM28.5886 19.2796C27.7765 19.2796 27.2603 18.8699 27.2603 18.2421C27.2603 17.5945 27.7577 17.2179 28.7083 17.1584L30.4016 17.046V17.6276C30.4016 18.5924 29.6211 19.2796 28.5886 19.2796ZM36.5458 20.826C35.9351 22.6301 35.2365 23.2248 33.7508 23.2248C33.6375 23.2248 33.2598 23.2116 33.1716 23.1852V21.9495C33.266 21.9627 33.4989 21.9759 33.6186 21.9759C34.2921 21.9759 34.6699 21.6785 34.9028 20.9053L35.0412 20.4493L32.4602 12.9488H34.053L35.847 19.0352H35.8785L37.6727 12.9488H39.2213L36.5458 20.826Z" fill="black"/>
</g>
<defs>
<clipPath id="clip0_388_5418">
<rect x="0.376099" width="45" height="32" rx="5" fill="white"/>
</clipPath>
</defs>
</svg>
