<svg width="63" height="8" viewBox="0 0 63 8" fill="none" xmlns="http://www.w3.org/2000/svg">
<path d="M62.6667 4C62.6667 2.52724 61.4728 1.33333 60 1.33333C58.5272 1.33333 57.3333 2.52724 57.3333 4C57.3333 5.47276 58.5272 6.66667 60 6.66667C61.4728 6.66667 62.6667 5.47276 62.6667 4ZM0.646446 3.64645C0.451183 3.84171 0.451183 4.1583 0.646446 4.35356L3.82843 7.53554C4.02369 7.7308 4.34027 7.7308 4.53553 7.53554C4.7308 7.34028 4.7308 7.02369 4.53553 6.82843L1.70711 4.00001L4.53553 1.17158C4.7308 0.976316 4.7308 0.659733 4.53553 0.464471C4.34027 0.269209 4.02369 0.269209 3.82843 0.464471L0.646446 3.64645ZM60 3.5L59.0167 3.5L59.0167 4.5L60 4.5L60 3.5ZM57.05 3.5L55.0833 3.5L55.0833 4.5L57.05 4.5L57.05 3.5ZM53.1167 3.5L51.15 3.5L51.15 4.5L53.1167 4.5L53.1167 3.5ZM49.1833 3.5L47.2167 3.5L47.2167 4.5L49.1833 4.5L49.1833 3.5ZM45.25 3.5L43.2833 3.5L43.2833 4.5L45.25 4.5L45.25 3.5ZM41.3167 3.5L39.35 3.5L39.35 4.5L41.3167 4.5L41.3167 3.5ZM37.3833 3.5L35.4167 3.5L35.4167 4.5L37.3833 4.5L37.3833 3.5ZM33.45 3.5L31.4833 3.5L31.4833 4.5L33.45 4.5L33.45 3.5ZM29.5167 3.5L27.55 3.5L27.55 4.5L29.5167 4.5L29.5167 3.5ZM25.5833 3.5L23.6167 3.5L23.6167 4.5L25.5833 4.5L25.5833 3.5ZM21.65 3.5L19.6833 3.5L19.6833 4.5L21.65 4.5L21.65 3.5ZM17.7167 3.5L15.75 3.5L15.75 4.5L17.7167 4.5L17.7167 3.5ZM13.7833 3.5L11.8167 3.5L11.8167 4.5L13.7833 4.5L13.7833 3.5ZM9.84999 3.5L7.88332 3.5L7.88332 4.5L9.84999 4.5L9.84999 3.5ZM5.91666 3.5L3.94999 3.5L3.94999 4.5L5.91666 4.5L5.91666 3.5ZM1.98332 3.50001L1 3.50001L1 4.50001L1.98332 4.50001L1.98332 3.50001Z" fill="black"/>
</svg>
