<svg width="48" height="48" viewBox="0 0 48 48" fill="none" xmlns="http://www.w3.org/2000/svg">
<g clip-path="url(#clip0_910_216262)">
<path d="M10.7604 26.4527C10.659 26.0544 10.5786 25.6508 10.52 25.2429C8.14789 24.6614 5.57261 23.7727 2.85422 22.5898C2.71756 22.5305 2.56599 22.5276 2.42853 22.583C2.29268 22.6369 2.18575 22.7412 2.1284 22.8776C2.00461 23.1633 2.13307 23.4832 2.41836 23.6082C5.4252 24.9153 8.22537 25.8684 10.7604 26.4527Z" fill="#FA00FF"/>
<path d="M33.8944 22.0444L37.1725 24.0882C37.3207 24.1785 37.4183 24.3336 37.4363 24.5059C37.4539 24.6786 37.3899 24.8501 37.2628 24.9687L33.8972 28.1101C29.3348 32.3687 26.3135 33.1695 23.9593 33.3909C20.756 33.6908 17.431 32.4733 15.2821 30.2142C14.6205 29.5144 14.067 28.7123 13.6365 27.8294C13.2464 27.0533 12.9624 26.2176 12.7946 25.3509C12.5315 24.0248 12.548 22.6654 12.8436 21.4194C13.6049 18.2209 16.1058 15.6108 19.0674 14.9242C21.6969 14.3165 23.571 15.7033 24.3764 17.0749C25.2894 18.6293 25.3967 20.1678 24.6967 21.647C23.7411 23.6883 21.2114 25.4212 18.543 25.8578C17.2148 26.0757 15.713 26.0904 14.0688 25.9013C14.184 26.299 14.3358 26.683 14.5071 27.0579C16.0286 27.1936 17.4469 27.1627 18.7179 26.9518C20.667 26.6359 22.5977 25.6953 24.0166 24.3709C24.7644 23.6729 25.3323 22.9156 25.7047 22.1206C26.553 20.3094 26.4248 18.3717 25.3351 16.5173C24.2604 14.6823 21.8285 13.1446 18.8181 13.8441C15.4494 14.6227 12.6138 17.562 11.7602 21.1589C11.4809 22.3328 11.4159 23.5345 11.5665 24.7302C11.5668 24.733 11.5651 24.7353 11.5654 24.7381L11.5682 24.7378C11.653 25.514 11.825 26.281 12.0795 27.0167C12.5826 28.4835 13.4108 29.8527 14.4751 30.9774C16.8901 33.5183 20.4727 34.8335 24.0576 34.4957C26.6038 34.2538 29.8548 33.4019 34.6547 28.9217L38.0203 25.7802C38.147 25.662 38.3221 25.6095 38.4939 25.639C38.6646 25.6688 38.8126 25.7769 38.8925 25.9309L40.6647 29.3515L42.4009 20.9598L33.8952 22.0444L33.8944 22.0444Z" fill="#FA00FF"/>
</g>
<defs>
<clipPath id="clip0_910_216262">
<rect width="33.3212" height="33.3212" fill="white" transform="translate(0 22.7383) rotate(-43.027)"/>
</clipPath>
</defs>
</svg>
