<svg width="37" height="6" viewBox="0 0 37 6" fill="none" xmlns="http://www.w3.org/2000/svg">
<path d="M35.1951 1.10316C34.0981 0.00615626 32.3138 0.00697838 31.2176 1.10316C30.8127 1.50808 30.5597 2.00603 30.4532 2.52949H5.72918C5.62417 2.00603 5.37121 1.50808 4.96629 1.10316C3.86929 0.00615744 2.08498 0.00693986 0.988762 1.10316C-0.107455 2.19937 -0.108201 3.98365 0.988761 5.08061C2.08576 6.17761 3.87003 6.17679 4.96621 5.08061C5.37113 4.67569 5.6241 4.17773 5.73067 3.65427L30.4547 3.65427C30.5597 4.17773 30.8126 4.67569 31.2176 5.08061C32.3146 6.17761 34.0988 6.17679 35.195 5.08061C36.2912 3.98443 36.292 2.20012 35.1951 1.10316ZM1.78424 4.28513C1.12636 3.62724 1.12636 2.55653 1.78424 1.89864C2.44213 1.24075 3.51284 1.24075 4.17073 1.89864C4.49529 2.2232 4.65836 2.64721 4.66235 3.07279C4.66235 3.07913 4.65839 3.08472 4.65914 3.09188C4.65996 3.09904 4.66309 3.10382 4.66235 3.11097C4.65836 3.53655 4.49529 3.96056 4.17073 4.28513C3.51288 4.94297 2.44213 4.94301 1.78424 4.28513ZM32.0131 4.28513C31.6885 3.96056 31.5255 3.53655 31.5215 3.11097C31.5215 3.10464 31.5254 3.09904 31.5247 3.09188C31.524 3.08472 31.5207 3.07995 31.5215 3.07279C31.5255 2.64721 31.6885 2.2232 32.0131 1.89864C32.671 1.24075 33.7417 1.24075 34.3996 1.89864C35.0575 2.55653 35.0575 3.62724 34.3996 4.28513C33.7417 4.94301 32.671 4.94297 32.0131 4.28513Z" fill="#2B0160"/>
</svg>
