<svg width="18" height="21" viewBox="0 0 18 21" fill="none" xmlns="http://www.w3.org/2000/svg">
<path d="M16.9062 0.875C16.6862 0.654914 16.3876 0.53125 16.0764 0.53125H1.92365C1.61238 0.53125 1.31384 0.654914 1.09375 0.875C0.873664 1.09509 0.75 1.39363 0.75 1.7049V19.2951C0.75 19.6064 0.873664 19.9049 1.09375 20.125C1.31384 20.3452 1.61238 20.4688 1.92365 20.4688H16.0764C16.3877 20.4688 16.6862 20.3451 16.9063 20.125C17.1264 19.905 17.25 19.6064 17.25 19.2951V1.7049C17.25 1.39363 17.1263 1.09509 16.9062 0.875ZM14.1562 18.75H2.46875V2.25H14.1562V18.75Z" fill="#F5871E"/>
<path d="M14.1562 2.25L15.5312 0.875C15.7513 1.09509 15.875 1.39363 15.875 1.7049V19.2951C15.875 19.6064 15.7513 19.9049 15.5312 20.125C15.3112 20.3451 15.0126 20.4688 14.7014 20.4688H1.92365C1.61238 20.4688 1.31388 20.3451 1.09375 20.125L2.46875 18.75H14.1562V2.25Z" fill="#FABE19"/>
<path d="M2.46875 18.75L1.09375 20.125C0.873664 19.9049 0.75 19.6064 0.75 19.2951V1.7049C0.75 1.39363 0.873664 1.09509 1.09375 0.875C1.31384 0.654914 1.61238 0.53125 1.92365 0.53125H14.7014C15.0127 0.53125 15.3112 0.654914 15.5313 0.875L14.1563 2.25H2.46875V18.75Z" fill="#F5871E"/>
<path d="M2.46875 2.25H14.1562V18.75H2.46875V2.25Z" fill="#696469"/>
<path d="M10.375 14.9688H14.1562V18.75H2.46875V13.5938H4.875C5.63439 13.5938 6.25 12.9781 6.25 12.2188H9V13.5938C9 14.3531 9.61561 14.9688 10.375 14.9688Z" fill="#6EA5D7"/>
<path d="M9 12.2188H6.25C6.25 12.9781 5.63439 13.5938 4.875 13.5938H2.46875V18.75H9V12.2188Z" fill="#647DB4"/>
<path d="M11.75 3.96875H4.53125V14.9688C4.53125 15.7281 5.14686 16.3438 5.90625 16.3438H6.25C7.00939 16.3438 7.625 15.7281 7.625 14.9688C7.625 14.2094 7.00939 13.5938 6.25 13.5938V5.6875H9V13.5938C9 14.3531 9.61561 14.9688 10.375 14.9688H13.125V5.34375C13.125 4.58436 12.5094 3.96875 11.75 3.96875Z" fill="#4B464B"/>
<path d="M11.75 5.6875H7.28125V12.2188H11.0625C11.4422 12.2188 11.75 11.911 11.75 11.5312V5.6875Z" fill="#F0E1CD"/>
<path d="M6.25 5.6875H7.28125V12.2188H6.25V5.6875Z" fill="#B9AF9B"/>
<path d="M5.5625 12.2189L6.88272 10.8986C7.11445 10.6669 7.47753 10.6309 7.75021 10.8128L8.3125 11.1876L8.87479 10.8128C9.14747 10.6309 9.51055 10.6669 9.74228 10.8986L11.0625 12.2189H5.5625Z" fill="#F04B37"/>
<path d="M6.25 12.2188L7.42365 13.3924C7.5526 13.5213 7.72744 13.5938 7.9098 13.5938H8.71525C8.89756 13.5938 9.07245 13.5213 9.2014 13.3924L10.375 12.2188H6.25Z" fill="#D7322D"/>
<path d="M7.96875 8.78125V5.6875H7.28125V10.1562H7.96875C8.34846 10.1562 8.65625 9.84842 8.65625 9.46875C8.65625 9.08908 8.34846 8.78125 7.96875 8.78125Z" fill="#B9AF9B"/>
<path d="M10.3751 9.125C11.5258 9.125 12.4586 8.66329 12.4586 8.09375C12.4586 7.52421 11.5258 7.0625 10.3751 7.0625C9.22434 7.0625 8.2915 7.52421 8.2915 8.09375C8.2915 8.66329 9.22434 9.125 10.3751 9.125Z" fill="#F0E1CD"/>
<path d="M5.88531 7.75C7.03603 7.75 7.96887 7.28829 7.96887 6.71875C7.96887 6.14921 7.03603 5.6875 5.88531 5.6875C4.7346 5.6875 3.80176 6.14921 3.80176 6.71875C3.80176 7.28829 4.7346 7.75 5.88531 7.75Z" fill="#F0E1CD"/>
<path d="M5.90625 7.75C6.47579 7.75 6.9375 7.28829 6.9375 6.71875C6.9375 6.14921 6.47579 5.6875 5.90625 5.6875C5.33671 5.6875 4.875 6.14921 4.875 6.71875C4.875 7.28829 5.33671 7.75 5.90625 7.75Z" fill="#4B464B"/>
<path d="M10.375 9.125C10.9445 9.125 11.4062 8.66329 11.4062 8.09375C11.4062 7.52421 10.9445 7.0625 10.375 7.0625C9.80546 7.0625 9.34375 7.52421 9.34375 8.09375C9.34375 8.66329 9.80546 9.125 10.375 9.125Z" fill="#4B464B"/>
<path d="M10.3751 7.0625C9.48457 7.0625 8.70761 7.47745 8.2915 8.09375H12.4586C12.0425 7.47745 11.2655 7.0625 10.3751 7.0625Z" fill="#6EA5D7"/>
</svg>
