<svg width="112" height="118" viewBox="0 0 112 118" fill="none" xmlns="http://www.w3.org/2000/svg">
<path d="M111.323 61.4687C111.323 92.1872 86.4011 117.109 55.6403 117.109C24.9218 117.109 0 92.1872 0 61.4687C0 30.7079 24.9218 5.78613 55.6403 5.78613C86.4011 5.78613 111.323 30.7079 111.323 61.4687Z" fill="#9EC43E"/>
<path d="M23.8217 45.9809C23.8217 45.9809 18.1096 41.3266 15.994 48.7312C13.8784 56.1358 22.9754 62.4826 24.6679 62.0595L23.8217 45.9809Z" fill="#F9AB64"/>
<path d="M86.147 45.9809C86.147 45.9809 91.8591 41.3266 93.9747 48.7312C96.0903 56.1358 86.9933 62.4826 85.3008 62.0595L86.147 45.9809Z" fill="#F9AB64"/>
<path d="M55.5557 117.108C65.6682 117.108 75.1038 114.4 83.27 109.745C78.5734 98.4057 67.4453 90.4087 54.4132 90.4087C41.8466 90.4087 30.9724 97.8979 26.0642 108.645C34.6112 114.019 44.7238 117.108 55.5557 117.108Z" fill="#240000"/>
<path d="M63.341 116.557C64.7373 110.295 66.1336 100.986 64.2296 95.1893C61.1408 85.8807 45.4854 96.4587 45.4854 96.4587C45.3584 97.2203 45.3584 108.264 46.9663 116.43C49.7589 116.895 52.6361 117.107 55.5556 117.107C58.2072 117.107 60.8023 116.924 63.341 116.557Z" fill="#A1D3EC"/>
<path d="M33.1303 112.411L46.1624 92.4822L48.828 91.6783L48.6165 90.959C48.1933 91.0436 47.7702 91.1282 47.3471 91.2129L45.6123 91.7206L32.3687 112.03C32.6225 112.143 32.8764 112.27 33.1303 112.411Z" fill="#662324"/>
<path d="M64.0602 92.017L61.183 91.1707C61.1548 91.1425 61.1266 91.1284 61.0984 91.1284L60.8445 91.9323L63.5524 92.7363L76.7115 112.919C76.9936 112.806 77.2615 112.693 77.5154 112.581L64.0602 92.017Z" fill="#662324"/>
<path d="M57.0789 96.8832H52.2553C50.3936 96.8832 48.8704 95.36 48.8704 93.4983V83.9357C48.8704 82.074 50.3936 80.5508 52.2553 80.5508H57.0789C58.9406 80.5508 60.4639 82.074 60.4639 83.9357V93.4983C60.4639 95.36 58.9406 96.8832 57.0789 96.8832Z" fill="#FFD68F"/>
<g style="mix-blend-mode:multiply" opacity="0.73">
<path d="M57.0789 80.5508H52.2553C50.3936 80.5508 48.8704 82.074 48.8704 83.9357V87.5323C50.9436 87.9554 53.1016 88.1669 55.2595 88.1669C57.0084 88.1669 58.7432 88.0259 60.4639 87.7438V83.9357C60.4639 82.074 58.9406 80.5508 57.0789 80.5508Z" fill="#F9AB64"/>
</g>
<path d="M49.7588 101.494C49.7588 101.494 50.3935 107.037 54.9209 107.333C59.4482 107.63 60.2099 100.352 60.2099 100.352L54.5824 95.9092L49.7588 101.494Z" fill="#E02F00"/>
<g style="mix-blend-mode:multiply">
<path d="M48.7009 91.8904C48.3201 91.3403 45.8237 95.6138 45.4852 97.0947C44.9351 99.4219 45.6121 106.573 45.6121 106.573L54.9208 98.7872L64.5256 106.573C64.5256 106.573 65.1179 98.3641 64.2294 95.8254C63.764 94.5137 61.2676 91.975 60.2944 91.8904C56.9094 97.264 53.5245 98.3641 48.7009 91.8904Z" fill="#A1D3EC"/>
</g>
<path d="M48.7009 90.8327C48.3201 90.2827 45.8237 94.5562 45.4852 96.0371C44.9351 98.3643 45.6121 105.515 45.6121 105.515L55.0054 96.1217L64.5256 105.515C64.5256 105.515 65.1179 97.3065 64.2294 94.7678C63.764 93.4561 61.2676 90.9174 60.2944 90.8327C56.9094 96.2064 53.5245 97.3065 48.7009 90.8327Z" fill="#B8F2FF"/>
<path d="M55.5555 117.108C57.0223 117.108 58.475 117.051 59.9136 116.939L56.4017 106.276L52.8052 106.699L49.251 116.727C51.3384 116.981 53.4399 117.108 55.5555 117.108Z" fill="#E02F00"/>
<path d="M86.1472 24.4026H58.9829C57.5725 24.2052 56.1339 24.1064 54.6671 24.1064C53.2285 24.1064 51.804 24.2052 50.3936 24.4026H22.8062V49.7898H23.0177C22.9331 50.213 22.8626 50.6502 22.8062 51.1015C22.8062 51.1015 22.6792 57.1944 22.8062 59.1831C23.8217 74.5424 38.3347 86.1782 54.6671 86.1782C70.1533 86.1782 84.5817 75.8963 86.1472 61.6372C87.1204 52.3709 86.1472 24.4026 86.1472 24.4026Z" fill="#FFD68F"/>
<path d="M60.9293 71.7076C60.9293 71.7076 59.5754 80.6777 52.5939 80.3815C49.8859 80.2546 44.3854 79.4084 45.2316 72.5115C45.2316 72.5115 56.6135 76.4465 60.6332 70.9883" fill="#560000"/>
<path d="M60.9293 71.7076C60.9293 71.7076 59.5754 80.6777 52.5939 80.3815C49.8859 80.2546 44.3854 79.4084 45.2316 72.5115C45.2316 72.5115 56.6135 76.4465 60.6332 70.9883" stroke="#C93D06" stroke-linecap="round" stroke-linejoin="round"/>
<path d="M59.8715 71.8345C60.2382 71.8909 60.5626 71.9473 60.8447 72.0037C60.5485 73.4846 58.7291 79.9161 52.5092 79.7468C51.4091 79.7045 49.8012 79.5776 48.4049 78.9852C48.1511 77.462 52.2976 76.0234 50.8167 76.108C49.3358 76.1926 47.7703 73.6116 47.7703 73.6116C48.0523 73.527 48.3344 73.4423 48.6165 73.3577C51.9592 73.9501 57.0366 74.2886 59.8715 71.8345Z" fill="#DD4836"/>
<path d="M59.8713 71.876C60.238 71.9324 60.5624 71.9888 60.8445 72.0452C60.8868 72.0452 60.2944 73.78 60.2521 73.907C59.9982 74.4993 59.5751 75.0917 58.9404 75.3879C58.5596 75.5994 58.0942 75.6417 57.7134 75.811C56.9094 76.1495 56.1478 76.2764 55.3439 76.4457C54.6246 76.6149 53.9476 76.6995 53.186 76.5726C51.9166 76.4457 50.605 76.3611 49.5472 75.5994C49.3356 75.4725 47.7701 73.6531 47.8124 73.6531C48.0944 73.5685 48.3765 73.4838 48.6586 73.3992C52.0013 73.9493 56.9941 74.2878 59.8713 71.876Z" fill="white"/>
<path d="M45.2314 70.1421C44.4698 70.269 43.7505 70.4806 43.2428 71.1153C42.5235 71.9615 41.1695 70.9037 41.8888 70.0151C42.6927 69.042 43.7928 68.6188 45.0199 68.4496C46.12 68.2804 46.3315 70.0151 45.2314 70.1421Z" fill="#C93D06"/>
<path d="M62.3678 71.7077C62.3678 70.9461 61.3947 70.6076 60.7177 70.396C60.2522 70.2691 59.9137 69.9306 59.9984 69.4229C60.0407 68.9997 60.5061 68.5766 60.9715 68.7036C62.3255 69.0844 64.1026 69.846 64.0603 71.4962C64.0603 71.9616 63.8487 72.3847 63.341 72.4693C62.9179 72.5116 62.3678 72.1731 62.3678 71.7077Z" fill="#C93D06"/>
<path d="M53.6091 74.6273C58.5173 74.0349 62.1561 70.8192 62.2407 70.7769L61.4791 69.9307C61.0983 70.2268 52.2974 77.9276 43.9196 70.0153L43.1157 70.8615C46.7122 74.2888 50.4357 75.0081 53.6091 74.6273Z" fill="#C93D06"/>
<path d="M51.409 52.4975C51.409 55.7978 51.409 59.0982 51.409 62.3985C51.8039 62.2857 52.1988 62.1728 52.5937 62.06C50.9435 59.1828 47.347 60.706 47.5163 63.8371C47.7701 67.349 51.6628 68.9145 54.3708 66.9259C55.0478 66.4604 54.4131 65.318 53.7361 65.8258C52.8335 66.672 51.7052 66.813 50.3512 66.2489C49.2934 65.8258 48.7856 64.8103 49.1664 63.7525C49.6742 62.2716 50.3512 62.1446 51.5782 62.5254C52.1283 62.6947 51.8744 63.3717 52.5937 62.6524C53.0168 62.2292 52.6783 59.9021 52.6783 59.3097C52.6783 57.0531 52.6783 54.7823 52.6783 52.4975C52.6783 51.6935 51.409 51.6935 51.409 52.4975Z" fill="#CC5200"/>
<g style="mix-blend-mode:multiply" opacity="0.73">
<path d="M77.6848 66.5876C77.6848 69.0417 74.6807 70.9881 70.9995 70.9881C67.3184 70.9881 64.3142 69.0417 64.3142 66.5876C64.3142 64.1758 67.3184 62.2295 70.9995 62.2295C74.6807 62.2295 77.6848 64.1758 77.6848 66.5876Z" fill="#F9AB64"/>
</g>
<g style="mix-blend-mode:multiply" opacity="0.73">
<path d="M42.5662 66.5876C42.5662 69.0417 39.562 70.9881 35.8809 70.9881C32.1997 70.9881 29.1956 69.0417 29.1956 66.5876C29.1956 64.1758 32.1997 62.2295 35.8809 62.2295C39.562 62.2295 42.5662 64.1758 42.5662 66.5876Z" fill="#F9AB64"/>
</g>
<path d="M74.046 55.9246C74.046 58.1671 72.9459 60.0288 71.5496 60.0288C70.1956 60.0288 69.0955 58.1671 69.0955 55.9246C69.0955 53.682 70.1956 51.8203 71.5496 51.8203C72.9459 51.8203 74.046 53.682 74.046 55.9246Z" fill="#560000"/>
<path d="M38.2076 55.9246C38.2076 58.1671 37.1075 60.0288 35.7535 60.0288C34.3572 60.0288 33.2571 58.1671 33.2571 55.9246C33.2571 53.682 34.3572 51.8203 35.7535 51.8203C37.1075 51.8203 38.2076 53.682 38.2076 55.9246Z" fill="#560000"/>
<path d="M50.2668 82.7523C51.5362 84.2332 53.3979 84.9948 55.3443 84.6986C56.1482 84.5717 55.979 83.3023 55.175 83.4293C53.6941 83.6408 52.2555 83.1331 51.2823 81.9907C50.7323 81.3983 49.7168 82.1599 50.2668 82.7523Z" fill="#CC5200"/>
<path d="M54.7521 65.1922C55.2175 65.3615 55.5983 65.7 55.8522 66.0808C56.2753 66.7578 57.3754 66.1231 56.9523 65.4461C56.4869 64.7691 55.8522 64.2614 55.0906 63.9652C54.3289 63.669 53.9904 64.8961 54.7521 65.1922Z" fill="#CC5200"/>
<g style="mix-blend-mode:multiply" opacity="0.73">
<path d="M48.9975 64.598C48.9975 64.598 50.14 65.8674 52.9325 64.8942C55.7675 63.8787 57.7561 63.7518 58.1792 65.4442C58.6024 67.1367 54.7943 69.3792 51.9594 69.3792C50.3938 69.3792 46.5857 66.4174 48.9975 64.598Z" fill="#F9AB64"/>
</g>
<path fill-rule="evenodd" clip-rule="evenodd" d="M69.5185 46.5739C66.3451 47.3355 64.9911 42.4273 68.1645 41.6657C71.8457 40.7771 75.696 41.8349 78.2771 44.6275C80.5196 46.997 76.9231 50.5935 74.7229 48.1817C73.3266 46.7431 71.4648 46.1084 69.5185 46.5739ZM29.7029 44.8814C32.4109 42.4273 36.0497 41.4964 39.5616 42.5542C42.6927 43.4851 41.3387 48.3933 38.2076 47.4624C36.4728 46.9124 34.6534 47.2086 33.2994 48.4356C30.8453 50.6358 27.2488 47.0393 29.7029 44.8814Z" fill="#FF9A3E"/>
<path d="M73.8769 45.6433C75.4001 47.3358 77.6004 46.1088 78.0658 44.4163C75.4848 41.793 71.719 40.8198 68.1648 41.666C67.107 41.9199 66.5569 42.6392 66.3877 43.4854C66.9378 43.9932 67.7417 44.247 68.6725 44.0355C70.6189 43.5701 72.4806 44.2047 73.8769 45.6433Z" fill="#ECB84F"/>
<path d="M40.4081 43.0202C40.1966 42.8086 39.9004 42.6817 39.5619 42.5547C36.05 41.4969 32.4112 42.4278 29.7032 44.8819C29.3224 45.1781 29.1108 45.5589 28.9839 45.8974C29.9148 46.7013 31.311 46.9552 32.4535 45.8974C33.8075 44.6703 35.6269 44.3741 37.3617 44.9242C39.0118 45.3896 40.1543 44.2895 40.4081 43.0202Z" fill="#ECB84F"/>
<path d="M77.4734 30.3262C77.4734 30.3262 80.3083 37.6462 82.297 39.6348C84.2434 41.6235 84.8357 52.3284 84.8357 54.3171C84.8357 56.2634 84.8357 59.6484 84.8357 59.6484L86.7821 59.0984L87.9245 45.1354C88.5592 43.993 95.2445 29.3953 92.7481 29.4799C93.3404 29.4376 93.9328 29.6069 94.4829 29.9031C93.0866 22.3292 82.3816 22.3292 76.6272 22.4138L77.4734 30.3262Z" fill="#FF9A3E"/>
<path d="M32.03 30.3269C32.03 30.3269 27.5449 35.9544 25.8524 39.6355C24.71 42.1742 24.71 52.3291 24.71 54.3178C24.71 56.2641 24.71 59.6491 24.71 59.6491L22.7213 59.099C22.7213 59.099 22.5944 44.1629 20.7327 39.6355C19.1671 35.8274 16.6284 26.9419 21.0289 23.5569C23.5676 21.6106 32.8762 22.4145 32.8762 22.4145L32.03 30.3269Z" fill="#FF9A3E"/>
<g style="mix-blend-mode:multiply" opacity="0.63">
<path d="M90.3361 23.4299C90.1669 22.9222 90.1246 22.4144 90.2092 21.9067C90.0117 21.5682 89.8284 21.2015 89.6591 20.8066C88.9398 19.2833 88.9398 17.6755 89.7438 16.3638C89.0668 14.8829 88.2628 13.5289 87.0781 12.3442C84.5394 9.80545 73.1151 0.919926 50.6898 3.03553C28.2644 5.15113 26.5719 20.8066 24.4563 22.0759C22.3407 23.3453 19.3789 19.9603 23.187 17.4216C23.187 17.4216 19.7597 17.4216 17.4749 19.7488C18.7865 20.3411 19.8443 21.6105 19.802 23.5568C19.7597 26.9841 19.3789 30.3691 19.125 33.754C20.8598 35.2773 23.1023 36.2928 25.7257 36.462C32.4956 36.8851 40.1118 28.4227 58.3059 30.1152C58.3059 30.1152 65.0759 36.8851 81.5775 32.6539C85.0048 31.7654 89.4476 29.142 91.817 25.7148C91.0977 25.1224 90.6323 24.3185 90.3361 23.4299Z" fill="#FF9A3E"/>
</g>
<path d="M58.306 28.2109C58.306 28.2109 65.076 34.9808 81.5776 30.7496C86.2743 29.5226 93.0442 24.9529 93.5096 19.5369C93.6366 17.9291 93.0865 16.3635 92.4095 14.9249C92.5364 16.3635 92.2826 17.8445 91.6902 19.1561C90.4208 16.152 89.49 12.8517 87.0782 10.4399C84.5395 7.90115 73.1152 -0.984371 50.6899 1.13123C28.2645 3.24683 26.572 18.9023 24.4564 20.1716C22.3408 21.441 19.379 18.056 23.1871 15.5173C23.1871 15.5173 16.4172 15.5173 15.5709 21.8641C14.7247 28.2109 18.9559 34.1346 25.7258 34.5577C32.4957 34.9808 40.1119 26.5184 58.306 28.2109Z" fill="#FFC23E"/>
<path d="M60.8448 13.4017C48.4474 11.1592 43.3699 19.3254 41.9313 23.8528C40.535 28.3378 34.6113 31.7228 34.6113 31.7228C34.6677 31.8356 34.7524 31.9344 34.8652 32.019C40.2388 29.8611 47.0087 25.6722 58.0099 28.9302C61.3948 29.9034 62.9604 32.3998 72.396 32.3152C76.1194 31.4689 77.9811 30.1996 78.0658 28.9302C78.3196 23.5566 73.2422 15.6442 60.8448 13.4017Z" fill="#FFA300"/>
<path d="M81.9159 30.3268C85.7663 24.4877 81.6197 18.3102 77.0923 14.3329C76.4999 13.8251 75.5691 14.7137 76.2038 15.2637C80.2657 18.8179 84.37 24.2762 80.8158 29.6921C80.3503 30.3691 81.4505 31.0038 81.9159 30.3268Z" fill="#FFD23E"/>
<path d="M82.466 14.6704C83.947 16.4899 84.7932 18.6478 84.8778 21.0172C84.9201 21.8212 86.1895 21.8212 86.1472 21.0172C86.0202 18.3093 85.0894 15.8552 83.3546 13.7396C82.8045 13.1049 81.916 14.0358 82.466 14.6704Z" fill="#FFD23E"/>
<path d="M35.5842 6.75868C32.3261 9.63589 30.9721 13.1478 31.0991 17.4636C31.226 21.8217 30.0413 26.0529 25.2177 27.1954C18.5324 28.8032 19.0402 20.7639 21.9597 17.4213C22.5097 16.7866 21.6212 15.8981 21.0711 16.5327C17.5169 20.5947 17.0092 29.4379 24.3715 28.634C27.7987 28.2532 30.7183 25.9683 31.903 22.7526C32.58 21.0178 32.4108 19.3253 32.3684 17.4636C32.2838 13.444 33.3839 10.3552 36.4727 7.64723C37.1074 7.13948 36.1765 6.20862 35.5842 6.75868Z" fill="#FFD23E"/>
<path d="M19.6327 20.7205C21.1982 22.5822 23.8639 23.09 25.8948 21.6514C28.3912 19.8743 28.5182 16.2354 31.1838 14.6699C31.9031 14.2468 31.2685 13.1467 30.5492 13.5698C28.9413 14.543 28.1374 16.0662 27.2488 17.674C25.8948 20.2551 23.1446 22.963 20.5635 19.7896C20.0135 19.155 19.1249 20.0858 19.6327 20.7205Z" fill="#FFD23E"/>
<path d="M36.05 16.871C40.4927 7.94313 49.7591 2.5695 59.7024 3.16187C60.5063 3.20418 60.5063 1.93482 59.7024 1.89251C49.3359 1.25783 39.6042 6.92764 34.9922 16.194C34.6114 16.9556 35.7115 17.5903 36.05 16.871Z" fill="#FFD23E"/>
<path d="M51.7049 8.53464C54.5398 8.15383 57.417 8.02689 60.2942 8.11152C61.0982 8.15383 61.0982 6.88447 60.2942 6.84216C57.2901 6.75753 54.3283 6.92678 51.3664 7.30759C50.5625 7.43452 50.901 8.66157 51.7049 8.53464Z" fill="#FFD23E"/>
<path d="M64.9062 5.74259C68.672 6.50421 71.9723 8.15437 74.8072 10.7354C75.3996 11.2855 76.2881 10.3969 75.6958 9.84685C72.7339 7.09657 69.222 5.31947 65.2447 4.51554C64.4408 4.38861 64.1023 5.61566 64.9062 5.74259Z" fill="#FFD23E"/>
<path d="M25.5986 32.188C30.4221 32.5264 34.6956 28.8453 35.3303 24.1064C35.4149 23.3024 34.1456 23.3024 34.061 24.1064C33.5109 28.2106 29.7028 31.1725 25.5986 30.9186C24.7946 30.834 24.7946 32.1033 25.5986 32.188Z" fill="#FFD23E"/>
<path d="M38.7998 24.5721C39.5614 21.9064 40.7885 19.4946 42.4809 17.2944C42.9887 16.6597 42.1001 15.7712 41.5924 16.4058C39.773 18.7753 38.419 21.3563 37.5728 24.2336C37.3612 24.9952 38.5882 25.3337 38.7998 24.5721Z" fill="#FFD23E"/>
<path d="M38.9695 30.3695C41.8467 29.6078 44.0892 28.2539 46.4164 26.3921C49.9283 23.6418 53.3132 22.4571 57.6291 21.6532C58.433 21.4839 58.0945 20.2569 57.2906 20.4261C54.2018 20.9762 51.113 21.6109 48.405 23.3034C45.0624 25.4613 42.6083 28.0846 38.631 29.1424C37.8693 29.3963 38.2078 30.6233 38.9695 30.3695Z" fill="#FFC23E"/>
<path d="M60.041 17.5481C65.1607 18.3943 69.3496 21.5254 71.6345 26.1374C71.973 26.899 73.0731 26.222 72.7346 25.5027C70.3228 20.5945 65.7954 17.2096 60.3795 16.321C59.5755 16.1941 59.2371 17.3788 60.041 17.5481Z" fill="#FFC23E"/>
<path d="M64.3145 24.7406C65.9223 25.4599 67.1917 26.7293 67.784 28.4217C68.0379 29.1833 69.265 28.8449 68.9688 28.0832C68.2918 26.0946 66.8955 24.4867 64.9491 23.6405C64.2298 23.3443 63.5952 24.4444 64.3145 24.7406Z" fill="#FFC23E"/>
<path d="M50.9018 27.5353C54.8368 27.0276 58.5602 27.8315 61.9875 29.8625C62.6645 30.2856 63.2992 29.1855 62.6222 28.7624C59.0257 26.6468 55.0484 25.7582 50.9018 26.266C50.0978 26.3506 50.0978 27.62 50.9018 27.5353Z" fill="#FFC23E"/>
<path d="M83.9472 31.5112C85.2166 33.8383 85.3435 36.377 84.3703 38.8311C84.0742 39.5927 85.3012 39.9312 85.5974 39.1696C86.6975 36.4193 86.4436 33.4575 85.0473 30.8765C84.6242 30.1572 83.5241 30.7919 83.9472 31.5112Z" fill="#FFC23E"/>
<path d="M88.1359 29.0144C88.5026 29.9735 88.7846 30.9607 88.9821 31.9762C89.1513 32.7802 90.3784 32.4417 90.2091 31.6377C90.0117 30.6222 89.7296 29.635 89.3629 28.6759C89.0667 27.9143 87.8397 28.2528 88.1359 29.0144Z" fill="#FFC23E"/>
<path d="M87.3742 41.666C86.8241 42.5969 86.528 43.6124 86.401 44.7125C86.3164 45.5164 87.5858 45.5164 87.6704 44.7125C87.755 43.8662 88.0512 43.02 88.4743 42.3007C88.8974 41.5814 87.7973 40.9467 87.3742 41.666Z" fill="#FFC23E"/>
<path d="M21.3677 34.9817C20.8177 37.3934 21.1562 39.8052 22.3409 42.0054C22.7217 42.7248 23.8218 42.0901 23.441 41.3708C22.4255 39.4667 22.1294 37.3934 22.5948 35.3201C22.764 34.5162 21.537 34.1777 21.3677 34.9817Z" fill="#FFC23E"/>
<path d="M24.668 36.2499C24.668 37.1808 24.668 38.0975 24.668 39.0002C24.668 39.8041 25.9373 39.8041 25.9373 39.0002C25.9373 38.0693 25.9373 37.1526 25.9373 36.2499C25.9373 35.446 24.668 35.446 24.668 36.2499Z" fill="#FFC23E"/>
<path d="M91.436 48.689C90.886 48.0543 90.0398 47.8851 89.2358 48.2236C88.178 48.6467 87.7972 49.7891 87.628 50.8469C87.4587 51.5662 87.3741 52.5817 88.0088 53.1318C88.3896 53.428 88.7281 53.3856 89.1512 53.428C89.5743 53.428 89.9551 53.3856 90.3359 53.6395C91.1399 54.105 91.0552 55.7974 89.7859 55.332C89.0243 55.0358 88.6858 56.2629 89.4474 56.5167C91.1822 57.1937 92.8323 55.2474 92.0284 53.5972C91.6053 52.7933 90.7591 52.2432 89.8282 52.1586C89.1089 52.074 88.7281 52.3278 88.8127 51.3547C88.8127 50.7623 89.532 48.4351 90.5475 49.6199C91.0552 50.2122 91.9438 49.3237 91.436 48.689Z" fill="#CC5200"/>
<path d="M18.9557 48.9862C20.1404 48.5631 21.2828 50.4672 20.8174 51.398C20.4789 52.1173 19.9712 51.7788 19.3788 51.9481C18.8711 52.1173 18.4056 52.4135 18.1941 52.9636C17.5171 54.9099 19.7173 55.8831 21.029 56.6024C21.706 57.0255 22.383 55.9254 21.6637 55.5023C21.3675 55.3754 21.0713 55.2061 20.7751 55.0369C20.0981 54.656 19.4634 54.4868 19.7173 53.6829C20.0135 52.8366 20.3943 53.3021 21.0713 53.0905C21.8752 52.8366 22.0868 52.1596 22.0868 51.398C22.0868 49.494 20.902 46.913 18.6172 47.7592C17.8556 48.0554 18.1941 49.2824 18.9557 48.9862Z" fill="#CC5200"/>
</svg>
