<svg width="112" height="127" viewBox="0 0 112 127" fill="none" xmlns="http://www.w3.org/2000/svg">
<path d="M111.969 58.3774C111.969 89.0959 87.0469 114.018 56.286 114.018C25.5675 114.018 0.645752 89.0959 0.645752 58.3774C0.645752 27.6166 25.5675 2.69482 56.286 2.69482C87.0469 2.69482 111.969 27.6166 111.969 58.3774Z" fill="#E02F00"/>
<path d="M94.9172 20.0854C94.748 19.493 94.5223 18.9289 94.2402 18.3929C87.7665 7.01099 72.111 1.4258 56.4556 0.579563C42.7465 -0.182053 27.5142 3.32984 19.1364 15.1772C16.2592 19.2815 15.8784 25.8821 15.286 30.748C14.4398 37.9411 14.1013 45.2187 13.8474 52.4964C13.382 66.1209 13.4243 79.7453 13.7628 93.3698C23.96 105.471 39.2346 113.172 56.2864 113.172C72.8727 113.172 87.7665 105.936 97.9637 94.4276C97.9919 94.0891 98.006 93.7647 98.006 93.4544C99.0215 78.3913 98.6407 63.159 97.8367 48.1383C97.4982 41.1145 97.0328 34.0484 95.975 27.0669C95.6365 24.8243 95.6365 22.2856 94.9172 20.0854Z" fill="#560000"/>
<path d="M23.5368 42.7641C23.5368 42.7641 17.8246 38.1098 15.709 45.5144C13.5934 52.919 22.6905 59.2658 24.383 58.8427L23.5368 42.7641Z" fill="#FF773E"/>
<path d="M85.8201 42.7641C85.8201 42.7641 91.5322 38.1098 93.6478 45.5144C95.7634 52.919 86.6664 59.2658 84.9739 58.8427L85.8201 42.7641Z" fill="#FF773E"/>
<path d="M55.2705 113.89C65.3408 113.89 74.8187 111.225 82.9426 106.528C78.2882 95.1884 67.1602 87.1914 54.1281 87.1914C41.5191 87.1914 30.6872 94.6806 25.7791 105.428C34.3261 110.801 44.4387 113.89 55.2705 113.89Z" fill="#BBFFF4"/>
<path d="M49.1353 91.8467L54.0434 106.952L59.7133 92.2698L49.1353 91.8467Z" fill="#35A87E"/>
<path d="M43.0427 89.2656C42.394 89.4913 41.7593 89.7593 41.1387 90.0696L37.7961 95.9509L37.5845 96.374L37.7961 96.7972L40.8425 102.128L34.2842 108.179L33.6072 108.814L34.3265 109.406L35.0881 110.125C35.7933 110.408 36.4985 110.661 37.2037 110.887L34.8765 108.771L41.9426 102.298L38.5577 96.374L42.4081 89.5195C42.6055 89.4349 42.8171 89.3502 43.0427 89.2656Z" fill="#35A87E"/>
<path d="M72.407 111.056L72.28 111.098C72.3083 111.155 72.3364 111.197 72.3646 111.225C72.7031 111.113 73.0417 111 73.3801 110.887L73.0417 110.506L66.3564 102.509L71.9839 99.0818L72.7032 98.6164L72.28 97.8971C70.0234 94.2019 68.3027 91.5926 67.118 90.0694C66.4692 89.7591 65.7922 89.477 65.087 89.2231C65.1716 89.2514 65.2562 89.2796 65.3409 89.3078C66.2717 89.6886 71.5607 98.3625 71.5607 98.3625L65.0447 102.298L72.407 111.056Z" fill="#35A87E"/>
<path d="M56.7517 93.7078H51.9704C50.1087 93.7078 48.5854 92.1845 48.5854 90.3228V80.718C48.5854 78.8562 50.1087 77.333 51.9704 77.333H56.7517C58.6134 77.333 60.1366 78.8562 60.1366 80.718V90.3228C60.1366 92.1845 58.6134 93.7078 56.7517 93.7078Z" fill="#FF9834"/>
<path opacity="0.3" d="M56.7517 77.333H51.9704C50.1087 77.333 48.5854 78.8562 48.5854 80.718V84.3568C50.6587 84.7376 52.7743 84.9492 54.9322 84.9492C56.7094 84.9492 58.4441 84.8222 60.1366 84.5684V80.718C60.1366 78.8562 58.6134 77.333 56.7517 77.333Z" fill="#FE2F00"/>
<path d="M85.82 21.185H58.6557C57.2735 21.0158 55.849 20.9312 54.3822 20.9312C52.9436 20.9312 51.5191 21.0158 50.1087 21.185H22.5213V46.5722H22.7328C22.6482 47.0236 22.5777 47.4608 22.5213 47.8839C22.5213 47.8839 22.352 53.9768 22.5213 56.0078C23.5368 71.3247 38.0498 82.9605 54.3822 82.9605C69.8261 82.9605 84.2968 72.721 85.82 58.4196C86.8355 49.1533 85.82 21.185 85.82 21.185Z" fill="#FF9834"/>
<path opacity="0.3" d="M77.4 63.4117C77.4 65.8235 74.3958 67.7698 70.7147 67.7698C66.9912 67.7698 63.9871 65.8235 63.9871 63.4117C63.9871 60.9999 66.9912 59.0112 70.7147 59.0112C74.3958 59.0112 77.4 60.9999 77.4 63.4117Z" fill="#FE2F00"/>
<path opacity="0.3" d="M42.2808 63.4117C42.2808 65.8235 39.2767 67.7698 35.5955 67.7698C31.8721 67.7698 28.8679 65.8235 28.8679 63.4117C28.8679 60.9999 31.8721 59.0112 35.5955 59.0112C39.2767 59.0112 42.2808 60.9999 42.2808 63.4117Z" fill="#FE2F00"/>
<path d="M73.719 52.7075C73.719 54.9923 72.6189 56.8117 71.2649 56.8117C69.9109 56.8117 68.8108 54.9923 68.8108 52.7075C68.8108 50.4649 69.9109 48.6455 71.2649 48.6455C72.6189 48.6455 73.719 50.4649 73.719 52.7075Z" fill="#560000"/>
<path d="M37.9232 52.7075C37.9232 54.9923 36.823 56.8117 35.4267 56.8117C34.0728 56.8117 32.9727 54.9923 32.9727 52.7075C32.9727 50.4649 34.0728 48.6455 35.4267 48.6455C36.823 48.6455 37.9232 50.4649 37.9232 52.7075Z" fill="#560000"/>
<path d="M91.1515 45.5153C90.6014 44.8806 89.7552 44.7114 88.9512 45.0076C87.8934 45.473 87.5126 46.5731 87.3011 47.6309C87.1741 48.3925 87.0472 49.3657 87.7242 49.9158C88.0627 50.212 88.4435 50.2119 88.8666 50.2119C89.2897 50.2119 89.6705 50.2119 90.0514 50.4235C90.8553 50.8889 90.7706 52.5814 89.5013 52.116C88.7397 51.8198 88.4012 53.0469 89.1628 53.343C90.8976 53.9777 92.5054 52.0314 91.7015 50.3812C91.3207 49.5773 90.4322 49.0695 89.5436 48.9426C88.8243 48.858 88.4435 49.1118 88.4858 48.1387C88.5281 47.5886 89.2474 45.2191 90.2206 46.4039C90.7706 47.0385 91.6592 46.15 91.1515 45.5153Z" fill="#AF4700"/>
<path d="M18.6709 45.8115C19.8133 45.3461 20.9557 47.2501 20.5326 48.181C20.1941 48.9003 19.644 48.6041 19.094 48.7311C18.5439 48.9003 18.1208 49.2388 17.9092 49.7889C17.2323 51.7352 19.4325 52.6661 20.7018 53.4277C21.4211 53.8085 22.0558 52.7507 21.3365 52.3276C21.0826 52.1583 20.7865 52.0314 20.4903 51.8622C19.8133 51.4813 19.1786 51.2698 19.4325 50.4659C19.6863 49.6619 20.0672 50.0851 20.7865 49.8735C21.5904 49.6196 21.8019 48.9849 21.8019 48.181C21.7596 46.3193 20.6172 43.7383 18.3324 44.5845C17.5708 44.8384 17.8669 46.0654 18.6709 45.8115Z" fill="#AF4700"/>
<path d="M53.917 105.513C53.917 105.513 55.0171 110.887 54.6363 113.383" stroke="#35A87E" stroke-miterlimit="10"/>
<path d="M72.4497 54.1904C73.6767 54.5289 74.9884 54.1481 75.877 53.2172C76.427 52.6248 75.5384 51.7363 74.9884 52.3287C74.396 52.9633 73.5921 53.1749 72.7882 52.9633C71.9842 52.7518 71.6457 53.9788 72.4497 54.1904Z" fill="#560000"/>
<path d="M72.238 55.8393C73.3804 56.5163 74.7344 56.5163 75.8345 55.8393C76.5115 55.4162 75.8768 54.3161 75.1998 54.7392C74.4805 55.1623 73.6343 55.1623 72.915 54.7392C72.1957 54.3584 71.561 55.4585 72.238 55.8393Z" fill="#560000"/>
<path d="M33.9032 54.1039C32.6338 54.4424 31.3221 54.1039 30.4336 53.1731C29.8835 52.5384 30.7721 51.6498 31.3221 52.2422C31.9145 52.8769 32.7184 53.1307 33.5647 52.8769C34.3263 52.6653 34.6648 53.8924 33.9032 54.1039Z" fill="#560000"/>
<path d="M34.0725 55.7967C32.9724 56.4314 31.6184 56.4313 30.5183 55.7544C29.799 55.3312 30.4337 54.2311 31.153 54.6542C31.8723 55.1197 32.7185 55.1197 33.4378 54.6966C34.1571 54.2734 34.7918 55.3736 34.0725 55.7967Z" fill="#560000"/>
<path d="M50.6166 58.5483C50.4474 60.3677 48.5856 61.6793 46.8085 61.2562C46.3431 61.1716 45.8777 61.5524 46.0046 62.0602C46.7662 64.5566 49.3896 66.0375 51.9706 65.4451C52.7322 65.2759 52.3937 64.0488 51.6321 64.2181C49.728 64.6835 47.7817 63.5411 47.2317 61.7217C46.9778 61.9755 46.7239 62.2294 46.47 62.4833C49.0934 63.118 51.6321 61.2139 51.886 58.5483C51.9706 57.7443 50.7012 57.7443 50.6166 58.5483Z" fill="#AF4700"/>
<path d="M54.0858 63.4142C54.4666 63.3296 54.8474 63.3719 55.1859 63.6258C55.7783 64.1758 56.7091 63.2873 56.0744 62.7372C55.3974 62.1872 54.5935 61.9756 53.7473 62.1872C52.9433 62.3987 53.2819 63.6258 54.0858 63.4142Z" fill="#AF4700"/>
<path d="M45.624 68.448C47.9935 65.867 51.5477 68.1519 51.5477 68.1519C55.2711 66.1209 60.2216 69.6751 60.2216 69.6751L60.3486 70.6483C52.5632 84.3997 43.2545 71.0291 45.624 68.448Z" fill="#B20800"/>
<path d="M45.2432 69.9296C51.5053 74.0339 57.7252 71.1144 60.1793 69.6758H60.2216L60.3486 70.649C53.5786 82.6233 45.6663 74.0762 45.2432 69.9296Z" fill="#E02F00"/>
<path d="M70.5883 41.8764C72.5347 41.411 74.3964 42.088 75.708 43.5689C76.7658 44.796 78.543 42.9765 77.4852 41.7495C75.5811 39.6339 72.7039 38.7453 69.9113 39.4223C68.3034 39.7608 68.9804 42.2149 70.5883 41.8764Z" fill="#560000"/>
<path d="M38.0079 39.4223C35.2153 38.7453 32.3381 39.6339 30.4341 41.7495C29.3339 42.9765 31.111 44.796 32.2112 43.5689C33.5228 42.088 35.3845 41.411 37.3309 41.8764C38.8964 42.2149 39.5735 39.7608 38.0079 39.4223Z" fill="#560000"/>
<path d="M43.7619 69.6343C47.0199 71.9192 48.7547 72.6808 52.8167 72.4692C56.2017 72.2577 59.2058 71.3268 61.7868 69.1266C62.4215 68.5765 61.533 67.688 60.8983 68.238C58.2326 70.5229 55.0592 71.1999 51.5896 71.2422C48.4585 71.2845 46.8507 70.2267 44.3966 68.5765C43.7619 68.1111 43.1272 69.2112 43.7619 69.6343Z" fill="#B20800"/>
<path d="M60.8134 67.9402C61.3635 68.3634 61.702 68.9134 61.8712 69.5904C62.0828 70.3943 63.2675 70.0558 63.0983 69.2519C62.8444 68.2364 62.252 67.4325 61.4481 66.8401C61.1942 66.6286 60.7288 66.7978 60.6019 67.094C60.3903 67.3902 60.5173 67.7287 60.8134 67.9402Z" fill="#AF4700"/>
<path d="M43.3811 67.4749C42.6618 68.2365 42.281 69.2097 42.281 70.2675C42.281 71.0714 43.5504 71.0714 43.5504 70.2675C43.5504 69.5482 43.8042 68.9135 44.312 68.4057C44.862 67.8134 43.9735 66.9248 43.3811 67.4749Z" fill="#AF4700"/>
<path opacity="0.3" d="M85.7359 38.3224C85.9334 38.548 86.1026 38.8019 86.2436 39.084C86.159 29.8177 85.8205 21.186 85.8205 21.186H58.6562C57.274 21.0168 55.8495 20.9321 54.3827 20.9321C52.9441 20.9321 51.5196 21.0168 50.1092 21.186H22.6487C22.5923 21.2424 22.55 21.2988 22.5218 21.3552V46.5732H22.7333C22.6487 47.0245 22.5782 47.4618 22.5218 47.8849C22.5218 47.8849 22.3525 53.9778 22.5218 56.0088C22.691 58.5052 23.1988 60.917 24.045 63.2018C24.4258 52.243 24.722 41.9612 24.722 41.9612C24.722 41.9612 32.6343 30.9601 33.1844 23.9363C33.1844 23.9363 65.8916 44.7961 84.5088 39.7187C84.2973 39.761 82.5202 36.7145 82.2663 36.3337C83.0279 37.4761 84.805 37.3492 85.7359 38.3224Z" fill="#FE2F00"/>
<path d="M32.761 21.3969C32.761 21.3969 65.4682 42.2567 84.0854 37.1792C83.8739 37.2216 82.0968 34.1751 81.8429 33.7943C82.6045 34.9367 84.3816 34.8098 85.3125 35.7829C86.7934 37.3908 86.328 40.2257 86.2857 42.1297C85.7779 56.0927 86.201 69.8864 86.5819 83.8917C86.4972 80.8875 87.5973 77.4603 87.8935 74.4138C88.1897 71.0712 88.3166 67.7285 88.4436 64.3859C88.6551 57.6583 88.6975 50.9306 89.3321 44.2453C89.586 41.5374 90.0938 38.6179 90.7284 35.9522C91.2362 33.7943 92.3363 31.7633 92.4209 29.4785C92.7594 21.2276 83.4508 15.9809 77.0617 12.8498C67.0337 7.94165 55.5672 6.20686 44.6083 8.70326C19.5173 14.3308 19.5173 23.0893 17.5287 27.0244C15.54 30.9594 21.2098 42.5529 21.2098 42.5529C21.2098 42.5529 22.3099 87.4036 22.6061 86.5574C22.9023 85.7111 24.2986 39.4218 24.2986 39.4218C24.2986 39.4218 32.2109 28.4207 32.761 21.3969Z" fill="#560000"/>
<path opacity="0.3" d="M47.1473 62.6513C47.0626 61.6358 50.5322 63.3283 51.8016 62.9052C53.071 62.482 56.5828 61.0857 57.3022 63.2013C58.0215 65.3169 47.6973 68.8288 47.1473 62.6513Z" fill="#FE2F00"/>
<path d="M48.6281 83.2155C48.3743 83.1309 48.1204 83.0885 47.7819 83.1309C39.4464 83.9771 35.2152 91.2971 34.0305 98.9555C33.692 101.367 37.3308 102.383 37.7116 99.971C38.6002 94.3012 41.2659 87.6159 47.7819 86.9389C48.1204 86.8966 48.3743 86.7697 48.6281 86.6427V83.2155Z" fill="#313F49"/>
<path d="M60.052 82.5396V86.3476C69.5299 86.7284 72.9148 95.5716 73.4226 103.822C73.5918 106.234 77.3999 106.277 77.2307 103.822C76.596 93.3714 71.7724 82.9627 60.052 82.5396Z" fill="#313F49"/>
<path d="M28.3605 106.91C27.5143 111.691 27.2604 122.608 33.988 123.327C35.2151 123.454 35.1728 121.55 33.988 121.423C29.0798 120.915 29.6299 110.633 30.18 107.418C30.3915 106.191 28.5721 105.683 28.3605 106.91Z" fill="#AAAAAA"/>
<path d="M41.1814 107.882C41.7314 110.252 41.9853 114.102 41.0544 116.429C40.9698 117.67 40.1941 118.488 38.7273 118.883C38.5016 118.827 38.2759 118.813 38.0503 118.841C37.6695 119.053 37.5002 119.01 37.1617 119.391C36.3578 120.322 37.7118 121.676 38.5157 120.745C38.5157 120.703 39.7004 120.872 39.7427 120.83C40.2505 120.787 40.6313 120.576 41.0544 120.28C41.9853 119.687 42.4507 118.714 42.7469 117.656C43.6354 114.398 43.7624 110.633 43.0008 107.374C42.7469 106.19 40.9275 106.655 41.1814 107.882Z" fill="#AAAAAA"/>
<path d="M36.3576 117.573C36.2165 119.039 36.1883 120.52 36.2729 122.015C36.3153 123.242 38.2193 123.242 38.177 122.015C38.0924 120.52 38.1206 119.039 38.2616 117.573C38.3462 116.346 36.4422 116.346 36.3576 117.573Z" fill="#AAAAAA"/>
<path d="M32.9724 119.9C32.916 121.649 32.8596 123.412 32.8032 125.189C32.7609 126.416 34.6649 126.416 34.7072 125.189C34.7636 123.412 34.8201 121.649 34.8765 119.9C34.9188 118.673 33.0148 118.673 32.9724 119.9Z" fill="#AAAAAA"/>
<path d="M31.1955 106.699C31.8725 104.498 33.5649 101.452 36.3998 101.96C39.1078 102.467 39.8694 105.599 40.3349 107.841C40.8426 110.253 44.5237 109.237 44.016 106.826C43.1274 102.806 40.8849 98.3209 36.146 98.1093C31.6609 97.9401 28.699 101.833 27.5143 105.725C26.795 108.053 30.4762 109.068 31.1955 106.699Z" fill="#313F49"/>
<path d="M81.97 110.083C81.97 113.722 79.0505 116.642 75.4116 116.642C71.8151 116.642 68.8533 113.722 68.8533 110.083C68.8533 106.487 71.8151 103.525 75.4116 103.525C79.0505 103.525 81.97 106.487 81.97 110.083Z" fill="#313F49"/>
<path d="M79.008 110.083C79.008 112.072 77.4001 113.68 75.4115 113.68C73.4228 113.68 71.8149 112.072 71.8149 110.083C71.8149 108.095 73.4228 106.487 75.4115 106.487C77.4001 106.487 79.008 108.095 79.008 110.083Z" fill="white"/>
<path d="M42.958 19.8303C46.2019 22.7358 49.5587 25.486 53.0283 28.0812C53.7053 28.5466 54.34 27.4465 53.663 26.9811C50.278 24.4423 47.02 21.7626 43.8889 18.9418C43.2542 18.3917 42.3656 19.3226 42.958 19.8303Z" fill="#720000"/>
<path d="M49.5165 18.0524C56.2441 23.8491 63.4372 29.6458 72.8304 29.1804C73.6344 29.1381 73.6344 27.8687 72.8304 27.9111C63.7334 28.3765 56.8788 22.749 50.4051 17.1638C49.8127 16.6137 48.8818 17.5023 49.5165 18.0524Z" fill="#720000"/>
<path d="M56.8362 16.9547C59.0928 19.0139 61.6315 20.5935 64.4523 21.6936C65.214 21.9898 65.5525 20.7628 64.7908 20.4666C62.1675 19.4511 59.8403 17.9702 57.767 16.0661C57.1323 15.5161 56.2438 16.4046 56.8362 16.9547Z" fill="#720000"/>
<path d="M27.6412 16.5292C27.9373 22.4106 25.9064 27.8265 21.7598 32.0154C21.1674 32.6078 22.0983 33.4963 22.6483 32.904C27.0065 28.5035 29.249 22.7068 28.9105 16.5292C28.8682 15.683 27.5989 15.683 27.6412 16.5292Z" fill="#720000"/>
<path d="M21.7601 19.7448C21.4216 21.1552 21.0972 22.5515 20.7869 23.9337C20.5753 24.7377 21.8024 25.0761 21.9716 24.2722C22.3101 22.8618 22.6486 21.4655 22.9871 20.0833C23.1564 19.2794 21.9293 18.9409 21.7601 19.7448Z" fill="#720000"/>
<path d="M34.6228 9.80119C37.6693 7.60097 41.1389 6.6701 44.8623 7.09322C45.7086 7.17785 45.6663 5.90849 44.8623 5.82386C40.9696 5.40074 37.1616 6.41623 33.9882 8.70108C33.3112 9.20882 33.9458 10.3089 34.6228 9.80119Z" fill="#720000"/>
<path d="M38.3883 13.4837C39.15 13.4837 39.9116 13.4837 40.6732 13.4837C41.4771 13.4837 41.4771 12.2144 40.6732 12.2144C39.9116 12.2144 39.15 12.2144 38.3883 12.2144C37.5844 12.2144 37.5844 13.4837 38.3883 13.4837Z" fill="#720000"/>
<path d="M76.2998 12.4675C82.6043 14.3715 87.5547 19.1528 89.5857 25.4573C89.7973 26.2612 91.0243 25.9227 90.8128 25.1188C88.6126 18.3912 83.4082 13.2714 76.6383 11.2404C75.8343 10.9866 75.4958 12.2136 76.2998 12.4675Z" fill="#720000"/>
<path d="M82.8162 25.4165C83.8881 26.432 84.9459 27.4474 85.9896 28.4629C86.5819 29.013 87.4705 28.1244 86.8781 27.5744C85.8344 26.5307 84.7907 25.5011 83.747 24.4856C83.1547 23.9356 82.2661 24.8241 82.8162 25.4165Z" fill="#720000"/>
<path d="M91.49 61.3803C90.7566 69.5324 90.1783 77.7127 89.7552 85.9213C89.7129 86.7252 90.9822 86.7252 91.0245 85.9213C91.4477 77.7127 92.0259 69.5324 92.7593 61.3803C92.8016 60.5764 91.5323 60.5764 91.49 61.3803Z" fill="#720000"/>
<path d="M84.5933 76.0194C84.5933 78.671 84.5933 81.3084 84.5933 83.9318C84.5933 84.7357 85.8626 84.7357 85.8626 83.9318C85.8626 81.3084 85.8626 78.671 85.8626 76.0194C85.8626 75.2155 84.5933 75.2155 84.5933 76.0194Z" fill="#720000"/>
<path d="M74.9883 81.6903C74.9883 83.7495 74.9883 85.8087 74.9883 87.8679C74.9883 88.7141 76.2576 88.7141 76.2576 87.8679C76.2576 85.8087 76.2576 83.7495 76.2576 81.6903C76.2576 80.8441 74.9883 80.8441 74.9883 81.6903Z" fill="#720000"/>
<path d="M78.3733 89.8564C78.3733 91.7463 78.3733 93.6221 78.3733 95.4839C78.3733 96.3301 79.6427 96.3301 79.6427 95.4839C79.6427 93.6221 79.6427 91.7463 79.6427 89.8564C79.6427 89.0524 78.3733 89.0524 78.3733 89.8564Z" fill="#720000"/>
<path d="M18.5864 63.3261C18.5864 72.5501 18.5864 81.7741 18.5864 90.9981C18.5864 91.8021 19.8558 91.8021 19.8558 90.9981C19.8558 81.7741 19.8558 72.5501 19.8558 63.3261C19.8558 62.5222 18.5864 62.5222 18.5864 63.3261Z" fill="#720000"/>
<path d="M24.2139 76.8661C24.2139 78.3894 24.2139 79.8985 24.2139 81.3935C24.2139 82.1974 25.4832 82.1974 25.4832 81.3935C25.4832 79.8985 25.4832 78.3894 25.4832 76.8661C25.4832 76.0622 24.2139 76.0622 24.2139 76.8661Z" fill="#720000"/>
<path d="M31.28 76.8661C31.28 81.5769 31.28 86.2876 31.28 90.9983C31.28 91.8023 32.5494 91.8023 32.5494 90.9983C32.5494 86.2876 32.5494 81.5769 32.5494 76.8661C32.5494 76.0622 31.28 76.0622 31.28 76.8661Z" fill="#720000"/>
<path d="M36.6536 83.3827C36.6536 83.9469 36.6536 84.511 36.6536 85.0752C36.6536 85.8791 37.9229 85.8791 37.9229 85.0752C37.9229 84.511 37.9229 83.9469 37.9229 83.3827C37.9229 82.5365 36.6536 82.5365 36.6536 83.3827Z" fill="#720000"/>
</svg>
