<svg width="91" height="90" viewBox="0 0 91 90" fill="none" xmlns="http://www.w3.org/2000/svg">
<path d="M90.4963 45.592C90.4963 69.8895 70.3524 89.5749 45.4888 89.5749C20.6594 89.5749 0.515381 69.8895 0.515381 45.592C0.515381 21.3279 20.6594 1.64258 45.4888 1.64258C70.3524 1.64258 90.4963 21.3279 90.4963 45.592Z" fill="#631D6B"/>
<path d="M45.2495 89.8088C53.4233 89.8088 61.05 87.6698 67.6507 83.96C63.8544 75.0364 54.8597 68.7197 44.3261 68.7197C34.1686 68.7197 25.3791 74.6354 21.4119 83.1245C28.3203 87.3356 36.4942 89.8088 45.2495 89.8088Z" fill="#EAFFFF"/>
<path d="M19.5991 33.6268C19.5991 33.6268 14.982 29.9504 13.272 35.7992C11.562 41.648 18.9151 46.6612 20.2831 46.327L19.5991 33.6268Z" fill="#F2B297"/>
<path d="M69.9762 33.6268C69.9762 33.6268 74.5933 29.9504 76.3033 35.7992C78.0133 41.648 70.6602 46.6612 69.2922 46.327L69.9762 33.6268Z" fill="#F2B297"/>
<path d="M46.4806 73.8324H42.5817C41.0769 73.8324 39.8457 72.6292 39.8457 71.1587V63.6054C39.8457 62.1014 41.0769 60.9316 42.5817 60.9316H46.4806C47.9854 60.9316 49.2166 62.1014 49.2166 63.6054V71.1587C49.2166 72.6292 47.9854 73.8324 46.4806 73.8324Z" fill="#F9D0BB"/>
<path d="M46.4806 60.9316H42.5817C41.0769 60.9316 39.8457 62.1014 39.8457 63.6054V66.4462C41.5215 66.7804 43.2657 66.9475 45.0099 66.9475C46.4236 66.9253 47.8258 66.8138 49.2166 66.6133V63.6054C49.2166 62.1014 47.9854 60.9316 46.4806 60.9316Z" fill="#F2B297"/>
<path d="M69.9761 16.5816H48.0195C46.8795 16.4256 45.7167 16.3477 44.5311 16.3477C43.3683 16.3477 42.2169 16.4256 41.0769 16.5816H18.7783V36.6346H18.9493C18.8809 36.9688 18.8239 37.303 18.7783 37.6372C18.7783 37.6372 18.6757 42.4499 18.7783 44.0542C19.5991 56.1528 31.3298 65.3772 44.5311 65.3772C57.0484 65.3772 68.7107 57.2557 69.9761 45.9592C70.7627 38.6733 69.9761 16.5816 69.9761 16.5816Z" fill="#F9D0BB"/>
<path d="M41.8977 38.7731C41.8977 41.38 41.8977 43.9758 41.8977 46.5604C42.2169 46.4935 42.5361 46.4155 42.8553 46.3264C41.5215 44.0537 38.6144 45.2235 38.7512 47.7301C38.9564 50.5041 42.1029 51.7073 44.2917 50.1699C44.8389 49.7688 44.3259 48.8999 43.7787 49.3009C43.0491 49.9471 42.1371 50.0585 41.0427 49.6352C40.1877 49.3009 39.7773 48.4988 40.0851 47.6633C40.4955 46.4935 41.0427 46.3933 42.0345 46.6941C42.4791 46.8277 42.2739 47.3291 42.8553 46.7943C43.1973 46.4601 42.9237 44.6219 42.9237 44.154C42.9237 42.3715 42.9237 40.5779 42.9237 38.7731C42.9237 38.1381 41.8977 38.1381 41.8977 38.7731Z" fill="#CC6666"/>
<path d="M63.1362 49.9024C63.1362 51.8074 60.7079 53.3782 57.7325 53.3782C54.7571 53.3782 52.3289 51.8074 52.3289 49.9024C52.3289 47.9974 54.7571 46.46 57.7325 46.46C60.7079 46.46 63.1362 47.9974 63.1362 49.9024Z" fill="#F2B297"/>
<path d="M34.7499 49.9024C34.7499 51.8074 32.3217 53.3782 29.3463 53.3782C26.3708 53.3782 23.9426 51.8074 23.9426 49.9024C23.9426 47.9974 26.3708 46.46 29.3463 46.46C32.3217 46.46 34.7499 47.9974 34.7499 49.9024Z" fill="#F2B297"/>
<path d="M60.1948 41.4811C60.1948 43.2525 59.3056 44.6896 58.177 44.6896C57.0826 44.6896 56.1934 43.2525 56.1934 41.4811C56.1934 39.6764 57.0826 38.2393 58.177 38.2393C59.3056 38.2393 60.1948 39.6764 60.1948 41.4811Z" fill="#560000"/>
<path d="M31.2273 41.4811C31.2273 43.2525 30.3381 44.6896 29.2436 44.6896C28.115 44.6896 27.2258 43.2525 27.2258 41.4811C27.2258 39.6764 28.115 38.2393 29.2436 38.2393C30.3381 38.2393 31.2273 39.6764 31.2273 41.4811Z" fill="#560000"/>
<path d="M44.5994 48.7993C44.9756 48.933 45.2834 49.2004 45.4887 49.5012C45.8307 50.0359 46.7199 49.5346 46.3779 48.9999C46.0017 48.4317 45.4886 48.064 44.873 47.8301C44.2574 47.5961 43.9838 48.5654 44.5994 48.7993Z" fill="#CC6666"/>
<g style="mix-blend-mode:multiply" opacity="0.75">
<path d="M39.9483 48.6659C39.9483 48.6659 40.8717 49.6685 43.129 48.8664C45.4204 48.0977 47.0278 47.9974 47.3698 49.3343C47.7118 50.6712 44.6338 52.4425 42.3424 52.4425C41.0769 52.4425 37.9989 50.103 39.9483 48.6659Z" fill="#F2B297"/>
</g>
<path fill-rule="evenodd" clip-rule="evenodd" d="M56.5356 34.0943C53.9706 34.6958 52.8762 30.8189 55.4412 30.2174C58.4166 29.5155 61.5288 30.351 63.615 32.5234C65.4277 34.4285 62.5206 37.2693 60.7422 35.3643C59.6136 34.2279 58.1088 33.6932 56.5356 34.0943ZM24.3531 32.724C26.5419 30.8189 29.4832 30.0837 32.3218 30.9192C34.8526 31.6545 33.7582 35.5314 31.2274 34.7961C29.8252 34.3616 28.3545 34.5956 27.2601 35.5648C25.2765 37.3027 22.3695 34.4619 24.3531 32.724Z" fill="#FF9A3E"/>
<path d="M55.441 30.2174C54.9964 30.3176 54.6886 30.5181 54.4492 30.7855C54.8254 31.5542 55.6462 32.1224 56.7406 31.855C58.3481 31.4874 59.8529 31.9887 60.9473 33.1585C61.9391 34.1611 63.2387 33.7935 63.9227 32.9579C63.8543 32.8019 63.7517 32.6571 63.6149 32.5234C61.5287 30.351 58.4165 29.5155 55.441 30.2174Z" fill="#FFC23E"/>
<path d="M24.3531 32.7242C24.3189 32.7576 24.2847 32.8244 24.2505 32.8579C24.9003 33.7937 26.3367 34.3284 27.4653 33.3592C28.5939 32.3565 30.0645 32.156 31.4667 32.5571C32.3902 32.8244 33.1084 32.4902 33.553 31.8886C33.3136 31.4542 32.9374 31.0865 32.3218 30.9194C29.4831 30.0839 26.5419 30.8192 24.3531 32.7242Z" fill="#FFC23E"/>
<path d="M74.251 35.7663C73.8064 35.2649 73.1224 35.1313 72.4726 35.3986C71.6176 35.7328 71.3098 36.6352 71.173 37.4373C71.0362 38.0389 70.9678 38.8076 71.4808 39.2421C71.7886 39.4761 72.0622 39.4761 72.4042 39.5095C72.7462 39.5095 73.054 39.476 73.3618 39.6432C74.0116 40.0442 73.9432 41.3811 72.9172 40.98C72.3016 40.7795 72.028 41.7487 72.6436 41.9493C74.0458 42.484 75.3796 40.9466 74.7298 39.6432C74.3878 39.0081 73.7038 38.5737 72.9514 38.5068C72.37 38.44 72.0622 38.6071 72.1306 37.8718C72.1306 37.4039 72.712 35.5657 73.5328 36.5015C73.9432 36.9694 74.6614 36.2676 74.251 35.7663Z" fill="#CC6666"/>
<path d="M15.6661 35.9993C16.6237 35.6651 17.5471 37.1691 17.1709 37.9044C16.8973 38.4725 16.4869 38.2052 16.0081 38.3388C15.5977 38.4391 15.2214 38.7065 15.0504 39.141C14.5032 40.6783 16.2817 41.4471 17.3419 42.0152C17.8891 42.3494 18.4363 41.4805 17.8549 41.1462C17.6155 41.0126 17.3761 40.9123 17.1367 40.7786C16.5895 40.4778 16.0765 40.3441 16.2817 39.7091C16.5211 39.0407 16.8289 39.3749 17.3761 39.2412C18.0259 39.0407 18.1969 38.506 18.1969 37.9044C18.1969 36.4004 17.2393 34.3617 15.3924 35.0301C14.7768 35.264 15.0504 36.2333 15.6661 35.9993Z" fill="#CC6666"/>
<path d="M41.5214 60.2292C42.5132 61.1984 43.7786 61.7332 45.1808 61.7666C45.8306 61.7666 45.8306 60.764 45.1808 60.764C44.0522 60.7305 43.0604 60.296 42.2738 59.5274C41.795 59.0594 41.0768 59.7613 41.5214 60.2292Z" fill="#F47975"/>
<path d="M18.5731 44.1214L20.9671 44.957L21.1381 31.087C21.1381 31.087 31.0562 31.087 33.7922 27.7448C36.5282 24.4026 58.0744 27.0764 58.0744 27.0764C58.0744 27.0764 62.1784 30.4185 66.7955 31.7554L67.3085 45.9596L70.2155 43.9543L70.5575 22.2302L41.8293 12.7051L18.0601 22.7316L18.5731 44.1214Z" fill="#F2B297"/>
<path d="M18.6755 40.5781L18.7439 42.7839L21.138 43.6195L21.1722 41.8481C20.3171 41.4471 19.4963 41.0126 18.6755 40.5781Z" fill="#FF9A3E"/>
<path d="M18.6416 38.1045L18.6758 39.3745C19.4966 39.8424 20.3288 40.288 21.1724 40.7114V39.5416C20.3174 39.1071 19.4624 38.6392 18.6416 38.1045Z" fill="#FF9A3E"/>
<path d="M18.573 35.3311L18.6072 36.835C19.3938 37.4366 20.283 37.9379 21.2064 38.4058V36.9353C20.3172 36.434 19.428 35.8658 18.573 35.3311Z" fill="#FF9A3E"/>
<path d="M42.0004 11.3672L18.2312 21.3937L18.539 34.0939C19.4282 34.6286 20.3174 35.1968 21.2408 35.7316L21.3092 29.7491C21.3092 29.7491 31.2273 29.7491 33.9633 26.4069C36.6994 23.0648 58.2455 25.7385 58.2455 25.7385C58.2455 25.7385 62.3496 29.0807 66.9666 30.4175L67.1718 36.3666C68.3004 35.6981 69.429 34.9963 70.5234 34.2944L70.7286 20.8924L42.0004 11.3672Z" fill="#FFC23E"/>
<path d="M70.4548 37.9376L70.489 35.5312C69.4174 36.222 68.3344 36.9015 67.24 37.57L67.3084 39.8092C68.3344 39.1742 69.4288 38.606 70.4548 37.9376Z" fill="#FF9A3E"/>
<path d="M70.421 40.6453L70.4552 39.1748C69.395 39.7764 68.3348 40.3446 67.343 41.013L67.4114 42.517C68.4032 41.882 69.4292 41.2804 70.421 40.6453Z" fill="#FF9A3E"/>
<path d="M67.4456 43.72L67.4798 44.6224L70.3868 42.6171V41.8818C69.4292 42.4834 68.4374 43.085 67.4456 43.72Z" fill="#FF9A3E"/>
<path d="M37.5197 53.0777C37.5197 53.0777 40.2216 55.1833 43.881 55.1833C47.6088 55.2167 50.9947 52.2422 50.9947 52.2422C50.9947 52.2422 51.2341 53.0109 52.0207 52.9441C52.0207 52.9441 50.5159 60.0294 43.4364 59.2942C36.3911 58.5589 36.5621 53.7127 36.5621 53.7127L37.5197 53.0777Z" fill="#560000"/>
<path d="M38.5117 57.5222C39.5377 58.3577 41.0767 59.0596 43.4366 59.2935C46.2068 59.5943 48.0878 58.6919 49.4216 57.4888C46.1042 54.6479 39.7429 57.0209 38.5117 57.5222Z" fill="#E02F00"/>
<path d="M43.8812 55.1831C42.2738 55.1831 40.8031 54.7821 39.7087 54.3142C39.7429 54.7152 40.0507 55.6844 40.9399 56.4197C41.8634 57.2552 42.308 57.3221 44.2574 57.3889C46.2068 57.4224 47.8484 56.7539 48.464 55.885C48.8744 55.3502 48.977 54.2807 49.0112 53.6123C47.7116 54.381 45.8306 55.2165 43.8812 55.1831Z" fill="white"/>
<path d="M39.7087 54.3142C39.7429 54.6818 39.9823 55.4505 40.6321 56.1523C40.5979 56.0187 40.1533 54.7821 40.3585 54.9492C40.5979 55.1163 41.8292 55.8515 44.0522 55.885C46.3094 55.9518 48.122 54.7486 48.122 54.7486C48.122 54.7486 48.293 55.9518 47.9168 56.4197C48.1448 56.2637 48.3272 56.0855 48.464 55.885C48.8744 55.3502 48.977 54.2807 49.0112 53.6123C47.7116 54.381 45.8306 55.2165 43.8812 55.1831C42.2738 55.1831 40.8031 54.7821 39.7087 54.3142Z" fill="#DBDBDB"/>
<path d="M35.4677 54.4144C36.9383 54.3475 38.1353 53.0106 38.2721 51.3396C38.3405 50.6711 37.4855 50.6711 37.4171 51.3061C37.3145 52.4425 36.4595 53.3783 35.5019 53.4117C34.9547 53.4451 34.9205 54.4478 35.4677 54.4144Z" fill="#F47975"/>
<path d="M50.2423 49.9358C49.7977 50.905 50.1055 51.9077 50.7211 52.643C51.4051 53.4785 52.2601 53.4451 53.1835 53.278C53.7307 53.1777 53.5256 52.2085 52.9783 52.3087C52.4653 52.409 51.8839 52.5093 51.4735 52.1082C51.0973 51.7406 50.7211 51.0721 50.9605 50.4705C51.2341 49.9024 50.5159 49.3676 50.2423 49.9358Z" fill="#F47975"/>
<path d="M34.7498 51.0385C34.7498 51.0385 35.7758 52.1415 37.6226 51.9075C39.4352 51.707 41.3846 50.2364 43.4366 52.3754C43.4366 52.3754 44.6678 50.5706 47.5407 52.0412C50.3793 53.4783 53.0127 50.3701 53.0127 50.3701C53.0127 50.3701 52.2261 54.1802 48.5667 54.7149C44.9414 55.2831 43.3682 53.9796 43.3682 53.9796C43.3682 53.9796 39.7772 55.3499 37.2806 54.3139C34.8182 53.2778 34.7498 51.0385 34.7498 51.0385Z" fill="#FF9A3E"/>
<path d="M47.5407 52.0422C44.6679 50.5716 43.4366 52.3764 43.4366 52.3764C41.3846 50.2374 39.4352 51.7079 37.6226 51.9085C36.4256 52.0756 35.5706 51.6411 35.126 51.3403C35.468 52.0087 36.0836 52.8108 37.3148 53.3122C39.7772 54.3482 43.3682 52.978 43.3682 52.978C43.3682 52.978 44.9415 54.2814 48.6009 53.7132C50.6187 53.4124 51.7473 52.109 52.3629 50.9727C51.4053 51.8082 49.5243 53.0448 47.5407 52.0422Z" fill="#FFC23E"/>
<path d="M46.412 89.9421C46.8224 87.9033 47.1986 79.6148 44.1206 80.818C43.6418 81.0185 42.0686 86.8339 43.2656 89.6747C43.2998 89.775 43.334 89.8418 43.3682 89.9421C43.9838 89.9643 44.5994 89.9755 45.215 89.9755C45.6254 89.9755 46.0244 89.9643 46.412 89.9421Z" fill="#240000"/>
<g style="mix-blend-mode:multiply" opacity="0.73">
<path d="M70.1816 24.4023C70.079 19.9238 69.9764 16.5816 69.9764 16.5816H48.0198C46.8798 16.4256 45.717 16.3477 44.5314 16.3477C43.3686 16.3477 42.2172 16.4256 41.0772 16.5816H18.7786V25.806C18.9496 25.9062 19.018 25.9731 19.018 25.9731L23.122 25.8394C26.2684 28.4129 31.7747 30.7858 41.4876 31.354C54.8599 32.1561 62.9311 28.2457 67.2404 24.5025L70.1816 24.4023Z" fill="#F9AB64"/>
</g>
<path d="M18.9152 24.6355C18.9152 24.6355 10.9465 19.288 11.4937 17.0488C12.0751 14.8095 25.3107 2.34324 27.7047 1.44086C30.0987 0.571897 53.3549 -0.764965 64.4016 1.3406C64.4016 1.3406 76.6111 12.9379 78.3211 16.1464C80.0311 19.3883 70.2156 23.0647 70.2156 23.0647L18.9152 24.6355Z" fill="#EAFFFF"/>
<path d="M64.4018 1.34084C63.8546 1.22944 63.2732 1.12916 62.6576 1.04004C67.4115 4.98379 74.9355 13.3058 75.8589 14.2082C77.0559 15.3779 74.3199 18.0517 72.7809 18.3859C71.2419 18.7201 71.9259 14.8766 71.9259 14.8766C71.9259 14.8766 63.0338 12.2029 45.5233 10.3981C28.0127 8.59333 18.6418 14.6426 18.6418 14.6426C18.6418 14.6426 18.0604 20.3912 15.4954 15.545C14.9482 14.509 15.1534 13.2055 15.8032 11.8352C13.4776 14.2082 11.6992 16.2803 11.494 17.049C10.9468 19.2883 18.9154 24.6357 18.9154 24.6357L70.2159 23.0649C70.2159 23.0649 80.0314 19.3885 78.3214 16.1466C76.6113 12.9381 64.4018 1.34084 64.4018 1.34084Z" fill="#C1F7F5"/>
<path d="M19.1546 17.9847L18.6416 14.6425C18.6416 14.6425 32.5953 12.2028 43.5394 11.8685C54.4835 11.5343 70.7971 15.1439 70.7971 15.1439L70.626 18.3189C70.626 18.3189 58.1429 25.3709 45.1468 25.6717C30.9537 26.0059 19.1546 17.9847 19.1546 17.9847Z" fill="#313F49"/>
<path d="M45.1467 25.6715C58.1428 25.3707 70.6259 18.3188 70.6259 18.3188L70.6943 16.6143C41.3504 22.5967 20.7961 17.149 18.915 16.6143L19.1544 17.9845C19.1544 17.9845 30.9535 26.0057 45.1467 25.6715Z" fill="#FFC23E"/>
<path d="M18.8125 17.3155C18.8125 17.3155 18.6415 28.6789 41.3847 30.0158C64.1279 31.3526 71.481 19.1537 71.31 17.1484C71.31 17.1484 60.4685 21.0588 43.5393 21.393C26.6102 21.7272 18.8125 17.3155 18.8125 17.3155Z" fill="#272525"/>
<path fill-rule="evenodd" clip-rule="evenodd" d="M49.0456 7.79021C48.3274 9.19392 46.9594 10.0963 45.523 10.3971C45.523 10.5308 45.523 10.6645 45.523 10.7982C45.523 11.4332 44.497 11.4332 44.497 10.7982C44.497 10.6868 44.497 10.5753 44.497 10.4639C42.9922 10.4305 41.5558 9.62842 40.906 7.82365C40.7008 7.22206 41.6926 6.95467 41.8978 7.55626C42.3766 8.92654 43.4026 9.52814 44.497 9.52814C44.497 8.45865 44.497 7.4003 44.497 6.35309C44.0638 6.35309 43.642 6.35309 43.2316 6.35309C42.5476 6.35309 42.5476 5.35044 43.2316 5.35044C43.642 5.35044 44.0638 5.35044 44.497 5.35044C44.497 5.19447 44.497 5.02736 44.497 4.84911C44.497 4.81569 44.5312 4.78227 44.5312 4.78227C43.7788 4.54832 43.2316 3.87988 43.2316 3.11119C43.2316 2.14196 44.0182 1.33984 45.01 1.33984C46.0018 1.33984 46.8226 2.14196 46.8226 3.11119C46.8226 3.87988 46.2754 4.54832 45.523 4.78227C45.523 4.78227 45.523 4.81569 45.523 4.84911C45.523 5.02736 45.523 5.19447 45.523 5.35044C45.9562 5.35044 46.3894 5.35044 46.8226 5.35044C47.4724 5.35044 47.4724 6.35309 46.8226 6.35309C46.3894 6.35309 45.9562 6.35309 45.523 6.35309C45.523 7.35574 45.523 8.35839 45.523 9.36103C46.6174 9.06024 47.6434 8.29154 48.1906 7.28889C48.4642 6.72072 49.3534 7.22205 49.0456 7.79021ZM45.01 3.84647C45.4546 3.84647 45.7966 3.51225 45.7966 3.11119C45.7966 2.6767 45.4546 2.34249 45.01 2.34249C44.5996 2.34249 44.2576 2.6767 44.2576 3.11119C44.2576 3.51225 44.5996 3.84647 45.01 3.84647Z" fill="#272525"/>
<path d="M42.1716 76.7072C42.1716 76.7072 43.5396 81.052 44.5657 81.7204C45.5917 82.3888 47.4727 77.0414 47.4727 77.0414C47.4727 77.0414 45.0787 72.8637 44.5657 73.365C44.0526 73.8663 42.1716 76.7072 42.1716 76.7072Z" fill="#240000"/>
<path d="M38.9909 69.0859L24.9688 73.0965L25.7554 77.1071L39.3329 72.4281L38.9909 69.0859Z" fill="#313F49"/>
<path d="M30.7492 71.4258L29.2786 71.8603C29.5294 73.108 29.8486 74.3335 30.2362 75.5366L31.7068 75.0353C31.2964 73.8656 30.9886 72.6624 30.7492 71.4258Z" fill="#FFC23E"/>
<path d="M27.4659 76.5057L28.9365 76.0044C28.6401 74.7344 28.3437 73.4644 28.0473 72.1943L26.5425 72.6288C26.8617 73.9211 27.1695 75.2134 27.4659 76.5057Z" fill="#FFC23E"/>
<path d="M50.1401 68.9531L64.1622 72.9637L63.3756 76.9743L49.7981 72.2953L50.1401 68.9531Z" fill="#313F49"/>
<path d="M58.3827 71.3252L59.8533 71.7262C59.6025 72.974 59.2833 74.2106 58.8957 75.4361L57.425 74.9347C57.8355 73.7315 58.1433 72.5284 58.3827 71.3252Z" fill="#FFC23E"/>
<path d="M61.6659 76.4051L60.1953 75.9038C60.4917 74.6338 60.7881 73.3638 61.0845 72.0938L62.5893 72.5282C62.2701 73.8205 61.9623 75.1128 61.6659 76.4051Z" fill="#FFC23E"/>
<path d="M40.1195 68.6182C38.9567 69.0192 37.7939 70.0553 36.8021 70.7572C36.1523 71.1916 35.2631 71.6261 34.7501 72.2277C34.1687 72.9964 34.3739 73.9991 34.9553 74.6006C35.8103 75.4696 36.3917 76.5057 37.1783 77.408C38.1701 78.5444 39.2645 79.7476 40.5641 80.5497L44.3946 73.9656L48.7722 80.4828C48.7722 80.4828 54.9283 75.5364 54.9283 73.2972C54.9283 71.0914 48.7722 68.6182 48.7722 68.6182C48.7722 68.6182 50.3796 72.8627 43.779 72.4282C37.9307 72.0272 40.1195 68.6182 40.1195 68.6182Z" fill="#C1F7F5"/>
</svg>
