<svg width="97" height="93" viewBox="0 0 97 93" fill="none" xmlns="http://www.w3.org/2000/svg">
<path d="M92.4524 48.593C92.4524 72.8905 72.3084 92.5758 47.4448 92.5758C22.6154 92.5758 2.47144 72.8905 2.47144 48.593C2.47144 24.3289 22.6154 4.64355 47.4448 4.64355C72.3084 4.64355 92.4524 24.3289 92.4524 48.593Z" fill="#F47098"/>
<path d="M37.732 9.55728C37.732 9.55728 36.9112 1.2353 25.7277 0.533443C14.5442 -0.201833 12.3896 5.47986 12.3896 5.47986C12.3896 5.47986 6.13091 4.41036 1.92427 12.2644C-2.31656 20.0851 1.95847 36.0606 7.05432 42.0431C7.05432 42.0431 7.36211 51.2341 0.590453 49.7301C0.590453 49.7301 1.20607 58.3863 9.79034 58.1189C9.79034 58.1189 24.8727 65.0706 28.9767 55.746C33.0807 46.4213 37.732 9.55728 37.732 9.55728Z" fill="#E02F00"/>
<path d="M36.5688 6.31571C35.4744 6.01492 34.1748 5.78095 32.7384 5.71411C21.5549 4.97883 19.4003 10.6605 19.4003 10.6605C19.4003 10.6605 13.1417 9.59103 8.93501 17.4451C4.69418 25.2658 8.96922 41.2413 14.0651 47.2238C14.0651 47.2238 14.3729 56.4147 7.6012 54.9108C7.6012 54.9108 7.7038 56.3813 8.42201 58.0858C8.85521 58.1081 9.31122 58.1192 9.79002 58.1192C9.79002 58.1192 24.8723 65.0709 28.9764 55.7463C33.0804 46.4217 37.7317 9.55759 37.7317 9.55759C37.7317 9.55759 37.5607 8.08706 36.5688 6.31571Z" fill="#B30000"/>
<path d="M23.7783 15.1054C24.3939 16.6428 26.9247 17.1107 29.3871 16.1414C31.8495 15.1722 33.3543 13.1669 32.7387 11.5961C32.0889 10.0587 29.5923 9.5908 27.1299 10.56C24.6333 11.5293 23.1627 13.568 23.7783 15.1054Z" fill="#9EC43E"/>
<path d="M59.4832 9.79114C59.4832 9.79114 60.2698 1.46916 71.4533 0.733883C82.6709 0.0320287 84.8256 5.71369 84.8256 5.71369C84.8256 5.71369 91.05 4.64422 95.2909 12.4983C99.4975 20.319 95.2225 36.2611 90.1608 42.277C90.1608 42.277 89.8188 51.4679 96.6247 49.9305C96.6247 49.9305 95.9749 58.6201 87.4248 58.3193C87.4248 58.3193 72.3083 65.3045 68.2042 55.9798C64.1002 46.6218 59.4832 9.79114 59.4832 9.79114Z" fill="#E02F00"/>
<path d="M88.2798 54.7772C81.4739 56.3146 81.8159 47.1236 81.8159 47.1236C86.9118 41.1077 91.1868 25.1656 86.946 17.345C82.7394 9.4909 76.4807 10.5604 76.4807 10.5604C76.4807 10.5604 74.3261 4.87871 63.1426 5.58056C62.413 5.62512 61.7176 5.70311 61.0564 5.81452C59.6542 7.88666 59.4832 9.79168 59.4832 9.79168C59.4832 9.79168 64.1002 46.6223 68.2042 55.9804C72.0689 64.7368 85.6122 59.122 87.2538 58.4202C88.143 56.5151 88.2798 54.7772 88.2798 54.7772Z" fill="#B30000"/>
<path d="M47.4106 92.5119C55.5845 92.5119 63.2111 90.4063 69.8118 86.6965C66.0156 77.7395 57.0209 71.4229 46.4872 71.4229C36.3297 71.4229 27.5402 77.3385 23.573 85.8276C30.4815 90.0721 38.6553 92.5119 47.4106 92.5119Z" fill="#FFD68F"/>
<path d="M21.7604 36.3299C21.7604 36.3299 17.1434 32.6535 15.4334 38.5023C13.7234 44.3511 21.0764 49.3643 22.4445 49.0301L21.7604 36.3299Z" fill="#F9AB64"/>
<path d="M72.1374 36.3299C72.1374 36.3299 76.7544 32.6535 78.4644 38.5023C80.1744 44.3511 72.8214 49.3643 71.4534 49.0301L72.1374 36.3299Z" fill="#F9AB64"/>
<path d="M48.6417 76.5689H44.7429C43.238 76.5689 42.0068 75.3657 42.0068 73.8952V66.3085C42.0068 64.8379 43.238 63.6348 44.7429 63.6348H48.6417C50.1465 63.6348 51.3777 64.8379 51.3777 66.3085V73.8952C51.3777 75.3657 50.1465 76.5689 48.6417 76.5689Z" fill="#FFD68F"/>
<path opacity="0.3" d="M48.6417 63.6348H44.7429C43.238 63.6348 42.0068 64.8379 42.0068 66.3085V69.1827C43.6827 69.4835 45.4269 69.6507 47.1711 69.6507C48.5847 69.6507 49.9869 69.5504 51.3777 69.3499V66.3085C51.3777 64.8379 50.1465 63.6348 48.6417 63.6348Z" fill="#FE2F00"/>
<path d="M72.1372 19.2845H50.1806C49.0406 19.1508 47.8778 19.084 46.6922 19.084C45.5294 19.084 44.378 19.1508 43.238 19.2845L22.0338 19.719L20.9394 39.3375H21.1104C21.042 39.694 20.985 40.0394 20.9394 40.3736C20.9394 40.3736 20.8368 45.1863 20.9394 46.7905C21.7602 58.8892 33.4909 68.0801 46.6922 68.0801C59.2095 68.0801 70.8718 59.9921 72.1372 48.6956C72.9238 41.3762 72.1372 19.2845 72.1372 19.2845Z" fill="#FFD68F"/>
<path opacity="0.3" d="M65.2973 52.6389C65.2973 54.544 62.8691 56.0814 59.8936 56.0814C56.9182 56.0814 54.49 54.544 54.49 52.6389C54.49 50.7339 56.9182 49.1631 59.8936 49.1631C62.8691 49.1631 65.2973 50.7339 65.2973 52.6389Z" fill="#FE2F00"/>
<path opacity="0.3" d="M36.911 52.6389C36.911 54.544 34.4828 56.0814 31.5074 56.0814C28.532 56.0814 26.1038 54.544 26.1038 52.6389C26.1038 50.7339 28.532 49.1631 31.5074 49.1631C34.4828 49.1631 36.911 50.7339 36.911 52.6389Z" fill="#FE2F00"/>
<path d="M62.3559 44.1841C62.3559 45.9888 61.4667 47.426 60.3381 47.426C59.2437 47.426 58.3545 45.9888 58.3545 44.1841C58.3545 42.4127 59.2437 40.9756 60.3381 40.9756C61.4667 40.9756 62.3559 42.4127 62.3559 44.1841Z" fill="#560000"/>
<path d="M33.3884 44.1841C33.3884 45.9888 32.4992 47.426 31.4048 47.426C30.2762 47.426 29.387 45.9888 29.387 44.1841C29.387 42.4127 30.2762 40.9756 31.4048 40.9756C32.4992 40.9756 33.3884 42.4127 33.3884 44.1841Z" fill="#560000"/>
<path d="M76.4126 38.502C75.968 38.0007 75.284 37.867 74.6342 38.1009C73.8134 38.4686 73.4714 39.3375 73.3346 40.1731C73.1978 40.7746 73.1294 41.5433 73.6424 41.9778C73.9502 42.2118 74.2238 42.2118 74.5658 42.2118C74.9078 42.2118 75.2156 42.2118 75.5234 42.3789C76.1732 42.7465 76.1048 44.0834 75.0788 43.7157C74.4632 43.4818 74.1896 44.451 74.8052 44.685C76.2074 45.1863 77.5412 43.6489 76.8914 42.3455C76.5494 41.7105 75.8654 41.3094 75.113 41.2091C74.5316 41.1423 74.2238 41.3428 74.2922 40.5741C74.2922 40.1396 74.8736 38.268 75.6944 39.2038C76.1048 39.7051 76.823 39.0033 76.4126 38.502Z" fill="#CC5200"/>
<path d="M17.8273 38.7357C18.7849 38.3681 19.7083 39.8721 19.3321 40.6073C19.0585 41.1755 18.6481 40.9416 18.1693 41.0418C17.7589 41.1755 17.3827 41.4429 17.2459 41.8774C16.6644 43.4148 18.4429 44.15 19.5031 44.7516C20.0503 45.0524 20.5975 44.2169 20.0161 43.8827C19.7767 43.749 19.5373 43.6487 19.2979 43.515C18.7507 43.2142 18.2377 43.0471 18.4429 42.4121C18.6823 41.7771 18.9901 42.1113 19.5373 41.9442C20.1871 41.7437 20.3581 41.2424 20.3581 40.6073C20.3581 39.1368 19.4005 37.0981 17.5537 37.7665C16.9381 37.967 17.2117 38.9363 17.8273 38.7357Z" fill="#CC5200"/>
<path d="M61.2962 45.3534C62.3222 45.6208 63.3824 45.32 64.1006 44.5847C64.5452 44.1168 63.827 43.4149 63.3482 43.8828C62.9036 44.3841 62.2538 44.5513 61.5698 44.3841C60.9542 44.217 60.6806 45.1863 61.2962 45.3534Z" fill="#560000"/>
<path d="M61.1588 46.657C62.048 47.1918 63.1424 47.1918 64.0316 46.657C64.613 46.3228 64.1 45.4538 63.5186 45.7881C62.9372 46.1223 62.2532 46.1223 61.6718 45.7881C61.0904 45.4873 60.5774 46.3562 61.1588 46.657Z" fill="#560000"/>
<path d="M30.1393 45.2875C29.1475 45.5549 28.0531 45.2875 27.3691 44.5523C26.8903 44.0509 27.6427 43.3491 28.0873 43.817C28.5319 44.3183 29.1817 44.5188 29.8657 44.3183C30.5155 44.1512 30.7549 45.1204 30.1393 45.2875Z" fill="#560000"/>
<path d="M30.2759 46.6231C29.3867 47.1244 28.2923 47.1244 27.4031 46.5897C26.8217 46.2554 27.3689 45.3865 27.9161 45.7207C28.4975 46.0883 29.1815 46.0883 29.7629 45.7541C30.3443 45.4199 30.8573 46.2888 30.2759 46.6231Z" fill="#560000"/>
<path d="M43.6827 48.7966C43.5459 50.2337 42.0069 51.2698 40.5705 50.9356C40.1943 50.8687 39.8181 51.1695 39.9207 51.5706C40.5705 53.5424 42.6567 54.7122 44.7429 54.2443C45.3928 54.0772 45.1192 53.1414 44.4694 53.2751C42.9303 53.6427 41.3913 52.7403 40.9125 51.3032C40.7073 51.5037 40.5021 51.7042 40.2969 51.9048C42.4173 52.4061 44.5035 50.9021 44.7087 48.7966C44.7771 48.1616 43.7511 48.1616 43.6827 48.7966Z" fill="#CC5200"/>
<path d="M46.4529 52.6404C46.7607 52.5736 47.1027 52.607 47.3421 52.8075C47.8551 53.242 48.5733 52.5401 48.0603 52.1057C47.5473 51.6712 46.8633 51.5041 46.1793 51.6712C45.5637 51.8383 45.8373 52.8075 46.4529 52.6404Z" fill="#CC5200"/>
<path d="M39.6128 56.6165C41.5622 54.5778 44.4008 56.3826 44.4008 56.3826C47.4104 54.7783 51.4119 57.5857 51.4119 57.5857L51.5145 58.3544C45.2216 69.2164 37.6975 58.6552 39.6128 56.6165Z" fill="#CF0000"/>
<path d="M39.3391 57.7865C44.3666 61.0284 49.4282 58.7223 51.3776 57.5859C51.4118 57.5859 51.4118 57.5859 51.4118 57.5859L51.5144 58.3546C46.0424 67.813 39.6469 61.0618 39.3391 57.7865Z" fill="#FF5600"/>
<path d="M38.1421 57.5521C40.7756 59.3569 42.1436 59.9585 45.461 59.7914C48.1628 59.6243 50.591 58.889 52.7115 57.1511C53.1903 56.7166 52.4721 56.0147 51.9591 56.4492C49.8044 58.254 47.2394 58.7887 44.435 58.8221C41.9042 58.8556 40.6046 58.02 38.6551 56.7166C38.1079 56.3489 37.5949 57.2179 38.1421 57.5521Z" fill="#CC5200"/>
<path d="M51.8905 56.2151C52.3352 56.5493 52.643 56.9838 52.7456 57.5186C52.9166 58.1536 53.9084 57.8862 53.7374 57.2512C53.5322 56.4491 53.0876 55.814 52.4036 55.3461C52.1984 55.179 51.8563 55.3127 51.7195 55.5467C51.5485 55.7806 51.6853 56.048 51.8905 56.2151Z" fill="#CC5200"/>
<path d="M37.8341 55.8473C37.2185 56.4489 36.9106 57.2176 36.9106 58.0531C36.9448 58.6881 37.9709 58.6881 37.9367 58.0531C37.9367 57.485 38.1419 56.9836 38.5523 56.5826C38.9969 56.1147 38.2787 55.4128 37.8341 55.8473Z" fill="#CC5200"/>
<path opacity="0.3" d="M40.844 52.0375C40.7756 51.202 43.58 52.5723 44.606 52.238C45.632 51.9038 48.5049 50.8009 49.0521 52.472C49.6335 54.1431 41.3228 56.9171 40.844 52.0375Z" fill="#FE2F00"/>
<path d="M42.8277 72.8592C42.8277 72.8592 39.9207 74.43 39.9207 77.3042C39.9207 80.1451 46.5897 85.8936 46.5897 85.8936C46.5897 85.8936 53.0878 79.343 52.8142 75.7C52.5748 72.057 42.8277 72.8592 42.8277 72.8592Z" fill="#FFD68F"/>
<path d="M62.3564 86.595C62.288 83.7876 62.9036 81.0804 64.6136 79.142C62.4248 76.6353 60.6806 75.4322 57.5684 73.9282C57.0212 77.5043 54.3877 83.2862 49.5313 84.6565C42.5544 86.6284 38.4162 80.7462 36.2958 73.5605C34.1754 74.4964 32.1917 75.6661 30.4133 77.1033C31.2341 80.0444 32.6021 85.4252 32.9099 90.1711C37.4586 91.7085 42.3492 92.5106 47.4109 92.5106C52.8145 92.5106 57.9788 91.5748 62.7326 89.8703C62.459 88.8008 62.3564 87.6979 62.3564 86.595Z" fill="#9EC43E"/>
<path d="M73.4028 15.3063C72.7872 16.8771 70.2564 17.345 67.794 16.3758C65.3316 15.4066 63.8268 13.3679 64.4766 11.8305C65.0922 10.2931 67.623 9.82518 70.0854 10.7944C72.5478 11.7302 74.0526 13.7689 73.4028 15.3063Z" fill="#9EC43E"/>
<path opacity="0.3" d="M18.8191 35.2253C18.9559 36.3282 19.1953 37.3977 19.4347 38.4672C19.9135 40.6062 20.2213 42.9457 20.9737 44.9844C21.9655 44.1154 22.5811 42.6115 23.1625 41.4083C23.5729 40.6062 23.4362 39.2359 24.0518 38.5675C24.77 37.7654 26.0012 37.9325 26.993 37.6651C29.5238 36.9632 31.7468 35.2587 33.0122 33.0195C34.2435 33.6545 35.5089 34.3229 36.8769 34.3563C39.9549 34.3898 44.1957 31.2481 46.6581 29.6439C47.821 28.9086 55.345 23.7617 54.8662 22.2911C54.8662 22.2911 58.5257 33.4205 63.3137 34.7574C63.3137 34.7574 62.3903 44.3494 72.4452 45.0178L73.4712 37.8656C73.4712 37.8656 76.7544 37.6651 77.9172 39.6704C77.9172 39.6704 81.3373 28.5075 75.6258 21.8232C69.9144 15.1389 58.7651 9.12301 42.5541 11.3623C36.3639 12.2312 29.9684 14.0026 24.8384 17.6455C21.8971 19.7511 20.4265 21.7898 19.4347 25.0985C19.0243 26.402 19.0243 27.8057 18.8875 29.176C18.7165 30.8136 18.5797 32.4179 18.6823 34.0555C18.7051 34.4566 18.7507 34.8465 18.8191 35.2253Z" fill="#FE2F00"/>
<path d="M18.8191 32.8855C18.9559 33.9884 19.1953 35.0579 19.4347 36.1273C19.9135 38.2663 20.2213 40.6058 20.9737 42.6446C21.9655 41.7756 22.5811 40.2716 23.1625 39.0685C23.5729 38.2663 23.4362 36.8961 24.0518 36.2276C24.77 35.4255 26.0012 35.5926 26.993 35.3252C29.5238 34.6234 31.7468 32.9189 33.0122 30.6796C34.2435 31.3146 35.5089 31.9831 36.8769 32.0165C39.9549 32.0499 44.1957 28.9083 46.6581 27.304C47.821 26.5688 55.345 21.4218 54.8662 19.9513C54.8662 19.9513 58.5257 31.0807 63.3137 32.4176C63.3137 32.4176 62.3903 42.0096 72.4452 42.678L73.4712 35.5258C73.4712 35.5258 76.7544 35.3252 77.9172 37.3305C77.9172 37.3305 81.3373 26.1677 75.6258 19.4834C69.9144 12.7991 58.7651 6.78316 42.5541 9.02241C36.3639 9.89137 29.9684 11.6627 24.8384 15.3057C21.8971 17.4112 20.4265 19.45 19.4347 22.7587C19.0243 24.0621 19.0243 25.4658 18.8875 26.8361C18.7165 28.4738 18.5797 30.078 18.6823 31.7157C18.7051 32.1168 18.7507 32.5067 18.8191 32.8855Z" fill="#E02F00"/>
<path d="M59.21 34.4572C60.7832 34.123 62.288 34.6578 63.3482 35.8275C64.2032 36.7967 65.6396 35.3596 64.7846 34.3904C63.2456 32.6859 60.92 32.0175 58.6628 32.5522C57.3632 32.8196 57.9104 34.758 59.21 34.4572Z" fill="#860000"/>
<path d="M32.8758 32.5522C30.6186 32.0175 28.2929 32.6859 26.7539 34.3904C25.8647 35.3596 27.3011 36.7967 28.1903 35.8275C29.2505 34.6578 30.7554 34.123 32.3286 34.4572C33.594 34.758 34.1412 32.8196 32.8758 32.5522Z" fill="#860000"/>
<path d="M34.5171 27.27C37.6977 27.7713 40.7757 26.9023 43.1697 24.7634C43.6827 24.3289 42.9303 23.627 42.4515 24.0615C40.3311 25.9331 37.5951 26.7353 34.7907 26.3008C34.1409 26.2005 33.8673 27.1697 34.5171 27.27Z" fill="#FF5600"/>
<path d="M39.8524 19.483C43.5119 18.5137 47.0003 17.0766 50.2493 15.1716C50.8307 14.8708 50.3177 14.0018 49.7363 14.3026C46.5557 16.1742 43.1699 17.5779 39.5788 18.5137C38.929 18.6808 39.2026 19.6501 39.8524 19.483Z" fill="#FF5600"/>
<path d="M58.5942 17.8785C59.8254 23.0254 62.9035 27.4037 67.3837 30.3448C67.9309 30.7124 68.4439 29.8435 67.8967 29.4758C63.6217 26.6684 60.7488 22.4907 59.586 17.6111C59.4492 16.9761 58.4574 17.2435 58.5942 17.8785Z" fill="#FF5600"/>
<path d="M65.2631 34.8231C66.4943 36.1934 67.9649 37.196 69.6749 37.8979C70.2905 38.1318 70.5641 37.1626 69.9485 36.9286C68.4095 36.2936 67.0757 35.3578 66.0155 34.1212C65.5709 33.6199 64.8527 34.3552 65.2631 34.8231Z" fill="#FF5600"/>
<path d="M62.4591 14.9705C65.7765 16.2739 68.3415 18.7471 69.7779 21.9556C70.0515 22.5238 70.9407 22.0224 70.6671 21.4208C69.0939 18.0118 66.2895 15.405 62.7327 14.0013C62.1171 13.7339 61.8435 14.7031 62.4591 14.9705Z" fill="#FF5600"/>
<path d="M73.7788 25.9995C74.6338 27.8711 75.2152 29.843 75.5572 31.8817C75.6598 32.5167 76.6174 32.2493 76.549 31.6143C76.207 29.4753 75.5572 27.4366 74.668 25.4981C74.4286 24.8965 73.5394 25.3979 73.7788 25.9995Z" fill="#FF5600"/>
<path d="M23.3681 33.5203C22.5473 31.6822 24.6677 29.4429 25.7621 28.0392C26.8907 26.5352 28.1561 25.1315 29.49 23.7612C29.9346 23.2599 29.2164 22.5581 28.7376 23.026C26.9591 24.8976 25.2833 26.9029 23.7785 29.0084C22.6841 30.5792 21.6239 32.1501 22.4789 34.0551C22.7183 34.6233 23.6075 34.1219 23.3681 33.5203Z" fill="#FF5600"/>
<path d="M24.1888 22.5903C27.5405 19.4821 31.5761 17.4434 36.0906 16.6078C36.7404 16.4741 36.4667 15.5049 35.8169 15.6386C31.1315 16.5076 26.9249 18.6466 23.4706 21.8884C22.9918 22.3229 23.71 23.0582 24.1888 22.5903Z" fill="#FF5600"/>
<path d="M84.6893 9.65655C91.6661 11.8624 91.3241 24.4957 90.7085 30.0772C90.6401 30.7122 91.6661 30.7122 91.7345 30.0772C92.4185 23.9276 92.5896 11.1271 84.9629 8.68731C84.3473 8.48678 84.0737 9.45602 84.6893 9.65655Z" fill="#FF5600"/>
<path d="M85.6125 21.1539C86.5359 26.9024 85.9887 32.4504 84.3129 37.9984C83.2527 41.5077 82.2608 44.7496 83.8341 48.192C84.1077 48.7936 84.9969 48.2923 84.7232 47.6907C82.5344 42.8445 85.9887 37.1963 86.7411 32.3167C87.3225 28.5067 87.2199 24.6966 86.6043 20.8865C86.5359 20.2515 85.5441 20.5189 85.6125 21.1539Z" fill="#FF5600"/>
<path d="M87.9378 44.7156C87.0828 47.3894 88.2114 50.297 90.6738 51.7342C91.221 52.0684 91.7341 51.1994 91.1868 50.8652C89.1006 49.6286 88.2114 47.2223 88.9296 44.983C89.1348 44.348 88.143 44.0806 87.9378 44.7156Z" fill="#FF5600"/>
<path d="M78.4306 49.7966C78.3622 52.6708 80.4826 55.2777 83.3896 55.8459C84.0052 55.9796 84.313 55.0103 83.6632 54.8767C81.1666 54.4088 79.3882 52.2698 79.4566 49.7966C79.4566 49.1616 78.4306 49.1616 78.4306 49.7966Z" fill="#FF5600"/>
<path d="M69.6749 7.65121C71.4533 4.77695 75.0443 3.54034 78.2933 4.60983C78.9431 4.81036 79.2167 3.84115 78.5669 3.64062C74.8733 2.43744 70.8035 3.90799 68.7857 7.14989C68.4437 7.71806 69.3329 8.21938 69.6749 7.65121Z" fill="#FF5600"/>
<path d="M74.8396 10.1242C75.6376 9.79002 76.4356 9.4558 77.2336 9.12159C77.8492 8.85421 77.3362 7.98526 76.7206 8.25263C75.9226 8.58685 75.1246 8.92106 74.3266 9.25528C73.7452 9.48923 74.2582 10.3582 74.8396 10.1242Z" fill="#FF5600"/>
<path d="M19.7429 5.98057C22.2054 5.14503 24.9072 6.08082 26.241 8.28665C26.583 8.85481 27.4722 8.35349 27.1302 7.78532C25.557 5.21186 22.3422 4.0421 19.4693 5.01133C18.8537 5.21186 19.0931 6.1811 19.7429 5.98057Z" fill="#FF5600"/>
<path d="M16.4598 10.1919C17.8962 10.1919 19.1616 10.6264 20.2902 11.462C20.8374 11.863 21.3504 10.9941 20.8374 10.593C19.5378 9.6572 18.033 9.18929 16.4598 9.18929C15.81 9.15587 15.81 10.1585 16.4598 10.1919Z" fill="#FF5600"/>
<path d="M14.5102 14.0014C8.3541 12.4305 5.68649 18.9143 5.31029 23.7605C5.00248 27.7376 5.82328 31.5477 7.3965 35.1907C9.24331 39.6023 11.6715 43.8469 9.82471 48.6596C9.58531 49.2612 10.5771 49.5286 10.8165 48.927C12.7317 43.9471 10.3035 39.4352 8.3541 34.8564C6.95189 31.5143 6.09688 28.0384 6.30208 24.3621C6.50728 20.1175 8.4567 13.5 14.2366 14.9706C14.8864 15.1043 15.16 14.1685 14.5102 14.0014Z" fill="#FF5600"/>
<path d="M13.826 21.7216C11.6372 25.6319 11.2268 30.0436 12.6974 34.2881C12.9026 34.8897 13.8944 34.6224 13.6892 34.0208C12.287 30.0436 12.629 25.9327 14.681 22.2229C15.023 21.6548 14.1338 21.1534 13.826 21.7216Z" fill="#FF5600"/>
<mask id="mask0_323_38410" style="mask-type:luminance" maskUnits="userSpaceOnUse" x="2" y="4" width="91" height="89">
<path d="M92.4456 48.6111C92.4456 72.8919 72.3016 92.5772 47.4551 92.5772C22.6052 92.5772 2.46118 72.8919 2.46118 48.6111C2.46118 24.3269 22.6052 4.6416 47.4551 4.6416C72.3016 4.6416 92.4456 24.3269 92.4456 48.6111Z" fill="white"/>
</mask>
<g mask="url(#mask0_323_38410)">
<path d="M16.8353 50.7337C16.2425 50.5332 15.6497 50.3661 15.0569 50.2324C18.4313 61.5067 21.8057 72.7809 25.1802 84.0551C25.6134 83.6318 26.0238 83.1862 26.4114 82.7183C23.2193 72.0456 20.0273 61.3841 16.8353 50.7337Z" fill="white"/>
<path d="M17.0407 89.2347C17.5195 89.0788 17.9984 88.8894 18.4772 88.6665C14.6011 75.7435 10.7251 62.8205 6.84906 49.8975C6.34746 49.9643 5.84584 50.0534 5.34424 50.1648C9.24307 63.1993 13.1419 76.2226 17.0407 89.2347Z" fill="white"/>
<path d="M28.6345 79.3087C28.9993 78.618 29.3185 77.9161 29.5921 77.2031C27.2665 69.3602 24.9295 61.5284 22.581 53.7077C21.9426 53.2398 21.2814 52.8054 20.5974 52.4043C23.265 61.3836 25.9441 70.3517 28.6345 79.3087Z" fill="white"/>
<path d="M11.6367 49.6977C11.1123 49.6531 10.5765 49.6309 10.0293 49.6309C13.7685 62.1528 17.5191 74.6748 21.2812 87.1968C21.2812 87.1968 21.2812 87.2079 21.2812 87.2302C21.7372 86.9405 22.1818 86.6397 22.615 86.3278C18.967 74.1178 15.3075 61.9077 11.6367 49.6977Z" fill="white"/>
<path d="M-1.83806 53.3066C-2.29406 53.6186 -2.73867 53.9417 -3.17188 54.2759C0.430556 66.2631 4.02159 78.2614 7.60122 90.271C8.14842 90.3155 8.69564 90.349 9.24285 90.3712C5.54922 78.0275 1.85558 65.6726 -1.83806 53.3066Z" fill="white"/>
<path d="M2.33465 88.9343C2.92746 89.1571 3.53166 89.3576 4.14726 89.5359C0.864035 78.5959 -2.41919 67.6558 -5.70242 56.7158C-6.11282 57.1837 -6.50043 57.6628 -6.86523 58.1529C-3.78721 68.4245 -0.720574 78.685 2.33465 88.9343Z" fill="white"/>
<path d="M2.3346 51.1006C1.85579 51.2788 1.38838 51.4794 0.932373 51.7022C4.78561 64.5584 8.62744 77.4145 12.4579 90.2707C12.9823 90.2039 13.4953 90.1259 13.9969 90.0368C10.1209 77.0469 6.23343 64.0682 2.3346 51.1006Z" fill="white"/>
<path d="M0.897945 52.1025C0.350741 52.3699 -0.185068 52.6596 -0.709473 52.9715C9.82422 58.6086 20.3693 64.2457 30.9258 69.8828C30.903 69.3035 30.8574 68.7131 30.789 68.1115C20.8253 62.7863 10.8616 57.45 0.897945 52.1025Z" fill="white"/>
<path d="M28.8741 79.2082C29.1021 78.7403 29.3073 78.2724 29.4897 77.8045C17.4056 71.343 5.31006 64.8814 -6.79685 58.4199C-7.09325 58.821 -7.37825 59.2332 -7.65186 59.6565C4.52345 66.1849 16.6987 72.7021 28.8741 79.2082Z" fill="white"/>
<path d="M29.8999 64.1683C29.6719 63.433 29.3983 62.7089 29.0791 61.9959C21.7375 58.0744 14.4072 54.1529 7.08831 50.2314C6.3131 50.3429 5.5379 50.4988 4.7627 50.6994C13.1532 55.2001 21.5322 59.6898 29.8999 64.1683Z" fill="white"/>
<path d="M-3.51368 54.9434C-3.92409 55.2999 -4.32309 55.6675 -4.71069 56.0463C6.98581 62.3073 18.6937 68.5682 30.413 74.8292C30.413 74.8292 30.4244 74.8292 30.4472 74.8292C30.5612 74.3168 30.6524 73.8043 30.7208 73.2918C19.2979 67.1645 7.88641 61.0484 -3.51368 54.9434Z" fill="white"/>
<path d="M-10.4562 66.8418C-10.5474 67.3765 -10.6272 67.9113 -10.6956 68.446C0.52214 74.4396 11.7398 80.4332 22.9575 86.4269C23.3907 86.0926 23.8125 85.7473 24.223 85.3908C12.6633 79.1967 1.10355 73.0137 -10.4562 66.8418Z" fill="white"/>
<path d="M18.3058 89.1342C18.8758 88.8892 19.4344 88.6218 19.9816 88.3321C9.74434 82.851 -0.492938 77.3698 -10.7302 71.8887C-10.6846 72.5125 -10.6048 73.1253 -10.4908 73.7269C-0.891936 78.8738 8.70695 84.0096 18.3058 89.1342Z" fill="white"/>
<path d="M11.5685 90.7386C12.4349 90.6718 13.2899 90.5604 14.1335 90.4044C6.31307 86.2156 -1.50741 82.0267 -9.32788 77.8379C-9.03148 78.6177 -8.66667 79.3864 -8.23347 80.144C-1.64421 83.6644 4.95645 87.1959 11.5685 90.7386Z" fill="white"/>
<path d="M-9.08851 62.3633C-9.29371 62.8312 -9.48752 63.3102 -9.66992 63.8004C2.36858 70.2174 14.3957 76.6455 26.4114 83.0847C26.7306 82.6836 27.0384 82.2714 27.3348 81.8481C15.1823 75.3643 3.04119 68.8694 -9.08851 62.3633Z" fill="white"/>
<path fill-rule="evenodd" clip-rule="evenodd" d="M15.9464 89.5691C4.89974 92.7442 -6.69417 86.5277 -9.9432 75.7326C-13.158 64.9374 -6.79676 53.6075 4.21573 50.4324C15.2624 47.2908 26.8905 53.5072 30.1054 64.3024C33.3544 75.0976 26.9931 86.4275 15.9464 89.5691ZM4.79714 52.3709C-5.15514 55.2117 -10.8666 65.4387 -7.95958 75.1644C-5.05256 84.8901 5.41273 90.5049 15.365 87.6641C25.3173 84.8232 31.063 74.5962 28.1559 64.8705C25.2147 55.1114 14.7494 49.53 4.79714 52.3709Z" fill="#313F49"/>
<path d="M24.8043 82.9182C29.4099 87.4412 34.027 91.9531 38.6554 96.4539C39.5788 97.3897 41.0494 95.9526 40.0918 95.0502C35.4861 90.5272 30.8691 86.0152 26.2407 81.5145C25.3173 80.5787 23.8467 82.0158 24.8043 82.9182Z" fill="#313F49"/>
</g>
</svg>
