<svg width="86" height="92" viewBox="0 0 86 92" fill="none" xmlns="http://www.w3.org/2000/svg">
<path d="M24.2656 58.7297C23.9184 59.0769 14.9952 65.1878 9.12748 59.7714C3.25972 54.3897 6.90538 46.2651 6.90538 46.2651C6.90538 46.2651 1.59314 48.2789 3.01668 41.5778C3.01668 41.5778 -3.78853 33.106 6.90538 28.766C6.90538 28.766 -1.32339 21.6135 5.13462 14.8083C11.5926 7.96838 16.6271 11.7529 16.6271 11.7529C16.6271 11.7529 19.8214 2.44783 28.6057 0.954848C37.4247 -0.572854 43.2924 2.58671 45.3062 5.15603C45.3062 5.15603 47.8755 1.99647 50.3407 2.93392C52.8058 3.87137 52.7017 5.50323 52.7017 5.50323C52.7017 5.50323 59.8541 -2.23944 68.3259 3.03808C76.763 8.35031 75.1311 13.3848 75.1311 13.3848C75.1311 13.3848 80.0614 13.6278 80.5128 16.9263C80.9989 20.19 78.0476 23.4884 78.0476 23.4884C78.0476 23.4884 89.3318 29.3562 79.5753 36.8906C79.5753 36.8906 82.978 39.7029 80.7559 41.8209C80.7559 41.8209 87.1097 45.0846 84.5057 51.1954C81.9363 57.3062 69.9578 70.1181 56.9376 60.8477C43.8827 51.5426 24.2656 58.7297 24.2656 58.7297Z" fill="#FF9A3E"/>
<path d="M82.5613 44.8068C82.5613 44.4365 82.5034 44.0777 82.3877 43.7305C82.3182 43.5569 81.1378 41.4737 80.7558 41.7861C82.978 39.7029 79.5753 36.8906 79.5753 36.8906C79.7837 36.7517 79.9225 36.6128 80.0961 36.4739C79.6101 36.1267 79.2628 35.9184 79.2628 35.9184C81.3808 33.9393 78.1518 31.3006 78.1518 31.3006C78.9851 32.1338 80.9294 27.6202 80.9294 27.2035C80.9294 25.8494 79.367 23.4884 78.0129 23.2454C80.0614 21.2316 80.5822 18.5929 79.4017 15.9541C79.124 15.3291 75.5478 12.0654 75.1311 13.3848C75.1311 13.3848 75.6866 11.6835 74.4714 9.21833C74.1589 9.18361 73.9506 9.14888 73.9506 9.14888C73.9506 9.14888 74.0548 8.90584 74.0548 8.45447C73.0826 6.82261 71.3813 4.9477 68.3259 3.03808C59.8541 -2.23944 52.7017 5.50323 52.7017 5.50323C52.7017 5.50323 52.8058 3.87137 50.3407 2.93392C47.8755 1.99647 45.3062 5.15603 45.3062 5.15603C43.2924 2.58671 37.4247 -0.572854 28.6057 0.954848C23.849 1.75342 20.7588 4.84354 18.8839 7.51702C18.8608 7.58646 18.8492 7.62119 18.8492 7.62119C18.8492 7.62119 18.8492 7.60961 18.8492 7.58646C17.2868 9.84329 16.6271 11.7529 16.6271 11.7529C16.6271 11.7529 12.0093 8.31559 5.9332 14.0098C4.85687 17.8984 7.35674 20.5719 9.33581 23.4537C8.6414 23.5579 7.8081 23.7315 7.25258 24.1829C5.44711 25.5717 7.66922 26.7522 7.07897 28.3493C6.41928 30.1548 3.78052 30.1895 4.33605 32.863C4.54437 33.8699 5.30822 34.599 6.24567 34.9115C4.12772 37.6891 5.89848 41.4737 9.68301 40.1543C7.91227 44.3902 8.25947 49.633 11.7662 52.862C17.3215 57.9659 25.7239 52.2023 26.0364 51.8551C26.0364 51.8551 44.5424 45.1193 56.7987 53.8689C61.9721 57.5492 68.187 57.827 73.6381 54.6674C76.4158 53.0703 82.6655 48.5914 82.5613 44.8068Z" fill="#FFC23E"/>
<path d="M42.876 91.9213C51.1394 91.9213 58.9168 89.7339 65.5832 85.88C61.7639 76.5749 52.6324 70.0127 41.9385 70.0127C31.5918 70.0127 22.7034 76.1582 18.6758 84.9772C25.6893 89.3867 33.9875 91.9213 42.876 91.9213Z" fill="#90DDF4"/>
<path d="M16.8357 33.5559C16.8357 33.5559 12.1484 29.7366 10.4124 35.8127C8.67636 41.8888 16.1413 47.0968 17.5301 46.7496L16.8357 33.5559Z" fill="#F49A98"/>
<path d="M67.9442 33.5559C67.9442 33.5559 72.6314 29.7366 74.3675 35.8127C76.1035 41.8888 68.6386 47.0968 67.2498 46.7496L67.9442 33.5559Z" fill="#F49A98"/>
<path d="M44.0912 75.3597H40.1678C38.6401 75.3597 37.3901 74.1097 37.3901 72.582V64.7005C37.3901 63.1728 38.6401 61.9229 40.1678 61.9229H44.0912C45.6189 61.9229 46.8688 63.1728 46.8688 64.7005V72.582C46.8688 74.1097 45.6189 75.3597 44.0912 75.3597Z" fill="#F9D0BB"/>
<path d="M44.0912 61.9229H40.1678C38.6401 61.9229 37.3901 63.1728 37.3901 64.7005V67.6864C39.0914 67.9989 40.8275 68.1725 42.5982 68.1725C44.0565 68.1725 45.48 68.0684 46.8688 67.86V64.7005C46.8688 63.1728 45.6189 61.9229 44.0912 61.9229Z" fill="#F49A98"/>
<path d="M67.9442 15.8489H45.6536C44.5194 15.7101 43.3505 15.6406 42.1469 15.6406C40.9664 15.6406 39.7974 15.7101 38.6401 15.8489L17.1134 16.3003L16.0023 36.6812H16.176C16.1065 37.0516 16.0486 37.4104 16.0023 37.7576C16.0023 37.7576 15.8982 42.7573 16.0023 44.4239C16.8356 56.9927 28.7448 66.5408 42.1469 66.5408C54.8198 66.5408 66.6942 58.1038 67.9442 46.403C68.7775 38.7992 67.9442 15.8489 67.9442 15.8489Z" fill="#F9D0BB"/>
<path d="M61.0347 50.4996C61.0347 52.4787 58.5695 54.0758 55.5489 54.0758C52.4935 54.0758 50.0283 52.4787 50.0283 50.4996C50.0283 48.5205 52.4935 46.8887 55.5489 46.8887C58.5695 46.8887 61.0347 48.5205 61.0347 50.4996Z" fill="#F49A98"/>
<path d="M32.2168 50.4996C32.2168 52.4787 29.7517 54.0758 26.731 54.0758C23.6756 54.0758 21.2104 52.4787 21.2104 50.4996C21.2104 48.5205 23.6756 46.8887 26.731 46.8887C29.7517 46.8887 32.2168 48.5205 32.2168 50.4996Z" fill="#F49A98"/>
<path d="M58.0142 41.715C58.0142 43.5899 57.1114 45.0829 56.0004 45.0829C54.8893 45.0829 53.9866 43.5899 53.9866 41.715C53.9866 39.8748 54.8893 38.3818 56.0004 38.3818C57.1114 38.3818 58.0142 39.8748 58.0142 41.715Z" fill="#560000"/>
<path d="M28.6407 41.715C28.6407 43.5899 27.738 45.0829 26.5922 45.0829C25.4811 45.0829 24.5784 43.5899 24.5784 41.715C24.5784 39.8748 25.4811 38.3818 26.5922 38.3818C27.738 38.3818 28.6407 39.8748 28.6407 41.715Z" fill="#560000"/>
<path d="M72.319 35.8126C71.8676 35.257 71.1732 35.1529 70.5135 35.3959C69.6455 35.7778 69.333 36.6806 69.1594 37.5486C69.0553 38.1735 68.9858 38.9721 69.5066 39.4235C69.7844 39.6665 70.0969 39.6665 70.4441 39.6665C70.7913 39.6665 71.1038 39.6665 71.4163 39.8401C72.0759 40.2221 72.0065 41.6109 70.9649 41.229C70.3399 40.9859 70.0622 41.9928 70.6871 42.2358C72.1107 42.7566 73.43 41.1595 72.7704 39.8054C72.4579 39.1457 71.7287 38.7291 70.9996 38.6249C70.4094 38.5555 70.0969 38.7638 70.1316 37.9652C70.1663 37.5139 70.7566 35.5695 71.5551 36.5417C72.0065 37.0625 72.7356 36.2986 72.319 35.8126Z" fill="#F47975"/>
<path d="M12.8428 36.0566C13.815 35.6747 14.7524 37.2371 14.3705 38.001C14.0928 38.5912 13.6414 38.3482 13.19 38.4524C12.7386 38.5912 12.3914 38.869 12.2178 39.3204C11.6623 40.8828 13.4678 41.6814 14.5094 42.3063C15.0996 42.6188 15.6205 41.7161 15.0649 41.4036C14.8219 41.2647 14.5788 41.1606 14.3358 41.0217C13.7803 40.6745 13.2595 40.5356 13.4678 39.8759C13.6761 39.2162 13.9886 39.5634 14.5788 39.3898C15.2385 39.1815 15.4121 38.6607 15.4121 38.001C15.3774 36.4733 14.44 34.3206 12.565 35.0498C11.9401 35.2581 12.2178 36.265 12.8428 36.0566Z" fill="#F47975"/>
<path d="M56.9727 42.9312C57.9796 43.2089 59.0559 42.8964 59.785 42.1326C60.2711 41.6465 59.5073 40.9174 59.0559 41.4035C58.5698 41.8896 57.9101 42.0979 57.2504 41.9243C56.5907 41.7507 56.313 42.7576 56.9727 42.9312Z" fill="#560000"/>
<path d="M56.8339 44.2845C57.7366 44.8401 58.8477 44.8053 59.7504 44.2845C60.3059 43.9373 59.7851 43.0346 59.2296 43.3818C58.6393 43.729 57.9449 43.729 57.3547 43.3818C56.7644 43.0693 56.2436 43.9373 56.8339 44.2845Z" fill="#560000"/>
<path d="M25.342 42.8609C24.3004 43.1386 23.2241 42.8608 22.4949 42.0623C22.0436 41.5762 22.7727 40.8471 23.2588 41.3332C23.7101 41.854 24.3698 42.0276 25.0642 41.854C25.6892 41.6804 25.967 42.6873 25.342 42.8609Z" fill="#560000"/>
<path d="M25.4809 44.2499C24.5781 44.7707 23.4671 44.7707 22.5643 44.2152C21.9741 43.868 22.4949 42.9653 23.0851 43.3125C23.6754 43.6597 24.3698 43.6944 24.9601 43.3472C25.5503 43 26.0711 43.9027 25.4809 44.2499Z" fill="#560000"/>
<path d="M39.0568 46.5065C38.9179 47.9995 37.3902 49.0758 35.932 48.7286C35.55 48.6244 35.1681 48.9716 35.2723 49.3536C35.8972 51.4368 38.0499 52.652 40.1679 52.1659C40.7928 51.9923 40.5151 50.9854 39.8901 51.159C38.3277 51.541 36.7652 50.6035 36.2792 49.0758C36.0708 49.3073 35.8625 49.5272 35.6542 49.7355C37.8069 50.2563 39.8901 48.6939 40.0984 46.5065C40.1679 45.8468 39.1262 45.8468 39.0568 46.5065Z" fill="#F47975"/>
<path d="M41.9039 50.4999C42.2164 50.4304 42.5636 50.4652 42.8066 50.6735C43.2927 51.1248 44.0566 50.361 43.5358 49.9443C42.9802 49.493 42.3205 49.3194 41.6261 49.493C41.0012 49.6666 41.2442 50.6735 41.9039 50.4999Z" fill="#F47975"/>
<path d="M55.4449 32.7922C57.0421 32.445 58.5698 33.0005 59.6461 34.2157C60.5141 35.2226 61.9724 33.7296 61.1044 32.7227C59.542 30.952 57.181 30.2576 54.8894 30.8131C53.57 31.0909 54.1256 33.1047 55.4449 32.7922Z" fill="#FF9A3E"/>
<path d="M28.7102 30.8131C26.4187 30.2576 24.0577 30.952 22.4952 32.7227C21.5925 33.7296 23.0508 35.2226 23.9535 34.2157C25.0298 33.0005 26.5575 32.445 28.1547 32.7922C29.4393 33.1047 29.9949 31.0909 28.7102 30.8131Z" fill="#FF9A3E"/>
<g style="mix-blend-mode:multiply" opacity="0.64">
<path d="M36.3833 50.5683C36.3139 49.7003 39.161 51.1239 40.2026 50.7766C41.2442 50.4294 44.126 49.2837 44.7162 51.0197C45.3065 52.7557 36.8347 55.6375 36.3833 50.5683Z" fill="#F49A98"/>
</g>
<path d="M35.6192 56.2648C36.6955 58.2092 38.4662 58.3828 40.5495 58.4522C42.7369 58.5564 44.8548 58.2092 46.3478 56.4731C46.7992 55.9523 46.07 55.2232 45.6187 55.7093C43.8132 57.8272 38.0496 58.4869 36.5219 55.744C36.1747 55.1538 35.3067 55.6746 35.6192 56.2648Z" fill="#CC6666"/>
<path d="M45.5144 55.7763C45.9658 55.9152 46.313 56.3666 46.3477 56.8179C46.4171 57.4776 47.4587 57.5123 47.3893 56.8179C47.3198 55.8805 46.7296 55.0819 45.7922 54.7694C45.1672 54.5611 44.8894 55.568 45.5144 55.7763Z" fill="#CC6666"/>
<path d="M63.3262 70.3613H19.0923C17.5646 70.3613 16.3147 71.6113 16.3147 73.139V83.4857C23.8143 88.8326 32.9458 91.9922 42.8064 91.9922C51.3129 91.9922 59.2639 89.6312 66.1039 85.6036V73.139C66.1039 71.6113 64.8539 70.3613 63.3262 70.3613Z" fill="#313F49"/>
<path d="M64.5415 86.4705V74.5267C64.5415 72.999 63.2915 71.749 61.7638 71.749H17.5299C17.2174 71.749 16.905 71.8185 16.6272 71.9226C16.4536 72.3046 16.3147 72.7212 16.3147 73.1378V83.4845C23.8143 88.8315 32.9458 91.9911 42.8064 91.9911C50.688 91.9911 58.0834 89.9773 64.5415 86.4705Z" fill="#495B66"/>
<path d="M44.5773 85.2902C44.5773 88.0331 42.3205 90.29 39.5776 90.29C36.8347 90.29 34.6125 88.0331 34.6125 85.2902C34.6125 82.5473 36.8347 80.3252 39.5776 80.3252C42.3205 80.3252 44.5773 82.5473 44.5773 85.2902Z" fill="white"/>
<path d="M72.3882 23.1403C72.3534 22.1682 72.2146 21.1613 71.8673 20.2933C71.8673 20.1544 71.8673 20.0271 71.8673 19.9113C72.1104 15.0505 57.7708 8.10638 53.3613 9.94656C49.3338 11.6479 44.1257 11.6131 39.8551 12.2381C36.8691 12.6895 33.9179 13.4533 30.9319 13.8353C27.4946 14.3213 24.0225 14.2866 20.5852 15.0505C18.7797 15.4671 16.9048 16.0574 15.6896 17.4462C14.3008 19.1128 14.1619 21.439 14.1272 23.5917C14.023 28.4179 14.1966 33.2787 14.5785 38.0702C16.0715 38.3826 18.0853 38.4521 18.6061 36.9938C18.9533 35.9522 18.1895 34.8759 17.4603 34.0079C20.8629 32.6538 22.8073 28.6609 22.3907 25.0153C22.7031 25.3972 23.0503 25.7791 23.5017 26.161C27.6682 29.6331 31.8346 26.6124 31.8346 26.6124C31.8346 26.6124 32.0777 34.2509 40.1675 34.4939C48.2574 34.737 48.9518 29.8761 48.9518 29.8761C48.9518 29.8761 51.9725 34.4939 56.382 33.1051C60.7568 31.7163 58.9166 28.2443 58.9166 28.2443C58.9166 28.2443 61.4512 31.2649 65.4093 30.5705C65.7913 30.5011 66.1732 30.3622 66.5551 30.1886C66.7287 31.5427 67.7009 32.7926 68.9855 33.1399C67.5967 33.9037 67.0065 35.8828 67.7356 37.3063C67.9092 37.5841 68.1175 37.8618 68.187 38.209C68.43 38.9382 68.1175 39.8756 68.7078 40.3617C69.1939 40.7089 69.8883 40.5006 70.2702 40.0492C70.6174 39.5631 70.7216 38.9729 70.8257 38.3826C71.0109 37.0864 71.2077 35.7786 71.416 34.4592C72.0062 30.7094 72.5618 26.9249 72.3882 23.1403Z" fill="#F2B297"/>
<path d="M72.3882 20.8144C72.3534 19.8422 72.2146 18.8353 71.8673 17.9673C71.8673 17.8516 71.8673 17.7243 71.8673 17.5854C72.1104 12.7245 57.7708 5.78043 53.3613 7.65534C49.3338 9.35664 44.1257 9.28719 39.8551 9.94688C36.8691 10.3635 33.9179 11.1274 30.9319 11.544C27.4946 11.9954 24.0225 11.9607 20.5852 12.7592C18.7797 13.1759 16.9048 13.7314 15.6896 15.155C14.3008 16.7868 14.1619 19.1131 14.1272 21.2658C14.023 26.1266 14.1966 30.9528 14.5785 35.7789C16.0715 36.0914 18.0853 36.1261 18.6061 34.7026C18.9533 33.6263 18.1895 32.5499 17.4603 31.7166C20.8629 30.3278 22.8073 26.3697 22.3907 22.6893C22.7031 23.1059 23.0503 23.4879 23.5017 23.8351C27.6682 27.3071 31.8346 24.3212 31.8346 24.3212C31.8346 24.3212 32.0777 31.9597 40.1675 32.168C48.2574 32.411 48.9518 27.5502 48.9518 27.5502C48.9518 27.5502 51.9725 32.168 56.382 30.7792C60.7568 29.3903 58.9166 25.9183 58.9166 25.9183C58.9166 25.9183 61.4512 28.939 65.4093 28.2446C65.7913 28.1751 66.1732 28.0363 66.5551 27.8974C66.7287 29.2167 67.7009 30.4667 68.9855 30.8139C67.5967 31.6125 67.0065 33.5568 67.7356 34.9803C67.9092 35.2928 68.1175 35.5706 68.187 35.8831C68.43 36.6122 68.1175 37.5497 68.7078 38.0358C69.1939 38.383 69.8883 38.1746 70.2702 37.7233C70.6174 37.2719 70.7216 36.6469 70.8257 36.0914C71.0109 34.772 71.2077 33.4527 71.416 32.1333C72.0062 28.3835 72.5618 24.5989 72.3882 20.8144Z" fill="#FFC23E"/>
<path d="M10.9328 37.0997C10.7939 38.5348 10.7592 39.9815 10.8287 41.4398C10.9328 43.0717 12.2175 44.6341 13.9535 44.5646C15.5854 44.4952 17.1825 43.1758 17.0784 41.4398C17.0089 39.9815 17.0436 38.5348 17.1825 37.0997C17.2867 35.4679 15.6201 33.9054 14.0577 33.9749C12.2175 34.0443 11.0717 35.329 10.9328 37.0997Z" fill="#240000"/>
<path d="M68.1868 37.0997C68.0942 38.4191 68.0016 39.7501 67.909 41.0926C67.8049 42.7245 69.4367 44.2869 71.0339 44.2174C72.8393 44.148 74.0546 42.8286 74.1587 41.0926C74.2513 39.7501 74.3439 38.4191 74.4365 37.0997C74.5406 35.4679 72.9088 33.9054 71.3116 33.9749C69.5409 34.0443 68.3257 35.329 68.1868 37.0997Z" fill="#240000"/>
<path d="M15.3076 35.7112C15.3076 34.9473 15.4465 34.2182 15.759 33.5585C15.8978 33.2113 16.1062 32.8641 16.3492 32.5863C16.4649 32.4474 16.5922 32.3085 16.7311 32.1697C17.0552 31.9382 16.87 31.8572 16.1756 31.9266C17.0089 32.9682 18.4671 31.51 17.6338 30.4684C16.627 29.1837 15.134 30.7114 14.5437 31.5447C13.641 32.7599 13.2244 34.2182 13.2244 35.7112C13.2244 37.0652 15.3076 37.0652 15.3076 35.7112Z" fill="#240000"/>
<path d="M67.8398 31.9267C69.4717 32.4822 69.7841 34.5654 70.0619 36.0237C70.305 37.3431 72.3188 36.7875 72.0757 35.4681C71.6244 33.1419 70.8605 30.7462 68.3953 29.9129C67.1107 29.4962 66.5552 31.51 67.8398 31.9267Z" fill="#240000"/>
<path d="M39.473 64.1813C40.9776 64.1813 42.4821 64.1813 43.9867 64.1813C45.6185 64.1813 47.181 62.7578 47.1115 61.0565C47.0421 59.3552 45.7227 57.9316 43.9867 57.9316C42.4821 57.9316 40.9776 57.9316 39.473 57.9316C37.8412 57.9316 36.2787 59.3552 36.3482 61.0565C36.4176 62.7578 37.737 64.1813 39.473 64.1813Z" fill="#240000"/>
<path d="M45.8964 62.2373C52.4239 62.5845 59.4027 61.2304 64.8885 57.55C69.9577 54.1127 70.9299 48.9393 71.2077 43.1757C71.2771 41.8216 69.1939 41.8216 69.1244 43.1757C68.8467 49.1477 67.5967 53.8002 62.0415 56.8209C57.0764 59.4944 51.4517 60.4318 45.8964 60.1541C44.5423 60.0846 44.5423 62.1678 45.8964 62.2373Z" fill="#240000"/>
<path d="M27.1825 15.0848C24.7868 20.0498 30.3768 24.494 34.6821 21.0567C34.3812 20.9178 34.0803 20.7905 33.7794 20.6748C33.3975 24.7024 37.6334 25.6398 40.654 24.4246C41.279 24.1815 41.0012 23.1747 40.3763 23.4177C38.0847 24.3204 34.5085 24.008 34.821 20.6748C34.8557 20.1887 34.2308 20.0498 33.9183 20.3276C30.5504 23.0011 26.2103 19.4596 28.0852 15.6403C28.363 15.0153 27.4602 14.4945 27.1825 15.0848Z" fill="#FFD23E"/>
<path d="M50.5839 10.884C50.5839 10.6525 50.5723 10.4095 50.5491 10.1548C50.5491 9.84236 50.2366 9.5646 49.8894 9.66876C44.9939 11.1617 46.0702 21.8209 51.0352 18.9044C50.8269 18.6266 50.6186 18.3605 50.4102 18.1058C48.9867 19.5641 49.2992 21.8557 51.0699 22.8973C53.674 24.4597 56.5211 22.4806 58.4654 20.8488C58.9515 20.3974 58.2224 19.6683 57.7016 20.1196C56.7641 20.9182 55.7225 21.7862 54.5073 22.1681C54.1138 22.2376 53.7087 22.307 53.292 22.3765C51.2088 22.4691 50.4913 21.2885 51.1394 18.835C51.556 18.4183 51.0352 17.7239 50.5144 18.0017C47.1118 20.0155 47.6673 14.6685 47.9104 13.6963C48.1881 12.4117 48.7437 11.0923 50.1672 10.6757C49.9589 10.4905 49.739 10.3169 49.5075 10.1548C49.5307 10.4095 49.5422 10.6525 49.5422 10.884C49.577 11.5437 50.6186 11.5437 50.5839 10.884Z" fill="#FFD23E"/>
<path d="M9.92642 17.5153C5.8294 19.4597 8.12095 25.4316 12.461 24.2511C12.2527 24.0196 12.0444 23.7997 11.836 23.5914C11.4541 25.883 13.3985 27.6537 15.6206 26.751C16.2455 26.5079 15.9678 25.501 15.3428 25.7441C13.9887 26.2996 12.5652 25.501 12.8082 23.8692C12.8777 23.4873 12.5999 23.1053 12.1833 23.2442C8.98897 24.1122 7.46127 19.8416 10.4472 18.4181C11.0722 18.1403 10.5167 17.2376 9.92642 17.5153Z" fill="#FFD23E"/>
<path d="M11.0723 49.3198C7.80857 52.514 10.239 57.9999 14.8221 57.6527C15.4818 57.5832 15.4818 56.5416 14.8221 56.6111C11.1417 56.8888 9.16268 52.6529 11.8362 50.0489C12.3222 49.5975 11.5584 48.8684 11.0723 49.3198Z" fill="#FFD23E"/>
<path d="M5.76006 34.9102C4.47541 34.1464 3.6421 36.056 3.57266 37.0976C3.50322 38.7642 4.71844 40.0141 6.38503 40.1183C6.223 39.8405 6.07255 39.5743 5.93367 39.3197C3.81572 42.2015 6.62807 45.9166 9.96123 44.5972C10.5862 44.3542 10.3084 43.3473 9.68347 43.5903C7.21832 44.5625 5.23925 42.0279 6.83639 39.8405C7.07943 39.4933 6.73223 39.0767 6.38503 39.0767C5.34341 39.0535 4.84576 38.5674 4.89205 37.6184C4.5217 36.924 4.63743 36.3222 5.23926 35.8129C5.79478 36.1601 6.35031 35.2574 5.76006 34.9102Z" fill="#FFD23E"/>
<path d="M75.7563 31.8897C77.4229 33.3132 79.7492 36.9936 77.284 38.9379C76.9368 39.2157 77.1799 39.6671 77.4923 39.8059C79.3325 40.5351 80.6519 43.8682 78.2562 44.8404C77.6312 45.1182 77.909 46.1251 78.534 45.8473C82.2838 44.3196 80.9644 40.0837 77.7701 38.799C77.8627 39.0768 77.9437 39.3661 78.0132 39.6671C80.8255 37.4449 78.6728 33.0007 76.4854 31.1605C75.9646 30.7439 75.2355 31.473 75.7563 31.8897Z" fill="#FFD23E"/>
<path d="M69.6454 15.7447C70.9995 15.1892 71.937 16.5433 72.0411 17.7238C72.1106 18.4876 71.8675 19.2515 71.6939 19.9459C71.6245 20.2584 71.8675 20.6403 72.2147 20.6056C72.5967 20.6056 73.0828 20.5014 73.4647 20.6056C74.0897 20.5593 74.3327 20.9528 74.1938 21.7861C74.6799 22.411 74.703 22.9666 74.2633 23.4526C73.9161 24.0429 74.8188 24.5637 75.166 23.9735C75.7562 22.8971 76.4159 21.5083 75.4785 20.3972C74.6799 19.4945 73.3258 19.4945 72.2147 19.5639C72.3768 19.7954 72.5388 20.0153 72.7008 20.2236C73.048 18.6959 73.43 16.8905 72.3189 15.5364C71.5898 14.6684 70.444 14.2864 69.3677 14.7378C68.7427 14.9808 69.0205 15.9877 69.6454 15.7447Z" fill="#FFD23E"/>
<path d="M38.8832 7.55144C40.7234 5.78069 43.2928 6.09317 45.619 6.4751C46.244 6.57926 46.5565 5.57237 45.8621 5.46821C43.1886 5.05156 40.2721 4.73908 38.1541 6.8223C37.668 7.30839 38.4319 8.03752 38.8832 7.55144Z" fill="#FFD23E"/>
<path d="M59.7502 5.64084C63.257 4.59923 64.7847 8.80041 65.5138 11.4044C65.6874 12.0294 66.6943 11.7517 66.5207 11.1267C65.618 7.9324 63.6389 3.38401 59.4724 4.63395C58.8127 4.84227 59.0905 5.84917 59.7502 5.64084Z" fill="#FFD23E"/>
<path d="M66.6597 60.847C67.9791 61.5414 69.5763 62.2358 70.8262 61.1247C72.1803 59.9442 72.1803 57.5138 72.1109 55.8819C71.7868 55.9282 71.4512 55.9745 71.104 56.0208C71.5553 58.5207 74.3677 58.2777 75.8607 56.8888C77.1453 55.6736 78.2564 52.7918 75.6176 52.5141C74.9232 52.4446 74.9579 53.4862 75.6176 53.5557C76.2889 54.5047 76.1963 55.3033 75.3399 55.9514C74.4603 57.0856 73.3839 57.0161 72.1109 55.7431C72.0067 55.1875 71.0692 55.3264 71.0692 55.8819C71.1387 56.9235 71.104 57.9652 70.8262 58.9374C70.3054 60.9164 68.6388 60.7081 67.2153 59.9442C66.5903 59.6318 66.0695 60.5345 66.6597 60.847Z" fill="#FFD23E"/>
</svg>
