<svg width="92" height="99" viewBox="0 0 92 99" fill="none" xmlns="http://www.w3.org/2000/svg">
<path d="M91.3496 52.8215C91.3496 78.0633 70.8992 98.5137 45.6574 98.5137C20.4504 98.5137 0 78.0633 0 52.8215C0 27.6144 20.4504 7.16406 45.6574 7.16406C70.8992 7.16406 91.3496 27.6144 91.3496 52.8215Z" fill="#3D003D"/>
<path d="M86.836 25.948C84.9264 25.1841 83.1903 24.1078 81.6626 22.6842C81.3617 22.3833 81.0608 22.0824 80.7599 21.7815C81.57 22.2445 82.4265 22.638 83.3292 22.962C84.5792 23.4134 85.1347 21.3996 83.8847 20.9482C82.3223 20.3927 80.8988 19.5247 79.6489 18.4484C79.1975 18.0317 78.6767 18.1359 78.2948 18.4136C78.2716 18.3442 78.26 18.3095 78.26 18.3095C78.642 17.4415 77.8434 16.6776 77.1837 16.7123C77.0448 16.504 76.9407 16.3651 76.8365 16.3998C68.6772 18.1359 79.2669 39.6626 79.2669 39.6626L82.0446 35.6697C82.0446 35.6697 82.3918 31.6769 82.3918 30.9825C82.3918 30.288 86.0374 30.288 86.0374 30.288C83.5028 29.5589 81.6626 26.9896 80.3085 24.2467C82.0446 25.8438 84.0931 27.0938 86.2805 27.9618C87.5304 28.4479 88.0859 26.4341 86.836 25.948Z" fill="#B00000"/>
<g style="mix-blend-mode:multiply" opacity="0.56">
<path d="M81.107 23.7265C79.5446 23.171 78.1211 22.303 76.8711 21.2267C76.4198 20.81 75.899 20.9142 75.517 21.192C75.4939 21.1225 75.4823 21.0878 75.4823 21.0878C75.8642 20.2198 75.0657 19.4559 74.406 19.4907C74.2671 19.2823 74.1629 19.1434 74.0588 19.1782C74.0588 19.1782 74.0472 19.1782 74.0241 19.1782C72.4964 24.5946 77.5308 35.9829 78.9196 38.9341L79.2669 38.448C79.2669 38.448 79.6141 34.4552 79.6141 33.7608C79.6141 33.3094 81.1765 33.1358 82.2528 33.1011C82.276 32.9622 82.2875 32.8233 82.2875 32.6844C80.239 31.6428 78.7113 29.4207 77.5308 27.025C79.1627 28.5527 81.0376 29.6985 83.1208 30.5318C83.5375 30.4276 84.093 30.3929 84.6138 30.3582C84.718 30.1498 84.7527 29.9415 84.7527 29.7332C84.093 29.3513 83.468 28.8305 82.8778 28.1708C81.4195 27.4764 80.0654 26.5736 78.8849 25.4626C78.584 25.1617 78.2831 24.8608 77.9822 24.5598C78.7923 25.0228 79.6488 25.4163 80.5515 25.7403C80.7598 25.8098 80.9682 25.8098 81.1418 25.7751C80.8408 25.289 80.5631 24.7797 80.3085 24.2474C80.7251 24.6408 81.1649 25.0112 81.6278 25.3584C81.975 24.8376 81.8709 24.0043 81.107 23.7265Z" fill="#B00000"/>
</g>
<path d="M81.767 14.9764C79.406 20.3233 73.1216 22.7884 67.7399 20.4275C62.3235 18.0317 59.8584 11.7473 62.2194 6.40039C64.5803 1.01872 70.8648 -1.44644 76.2812 0.949272C81.6628 3.31027 84.128 9.59468 81.767 14.9764Z" fill="#CF0000"/>
<path d="M72.4616 8.58766C68.6423 6.88636 64.3717 7.65022 61.351 10.1154C61.1427 14.4207 63.5731 18.5872 67.7396 20.4273C71.5588 22.0939 75.8295 21.3301 78.8501 18.8649C79.0237 14.5596 76.628 10.3931 72.4616 8.58766Z" fill="#B00000"/>
<path d="M9.23584 32.0934C10.2775 33.4823 26.5961 50.8425 26.5961 50.8425L27.6377 49.1065L9.93025 30.3574L9.23584 32.0934Z" fill="#FFC23E"/>
<path d="M8.43701 32.5443C9.47863 33.7595 13.1937 37.4052 13.1937 37.4052L14.9297 35.3219L10.4161 30.7041L8.43701 32.5443Z" fill="white"/>
<path d="M2.29175 23.4131C2.29175 23.4131 3.4028 35.1486 9.23585 32.0932C16.5271 28.274 2.29175 23.4131 2.29175 23.4131Z" fill="#AE0000"/>
<path d="M5.17355 31.5377C5.65963 31.5029 6.21516 31.3641 6.80541 31.0516C11.6316 28.517 7.01373 25.531 3.36808 23.795C2.70839 23.552 2.29175 23.4131 2.29175 23.4131C2.29175 23.4131 2.84727 29.1072 5.17355 31.5377Z" fill="#CF0000"/>
<path d="M4.7915 30.8778C4.75678 30.2876 4.47902 29.732 4.44429 29.1765C4.23597 26.8502 6.07616 28.864 6.97889 28.5168C6.73585 27.8919 6.90945 27.1627 7.43026 26.7461C7.46498 26.6766 7.53442 26.6419 7.60386 26.5378C7.77746 26.2253 7.39554 25.9128 7.08305 25.7392C5.72895 25.0795 4.47902 24.2462 3.33324 23.2393C3.12492 23.1004 2.88187 22.9268 2.67355 22.9963C2.56939 23.0657 2.49995 23.1699 2.43051 23.274C1.9097 24.0726 2.11802 24.9406 2.43051 25.8086C2.60411 26.3294 2.91659 26.8155 3.0902 27.3711C3.4374 28.6557 2.63883 30.2876 3.05548 31.5028C3.47212 32.6833 4.82622 32.0236 4.7915 30.8778Z" fill="#FFC23E"/>
<path d="M45.4145 98.062C53.7127 98.062 61.4554 95.8398 68.1564 91.9859C64.3025 82.7155 55.171 76.1533 44.4771 76.1533C34.1651 76.1533 25.2419 82.2989 21.2144 91.1179C28.2279 95.4926 36.5261 98.062 45.4145 98.062Z" fill="#9EC43E"/>
<path d="M32.915 96.3271C36.9079 97.4382 41.0744 98.0632 45.4144 98.0632C49.7545 98.0632 53.9557 97.4382 57.9138 96.3271C49.5809 96.3271 41.248 96.3271 32.915 96.3271Z" fill="#CF0000"/>
<path d="M62.9482 84.0361C50.634 84.0361 38.3314 84.0361 26.0403 84.0361C25.3922 84.7074 24.7904 85.4018 24.2349 86.1194C37.7296 86.1194 51.2243 86.1194 64.719 86.1194C64.1634 85.4018 63.5732 84.7074 62.9482 84.0361Z" fill="#CF0000"/>
<path d="M67.2537 90.0781C52.0693 90.0781 36.8964 90.0781 21.7352 90.0781C21.5616 90.4253 21.388 90.7725 21.2144 91.1197C21.793 91.4669 22.3833 91.8141 22.9851 92.1614C37.9381 92.1614 52.9026 92.1614 67.8787 92.1614C67.9713 92.1151 68.0639 92.0572 68.1564 91.9878C67.8787 91.3396 67.5778 90.7031 67.2537 90.0781Z" fill="#CF0000"/>
<path d="M36.1094 77.5781C34.5354 78.1105 33.0308 78.8049 31.5957 79.6614C40.2064 79.6614 48.8055 79.6614 57.393 79.6614C55.9695 78.7933 54.4418 78.1337 52.8446 77.5781C47.2662 77.5781 41.6878 77.5781 36.1094 77.5781Z" fill="#CF0000"/>
<path d="M29.1306 81.2588C28.2973 81.9069 27.4987 82.6013 26.7349 83.342C38.563 83.342 50.4027 83.342 62.2539 83.342C61.4901 82.6013 60.6799 81.9069 59.8235 81.2588C49.5925 81.2588 39.3615 81.2588 29.1306 81.2588Z" fill="#FFC23E"/>
<path d="M23.5753 87.0566C23.0892 87.7279 22.6378 88.4223 22.2212 89.1399C37.0584 89.1399 51.8956 89.1399 66.7329 89.1399C66.3162 88.4107 65.8996 87.7163 65.4482 87.0566C51.4906 87.0566 37.5329 87.0566 23.5753 87.0566Z" fill="#FFC23E"/>
<path d="M60.7956 95.3899C62.4854 94.788 64.1172 94.0936 65.6912 93.3066C52.1734 93.3066 38.6555 93.3066 25.1377 93.3066C26.7348 94.0936 28.3667 94.788 30.0333 95.3899C40.2874 95.3899 50.5415 95.3899 60.7956 95.3899Z" fill="#FFC23E"/>
<path d="M19.374 39.6975C19.374 39.6975 14.6867 35.8782 12.9507 41.9543C11.2147 48.0304 18.6796 53.2384 20.0684 52.8912L19.374 39.6975Z" fill="#F2B297"/>
<path d="M70.5174 39.6975C70.5174 39.6975 75.2047 35.8782 76.9407 41.9543C78.6767 48.0304 71.2118 53.2384 69.823 52.8912L70.5174 39.6975Z" fill="#F2B297"/>
<path d="M40.3799 79.9727L44.4422 92.3332L49.06 80.3199L40.3799 79.9727Z" fill="#F9D0BB"/>
<path d="M46.6645 81.4666H42.7063C41.1786 81.4666 39.9287 80.2166 39.9287 78.6889V70.8421C39.9287 69.2797 41.1786 68.0645 42.7063 68.0645H46.6645C48.1922 68.0645 49.4421 69.2797 49.4421 70.8421V78.6889C49.4421 80.2166 48.1922 81.4666 46.6645 81.4666Z" fill="#F9D0BB"/>
<path d="M46.6645 68.0645H42.7063C41.1786 68.0645 39.9287 69.2797 39.9287 70.8421V73.7933C41.63 74.1405 43.4008 74.3141 45.1715 74.3141C46.6066 74.291 48.0302 74.1753 49.4421 73.9669V70.8421C49.4421 69.2797 48.1922 68.0645 46.6645 68.0645Z" fill="#F2B297"/>
<path d="M70.5175 21.9901H48.2269C47.0696 21.8281 45.8891 21.7471 44.6854 21.7471C43.5049 21.7471 42.336 21.8281 41.1787 21.9901H18.5409V42.8224H18.7145C18.6451 43.1696 18.5872 43.5168 18.5409 43.864C18.5409 43.864 18.4368 48.8638 18.5409 50.5303C19.3742 63.0992 31.2833 72.682 44.6854 72.682C57.3931 72.682 69.2328 64.2449 70.5175 52.5094C71.3161 44.9403 70.5175 21.9901 70.5175 21.9901Z" fill="#F9D0BB"/>
<path d="M42.0118 45.0436C42.0118 47.7518 42.0118 50.4484 42.0118 53.1335C42.3358 53.064 42.6599 52.983 42.9839 52.8904C41.6298 50.5294 38.6786 51.7446 38.8175 54.3487C39.0258 57.2305 42.2201 58.4804 44.4422 56.8833C44.9977 56.4666 44.4769 55.5639 43.9214 55.9805C43.1807 56.6518 42.2548 56.7675 41.1438 56.3278C40.2757 55.9805 39.8591 55.1472 40.1716 54.2792C40.5882 53.064 41.1438 52.9599 42.1506 53.2724C42.602 53.4112 42.3937 53.932 42.9839 53.3765C43.3311 53.0293 43.0534 51.1197 43.0534 50.6336C43.0534 48.7818 43.0534 46.9185 43.0534 45.0436C43.0534 44.3839 42.0118 44.3839 42.0118 45.0436Z" fill="#CC6666"/>
<path d="M63.5732 56.6065C63.5732 58.5855 61.1081 60.2174 58.0874 60.2174C55.0667 60.2174 52.6016 58.5855 52.6016 56.6065C52.6016 54.6274 55.0667 53.0303 58.0874 53.0303C61.1081 53.0303 63.5732 54.6274 63.5732 56.6065Z" fill="#F2B297"/>
<path d="M34.7554 56.6065C34.7554 58.5855 32.2902 60.2174 29.2695 60.2174C26.2488 60.2174 23.7837 58.5855 23.7837 56.6065C23.7837 54.6274 26.2488 53.0303 29.2695 53.0303C32.2902 53.0303 34.7554 54.6274 34.7554 56.6065Z" fill="#F2B297"/>
<path d="M60.5872 47.8571C60.5872 49.6973 59.6845 51.1903 58.5387 51.1903C57.4276 51.1903 56.5249 49.6973 56.5249 47.8571C56.5249 45.9822 57.4276 44.4893 58.5387 44.4893C59.6845 44.4893 60.5872 45.9822 60.5872 47.8571Z" fill="#560000"/>
<path d="M31.179 47.8571C31.179 49.6973 30.2763 51.1903 29.1652 51.1903C28.0194 51.1903 27.1167 49.6973 27.1167 47.8571C27.1167 45.9822 28.0194 44.4893 29.1652 44.4893C30.2763 44.4893 31.179 45.9822 31.179 47.8571Z" fill="#560000"/>
<path d="M44.7549 55.4605C45.1368 55.5994 45.4493 55.8771 45.6576 56.1896C46.0048 56.7451 46.9075 56.2243 46.5603 55.6688C46.1784 55.0785 45.6576 54.6966 45.0326 54.4536C44.4077 54.2105 44.1299 55.2174 44.7549 55.4605Z" fill="#CC6666"/>
<g style="mix-blend-mode:multiply" opacity="0.75">
<path d="M40.0329 55.3215C40.0329 55.3215 40.9703 56.3631 43.2619 55.5298C45.5882 54.7313 47.22 54.6271 47.5672 56.0159C47.9144 57.4047 44.7896 59.2449 42.4633 59.2449C41.1787 59.2449 38.0538 56.8145 40.0329 55.3215Z" fill="#F2B297"/>
</g>
<path fill-rule="evenodd" clip-rule="evenodd" d="M56.8723 40.1831C54.2683 40.808 53.1572 36.7805 55.7613 36.1555C58.782 35.4264 61.9415 36.2944 64.0595 38.5512C65.8997 40.5303 62.9484 43.4815 61.143 41.5024C59.9972 40.3219 58.4695 39.7664 56.8723 40.1831ZM24.2004 38.7595C26.4225 36.7805 29.4084 36.0166 32.2902 36.8846C34.8595 37.6485 33.7485 41.676 31.1792 40.9122C29.7556 40.4608 28.2627 40.7039 27.1516 41.7108C25.1378 43.5162 22.1866 40.565 24.2004 38.7595Z" fill="#860000"/>
<path d="M60.4485 39.42C61.6984 40.8088 63.5039 39.8019 63.8858 38.3784C61.7679 36.2605 58.6778 35.4272 55.7612 36.1563C54.8932 36.3646 54.4419 36.9549 54.303 37.6145C54.7543 38.0659 55.414 38.2742 56.1779 38.1006C57.775 37.684 59.3027 38.2395 60.4485 39.42Z" fill="#CF0000"/>
<path d="M32.9846 37.233C32.811 37.0941 32.568 36.9552 32.2902 36.8858C29.4084 36.0178 26.4225 36.7816 24.2004 38.7607C23.8879 39.0385 23.7143 39.351 23.6101 39.6287C24.374 40.2537 25.5197 40.462 26.4572 39.6287C27.5682 38.6218 29.0612 38.3788 30.4848 38.8301C31.8389 39.2121 32.7763 38.3093 32.9846 37.233Z" fill="#CF0000"/>
<path d="M74.8574 41.9186C74.406 41.3978 73.7116 41.2589 73.0519 41.5367C72.1839 41.8839 71.8714 42.8213 71.7326 43.6546C71.5937 44.2796 71.5242 45.0782 72.0451 45.5295C72.3575 45.7726 72.6353 45.7726 72.9825 45.8073C73.3297 45.8073 73.6422 45.7726 73.9547 45.9462C74.6144 46.3628 74.5449 47.7516 73.5033 47.335C72.8783 47.1267 72.6006 48.1336 73.2255 48.3419C74.6491 48.8974 76.0032 47.3003 75.3435 45.9462C74.9963 45.2865 74.3019 44.8351 73.538 44.7657C72.9478 44.6962 72.6353 44.8698 72.7047 44.106C72.7047 43.6199 73.295 41.7103 74.1283 42.6825C74.5449 43.1685 75.274 42.4394 74.8574 41.9186Z" fill="#CC6666"/>
<path d="M15.3813 42.1632C16.3535 41.816 17.2909 43.3784 16.909 44.1422C16.6313 44.7325 16.2146 44.4547 15.7285 44.5936C15.3119 44.6978 14.9299 44.9755 14.7563 45.4269C14.2008 47.024 16.0063 47.8226 17.0826 48.4129C17.6381 48.7601 18.1937 47.8573 17.6034 47.5101C17.3604 47.3712 17.1173 47.2671 16.8743 47.1282C16.3188 46.8157 15.798 46.6768 16.0063 46.0171C16.2493 45.3227 16.5618 45.6699 17.1173 45.5311C17.777 45.3227 17.9506 44.7672 17.9506 44.1422C17.9506 42.5798 16.9785 40.4619 15.1035 41.1563C14.4786 41.3993 14.7563 42.4062 15.3813 42.1632Z" fill="#CC6666"/>
<path d="M70.5173 21.9901H48.2268C47.0694 21.8281 45.8889 21.7471 44.6853 21.7471C43.5048 21.7471 42.3359 21.8281 41.1785 21.9901H18.5408V42.8224H18.7144C18.6449 43.1696 18.5871 43.5168 18.5408 43.864V43.8987C18.6449 44.4543 18.7838 45.0098 18.9921 45.5306C20.3462 41.1211 19.9296 36.2255 20.0685 31.6771C20.1032 31.191 20.1726 30.7049 20.3115 30.2189C21.1795 27.1287 24.2696 23.7956 27.6028 25.1844C31.7693 26.9204 36.2829 32.4757 43.0534 32.8229C49.8239 33.1701 52.9488 32.1285 57.636 29.3508C60.865 27.4412 66.5592 25.4621 68.8855 29.8022C70.4132 32.6493 70.9687 35.9477 70.4479 39.142C70.066 41.5377 69.1285 44.1418 70.3437 46.2597C70.4132 45.7389 70.5868 45.2528 70.8645 44.8362C70.9687 35.1492 70.5173 21.9901 70.5173 21.9901Z" fill="#F2B297"/>
<path d="M76.9058 22.4062C76.1072 19.6633 74.5448 17.2329 72.8435 14.976C71.1075 12.6845 69.1631 11.747 66.4897 10.636C61.5594 8.55273 56.2124 7.09446 50.8654 6.78198C44.6158 6.43477 38.2272 7.47639 32.3247 9.38601C27.9152 10.7748 23.4363 12.6845 20.1031 15.9482C16.7005 19.3161 14.8603 24.4894 14.4089 29.2114C14.2353 31.2599 14.2701 33.3084 15.0339 35.2528C15.8672 37.336 17.4296 38.6207 17.881 40.8775C18.205 40.8312 18.506 40.7155 18.7837 40.5303C18.7837 41.5372 18.9573 42.5441 19.3392 43.4468C20.6933 39.0373 20.2767 34.1417 20.4156 29.5933C20.4503 29.1073 20.5197 28.6212 20.6586 28.1351C21.5266 25.045 24.6168 21.7118 27.9499 23.1006C32.1164 24.8366 36.63 30.3919 43.4005 30.7391C50.171 31.0863 53.2959 30.0447 57.9831 27.2671C61.2122 25.3574 66.9063 23.3784 69.2326 27.7184C70.7603 30.5655 71.3158 33.864 70.795 37.0582C70.4131 39.454 69.4756 42.058 70.6908 44.1759C70.8297 43.2732 71.2464 42.4399 71.8713 41.815C72.0102 41.6761 72.1491 41.5719 72.3227 41.5719C72.6699 41.5372 72.9477 42.0233 73.2949 41.9191C73.4338 41.8497 73.5032 41.7455 73.5726 41.6414C74.9615 39.5581 76.1072 37.7527 76.9058 35.3917C77.4613 33.5862 77.6002 31.6766 77.6349 29.7669C77.7044 27.3018 77.6002 24.7672 76.9058 22.4062Z" fill="#CF0000"/>
<path d="M68.2605 26.434C68.6424 26.7812 68.9549 27.1978 69.2327 27.7186C70.7604 30.5657 71.3159 33.8641 70.7951 37.0584C70.4132 39.4541 69.4757 42.0582 70.6909 44.1761C70.8298 43.2734 71.2465 42.4401 71.8714 41.8151C72.0103 41.6762 72.1492 41.5721 72.3228 41.5721C72.67 41.5374 72.9478 42.0234 73.295 41.9193C73.4338 41.8498 73.5033 41.7457 73.5727 41.6415C74.9616 39.5583 76.1073 37.7528 76.9059 35.3918C77.4614 33.5864 77.6003 31.6767 77.635 29.7671C77.6697 28.0311 77.635 26.2951 77.392 24.5938C76.4545 25.8437 75.3782 26.9895 74.2324 27.5797C71.9409 28.7255 69.5104 27.1978 68.2605 26.434Z" fill="#860000"/>
<path d="M20.6586 28.1354C21.0405 26.8507 21.7697 25.5313 22.7419 24.5244C21.7697 24.6633 17.5685 26.5035 15.9714 22.5801C15.1381 24.7327 14.6173 27.0243 14.4089 29.2117C14.2353 31.2602 14.2701 33.3087 15.0339 35.2531C15.8672 37.3363 17.4296 38.6209 17.881 40.8778C18.205 40.8315 18.506 40.7157 18.7837 40.5306C18.7837 41.5375 18.9573 42.5444 19.3392 43.4471C20.6933 39.0376 20.2767 34.142 20.4156 29.5936C20.4503 29.1075 20.5197 28.6214 20.6586 28.1354Z" fill="#860000"/>
<path d="M70.5869 47.2313C71.2466 46.8494 71.8021 46.2591 72.1146 45.5647C72.3229 45.0439 72.2534 44.4537 71.7326 44.1412C71.2813 43.8634 70.5174 44.0023 70.3091 44.5231C70.2397 44.6388 70.1702 44.7661 70.1008 44.905C70.1008 44.9397 69.9272 45.1481 69.9966 45.0439C69.9272 45.1133 69.8577 45.1944 69.7883 45.2869C69.6957 45.3564 69.6726 45.368 69.7189 45.3217C69.6726 45.368 69.6147 45.4027 69.5453 45.4258C69.0592 45.7383 68.8856 46.3633 69.1633 46.8494C69.4411 47.3355 70.1355 47.5438 70.5869 47.2313Z" fill="#CF0000"/>
<path d="M71.1771 49.6273C71.5243 49.2801 71.8599 48.9214 72.184 48.551C72.5659 48.1344 72.6006 47.4747 72.184 47.0928C71.802 46.6761 71.1076 46.6761 70.7257 47.0928C70.3785 47.44 70.0429 47.7987 69.7188 48.1691C69.3369 48.5857 69.3021 49.2107 69.7188 49.6273C70.1007 50.0093 70.7951 50.044 71.1771 49.6273Z" fill="#CF0000"/>
<path d="M70.7951 52.8557C70.8298 52.8209 71.0729 52.5432 70.9687 52.6474C71.0034 52.6126 71.3159 52.4737 71.1423 52.5432C71.6979 52.3349 72.0451 51.8141 71.8715 51.2585C71.7326 50.7377 71.1423 50.3211 70.5868 50.5294C70.1007 50.703 69.6493 50.946 69.3369 51.3627C68.9897 51.8141 68.8855 52.4043 69.3369 52.8557C69.6841 53.2029 70.4479 53.2723 70.7951 52.8557Z" fill="#CF0000"/>
<path d="M16.9088 42.6829C16.7352 43.8981 17.1865 44.9397 18.1587 45.7036C18.6101 46.0161 19.3392 45.773 19.5822 45.3216C19.8947 44.8008 19.6864 44.2453 19.2003 43.8981C19.3739 44.037 19.0267 43.6551 19.1309 43.8287C19.0962 43.7939 18.992 43.5509 18.992 43.5856C19.0267 43.6203 18.9573 43.3426 18.9226 43.3079C18.9573 43.5509 18.9573 42.9954 18.9226 43.2384C18.992 42.6829 18.7837 42.0926 18.1934 41.9537C17.7073 41.8149 17.0129 42.1274 16.9088 42.6829Z" fill="#CF0000"/>
<path d="M16.9437 47.1967C17.2677 47.8217 17.5918 48.4351 17.9158 49.0369C18.1589 49.523 18.8533 49.6966 19.3394 49.4188C19.8255 49.1064 19.9643 48.4814 19.7213 47.9953C19.3972 47.3703 19.0732 46.7569 18.7491 46.1551C18.4714 45.669 17.777 45.4954 17.3256 45.7732C16.8048 46.0857 16.6659 46.7106 16.9437 47.1967Z" fill="#CF0000"/>
<path d="M16.4576 50.3557C16.9436 51.0964 17.557 51.6982 18.2977 52.1612C18.7491 52.4737 19.4435 52.2653 19.7213 51.814C19.999 51.2932 19.7907 50.6682 19.3394 50.3557C18.9227 50.1127 18.5408 49.696 18.263 49.3141C17.9505 48.828 17.3256 48.6197 16.8395 48.9322C16.3534 49.2099 16.1451 49.8696 16.4576 50.3557Z" fill="#CF0000"/>
<path d="M50.1364 58.2724C50.9697 58.4807 51.8377 59.4529 52.0113 60.2862C52.1154 60.9806 53.1918 60.7029 53.0529 59.9737C52.8793 58.7932 51.5946 57.4738 50.4141 57.2308C49.7197 57.0572 49.442 58.1335 50.1364 58.2724Z" fill="#F47975"/>
<path d="M38.2618 60.6345C38.0882 60.5303 37.3591 65.9814 44.2685 65.8078C49.3724 65.6689 49.9279 60.5303 49.9279 60.5303C49.9279 60.5303 43.8171 64.0371 38.2618 60.6345Z" fill="#560000"/>
<path d="M38.2617 60.6338C38.2617 60.6338 39.1992 63.2031 41.8727 63.6892C44.5461 64.1406 48.0876 63.7586 49.1987 60.7379C49.1987 60.7379 42.2546 63.4114 38.2617 60.6338Z" fill="white"/>
<path d="M48.6779 61.7448C48.8862 61.4439 49.0598 61.1083 49.1987 60.7379C49.1987 60.7379 42.2546 63.4114 38.2617 60.6338C38.2617 60.6338 38.2964 60.7032 38.3659 60.8421C38.9561 61.606 40.0672 62.5781 41.8032 62.8559C44.0948 63.2031 46.8724 63.0642 48.6779 61.7448Z" fill="#DBDBDB"/>
<path d="M36.6993 59.9744C38.9908 61.9187 41.8726 62.4395 44.8239 62.2659C47.4279 62.127 50.1361 61.7104 51.6291 59.3494C52.011 58.7592 51.0736 58.2036 50.6916 58.7939C49.3028 60.9465 46.4905 61.1201 44.1642 61.1896C41.7338 61.2243 39.3728 60.7729 37.4631 59.1758C36.9423 58.7244 36.1438 59.4883 36.6993 59.9744Z" fill="#F47975"/>
<path d="M40.6924 65.2174C41.5604 65.5993 42.7409 65.8424 44.2686 65.8077C45.6921 65.7729 46.7338 65.3563 47.5323 64.766C45.206 63.655 42.3937 64.523 40.6924 65.2174Z" fill="#E02F00"/>
<path d="M41.6299 67.3348C42.6368 68.3417 43.9215 68.8972 45.345 68.9319C46.0047 68.9319 46.0047 67.8903 45.345 67.8903C44.1992 67.8556 43.1924 67.4042 42.3938 66.6056C41.9077 66.1195 41.1786 66.8487 41.6299 67.3348Z" fill="#F47975"/>
<path d="M40.3799 70.2864C40.3799 70.8188 40.3799 71.3512 40.3799 71.8836C40.3799 72.578 41.4215 72.578 41.4215 71.8836C41.4215 71.3512 41.4215 70.8188 41.4215 70.2864C41.4215 69.592 40.3799 69.592 40.3799 70.2864Z" fill="#CF0000"/>
<path d="M42.3242 69.5221C42.3242 70.5637 42.3242 71.6053 42.3242 72.647C42.3242 73.3066 43.3658 73.3066 43.3658 72.647C43.3658 71.6053 43.3658 70.5637 43.3658 69.5221C43.3658 68.8624 42.3242 68.8624 42.3242 69.5221Z" fill="#CF0000"/>
<path d="M43.9214 69.4192C43.9214 69.9979 43.9214 70.5766 43.9214 71.1553C43.9214 71.815 44.963 71.815 44.963 71.1553C44.963 70.5766 44.963 69.9979 44.963 69.4192C44.963 68.7248 43.9214 68.7248 43.9214 69.4192Z" fill="#CF0000"/>
<path d="M45.6922 69.7649C45.669 71.038 45.6575 72.3111 45.6575 73.5842C45.6575 74.2439 46.6991 74.2439 46.6991 73.5842C46.6991 72.3111 46.6991 71.038 46.6991 69.7649C46.6991 69.0705 45.6575 69.0705 45.6575 69.7649H45.6922Z" fill="#CF0000"/>
<path d="M47.6711 70.4938C47.6711 71.2345 47.6711 71.9752 47.6711 72.7159C47.6711 73.3756 48.7128 73.3756 48.7128 72.7159C48.7128 71.9752 48.7128 71.2345 48.7128 70.4938C48.7128 69.8341 47.6711 69.8341 47.6711 70.4938Z" fill="#CF0000"/>
<path d="M49.1643 68.6887C49.2569 69.2442 49.3032 69.8113 49.3032 70.39C49.3032 71.0497 50.3448 71.0497 50.3448 70.39C50.3448 69.7187 50.287 69.059 50.1712 68.4109C50.1365 68.1331 49.7893 67.9595 49.5463 68.029C49.2338 68.1331 49.1296 68.4109 49.1643 68.6887Z" fill="#CF0000"/>
<path d="M38.5396 68.4098C38.5396 69.1968 38.5396 69.9722 38.5396 70.7361C38.5396 71.3958 39.5812 71.3958 39.5812 70.7361C39.5812 69.9722 39.5812 69.1968 39.5812 68.4098C39.5812 67.7501 38.5396 67.7501 38.5396 68.4098Z" fill="#CF0000"/>
<path d="M36.908 65.9811C36.908 66.6524 36.908 67.3121 36.908 67.9602C36.908 68.6199 37.9496 68.6199 37.9496 67.9602C37.9496 67.3121 37.9496 66.6524 37.9496 65.9811C37.9496 65.3214 36.908 65.3214 36.908 65.9811Z" fill="#CF0000"/>
<path d="M51.3862 64.9391C51.3862 66.2585 51.3862 67.5779 51.3862 68.8972C51.3862 69.5569 52.4278 69.5569 52.4278 68.8972C52.4278 67.5779 52.4278 66.2585 52.4278 64.9391C52.4278 64.2794 51.3862 64.2794 51.3862 64.9391Z" fill="#CF0000"/>
<path d="M38.8867 57.2649C38.7015 57.6815 38.5279 58.0866 38.3659 58.4801C38.2617 58.7579 38.2965 59.0356 38.5395 59.2092C38.7826 59.3481 39.1645 59.2787 39.2686 59.0356C39.4307 58.619 39.6043 58.2139 39.7895 57.8204C39.8936 57.5426 39.8589 57.2649 39.5811 57.0913C39.3728 56.9524 38.9909 57.0219 38.8867 57.2649Z" fill="#CF0000"/>
<path d="M40.6579 58.2732C40.5422 58.6435 40.4264 59.0139 40.3107 59.3842C40.1024 60.0439 41.1093 60.3217 41.3176 59.662C41.4333 59.2916 41.549 58.9213 41.6648 58.551C41.8731 57.926 40.8662 57.6482 40.6579 58.2732Z" fill="#CF0000"/>
<path d="M43.7129 58.3089C43.7824 58.957 43.7939 59.5936 43.7476 60.2185C43.7129 60.9129 44.7545 60.9129 44.7892 60.2185C44.8355 59.5936 44.824 58.957 44.7545 58.3089C44.7198 58.0311 44.5462 57.7881 44.2337 57.7881C43.956 57.7881 43.6782 58.0311 43.7129 58.3089Z" fill="#CF0000"/>
<path d="M45.6573 58.7587C45.7962 59.0712 45.9003 59.4184 45.9698 59.7656C46.0045 60.0434 46.3517 60.1823 46.5947 60.1128C46.8725 60.0434 47.0114 59.7656 46.9419 59.4878C46.8725 59.0365 46.7336 58.6546 46.56 58.2379C46.4559 57.9601 46.0739 57.9254 45.8656 58.0296C45.5878 58.2032 45.5531 58.5157 45.6573 58.7587Z" fill="#CF0000"/>
<path d="M47.2546 57.5441C47.5671 58.0997 47.9837 58.6205 48.5045 59.0371C49.0253 59.4885 49.7545 58.7593 49.2337 58.308C48.7823 57.9261 48.4351 57.5094 48.1573 57.0233C47.8101 56.4331 46.9074 56.9539 47.2546 57.5441Z" fill="#CF0000"/>
<path d="M67.0453 9.38773C67.323 7.1309 68.3299 5.11713 69.9618 3.51998C70.4479 3.06862 69.7187 2.30475 69.2327 2.79084C67.3925 4.59631 66.3161 6.85314 66.0036 9.38773C65.8995 10.0474 66.9411 10.0474 67.0453 9.38773Z" fill="#FF5600"/>
<path d="M71.4547 7.33791C71.8714 6.71294 72.4269 6.22685 73.0866 5.87964C73.6768 5.56716 73.156 4.66441 72.5658 4.9769C71.7325 5.42826 71.0728 6.05325 70.552 6.8171C70.1701 7.37263 71.0728 7.89343 71.4547 7.33791Z" fill="#FF5600"/>
<path d="M73.3296 12.8584C74.9961 11.6085 76.4891 10.1849 77.8779 8.62249C78.2946 8.13641 77.5654 7.37256 77.1488 7.89337C75.8294 9.38635 74.4059 10.7752 72.8087 11.9557C72.2879 12.3723 72.8087 13.275 73.3296 12.8584Z" fill="#FF5600"/>
<path d="M78.1212 2.68603C77.4268 3.13739 76.9407 3.8318 76.7324 4.63037C76.5935 5.29006 77.6004 5.56784 77.7392 4.90815C77.8781 4.35262 78.1906 3.90124 78.642 3.58875C79.1975 3.20683 78.6767 2.3041 78.1212 2.68603Z" fill="#FF5600"/>
<path d="M74.8227 17.0252C76.3735 16.516 77.9244 15.9952 79.4752 15.4628C80.1002 15.2545 79.8224 14.2476 79.1974 14.4559C77.6466 14.9883 76.0958 15.5207 74.5449 16.0531C73.9199 16.2614 74.1977 17.2683 74.8227 17.0252Z" fill="#FF5600"/>
<path d="M30.9708 23.2754C27.5334 18.3799 32.7068 13.9703 36.908 12.269C37.5329 12.026 37.2552 11.0191 36.6302 11.2622C31.8735 13.2065 26.2141 18.3104 30.068 23.7962C30.45 24.3171 31.3527 23.7962 30.9708 23.2754Z" fill="#FF5600"/>
<path d="M34.2692 20.2887C34.4428 22.7886 35.658 24.976 37.6718 26.4342C38.2273 26.8162 38.7481 25.9134 38.1926 25.5315C36.4913 24.2816 35.4497 22.4067 35.3108 20.2887C35.2414 19.629 34.1997 19.629 34.2692 20.2887Z" fill="#FF5600"/>
<path d="M41.1089 14.0052C43.5394 11.8525 46.4559 10.672 49.6849 10.5679C50.3793 10.5331 50.3793 9.49152 49.6849 9.52624C46.1781 9.6304 42.9838 10.9498 40.3798 13.276C39.8937 13.7274 40.6228 14.4565 41.1089 14.0052Z" fill="#FF5600"/>
<path d="M23.5406 21.3305C23.1587 19.9764 23.4017 18.657 24.2003 17.5112C24.5822 16.9557 23.6795 16.4349 23.2975 16.9904C22.3601 18.3445 22.0823 20.0111 22.5337 21.5735C22.7073 22.2332 23.7142 21.9555 23.5406 21.3305Z" fill="#FF5600"/>
<path d="M62.7745 24.5594C64.9271 22.1984 67.7742 20.879 71.0032 20.7749C71.6629 20.7402 71.6629 19.6986 71.0032 19.7333C67.5312 19.8374 64.3716 21.261 62.0453 23.8303C61.594 24.3164 62.3231 25.0455 62.7745 24.5594Z" fill="#FF5600"/>
<path d="M71.2463 24.1784C71.7555 23.9238 72.2879 23.7965 72.8434 23.7965C73.5031 23.7965 73.5031 22.7549 72.8434 22.7549C72.0796 22.7549 71.3852 22.9285 70.7255 23.2757C70.1352 23.6229 70.656 24.5256 71.2463 24.1784Z" fill="#FF5600"/>
<path d="M48.7129 27.5458C48.0532 23.2057 49.8587 18.9004 53.4002 16.2616C53.921 15.8797 53.4002 14.977 52.8794 15.3589C48.9212 18.3101 46.9769 22.9627 47.7407 27.8235C47.8102 28.4832 48.8171 28.2055 48.7129 27.5458Z" fill="#FF5600"/>
<path d="M45.6228 21.3657C45.8311 20.2894 46.2825 19.3172 47.0116 18.5186C47.4283 17.9978 46.6991 17.2687 46.2825 17.7895C45.4492 18.727 44.8589 19.838 44.6159 21.088C44.477 21.7129 45.4839 21.9907 45.6228 21.3657Z" fill="#FF5600"/>
<path d="M57.4973 12.2685C59.1175 11.9444 60.761 11.7708 62.4276 11.7477C63.0873 11.7477 63.0873 10.7061 62.4276 10.7061C60.6684 10.7292 58.9324 10.9144 57.2195 11.2616C56.5598 11.4005 56.8376 12.3726 57.4973 12.2685Z" fill="#FF5600"/>
<path d="M56.768 25.15C57.3583 19.3864 61.7331 15.0116 67.5314 14.4561C68.1911 14.3866 68.1911 13.345 67.5314 13.4145C61.1081 14.0047 56.3514 18.7614 55.7264 25.15C55.6917 25.8097 56.7333 25.8097 56.768 25.15Z" fill="#FF5600"/>
</svg>
