<svg width="111" height="123" viewBox="0 0 111 123" fill="none" xmlns="http://www.w3.org/2000/svg">
<path d="M110.624 68.5503C110.624 98.1196 86.0754 122.109 55.7754 122.109C25.5171 122.109 0.96875 98.1196 0.96875 68.5503C0.96875 38.9402 25.5171 14.9507 55.7754 14.9507C86.0754 14.9507 110.624 38.9402 110.624 68.5503Z" fill="#3D003D"/>
<path d="M24.4335 53.6422C24.4335 53.6422 18.807 49.162 16.7231 56.2896C14.6392 63.4172 23.6 69.5266 25.2671 69.1193L24.4335 53.6422Z" fill="#F9AB64"/>
<path d="M85.8255 53.6422C85.8255 53.6422 91.452 49.162 93.5359 56.2896C95.6199 63.4172 86.6591 69.5266 84.9919 69.1193L85.8255 53.6422Z" fill="#F9AB64"/>
<path d="M55.6924 122.108C65.6535 122.108 74.9477 119.502 82.9916 115.021C78.3653 104.106 67.404 96.4082 54.5671 96.4082C42.1887 96.4082 31.4775 103.617 26.6428 113.962C35.0618 119.135 45.0229 122.108 55.6924 122.108Z" fill="#EAFFFF"/>
<path d="M57.1927 102.639H52.4414C50.6076 102.639 49.1072 101.173 49.1072 99.3811V90.1763C49.1072 88.3842 50.6076 86.918 52.4414 86.918H57.1927C59.0266 86.918 60.527 88.3842 60.527 90.1763V99.3811C60.527 101.173 59.0266 102.639 57.1927 102.639Z" fill="#FFD68F"/>
<g style="mix-blend-mode:multiply" opacity="0.73">
<path d="M57.1927 86.918H52.4414C50.6076 86.918 49.1072 88.3842 49.1072 90.1763V93.6383C51.1494 94.0456 53.275 94.2492 55.4006 94.2492C57.1233 94.2492 58.8321 94.1135 60.527 93.8419V90.1763C60.527 88.3842 59.0266 86.918 57.1927 86.918Z" fill="#F9AB64"/>
</g>
<path d="M85.8251 32.8701H59.0678C57.6785 32.68 56.2614 32.585 54.8166 32.585C53.3995 32.585 51.9964 32.68 50.6071 32.8701H23.433V57.3076H23.6414C23.558 57.7148 23.4886 58.1357 23.433 58.5702C23.433 58.5702 23.308 64.4352 23.433 66.3494C24.4333 81.1341 38.7289 92.3346 54.8166 92.3346C70.0708 92.3346 84.283 82.4374 85.8251 68.7117C86.7837 59.792 85.8251 32.8701 85.8251 32.8701Z" fill="#FFD68F"/>
<path d="M45.5225 77.8757C44.7723 77.9571 44.0638 78.1608 43.5637 78.7717C42.8551 79.5863 41.5214 78.568 42.23 77.7535C43.0218 76.8167 44.1055 76.3687 45.3141 76.2058C46.3978 76.0836 46.6062 77.7127 45.5225 77.8757Z" fill="#C93D06"/>
<path d="M62.4017 79.3425C62.4017 78.6094 61.4431 78.2836 60.7763 78.1206C60.3178 77.9985 59.9844 77.6319 60.0677 77.1431C60.1094 76.7359 60.5679 76.3286 61.0263 76.4508C62.36 76.8173 64.1105 77.5504 64.0688 79.1389C64.0688 79.6276 63.8604 80.0349 63.3603 80.0756C62.9435 80.1164 62.4017 79.7905 62.4017 79.3425Z" fill="#C93D06"/>
<path d="M53.7749 82.1523C58.6095 81.5821 62.1939 78.5274 62.2772 78.4459L61.527 77.6313C61.1519 77.9572 52.4829 85.3699 44.2306 77.7535L43.4387 78.5681C46.9814 81.8265 50.649 82.5188 53.7749 82.1523Z" fill="#C93D06"/>
<path d="M51.6074 59.9154C51.6074 63.0922 51.6074 66.2691 51.6074 69.446C51.9964 69.3374 52.3854 69.2288 52.7744 69.1201C51.1489 66.3506 47.6063 67.8168 47.773 70.8308C48.0231 74.2113 51.8575 75.7183 54.5249 73.804C55.1917 73.356 54.5665 72.2563 53.8997 72.745C53.0106 73.5596 51.8991 73.6954 50.5654 73.1523C49.5235 72.745 49.0234 71.7675 49.3985 70.7493C49.8986 69.3238 50.5655 69.2016 51.7741 69.5682C52.3159 69.7311 52.0659 70.3827 52.7744 69.6903C53.1912 69.2831 52.8577 67.043 52.8577 66.4727C52.8577 64.3005 52.8577 62.1147 52.8577 59.9154C52.8577 59.1415 51.6074 59.1415 51.6074 59.9154Z" fill="#CC5200"/>
<g style="mix-blend-mode:multiply" opacity="0.73">
<path d="M77.4899 73.4768C77.4899 75.8391 74.5307 77.7127 70.9047 77.7127C67.2787 77.7127 64.3196 75.8391 64.3196 73.4768C64.3196 71.1553 67.2787 69.2817 70.9047 69.2817C74.5307 69.2817 77.4899 71.1553 77.4899 73.4768Z" fill="#F9AB64"/>
</g>
<g style="mix-blend-mode:multiply" opacity="0.73">
<path d="M42.8968 73.4768C42.8968 75.8391 39.9377 77.7127 36.3117 77.7127C32.6857 77.7127 29.7266 75.8391 29.7266 73.4768C29.7266 71.1553 32.6857 69.2817 36.3117 69.2817C39.9377 69.2817 42.8968 71.1553 42.8968 73.4768Z" fill="#F9AB64"/>
</g>
<path d="M73.9054 63.2139C73.9054 65.3726 72.8218 67.1646 71.4464 67.1646C70.1127 67.1646 69.0291 65.3726 69.0291 63.2139C69.0291 61.0553 70.1127 59.2632 71.4464 59.2632C72.8218 59.2632 73.9054 61.0553 73.9054 63.2139Z" fill="#560000"/>
<path d="M38.6044 63.2139C38.6044 65.3726 37.5207 67.1646 36.187 67.1646C34.8117 67.1646 33.728 65.3726 33.728 63.2139C33.728 61.0553 34.8117 59.2632 36.187 59.2632C37.5207 59.2632 38.6044 61.0553 38.6044 63.2139Z" fill="#560000"/>
<path d="M50.482 84.9648C51.7323 86.3903 53.5662 87.1234 55.4834 86.8383C56.2752 86.7161 56.1085 85.4943 55.3166 85.6165C53.8579 85.8201 52.4409 85.3314 51.4823 84.2317C50.9404 83.6615 49.9402 84.3946 50.482 84.9648Z" fill="#CC5200"/>
<path d="M54.9004 72.1319C55.3589 72.2949 55.734 72.6207 55.984 72.9872C56.4008 73.6389 57.4845 73.028 57.0677 72.3763C56.6092 71.7246 55.984 71.2359 55.2338 70.9508C54.4836 70.6657 54.1502 71.8468 54.9004 72.1319Z" fill="#CC5200"/>
<g style="mix-blend-mode:multiply" opacity="0.73">
<path d="M49.2322 71.5631C49.2322 71.5631 50.3575 72.7849 53.1082 71.8482C55.9007 70.8707 57.8595 70.7485 58.2763 72.3777C58.6931 74.0068 54.9421 76.1655 52.1496 76.1655C50.6076 76.1655 46.8565 73.3144 49.2322 71.5631Z" fill="#F9AB64"/>
</g>
<path fill-rule="evenodd" clip-rule="evenodd" d="M69.4455 54.2128C66.3197 54.9459 64.986 50.2213 68.1119 49.4882C71.7378 48.6329 75.5305 49.6511 78.0729 52.3392C80.2818 54.6201 76.7392 58.082 74.572 55.7605C73.1966 54.3757 71.3627 53.7647 69.4455 54.2128ZM30.2265 52.5836C32.8939 50.2213 36.4782 49.3253 39.9375 50.3435C43.0217 51.2395 41.688 55.9641 38.6038 55.0681C36.895 54.5386 35.1028 54.8237 33.7691 56.0049C31.3518 58.1228 27.8092 54.6608 30.2265 52.5836Z" fill="#560000"/>
<path d="M73.7386 53.3159C75.239 54.9451 77.4063 53.764 77.8647 52.1348C75.3224 49.6096 71.613 48.6728 68.112 49.4874C67.0701 49.7318 66.5283 50.4242 66.3616 51.2388C66.9034 51.7275 67.6953 51.9719 68.6122 51.7682C70.5294 51.3202 72.3632 51.9312 73.7386 53.3159Z" fill="#720000"/>
<path d="M40.7711 50.7908C40.5628 50.5872 40.271 50.465 39.9376 50.3428C36.4783 49.3246 32.894 50.2206 30.2266 52.5829C29.8515 52.868 29.6431 53.2346 29.5181 53.5604C30.435 54.3343 31.8104 54.5786 32.9357 53.5604C34.2694 52.3793 36.0615 52.0941 37.7703 52.6236C39.3958 53.0716 40.5211 52.0127 40.7711 50.7908Z" fill="#720000"/>
<path d="M91.0354 56.2482C90.4935 55.6373 89.66 55.4744 88.8681 55.8002C87.8262 56.2075 87.451 57.3072 87.2843 58.3254C87.1176 59.0178 87.0343 59.9953 87.6594 60.5248C88.0346 60.8099 88.368 60.7692 88.7847 60.8099C89.2015 60.8099 89.5766 60.7692 89.9517 61.0135C90.7436 61.4616 90.6603 63.0907 89.4099 62.6427C88.6597 62.3576 88.3263 63.5387 89.0765 63.7831C90.7853 64.4348 92.4107 62.5612 91.6189 60.9728C91.2021 60.1989 90.3685 59.6695 89.4516 59.588C88.7431 59.5066 88.368 59.7509 88.4513 58.8142C88.4513 58.2439 89.1599 56.0038 90.1601 57.1443C90.6603 57.7145 91.5355 56.8592 91.0354 56.2482Z" fill="#CC5200"/>
<path d="M19.6409 56.5328C20.8079 56.1255 21.9332 57.9583 21.4747 58.8543C21.1413 59.5467 20.6411 59.2209 20.0576 59.3838C19.5575 59.5467 19.0991 59.8318 18.8907 60.3613C18.2238 62.2349 20.3911 63.1716 21.6831 63.864C22.3499 64.2713 23.0168 63.2124 22.3083 62.8051C22.0165 62.6829 21.7248 62.52 21.433 62.3571C20.7662 61.9905 20.141 61.8276 20.3911 61.0537C20.6828 60.2391 21.0579 60.6872 21.7248 60.4835C22.5167 60.2391 22.725 59.5875 22.725 58.8543C22.725 57.0215 21.5581 54.5371 19.3074 55.3516C18.5572 55.6367 18.8907 56.8179 19.6409 56.5328Z" fill="#CC5200"/>
<path d="M59.0684 32.8715C57.6791 32.6815 56.262 32.5864 54.8172 32.5864C53.4001 32.5864 51.997 32.6815 50.6077 32.8715H23.4336V55.4355C24.0171 54.0507 25.059 51.444 25.8926 48.5523C27.1429 44.2757 24.2255 37.3517 31.5191 37.5554C38.8128 37.759 44.8561 43.6648 52.5666 43.4611C60.277 43.2575 69.2378 37.759 74.2392 38.37C79.2405 38.9809 82.158 45.0903 83.4083 49.7741C84.4086 53.6027 84.4086 55.6799 86.2424 57.4719C86.3258 46.3936 85.8257 32.8715 85.8257 32.8715H59.0684Z" fill="#FF7E3E"/>
<path d="M52.4407 102.642H53.3993C53.3993 101.868 53.2743 99.4242 52.7741 97.2248C52.1489 94.5774 49.2315 94.3737 49.2315 94.3737C49.2037 94.3737 49.162 94.3602 49.1064 94.333V99.3834C49.1064 101.176 50.6069 102.642 52.4407 102.642Z" fill="#EAFFFF"/>
<path d="M60.5267 93.8438C55.8588 94.2918 56.859 101.216 57.1091 102.641H57.1925C59.0263 102.641 60.5267 101.175 60.5267 99.3829V93.8438Z" fill="#EAFFFF"/>
<path d="M66.5281 120.642L66.3197 104.962H44.022V103.333H67.9869L68.1953 120.642H66.5281Z" fill="#C1F7F5"/>
<path d="M64.6949 108.627C64.6949 109.809 63.6946 110.786 62.486 110.786C61.2356 110.786 60.2354 109.809 60.2354 108.627C60.2354 107.446 61.2356 106.469 62.486 106.469C63.6946 106.469 64.6949 107.446 64.6949 108.627Z" fill="#CF0000"/>
<path d="M50.9411 108.627C50.9411 109.809 49.9408 110.786 48.7321 110.786C47.4818 110.786 46.5232 109.809 46.5232 108.627C46.5232 107.446 47.4818 106.469 48.7321 106.469C49.9408 106.469 50.9411 107.446 50.9411 108.627Z" fill="#CF0000"/>
<path d="M64.6949 118.199C64.6949 119.38 63.6946 120.358 62.486 120.358C61.2356 120.358 60.2354 119.38 60.2354 118.199C60.2354 117.018 61.2356 116.041 62.486 116.041C63.6946 116.041 64.6949 117.018 64.6949 118.199Z" fill="#CF0000"/>
<path d="M50.9411 118.199C50.9411 119.38 49.9408 120.358 48.7321 120.358C47.4818 120.358 46.5232 119.38 46.5232 118.199C46.5232 117.018 47.4818 116.041 48.7321 116.041C49.9408 116.041 50.9411 117.018 50.9411 118.199Z" fill="#CF0000"/>
<path d="M21.2243 30.387C20.4463 29.9526 19.6961 29.4231 18.9737 28.7986C12.3885 23.3816 13.0554 12.9142 20.6408 8.84128C24.1418 6.96774 27.9345 5.25712 31.9772 4.93129C35.5616 4.60545 39.2292 5.54222 42.7302 4.36108C44.1056 3.91306 45.3142 3.09847 46.6062 2.44681C51.2325 0.165976 56.609 -0.159858 61.652 0.328892C66.9451 0.858371 70.4878 1.71368 74.7389 4.76837C79.8237 8.39326 85.867 7.45649 91.3268 9.9817C96.2031 12.2625 100.996 18.0461 98.7455 23.5852C96.4115 29.4095 89.9098 32.2605 83.9498 33.1159C73.8637 34.5006 63.2775 33.9304 53.1497 33.6861C47.3426 33.5232 41.5493 33.3195 35.7699 33.0751C30.6019 32.8715 25.6839 32.9122 21.2243 30.387Z" fill="#C1F7F5"/>
<path d="M92.4516 13.2405C86.9918 10.7153 80.9068 11.6521 75.8638 8.02716C71.6126 4.97247 68.0283 4.11716 62.7768 3.58768C57.6921 3.09893 52.3156 3.42476 47.731 5.7056C46.439 6.35726 45.1887 7.17185 43.8133 7.61987C40.3124 8.80101 36.6864 7.86424 33.102 8.19008C29.0593 8.51591 25.2666 10.2265 21.7656 12.1001C16.8893 14.7067 14.8887 19.9608 15.8056 24.8483C16.5559 26.3146 17.5978 27.6586 18.9732 28.799C19.6956 29.4235 20.4458 29.953 21.2238 30.3875C25.6834 32.9127 30.6014 32.8719 35.7694 33.0756C41.5488 33.32 47.3421 33.5236 53.1492 33.6865C63.277 33.9309 73.8632 34.5011 83.9493 33.1163C89.9093 32.261 96.411 29.41 98.745 23.5857C99.3285 22.2416 99.4119 20.8976 99.2452 19.5535C97.7447 16.8247 95.119 14.5031 92.4516 13.2405Z" fill="#EAFFFF"/>
<path d="M88.7432 29.7346C88.6877 29.7074 88.6321 29.6938 88.5765 29.6938C84.8255 29.0014 87.5346 25.3766 85.8674 23.7474C85.3256 23.2179 84.4921 23.2179 83.7419 23.2994C81.1995 23.503 78.7405 24.0732 76.1981 24.2361C70.78 24.562 65.0284 21.6702 59.8603 20.2447C55.4841 19.0228 55.0674 22.2811 49.4408 22.8921C46.6901 23.1772 43.7726 22.4033 41.1052 21.7109C39.0213 21.1815 36.4373 19.5116 34.3117 19.7967C33.0613 19.9596 31.8943 20.5705 30.8941 21.3036C28.06 23.3401 27.9349 26.7206 23.8922 27.2094C21.8916 27.4537 19.6827 27.1279 17.7655 26.5577C17.5154 26.6663 17.2931 26.7749 17.0986 26.8835C17.6266 27.5624 18.2517 28.2004 18.9741 28.7978C19.6966 29.4223 20.4468 29.9518 21.2248 30.3862C25.6843 32.9114 30.6023 32.8707 35.7704 33.0744C41.5498 33.3187 47.343 33.5224 53.1502 33.6853C63.2779 33.9297 73.8642 34.4999 83.9502 33.1151C88.6182 32.4634 93.5779 30.5492 96.6621 26.965C94.7449 27.7796 90.9938 29.979 88.7432 29.7346Z" fill="#C1F7F5"/>
<path opacity="0.3" d="M22.1411 43.0546C22.5162 44.4393 57.9843 38.3707 87.1589 45.091L86.9505 31.2431C86.9505 31.2431 55.4836 20.4499 23.8082 30.0212C23.8082 30.0212 21.0992 39.1853 22.1411 43.0546Z" fill="#FE2F00"/>
<path d="M22.3496 41.8319C22.7247 43.2167 58.1928 37.148 87.3674 43.8684L87.159 30.0204C87.159 30.0204 55.6921 19.2272 24.0167 28.7986C24.0167 28.7986 21.3077 37.9626 22.3496 41.8319Z" fill="#EAFFFF"/>
<path d="M24.0585 18.8205C24.8087 17.5986 25.5311 17.2728 26.2257 17.843C26.6147 18.0874 26.9898 18.3725 27.351 18.6983C27.9623 19.1599 28.5597 19.6215 29.1432 20.0831C30.338 21.0334 31.5466 21.9702 32.7692 22.8934C33.3944 23.3821 34.2696 22.5268 33.6444 22.0381C32.0329 20.7891 30.4352 19.54 28.8515 18.291C27.8929 17.5579 26.7675 16.4175 25.5172 16.2138C23.6834 15.888 22.4747 17.5171 22.8498 19.1463C23.0165 19.9202 24.2252 19.5943 24.0585 18.8205Z" fill="#C1F7F5"/>
<path d="M40.1047 21.8335C38.4376 20.1636 37.9374 17.8828 38.7293 15.6834C38.9794 14.9503 37.7707 14.6245 37.5206 15.3576C36.6037 17.9642 37.2706 20.7338 39.1878 22.7296C39.7712 23.2998 40.6465 22.4037 40.1047 21.8335Z" fill="#C1F7F5"/>
<path d="M63.2775 23.9932C64.7779 21.6309 66.6534 19.5945 69.029 18.0875C70.1127 17.3951 71.238 16.8249 72.405 16.3361C73.3636 15.9696 73.7387 15.5623 74.4055 16.499C75.0724 17.4358 74.6139 17.6802 73.9471 18.5355C73.4886 19.1872 74.5722 19.7981 75.0307 19.1464C75.7392 18.2097 77.2396 16.3769 76.2393 15.1143C75.4475 14.1368 73.8637 14.5848 72.8217 14.9106C68.3622 16.3769 64.6528 19.4723 62.1938 23.3823C61.7771 24.0339 62.8607 24.6449 63.2775 23.9932Z" fill="#C1F7F5"/>
<path d="M50.7738 14.2162C53.0244 15.8861 54.3998 18.2891 54.6082 21.0587C54.6499 21.8325 55.9002 21.8325 55.8585 21.0587C55.6085 18.004 54.1497 15.2344 51.6907 13.3201C51.0239 12.8721 50.1486 13.7274 50.7738 14.2162Z" fill="#C1F7F5"/>
<path d="M80.8658 25.7033C84.5335 25.1331 87.7844 23.3817 90.2851 20.6529C90.8269 20.042 89.9099 19.1866 89.4098 19.7976C87.0342 22.3635 83.9917 23.9927 80.5324 24.5222C79.7405 24.6443 80.0739 25.8255 80.8658 25.7033Z" fill="#C1F7F5"/>
<path d="M85.4505 27.9021C87.3677 27.2912 89.3266 27.0468 91.3271 27.169C92.119 27.2097 92.119 25.9878 91.3271 25.9471C89.2154 25.8385 87.1454 26.11 85.1171 26.7617C84.3252 26.9653 84.6586 28.1465 85.4505 27.9021Z" fill="#C1F7F5"/>
<path d="M39.8957 7.45525C41.9379 8.6364 43.48 10.3063 44.5219 12.4242C44.897 13.1166 45.939 12.5057 45.6056 11.7725C44.4802 9.53244 42.7298 7.69963 40.5208 6.39629C39.8123 5.989 39.1871 7.04796 39.8957 7.45525Z" fill="#C1F7F5"/>
<path d="M77.5733 8.63662C79.296 10.4287 80.8381 12.3701 82.1996 14.4609C82.6164 15.1533 83.7 14.5423 83.2832 13.85C81.8662 11.6777 80.2546 9.65485 78.4486 7.78131C77.9067 7.2111 77.0315 8.06641 77.5733 8.63662Z" fill="#C1F7F5"/>
<path d="M87.3679 43.8683L87.1595 30.0204C87.1595 30.0204 84.5338 29.1244 79.9909 28.0654C80.9495 31.7311 79.4491 39.5918 79.4491 39.5918C50.8996 34.5006 23.9755 41.7504 22.3501 41.8319C22.7252 43.2167 58.1932 37.148 87.3679 43.8683Z" fill="#C1F7F5"/>
</svg>
