<svg width="92" height="92" viewBox="0 0 92 92" fill="none" xmlns="http://www.w3.org/2000/svg">
<path d="M91.4985 45.8225C91.4985 71.0643 71.0482 91.5146 45.8064 91.5146C20.5993 91.5146 0.148926 71.0643 0.148926 45.8225C0.148926 20.6154 20.5993 0.165039 45.8064 0.165039C71.0482 0.165039 91.4985 20.6154 91.4985 45.8225Z" fill="#313F49"/>
<path d="M24.2449 77.9725C24.2449 77.9725 32.925 67.2091 41.4316 66.8619C49.9381 66.5147 65.2151 60.265 65.3887 51.9321C65.5623 43.5992 28.2378 18.6005 22.8561 25.1974C17.4744 31.7943 22.1617 74.1532 24.7657 78.8405" fill="#F47098"/>
<path d="M24.2448 77.9728C24.2448 77.9728 32.9944 68.3552 42.4731 66.9664C51.9518 65.5775 43.1675 27.1767 31.8139 23.7046C20.495 20.2326 16.8841 56.5502 24.2448 77.9728Z" fill="#C93F6D"/>
<path d="M45.7715 91.4438C54.0697 91.4438 61.8123 89.2564 68.5134 85.4024C64.6594 76.0973 55.5279 69.5352 44.834 69.5352C34.522 69.5352 25.5989 75.6807 21.5713 84.4997C28.5848 88.9092 36.883 91.4438 45.7715 91.4438Z" fill="#FFD68F"/>
<path d="M19.7312 33.0793C19.7312 33.0793 15.0439 29.26 13.3079 35.3361C11.5719 41.4122 19.0368 46.6203 20.4256 46.2731L19.7312 33.0793Z" fill="#F9AB64"/>
<path d="M70.8746 33.0793C70.8746 33.0793 75.5619 29.26 77.2979 35.3361C79.0339 41.4122 71.569 46.6203 70.1802 46.2731L70.8746 33.0793Z" fill="#F9AB64"/>
<path d="M47.0216 74.8821H43.0635C41.5358 74.8821 40.2859 73.6322 40.2859 72.1045V64.223C40.2859 62.6952 41.5358 61.4453 43.0635 61.4453H47.0216C48.5494 61.4453 49.7993 62.6952 49.7993 64.223V72.1045C49.7993 73.6322 48.5494 74.8821 47.0216 74.8821Z" fill="#FFD68F"/>
<path opacity="0.3" d="M47.0216 61.4453H43.0635C41.5358 61.4453 40.2859 62.6952 40.2859 64.223V67.2089C41.9872 67.5214 43.7579 67.695 45.5287 67.695C46.9638 67.695 48.3873 67.5908 49.7993 67.3825V64.223C49.7993 62.6952 48.5494 61.4453 47.0216 61.4453Z" fill="#FE2F00"/>
<path d="M70.8744 15.3714H48.5839C47.4265 15.2325 46.246 15.1631 45.0424 15.1631C43.8619 15.1631 42.693 15.2325 41.5356 15.3714L20.0089 15.8228L18.8979 36.2037H19.0715C19.002 36.5741 18.9442 36.9328 18.8979 37.28C18.8979 37.28 18.7937 42.2798 18.8979 43.9464C19.7311 56.5152 31.6403 66.0633 45.0424 66.0633C57.7501 66.0633 69.5898 57.661 70.8744 45.9254C71.673 38.3217 70.8744 15.3714 70.8744 15.3714Z" fill="#FFD68F"/>
<path opacity="0.3" d="M63.9304 50.0221C63.9304 52.0011 61.4653 53.5983 58.4446 53.5983C55.4239 53.5983 52.9587 52.0011 52.9587 50.0221C52.9587 48.043 55.4239 46.4111 58.4446 46.4111C61.4653 46.4111 63.9304 48.043 63.9304 50.0221Z" fill="#FE2F00"/>
<path opacity="0.3" d="M35.1123 50.0221C35.1123 52.0011 32.6471 53.5983 29.6265 53.5983C26.6058 53.5983 24.1406 52.0011 24.1406 50.0221C24.1406 48.043 26.6058 46.4111 29.6265 46.4111C32.6471 46.4111 35.1123 48.043 35.1123 50.0221Z" fill="#FE2F00"/>
<path d="M60.9444 41.2385C60.9444 43.1134 60.0416 44.6063 58.8959 44.6063C57.7848 44.6063 56.8821 43.1134 56.8821 41.2385C56.8821 39.3983 57.7848 37.9053 58.8959 37.9053C60.0416 37.9053 60.9444 39.3983 60.9444 41.2385Z" fill="#560000"/>
<path d="M31.5362 41.2385C31.5362 43.1134 30.6334 44.6063 29.5224 44.6063C28.3766 44.6063 27.4739 43.1134 27.4739 41.2385C27.4739 39.3983 28.3766 37.9053 29.5224 37.9053C30.6334 37.9053 31.5362 39.3983 31.5362 41.2385Z" fill="#560000"/>
<path d="M75.2146 35.3354C74.7632 34.8146 74.0688 34.6757 73.4091 34.9187C72.5758 35.3007 72.2286 36.2034 72.0897 37.0714C71.9509 37.6964 71.8814 38.4949 72.4022 38.9463C72.7147 39.1893 72.9925 39.1893 73.3397 39.1893C73.6869 39.1893 73.9994 39.1893 74.3119 39.3629C74.9715 39.7449 74.9021 41.1337 73.8605 40.7518C73.2355 40.5087 72.9577 41.5156 73.5827 41.7587C75.0063 42.2795 76.3604 40.6823 75.7007 39.3282C75.3535 38.6685 74.6591 38.2519 73.8952 38.1477C73.305 38.0783 72.9925 38.2866 73.0619 37.4881C73.0619 37.0367 73.6522 35.0923 74.4855 36.0645C74.9021 36.5853 75.6312 35.8562 75.2146 35.3354Z" fill="#CC5200"/>
<path d="M15.7382 35.5783C16.7104 35.1964 17.6479 36.7588 17.2659 37.5226C16.9882 38.1129 16.5715 37.8698 16.0854 37.974C15.6688 38.1129 15.2869 38.3906 15.148 38.842C14.5577 40.4391 16.3632 41.203 17.4395 41.828C17.9951 42.1405 18.5506 41.2724 17.9604 40.9252C17.7173 40.7864 17.4743 40.6822 17.2312 40.5433C16.6757 40.2308 16.1549 40.0572 16.3632 39.3975C16.6062 38.7379 16.9187 39.0851 17.4743 38.9115C18.1339 38.7031 18.3076 38.1823 18.3076 37.5226C18.3076 35.9949 17.3354 33.877 15.4605 34.5714C14.8355 34.7797 15.1133 35.7866 15.7382 35.5783Z" fill="#CC5200"/>
<path d="M59.8681 42.4527C60.9098 42.7304 61.9861 42.4179 62.7152 41.6541C63.1666 41.168 62.4375 40.4389 61.9514 40.9249C61.5 41.4458 60.8403 41.6194 60.1459 41.4458C59.521 41.2722 59.2432 42.2791 59.8681 42.4527Z" fill="#560000"/>
<path d="M59.7291 43.808C60.6319 44.3635 61.7429 44.3635 62.6456 43.808C63.2359 43.4608 62.7151 42.558 62.1248 42.9052C61.5346 43.2524 60.8402 43.2524 60.2499 42.9052C59.6597 42.5928 59.1389 43.4955 59.7291 43.808Z" fill="#560000"/>
<path d="M28.2377 42.3839C27.2308 42.6616 26.1198 42.3839 25.4254 41.62C24.9393 41.0992 25.7031 40.3701 26.1545 40.8562C26.6059 41.377 27.2655 41.5853 27.96 41.377C28.6196 41.2034 28.8627 42.2103 28.2377 42.3839Z" fill="#560000"/>
<path d="M28.3766 43.7724C27.4739 44.2932 26.3628 44.2932 25.4601 43.7377C24.8699 43.3905 25.4254 42.4877 25.9809 42.8349C26.5712 43.2169 27.2656 43.2169 27.8558 42.8697C28.4461 42.5225 28.9669 43.4252 28.3766 43.7724Z" fill="#560000"/>
<path d="M41.987 46.0299C41.8482 47.5229 40.2857 48.5992 38.8275 48.252C38.4456 48.1826 38.0636 48.4951 38.1678 48.9117C38.8275 50.9602 40.9454 52.1754 43.0634 51.6894C43.7231 51.5158 43.4453 50.5436 42.7856 50.6825C41.2232 51.0644 39.6608 50.1269 39.1747 48.634C38.9664 48.8423 38.758 49.0506 38.5497 49.2589C40.7024 49.7797 42.8203 48.2173 43.0287 46.0299C43.0981 45.3702 42.0565 45.3702 41.987 46.0299Z" fill="#CC5200"/>
<path d="M44.7992 50.0233C45.1117 49.9539 45.4589 49.9886 45.702 50.1969C46.2228 50.6483 46.9519 49.9192 46.4311 49.4678C45.9103 49.0164 45.2159 48.8428 44.5215 49.0164C43.8965 49.19 44.1743 50.1969 44.7992 50.0233Z" fill="#CC5200"/>
<path d="M37.8554 54.1542C39.8345 52.0363 42.7163 53.9112 42.7163 53.9112C45.7717 52.2446 49.834 55.1611 49.834 55.1611L49.9381 55.9597C43.5496 67.2438 35.9111 56.2722 37.8554 54.1542Z" fill="#631D6B"/>
<path d="M37.5774 55.3695C42.6813 58.7374 47.8199 56.3416 49.799 55.1611C49.8337 55.1611 49.8337 55.1611 49.8337 55.1611L49.9379 55.9597C44.3826 65.7856 37.8899 58.7721 37.5774 55.3695Z" fill="#C93F6D"/>
<path d="M58.3404 32.3502C59.9375 31.9683 61.4652 32.5238 62.5415 33.739C63.4095 34.7459 64.9025 33.2529 63.9998 32.246C62.4374 30.51 60.0764 29.7809 57.7848 30.3364C56.5002 30.6142 57.021 32.6279 58.3404 32.3502Z" fill="#C93F6D"/>
<path d="M31.6057 30.3364C29.3141 29.7809 26.9531 30.51 25.3907 32.246C24.488 33.2529 25.981 34.7459 26.849 33.739C27.9253 32.5238 29.453 31.9683 31.0502 32.3502C32.3695 32.6279 32.9251 30.6142 31.6057 30.3364Z" fill="#C93F6D"/>
<path d="M36.3623 55.1267C39.0357 57.0016 40.4245 57.6265 43.7924 57.4529C46.5353 57.2793 49.0005 56.5155 51.1532 54.71C51.6393 54.2587 50.9101 53.5295 50.3893 53.9809C48.2019 55.8558 45.5979 56.4113 42.7508 56.446C40.1815 56.4808 38.8621 55.6128 36.8831 54.2587C36.3275 53.8767 35.8067 54.7795 36.3623 55.1267Z" fill="#CC5200"/>
<path d="M50.3201 53.7371C50.7715 54.0844 51.084 54.5357 51.1881 55.0912C51.3617 55.7509 52.3686 55.4732 52.195 54.8135C51.9867 53.9802 51.5353 53.3205 50.8409 52.8344C50.6326 52.6608 50.2854 52.7997 50.1465 53.0427C49.9729 53.2858 50.1118 53.5635 50.3201 53.7371Z" fill="#CC5200"/>
<path d="M36.05 53.3555C35.425 53.9805 35.1125 54.7791 35.1125 55.6471C35.1473 56.3068 36.1889 56.3068 36.1542 55.6471C36.1542 55.0568 36.3625 54.536 36.7791 54.1194C37.2305 53.6333 36.5014 52.9042 36.05 53.3555Z" fill="#CC5200"/>
<path opacity="0.3" d="M39.1053 49.3974C39.0358 48.5294 41.8829 49.953 42.9245 49.6058C43.9661 49.2585 46.8826 48.1128 47.4382 49.8488C48.0284 51.5848 39.5913 54.4666 39.1053 49.3974Z" fill="#FE2F00"/>
<path d="M41.119 71.0281C41.119 71.0281 38.1677 72.6599 38.1677 75.6459C38.1677 78.5971 44.9382 84.5691 44.9382 84.5691C44.9382 84.5691 51.5351 77.7639 51.2574 73.9793C51.0143 70.1948 41.119 71.0281 41.119 71.0281Z" fill="#FFD68F"/>
<path opacity="0.3" d="M71.1869 28.3569C71.0828 21.4475 70.8744 15.3714 70.8744 15.3714H48.5839C47.4265 15.2325 46.246 15.1631 45.0424 15.1631C43.8619 15.1631 42.693 15.2325 41.5356 15.3714L20.0089 15.8228L18.8979 36.2037H19.0715C19.002 36.5741 18.9442 36.9328 18.8979 37.28C18.8979 37.28 18.7937 42.2798 18.8979 43.9464C19.1409 47.592 20.3214 50.9599 22.1963 53.9459C22.0574 51.8279 21.9533 50.2308 21.9185 49.6058C21.7449 46.481 19.8006 28.5652 34.3832 22.3155C48.9658 16.0658 59.4167 25.1279 59.4167 25.1279C59.4167 25.1279 63.2359 29.6415 66.5344 29.4679C67.7149 29.4332 69.4509 28.9471 71.1869 28.3569Z" fill="#FE2F00"/>
<path d="M60.9446 85.2988C60.8751 82.3823 61.5001 79.5699 63.2361 77.5561C61.014 74.9521 59.2433 73.7022 56.0837 72.1398C55.5282 75.8548 52.8547 81.8615 47.9244 83.285C40.8414 85.3335 36.6402 79.2227 34.4876 71.7578C32.3349 72.73 30.3211 73.9452 28.5156 75.4382C29.3489 78.4936 30.7377 84.0836 31.0502 89.0139C35.668 90.611 40.6331 91.4443 45.7717 91.4443C51.2575 91.4443 56.5003 90.4722 61.3265 88.7014C61.0487 87.5904 60.9446 86.4446 60.9446 85.2988Z" fill="#240000"/>
<path d="M65.1458 27.5238C65.1805 27.871 65.3888 33.5305 66.8818 35.6137C68.4095 37.6969 70.701 39.5371 70.701 39.8843C70.701 40.2315 71.0482 41.9675 71.0482 41.9675L71.7426 41.6203C71.7426 41.6203 72.6801 31.7944 74.0689 31.8986C75.4577 32.0375 76.6035 33.5305 76.6035 33.5305C76.6035 33.5305 79.9714 27.385 77.9923 24.399C76.048 21.3783 65.0416 25.7878 65.1458 27.5238Z" fill="#C93F6D"/>
<path d="M59.6597 23.2883C59.6597 23.2883 49.1741 14.1915 34.5915 20.4412C20.0089 26.6909 21.988 44.6414 22.1616 47.7662C22.3352 50.8911 24.0712 78.6675 24.0712 78.6675L22.5088 78.8411V75.5426L17.9952 75.7162C17.9952 75.7162 14.5231 22.7675 18.1688 15.4762C21.8144 8.18489 32.925 2.1088 44.7299 2.80321C56.5349 3.49762 58.4445 7.49048 58.4445 7.49048C58.4445 7.49048 61.0486 5.23365 68.8607 8.35849C76.6728 11.4833 77.02 21.0315 77.02 21.0315L78.9296 20.3371L77.7144 23.9827C77.7144 23.9827 70.0759 27.4548 66.7774 27.6284C63.479 27.802 59.6597 23.2883 59.6597 23.2883Z" fill="#F47098"/>
<path d="M62.4376 88.3189C62.6922 86.9301 62.9584 85.5412 63.2362 84.1524C63.4098 83.2497 63.8958 81.9997 63.8264 81.097C63.6875 79.6388 62.1251 79.8124 60.9099 79.4999C60.0419 79.2916 58.7572 78.9444 58.0975 79.8471C57.8892 80.1248 57.8892 80.8887 57.8198 81.2359C57.5651 82.6247 57.299 84.002 57.0212 85.3676C56.7087 86.9648 56.4657 88.6314 56.0837 90.2285C58.2364 89.7424 60.3891 89.1869 62.4376 88.3189Z" fill="#ECC933"/>
<path d="M58.8964 80.2996C58.8964 80.2996 60.1463 74.5012 60.7713 74.2929C61.674 74.0152 62.4379 72.9388 63.41 72.8347C64.9725 72.6958 64.3475 74.2929 64.1044 75.2998C64.0003 75.7165 63.2017 81.4453 62.6462 81.237C62.6462 81.237 58.688 81.3412 58.8964 80.2996Z" fill="#C93F6D"/>
<path d="M67.0557 73.459C66.6044 72.1744 66.2919 70.8203 66.0836 69.4662C65.9447 68.3899 65.8405 67.2788 65.9794 66.1677C66.0488 65.89 66.1183 64.9525 66.4308 64.7789C67.0905 64.4664 67.264 65.6469 67.3335 66.0636C67.5071 65.5081 67.5765 64.8831 67.5765 64.2928C68.3751 64.2928 68.8959 63.9109 69.6945 64.0151C70.3889 64.1192 71.0486 64.2928 71.6735 64.5359C72.4374 64.8136 73.9998 65.4733 74.1387 66.3413C74.2429 67.0705 73.2013 69.119 72.8888 69.8481C73.5137 69.2926 74.0346 68.6329 74.3818 67.9038C73.8957 70.5078 71.986 71.7925 69.9375 73.1813C69.5209 73.459 67.4377 74.8131 66.9863 74.3618C66.6738 74.0493 67.1599 73.7368 67.0557 73.459Z" fill="#240000"/>
<path d="M65.8752 86.4792L68.8611 73.6673L67.0556 73.459C67.0556 73.459 64.7294 83.6321 63.6877 87.7291C64.4284 87.3587 65.1576 86.9421 65.8752 86.4792Z" fill="#CC5200"/>
<path d="M56.9866 90.0201V77.9026C56.9866 76.3749 55.7714 75.125 54.2437 75.125H53.0979C51.5702 75.125 50.355 76.3749 50.355 77.9026V91.27C52.6118 90.8534 54.8339 90.5062 56.9866 90.0201Z" fill="white"/>
<path d="M56.5005 79.2917C56.5005 80.8194 55.2506 82.0694 53.7229 82.0694C52.1952 82.0694 50.98 80.8194 50.98 79.2917C50.98 77.764 52.1952 76.5488 53.7229 76.5488C55.2506 76.5488 56.5005 77.764 56.5005 79.2917Z" fill="#631D6B"/>
<path d="M56.5355 85.4368C56.5355 86.9645 55.2855 88.1797 53.7578 88.1797C52.2301 88.1797 51.0149 86.9645 51.0149 85.4368C51.0149 83.9091 52.2301 82.6592 53.7578 82.6592C55.2855 82.6592 56.5355 83.9091 56.5355 85.4368Z" fill="#C93F6D"/>
<path d="M56.1188 90.1937C55.6327 89.4646 54.7995 88.9785 53.8273 88.9785C52.5426 88.9785 51.4316 89.8813 51.1538 91.1312C52.8551 90.8187 54.487 90.5409 56.1188 90.1937Z" fill="#F47098"/>
<path d="M60.5977 74.9864C60.5977 74.9864 60.8407 74.9169 61.2226 74.8475C61.3846 74.8244 61.5583 74.7896 61.7434 74.7433C61.9518 74.6739 62.1253 74.6392 62.2989 74.5697C62.6809 74.4309 62.9934 74.2225 63.2711 74.0142C63.41 73.9448 63.5142 73.8406 63.6183 73.7712C63.6878 73.7017 63.7572 73.667 63.7572 73.667C63.7572 73.667 63.7919 73.9448 63.6531 74.3267C63.6183 74.3961 63.5836 74.5003 63.5142 74.6044C63.4447 74.7086 63.3753 74.8128 63.2711 74.8822C63.2017 74.9864 63.0975 75.0905 62.9586 75.16C62.8429 75.2294 62.7272 75.2873 62.6114 75.3336C62.3337 75.4378 62.0559 75.4725 61.8129 75.4725C61.5698 75.4725 61.3615 75.403 61.1532 75.3336C60.806 75.1947 60.5977 74.9864 60.5977 74.9864Z" fill="#891D6D"/>
<path d="M67.0554 73.459C67.0554 73.459 65.736 76.6186 65.3193 80.1948C65.3193 80.1948 66.2915 81.2364 67.3679 80.6114C67.3679 80.6114 69.59 76.2019 68.8608 73.6673C68.8608 73.6673 67.3678 72.834 67.0554 73.459Z" fill="#ECC933"/>
<path d="M75.4579 34.2606C75.6662 33.705 76.3953 33.3231 76.9161 33.6356C77.4716 33.9481 77.5411 34.6772 77.2286 35.1633C76.9161 35.6147 77.6452 36.0313 77.923 35.5799C78.548 34.6772 78.2008 33.3578 77.2286 32.8717C76.2217 32.3856 75.0065 33.0106 74.694 34.0522C74.5204 34.5383 75.319 34.7466 75.4579 34.2606Z" fill="white"/>
<path d="M76.1521 38.5301C76.291 37.8704 77.0548 38.4954 77.2284 38.7731C77.3673 38.9815 77.5062 39.1898 77.5756 39.4328C77.645 39.7106 77.5756 40.2661 77.159 40.162C76.6382 40.0578 76.3951 40.8911 76.9506 41.03C77.5409 41.1689 78.0964 40.8564 78.3742 40.3009C78.652 39.6412 78.3742 38.8773 77.9923 38.3218C77.6451 37.8357 77.159 37.3496 76.4993 37.3496C75.9438 37.3496 75.4229 37.7315 75.3188 38.2871C75.1799 38.8426 76.0132 39.0856 76.1521 38.5301Z" fill="white"/>
<path d="M73.8257 43.1831C74.416 42.8706 75.0062 43.322 74.8673 43.9816C75.0062 43.8428 75.1451 43.6923 75.284 43.5303C74.8442 43.6692 74.416 43.7965 73.9993 43.9122C73.7215 43.9817 73.5132 44.19 73.5479 44.5025C73.5827 44.7455 73.8604 45.0233 74.1382 44.9538C74.578 44.815 75.0178 44.6876 75.4576 44.5719C75.7006 44.5025 75.8395 44.3636 75.8742 44.1205C76.1867 42.697 74.659 41.5512 73.3743 42.2109C72.7841 42.5234 73.2007 43.4956 73.8257 43.1831Z" fill="white"/>
<g style="mix-blend-mode:multiply" opacity="0.55">
<path d="M40.633 11.4135C27.6476 13.4967 22.5784 25.0934 22.5784 36.2039C22.5784 36.3197 22.5784 36.4354 22.5784 36.5511C23.7241 30.5445 26.7795 23.8087 34.5916 20.4408C49.1743 14.1911 59.6598 23.2879 59.6598 23.2879C59.6598 23.2879 60.2848 24.017 61.257 24.885C61.8125 24.5726 62.1597 24.399 62.1597 24.399C62.1597 24.399 53.5838 9.33027 40.633 11.4135Z" fill="#F47098"/>
</g>
<path d="M54.2087 9.22707C58.7918 10.9284 62.3333 14.3657 64.243 18.8794C64.486 19.4696 65.3887 18.9488 65.1457 18.3586C63.1319 13.6019 59.3126 10.0256 54.4865 8.22017C53.8615 7.97713 53.5838 8.98403 54.2087 9.22707Z" fill="#FF99BB"/>
<path d="M66.1178 13.9479C66.8354 16.008 67.5645 18.0797 68.3052 20.1629C68.5135 20.7879 69.5204 20.5101 69.3121 19.8852C68.5714 17.8019 67.8423 15.7303 67.1247 13.6702C66.9164 13.0105 65.9095 13.2882 66.1178 13.9479Z" fill="#FF99BB"/>
<path d="M22.3699 22.0381C24.4531 16.0315 27.9599 10.129 34.6609 8.7749C35.3206 8.63602 35.0429 7.62911 34.3832 7.768C27.3349 9.19154 23.5504 15.4065 21.3977 21.7603C21.1547 22.3853 22.1615 22.6631 22.3699 22.0381Z" fill="#FF99BB"/>
<path d="M18.5159 32.6979C18.1918 36.6329 18.053 40.5795 18.0993 44.5376C18.0993 45.1973 19.1409 45.1973 19.1409 44.5376C19.0946 40.5795 19.2335 36.6329 19.5575 32.6979C19.5922 32.0382 18.5506 32.0382 18.5159 32.6979Z" fill="#FF99BB"/>
<path d="M19.0715 51.2721C19.141 58.0079 19.8007 64.6742 20.9812 71.3058C21.12 71.9655 22.1269 71.6878 21.9881 71.0281C20.8076 64.5006 20.1826 57.9384 20.1131 51.2721C20.1131 50.6124 19.0715 50.6124 19.0715 51.2721Z" fill="#FF99BB"/>
<path d="M25.773 26.1697C28.9325 20.5102 34.7655 17.1076 41.2583 17.2118C41.918 17.2118 41.918 16.1702 41.2583 16.1702C34.4183 16.066 28.2034 19.6769 24.8702 25.6489C24.5577 26.2391 25.4605 26.7599 25.773 26.1697Z" fill="#F47098"/>
<path d="M41.258 13.1494C47.2299 13.08 52.6463 15.5798 56.4655 20.1977C56.8822 20.7185 57.6113 19.9893 57.1947 19.4685C53.2365 14.6771 47.4729 12.0383 41.258 12.1078C40.5983 12.1078 40.5983 13.1494 41.258 13.1494Z" fill="#F47098"/>
<path d="M42.7511 7.52531C44.2441 6.90034 45.8066 7.10866 47.1259 8.11556C47.6467 8.5322 48.1675 7.59476 47.6467 7.21283C46.1538 6.06706 44.2094 5.82402 42.4734 6.51842C41.8484 6.76147 42.1262 7.76835 42.7511 7.52531Z" fill="#FF99BB"/>
<path d="M25.5644 60.4039C25.3561 63.2857 25.5644 66.1328 26.2241 68.9799C26.3977 69.6396 27.4046 69.3618 27.231 68.7021C26.606 65.9592 26.3977 63.2163 26.606 60.4039C26.6755 59.7443 25.6338 59.7443 25.5644 60.4039Z" fill="#F47098"/>
<path d="M29.2451 66.4801C29.2451 67.4986 29.2451 68.5055 29.2451 69.5008C29.2451 70.1952 30.2867 70.1952 30.2867 69.5008C30.2867 68.5055 30.2867 67.4986 30.2867 66.4801C30.2867 65.8204 29.2451 65.8204 29.2451 66.4801Z" fill="#F47098"/>
<path d="M35.7027 68.9113V65.4739C35.7027 64.7795 34.6611 64.7795 34.6611 65.4739V69.3973C34.9852 69.2122 35.3324 69.0502 35.7027 68.9113Z" fill="#F47098"/>
<path d="M68.0277 30.3366C68.1319 32.0726 68.9652 33.5309 70.354 34.5378C70.9095 34.9197 71.4303 34.0169 70.8748 33.635C69.7985 32.8712 69.1388 31.6559 69.0694 30.3366C68.9999 29.6769 67.9583 29.6769 68.0277 30.3366Z" fill="#F47098"/>
<path d="M71.8123 28.9821C71.8123 29.3293 71.8123 29.6649 71.8123 29.989C71.8123 30.6834 72.8539 30.6834 72.8539 29.989C72.8539 29.6649 72.8539 29.3293 72.8539 28.9821C72.8539 28.3224 71.8123 28.3224 71.8123 28.9821Z" fill="#F47098"/>
</svg>
