<svg width="53" height="58" viewBox="0 0 53 58" fill="none" xmlns="http://www.w3.org/2000/svg">
<path d="M52.1747 31.92C52.1747 46.2887 40.5335 57.9299 26.1648 57.9299C11.8159 57.9299 0.174683 46.2887 0.174683 31.92C0.174683 17.5514 11.8159 5.91016 26.1648 5.91016C40.5335 5.91016 52.1747 17.5514 52.1747 31.92Z" fill="#ECC933"/>
<path d="M45.3955 16.6034C43.0238 15.6745 40.1184 15.0222 33.7938 16.3464C28.3982 17.473 26.6589 17.7299 26.2636 17.7695C25.8683 17.7299 24.1093 17.473 18.7136 16.3464C12.389 15.0222 9.48368 15.6745 7.11195 16.6034C4.74023 17.5323 2.90214 20.5563 4.48329 28.0667C6.06444 35.5772 14.5038 39.53 14.5038 39.53C14.5038 39.53 24.8011 42.9097 26.2043 43.0283C26.2175 43.0415 26.2373 43.0481 26.2636 43.0481C26.2768 43.0481 26.2966 43.0415 26.3229 43.0283C27.7064 42.9097 38.0234 39.53 38.0234 39.53C38.0234 39.53 46.443 35.5772 48.0242 28.0667C49.6053 20.5563 47.7672 17.5323 45.3955 16.6034Z" fill="#AE0000"/>
<g style="mix-blend-mode:multiply" opacity="0.44">
<path d="M42.7867 16.8401C40.7312 15.9705 38.2211 15.3578 32.7662 16.603C28.1018 17.6702 26.5997 17.9074 26.2637 17.9667C25.9079 17.9074 24.4059 17.6702 19.7415 16.603C14.2865 15.3578 11.7764 15.9705 9.7407 16.8401C7.68521 17.7295 6.10406 20.5954 7.4678 27.7105C8.83154 34.8257 16.1048 38.5809 16.1048 38.5809C16.1048 38.5809 24.9988 41.7827 26.2044 41.9013C26.2176 41.9013 26.2374 41.9013 26.2637 41.9013C26.2769 41.9013 26.2901 41.9013 26.3032 41.9013C27.5089 41.7827 36.4028 38.5809 36.4028 38.5809C36.4028 38.5809 43.6959 34.8257 45.0596 27.7105C46.4233 20.5954 44.8224 17.7295 42.7867 16.8401Z" fill="#560000"/>
</g>
<path d="M26.3229 57.6339C31.0466 57.6339 35.454 56.369 39.2685 54.1949C37.0747 48.8981 31.8767 45.1626 25.7892 45.1626C19.9192 45.1626 14.8398 48.6609 12.5471 53.681C16.5395 56.1911 21.2632 57.6339 26.3229 57.6339Z" fill="#CF0000"/>
<path d="M25.6311 47.5341C25.6311 50.8677 25.6311 54.1947 25.6311 57.5151C25.6311 57.8906 26.224 57.8906 26.224 57.5151C26.224 54.1815 26.224 50.8545 26.224 47.5341C26.224 47.1586 25.6311 47.1586 25.6311 47.5341Z" fill="#AE0000"/>
<path d="M11.4996 24.4098C11.4996 24.4098 8.83145 22.2357 7.84324 25.6944C6.85502 29.1532 11.1044 32.1179 11.8949 31.9202L11.4996 24.4098Z" fill="#FF7E3E"/>
<path d="M40.6126 24.4098C40.6126 24.4098 43.2808 22.2357 44.269 25.6944C45.2572 29.1532 41.0079 32.1179 40.2173 31.9202L40.6126 24.4098Z" fill="#FF7E3E"/>
<path opacity="0.3" d="M11.4996 24.4098C11.4996 24.4098 8.83145 22.2357 7.84324 25.6944C6.85502 29.1532 11.1044 32.1179 11.8949 31.9202L11.4996 24.4098Z" fill="#FE2F00"/>
<path opacity="0.3" d="M40.6126 24.4098C40.6126 24.4098 43.2808 22.2357 44.269 25.6944C45.2572 29.1532 41.0079 32.1179 40.2173 31.9202L40.6126 24.4098Z" fill="#FE2F00"/>
<path d="M27.0344 48.1862H24.7812C23.9116 48.1862 23.2001 47.4746 23.2001 46.605V42.1383C23.2001 41.2686 23.9116 40.5571 24.7812 40.5571H27.0344C27.904 40.5571 28.6155 41.2686 28.6155 42.1383V46.605C28.6155 47.4746 27.904 48.1862 27.0344 48.1862Z" fill="#FF7E3E"/>
<g style="mix-blend-mode:multiply" opacity="0.73">
<path d="M27.0344 40.5571H24.7812C23.9116 40.5571 23.2001 41.2686 23.2001 42.1383V43.8182C24.1685 44.0159 25.1765 44.1147 26.1845 44.1147C27.0014 44.1147 27.8118 44.0488 28.6155 43.9171V42.1383C28.6155 41.2686 27.904 40.5571 27.0344 40.5571Z" fill="#F9AB64"/>
</g>
<path d="M40.6126 14.3298H27.9239C27.2651 14.2375 26.5931 14.1914 25.9079 14.1914C25.2359 14.1914 24.5706 14.2375 23.9117 14.3298H11.0254V26.1884H11.1242C11.0847 26.386 11.0517 26.5902 11.0254 26.8011C11.0254 26.8011 10.9661 29.6471 11.0254 30.5761C11.4997 37.7505 18.2789 43.1857 25.9079 43.1857C33.1417 43.1857 39.8813 38.383 40.6126 31.7224C41.0672 27.394 40.6126 14.3298 40.6126 14.3298Z" fill="#FF7E3E"/>
<path opacity="0.3" d="M23.1605 33.3037C23.1605 33.3037 23.6941 33.8966 24.9986 33.4421C26.3228 32.9677 27.2517 32.9084 27.4494 33.699C27.647 34.4896 25.8682 35.5371 24.544 35.5371C23.8127 35.5371 22.0339 34.1536 23.1605 33.3037Z" fill="#FE2F00"/>
<path d="M24.386 27.454C24.386 28.9956 24.386 30.5372 24.386 32.0789C24.5704 32.0262 24.7549 31.9735 24.9394 31.9207C24.1686 30.5768 22.4886 31.2883 22.5676 32.7509C22.6862 34.3913 24.5045 35.1226 25.7695 34.1936C26.0857 33.9762 25.7892 33.4426 25.473 33.6798C25.0514 34.0751 24.5243 34.1409 23.8918 33.8774C23.3977 33.6798 23.1606 33.2054 23.3384 32.7113C23.5756 32.0196 23.8919 31.9603 24.465 32.1382C24.722 32.2172 24.6034 32.5334 24.9394 32.1974C25.137 31.9998 24.9789 30.9128 24.9789 30.6361C24.9789 29.582 24.9789 28.5213 24.9789 27.454C24.9789 27.0785 24.386 27.0785 24.386 27.454Z" fill="#AF4700"/>
<path opacity="0.3" d="M36.8572 33.8966C36.8572 35.0231 35.454 35.9323 33.7345 35.9323C32.015 35.9323 30.6117 35.0231 30.6117 33.8966C30.6117 32.77 32.015 31.8608 33.7345 31.8608C35.454 31.8608 36.8572 32.77 36.8572 33.8966Z" fill="#FE2F00"/>
<path opacity="0.3" d="M20.3936 34.4303C20.3936 35.5766 18.9903 36.4857 17.2708 36.4857C15.5316 36.4857 14.1283 35.5766 14.1283 34.4303C14.1283 33.3037 15.5316 32.3945 17.2708 32.3945C18.9903 32.3945 20.3936 33.3037 20.3936 34.4303Z" fill="#FE2F00"/>
<path d="M34.9598 29.0544C34.9598 30.1019 34.4459 30.9715 33.7937 30.9715C33.1612 30.9715 32.6473 30.1019 32.6473 29.0544C32.6473 28.0068 33.1612 27.1372 33.7937 27.1372C34.4459 27.1372 34.9598 28.0068 34.9598 29.0544Z" fill="#560000"/>
<path d="M18.2194 29.0544C18.2194 30.1019 17.7055 30.9715 17.0731 30.9715C16.4209 30.9715 15.907 30.1019 15.907 29.0544C15.907 28.0068 16.4209 27.1372 17.0731 27.1372C17.7055 27.1372 18.2194 28.0068 18.2194 29.0544Z" fill="#560000"/>
<path d="M23.8523 41.4268C24.4453 42.1185 25.3149 42.4545 26.224 42.3359C26.5996 42.2766 26.5205 41.6837 26.145 41.743C25.4532 41.8418 24.7812 41.6046 24.3267 41.071C24.0697 40.7745 23.5954 41.1303 23.8523 41.4268Z" fill="#AF4700"/>
<path d="M25.9472 33.3826C26.1646 33.4617 26.3425 33.6198 26.4611 33.7977C26.6588 34.1139 27.1726 33.8174 26.975 33.5012C26.7576 33.185 26.4611 32.9478 26.1054 32.8095C25.7496 32.6711 25.5915 33.2443 25.9472 33.3826Z" fill="#AF4700"/>
<path fill-rule="evenodd" clip-rule="evenodd" d="M32.8452 24.6865C31.3629 25.0422 30.7304 22.7496 32.2127 22.3938C33.9322 21.9787 35.7308 22.4729 36.9364 23.7773C37.9839 24.8841 36.304 26.5641 35.2762 25.4375C34.624 24.7655 33.7544 24.4691 32.8452 24.6865ZM14.2469 23.8959C15.5118 22.7496 17.2116 22.3147 18.852 22.8088C20.3146 23.2437 19.6821 25.5363 18.2196 25.1015C17.4092 24.8446 16.5594 24.9829 15.9269 25.5561C14.7806 26.5838 13.1006 24.9039 14.2469 23.8959Z" fill="#240000"/>
<path d="M34.8804 24.2516C35.5919 25.0422 36.6196 24.469 36.837 23.6785C35.6314 22.4531 33.8724 21.9985 32.2122 22.3938C31.7181 22.5124 31.4611 22.8484 31.3821 23.2437C31.639 23.4808 32.0145 23.5994 32.4494 23.5006C33.3585 23.2832 34.2281 23.5797 34.8804 24.2516Z" fill="#560000"/>
<path d="M19.2469 23.0262C19.1481 22.9274 19.0097 22.8681 18.8516 22.8088C17.2112 22.3147 15.5114 22.7495 14.2465 23.8959C14.0686 24.0342 13.9698 24.2121 13.9105 24.3702C14.3453 24.7457 14.9976 24.8643 15.5312 24.3702C16.1637 23.797 17.0135 23.6587 17.8239 23.9156C18.5947 24.133 19.1283 23.6192 19.2469 23.0262Z" fill="#560000"/>
<path d="M43.0831 25.6747C42.8262 25.3782 42.4309 25.2991 42.0554 25.4572C41.5613 25.6549 41.3834 26.1885 41.3044 26.6826C41.2253 27.0186 41.1858 27.493 41.4822 27.7499C41.6601 27.8883 41.8182 27.8685 42.0159 27.8883C42.2135 27.8883 42.3914 27.8685 42.5693 27.9871C42.9448 28.2045 42.9053 28.9951 42.3123 28.7777C41.9566 28.6393 41.7985 29.2125 42.1542 29.3311C42.9646 29.6473 43.7354 28.7381 43.3599 27.9673C43.1622 27.5918 42.7669 27.3349 42.3321 27.2953C41.9961 27.2558 41.8182 27.3744 41.8578 26.9198C41.8578 26.6431 42.1938 25.5561 42.6681 26.1095C42.9053 26.3862 43.3203 25.9711 43.0831 25.6747Z" fill="#AF4700"/>
<path d="M9.22659 25.8126C9.77999 25.6149 10.3136 26.5043 10.0962 26.9391C9.93811 27.2751 9.70093 27.117 9.42423 27.1961C9.18706 27.2751 8.96965 27.4135 8.87083 27.6704C8.5546 28.5796 9.58235 29.0341 10.195 29.3701C10.5113 29.5678 10.8275 29.0539 10.4915 28.8563C10.3532 28.797 10.2148 28.7179 10.0765 28.6389C9.76023 28.461 9.46376 28.3819 9.58235 28.0064C9.7207 27.6111 9.89858 27.8285 10.2148 27.7297C10.5903 27.6111 10.6892 27.2949 10.6892 26.9391C10.6892 26.0497 10.1357 24.8441 9.06847 25.2394C8.71272 25.3777 8.87083 25.9509 9.22659 25.8126Z" fill="#AF4700"/>
<path d="M20.8681 36.3678C20.8681 36.3678 22.7852 37.5537 25.315 37.5141C27.9042 37.4746 30.1771 35.6958 30.1771 35.6958C30.1771 35.6958 30.3747 36.1306 30.9083 36.0911C30.9083 36.0911 29.9794 40.3009 25.0779 39.9649C20.1763 39.6091 20.2158 36.7433 20.2158 36.7433L20.8681 36.3678Z" fill="#560000"/>
<path d="M21.6191 38.9562C22.3504 39.4503 23.4375 39.8456 25.0779 39.9641C26.9753 40.0827 28.2797 39.5293 29.1691 38.8178C26.8369 37.1576 22.469 38.6597 21.6191 38.9562Z" fill="#E02F00"/>
<path d="M25.3151 37.5136C24.1886 37.5334 23.1806 37.316 22.4098 37.059C22.4296 37.2962 22.6667 37.8694 23.2794 38.3042C23.9514 38.7588 24.2676 38.8181 25.6116 38.8181C26.9358 38.8181 28.0822 38.403 28.4972 37.8891C28.7541 37.5334 28.8332 36.9207 28.853 36.5254C27.9438 36.9997 26.6591 37.4938 25.3151 37.5136Z" fill="white"/>
<path d="M22.4098 37.059C22.4296 37.2567 22.6074 37.731 23.0818 38.1263C23.0423 38.0473 22.726 37.316 22.8644 37.4148C23.0225 37.5136 23.9119 37.9287 25.4535 37.9287C26.9951 37.9287 28.2205 37.2171 28.2205 37.2171C28.2205 37.2171 28.3786 37.9089 28.1217 38.2054C28.2666 38.1 28.3918 37.9945 28.4972 37.8891C28.7541 37.5334 28.8332 36.9207 28.853 36.5254C27.9438 36.9997 26.6591 37.4938 25.3151 37.5136C24.1886 37.5334 23.1806 37.316 22.4098 37.059Z" fill="#DBDBDB"/>
<path d="M19.4647 37.1773C20.4727 37.118 21.2831 36.3077 21.3621 35.2997C21.4017 34.9242 20.8087 34.9242 20.7692 35.2997C20.7099 35.9717 20.1367 36.5449 19.4647 36.5844C19.0892 36.6042 19.0892 37.1971 19.4647 37.1773Z" fill="#AF4700"/>
<path d="M29.6236 34.3314C29.3469 34.9046 29.5643 35.4975 29.9992 35.9323C30.4933 36.4066 31.0862 36.3869 31.7187 36.2683C32.0942 36.209 31.9361 35.6358 31.5605 35.7149C31.2048 35.7742 30.8095 35.8335 30.513 35.5963C30.2363 35.3789 29.9596 34.9836 30.1375 34.6279C30.3154 34.2919 29.8015 33.9954 29.6236 34.3314Z" fill="#AF4700"/>
<path d="M38.0431 54.8467C30.2296 54.8467 22.4226 54.8467 14.6223 54.8467C15.5051 55.2947 16.4077 55.69 17.33 56.0325C23.3252 56.0325 29.3204 56.0325 35.3156 56.0325C36.2511 55.69 37.1603 55.2947 38.0431 54.8467Z" fill="#FFC23E"/>
<path d="M13.1203 52.5737C12.9095 52.9295 12.7184 53.2984 12.5471 53.6805C12.5866 53.7069 12.6328 53.7332 12.6855 53.7596C21.474 53.7596 30.2692 53.7596 39.0709 53.7596C38.8864 53.3511 38.6888 52.9558 38.478 52.5737C30.0188 52.5737 21.5663 52.5737 13.1203 52.5737Z" fill="#FFC23E"/>
<path d="M22.6666 45.4984C22.4689 45.3205 19.3066 47.0005 18.9113 48.0282C18.516 49.056 22.7258 51.6847 22.7258 51.6847L25.8684 48.1468L29.5643 51.6254C29.5643 51.6254 32.5685 48.4433 32.6476 47.633C32.7266 46.8226 29.1295 45.5577 29.1295 45.5577L25.8881 47.8701C25.8881 47.8701 23.8326 46.4669 22.6666 45.4984Z" fill="#AE0000"/>
<path d="M11.0252 14.3299C11.0252 14.3299 10.8868 1.58191 25.5322 1.48309C41.1461 1.38426 39.6637 12.3535 40.2567 14.5276L26.5205 18.184C26.5205 18.184 11.045 15.1205 11.0252 14.3299Z" fill="#AE0000"/>
<g style="mix-blend-mode:multiply" opacity="0.55">
<path d="M33.6357 6.72095C33.4974 6.50354 29.1887 3.24243 26.8961 1.50316C26.4612 1.48999 26.0067 1.4834 25.5323 1.4834C24.9394 1.4834 24.3662 1.52293 23.8128 1.56245C21.1644 3.38077 16.4407 6.62213 16.4407 6.62213L15.8478 14.8243C16.3221 15.4173 16.8953 15.8916 17.5475 16.2671C19.7414 16.781 22.0933 17.2751 23.8326 17.6309C29.2085 17.6111 34.9204 15.6149 34.9204 15.6149C34.9204 15.6149 33.8333 7.01742 33.6357 6.72095Z" fill="#AE0000"/>
</g>
<g style="mix-blend-mode:multiply" opacity="0.55">
<path d="M36.6991 15.4766C36.62 14.8639 35.612 6.89883 35.4144 6.62213C35.276 6.42448 31.3825 3.45983 29.0305 1.66128C27.983 1.54269 26.8367 1.4834 25.5717 1.4834C22.9233 3.30172 18.2194 6.52331 18.2194 6.52331L17.6265 14.7255C20.3737 18.1843 26.5797 17.8088 31.1651 16.9391L36.6991 15.4766Z" fill="#AE0000"/>
</g>
<path d="M40.6124 15.1208H27.9237C27.2649 15.0285 26.5929 14.9824 25.9077 14.9824C25.2357 14.9824 24.5703 15.0285 23.9115 15.1208H11.0251V25.7145L11.5983 26.6434L11.9936 20.3188C11.9936 20.3188 13.97 22.1766 16.3418 20.0619C16.3418 20.0619 20.5516 22.5719 25.0381 17.9471C25.0381 17.9471 30.1768 22.5719 32.9438 20.0619C32.9438 20.0619 34.7819 22.6905 36.6398 20.0619C36.6398 20.0619 38.2209 20.8524 39.1301 19.8049L39.8021 27.3154L40.81 25.7738C40.81 20.7141 40.6124 15.1208 40.6124 15.1208Z" fill="#560000"/>
<path d="M16.7372 14.824L17.3301 6.62179C17.3301 6.62179 25.3742 1.1273 26.3624 0.435547C26.3624 0.435547 34.3275 6.42414 34.5251 6.72061C34.7227 7.01707 35.8098 15.6146 35.8098 15.6146C35.8098 15.6146 21.3818 20.6545 16.7372 14.824Z" fill="#E02F00"/>
<path d="M34.525 6.72124C34.4855 6.66194 34.0902 6.34572 33.4972 5.87137C31.086 3.99376 27.2517 1.12793 27.2517 1.12793C26.2635 1.81968 18.2194 7.31417 18.2194 7.31417L17.6265 15.5164C17.8043 15.7535 18.0218 15.9512 18.2194 16.1488C23.8918 19.7855 35.8097 15.6152 35.8097 15.6152C35.8097 15.6152 34.7226 7.0177 34.525 6.72124Z" fill="#CF0000"/>
<path d="M21.5005 17.0969C21.5005 17.0969 22.1132 13.144 19.7019 9.38879L26.2637 5.23828L32.6476 9.38879C32.6476 9.38879 29.4853 13.4405 30.9676 17.8875C30.9676 17.8875 22.3306 21.0498 21.5005 17.0969Z" fill="#AE0000"/>
<path d="M21.8759 16.1086C21.8759 16.1086 22.4688 12.1557 20.1959 8.40051L26.3624 4.25L32.351 8.40051C32.351 8.40051 29.3863 12.4522 30.7699 16.8992C30.7699 16.8992 22.6665 20.0615 21.8759 16.1086Z" fill="#FFC23E"/>
<path d="M26.4217 4.28953L26.3624 4.25L20.1959 8.40051C22.4688 12.1557 21.8759 16.1086 21.8759 16.1086C22.2514 18.0258 24.3662 18.2629 26.4217 18.006V4.28953Z" fill="#FFF13E"/>
<g style="mix-blend-mode:multiply" opacity="0.44">
<path d="M4.08801 21.7813C4.08801 21.7813 6.32139 18.2237 10.4126 17.947C14.5038 17.6901 20.2948 20.2001 25.9672 20.4571C31.6198 20.714 37.0747 17.2948 40.4742 17.6308C43.8737 17.947 47.4313 20.3187 48.2218 22.6904C48.2218 22.6904 48.7555 16.1089 41.7786 14.923C34.7821 13.7372 32.0151 17.5517 27.153 17.2948C22.2712 17.0378 16.2036 15.18 15.0177 15.0614C13.8318 14.923 5.66916 13.5988 4.08801 21.7813Z" fill="#560000"/>
</g>
<path d="M4.2262 20.8526C4.2262 20.8526 6.45957 17.295 10.5508 17.0381C14.6222 16.7614 20.433 19.2715 26.0856 19.5284C31.7579 19.8051 37.1931 16.3661 40.6124 16.7021C44.0118 17.0381 47.5694 19.4098 48.36 21.7815C48.36 21.7815 48.8936 15.1802 41.8971 13.9944C34.9202 12.8085 32.1532 16.6428 27.2714 16.3661C22.4094 16.1092 16.3417 14.2711 15.1559 14.1327C13.97 13.9944 5.80734 12.6899 4.2262 20.8526Z" fill="#E02F00"/>
<path d="M41.8973 14.864C34.9204 13.6781 32.1534 17.4926 27.2716 17.2357C22.4096 16.959 16.3419 15.1209 15.1561 14.9825C14.0295 14.864 6.71669 13.6979 4.56238 20.3782C5.33319 19.4098 7.36892 17.2357 10.551 17.038C14.6224 16.7613 20.4332 19.2714 26.0858 19.5283C31.7581 19.805 37.1933 16.3661 40.6126 16.702C43.9923 17.038 47.5301 19.3702 48.3404 21.742C48.2021 19.9039 47.2929 15.7731 41.8973 14.864Z" fill="#CF0000"/>
</svg>
