<svg width="91" height="94" viewBox="0 0 91 94" fill="none" xmlns="http://www.w3.org/2000/svg">
<path d="M90.4575 46.592C90.4575 70.8895 70.3136 90.5749 45.4841 90.5749C20.6205 90.5749 0.476562 70.8895 0.476562 46.592C0.476562 22.3279 20.6205 2.64258 45.4841 2.64258C70.3136 2.64258 90.4575 22.3279 90.4575 46.592Z" fill="#313F49"/>
<path d="M32.4877 5.24892C32.4877 5.24892 26.5369 -0.766976 17.2002 6.35183C9.91555 11.9332 12.2412 15.643 12.2412 21.2245C12.2412 21.2245 2.15208 23.2966 6.70072 29.9809C6.70072 29.9809 -3.55937 37.7682 2.15208 46.0233C7.86353 54.245 10.1207 52.4737 10.1207 52.4737C10.1207 52.4737 4.92231 57.3532 10.0181 62.1659C15.1482 66.9452 16.7556 64.9399 16.7556 64.9399C16.7556 64.9399 13.3698 69.2179 18.1236 71.1898C28.8283 75.6349 33.3769 66.2768 33.3769 66.2768C33.3769 66.2768 39.2252 69.1511 41.3798 69.1845C51.6399 69.4184 54.1365 65.6084 54.1365 65.6084C54.1365 65.6084 54.1365 72.0922 63.0286 72.0922C71.9207 72.0922 74.4173 64.071 74.4173 64.071C74.4173 64.071 81.2574 65.8423 84.6774 59.8264C88.0974 53.8105 83.5488 48.697 83.5488 48.697C83.5488 48.697 86.5242 42.0127 83.3094 40.0074C83.3094 40.0074 90.1494 37.7682 88.5762 31.5183C86.9688 25.3019 79.1711 23.1629 79.1711 23.1629C79.1711 23.1629 83.5488 19.7205 80.8128 16.3783C78.0767 13.0362 76.9481 14.607 76.9481 14.607C76.9481 14.607 79.4447 0.569885 66.2092 2.77571C53.0079 5.01496 55.5045 7.6887 55.5045 7.6887C55.5045 7.6887 52.0845 0.335938 47.9805 0.335938C43.8764 0.335938 40.0118 5.6834 40.0118 5.6834C40.0118 5.6834 37.2758 1.43886 32.4877 5.24892Z" fill="#5292D1"/>
<path d="M88.3029 31.2509C87.8241 29.4128 86.6612 27.6748 85.2932 26.4717C83.5832 24.9677 81.3944 23.7645 79.1714 23.1629C80.3 23.4637 81.839 19.6536 81.8048 18.8181C81.668 17.0467 80.2316 14.9412 78.4874 14.373C78.2138 14.3062 77.051 14.0388 76.9484 14.607C76.9484 14.5736 77.1878 13.103 77.1194 11.198C76.8458 11.2982 76.709 11.4653 76.709 11.4653C76.709 11.4653 76.88 10.5964 76.88 9.32636C76.2302 5.61656 73.8361 1.50569 66.2095 2.77571C55.8126 4.54706 55.1628 6.55236 55.3338 7.35448C54.6156 5.91735 51.5718 0.335938 47.9807 0.335938C43.8767 0.335938 40.0121 5.6834 40.0121 5.6834C40.0121 5.6834 37.276 1.43886 32.488 5.24892C32.488 5.24892 26.5371 -0.766976 17.2005 6.35183C12.5834 9.8611 11.831 12.6351 11.8994 15.6096C11.945 16.2112 11.9792 16.8351 12.002 17.4812C12.1046 18.651 12.2414 19.8876 12.2414 21.2245C12.2414 21.2245 9.437 22.1603 9.23179 22.2605C7.76118 22.9624 6.18796 24.0653 5.57236 25.6027C4.88835 27.3072 5.77756 28.5772 6.73517 29.9809C5.60656 30.7496 4.61475 31.8525 3.75975 32.8886C2.52854 34.3592 -0.070688 37.7682 0.476517 39.8403C0.750119 40.843 1.22892 41.8456 1.91292 42.8817C3.28093 44.8535 4.54635 47.1596 6.59837 48.5299C7.07717 48.8641 7.62438 49.1315 8.20578 49.2986C8.61619 49.4323 9.47119 49.332 9.81319 49.566C12.6518 51.5044 7.14557 54.3453 7.93218 56.384C8.23998 57.253 8.85558 58.1219 9.81319 59.0243C14.8748 63.8036 16.4823 61.8652 16.5165 61.8317C11.5574 67.9479 22.7751 70.1203 26.8791 68.6832C29.4784 67.7808 31.9408 65.6418 33.172 63.1686C33.172 63.1686 38.986 66.0094 41.1407 66.0763C51.4008 66.2768 53.8974 62.5002 53.8974 62.5002C53.8974 62.5002 53.8974 68.9505 62.7894 68.9505C71.6815 68.9505 74.2123 60.9293 74.2123 60.9293C74.2123 60.9293 81.0524 62.7341 84.4724 56.7182C85.1906 55.4148 85.5668 54.1448 85.6694 52.975C85.8404 51.3039 83.8568 50.1342 83.6174 48.7639C83.378 47.4604 84.6092 45.4886 84.6092 44.0514C84.575 42.7146 84.575 40.8764 83.3438 40.0074C84.4382 40.7761 87.653 36.5316 88.0293 35.696C88.6791 34.2923 88.7133 32.7215 88.3029 31.2509Z" fill="#90DDF4"/>
<path d="M45.4157 90.2746C53.5896 90.2746 61.2163 88.169 67.8169 84.4592C64.0207 75.5022 55.026 69.1855 44.4923 69.1855C34.3348 69.1855 25.5454 75.1012 21.5781 83.5903C28.4866 87.8348 36.6605 90.2746 45.4157 90.2746Z" fill="#E02F00"/>
<path d="M19.7653 34.0926C19.7653 34.0926 15.1483 30.4162 13.4383 36.265C11.7283 42.1138 19.0813 47.127 20.4493 46.7928L19.7653 34.0926Z" fill="#FF7E3E"/>
<path d="M70.1427 34.0926C70.1427 34.0926 74.7598 30.4162 76.4698 36.265C78.1798 42.1138 70.8268 47.127 69.4587 46.7928L70.1427 34.0926Z" fill="#FF7E3E"/>
<path opacity="0.3" d="M19.7653 34.0926C19.7653 34.0926 15.1483 30.4162 13.4383 36.265C11.7283 42.1138 19.0813 47.127 20.4493 46.7928L19.7653 34.0926Z" fill="#FE2F00"/>
<path opacity="0.3" d="M70.1427 34.0926C70.1427 34.0926 74.7598 30.4162 76.4698 36.265C78.1798 42.1138 70.8268 47.127 69.4587 46.7928L70.1427 34.0926Z" fill="#FE2F00"/>
<path d="M46.6468 74.2992H42.748C41.2432 74.2992 40.012 73.096 40.012 71.6254V64.0722C40.012 62.6016 41.2432 61.3984 42.748 61.3984H46.6468C48.1516 61.3984 49.3828 62.6016 49.3828 64.0722V71.6254C49.3828 73.096 48.1516 74.2992 46.6468 74.2992Z" fill="#EF672B"/>
<g style="mix-blend-mode:multiply" opacity="0.73">
<path d="M46.6468 61.3984H42.748C41.2432 61.3984 40.012 62.6016 40.012 64.0722V66.9464C41.6878 67.2472 43.432 67.4143 45.1762 67.4143C46.5898 67.4143 47.992 67.3029 49.3828 67.0801V64.0722C49.3828 62.6016 48.1516 61.3984 46.6468 61.3984Z" fill="#F9AB64"/>
</g>
<path d="M70.1426 17.0474H48.186C47.046 16.9137 45.8832 16.8358 44.6976 16.8135C43.5348 16.8358 42.3834 16.9137 41.2434 17.0474H18.9448V37.1004H19.1158C19.0474 37.4346 18.9904 37.78 18.9448 38.1365C18.9448 38.1365 18.8422 42.9492 18.9448 44.5534C19.7656 56.6521 31.4963 65.843 44.6976 65.843C57.2149 65.843 68.8772 57.7216 70.1426 46.4585C70.9292 39.1391 70.1426 17.0474 70.1426 17.0474Z" fill="#EF672B"/>
<path d="M63.6447 50.1348C63.6447 52.0398 61.2165 53.6107 58.241 53.6107C55.2656 53.6107 52.8374 52.0398 52.8374 50.1348C52.8374 48.2298 55.2656 46.6924 58.241 46.6924C61.2165 46.6924 63.6447 48.2298 63.6447 50.1348Z" fill="#E8470F"/>
<path d="M35.1557 51.0706C35.1557 52.9756 32.7275 54.513 29.7521 54.513C26.7424 54.513 24.3142 52.9756 24.3142 51.0706C24.3142 49.1321 26.7424 47.5947 29.7521 47.5947C32.7275 47.5947 35.1557 49.1321 35.1557 51.0706Z" fill="#E8470F"/>
<path d="M74.4175 36.265C73.9729 35.7303 73.2889 35.63 72.6391 35.8639C71.7841 36.1982 71.4763 37.1006 71.3395 37.9361C71.2027 38.5043 71.1343 39.3064 71.6473 39.7409C71.9551 39.9748 72.2287 39.9414 72.5707 39.9748C72.9127 39.9748 73.2205 39.9414 73.5283 40.1419C74.1781 40.5096 74.1097 41.8464 73.0837 41.4788C72.4681 41.2448 72.1945 42.2141 72.8101 42.448C74.2123 42.9493 75.5461 41.4119 74.8963 40.1085C74.5543 39.4735 73.8703 39.039 73.1179 38.9722C72.5365 38.9053 72.2287 39.1059 72.2971 38.3372C72.2971 37.8693 72.8785 36.0311 73.6993 36.9669C74.1097 37.4682 74.8279 36.7329 74.4175 36.265Z" fill="#B22A00"/>
<path d="M15.8325 36.4651C16.7902 36.1309 17.7136 37.6349 17.3374 38.3702C17.0638 38.9383 16.6534 38.671 16.1746 38.8046C15.7641 38.9383 15.388 39.1723 15.2169 39.6068C14.6697 41.1442 16.4482 41.9129 17.5084 42.481C18.0556 42.8152 18.5686 41.9463 18.0214 41.6455C17.782 41.5118 17.5426 41.3781 17.3032 41.2444C16.756 40.9436 16.2429 40.81 16.4482 40.1749C16.6876 39.5399 16.9954 39.8741 17.5426 39.707C18.1924 39.5065 18.3634 38.9718 18.3634 38.3702C18.3634 36.8662 17.4058 34.8275 15.559 35.4959C14.9433 35.7299 15.2169 36.6991 15.8325 36.4651Z" fill="#B22A00"/>
<path d="M60.4982 42.1804C60.4982 43.9517 59.609 45.4223 58.4804 45.4223C57.386 45.4223 56.4968 43.9517 56.4968 42.1804C56.4968 40.409 57.386 38.9385 58.4804 38.9385C59.609 38.9385 60.4982 40.409 60.4982 42.1804Z" fill="#560000"/>
<path d="M31.5302 42.1804C31.5302 43.9517 30.641 45.4223 29.5466 45.4223C28.418 45.4223 27.5288 43.9517 27.5288 42.1804C27.5288 40.409 28.418 38.9385 29.5466 38.9385C30.641 38.9385 31.5302 40.409 31.5302 42.1804Z" fill="#560000"/>
<path d="M59.4381 43.3171C60.4641 43.5845 61.5243 43.3171 62.2425 42.5819C62.6871 42.114 61.9689 41.3787 61.4901 41.88C61.0455 42.3479 60.3957 42.5484 59.7117 42.3813C59.0961 42.2142 58.8225 43.15 59.4381 43.3171Z" fill="#560000"/>
<path d="M59.3012 44.6523C60.1904 45.1537 61.2848 45.1537 62.174 44.6189C62.7554 44.2847 62.2424 43.4158 61.661 43.75C61.0796 44.1176 60.3956 44.1176 59.8142 43.7834C59.2328 43.4492 58.7198 44.3181 59.3012 44.6523Z" fill="#560000"/>
<path d="M28.2814 43.2821C27.2896 43.5495 26.1952 43.2487 25.5112 42.5134C25.0324 42.0455 25.7848 41.3436 26.2294 41.8115C26.674 42.2794 27.3238 42.48 28.0078 42.3129C28.6576 42.1457 28.897 43.115 28.2814 43.2821Z" fill="#560000"/>
<path d="M28.4178 44.5867C27.5286 45.1215 26.4342 45.088 25.5449 44.5867C24.9635 44.2525 25.5107 43.3835 26.0579 43.7177C26.6394 44.052 27.3234 44.052 27.9048 43.7177C28.4862 43.417 28.9992 44.2525 28.4178 44.5867Z" fill="#560000"/>
<path d="M41.8246 46.7595C41.6878 48.23 40.1488 49.2661 38.7123 48.9319C38.3361 48.8316 37.9599 49.1658 38.0625 49.5335C38.7123 51.5387 40.7986 52.7085 42.8848 52.2406C43.5346 52.0735 43.261 51.1043 42.6112 51.2714C41.0722 51.6056 39.5332 50.7366 39.0543 49.2661C38.8491 49.4666 38.6439 49.6783 38.4387 49.9011C40.5592 50.369 42.6454 48.8984 42.8506 46.7595C42.919 46.1245 41.893 46.1245 41.8246 46.7595Z" fill="#B22A00"/>
<path d="M44.5952 50.0671C44.903 50.0003 45.245 50.0337 45.4844 50.2343C45.9974 50.6353 46.7156 49.9335 46.2026 49.5324C45.6896 49.0979 45.0056 48.9308 44.3216 49.0979C43.706 49.2316 43.9796 50.2008 44.5952 50.0671Z" fill="#B22A00"/>
<path d="M37.7546 54.6138C39.704 52.5751 42.5426 54.3464 42.5426 54.3464C45.5523 52.7756 49.5537 55.5831 49.5537 55.5831L49.6563 56.3517C43.3634 67.2138 35.8394 56.6191 37.7546 54.6138Z" fill="#B20800"/>
<path d="M37.4812 55.7828C42.5086 59.0247 47.5703 56.7186 49.5197 55.5488C49.5539 55.5488 49.5539 55.5822 49.5539 55.5822L49.6565 56.3509C44.1845 65.7758 37.789 59.0247 37.4812 55.7828Z" fill="#E02F00"/>
<path d="M57.933 33.5902C59.5062 33.256 61.011 33.7907 62.0712 34.9271C62.9263 35.9297 64.3969 34.4926 63.5077 33.5233C61.9687 31.8188 59.643 31.1504 57.3858 31.6517C56.1204 31.9525 56.6334 33.891 57.933 33.5902Z" fill="#560000"/>
<path d="M31.5989 31.6517C29.3417 31.1504 27.0161 31.8188 25.4771 33.5233C24.5879 34.4926 26.0585 35.9297 26.9135 34.9271C27.9737 33.7907 29.4785 33.256 31.0517 33.5902C32.3514 33.891 32.8986 31.9525 31.5989 31.6517Z" fill="#560000"/>
<path d="M36.2842 55.5488C38.9177 57.3535 40.2857 57.9551 43.6031 57.7546C46.3049 57.6209 48.7332 56.8856 50.8536 55.1477C51.3324 54.7132 50.6142 54.0114 50.1012 54.4124C47.9465 56.2172 45.3815 56.7519 42.5771 56.7854C40.0463 56.8188 38.7467 56.0166 36.7972 54.6798C36.25 54.3121 35.737 55.1811 36.2842 55.5488Z" fill="#B20800"/>
<path d="M50.0326 54.2122C50.4772 54.513 50.785 54.9809 50.8876 55.4823C51.0586 56.1173 52.0505 55.8499 51.8795 55.2149C51.6743 54.4462 51.2296 53.8112 50.5456 53.3433C50.3404 53.1762 49.9984 53.3098 49.8616 53.5104C49.6906 53.7778 49.8274 54.0451 50.0326 54.2122Z" fill="#B22A00"/>
<path d="M35.9766 53.8447C35.361 54.4129 35.0532 55.215 35.0532 56.0171C35.0874 56.6856 36.1134 56.6856 36.0792 56.0171C36.0792 55.449 36.2844 54.9477 36.6948 54.5466C37.1394 54.0787 36.4212 53.3768 35.9766 53.8447Z" fill="#B22A00"/>
<g style="mix-blend-mode:multiply" opacity="0.73">
<path d="M38.9858 50.0002C38.9174 49.1981 41.7219 50.5684 42.7479 50.2341C43.7739 49.8999 46.6467 48.797 47.1939 50.4681C47.7753 52.1392 39.4647 54.9132 38.9858 50.0002Z" fill="#F9AB64"/>
</g>
<g style="mix-blend-mode:multiply" opacity="0.73">
<path d="M68.9116 59.9268C68.9572 59.949 69.0142 59.9713 69.0826 59.9936C69.037 59.9713 68.98 59.949 68.9116 59.9268Z" fill="#F9AB64"/>
<path d="M69.0828 59.9941C69.2196 60.0387 69.3336 60.0833 69.4248 60.1278C69.3108 60.0833 69.1968 60.0387 69.0828 59.9941Z" fill="#F9AB64"/>
<path d="M67.9199 59.5264C67.9883 59.5486 68.0567 59.5709 68.1251 59.5932C68.0339 59.5709 67.9655 59.5486 67.9199 59.5264Z" fill="#F9AB64"/>
<path d="M68.125 59.5928C68.2846 59.6596 68.4784 59.7487 68.7064 59.8601C68.524 59.771 68.3302 59.6819 68.125 59.5928Z" fill="#F9AB64"/>
<path d="M67.8171 59.4932C67.8399 59.4932 67.8627 59.5043 67.8855 59.5266C67.8399 59.5043 67.8171 59.4932 67.8171 59.4932Z" fill="#F9AB64"/>
<path d="M64.9784 57.3873C67.7828 54.3126 69.6638 50.6028 70.1426 46.4585C70.9292 39.1391 70.1426 17.0474 70.1426 17.0474H48.186C47.046 16.9137 45.8832 16.8358 44.6976 16.8135C43.5348 16.8358 42.3834 16.9137 41.2434 17.0474H18.9448V37.1004H19.1158C19.0474 37.4346 18.9904 37.78 18.9448 38.1365C18.9448 38.1365 18.8422 42.9492 18.9448 44.5534C19.2868 49.6335 21.5782 54.1789 25.0666 57.7884C26.3662 56.6187 26.7082 54.6468 26.1268 53.0425C25.5112 51.338 24.0406 50.068 22.3648 49.3327C22.057 49.199 21.715 49.0988 21.4756 48.8648C21.0652 48.4638 20.9626 47.8622 20.9284 47.294C20.5522 42.0802 20.86 37.2675 25.2376 33.7582C26.5714 32.6888 27.9736 31.7195 29.1707 30.4829C29.7179 29.9148 32.7959 25.0686 32.9327 25.0686C32.9669 25.0686 44.2188 25.7371 47.2968 20.7238C47.2968 20.7238 50.0328 33.424 57.2149 32.7556C57.7621 32.6888 58.2067 32.6553 58.6171 32.6219C58.8223 33.658 60.0535 38.8049 64.055 39.1057C64.055 39.1057 60.4981 51.7391 64.9784 57.3873Z" fill="#F9AB64"/>
<path d="M25.2036 57.9561C25.7964 58.5131 26.4006 59.059 27.0162 59.5937C26.7426 58.7582 26.0586 58.0563 25.2036 57.9561Z" fill="#F9AB64"/>
<path d="M71.5791 60.9629C71.6241 60.9854 71.6241 60.9854 71.5791 60.9629V60.9629Z" fill="#F9AB64"/>
<path d="M70.4163 60.5283C70.5303 60.5729 70.6443 60.6063 70.7583 60.6286C70.6671 60.6063 70.5531 60.5729 70.4163 60.5283Z" fill="#F9AB64"/>
</g>
<path d="M47.2966 17.7159C47.2966 17.7159 50.0326 30.4161 57.2147 29.7477C64.3967 29.0793 58.5827 29.4135 58.5827 29.4135C58.5827 29.4135 59.6087 35.7636 64.0547 36.0978C64.0547 36.0978 59.2667 53.1428 67.8167 56.485C67.8167 56.485 76.7088 59.1587 80.1289 49.1322C83.5489 39.1057 75.6828 29.4135 75.6828 25.7371C75.6828 22.0607 74.6568 10.0289 72.6048 9.69471C70.5528 9.36049 21.6464 4.68146 17.5423 10.0289C13.4383 15.3764 7.96624 34.7609 10.7023 38.7715C13.4383 42.7821 16.1743 46.4585 16.1743 46.4585C16.4479 46.8261 15.6613 49.4665 15.6271 49.9344C15.3193 52.441 15.2167 55.0479 15.5929 57.5545C16.5847 63.6372 22.3988 67.6812 26.1266 60.6627C26.6738 59.5932 27.2552 58.4569 27.1868 57.2537C27.0842 56.0839 26.1266 54.8473 24.9296 54.9142C26.3318 53.7778 26.7422 51.7057 26.1266 50.0346C25.511 48.3301 24.0404 47.0601 22.3646 46.3248C22.0568 46.1911 21.7148 46.0909 21.4754 45.8569C21.065 45.4559 20.9624 44.8543 20.9282 44.2861C20.5519 39.0723 20.8598 34.2596 25.2374 30.7503C26.5712 29.6808 27.9734 28.7116 29.1704 27.475C29.7176 26.9069 32.7957 22.0607 32.9325 22.0607C32.9667 22.0607 44.2185 22.7291 47.2966 17.7159Z" fill="#90DDF4"/>
<path d="M40.046 68.417C39.9776 68.4393 39.8978 68.4504 39.8066 68.4504C36.0788 69.4865 33.8899 73.6308 32.0773 76.9061C30.0253 80.5825 29.3413 84.0583 31.2565 88.0021C31.8379 89.1384 33.5137 88.1357 32.9323 86.9994C31.1197 83.2562 32.3851 80.2483 34.2661 77.0064C35.7026 74.5666 37.2758 71.4584 40.0118 70.4891L40.046 68.417Z" fill="#272525"/>
<path d="M50.6482 68.6169C50.1694 68.3162 49.6564 68.4833 49.3486 68.8175V70.1544C49.3942 70.1989 49.4512 70.2435 49.5196 70.288C54.5129 73.1623 58.1723 80.6153 56.1545 86.3304C55.7441 87.5336 57.6593 88.202 58.1039 86.9654C60.3953 80.4148 56.5307 71.9925 50.6482 68.6169Z" fill="#272525"/>
<path d="M56.2229 93.5156H32.1801C30.6753 93.5156 29.4441 92.3124 29.4441 90.8419V79.6122C29.4441 78.1417 30.6753 76.9385 32.1801 76.9385H56.2229C57.7277 76.9385 58.9589 78.1417 58.9589 79.6122V90.8419C58.9589 92.3124 57.7277 93.5156 56.2229 93.5156Z" fill="#313F49"/>
<g style="mix-blend-mode:multiply" opacity="0.37">
<path d="M58.9589 90.3743V80.047C58.9589 79.6794 58.8564 79.3118 58.7196 78.9775C49.9301 89.2046 34.0953 89.1711 29.4441 88.9038V90.3743C29.4441 92.0788 30.8805 93.5159 32.6247 93.5159H55.7441C57.4883 93.5159 58.9589 92.0788 58.9589 90.3743Z" fill="#272525"/>
</g>
<path d="M37.4811 77.5397H32.3511V75.2002H37.4811V77.5397Z" fill="#313F49"/>
<path d="M55.7441 76.9385H32.6247C30.8805 76.9385 29.4441 78.3422 29.4441 80.0467V80.7151H58.9589V80.0467C58.9589 78.3422 57.4883 76.9385 55.7441 76.9385Z" fill="white"/>
<path fill-rule="evenodd" clip-rule="evenodd" d="M44.7319 93.0815C40.32 93.0815 36.729 89.5723 36.729 85.2943C36.729 80.9829 40.32 77.4736 44.7319 77.4736C49.1095 77.4736 52.7005 80.9829 52.7005 85.2943C52.7005 89.5723 49.1095 93.0815 44.7319 93.0815ZM44.7319 78.4763C40.8672 78.4763 37.755 81.5177 37.755 85.2943C37.755 89.0375 40.8672 92.0789 44.7319 92.0789C48.5623 92.0789 51.6745 89.0375 51.6745 85.2943C51.6745 81.5177 48.5623 78.4763 44.7319 78.4763Z" fill="#272525"/>
<path d="M51.5378 84.826C51.5378 88.87 48.2204 92.1453 44.0821 92.1453C39.9439 92.1453 36.6265 88.87 36.6265 84.826C36.6265 80.8154 39.9439 77.54 44.0821 77.54C48.2204 77.54 51.5378 80.8154 51.5378 84.826Z" fill="#C6C6C6"/>
<path d="M50.3748 84.8261C50.3748 88.2351 47.5361 90.9757 44.0819 90.9757C40.6277 90.9757 37.7891 88.2351 37.7891 84.8261C37.7891 81.4505 40.6277 78.71 44.0819 78.71C47.5361 78.71 50.3748 81.4505 50.3748 84.8261Z" fill="#1C2830"/>
<path d="M49.2462 84.826C49.2462 87.6334 46.9548 89.906 44.082 89.906C41.2091 89.906 38.9177 87.6334 38.9177 84.826C38.9177 82.052 41.2091 79.7793 44.082 79.7793C46.9548 79.7793 49.2462 82.052 49.2462 84.826Z" fill="#90DDF4"/>
<g style="mix-blend-mode:overlay" opacity="0.37">
<path d="M48.7674 82.7204C47.9466 80.9825 46.1682 79.7793 44.082 79.7793C41.2091 79.7793 38.9177 82.052 38.9177 84.826C38.9177 85.0599 38.9519 85.2604 38.9861 85.4944C39.9779 85.9957 41.1749 86.2631 42.4062 86.2631C45.2448 86.2631 47.6388 84.826 48.7674 82.7204Z" fill="white"/>
</g>
<path d="M47.6051 85.4621C47.5367 85.7629 47.4683 86.0637 47.3315 86.2977C47.3999 86.3645 47.4569 86.4202 47.5025 86.4648C47.6849 86.6876 47.8673 86.9104 48.0497 87.1332C48.3233 86.7321 48.5285 86.2308 48.5969 85.5958C49.1441 82.3205 46.6475 80.9836 46.6133 80.9502L46.1687 81.8526C46.1687 81.8526 48.0155 82.9221 47.6051 85.4621Z" fill="white"/>
<path d="M46.9209 87.534C46.8297 87.4449 46.7385 87.3557 46.6473 87.2666C46.4763 87.4671 46.2711 87.6342 46.1001 87.7345C45.2108 88.3027 44.0822 88.5366 43.193 88.3027L42.9194 89.2719C43.2386 89.3387 43.5692 89.3722 43.9112 89.3722C44.8688 89.3722 45.8607 89.1048 46.6473 88.5701C46.8753 88.4364 47.1033 88.2693 47.3313 88.0687C47.1945 87.9016 47.0577 87.7011 46.9209 87.534Z" fill="white"/>
<path d="M44.1504 83.2218C44.1504 83.9905 43.5348 84.5921 42.7482 84.5921C41.9616 84.5921 41.3459 83.9905 41.3459 83.2218C41.3459 82.4531 41.9616 81.8516 42.7482 81.8516C43.5348 81.8516 44.1504 82.4531 44.1504 83.2218Z" fill="white"/>
<path d="M45.621 86.2297C45.621 86.7311 45.1764 87.1655 44.6634 87.1655C44.1162 87.1655 43.7058 86.7311 43.7058 86.2297C43.7058 85.695 44.1162 85.2939 44.6634 85.2939C45.1764 85.2939 45.621 85.695 45.621 86.2297Z" fill="white"/>
<path d="M58.5826 15.7769C58.5142 15.3536 58.4572 14.9302 58.4116 14.5069C58.2064 13.2703 56.4964 13.7382 56.3938 14.7743C55.9834 17.9159 55.4704 22.0268 59.6087 22.6952C62.0711 23.0963 66.5855 22.5949 65.8331 19.1859C65.6279 18.317 64.3967 18.2501 63.9521 18.952C61.5581 22.762 64.9781 27.1069 69.3557 25.8034C70.6211 25.4358 70.0739 23.4973 68.8085 23.865C66.2093 24.6671 64.3283 22.1939 65.7305 19.988C65.0921 19.8989 64.4651 19.8098 63.8495 19.7207C64.0547 20.6899 61.5239 20.7902 60.9425 20.7902C59.7455 20.7567 59.164 20.6565 58.5826 19.6204C57.7618 18.1833 58.2406 16.3117 58.4458 14.7743C57.7618 14.8634 57.0892 14.9525 56.428 15.0416C56.4964 15.465 56.5648 15.8883 56.6332 16.3117C56.8042 17.5817 58.7878 17.0469 58.5826 15.7769Z" fill="#90DDF4"/>
<g style="mix-blend-mode:overlay">
<path d="M55.9493 13.7045C50.7167 19.2525 57.5909 27.3072 64.0206 23.0292C63.7698 22.8509 63.519 22.6615 63.2682 22.461C61.2846 28.3766 69.0822 31.8859 72.5022 26.739C72.8785 26.2042 71.9892 25.7029 71.6472 26.2377C68.7744 30.5156 62.6868 27.4408 64.26 22.7284C64.3968 22.3273 63.8838 21.9263 63.5076 22.1602C58.2065 25.6695 52.1531 19.2191 56.6675 14.4398C57.1121 13.9719 56.3939 13.2366 55.9493 13.7045Z" fill="#90DDF4"/>
<path d="M67.2354 55.0476C70.3135 57.0864 74.9647 59.359 77.7349 55.6158C78.1111 55.0811 77.2219 54.6132 76.8457 55.1145C74.4175 58.3564 70.2451 55.8498 67.7484 54.1787C67.2354 53.811 66.7224 54.68 67.2354 55.0476Z" fill="#90DDF4"/>
<path d="M23.4932 14.5731C20.894 15.9434 20.381 19.4193 22.7408 21.2909C26.1608 23.998 30.2307 21.3243 31.8381 18.1158C31.5189 18.0935 31.2111 18.0601 30.9147 18.0156C32.9325 22.9954 38.3361 19.954 40.2171 16.6453C40.5591 16.0771 39.6699 15.5758 39.3621 16.1439C38.0625 18.4166 33.5481 21.8256 31.9065 17.7482C31.7355 17.3805 31.1541 17.18 30.9489 17.6145C30.3675 18.8177 29.4099 20.3551 28.076 20.8564C26.9816 20.9678 25.8872 21.0903 24.7928 21.224C21.6464 19.0628 21.3842 17.1354 24.0062 15.4421C24.5876 15.1413 24.0746 14.2723 23.4932 14.5731Z" fill="#90DDF4"/>
<path d="M14.1908 35.6628C11.2837 33.8246 11.0443 40.5424 11.3863 41.9461C12.0019 44.7201 15.251 46.7254 17.5424 44.319C18.0212 43.8511 17.303 43.1492 16.8242 43.6171C15.593 44.7535 15.593 46.5582 16.7216 47.8283C18.158 49.3991 20.5178 49.1986 22.433 48.8309C23.0828 48.6972 22.8092 47.728 22.1594 47.8617C21.407 48.0399 20.6432 48.1179 19.868 48.0957C17.246 47.8283 16.4708 46.5694 17.5424 44.319C17.3144 44.0739 17.075 43.84 16.8242 43.6171C14.7722 45.7896 12.4807 43.0156 12.3097 41.0437C12.2755 40.8766 12.5491 35.7965 13.6778 36.5318C14.225 36.866 14.738 35.997 14.1908 35.6628Z" fill="#90DDF4"/>
<path d="M14.4642 55.2805C12.8226 59.9261 17.508 64.3043 22.1935 62.4662C22.8091 62.2322 22.5355 61.263 21.9199 61.4969C17.9526 63.0677 14.0538 59.5251 15.456 55.5479C15.6612 54.9463 14.6694 54.6789 14.4642 55.2805Z" fill="#90DDF4"/>
<path d="M15.7639 13.6051C11.3521 17.1812 11.8309 23.4645 16.6189 26.4724C17.1662 26.8067 17.6792 25.9377 17.132 25.6035C12.8569 22.9297 12.6175 17.4486 16.4821 14.307C16.9952 13.9059 16.2427 13.204 15.7639 13.6051Z" fill="#90DDF4"/>
<path d="M37.7208 7.78839C37.6752 7.78839 37.6296 7.77726 37.584 7.75498C37.7436 7.93323 37.9146 8.10034 38.097 8.2563C38.1654 7.48761 42.0984 7.42076 42.4404 7.42076C44.1504 7.48761 45.7236 7.92208 47.2627 8.69078C47.8441 8.99157 48.3571 8.15603 47.7757 7.85524C45.621 6.75233 43.2954 6.21759 40.8672 6.48496C39.636 6.58523 37.242 6.71891 37.071 8.2563C37.0368 8.5571 37.3446 8.72421 37.584 8.75763C37.6296 8.77991 37.6752 8.79104 37.7208 8.79104C38.4048 8.85788 38.3706 7.85524 37.7208 7.78839Z" fill="#90DDF4"/>
<path d="M71.7841 14.7742C73.6309 13.8384 76.2643 16.9466 77.0509 18.2501C78.1453 20.0883 78.4873 22.1938 78.0769 24.266C77.9401 24.901 78.9319 25.1684 79.0687 24.5334C79.6159 21.7928 79.0003 19.0188 77.2561 16.7795C76.0591 15.1753 73.4257 12.8358 71.2711 13.9053C70.6555 14.2061 71.1685 15.075 71.7841 14.7742Z" fill="#90DDF4"/>
<path d="M68.7745 48.864C70.8265 49.6327 73.4599 50.4014 75.2726 48.6969C75.854 48.1288 75.854 47.4937 76.196 46.8921C76.9826 45.2879 77.9402 45.8895 79.445 45.3213C83.7542 43.6502 83.8226 38.3362 80.2658 35.8964C79.7186 35.5288 79.2056 36.3978 79.7528 36.7654C82.3862 38.5702 82.6598 42.4805 79.6502 44.1182C78.419 44.7866 76.9484 44.185 75.854 44.8534C75.2726 45.1877 75.4094 45.3213 75.1358 45.9563C75.1586 46.1569 75.1813 46.3574 75.2041 46.5579C74.7937 48.1176 73.7791 48.8417 72.1603 48.7303C71.1343 48.7303 70.0057 48.229 69.0481 47.8948C68.4325 47.6608 68.1589 48.6301 68.7745 48.864Z" fill="#90DDF4"/>
<path d="M61.3528 61.9996C61.9684 64.807 65.491 66.2776 68.0218 64.8404C68.569 64.5062 68.056 63.6707 67.5088 63.9715C65.5252 65.1078 62.8234 63.9046 62.3446 61.7322C62.2078 61.0972 61.216 61.3646 61.3528 61.9996Z" fill="#90DDF4"/>
</g>
</svg>
