<svg width="91" height="91" viewBox="0 0 91 91" fill="none" xmlns="http://www.w3.org/2000/svg">
<path d="M90.4519 46.143C90.4519 70.4071 70.3079 90.0925 45.4443 90.0925C20.6149 90.0925 0.470947 70.4071 0.470947 46.143C0.470947 21.8455 20.6149 2.16016 45.4443 2.16016C70.3079 2.16016 90.4519 21.8455 90.4519 46.143Z" fill="#9EC43E"/>
<path d="M18.9736 33.8123C18.9736 33.8123 14.3565 30.1359 12.6465 35.9847C10.9365 41.8335 18.2896 46.8467 19.6576 46.5125L18.9736 33.8123Z" fill="#FF773E"/>
<path d="M69.3163 33.8123C69.3163 33.8123 73.9334 30.1359 75.6434 35.9847C77.3534 41.8335 70.0003 46.8467 68.6323 46.5125L69.3163 33.8123Z" fill="#FF773E"/>
<path d="M44.6237 89.9933C52.7634 89.9933 60.4243 87.8878 66.9907 84.178C63.2287 75.221 54.234 68.9043 43.7003 68.9043C33.5086 68.9043 24.7534 74.8199 20.7861 83.309C27.6946 87.5536 35.8685 89.9933 44.6237 89.9933Z" fill="white"/>
<path d="M45.8209 74.0514H41.9562C40.4514 74.0514 39.2202 72.8482 39.2202 71.3776V63.7909C39.2202 62.3204 40.4514 61.1172 41.9562 61.1172H45.8209C47.3257 61.1172 48.5569 62.3204 48.5569 63.7909V71.3776C48.5569 72.8482 47.3257 74.0514 45.8209 74.0514Z" fill="#FF9834"/>
<path opacity="0.3" d="M45.8209 61.1172H41.9562C40.4514 61.1172 39.2202 62.3204 39.2202 63.7909V66.6652C40.896 66.966 42.606 67.1331 44.3503 67.1331C45.7867 67.1331 47.1889 67.0328 48.5569 66.8323V63.7909C48.5569 62.3204 47.3257 61.1172 45.8209 61.1172Z" fill="#FE2F00"/>
<path d="M69.3162 16.7669H47.3597C46.2424 16.6332 45.091 16.5664 43.9054 16.5664C42.7426 16.5664 41.5912 16.6332 40.4512 16.7669H18.1526V36.8199H18.3236C18.2552 37.1764 18.1982 37.5218 18.1526 37.856C18.1526 37.856 18.0158 42.6687 18.1526 44.2729C18.9734 56.3716 30.7041 65.5625 43.9054 65.5625C56.3885 65.5625 68.085 57.4745 69.3162 46.178C70.1371 38.8586 69.3162 16.7669 69.3162 16.7669Z" fill="#FF9834"/>
<path opacity="0.3" d="M62.5102 50.1214C62.5102 52.0264 60.082 53.5638 57.1066 53.5638C54.0969 53.5638 51.6687 52.0264 51.6687 50.1214C51.6687 48.2163 54.0969 46.6455 57.1066 46.6455C60.082 46.6455 62.5102 48.2163 62.5102 50.1214Z" fill="#FE2F00"/>
<path opacity="0.3" d="M34.1242 50.1214C34.1242 52.0264 31.696 53.5638 28.7206 53.5638C25.7109 53.5638 23.2827 52.0264 23.2827 50.1214C23.2827 48.2163 25.7109 46.6455 28.7206 46.6455C31.696 46.6455 34.1242 48.2163 34.1242 50.1214Z" fill="#FE2F00"/>
<path d="M73.6259 35.9844C73.1813 35.4831 72.4973 35.3494 71.8475 35.5833C70.9925 35.951 70.6847 36.8199 70.5137 37.6555C70.4111 38.2571 70.3085 39.0258 70.8557 39.4602C71.1293 39.6942 71.4371 39.6942 71.7791 39.6942C72.1211 39.6942 72.4289 39.6942 72.7367 39.8613C73.3865 40.2289 73.3181 41.5658 72.2921 41.1982C71.6765 40.9642 71.4029 41.9334 72.0185 42.1674C73.4207 42.6687 74.7203 41.1313 74.0705 39.8279C73.7627 39.1929 73.0445 38.7918 72.3263 38.6916C71.7449 38.6247 71.4371 38.8252 71.4713 38.0565C71.5055 37.6221 72.0869 35.7504 72.8735 36.6863C73.3181 37.1876 74.0363 36.4857 73.6259 35.9844Z" fill="#AF4700"/>
<path d="M15.0404 36.2182C15.9638 35.8505 16.8872 37.3545 16.5452 38.0898C16.2716 38.6579 15.827 38.424 15.3824 38.5242C14.9378 38.6579 14.5958 38.9253 14.4248 39.3598C13.8776 40.8972 15.656 41.6325 16.682 42.234C17.2634 42.5348 17.7764 41.6993 17.195 41.3651C16.9898 41.2314 16.7504 41.1311 16.511 40.9974C15.9638 40.6967 15.4508 40.5295 15.656 39.8945C15.8612 39.2595 16.169 39.5937 16.7504 39.4266C17.4002 39.2261 17.5712 38.7248 17.5712 38.0898C17.537 36.6192 16.6136 34.5805 14.7668 35.2489C14.1512 35.4495 14.3906 36.4187 15.0404 36.2182Z" fill="#AF4700"/>
<path d="M41.4425 38.0202C41.4425 40.6271 41.4425 43.234 41.4425 45.8409C41.7617 45.7517 42.0809 45.6626 42.4001 45.5735C41.0321 43.3342 38.125 44.504 38.296 46.9772C38.5012 49.7846 41.6477 50.9878 43.8365 49.417C44.3837 49.0493 43.8707 48.1804 43.3235 48.548C42.5939 49.2164 41.6705 49.3279 40.5533 48.8822C39.6982 48.548 39.322 47.7793 39.6298 46.9104C40.006 45.7406 40.5875 45.6403 41.5451 45.9411C42.0239 46.1082 41.8187 46.6096 42.4001 46.0414C42.7421 45.7072 42.4685 43.869 42.4685 43.4011C42.4685 41.6186 42.4685 39.825 42.4685 38.0202C42.4685 37.3852 41.4425 37.3852 41.4425 38.0202Z" fill="#AF4700"/>
<path d="M59.7058 40.7282C59.7058 42.533 58.8165 43.9701 57.7221 43.9701C56.6277 43.9701 55.7385 42.533 55.7385 40.7282C55.7385 38.9569 56.6277 37.4863 57.7221 37.4863C58.8165 37.4863 59.7058 38.9569 59.7058 40.7282Z" fill="#560000"/>
<path d="M30.7722 40.7282C30.7722 42.533 29.883 43.9701 28.7544 43.9701C27.66 43.9701 26.7708 42.533 26.7708 40.7282C26.7708 38.9569 27.66 37.4863 28.7544 37.4863C29.883 37.4863 30.7722 38.9569 30.7722 40.7282Z" fill="#560000"/>
<path d="M40.8272 60.1466C41.8874 61.3164 43.358 61.8846 44.9312 61.684C45.6152 61.5838 45.4784 60.5811 44.8286 60.6814C43.5974 60.8485 42.4688 60.4474 41.648 59.545C41.2376 59.0437 40.4168 59.6453 40.8272 60.1466Z" fill="#AF4700"/>
<path d="M44.1446 48.0472C44.4866 48.1809 44.7944 48.4482 44.9996 48.749C45.3758 49.3172 46.265 48.8159 45.8888 48.2477C45.5468 47.7129 45.0338 47.3119 44.4182 47.0779C43.8026 46.8774 43.529 47.8466 44.1446 48.0472Z" fill="#AF4700"/>
<g style="mix-blend-mode:multiply" opacity="0.75">
<path d="M39.4933 47.9135C39.4933 47.9135 40.3825 48.9161 42.6739 48.1474C44.9653 47.3453 46.5386 47.245 46.8806 48.5819C47.2226 49.9188 44.1445 51.6901 41.8873 51.6901C40.5877 51.6901 37.5439 49.3506 39.4933 47.9135Z" fill="#F2B297"/>
</g>
<path fill-rule="evenodd" clip-rule="evenodd" d="M56.0804 33.3419C53.4812 33.9435 52.421 30.0666 54.986 29.465C57.9272 28.7631 61.0737 29.5987 63.1599 31.8045C64.9725 33.6761 62.0655 36.517 60.2529 34.6453C59.1585 33.4756 57.6536 32.9743 56.0804 33.3419ZM23.8637 32.005C26.0526 30.0666 29.028 29.3313 31.8666 30.1668C34.3974 30.9021 33.303 34.779 30.7722 34.0438C29.37 33.6427 27.8994 33.8432 26.7708 34.8459C24.8213 36.5504 21.9143 33.7095 23.8637 32.005Z" fill="#240000"/>
<path d="M59.5688 32.6404C60.8342 33.9439 62.6126 32.9746 62.9889 31.6378C60.8684 29.5656 57.8588 28.7969 54.986 29.4654C54.0968 29.6659 53.6864 30.2675 53.5496 30.9025C53.9942 31.3035 54.6098 31.5041 55.3964 31.337C56.9696 30.9693 58.4744 31.4706 59.5688 32.6404Z" fill="#470021"/>
<path d="M32.5507 30.5344C32.3455 30.3673 32.1403 30.267 31.8667 30.1668C29.0281 29.3312 26.0527 30.0665 23.8638 32.0049C23.5902 32.2389 23.4193 32.5397 23.3167 32.8071C24.0349 33.4421 25.1635 33.6426 26.0869 32.8405C27.2155 31.8378 28.6861 31.6373 30.0883 32.0384C31.3879 32.4394 32.3113 31.537 32.5507 30.5344Z" fill="#470021"/>
<path fill-rule="evenodd" clip-rule="evenodd" d="M50.6422 80.332L44.1441 75.7532L37.7829 80.2317L37.5777 80.0312C35.5599 78.0593 35.1837 75.0848 35.1153 73.9151C35.0811 73.5474 35.0811 73.3469 35.0811 73.3469H35.3889L35.3547 73.2132C37.9881 72.645 51.0868 69.9713 52.0444 72.4445C53.002 74.8843 50.8816 79.7304 50.8132 79.931L50.6422 80.332ZM35.7993 73.8482C35.7993 73.8705 35.7993 73.8816 35.7993 73.8816C35.8335 74.9511 36.1755 77.558 37.8513 79.3962L44.1441 74.9511L50.3344 79.2959C50.8132 78.1262 52.1128 74.5166 51.4288 72.7119C50.8816 71.3082 42.0579 72.5113 35.7993 73.8482Z" fill="#AAAAAA"/>
<path d="M53.3102 68.9362C50.8136 67.3654 47.7014 69.872 46.1966 71.3426C45.7178 70.741 44.9996 70.3399 44.1446 70.3399C43.3237 70.3399 42.6055 70.7076 42.1267 71.3092C40.6219 69.8386 37.5097 67.3654 35.0473 68.9362C35.0473 68.9362 33.6793 73.1139 35.9023 76.6232C37.4413 79.063 40.6219 76.5898 42.1951 74.4508C42.6739 74.9855 43.3579 75.3532 44.1446 75.3532C44.9654 75.3532 45.6494 74.9856 46.1282 74.4174C47.7014 76.5564 50.9162 79.0964 52.4552 76.6232C54.6782 73.1139 53.3102 68.9362 53.3102 68.9362Z" fill="#272525"/>
<path d="M44.1446 75.7539C43.8709 75.8542 44.1446 89.9915 44.1446 89.9915" stroke="#AAAAAA" stroke-width="2" stroke-miterlimit="10"/>
<path d="M27.0442 75.0852C27.1126 76.9234 27.0442 83.4072 27.01 86.482C32.4137 88.7546 38.3645 89.9912 44.6232 89.9912C50.6082 89.9912 56.3197 88.8549 61.5523 86.7828V76.1881C60.1501 74.8178 58.5769 73.5812 56.9011 72.5786L44.2128 88.4873L31.6955 71.9102C30.0196 72.7791 28.4464 73.8486 27.0442 75.0852Z" fill="#272525"/>
<path d="M37.7493 54.2641C37.5783 54.1638 36.8601 59.4445 43.7002 59.2774C48.6934 59.1437 49.2406 54.1973 49.2406 54.1973C49.2406 54.1973 43.2213 57.5728 37.7493 54.2641Z" fill="#560000"/>
<path d="M37.749 54.2637C37.749 54.2637 38.6724 56.7703 41.3059 57.2048C43.9735 57.6727 47.4277 57.305 48.5221 54.3639C48.5221 54.3639 41.6821 56.9374 37.749 54.2637Z" fill="white"/>
<path d="M48.0091 55.3332C48.2143 55.0435 48.3853 54.7204 48.5221 54.3639C48.5221 54.3639 41.6821 56.9374 37.749 54.2637C37.749 54.2637 37.7832 54.3639 37.8516 54.4642C38.433 55.2329 39.5274 56.1687 41.2375 56.4027C43.4947 56.7369 46.2307 56.6366 48.0091 55.3332Z" fill="#DBDBDB"/>
<path d="M36.2102 53.6284C38.4674 55.5 41.306 56.0013 44.213 55.8676C46.7781 55.7339 49.4457 55.2994 50.9163 53.0602C51.3267 52.4586 50.3691 51.9239 49.9929 52.5255C48.6249 54.5976 45.8546 54.7647 43.5632 54.7981C41.1692 54.865 38.8436 54.4305 36.9968 52.8597C36.4496 52.4252 35.663 53.1939 36.2102 53.6284Z" fill="#AF4700"/>
<path d="M40.1431 58.7091C41.0323 59.0768 42.1609 59.3107 43.6999 59.2773C45.0679 59.2439 46.0939 58.8428 46.8805 58.2747C44.5891 57.1717 41.8189 58.0407 40.1431 58.7091Z" fill="#E02F00"/>
<path d="M45.1362 51.2894C45.1362 51.2894 42.0582 51.6237 43.4262 54.0634C44.7942 56.5366 46.0254 54.1971 48.4194 54.2974C50.8134 54.3977 53.6862 56.0687 53.8914 52.7266C53.8914 52.7266 53.0022 54.1971 50.9502 53.395C48.8982 52.6263 48.3168 50.1865 45.1362 51.2894Z" fill="#240000"/>
<path d="M41.0666 51.2894C41.0666 51.2894 44.1446 51.6237 42.7766 54.0634C41.4086 56.5366 40.1432 54.1971 37.7491 54.2974C35.3551 54.3977 32.5165 56.0687 32.2771 52.7266C32.2771 52.7266 33.2005 54.1971 35.2525 53.395C37.3045 52.6263 37.886 50.1865 41.0666 51.2894Z" fill="#240000"/>
<path opacity="0.3" d="M17.6392 41.9311C17.6392 41.9311 20.512 44.5046 20.3752 43.7025C20.2726 42.9338 20.7172 24.9864 21.7432 22.5466C22.7692 20.1068 26.8733 17.7673 30.5327 18.7699C34.1921 19.7726 36.1073 22.7805 42.7422 23.3153C49.3428 23.8835 53.7889 21.6442 55.8409 20.6416C57.8929 19.6389 64.391 20.3073 66.785 22.6469C69.179 24.9864 67.7084 45.173 67.7084 45.173L69.9656 42.3656L70.547 35.0129C70.547 35.0129 72.599 33.8097 74.4117 34.9126L74.6511 16.3636C74.6511 16.3636 62.9204 11.1498 58.2349 6.16999C54.5413 2.29308 36.1073 0.488315 30.8747 6.27026C25.642 12.0856 22.564 12.5201 21.0592 12.9546C19.486 13.4559 17.947 14.0575 16.408 14.6257C16.579 16.1631 16.408 17.7339 16.6132 19.3047C16.8526 21.4437 17.0578 23.6161 17.0236 25.7551C16.9552 29.0304 16.3396 32.3726 14.7664 35.2468C15.4504 34.9126 16.3054 34.9794 16.921 35.4473C18.0154 36.3163 17.4682 38.2213 17.5366 39.4579C17.5822 40.2823 17.6164 41.1067 17.6392 41.9311Z" fill="#FE2F00"/>
<path d="M17.6394 40.2602C17.6394 40.2602 20.5122 42.8337 20.3754 42.0316C20.2728 41.2629 20.7174 23.3155 21.7434 20.8757C22.7695 18.4359 26.8735 16.0964 30.5329 17.099C34.1924 18.1017 36.1076 21.1096 42.7424 21.6444C49.3431 22.2126 53.7891 19.9733 55.8411 18.9707C57.8932 17.968 64.3912 18.6364 66.7852 20.976C69.1793 23.3155 67.7086 43.5021 67.7086 43.5021L69.9659 40.6947L70.5473 33.342C70.5473 33.342 72.5993 32.1388 74.4119 33.2417L74.6513 14.6927C74.6513 14.6927 62.9206 9.47892 58.2352 4.49909C54.5415 0.622184 36.1076 -1.18258 30.8749 4.59936C25.6423 10.4147 22.5643 10.8492 21.0594 11.2837C19.4862 11.785 17.9472 12.3866 16.4082 12.9548C16.5792 14.4922 16.4082 16.063 16.6134 17.6338C16.8528 19.7728 17.058 21.9452 17.0238 24.0842C16.9554 27.3595 16.3398 30.7017 14.7666 33.5759C15.4506 33.2417 16.3056 33.3085 16.9212 33.7764C18.0156 34.6454 17.4684 36.5504 17.5368 37.787C17.5824 38.6114 17.6166 39.4358 17.6394 40.2602Z" fill="#240000"/>
<path d="M74.3092 23.2147C72.28 24.5516 70.1938 25.7771 68.0505 26.8911C68.0733 27.6041 68.0961 28.3505 68.1189 29.1304C70.3306 28.0163 72.4624 26.7909 74.5144 25.454L74.5486 23.0811C74.4802 23.1033 74.4004 23.1479 74.3092 23.2147Z" fill="#470021"/>
<path d="M74.4116 32.8066C74.2976 32.8958 74.1836 32.9737 74.0696 33.0406C74.1836 33.1074 74.2976 33.1743 74.4116 33.2411V32.8066Z" fill="#470021"/>
<path d="M74.4804 28.0273C74.4804 28.0273 74.469 28.0385 74.4462 28.0608C72.531 29.5313 70.4106 30.7011 68.1533 31.57C68.1533 32.3053 68.1419 33.0294 68.1191 33.7424C70.4106 32.9403 72.4968 31.8708 74.4462 30.534L74.4804 28.0273Z" fill="#470021"/>
<path d="M15.4848 32.1045C15.2454 32.6058 15.0402 33.1071 14.7666 33.575C15.4506 33.2408 16.3056 33.3077 16.9212 33.7756C17.8104 34.5108 17.6052 35.948 17.5368 37.1177C18.4944 38.0758 19.4406 39.0339 20.3754 39.992C20.4096 39.1899 20.4096 38.2541 20.4438 37.1512C18.7794 35.4801 17.1264 33.7979 15.4848 32.1045Z" fill="#470021"/>
<path d="M70.1708 38.1538L70.376 35.5469C69.6008 36.0816 68.8142 36.6275 68.0162 37.1845C67.982 38.1203 67.9478 38.9893 67.9136 39.758C68.666 39.2233 69.4184 38.6885 70.1708 38.1538Z" fill="#470021"/>
<path d="M16.9893 23.248C17.0121 23.5377 17.0235 23.8162 17.0235 24.0836C17.0007 24.7075 16.9665 25.3202 16.9209 25.9218C18.2661 27.2364 19.5429 28.6178 20.7513 30.0661C20.7855 29.0968 20.8539 28.1276 20.9223 27.1918C19.6911 25.8104 18.3801 24.4958 16.9893 23.248Z" fill="#470021"/>
<path d="M16.6136 28.0947C16.4996 28.83 16.34 29.5541 16.1348 30.2671C17.708 31.6374 19.1786 33.108 20.5466 34.6454C20.5808 33.7096 20.615 32.7403 20.6492 31.7711C19.3838 30.4677 18.05 29.2645 16.6136 28.0947Z" fill="#470021"/>
<path d="M30.1908 12.4876C32.4138 16.8658 36.039 20.5756 41.1007 21.5783C41.7163 21.712 41.9899 20.7427 41.3401 20.609C36.552 19.6398 33.1662 16.1305 31.08 11.9863C30.7722 11.4181 29.883 11.9194 30.1908 12.4876Z" fill="#470021"/>
<path d="M39.5617 16.063C41.0437 17.489 42.6169 18.8036 44.2813 20.0068C44.7943 20.4078 45.3073 19.5389 44.7943 19.1378C43.1983 17.9792 41.7049 16.7092 40.314 15.3278C39.8352 14.8933 39.117 15.5951 39.5617 16.063Z" fill="#470021"/>
<path d="M35.7311 7.24074C36.9965 5.36913 38.8775 4.06569 41.1005 3.4641C41.7161 3.29699 41.4767 2.32776 40.8269 2.49487C38.3303 3.1633 36.2783 4.63385 34.8419 6.73942C34.4657 7.27416 35.3549 7.77549 35.7311 7.24074Z" fill="#470021"/>
<path d="M24.1032 12.0866C25.1748 11.3068 26.1894 10.4601 27.147 9.54659C27.6258 9.07869 26.8734 8.37683 26.4288 8.84474C25.5396 9.69142 24.5934 10.4824 23.5902 11.2177C23.0772 11.6187 23.5902 12.4877 24.1032 12.0866Z" fill="#470021"/>
<path d="M61.2785 8.20968C62.7377 9.5911 64.3679 10.7386 66.1691 11.6521C66.7506 11.9195 67.2636 11.0505 66.6821 10.7831C64.9493 9.91418 63.3875 8.82241 61.9967 7.50782C61.5179 7.03992 60.7997 7.74177 61.2785 8.20968Z" fill="#470021"/>
<path d="M51.4293 21.0772C53.2077 19.9632 54.9862 18.8826 56.7646 17.8353C58.714 16.699 60.6976 15.2285 63.0232 15.195C63.673 15.195 63.673 14.1924 63.0232 14.1924C61.0396 14.2258 59.4664 15.0948 57.7906 16.064C55.465 17.4009 53.1735 18.7711 50.9163 20.2083C50.3691 20.5759 50.8821 21.4449 51.4293 21.0772Z" fill="#470021"/>
<path d="M50.0953 3.5975C47.7697 3.76461 45.9571 5.10147 44.9995 7.17361C43.6999 10.0144 44.6233 13.1561 45.7861 15.8632C46.0255 16.4314 47.0515 16.1974 46.7779 15.5959C45.2047 11.9529 44.1445 4.96778 50.0953 4.60015C50.7451 4.56672 50.7793 3.56408 50.0953 3.5975Z" fill="#470021"/>
<path d="M49.8557 14.2251C49.7189 13.2893 50.0609 12.3869 50.7449 11.7185C51.2237 11.2506 50.4713 10.5487 50.0267 11.0166C49.0691 11.9524 48.6587 13.189 48.8639 14.4925C48.9323 15.1275 49.9241 14.8601 49.8557 14.2251Z" fill="#470021"/>
<path d="M62.5101 19.1379C63.9465 19.0265 65.3601 18.8371 66.7509 18.5697C67.4007 18.4361 67.1271 17.4668 66.4773 17.6005C65.1777 17.8456 63.8553 18.0239 62.5101 18.1353C61.8603 18.2021 61.8603 19.2048 62.5101 19.1379Z" fill="#470021"/>
</svg>
