<svg width="92" height="102" viewBox="0 0 92 102" fill="none" xmlns="http://www.w3.org/2000/svg">
<path d="M91.3496 56.2996C91.3496 81.5414 70.8992 101.992 45.6574 101.992C20.4504 101.992 0 81.5414 0 56.2996C0 31.0578 20.4504 10.6074 45.6574 10.6074C70.8992 10.6074 91.3496 31.0578 91.3496 56.2996Z" fill="#ECC933"/>
<path d="M79.4404 29.3907C75.2739 27.7588 70.17 26.6131 59.0595 28.9393C49.5808 30.9184 46.5254 31.3698 45.831 31.4392C45.1366 31.3698 42.0464 30.9184 32.5678 28.9393C21.4572 26.6131 16.3533 27.7588 12.1868 29.3907C8.02037 31.0225 4.79136 36.3348 7.569 49.5286C10.3466 62.7224 25.1723 69.6664 25.1723 69.6664C25.1723 69.6664 43.2617 75.6037 45.7268 75.812C45.75 75.8351 45.7847 75.8467 45.831 75.8467C45.8541 75.8467 45.8888 75.8351 45.9351 75.812C48.3656 75.6037 66.4897 69.6664 66.4897 69.6664C66.4897 69.6664 81.2806 62.7224 84.0582 49.5286C86.8359 36.3348 83.6069 31.0225 79.4404 29.3907Z" fill="#AE0000"/>
<g style="mix-blend-mode:multiply" opacity="0.44">
<path d="M74.8573 29.8075C71.2464 28.2798 66.8369 27.2035 57.254 29.3909C49.06 31.2658 46.4212 31.6824 45.831 31.7866C45.206 31.6824 42.5673 31.2658 34.3732 29.3909C24.7904 27.2035 20.3809 28.2798 16.8047 29.8075C13.1937 31.3699 10.4161 36.4044 12.8118 48.9038C15.2075 61.4031 27.9847 68 27.9847 68C27.9847 68 43.6089 73.6248 45.7268 73.8331C45.75 73.8331 45.7847 73.8331 45.831 73.8331C45.8541 73.8331 45.8773 73.8331 45.9004 73.8331C48.0184 73.6248 63.6426 68 63.6426 68C63.6426 68 76.4544 61.4031 78.8502 48.9038C81.2459 36.4044 78.4335 31.3699 74.8573 29.8075Z" fill="#560000"/>
</g>
<path d="M45.935 101.471C54.2332 101.471 61.9759 99.249 68.677 95.4298C64.823 86.1247 55.6915 79.5625 44.9976 79.5625C34.6856 79.5625 25.7624 85.708 21.7349 94.527C28.7484 98.9365 37.0466 101.471 45.935 101.471Z" fill="#CF0000"/>
<path d="M44.72 83.7282C44.72 89.5844 44.72 95.429 44.72 101.262C44.72 101.922 45.7616 101.922 45.7616 101.262C45.7616 95.4058 45.7616 89.5612 45.7616 83.7282C45.7616 83.0685 44.72 83.0685 44.72 83.7282Z" fill="#AE0000"/>
<path d="M19.895 43.1057C19.895 43.1057 15.2077 39.2864 13.4717 45.3625C11.7357 51.4386 19.2006 56.6466 20.5894 56.2994L19.895 43.1057Z" fill="#FF7E3E"/>
<path d="M71.0382 43.1057C71.0382 43.1057 75.7254 39.2864 77.4614 45.3625C79.1975 51.4386 71.7326 56.6466 70.3438 56.2994L71.0382 43.1057Z" fill="#FF7E3E"/>
<path opacity="0.3" d="M19.895 43.1057C19.895 43.1057 15.2077 39.2864 13.4717 45.3625C11.7357 51.4386 19.2006 56.6466 20.5894 56.2994L19.895 43.1057Z" fill="#FE2F00"/>
<path opacity="0.3" d="M71.0382 43.1057C71.0382 43.1057 75.7254 39.2864 77.4614 45.3625C79.1975 51.4386 71.7326 56.6466 70.3438 56.2994L71.0382 43.1057Z" fill="#FE2F00"/>
<path d="M47.185 84.8738H43.2269C41.6992 84.8738 40.4492 83.6238 40.4492 82.0961V74.2493C40.4492 72.7216 41.6992 71.4717 43.2269 71.4717H47.185C48.7127 71.4717 49.9626 72.7216 49.9626 74.2493V82.0961C49.9626 83.6238 48.7127 84.8738 47.185 84.8738Z" fill="#FF7E3E"/>
<g style="mix-blend-mode:multiply" opacity="0.73">
<path d="M47.185 71.4717H43.2269C41.6992 71.4717 40.4492 72.7216 40.4492 74.2493V77.2006C42.1505 77.5478 43.9213 77.7214 45.692 77.7214C47.1271 77.7214 48.5507 77.6056 49.9626 77.3742V74.2493C49.9626 72.7216 48.7127 71.4717 47.185 71.4717Z" fill="#F9AB64"/>
</g>
<path d="M71.0382 25.3973H48.7477C47.5903 25.2353 46.4098 25.1543 45.2062 25.1543C44.0257 25.1543 42.8568 25.2353 41.6994 25.3973H19.0617V46.2296H19.2353C19.1658 46.5768 19.108 46.9356 19.0617 47.306C19.0617 47.306 18.9575 52.3057 19.0617 53.9376C19.895 66.5411 31.8041 76.0892 45.2062 76.0892C57.9139 76.0892 69.7536 67.6522 71.0382 55.9514C71.8368 48.3476 71.0382 25.3973 71.0382 25.3973Z" fill="#FF7E3E"/>
<path opacity="0.3" d="M40.3798 58.7291C40.3798 58.7291 41.3173 59.7707 43.6088 58.9721C45.9351 58.1388 47.5669 58.0347 47.9141 59.4235C48.2613 60.8123 45.1365 62.6525 42.8102 62.6525C41.5256 62.6525 38.4007 60.2221 40.3798 58.7291Z" fill="#FE2F00"/>
<path d="M42.5325 48.4528C42.5325 51.161 42.5325 53.8692 42.5325 56.5774C42.8566 56.4848 43.1806 56.3922 43.5047 56.2996C42.1506 53.9386 39.1994 55.1886 39.3382 57.7579C39.5466 60.6397 42.7408 61.9243 44.9629 60.2925C45.5185 59.9105 44.9977 58.9731 44.4421 59.3897C43.7014 60.0841 42.7756 60.1999 41.6645 59.7369C40.7965 59.3897 40.3798 58.5564 40.6923 57.6884C41.109 56.4732 41.6645 56.369 42.6714 56.6815C43.1228 56.8204 42.9144 57.3759 43.5047 56.7857C43.8519 56.4385 43.5741 54.5289 43.5741 54.0428C43.5741 52.191 43.5741 50.3277 43.5741 48.4528C43.5741 47.7931 42.5325 47.7931 42.5325 48.4528Z" fill="#AF4700"/>
<path opacity="0.3" d="M64.4412 59.7705C64.4412 61.7496 61.976 63.3467 58.9553 63.3467C55.9346 63.3467 53.4695 61.7496 53.4695 59.7705C53.4695 57.7915 55.9346 56.1943 58.9553 56.1943C61.976 56.1943 64.4412 57.7915 64.4412 59.7705Z" fill="#FE2F00"/>
<path opacity="0.3" d="M35.5188 60.7081C35.5188 62.7218 33.0537 64.319 30.033 64.319C26.9776 64.319 24.5125 62.7218 24.5125 60.7081C24.5125 58.729 26.9776 57.1318 30.033 57.1318C33.0537 57.1318 35.5188 58.729 35.5188 60.7081Z" fill="#FE2F00"/>
<path d="M61.1079 51.2644C61.1079 53.1046 60.2052 54.6323 59.0594 54.6323C57.9484 54.6323 57.0457 53.1046 57.0457 51.2644C57.0457 49.4242 57.9484 47.8965 59.0594 47.8965C60.2052 47.8965 61.1079 49.4242 61.1079 51.2644Z" fill="#560000"/>
<path d="M31.6997 51.2644C31.6997 53.1046 30.797 54.6323 29.686 54.6323C28.5402 54.6323 27.6375 53.1046 27.6375 51.2644C27.6375 49.4242 28.5402 47.8965 29.686 47.8965C30.797 47.8965 31.6997 49.4242 31.6997 51.2644Z" fill="#560000"/>
<path d="M41.5951 72.9996C42.6367 74.2148 44.1644 74.8051 45.7616 74.5967C46.4212 74.4926 46.2824 73.451 45.6227 73.5551C44.4075 73.7287 43.227 73.3121 42.4284 72.3746C41.977 71.8538 41.1437 72.4788 41.5951 72.9996Z" fill="#AF4700"/>
<path d="M45.2754 58.8687C45.6573 59.0075 45.9698 59.2853 46.1781 59.5978C46.5253 60.1533 47.428 59.6325 47.0808 59.077C46.6989 58.5215 46.1781 58.1048 45.5531 57.8618C44.9282 57.6187 44.6504 58.6256 45.2754 58.8687Z" fill="#AF4700"/>
<path fill-rule="evenodd" clip-rule="evenodd" d="M57.3928 43.5918C54.7888 44.2168 53.6778 40.1892 56.2818 39.5643C59.3025 38.8351 62.462 39.7031 64.58 41.9947C66.4202 43.939 63.4689 46.8903 61.6635 44.9112C60.5177 43.7307 58.99 43.2099 57.3928 43.5918ZM24.7209 42.203C26.943 40.1892 29.9289 39.4254 32.8107 40.2934C35.3801 41.0572 34.269 45.0848 31.6997 44.321C30.2761 43.8696 28.7832 44.1126 27.6721 45.1195C25.6583 46.925 22.7071 43.9738 24.7209 42.203Z" fill="#240000"/>
<path d="M60.9688 42.8271C62.2187 44.2159 64.0242 43.209 64.4061 41.8202C62.2881 39.6675 59.198 38.8689 56.2815 39.5633C55.4135 39.7717 54.9621 40.3619 54.8232 41.0563C55.2746 41.473 55.9343 41.6813 56.6981 41.5077C58.2953 41.1258 59.823 41.6466 60.9688 42.8271Z" fill="#560000"/>
<path d="M33.5049 40.6742C33.3313 40.5006 33.0883 40.3965 32.8105 40.2923C29.9287 39.4243 26.9427 40.1881 24.7206 42.2019C24.4081 42.445 24.2345 42.7575 24.1304 43.0352C24.8942 43.6949 26.04 43.9032 26.9774 43.0352C28.0885 42.0283 29.5815 41.7853 31.005 42.2366C32.3591 42.6186 33.2966 41.7158 33.5049 40.6742Z" fill="#560000"/>
<path d="M75.3782 45.3278C74.9268 44.807 74.2324 44.6681 73.5727 44.9459C72.7047 45.2931 72.3922 46.2305 72.2533 47.0985C72.1144 47.6888 72.045 48.5221 72.5658 48.9734C72.8783 49.2165 73.156 49.1818 73.5033 49.2165C73.8505 49.2165 74.1629 49.1818 74.4754 49.3901C75.1351 49.772 75.0657 51.1608 74.0241 50.7789C73.3991 50.5359 73.1213 51.5428 73.7463 51.7511C75.1698 52.3066 76.5239 50.7095 75.8643 49.3554C75.517 48.6957 74.8226 48.2443 74.0588 48.1749C73.4685 48.1054 73.1561 48.3138 73.2255 47.5152C73.2255 47.0291 73.8157 45.1195 74.649 46.0916C75.0657 46.5777 75.7948 45.8486 75.3782 45.3278Z" fill="#AF4700"/>
<path d="M15.9018 45.5694C16.874 45.2222 17.8114 46.7846 17.4295 47.5485C17.1518 48.1387 16.7351 47.861 16.249 47.9998C15.8324 48.1387 15.4505 48.3818 15.2769 48.8331C14.7213 50.4303 16.5268 51.2288 17.6031 51.8191C18.1587 52.1663 18.7142 51.2636 18.1239 50.9164C17.8809 50.8122 17.6378 50.6733 17.3948 50.5344C16.8393 50.222 16.3185 50.0831 16.5268 49.4234C16.7698 48.729 17.0823 49.1109 17.6378 48.9373C18.2975 48.729 18.4711 48.1734 18.4711 47.5485C18.4711 45.9861 17.499 43.8681 15.6241 44.5625C14.9991 44.8056 15.2769 45.8125 15.9018 45.5694Z" fill="#AF4700"/>
<path d="M36.3521 64.1112C36.3521 64.1112 39.72 66.1944 44.1642 66.125C48.7126 66.0555 52.7054 62.9307 52.7054 62.9307C52.7054 62.9307 53.0526 63.6945 53.9901 63.6251C53.9901 63.6251 52.3582 71.0205 43.7476 70.4303C35.1369 69.8053 35.2063 64.7709 35.2063 64.7709L36.3521 64.1112Z" fill="#560000"/>
<path d="M37.6714 68.6585C38.956 69.5265 40.8657 70.2209 43.7475 70.4293C47.0806 70.6376 49.3722 69.6654 50.9346 68.4155C46.8376 65.499 39.1644 68.1377 37.6714 68.6585Z" fill="#E02F00"/>
<path d="M44.1642 66.1237C42.1851 66.1584 40.4144 65.7765 39.0603 65.3252C39.095 65.7418 39.5117 66.7487 40.588 67.5125C41.7685 68.3111 42.324 68.4153 44.685 68.4153C47.0113 68.4153 49.0251 67.6862 49.7542 66.7834C50.2056 66.1584 50.3445 65.0821 50.3792 64.3877C48.782 65.221 46.5252 66.089 44.1642 66.1237Z" fill="white"/>
<path d="M39.0603 65.3252C39.095 65.6724 39.4075 66.5057 40.2408 67.2001C40.1714 67.0612 39.6158 65.7765 39.8589 65.9501C40.1366 66.1237 41.6991 66.8529 44.4073 66.8529C47.1155 66.8529 49.2681 65.6029 49.2681 65.6029C49.2681 65.6029 49.5459 66.8181 49.0945 67.3389C49.3491 67.1538 49.569 66.9686 49.7542 66.7834C50.2056 66.1584 50.3445 65.0821 50.3792 64.3877C48.782 65.221 46.5252 66.089 44.1642 66.1237C42.1851 66.1584 40.4144 65.7765 39.0603 65.3252Z" fill="#DBDBDB"/>
<path d="M33.8871 65.5334C35.6578 65.4293 37.0814 64.0057 37.2203 62.235C37.2897 61.5753 36.2481 61.5753 36.1786 62.235C36.0745 63.4155 35.0676 64.4224 33.8871 64.4918C33.2274 64.5266 33.2274 65.5682 33.8871 65.5334Z" fill="#AF4700"/>
<path d="M51.7334 60.5341C51.2473 61.541 51.6293 62.5826 52.3931 63.3464C53.2611 64.1797 54.3027 64.145 55.4138 63.9367C56.0735 63.8325 55.7957 62.8256 55.136 62.9645C54.5111 63.0687 53.8166 63.1728 53.2958 62.7562C52.8097 62.3742 52.3237 61.6798 52.6361 61.0549C52.9486 60.4646 52.0459 59.9438 51.7334 60.5341Z" fill="#AF4700"/>
<path d="M66.5246 96.5752C52.7985 96.5752 39.0839 96.5752 25.3809 96.5752C26.9317 97.3622 28.5173 98.0566 30.1376 98.6584C40.6694 98.6584 51.2013 98.6584 61.7332 98.6584C63.3766 98.0566 64.9738 97.3622 66.5246 96.5752Z" fill="#FFC23E"/>
<path d="M22.7418 92.582C22.3714 93.207 22.0358 93.8551 21.7349 94.5264C21.8043 94.5727 21.8853 94.619 21.9779 94.6653C37.4169 94.6653 52.8676 94.6653 68.3298 94.6653C68.0057 93.9477 67.6585 93.2533 67.2881 92.582C52.4278 92.582 37.579 92.582 22.7418 92.582Z" fill="#FFC23E"/>
<path d="M39.5118 80.1528C39.1646 79.8403 33.6093 82.7916 32.9149 84.597C32.2205 86.4025 39.616 91.0203 39.616 91.0203L45.1365 84.8054L51.6292 90.9162C51.6292 90.9162 56.9068 85.3262 57.0456 83.9026C57.1845 82.4791 50.8654 80.257 50.8654 80.257L45.1712 84.3193C45.1712 84.3193 41.5603 81.8541 39.5118 80.1528Z" fill="#AE0000"/>
<path d="M19.0614 25.3976C19.0614 25.3976 18.8183 3.00289 44.5462 2.82929C71.9754 2.65569 69.3713 21.9256 70.413 25.7448L46.2822 32.1681C46.2822 32.1681 19.0961 26.7864 19.0614 25.3976Z" fill="#AE0000"/>
<g style="mix-blend-mode:multiply" opacity="0.55">
<path d="M58.7819 12.03C58.5388 11.6481 50.9698 5.91923 46.9422 2.86382C46.1783 2.84068 45.3798 2.8291 44.5465 2.8291C43.5049 2.8291 42.498 2.89854 41.5258 2.96798C36.8733 6.16227 28.5751 11.8564 28.5751 11.8564L27.5334 26.2654C28.3667 27.307 29.3736 28.1403 30.5194 28.8C34.3734 29.7028 38.5051 30.5708 41.5605 31.1957C51.0045 31.161 61.0387 27.6542 61.0387 27.6542C61.0387 27.6542 59.1291 12.5508 58.7819 12.03Z" fill="#AE0000"/>
</g>
<g style="mix-blend-mode:multiply" opacity="0.55">
<path d="M64.1632 27.4112C64.0243 26.3349 62.2536 12.3425 61.9064 11.8564C61.6634 11.5092 54.8234 6.30115 50.6917 3.14158C48.8515 2.93326 46.8377 2.8291 44.6156 2.8291C39.963 6.02339 31.6996 11.6828 31.6996 11.6828L30.658 26.0918C35.4841 32.1679 46.3863 31.5082 54.4415 29.9805L64.1632 27.4112Z" fill="#AE0000"/>
</g>
<path d="M71.0378 26.787H48.7473C47.5899 26.625 46.4094 26.5439 45.2058 26.5439C44.0253 26.5439 42.8564 26.625 41.699 26.787H19.0613V45.3972L20.0682 47.029L20.7626 35.9185C20.7626 35.9185 24.2346 39.1822 28.4011 35.4671C28.4011 35.4671 35.7966 39.8766 43.6781 31.752C43.6781 31.752 52.7054 39.8766 57.5663 35.4671C57.5663 35.4671 60.7953 40.0849 64.059 35.4671C64.059 35.4671 66.8367 36.8559 68.4338 35.0158L69.6143 48.2095L71.385 45.5013C71.385 36.6129 71.0378 26.787 71.0378 26.787Z" fill="#560000"/>
<path d="M29.0957 26.2658L30.1373 11.8568C30.1373 11.8568 44.2686 2.20447 46.0046 0.989258C46.0046 0.989258 59.9969 11.5096 60.3441 12.0304C60.6913 12.5512 62.601 27.6546 62.601 27.6546C62.601 27.6546 37.255 36.5083 29.0957 26.2658Z" fill="#E02F00"/>
<path d="M60.344 12.031C60.2745 11.9268 59.5801 11.3713 58.5385 10.538C54.3026 7.23955 47.5668 2.20508 47.5668 2.20508C45.8308 3.4203 31.6996 13.0726 31.6996 13.0726L30.658 27.4816C30.9704 27.8982 31.3524 28.2454 31.6996 28.5926C41.6644 34.9812 62.6008 27.6552 62.6008 27.6552C62.6008 27.6552 60.6912 12.5518 60.344 12.031Z" fill="#CF0000"/>
<path d="M37.4635 30.2591C37.4635 30.2591 38.5399 23.315 34.304 16.7181L45.8312 9.42676L57.0459 16.7181C57.0459 16.7181 51.4906 23.8358 54.0946 31.6479C54.0946 31.6479 38.9218 37.2031 37.4635 30.2591Z" fill="#AE0000"/>
<path d="M38.1231 28.5227C38.1231 28.5227 39.1647 21.5786 35.1719 14.9817L46.0047 7.69043L56.525 14.9817C56.525 14.9817 51.3169 22.0994 53.7473 29.9115C53.7473 29.9115 39.5119 35.4668 38.1231 28.5227Z" fill="#FFC23E"/>
<path d="M46.1088 7.75987L46.0047 7.69043L35.1719 14.9817C39.1647 21.5786 38.1231 28.5227 38.1231 28.5227C38.7828 31.8906 42.4979 32.3073 46.1088 31.8559V7.75987Z" fill="#FFF13E"/>
<g style="mix-blend-mode:multiply" opacity="0.44">
<path d="M6.87451 38.4878C6.87451 38.4878 10.7979 32.2381 17.9851 31.752C25.1722 31.3006 35.3453 35.7101 45.3101 36.1615C55.2401 36.6128 64.823 30.6062 70.7949 31.1965C76.7668 31.752 83.0165 35.9184 84.4053 40.0849C84.4053 40.0849 85.3428 28.523 73.0865 26.4397C60.7954 24.3565 55.9346 31.0576 47.3933 30.6062C38.8174 30.1548 28.1582 26.8911 26.0749 26.6828C23.9917 26.4398 9.65215 24.1135 6.87451 38.4878Z" fill="#560000"/>
</g>
<path d="M7.11743 36.8562C7.11743 36.8562 11.0408 30.6066 18.228 30.1552C25.3804 29.6691 35.5882 34.0786 45.5183 34.53C55.4831 35.016 65.0312 28.9747 71.0378 29.5649C77.0098 30.1552 83.2595 34.3216 84.6483 38.4881C84.6483 38.4881 85.5857 26.8915 73.2947 24.8082C61.0383 22.725 56.1775 29.4608 47.6015 28.9747C39.0603 28.5233 28.4011 25.2943 26.3179 25.0513C24.2346 24.8082 9.89507 22.5167 7.11743 36.8562Z" fill="#E02F00"/>
<path d="M73.2948 26.3353C61.0384 24.252 56.1776 30.9531 47.6016 30.5017C39.0604 30.0156 28.4012 26.7866 26.3179 26.5436C24.3389 26.3352 11.4923 24.2867 7.70776 36.0223C9.06186 34.321 12.6381 30.5017 18.2281 30.1545C25.3805 29.6684 35.5883 34.0779 45.5184 34.5293C55.4832 35.0154 65.0313 28.974 71.0379 29.5643C76.9751 30.1545 83.1901 34.2515 84.6136 38.418C84.3706 35.189 82.7735 27.9324 73.2948 26.3353Z" fill="#CF0000"/>
</svg>
