<svg width="112" height="116" viewBox="0 0 112 116" fill="none" xmlns="http://www.w3.org/2000/svg">
<path d="M111.646 59.3413C111.646 90.0598 86.7239 114.982 56.0053 114.982C25.2445 114.982 0.322754 90.0598 0.322754 59.3413C0.322754 28.5805 25.2445 3.65869 56.0053 3.65869C86.7239 3.65869 111.646 28.5805 111.646 59.3413Z" fill="#90DDF4"/>
<path d="M24.3981 43.9829C24.3981 43.9406 18.686 39.2863 16.5704 46.6909C14.4548 54.0955 23.5519 60.4423 25.2443 60.0192L24.3981 43.9829Z" fill="#F2B297"/>
<path d="M86.7237 43.9829C86.7237 43.9406 92.4358 39.2863 94.5514 46.6909C96.667 54.0955 87.5699 60.4423 85.8774 60.0192L86.7237 43.9829Z" fill="#F2B297"/>
<path d="M56.1318 115.11C66.2444 115.11 75.68 112.402 83.8462 107.705C79.1496 96.3653 68.0215 88.4106 54.9894 88.4106C42.4228 88.4106 31.5486 95.8576 26.6404 106.605C35.1874 111.978 45.3 115.11 56.1318 115.11Z" fill="white"/>
<path d="M49.9966 93.0649L54.9471 108.128L60.5746 93.4458L49.9966 93.0649Z" fill="#560000"/>
<path d="M43.9038 90.4424C43.255 90.6963 42.6203 90.9642 41.9997 91.2463L38.6994 97.1277L38.4455 97.5508L38.6994 97.9739L41.7459 103.305L35.1875 109.356L34.5105 109.991L35.1875 110.583L35.9491 111.302C36.6543 111.584 37.3736 111.838 38.107 112.064L35.7375 109.948L42.8037 103.474L39.4187 97.5508L43.2691 90.6963C43.4948 90.6116 43.7063 90.527 43.9038 90.4424Z" fill="#DBDBDB"/>
<path d="M73.2685 112.233L73.1415 112.275C73.1697 112.332 73.1979 112.374 73.2262 112.402C73.5647 112.289 73.9031 112.176 74.2416 112.064L73.9031 111.683L67.2178 103.686L72.8453 100.259L73.5646 99.8355L73.1415 99.0739C70.8849 95.3786 69.1783 92.7694 68.0218 91.2461C67.3448 90.9359 66.6537 90.6538 65.9485 90.3999C66.0331 90.4281 66.1177 90.4563 66.2023 90.4845C67.1755 90.8653 72.4222 99.5393 72.4222 99.5393L65.9485 103.474L73.2685 112.233Z" fill="#DBDBDB"/>
<path d="M57.6551 94.8835H52.8315C50.9698 94.8835 49.4465 93.3603 49.4465 91.4986V81.8937C49.4465 80.032 50.9698 78.5088 52.8315 78.5088H57.6551C59.5168 78.5088 61.04 80.032 61.04 81.8937V91.4986C61.04 93.3603 59.5168 94.8835 57.6551 94.8835Z" fill="#F9D0BB"/>
<path d="M57.6551 78.5088H52.8315C50.9698 78.5088 49.4465 80.032 49.4465 81.8937V85.5326C51.5198 85.9134 53.6777 86.1249 55.8356 86.1249C57.5845 86.1249 59.3193 85.998 61.04 85.7441V81.8937C61.04 80.032 59.5168 78.5088 57.6551 78.5088Z" fill="#F2B297"/>
<path d="M86.7234 22.4036H59.5591C58.1487 22.2062 56.7101 22.1074 55.2433 22.1074C53.8047 22.1074 52.3802 22.2062 50.9698 22.4036H23.3823V47.7908H23.5939C23.5093 48.2139 23.4388 48.637 23.3823 49.0602C23.3823 49.0602 23.2554 55.1531 23.3823 57.1841C24.3978 72.501 38.9108 84.1791 55.2433 84.1791C70.7295 84.1791 85.1579 73.8973 86.7234 59.5959C87.6966 50.3295 86.7234 22.4036 86.7234 22.4036Z" fill="#F9D0BB"/>
<path d="M51.9854 50.4989C51.9854 53.7711 51.9854 57.0573 51.9854 60.3576C52.3803 60.2448 52.7752 60.1461 53.1701 60.0615C51.52 57.1842 47.9234 58.6652 48.0927 61.8386C48.3466 65.3505 52.2393 66.8737 54.9472 64.885C55.6242 64.4196 54.9895 63.3195 54.3126 63.7849C53.4099 64.6311 52.2816 64.7863 50.9276 64.2503C49.8698 63.8272 49.362 62.8117 49.7429 61.7116C50.2506 60.273 50.9276 60.1038 52.1546 60.4846C52.7047 60.6961 52.4508 61.3308 53.1701 60.6115C53.5932 60.2307 53.2548 57.9035 53.2548 57.3112C53.2548 55.0263 53.2548 52.7556 53.2548 50.4989C53.2548 49.6527 51.9854 49.6527 51.9854 50.4989Z" fill="#CC6666"/>
<path d="M78.2612 64.5886C78.2612 67.0004 75.2571 68.9467 71.5759 68.9467C67.8948 68.9467 64.8906 67.0004 64.8906 64.5886C64.8906 62.1768 67.8948 60.2305 71.5759 60.2305C75.2571 60.2305 78.2612 62.1768 78.2612 64.5886Z" fill="#F2B297"/>
<path d="M43.1421 64.5886C43.1421 67.0004 40.1379 68.9467 36.4568 68.9467C32.7756 68.9467 29.7715 67.0004 29.7715 64.5886C29.7715 62.1768 32.7756 60.2305 36.4568 60.2305C40.1379 60.2305 43.1421 62.1768 43.1421 64.5886Z" fill="#F2B297"/>
<path d="M74.6226 53.926C74.6226 56.1686 73.5225 57.988 72.1262 57.988C70.7722 57.988 69.6721 56.1686 69.6721 53.8837C69.6721 51.6412 70.7722 49.8218 72.1262 49.8218C73.5225 49.8218 74.6226 51.6412 74.6226 53.8837V53.926Z" fill="#560000"/>
<path d="M38.7842 53.926C38.7842 56.1686 37.6841 57.988 36.3302 57.988C34.9339 57.988 33.8337 56.1686 33.8337 53.8837C33.8337 51.6412 34.9339 49.8218 36.3302 49.8218C37.6841 49.8218 38.7842 51.6412 38.7842 53.8837V53.926Z" fill="#560000"/>
<path d="M51.2661 76.7747C52.5355 78.2557 54.3972 79.0173 56.3435 78.7211C57.1475 78.5941 56.9782 77.3671 56.1743 77.4517C54.6934 77.6633 53.2548 77.1555 52.2816 76.0131C51.7315 75.4208 50.716 76.1824 51.2661 76.7747Z" fill="#CC6666"/>
<path d="M55.328 63.1918C55.7934 63.361 56.1742 63.6572 56.4281 64.0803C56.8512 64.7573 57.9513 64.1226 57.5282 63.4456C57.0628 62.7263 56.4281 62.2609 55.6665 61.9647C54.9049 61.6685 54.5664 62.8956 55.328 63.1918Z" fill="#CC6666"/>
<g style="mix-blend-mode:multiply" opacity="0.75">
<path d="M49.5735 63.0227C49.5735 62.9804 50.7159 64.2498 53.5085 63.2766C56.3434 62.3034 58.332 62.1342 58.7552 63.8267C59.1783 65.5192 55.3702 67.804 52.5353 67.804C50.9698 67.804 47.1617 64.8422 49.5735 62.9804V63.0227Z" fill="#F2B297"/>
</g>
<path fill-rule="evenodd" clip-rule="evenodd" d="M70.0949 44.5325C66.9215 45.3364 65.5675 40.4282 68.7409 39.6666C72.4221 38.7781 76.2725 39.7936 78.8535 42.5862C81.096 44.9556 77.4995 48.5521 75.2993 46.1827C73.903 44.7441 72.0413 44.0671 70.0949 44.5325ZM30.2793 42.84C32.9873 40.4282 36.6261 39.4974 40.138 40.5552C43.2691 41.486 41.9151 46.3519 38.784 45.4211C37.0492 44.9133 35.2298 45.2095 33.8758 46.4365C31.4217 48.5945 27.8252 45.0403 30.2793 42.84Z" fill="#240000"/>
<path d="M74.4531 43.6445C75.9763 45.2947 78.1766 44.0676 78.642 42.3752C76.061 39.7518 72.2952 38.7786 68.741 39.6672C67.6832 39.9211 67.1331 40.6404 66.9639 41.4443C67.5139 41.952 68.3179 42.2482 69.2487 41.9943C71.1951 41.5289 73.0568 42.2059 74.4531 43.6445Z" fill="#470021"/>
<path d="M40.9843 40.9782C40.7727 40.809 40.4766 40.6397 40.1381 40.5551C36.6262 39.4973 32.9873 40.4282 30.2794 42.84C29.8985 43.1785 29.687 43.517 29.5601 43.8978C30.4909 44.6594 31.8872 44.9133 33.0296 43.8978C34.3836 42.6707 36.203 42.3745 37.9378 42.8823C39.588 43.39 40.7304 42.2899 40.9843 40.9782Z" fill="#470021"/>
<path d="M92.0122 46.6901C91.4622 46.0554 90.6159 45.8862 89.812 46.1824C88.7542 46.6478 88.3734 47.7479 88.2041 48.8057C88.0349 49.5673 87.9503 50.5405 88.5849 51.0906C88.9658 51.3868 89.3043 51.3868 89.7274 51.3868C90.1505 51.4291 90.5313 51.3868 90.9121 51.5983C91.716 52.0637 91.6314 53.7562 90.3621 53.2908C89.6004 52.9946 89.2619 54.2217 90.0235 54.5178C91.7583 55.1525 93.4085 53.2062 92.6046 51.5983C92.1815 50.7521 91.3352 50.2443 90.4044 50.1174C89.6851 50.0328 89.3042 50.2866 89.3889 49.3135C89.3889 48.7634 90.1082 46.4362 91.1237 47.5787C91.6314 48.2134 92.52 47.3248 92.0122 46.6901Z" fill="#CC6666"/>
<path d="M19.5321 46.9868C20.7168 46.5214 21.8593 48.4254 21.3938 49.3563C21.0553 50.0756 20.5476 49.7794 19.9552 49.9487C19.4475 50.0756 18.982 50.4141 18.7705 50.9642C18.0935 52.9105 20.2937 53.8414 21.6054 54.603C22.2824 55.0261 22.9171 53.926 22.2401 53.5029C21.9439 53.3336 21.6477 53.2067 21.3515 53.0374C20.6745 52.6566 20.0398 52.4874 20.2937 51.6412C20.5899 50.8372 20.9707 51.2603 21.6477 51.0488C22.4516 50.7949 22.6632 50.1602 22.6632 49.3563C22.6632 47.4946 21.4785 44.9135 19.1936 45.7598C18.432 46.0137 18.7705 47.2407 19.5321 46.9868Z" fill="#CC6666"/>
<path d="M54.3125 107.619C54.3125 107.619 55.878 112.062 55.4972 114.558" stroke="#DBDBDB" stroke-miterlimit="10"/>
<path d="M75.1299 111.722C75.9339 111.511 76.6532 111.172 77.3725 110.834L78.8111 95.3477L71.9565 96.0246L72.2104 112.526C73.1836 112.272 74.1568 112.019 75.1299 111.722Z" fill="#6EBCDA"/>
<path d="M75.1299 111.722C75.9338 111.511 76.6531 111.172 77.3724 110.834L78.811 95.3477L73.4797 95.8977L73.7336 112.103C74.2131 111.99 74.6786 111.863 75.1299 111.722Z" fill="#90DDF4"/>
<path d="M71.9988 99.0291C72.0271 99.0291 72.0694 99.0291 72.1258 99.0291C72.8028 98.9727 73.4939 98.9022 74.1991 98.8176C74.5376 98.7752 74.7914 98.5637 74.7914 98.1829C74.7914 97.8867 74.4952 97.5482 74.1567 97.5905C73.4798 97.6469 72.7887 97.7033 72.0835 97.7598C72.0553 97.788 72.013 97.8021 71.9565 97.8021L71.9988 99.0291Z" fill="white"/>
<path d="M73.9875 107.83C73.3951 107.491 72.7604 107.449 72.1257 107.618L72.1681 108.888C72.2245 108.888 72.2809 108.873 72.3373 108.845C72.6758 108.718 73.0566 108.761 73.3528 108.888C74.0721 109.268 74.7068 108.211 73.9875 107.83Z" fill="white"/>
<path d="M73.3529 102.161C73.6914 102.118 73.9876 101.907 73.9876 101.526C73.9876 101.23 73.6914 100.849 73.3529 100.891C72.9016 100.948 72.4644 101.004 72.0413 101.061V102.33C72.4926 102.274 72.9298 102.217 73.3529 102.161Z" fill="white"/>
<path d="M73.649 105.081C73.9875 105.038 74.2837 104.784 74.2837 104.446C74.2837 104.107 73.9875 103.769 73.649 103.811C73.1131 103.868 72.5912 103.91 72.0835 103.938V105.208C72.6194 105.151 73.1413 105.109 73.649 105.081Z" fill="white"/>
<path d="M70.0527 113.118C71.322 112.78 72.5914 112.441 73.8184 112.103L74.2839 106.983L71.322 101.271L68.741 107.872C68.741 107.872 69.1218 110.495 69.5449 113.118C69.7142 113.118 69.8834 113.118 70.0527 113.118Z" fill="white"/>
<path d="M70.0527 113.118C71.322 112.78 72.5914 112.441 73.8184 112.103L74.2415 107.448C72.9722 108.337 71.4912 107.448 71.4912 107.448C70.3911 108.337 69.3757 108.125 68.7833 107.787L68.741 107.871C68.741 107.871 69.1218 110.495 69.5449 113.118C69.7142 113.118 69.8834 113.118 70.0527 113.118Z" fill="#FF9A3E"/>
<path d="M73.1413 104.783L71.3219 101.271L70.0525 104.571C70.8564 104.91 72.2527 105.333 73.1413 104.783Z" fill="#FFD23E"/>
<path opacity="0.3" d="M73.0147 112.314C73.2967 112.258 73.5647 112.187 73.8186 112.103L74.284 106.983L71.3222 101.271L71.2375 101.483L73.4801 107.11L73.0147 112.314Z" fill="#1F1F1F"/>
<path d="M79.0648 107.83C79.0648 107.83 79.0506 107.83 79.0224 107.83C78.8109 107.83 78.6416 107.618 78.6416 107.407C78.6839 104.826 78.7263 101.948 78.6416 101.61C78.5993 101.568 78.3454 101.441 78.1339 101.356C77.9223 101.314 77.7954 101.06 77.8377 100.848C77.9223 100.637 78.1339 100.51 78.3454 100.552C78.5147 100.594 79.1917 100.764 79.4455 101.314C79.6148 101.694 79.5302 104.826 79.4879 107.407C79.4879 107.66 79.2763 107.83 79.0648 107.83Z" fill="#FFD23E"/>
<path d="M78.4725 110.284V101.314C78.4725 100.679 77.9648 100.129 77.2878 100.129C76.6108 100.129 76.103 100.679 76.103 101.314V111.426C76.9493 111.088 77.7109 110.707 78.4725 110.284Z" fill="#E02F00"/>
<path opacity="0.3" d="M77.711 101.102C77.7956 101.652 77.7956 106.222 77.7533 110.665C78.0072 110.552 78.247 110.425 78.4726 110.284V101.314C78.4726 100.679 77.9649 100.129 77.2879 100.129C77.1751 100.129 77.0763 100.143 76.9917 100.171C77.2456 100.256 77.5841 100.467 77.711 101.102Z" fill="#1F1F1F"/>
<path opacity="0.3" d="M78.3456 107.618H76.103V107.025H78.3456V107.618Z" fill="#1F1F1F"/>
<g style="mix-blend-mode:overlay" opacity="0.6">
<path d="M23.6787 52.74C23.6787 52.74 26.3867 47.3663 36.1185 47.9587C45.8502 48.5088 47.7966 53.5862 48.6428 55.2787C49.489 56.9712 46.9503 69.6648 35.5261 69.5378C24.1018 69.3686 22.5786 56.9712 23.6787 52.74Z" fill="#B8F2FF"/>
</g>
<g style="mix-blend-mode:overlay" opacity="0.6">
<path d="M84.058 53.1628C84.058 53.1628 81.35 47.7892 71.6182 48.3815C61.8865 48.9316 59.9401 54.009 59.0939 55.7015C58.2476 57.394 60.7864 70.0876 72.2106 69.9607C83.6348 69.7914 85.1581 57.394 84.058 53.1628Z" fill="#B8F2FF"/>
</g>
<path fill-rule="evenodd" clip-rule="evenodd" d="M88.712 53.7544C88.712 53.7544 86.7233 54.0929 86.2156 55.4469C85.7078 56.8009 85.0308 69.156 75.1721 70.3407C65.3134 71.4832 62.6478 68.6482 59.9821 64.9671C57.2742 61.286 57.1049 55.6162 57.1049 55.6162C57.1049 55.6162 55.2009 54.3468 53.6777 54.4314C52.1967 54.3468 50.2504 55.6162 50.2504 55.6162C50.2504 55.6162 50.0811 61.286 47.4155 64.9671C44.7498 68.6482 42.0842 71.4832 32.2255 70.3407C22.3245 69.156 21.6898 56.8009 21.182 55.4469C20.6743 54.0929 18.6433 53.7544 18.6433 53.7544C18.6433 53.7544 18.9818 50.7503 18.9818 50.1156C18.9818 50.1156 20.1665 50.581 21.182 50.581C22.1552 50.581 25.4979 48.0846 35.0604 47.4076C44.5806 46.7729 48.8964 52.4851 48.8964 52.4851C53.1276 50.7503 55.5394 51.6811 58.2473 52.7813C61.2938 48.9732 67.7675 47.1114 72.3372 47.4076C81.8574 48.0846 85.2001 50.581 86.2156 50.581C87.2311 50.581 88.3735 50.1156 88.3735 50.1156C88.3735 50.7503 88.712 53.7544 88.712 53.7544ZM36.0335 49.0578C29.7291 49.0578 23.2976 50.7926 24.4401 58.9588C25.244 64.4594 28.7559 69.3252 36.0335 69.156C43.5651 69.0291 46.5692 64.5863 47.4578 59.1281C48.7695 51.3426 42.338 49.0578 36.0335 49.0578ZM71.8718 49.0578C65.5673 49.0578 59.1359 51.3426 60.4476 59.1281C61.3361 64.5863 64.298 69.0291 71.8718 69.156C79.1072 69.3252 82.6614 64.4594 83.423 58.9588C84.6077 50.7926 78.1763 49.0578 71.8718 49.0578Z" fill="#BD2000"/>
<path fill-rule="evenodd" clip-rule="evenodd" d="M88.712 53.2034C88.712 53.2034 86.7233 53.5419 86.2156 54.8536C85.7078 56.2076 85.0308 68.5627 75.1721 69.7474C65.3134 70.9322 62.6478 68.0973 59.9821 64.4161C57.2742 60.735 57.1049 55.0229 57.1049 55.0229C57.1049 55.0229 55.2009 53.7535 53.6777 53.8804C52.1967 53.7535 50.2504 55.0229 50.2504 55.0229C50.2504 55.0229 50.0811 60.735 47.4155 64.4161C44.7498 68.0973 42.0842 70.9322 32.2255 69.7474C22.3245 68.5627 21.6898 56.2076 21.182 54.8536C20.6743 53.5419 18.6433 53.2034 18.6433 53.2034C18.6433 53.2034 18.9818 50.1993 18.9818 49.5223C18.9818 49.5223 20.1665 50.03 21.182 50.03C22.1552 50.03 25.4979 47.5336 35.0604 46.8566C44.5806 46.1796 48.8964 51.9341 48.8964 51.9341C53.1276 50.1993 55.5394 51.0878 58.2473 52.1879C61.2938 48.3799 67.7675 46.5181 72.3372 46.8566C81.8574 47.5336 85.2001 50.03 86.2156 50.03C87.2311 50.03 88.3735 49.5223 88.3735 49.5223C88.3735 50.1993 88.712 53.2034 88.712 53.2034ZM36.0335 48.4645C29.7291 48.4645 23.2976 50.1993 24.4401 58.4078C25.244 63.9084 28.7559 68.7319 36.0335 68.605C43.5651 68.4358 46.5692 64.0353 47.4578 58.5348C48.7695 50.7917 42.338 48.4645 36.0335 48.4645ZM71.8718 48.4645C65.5673 48.4645 59.1359 50.7917 60.4476 58.5348C61.3361 64.0353 64.298 68.4358 71.8718 68.605C79.1072 68.7319 82.6614 63.9084 83.423 58.4078C84.6077 50.1993 78.1763 48.4645 71.8718 48.4645Z" fill="#FF7654"/>
<path fill-rule="evenodd" clip-rule="evenodd" d="M59.9822 64.4161C58.7128 62.6813 57.9935 60.5234 57.6127 58.7039C57.3165 57.0115 57.2742 55.7421 57.2742 55.7421C57.2742 55.7421 57.2319 55.728 57.1473 55.6998C57.1473 55.2767 57.1049 55.0228 57.1049 55.0228C57.1049 55.0228 55.2009 53.7534 53.6777 53.8804C52.1968 53.7534 50.2504 55.0228 50.2504 55.0228C50.2504 55.0228 50.0812 60.7349 47.4155 64.4161C44.7498 68.0972 42.0842 70.9321 32.2255 69.7474C24.8209 68.8588 22.5784 61.6658 21.7321 57.6038C21.5629 56.7999 21.4782 56.1652 21.3936 55.8267C21.309 55.3613 21.2244 55.0228 21.1821 54.8535C20.7589 53.7957 19.405 53.3726 18.8972 53.2457C18.9818 52.3148 19.1511 50.707 19.1511 50.2415C19.1511 50.2415 20.2935 50.7493 21.309 50.7493C22.3245 50.7493 25.6671 48.2529 35.1873 47.5759C44.7075 46.8989 49.0234 52.6533 49.0234 52.6533C53.2546 50.9185 55.6663 51.8071 58.3743 52.9072C61.4208 49.0991 67.8945 47.2374 72.4642 47.5759C82.0267 48.2529 85.3694 50.7493 86.3426 50.7493C87.1888 50.7493 88.1196 50.4108 88.4158 50.2838C88.5428 51.384 88.712 53.2034 88.712 53.2034C88.712 53.2034 86.7233 53.5419 86.2156 54.8535C85.7079 56.2075 85.0309 68.5626 75.1722 69.7474C65.3135 70.9321 62.6478 68.0972 59.9822 64.4161ZM47.5424 55.319C46.7808 50.1146 41.3649 48.4644 36.0336 48.4644C29.7291 48.4644 23.2977 50.1992 24.4401 58.4077C24.5247 58.8309 24.6093 59.254 24.694 59.6771C25.6248 64.9661 29.179 69.4512 36.1605 69.3242C43.7344 69.155 46.6962 64.7545 47.6271 59.254C47.8386 57.7308 47.7963 56.4191 47.5424 55.319ZM60.4476 58.5347C60.504 58.9014 60.5745 59.2681 60.6592 59.6348C61.6323 64.9238 64.6365 69.1973 71.9988 69.3242C79.2764 69.4512 82.7883 64.6276 83.5923 59.1271C83.8038 57.5192 83.7615 56.2075 83.4653 55.0651C82.6191 49.6915 77.2032 48.4644 71.8718 48.4644C65.5674 48.4644 59.1359 50.7916 60.4476 58.5347Z" fill="#E02F00"/>
<path d="M22.4511 52.1454C22.4511 52.78 21.9434 53.3301 21.3087 53.3301C20.674 53.3301 20.1663 52.78 20.1663 52.1454C20.1663 51.5107 20.674 51.0029 21.3087 51.0029C21.9434 51.0029 22.4511 51.5107 22.4511 52.1454Z" fill="#222F38"/>
<path d="M22.4511 51.8908C22.4511 52.5255 21.9434 53.0332 21.3087 53.0332C20.674 53.0332 20.1663 52.5255 20.1663 51.8908C20.1663 51.2561 20.674 50.7061 21.3087 50.7061C21.9434 50.7061 22.4511 51.2561 22.4511 51.8908Z" fill="white"/>
<path d="M87.2734 52.0609C87.2734 52.6956 86.7656 53.2033 86.131 53.2033C85.4963 53.2033 84.9885 52.6956 84.9885 52.0609C84.9885 51.4262 85.4963 50.9185 86.131 50.9185C86.7656 50.9185 87.2734 51.4262 87.2734 52.0609Z" fill="#222F38"/>
<path d="M87.2734 51.7645C87.2734 52.3992 86.7656 52.9069 86.131 52.9069C85.4963 52.9069 84.9885 52.3992 84.9885 51.7645C84.9885 51.1298 85.4963 50.6221 86.131 50.6221C86.7656 50.6221 87.2734 51.1298 87.2734 51.7645Z" fill="white"/>
<path d="M47.9233 71.9067C49.235 74.2761 51.3929 74.53 53.8893 74.6146C56.5973 74.6993 59.1783 74.3184 60.9977 72.1605C61.5478 71.5682 60.6169 70.6373 60.1091 71.272C57.9089 73.853 50.8428 74.6146 49.0234 71.272C48.6003 70.5527 47.5002 71.2297 47.9233 71.9067Z" fill="#CC6666"/>
<path d="M59.9825 71.3597C60.5326 71.529 60.9557 72.0367 60.998 72.6291C61.0403 73.433 62.3097 73.433 62.2674 72.6291C62.1828 71.4443 61.4211 70.5135 60.321 70.1327C59.5594 69.8365 59.2209 71.0635 59.9825 71.3597Z" fill="#CC6666"/>
<path d="M81.0961 108.593H65.8638L66.2446 114.178C71.449 113.205 76.4418 111.512 81.0538 109.185C81.082 108.988 81.0961 108.79 81.0961 108.593Z" fill="#DBDBDB"/>
<path d="M47.6694 106.436C47.8387 107.07 47.4579 107.705 46.8655 107.874C46.2308 108.043 45.5961 107.705 45.4269 107.07C45.2576 106.478 45.5961 105.801 46.2308 105.632C46.8232 105.462 47.5002 105.843 47.6694 106.436Z" fill="#E02F00"/>
<path fill-rule="evenodd" clip-rule="evenodd" d="M48.558 106.223C48.558 106.223 48.6426 106.562 48.8119 107.197C48.8542 107.493 48.9388 107.874 49.0234 108.339C49.0658 108.762 49.1081 109.27 49.0657 109.82C49.0234 110.37 48.9811 111.047 48.4734 111.555C48.3041 111.682 48.1772 111.766 47.9656 111.809C47.8387 111.851 47.5848 111.809 47.4156 111.766C47.0771 111.639 46.8232 111.386 46.5693 111.132C46.1039 110.624 45.7231 110.032 45.4269 109.355C45.0884 108.706 44.8063 108.029 44.5807 107.324C44.1576 105.927 43.9037 104.446 44.1999 103.05C44.2845 102.669 44.4114 102.331 44.623 102.035C44.7499 101.908 44.9192 101.781 45.0884 101.696C45.2154 101.654 45.2577 101.696 45.3846 101.654C45.4692 101.654 45.5538 101.654 45.6808 101.696C46.0193 101.781 46.2732 101.95 46.527 102.162C46.7386 102.373 46.9502 102.627 47.0771 102.839C47.7118 103.769 48.0079 104.658 48.2618 105.25C48.4734 105.843 48.558 106.223 48.558 106.223ZM48.5157 106.223C48.5157 106.223 48.4311 105.885 48.1772 105.25C47.9656 104.7 47.5425 103.854 46.8655 103.008C46.6963 102.796 46.527 102.585 46.3155 102.415C46.1039 102.246 45.85 102.077 45.5962 101.992C45.5115 101.992 45.4692 101.992 45.4269 101.992C45.3423 101.992 45.2154 101.992 45.2154 102.035C45.0884 102.077 44.9615 102.162 44.8769 102.288C44.7076 102.5 44.623 102.796 44.5384 103.092C44.3691 103.727 44.3691 104.446 44.4114 105.166C44.4678 105.871 44.5807 106.576 44.7499 107.281C44.9615 108.001 45.173 108.678 45.5115 109.312C45.8077 109.947 46.2308 110.582 46.6963 111.005C46.9502 111.259 47.204 111.428 47.5002 111.512C47.5848 111.541 47.6554 111.555 47.7118 111.555C47.7541 111.597 47.8387 111.555 47.9233 111.555C48.0503 111.513 48.1772 111.428 48.2618 111.343C48.4734 111.174 48.558 110.878 48.6426 110.624C48.7696 110.37 48.8119 110.074 48.8119 109.82C48.9388 108.762 48.8542 107.831 48.7273 107.197C48.6003 106.562 48.5157 106.223 48.5157 106.223Z" fill="#560000"/>
<path fill-rule="evenodd" clip-rule="evenodd" d="M47.1616 104.827C47.1616 104.827 47.5001 104.912 48.1348 105.123C48.431 105.25 48.8118 105.377 49.1926 105.546C49.6157 105.716 50.0812 105.969 50.5043 106.266C50.9697 106.604 51.4775 107.027 51.6467 107.704C51.689 107.916 51.689 108.085 51.6044 108.254C51.5621 108.381 51.4351 108.593 51.2659 108.677C51.012 108.931 50.6735 109.016 50.335 109.101C49.6157 109.228 48.8964 109.227 48.1771 109.143C47.4719 109.086 46.7526 108.96 46.0192 108.762C44.6229 108.381 43.1843 107.831 42.1688 106.858C41.9149 106.604 41.6611 106.308 41.5765 105.927C41.4918 105.758 41.4918 105.546 41.5341 105.377C41.5341 105.25 41.5765 105.208 41.6188 105.123C41.6611 105.039 41.7457 104.954 41.788 104.869C42.0419 104.615 42.3804 104.489 42.6766 104.404C42.9728 104.319 43.2689 104.277 43.5228 104.277C44.6652 104.235 45.5538 104.446 46.1885 104.573C46.8231 104.7 47.1616 104.827 47.1616 104.827ZM47.1616 104.869C47.1616 104.869 46.7808 104.742 46.1885 104.615C45.5538 104.531 44.6229 104.404 43.5651 104.531C43.3112 104.573 43.0151 104.615 42.7612 104.7C42.5073 104.785 42.2111 104.912 42.0419 105.123C41.9996 105.166 41.9573 105.208 41.9149 105.25C41.9149 105.335 41.8303 105.419 41.8726 105.462C41.8303 105.589 41.8303 105.716 41.8726 105.843C41.9573 106.096 42.1688 106.35 42.3804 106.604C42.8458 107.07 43.4382 107.45 44.0729 107.789C44.7216 108.099 45.3845 108.367 46.0615 108.593C46.7808 108.804 47.5001 108.974 48.2194 109.058C48.8964 109.101 49.6157 109.101 50.2927 108.931C50.5889 108.847 50.9274 108.72 51.139 108.508C51.1954 108.452 51.2377 108.409 51.2659 108.381C51.3082 108.339 51.3505 108.254 51.3505 108.17C51.3928 108.043 51.3928 107.916 51.3928 107.789C51.3082 107.493 51.139 107.281 50.9697 107.07C50.8005 106.816 50.5889 106.646 50.3773 106.477C49.5311 105.8 48.6849 105.419 48.0925 105.166C47.5001 104.954 47.1616 104.869 47.1616 104.869Z" fill="#560000"/>
<path fill-rule="evenodd" clip-rule="evenodd" d="M45.173 105.335C45.173 105.335 45.4268 105.081 45.8923 104.658C46.1461 104.447 46.4 104.193 46.7808 103.897C47.1193 103.643 47.5424 103.347 48.0502 103.093C48.5579 102.881 49.1503 102.585 49.8696 102.754C50.0388 102.839 50.1658 102.923 50.2927 103.093C50.4196 103.177 50.5043 103.389 50.5466 103.558C50.5889 103.939 50.5466 104.277 50.4196 104.616C50.2081 105.293 49.8696 105.885 49.4465 106.52C49.0516 107.112 48.6002 107.677 48.0925 108.212C47.077 109.27 45.9346 110.243 44.5806 110.709C44.2421 110.794 43.8613 110.878 43.4805 110.794C43.3112 110.794 43.0997 110.709 42.9727 110.582C42.8458 110.497 42.8458 110.455 42.8035 110.37C42.7612 110.286 42.7189 110.201 42.6765 110.117C42.5496 109.736 42.5919 109.397 42.6765 109.101C42.7189 108.805 42.8458 108.551 42.9727 108.297C43.4382 107.282 44.0728 106.562 44.496 106.097C44.9191 105.589 45.173 105.335 45.173 105.335ZM45.173 105.378C45.173 105.378 44.9191 105.631 44.5383 106.139C44.1152 106.647 43.6074 107.409 43.1843 108.382C43.0997 108.636 43.015 108.889 42.9727 109.186C42.9304 109.44 42.8881 109.736 42.9727 109.99C43.015 110.074 43.015 110.117 43.0574 110.159C43.0997 110.201 43.1843 110.328 43.1843 110.328C43.2689 110.413 43.3958 110.455 43.5651 110.455C43.819 110.54 44.1575 110.455 44.4536 110.37C45.0883 110.201 45.723 109.863 46.3154 109.482C46.9077 109.059 47.4578 108.593 47.9655 108.086C48.5156 107.578 48.981 107.028 49.3618 106.435C49.785 105.843 50.1235 105.208 50.2504 104.574C50.335 104.235 50.3773 103.897 50.2927 103.6C50.2927 103.544 50.2645 103.488 50.2081 103.431C50.2081 103.347 50.1658 103.304 50.0811 103.22C50.0388 103.135 49.9119 103.093 49.785 103.05C49.4888 102.966 49.1926 103.008 48.9387 103.05C48.6425 103.135 48.3887 103.22 48.1348 103.304C47.1616 103.727 46.4 104.277 45.9346 104.701C45.4268 105.124 45.173 105.378 45.173 105.378Z" fill="#560000"/>
<path d="M45.9349 101.992C45.9349 102.415 45.5964 102.796 45.1732 102.796C44.7501 102.796 44.4116 102.415 44.4116 101.992C44.4116 101.569 44.7501 101.23 45.1732 101.23C45.5964 101.23 45.9349 101.569 45.9349 101.992Z" fill="#FFD23E"/>
<path d="M43.8616 110.327C43.8616 110.75 43.5231 111.089 43.1 111.089C42.6769 111.089 42.3384 110.75 42.3384 110.327C42.3384 109.904 42.6769 109.523 43.1 109.523C43.5231 109.523 43.8616 109.904 43.8616 110.327Z" fill="#FFD23E"/>
<path d="M52.1548 107.831C52.1548 108.254 51.8163 108.593 51.3932 108.593C50.9701 108.593 50.6316 108.254 50.6316 107.831C50.6316 107.408 50.9701 107.069 51.3932 107.069C51.8163 107.069 52.1548 107.408 52.1548 107.831Z" fill="#FFD23E"/>
<path d="M59.5591 22.4021C58.1487 22.2047 56.7101 22.106 55.2433 22.106C53.8046 22.106 52.3801 22.2047 50.9697 22.4021H23.3823V47.4508C23.7631 47.9586 23.9747 48.2971 23.9747 48.2971L23.7631 39.4116L25.8787 42.1618L26.3018 36.0266C26.3018 36.0266 36.4567 36.0266 39.6301 35.815L35.6105 38.1422C35.6105 38.1422 62.4786 38.3538 70.7295 27.3526C71.2372 26.6757 72.4219 37.5075 81.7306 41.9503L83.4231 49.1433L85.3271 47.4508L86.1733 50.8358C86.1733 50.8358 86.5118 50.0742 87.1465 49.101C87.2311 37.4229 86.7234 22.4021 86.7234 22.4021H59.5591Z" fill="#F2B297"/>
<path d="M98.8673 32.6425C98.8673 32.6425 98.2326 20.372 88.924 14.8715C88.924 14.8715 92.3089 13.3905 93.5783 13.179C93.1128 13.2636 92.3089 13.3905 92.3089 13.3905C92.3089 13.3905 89.7702 12.5443 84.6927 14.0252C84.6927 14.0252 81.9425 8.52466 80.25 7.46686L80.4615 11.2749C80.3346 9.28627 77.2882 8.10154 75.7649 7.42455C73.734 6.53599 71.5337 5.35126 69.8412 3.91265C68.7834 3.0241 67.7256 2.09323 66.7948 1.07775C66.9217 2.55867 67.9795 3.87034 69.3335 4.92814L67.091 3.87034C57.063 0.189193 45.5541 0.443065 35.1454 2.17786C31.972 2.6856 28.7563 4.20883 27.2754 7.04374C28.3755 6.83218 29.5179 6.74755 30.6603 6.83218C6.20398 21.0067 18.4745 37.9315 18.4745 37.9315L19.7438 42.7974C21.6479 43.0089 23.975 46.6055 23.975 46.6055L23.7635 37.7199L25.8791 40.4702L26.3022 34.335C26.3022 34.335 36.4571 34.335 39.6305 34.1234L35.6108 36.4506C35.6108 36.4506 62.479 36.6621 70.7298 25.661C71.2375 24.984 72.4223 35.8159 81.7309 40.2587L83.4234 47.4517L85.3274 45.7592L86.1737 49.1442C86.1737 49.1442 89.3471 42.1627 93.1552 44.0667C93.1552 44.0667 97.1748 34.335 96.117 31.5847C96.117 31.5847 98.021 32.2194 98.8673 32.6425Z" fill="#240000"/>
<path d="M75.9766 26.9316C75.8073 29.8934 77.3729 32.686 79.9962 34.1246C80.7155 34.5477 81.3502 33.4476 80.6309 33.0245C78.3884 31.7974 77.0767 29.4703 77.2459 26.9316C77.2882 26.1276 76.0189 26.1276 75.9766 26.9316Z" fill="#470021"/>
<path d="M83.381 30.3575C85.2427 32.6423 86.3005 35.3926 86.4274 38.3544C86.4274 39.1584 87.6968 39.1584 87.6968 38.3544C87.5275 35.0541 86.3851 32.0076 84.3118 29.4266C83.7617 28.7919 82.8732 29.7228 83.381 30.3575Z" fill="#470021"/>
<path d="M87.443 24.3916C90.4048 27.9458 91.7165 32.2616 91.378 36.8736C91.2934 37.6775 92.5627 37.6775 92.6473 36.8736C93.0281 31.9231 91.5049 27.3111 88.3738 23.503C87.8238 22.8683 86.9352 23.7569 87.443 24.3916Z" fill="#470021"/>
<path d="M67.6407 7.80514C70.4333 9.58225 72.5066 12.1633 73.6067 15.2944C73.9029 16.056 75.13 15.7175 74.8338 14.9559C73.6067 11.5286 71.3642 8.69369 68.2754 6.70503C67.5984 6.28191 66.9638 7.38202 67.6407 7.80514Z" fill="#470021"/>
<path d="M51.0123 31.0349C55.2435 30.3579 59.3054 29.2578 63.2404 27.6922C64.002 27.3961 63.6635 26.169 62.9019 26.4652C58.9669 28.0307 54.905 29.1309 50.6738 29.8078C49.8698 29.9771 50.2506 31.1618 51.0123 31.0349Z" fill="#470021"/>
<path d="M20.0819 32.9391C21.9859 32.6429 23.9746 33.2352 25.9209 32.9814C27.7403 32.7698 29.4328 32.2198 31.083 31.5005C31.8023 31.162 31.1676 30.0618 30.406 30.4003C28.4597 31.2889 26.4287 31.7966 24.2708 31.8389C22.7475 31.8389 21.2666 31.5005 19.7434 31.712C18.9394 31.8389 19.2779 33.066 20.0819 32.9391Z" fill="#470021"/>
<path d="M35.4838 7.9742C38.5726 6.36634 41.9999 5.94322 45.3848 6.83177C46.1887 7.00102 46.5272 5.77397 45.7233 5.60473C41.9999 4.63155 38.2341 5.09698 34.8491 6.87409C34.1298 7.25489 34.7645 8.35501 35.4838 7.9742Z" fill="#470021"/>
<path d="M29.2641 15.8456C39.4613 10.3874 51.0971 9.20265 62.1828 12.5453C62.9444 12.7569 63.2829 11.5298 62.5213 11.3183C51.0971 7.89098 39.1228 9.11803 28.6294 14.7455C27.9101 15.1263 28.5448 16.2264 29.2641 15.8456Z" fill="#470021"/>
<path d="M52.5353 17.6217C55.4125 17.4524 58.2474 17.7486 61.04 18.4679C61.844 18.6795 62.1401 17.4524 61.3785 17.2409C58.459 16.4792 55.5395 16.1831 52.5353 16.3523C51.7314 16.3946 51.7314 17.664 52.5353 17.6217Z" fill="#470021"/>
<path d="M28.9253 25.1108C34.1719 26.5494 39.4609 27.0995 44.9192 26.761C45.7231 26.7187 45.7231 25.4493 44.9192 25.4916C39.5879 25.8301 34.3835 25.2801 29.2637 23.8838C28.4598 23.6722 28.1213 24.8993 28.9253 25.1108Z" fill="#470021"/>
</svg>
