<svg width="92" height="100" viewBox="0 0 92 100" fill="none" xmlns="http://www.w3.org/2000/svg">
<path d="M91.9067 53.2996C91.9067 78.5414 71.4564 98.9917 46.2493 98.9917C21.0075 98.9917 0.557129 78.5414 0.557129 53.2996C0.557129 28.0578 21.0075 7.60742 46.2493 7.60742C71.4564 7.60742 91.9067 28.0578 91.9067 53.2996Z" fill="#631D6B"/>
<path d="M83.5042 14.6908C83.5042 22.2946 77.3239 28.4749 69.6854 28.4749C62.0816 28.4749 55.9014 22.2946 55.9014 14.6561C55.9014 7.05232 62.0816 0.87207 69.7201 0.87207C77.3239 0.87207 83.5042 7.05232 83.5042 14.6561V14.6908Z" fill="#FF7232"/>
<path d="M62.776 9.20508C60.4845 9.20508 58.3665 9.7606 56.4916 10.7328C56.1097 11.9827 55.9014 13.3021 55.9014 14.6562C55.9014 22.2947 62.0816 28.4749 69.7201 28.4749C71.9769 28.4749 74.0949 27.9194 75.9698 26.9472C76.3517 25.6973 76.5601 24.3779 76.5601 23.0238C76.5601 15.3853 70.3798 9.20508 62.776 9.20508Z" fill="#FF5732"/>
<path d="M46.0754 99.0619C54.3389 99.0619 62.1163 96.8746 68.7826 93.0206C64.9634 83.7155 55.8319 77.1533 45.138 77.1533C34.7913 77.1533 25.9028 83.2988 21.8752 92.1178C28.8888 96.5273 37.187 99.0619 46.0754 99.0619Z" fill="#9EC43E"/>
<path d="M40.6242 76.8408C40.6242 76.8408 36.2842 78.924 35.4162 82.5697C34.5482 86.2154 36.6314 95.4163 36.6314 95.4163C36.6314 95.4163 37.9508 91.3193 41.1451 91.7706C44.3741 92.1873 44.9643 93.0553 44.9643 93.0553C44.9643 93.0553 50.346 90.2082 52.5334 95.1385C52.4986 95.1385 56.6651 85.764 55.9707 83.16C55.2763 80.5559 51.2834 77.2575 50.1724 77.5352C49.0266 77.7783 40.6242 76.8408 40.6242 76.8408Z" fill="#8B0000"/>
<path d="M20.0351 40.6965C20.0351 40.6965 15.3479 36.8772 13.6119 42.9533C11.8758 49.0294 19.3407 54.2375 20.7295 53.8903L20.0351 40.6965Z" fill="#F9AB64"/>
<path d="M71.1436 40.6965C71.1436 40.6965 75.8309 36.8772 77.5669 42.9533C79.3029 49.0294 71.838 54.2375 70.4492 53.8903L71.1436 40.6965Z" fill="#F9AB64"/>
<path d="M47.2907 82.4993H43.3672C41.8395 82.4993 40.5896 81.2494 40.5896 79.7217V71.8401C40.5896 70.3124 41.8395 69.0625 43.3672 69.0625H47.2907C48.8184 69.0625 50.0683 70.3124 50.0683 71.8401V79.7217C50.0683 81.2494 48.8184 82.4993 47.2907 82.4993Z" fill="#FFD68F"/>
<path opacity="0.3" d="M47.2907 69.0625H43.3672C41.8395 69.0625 40.5896 70.3124 40.5896 71.8401V74.8261C42.2909 75.1386 44.0269 75.3122 45.7977 75.3122C47.2559 75.3122 48.6795 75.208 50.0683 74.9997V71.8401C50.0683 70.3124 48.8184 69.0625 47.2907 69.0625Z" fill="#FE2F00"/>
<path d="M71.1437 22.9896H48.8532C47.719 22.8507 46.55 22.7812 45.3464 22.7812C44.1659 22.7812 42.997 22.8507 41.8396 22.9896L20.3129 23.4409L19.2019 43.8219H19.3755C19.306 44.1922 19.2482 44.551 19.2019 44.8982C19.2019 44.8982 19.063 49.8979 19.2019 51.5645C20.0352 64.1333 31.9443 73.6815 45.3464 73.6815C58.0194 73.6815 69.8938 65.2791 71.1437 53.5436C71.977 45.9398 71.1437 22.9896 71.1437 22.9896Z" fill="#FFD68F"/>
<path opacity="0.3" d="M64.2342 57.6392C64.2342 59.6183 61.769 61.2155 58.7483 61.2155C55.6929 61.2155 53.2278 59.6183 53.2278 57.6392C53.2278 55.6602 55.6929 54.0283 58.7483 54.0283C61.769 54.0283 64.2342 55.6602 64.2342 57.6392Z" fill="#FE2F00"/>
<path opacity="0.3" d="M35.4161 57.6392C35.4161 59.6183 32.9509 61.2155 29.9302 61.2155C26.8748 61.2155 24.4097 59.6183 24.4097 57.6392C24.4097 55.6602 26.8748 54.0283 29.9302 54.0283C32.9509 54.0283 35.4161 55.6602 35.4161 57.6392Z" fill="#FE2F00"/>
<path d="M61.2136 48.8556C61.2136 50.7305 60.3109 52.2235 59.1998 52.2235C58.0888 52.2235 57.186 50.7305 57.186 48.8556C57.186 47.0154 58.0888 45.5225 59.1998 45.5225C60.3109 45.5225 61.2136 47.0154 61.2136 48.8556Z" fill="#560000"/>
<path d="M31.8401 48.8556C31.8401 50.7305 30.9374 52.2235 29.7916 52.2235C28.6806 52.2235 27.7778 50.7305 27.7778 48.8556C27.7778 47.0154 28.6806 45.5225 29.7916 45.5225C30.9374 45.5225 31.8401 47.0154 31.8401 48.8556Z" fill="#560000"/>
<path d="M75.5185 42.9535C75.0671 42.4327 74.3727 42.2939 73.713 42.5369C72.845 42.9188 72.5325 43.8216 72.3589 44.6896C72.2547 45.3145 72.1506 46.1131 72.7061 46.5645C72.9839 46.8075 73.2963 46.8075 73.6435 46.8075C73.9907 46.8075 74.3032 46.8075 74.6157 46.9811C75.2754 47.363 75.206 48.7519 74.1644 48.3699C73.5394 48.1269 73.2616 49.1338 73.8866 49.3768C75.3101 49.8976 76.6295 48.3005 75.9698 46.9464C75.6573 46.2867 74.9282 45.8701 74.1991 45.7659C73.6088 45.6965 73.2964 45.9048 73.3311 45.1062C73.3658 44.6548 73.956 42.7105 74.7546 43.6827C75.206 44.2035 75.9351 43.4744 75.5185 42.9535Z" fill="#CC5200"/>
<path d="M16.0423 43.1964C16.9797 42.8145 17.9172 44.3769 17.57 45.1408C17.2922 45.731 16.8409 45.488 16.3895 45.5922C15.9381 45.731 15.5909 46.0088 15.4173 46.4602C14.8618 48.0573 16.6672 48.8212 17.7089 49.4461C18.2991 49.7586 18.8199 48.8906 18.2297 48.5434C18.0213 48.4045 17.7783 48.3004 17.5353 48.1615C16.9797 47.849 16.4589 47.6754 16.6672 47.0157C16.8756 46.356 17.1881 46.7032 17.7783 46.5296C18.438 46.3213 18.6116 45.8005 18.6116 45.1408C18.5769 43.6131 17.6394 41.4951 15.7645 42.1896C15.1395 42.3979 15.3826 43.4048 16.0423 43.1964Z" fill="#CC5200"/>
<path d="M60.1721 50.0718C61.179 50.3496 62.2554 50.0371 62.9845 49.2732C63.4359 48.7871 62.7067 48.058 62.2554 48.5441C61.7693 49.0649 61.1096 49.2385 60.4499 49.0649C59.7902 48.8913 59.5124 49.8982 60.1721 50.0718Z" fill="#560000"/>
<path d="M59.9983 51.4252C60.9357 51.9807 62.0468 51.9807 62.9495 51.4252C63.505 51.078 62.9842 50.1752 62.4287 50.5224C61.8385 50.8696 61.1441 50.8696 60.5538 50.5224C59.9636 50.2099 59.4427 51.1127 59.9983 51.4252Z" fill="#560000"/>
<path d="M28.5416 50.001C27.5 50.2788 26.4236 50.001 25.6945 49.2372C25.2432 48.7164 25.9723 47.9873 26.4236 48.4733C26.9097 48.9942 27.5694 49.2025 28.2638 48.9942C28.8888 48.8206 29.1666 49.8274 28.5416 50.001Z" fill="#560000"/>
<path d="M28.6806 51.3905C27.7778 51.9114 26.6668 51.9114 25.764 51.3558C25.1738 51.0086 25.6946 50.1059 26.2848 50.4531C26.8751 50.835 27.5695 50.835 28.1598 50.4878C28.75 50.1406 29.2708 51.0433 28.6806 51.3905Z" fill="#560000"/>
<path d="M42.2563 53.6471C42.1174 55.1401 40.5897 56.2164 39.1314 55.8692C38.7495 55.7998 38.3676 56.1123 38.4717 56.5289C39.0967 58.5774 41.2494 59.7926 43.3673 59.3065C43.9923 59.1677 43.7145 58.1608 43.0896 58.2997C41.5271 58.6816 39.93 57.7441 39.4786 56.2511C39.2703 56.4595 39.062 56.6678 38.8537 56.8761C41.0063 57.3969 43.0896 55.8345 43.2979 53.6471C43.3673 52.9874 42.3257 52.9874 42.2563 53.6471Z" fill="#CC5200"/>
<path d="M45.1032 57.6405C45.4157 57.5711 45.7282 57.6058 46.0059 57.8141C46.492 58.2655 47.2559 57.5363 46.7351 57.085C46.1795 56.6336 45.5199 56.46 44.8254 56.6336C44.1658 56.8072 44.4435 57.8141 45.1032 57.6405Z" fill="#CC5200"/>
<path d="M38.1591 61.7714C40.1035 59.6535 43.02 61.5284 43.02 61.5284C46.0754 59.8618 50.1377 62.7783 50.1377 62.7783L50.2419 63.5769C43.8533 74.861 36.2148 63.8894 38.1591 61.7714Z" fill="#FF5732"/>
<path d="M37.8467 62.9867C42.9853 66.3545 48.0892 63.9588 50.103 62.7783H50.1377L50.2419 63.5769C44.6866 73.4028 38.1939 66.3893 37.8467 62.9867Z" fill="#FF6D59"/>
<path d="M58.6444 39.9674C60.2416 39.5855 61.7693 40.141 62.8456 41.3562C63.7136 42.3631 65.1719 40.8701 64.3039 39.8632C62.7414 38.1272 60.3804 37.3981 58.0889 37.9536C56.7695 38.2314 57.325 40.2451 58.6444 39.9674Z" fill="#FF5732"/>
<path d="M31.9094 37.9536C29.6179 37.3981 27.2569 38.1272 25.6945 39.8632C24.7917 40.8701 26.25 42.3631 27.1527 41.3562C28.2291 40.141 29.7567 39.5855 31.3539 39.9674C32.6385 40.2451 33.1941 38.2314 31.9094 37.9536Z" fill="#FF5732"/>
<path d="M36.6315 62.7439C39.305 64.6188 40.7285 65.2437 44.0617 65.0701C46.8393 64.8965 49.3045 64.1327 51.4224 62.3272C51.9432 61.8758 51.2141 61.1467 50.6933 61.5981C48.5059 63.473 45.9019 64.0285 43.0548 64.0632C40.4855 64.0979 39.1661 63.2299 37.1523 61.8758C36.6315 61.4939 36.1107 62.3966 36.6315 62.7439Z" fill="#FF3332"/>
<path d="M50.6236 61.3553C51.0749 61.7025 51.3527 62.1539 51.4916 62.7094C51.6305 63.3691 52.6374 63.0913 52.4985 62.4316C52.2902 61.5983 51.8041 60.9387 51.1444 60.4526C50.9361 60.279 50.5541 60.4179 50.45 60.6609C50.2764 60.9039 50.3805 61.1817 50.6236 61.3553Z" fill="#CC5200"/>
<path d="M36.319 60.9737C35.7287 61.5987 35.4163 62.3972 35.4163 63.2652C35.4163 63.9249 36.4579 63.9249 36.4579 63.2652C36.4579 62.675 36.6662 62.1542 37.0828 61.7375C37.5342 61.2515 36.8051 60.5223 36.319 60.9737Z" fill="#CC5200"/>
<path opacity="0.3" d="M39.4092 57.0146C39.3398 56.1813 42.1868 57.5701 43.2285 57.2229C44.2701 56.8757 47.1519 55.73 47.7421 57.466C48.3324 59.202 39.8606 62.0838 39.4092 57.0146Z" fill="#FE2F00"/>
<path opacity="0.3" d="M48.853 22.9896C47.7188 22.8507 46.5499 22.7812 45.3463 22.7812C44.1658 22.7812 42.9969 22.8507 41.8395 22.9896L20.3128 23.4409L19.3059 41.7039C20.0698 36.4958 21.9794 31.4614 26.2153 31.9475C31.3192 32.5377 35.1384 33.5793 40.3812 33.3363C47.7073 33.0238 54.8944 30.9058 61.0052 26.8088C61.0052 26.8088 64.4773 36.2875 67.7063 36.9819L70.5186 51.009C70.5186 51.009 70.8658 48.9258 71.4908 46.6689C71.6644 36.9125 71.1436 22.9896 71.1436 22.9896H48.853Z" fill="#FE2F00"/>
<path d="M19.6186 49.3768C18.9936 44.5854 19.5491 29.3778 26.7363 30.2111C31.8402 30.8013 35.6594 31.843 40.9022 31.5999C48.2282 31.2874 55.4154 29.1695 61.5262 25.0725C61.5262 25.0725 64.9982 34.5512 68.2273 35.2456L71.0396 49.2726C71.0396 49.2726 72.6368 39.6551 75.1714 39.412C75.1714 39.412 77.4976 21.1143 66.5954 14.4133C55.7279 7.71222 32.6388 10.0732 25.0003 15.6285C17.3617 21.1838 17.084 29.9333 19.6186 49.3768Z" fill="#FF7232"/>
<path fill-rule="evenodd" clip-rule="evenodd" d="M73.0879 47.6725C73.0879 47.6725 71.4561 47.9502 71.0394 49.0266C70.6228 50.1376 70.0673 60.276 61.9774 61.2482C53.8875 62.2204 51.7001 59.8941 49.5127 56.8734C47.2906 53.8527 47.1517 49.1654 47.1517 49.1654C47.1517 49.1654 45.5893 48.1238 44.3394 48.228C43.1242 48.1238 41.527 49.1654 41.527 49.1654C41.527 49.1654 41.3881 53.8527 39.2007 56.8734C37.0134 59.8941 34.826 62.2204 26.7361 61.2482C18.6115 60.276 18.0907 50.1376 17.674 49.0266C17.2574 47.9502 15.5908 47.6725 15.5908 47.6725C15.5908 47.6725 15.8686 45.2073 15.8686 44.6518C15.8686 44.6518 16.8408 45.0684 17.674 45.0684C18.4726 45.0684 21.2155 42.9852 29.0624 42.4644C36.8745 41.9089 40.416 46.6308 40.416 46.6308C43.888 45.2073 45.8671 45.9364 48.0892 46.8392C50.5891 43.7143 55.9013 42.1866 59.6511 42.4644C67.4632 42.9852 70.2061 45.0684 71.0394 45.0684C71.8727 45.0684 72.8102 44.6518 72.8102 44.6518C72.8102 45.2073 73.0879 47.6725 73.0879 47.6725ZM29.8609 43.7838C24.6876 43.7838 19.4101 45.2073 20.3475 51.9431C21.0072 56.4567 23.889 60.4149 29.8609 60.3107C36.0412 60.1718 38.5063 56.5262 39.2355 52.0472C40.3118 45.6587 35.0343 43.7838 29.8609 43.7838ZM59.2692 43.7838C54.0958 43.7838 48.8183 45.6587 49.8947 52.0472C50.6238 56.5262 53.0542 60.1718 59.2692 60.3107C65.2064 60.4149 68.1229 56.4567 68.7479 51.9431C69.7201 45.2073 64.4425 43.7838 59.2692 43.7838Z" fill="#111111"/>
<path fill-rule="evenodd" clip-rule="evenodd" d="M73.0879 47.1871C73.0879 47.1871 71.4561 47.4649 71.0394 48.5759C70.6228 49.6523 70.0673 59.8254 61.9774 60.7628C53.8875 61.735 51.7001 59.4087 49.5127 56.388C47.2906 53.3673 47.1517 48.7148 47.1517 48.7148C47.1517 48.7148 45.5893 47.6385 44.3394 47.7426C43.1242 47.6385 41.527 48.7148 41.527 48.7148C41.527 48.7148 41.3881 53.3673 39.2007 56.388C37.0134 59.4087 34.826 61.735 26.7361 60.7628C18.6115 59.8254 18.0907 49.6523 17.674 48.5759C17.2574 47.4649 15.5908 47.1871 15.5908 47.1871C15.5908 47.1871 15.8686 44.722 15.8686 44.1664C15.8686 44.1664 16.8408 44.5831 17.674 44.5831C18.4726 44.5831 21.2155 42.5346 29.0624 41.979C36.8745 41.4235 40.416 46.1455 40.416 46.1455C43.888 44.7219 45.8671 45.4858 48.0892 46.3885C50.5891 43.229 55.9013 41.7013 59.6511 41.979C67.4632 42.5346 70.2061 44.5831 71.0394 44.5831C71.8727 44.5831 72.8102 44.1664 72.8102 44.1664C72.8102 44.722 73.0879 47.1871 73.0879 47.1871ZM29.8609 43.2984C24.6876 43.2984 19.4101 44.722 20.3475 51.4577C21.0072 55.9714 23.889 59.9642 29.8609 59.8254C36.0412 59.7212 38.5063 56.0755 39.2355 51.5619C40.3118 45.208 35.0343 43.2984 29.8609 43.2984ZM59.2692 43.2984C54.0958 43.2984 48.8183 45.208 49.8947 51.5619C50.6238 56.0755 53.0542 59.7212 59.2692 59.8254C65.2064 59.9642 68.1229 55.9714 68.7479 51.4577C69.7201 44.722 64.4425 43.2984 59.2692 43.2984Z" fill="#515151"/>
<path fill-rule="evenodd" clip-rule="evenodd" d="M49.5127 56.3886C48.4711 54.9651 47.8808 53.1943 47.5683 51.7013C47.3253 50.3125 47.2906 49.3056 47.2906 49.3056C47.2906 49.3056 47.2558 49.2825 47.1864 49.2362C47.1864 48.889 47.1517 48.7154 47.1517 48.7154C47.1517 48.7154 45.5893 47.639 44.3393 47.7432C43.1241 47.639 41.527 48.7154 41.527 48.7154C41.527 48.7154 41.3881 53.3679 39.2007 56.3886C37.0133 59.4093 34.8259 61.7356 26.736 60.7634C20.6599 60.069 18.8198 54.1665 18.1253 50.7986C17.9865 50.1389 17.917 49.6528 17.8476 49.3403C17.7781 48.9584 17.7087 48.7154 17.674 48.5765C17.3268 47.6738 16.2157 47.3266 15.7991 47.2224C15.8685 46.4585 16.0074 45.1392 16.0074 44.7572C16.0074 44.7572 16.9449 45.1739 17.7781 45.1739C18.6114 45.1739 21.3543 43.1254 29.1665 42.5699C36.9786 42.0143 40.5201 46.7363 40.5201 46.7363C43.9921 45.3128 45.9712 46.0766 48.1933 46.9793C50.6932 43.8198 56.0054 42.2921 59.7552 42.5699C67.602 43.1254 70.345 45.1739 71.1435 45.1739C71.8379 45.1739 72.6018 44.8961 72.8448 44.792C72.949 45.7294 73.0879 47.1877 73.0879 47.1877C73.0879 47.1877 71.456 47.4654 71.0394 48.5765C70.6227 49.6528 70.0672 59.8259 61.9773 60.7634C53.8874 61.7356 51.7001 59.4093 49.5127 56.3886ZM39.3048 48.9237C38.6799 44.6531 34.2356 43.299 29.8609 43.299C24.6875 43.299 19.41 44.7225 20.3475 51.4583C20.4169 51.8055 20.4863 52.1643 20.5558 52.5346C21.3196 56.84 24.2361 60.5203 29.965 60.4162C36.18 60.312 38.6104 56.6664 39.3743 52.1527C39.5479 50.9028 39.5132 49.8611 39.3048 48.9237ZM49.8946 51.5625C49.9409 51.8865 49.9988 52.1874 50.0682 52.4652C50.8668 56.84 53.3319 60.312 59.3733 60.4162C65.3452 60.5551 68.227 56.5622 68.8867 52.0485C69.0603 50.7639 69.0256 49.6528 68.7825 48.7501C68.0881 44.3406 63.6439 43.299 59.2691 43.299C54.0958 43.299 48.8183 45.2086 49.8946 51.5625Z" fill="#240000"/>
<path d="M18.7157 46.3535C18.7157 46.8743 18.2991 47.2909 17.7783 47.2909C17.2575 47.2909 16.8408 46.8743 16.8408 46.3535C16.8408 45.8327 17.2575 45.416 17.7783 45.416C18.2991 45.416 18.7157 45.8327 18.7157 46.3535Z" fill="#222F38"/>
<path d="M18.7157 46.1113C18.7157 46.6321 18.2991 47.0487 17.7783 47.0487C17.2575 47.0487 16.8408 46.6321 16.8408 46.1113C16.8408 45.5905 17.2575 45.1738 17.7783 45.1738C18.2991 45.1738 18.7157 45.5905 18.7157 46.1113Z" fill="white"/>
<path d="M71.9074 46.25C71.9074 46.7708 71.4907 47.2221 70.9699 47.2221C70.4491 47.2221 70.0325 46.7708 70.0325 46.25C70.0325 45.7292 70.4491 45.3125 70.9699 45.3125C71.4907 45.3125 71.9074 45.7292 71.9074 46.25Z" fill="#222F38"/>
<path d="M71.9074 46.0415C71.9074 46.5623 71.4907 46.979 70.9699 46.979C70.4491 46.979 70.0325 46.5623 70.0325 46.0415C70.0325 45.5207 70.4491 45.0693 70.9699 45.0693C71.4907 45.0693 71.9074 45.5207 71.9074 46.0415Z" fill="white"/>
<path d="M41.423 78.6462C41.423 78.6462 38.437 80.2781 38.437 83.2641C38.437 86.2153 45.2075 92.1872 45.2075 92.1872C45.2075 92.1872 51.8391 85.382 51.5614 81.5975C51.2836 77.813 41.423 78.6462 41.423 78.6462Z" fill="#FFD68F"/>
<path d="M13.1604 84.7913C21.4933 93.5062 33.2288 98.992 46.249 98.992C47.1981 98.9689 48.1471 98.9341 49.0961 98.8878L43.7491 78.125L13.1951 84.7219C13.1951 84.745 13.1835 84.7682 13.1604 84.7913Z" fill="#FFC23E"/>
<path d="M13.8547 85.4855C22.1529 93.8184 33.576 98.9917 46.249 98.9917C46.7119 98.9917 47.1864 98.9802 47.6725 98.957L42.6033 79.2705L13.8547 85.4855Z" fill="#FF793E"/>
<path d="M14.1672 85.7638C22.4307 93.9231 33.7149 98.9923 46.249 98.9923C46.3184 98.9692 46.3879 98.9576 46.4573 98.9576L41.5617 79.8613L14.1672 85.7638Z" fill="white"/>
<path d="M45.1031 98.958L40.277 80.209L14.2019 85.8337C22.2223 93.7153 33.0551 98.6456 45.1031 98.958Z" fill="#FFC23E"/>
<path d="M49.1308 98.8873L47.7419 86.249L18.4031 88.3323C18.38 88.3554 18.3684 88.3785 18.3684 88.4017C18.9934 89.2697 19.6531 90.103 20.3128 90.9016C27.6735 96.0055 36.5967 98.9914 46.249 98.9914C47.2211 98.9914 48.1933 98.922 49.1308 98.8873Z" fill="#90DDF4"/>
<path d="M47.8113 98.9216L46.5266 87.1514L18.9238 89.1304C19.3868 89.7323 19.8613 90.3225 20.3474 90.9012C27.7081 96.0051 36.6313 98.991 46.2489 98.991C46.7697 98.991 47.2905 98.9563 47.8113 98.9216Z" fill="#6EBCDA"/>
<path d="M46.7348 98.9567L45.4501 87.5684L19.1667 89.4433C19.5602 89.9525 19.9537 90.4502 20.3472 90.9363C27.708 96.0054 36.6312 98.9914 46.2487 98.9914C46.4108 98.9682 46.5728 98.9567 46.7348 98.9567Z" fill="white"/>
<path d="M44.2349 87.707L19.2014 89.5125C19.5718 89.9754 19.9421 90.4384 20.3125 90.9013C27.4996 95.8664 36.145 98.8176 45.4848 98.9565L44.2349 87.707Z" fill="#90DDF4"/>
<path d="M64.4772 24.03C64.8476 25.9512 65.4841 27.7682 66.3869 29.4811C66.6993 30.0713 67.6021 29.5505 67.2896 28.9603C66.4216 27.3284 65.8313 25.5924 65.4841 23.7522C65.3452 23.0925 64.3383 23.3703 64.4772 24.03Z" fill="#FFA432"/>
<path d="M23.8542 28.892C26.25 25.5588 30.9025 26.4963 34.4093 26.8087C37.7424 27.1328 41.064 27.4569 44.374 27.7809C45.0685 27.8156 45.0337 26.774 44.374 26.7393C39.5479 26.2532 34.5829 25.4199 29.722 25.4199C27.0138 25.4199 24.5834 26.1143 22.9515 28.3712C22.5349 28.9267 23.4376 29.4475 23.8542 28.892Z" fill="#FFA432"/>
<path d="M43.2282 23.4762C47.0821 23.7193 50.7972 23.2332 54.4776 22.0527C55.1026 21.8444 54.8248 20.8375 54.1998 21.0458C50.6236 22.2263 46.978 22.6777 43.2282 22.4346C42.5685 22.3999 42.5685 23.4415 43.2282 23.4762Z" fill="#FFA432"/>
<path d="M53.6444 17.2606C55.7277 17.1912 57.672 17.8509 59.2691 19.205C59.7552 19.6563 60.5191 18.9272 59.9983 18.4759C58.1928 16.9481 56.0054 16.1496 53.6444 16.219C52.9847 16.2537 52.9847 17.2954 53.6444 17.2606Z" fill="#FFA432"/>
<path d="M54.8944 13.9967C58.1234 13.0245 60.8316 14.9688 63.262 16.8438C63.8175 17.2257 64.3384 16.3229 63.7828 15.941C61.1093 13.8925 58.1234 11.9134 54.6166 12.9898C53.9916 13.1634 54.2347 14.1703 54.8944 13.9967Z" fill="#FFA432"/>
<path d="M25.4517 19.7601C30.8681 15.8367 37.0136 13.7188 43.6799 13.441C44.3743 13.441 44.3743 12.3994 43.6799 12.3994C36.84 12.6772 30.4861 14.8646 24.9309 18.8574C24.3753 19.2393 24.8961 20.1421 25.4517 19.7601Z" fill="#FFA432"/>
<path d="M33.9579 20.5933C35.4856 19.8641 37.0828 19.4128 38.7494 19.1697C39.4091 19.0656 39.1313 18.0587 38.4716 18.1628C36.7009 18.4059 35.0343 18.9267 33.4371 19.6905C32.8469 19.9683 33.3677 20.871 33.9579 20.5933Z" fill="#FFA432"/>
<path d="M71.0395 27.5714C72.1853 30.488 72.7061 33.5087 72.5672 36.6335C72.5325 37.2932 73.5741 37.2932 73.6088 36.6335C73.7477 33.4045 73.2269 30.3144 72.0464 27.2937C71.8034 26.6687 70.7965 26.9465 71.0395 27.5714Z" fill="#FFA432"/>
<path d="M62.533 11.3234C63.3316 7.19163 67.1855 5.35144 70.9353 4.48343C71.595 4.34455 71.3173 3.33766 70.6576 3.51126C66.5606 4.44872 62.3941 6.56666 61.5261 11.0456C61.4219 11.7053 62.4288 11.9831 62.533 11.3234Z" fill="#FFA432"/>
<path d="M70.4489 9.10106C72.7058 8.51082 74.9626 8.96218 76.8375 10.3857C77.3583 10.8024 77.8791 9.89963 77.3583 9.48298C75.2751 7.92056 72.671 7.43447 70.1711 8.09416C69.5115 8.26776 69.7892 9.27467 70.4489 9.10106Z" fill="#FFA432"/>
<path d="M77.5322 7.67726C81.7334 9.37856 81.9764 15.4199 80.4487 19.135C80.2057 19.76 81.2126 20.0377 81.4556 19.4128C83.2611 15.038 82.6361 8.61471 77.81 6.67037C77.185 6.42732 76.9072 7.43421 77.5322 7.67726Z" fill="#FFA432"/>
<path d="M76.6295 15.0041C77.6017 17.1915 77.1156 19.6914 75.4837 21.4274C74.9976 21.9135 75.7615 22.6426 76.2128 22.1565C78.2266 20.0733 78.7127 17.1221 77.5322 14.4833C77.2544 13.8583 76.3517 14.3791 76.6295 15.0041Z" fill="#FFA432"/>
<path d="M71.6992 13.0595C72.1505 13.997 72.3589 15.0039 72.3241 16.0455C72.3241 16.7052 73.3658 16.7052 73.3658 16.0455C73.4005 14.7955 73.1227 13.6498 72.6019 12.5387C72.3241 11.9137 71.4214 12.4693 71.6992 13.0595Z" fill="#FFA432"/>
</svg>
