<svg width="91" height="92" viewBox="0 0 91 92" fill="none" xmlns="http://www.w3.org/2000/svg">
<path d="M90.457 47.142C90.457 71.4061 70.3131 91.0915 45.4837 91.0915C20.62 91.0915 0.476074 71.4061 0.476074 47.142C0.476074 22.8445 20.62 3.15918 45.4837 3.15918C70.3131 3.15918 90.457 22.8445 90.457 47.142Z" fill="#ECC933"/>
<path d="M19.9357 35.0079C19.9357 34.9745 15.3187 31.2981 13.6087 37.1469C11.8987 42.9956 19.2517 48.0089 20.6197 47.6747L19.9357 35.0079Z" fill="#F2B297"/>
<path d="M70.3127 35.0079C70.3127 34.9745 74.9297 31.2981 76.6397 37.1469C78.3497 42.9956 70.9967 48.0089 69.6287 47.6747L70.3127 35.0079Z" fill="#F2B297"/>
<path d="M45.5861 91.1896C53.76 91.1896 61.3867 89.0507 67.9873 85.3409C64.1911 76.3839 55.1964 70.1006 44.6627 70.1006C34.5052 70.1006 25.7158 75.9828 21.7485 84.4719C28.657 88.7164 36.8309 91.1896 45.5861 91.1896Z" fill="#FF7232"/>
<path d="M46.8172 75.2135H42.9184C41.4136 75.2135 40.1824 74.0103 40.1824 72.5397V64.953C40.1824 63.4825 41.4136 62.2793 42.9184 62.2793H46.8172C48.322 62.2793 49.5533 63.4825 49.5533 64.953V72.5397C49.5533 74.0103 48.322 75.2135 46.8172 75.2135Z" fill="#F9D0BB"/>
<path d="M46.8172 62.2793H42.9184C41.4136 62.2793 40.1824 63.4825 40.1824 64.953V67.8273C41.8582 68.1281 43.6024 68.2952 45.3466 68.2952C46.7602 68.2952 48.1624 68.1949 49.5533 67.9944V64.953C49.5533 63.4825 48.322 62.2793 46.8172 62.2793Z" fill="#F2B297"/>
<path d="M70.3128 17.9625H48.3562C47.2162 17.8065 46.0534 17.7285 44.8678 17.7285C43.7049 17.7285 42.5535 17.8065 41.4135 17.9625H19.1149V38.0154H19.2859C19.2175 38.3497 19.1605 38.6839 19.1149 39.0181C19.1149 39.0181 19.0123 43.8308 19.1149 45.435C19.9357 57.5337 31.6664 66.758 44.8678 66.758C57.3851 66.758 69.0474 58.6366 70.3128 47.3401C71.0994 40.0207 70.3128 17.9625 70.3128 17.9625Z" fill="#F9D0BB"/>
<path d="M42.2343 40.1546C42.2343 42.7393 42.2343 45.335 42.2343 47.9419C42.5536 47.8528 42.8727 47.7748 43.192 47.7079C41.8581 45.4353 38.9511 46.605 39.0879 49.1116C39.2931 51.8856 42.4395 53.0888 44.6284 51.518C45.1756 51.1504 44.6626 50.2814 44.1154 50.649C43.3858 51.3175 42.4738 51.44 41.3793 51.0167C40.5243 50.6825 40.1139 49.8803 40.4217 49.0114C40.8321 47.875 41.3793 47.7414 42.3711 48.0422C42.8158 48.2093 42.6105 48.7106 43.192 48.1424C43.534 47.8416 43.2604 46.0034 43.2604 45.5355C43.2604 43.7308 43.2604 41.9371 43.2604 40.1546C43.2604 39.4862 42.2343 39.4862 42.2343 40.1546Z" fill="#CC6666"/>
<path d="M63.4726 51.2832C63.4726 53.1883 61.0444 54.7257 58.0689 54.7257C55.0935 54.7257 52.6653 53.1883 52.6653 51.2832C52.6653 49.3782 55.0935 47.8408 58.0689 47.8408C61.0444 47.8408 63.4726 49.3782 63.4726 51.2832Z" fill="#F2B297"/>
<path d="M35.0866 51.2832C35.0866 53.1883 32.6584 54.7257 29.6829 54.7257C26.7075 54.7257 24.2793 53.1883 24.2793 51.2832C24.2793 49.3782 26.7075 47.8408 29.6829 47.8408C32.6584 47.8408 35.0866 49.3782 35.0866 51.2832Z" fill="#F2B297"/>
<path d="M60.5315 42.861C60.5315 44.6324 59.6423 46.0695 58.5136 46.0695C57.4192 46.0695 56.53 44.6324 56.53 42.8276C56.53 41.0563 57.4192 39.6191 58.5136 39.6191C59.6423 39.6191 60.5315 41.0563 60.5315 42.8276V42.861Z" fill="#560000"/>
<path d="M31.5639 42.861C31.5639 44.6324 30.6747 46.0695 29.5803 46.0695C28.4517 46.0695 27.5625 44.6324 27.5625 42.8276C27.5625 41.0563 28.4517 39.6191 29.5803 39.6191C30.6747 39.6191 31.5639 41.0563 31.5639 42.8276V42.861Z" fill="#560000"/>
<path d="M41.6527 60.9095C42.6787 62.0793 44.1835 62.6809 45.7568 62.4469C46.4066 62.3467 46.2698 61.3774 45.62 61.4443C44.4229 61.6114 43.2601 61.2103 42.4735 60.3079C42.0289 59.84 41.2081 60.4416 41.6527 60.9095Z" fill="#CC6666"/>
<path d="M44.9361 50.1802C45.3123 50.3139 45.6201 50.5478 45.8253 50.882C46.1673 51.4168 47.0565 50.9155 46.7145 50.3807C46.3383 49.8125 45.8253 49.4449 45.2097 49.211C44.5941 48.977 44.3205 49.9462 44.9361 50.1802Z" fill="#CC6666"/>
<g style="mix-blend-mode:multiply" opacity="0.75">
<path d="M40.2848 50.0478C40.2848 50.0143 41.2082 51.017 43.4654 50.2483C45.7568 49.4796 47.3642 49.3459 47.7062 50.6828C48.0482 52.0196 44.9702 53.8244 42.6788 53.8244C41.4134 53.8244 38.3353 51.4849 40.2848 50.0143V50.0478Z" fill="#F2B297"/>
</g>
<path fill-rule="evenodd" clip-rule="evenodd" d="M56.872 35.442C54.307 36.077 53.2126 32.2001 55.7776 31.5985C58.753 30.8966 61.8653 31.6988 63.9515 33.9046C65.7641 35.7762 62.8571 38.617 61.0786 36.7454C59.95 35.6091 58.4452 35.0743 56.872 35.442ZM24.6895 34.1051C26.8784 32.2001 29.8196 31.4648 32.6582 32.3004C35.189 33.0356 34.0946 36.8791 31.5638 36.1438C30.1616 35.7428 28.691 35.9767 27.5966 36.946C25.6129 38.6505 22.7059 35.843 24.6895 34.1051Z" fill="#240000"/>
<path d="M60.395 34.7399C61.6262 36.0434 63.4046 35.0741 63.7808 33.7373C61.6946 31.6651 58.6508 30.8964 55.778 31.5983C54.923 31.7988 54.4784 32.367 54.3416 33.002C54.7862 33.403 55.436 33.637 56.1884 33.4365C57.7616 33.0688 59.2664 33.6036 60.395 34.7399Z" fill="#470021"/>
<path d="M33.3425 32.6345C33.1715 32.5008 32.9321 32.3671 32.6585 32.3003C29.8198 31.4647 26.8786 32.2 24.6898 34.105C24.382 34.3724 24.211 34.6398 24.1084 34.9406C24.8608 35.5422 25.9894 35.7427 26.9128 34.9406C28.0072 33.9714 29.4778 33.7374 30.8801 34.1385C32.2139 34.5395 33.1373 33.6706 33.3425 32.6345Z" fill="#470021"/>
<path d="M74.5881 37.1455C74.1435 36.6442 73.4595 36.5105 72.8097 36.7445C71.9547 37.1121 71.6469 37.9811 71.5101 38.8166C71.3733 39.4182 71.3049 40.1869 71.8179 40.6214C72.1257 40.8553 72.3993 40.8553 72.7413 40.8553C73.0833 40.8888 73.3911 40.8553 73.6989 41.0224C74.3487 41.3901 74.2804 42.7269 73.2543 42.3593C72.6387 42.1254 72.3651 43.0946 72.9807 43.3285C74.3829 43.8299 75.7168 42.2925 75.067 41.0224C74.725 40.354 74.0409 39.9529 73.2885 39.8527C72.7071 39.7858 72.3993 39.9864 72.4677 39.2177C72.4677 38.7832 73.0491 36.945 73.8699 37.8474C74.2803 38.3487 74.9985 37.6469 74.5881 37.1455Z" fill="#CC6666"/>
<path d="M16.0027 37.3803C16.9603 37.0126 17.8837 38.5166 17.5075 39.2519C17.2339 39.82 16.8235 39.5861 16.3447 39.7198C15.9343 39.82 15.5581 40.0874 15.3871 40.5219C14.8399 42.0593 16.6183 42.7946 17.6785 43.3962C18.2257 43.7304 18.7387 42.8614 18.1915 42.5272C17.9521 42.3935 17.7127 42.2932 17.4733 42.1596C16.9261 41.8588 16.4131 41.7251 16.6183 41.0566C16.8577 40.4216 17.1655 40.7558 17.7127 40.5887C18.3625 40.3882 18.5335 39.8869 18.5335 39.2519C18.5335 37.7813 17.5759 35.7426 15.7291 36.411C15.1135 36.6116 15.3871 37.5808 16.0027 37.3803Z" fill="#CC6666"/>
<path d="M38.9512 57.066C40.0114 58.9376 41.7556 59.1381 43.7734 59.205C45.9623 59.2718 48.0485 58.971 49.5191 57.2665C49.9637 56.7986 49.2113 56.0633 48.8009 56.5647C47.0225 58.6034 41.311 59.205 39.8404 56.5647C39.4984 55.9965 38.6092 56.5312 38.9512 57.066Z" fill="#CC6666"/>
<path d="M48.6983 56.6323C49.1429 56.766 49.4849 57.1671 49.5191 57.635C49.5533 58.27 50.5793 58.27 50.5451 57.635C50.4767 56.6992 49.8611 55.9639 48.9719 55.6631C48.3563 55.4292 48.0827 56.3984 48.6983 56.6323Z" fill="#CC6666"/>
<path d="M62.3784 77.1883C60.9077 75.7846 59.2661 74.548 57.4535 73.5119L53.1785 84.4742H37.1385L34.6419 72.1416C32.6925 72.9437 30.8799 74.0132 29.2383 75.2498L32.0085 89.1198C36.3177 90.4567 40.8664 91.1919 45.586 91.1919C49.7243 91.1919 53.7257 90.6238 57.5219 89.6211L62.3784 77.1883Z" fill="#6EBCDA"/>
<path d="M36.5231 87.382C36.5231 88.3178 35.7707 89.0531 34.813 89.0531C33.8554 89.0531 33.103 88.3178 33.103 87.382C33.103 86.4462 33.8554 85.7109 34.813 85.7109C35.7707 85.7109 36.5231 86.4462 36.5231 87.382Z" fill="#ECC933"/>
<path d="M56.5304 87.884C56.5304 88.8198 55.778 89.5551 54.8204 89.5551C53.8628 89.5551 53.1104 88.8198 53.1104 87.884C53.1104 86.9482 53.8628 86.2129 54.8204 86.2129C55.778 86.2129 56.5304 86.9482 56.5304 87.884Z" fill="#ECC933"/>
<path fill-rule="evenodd" clip-rule="evenodd" d="M70.6548 37.4841C70.6548 41.4613 70.5522 45.1042 70.3128 47.3435C69.0474 58.64 57.3851 66.7614 44.8678 66.7614C31.6665 66.7614 19.9358 57.5371 19.115 45.4384C19.0124 44.0347 19.0808 40.1244 19.115 39.222C19.5596 36.682 19.9358 35.0109 19.9358 35.0109L21.9878 34.2422C22.0334 36.4703 22.079 38.6984 22.1246 40.9265C22.2272 44.0347 21.338 47.5106 22.9796 50.3848C24.4844 53.0251 28.0071 53.9275 30.8799 54.2952C38.7459 55.2978 34.6419 52.1228 42.85 51.9557C48.664 51.822 49.348 51.9557 53.7941 54.2952C58.2401 56.6347 65.4222 54.9636 67.1322 51.2872C68.8422 47.6108 68.1582 36.2475 68.1582 36.2475L70.3128 35.0109C70.3128 35.0109 70.4496 35.9467 70.6548 37.4841ZM51.2975 56.2002C50.1346 54.5291 49.006 54.7296 44.1154 54.2952C39.1906 53.8607 37.3779 56.7349 37.3779 56.7349C38.4039 62.9848 44.56 63.9874 47.1934 63.319C49.7926 62.6506 52.4261 57.8713 51.2975 56.2002Z" fill="#560000"/>
<path d="M19.2518 37.2496L16.6868 32.4034L18.3968 31.5679L17.3708 28.3928L25.4078 25.2178C25.4078 25.2178 22.1588 33.4061 21.8168 36.2469C21.4748 39.0877 19.2518 37.2496 19.2518 37.2496Z" fill="#560000"/>
<path d="M64.9092 27.7242C64.9092 27.7242 67.6452 35.5783 67.9872 37.0823C68.3292 38.5862 73.2883 34.0743 73.2883 34.0743H70.0392L71.9202 32.2361C71.0652 31.4006 70.8942 27.0558 70.8942 27.0558C70.8942 27.0558 64.9092 25.3847 64.9092 27.7242Z" fill="#560000"/>
<path d="M50.5452 3.49393C50.5452 4.86421 48.8352 6.00055 46.6805 6.00055C44.5601 6.00055 42.8501 4.86421 42.8501 3.49393C42.8501 2.12364 44.5601 0.987305 46.7147 0.987305C48.8351 0.987305 50.5452 2.12364 50.5452 3.49393Z" fill="#E02F00"/>
<path d="M18.3283 27.4573C18.3283 27.4573 15.558 5.16506 41.5845 3.15976C64.8407 1.38841 69.0815 12.852 69.6287 15.1915C70.2101 17.5311 71.3387 28.5602 71.3387 28.5602C71.3387 28.5602 37.2752 14.5231 18.3283 27.4573Z" fill="#6EBCDA"/>
<path d="M17.9521 60.1436L19.5595 66.36C19.5937 66.4268 19.5937 66.4937 19.5937 66.5605L19.9357 67.864C20.0725 68.3987 19.9699 68.8666 19.7647 69.2008C19.1833 70.6379 16.6525 70.9053 16.1737 69.0337L14.0874 61.0794C11.2488 62.6502 9.7098 65.9255 10.5306 69.1674C11.5566 73.0443 15.5922 75.3838 19.5595 74.4146C23.5267 73.4119 25.9207 69.4682 24.8947 65.5913C24.0739 62.3828 21.2011 60.2438 17.9521 60.1436Z" fill="#495B66"/>
<path d="M21.4065 69.8027L15.6951 71.2064L18.5679 82.3693C20.8251 84.0069 23.2191 85.4441 25.75 86.6472L21.4065 69.8027Z" fill="#495B66"/>
<path d="M20.5853 72.8432C20.7905 73.5784 20.3459 74.3137 19.5593 74.5142C18.8068 74.6814 18.0544 74.2469 17.8492 73.5116C17.6782 72.7763 18.1228 72.0076 18.8752 71.8405C19.6277 71.64 20.4143 72.1079 20.5853 72.8432Z" fill="white"/>
<path d="M25.5789 21.8759C25.7499 21.2075 25.5789 12.5178 25.5789 12.5178C25.5789 12.5178 44.389 2.15714 63.8832 12.5178V23.2128L25.5789 21.8759Z" fill="white"/>
<path d="M17.3025 30.4648C17.3025 30.4648 16.0371 17.1964 46.2359 18.3327C76.2638 19.4356 71.8178 30.3311 71.8178 30.3311C71.8178 30.3311 39.0197 21.0399 17.3025 30.4648Z" fill="#5292D1"/>
<path d="M18.0549 30.1305C39.7721 21.2404 71.8178 30.3311 71.8178 30.3311C71.8178 30.3311 71.9888 29.8966 72.023 29.1613C70.7918 25.8526 65.6275 21.207 46.578 20.5051C24.7924 19.6696 19.3545 26.3539 18.0549 30.1305Z" fill="#2C74AF"/>
</svg>
