<svg width="91" height="95" viewBox="0 0 91 95" fill="none" xmlns="http://www.w3.org/2000/svg">
<path d="M90.4963 49.8667C90.4963 74.1642 70.3524 93.8495 45.4888 93.8495C20.6594 93.8495 0.515381 74.1642 0.515381 49.8667C0.515381 25.5691 20.6594 5.88379 45.4888 5.88379C70.3524 5.88379 90.4963 25.5691 90.4963 49.8667Z" fill="#35A87E"/>
<path d="M11.2203 27.4753C11.2203 27.4753 4.03819 29.3135 4.7222 36.3321C5.40621 43.3506 10.1942 42.1809 10.1942 42.1809C10.1942 42.1809 6.77422 45.0217 8.48423 48.1967C10.1942 51.3718 13.2723 49.1994 13.1013 49.8678C12.9303 50.5363 12.5883 52.8758 15.4953 54.3797C15.4953 54.3797 12.4173 58.5575 19.7703 60.5627C27.1234 62.568 34.6475 60.5627 34.6475 60.5627C34.6475 60.5627 70.0448 66.7458 73.6358 62.7352C77.2268 58.7246 74.1488 57.0535 74.8328 57.0535C75.5168 57.0535 82.8699 55.3824 80.6468 48.531C80.6468 48.531 85.9479 42.6822 82.5279 40.6769C82.5279 40.6769 90.7359 37.5018 88.5129 32.9899C86.2899 28.478 81.1598 24.1332 75.1748 25.1358C69.1897 26.1385 11.2203 27.4753 11.2203 27.4753Z" fill="#560000"/>
<path d="M45.7624 94.0187C53.9363 94.0187 61.5629 91.8798 68.1636 88.2034C64.3674 79.2464 55.3727 72.9297 44.839 72.9297C34.6815 72.9297 25.892 78.8453 21.9248 87.3344C28.8333 91.5789 37.0071 94.0187 45.7624 94.0187Z" fill="#ECC933"/>
<path d="M20.1125 37.8367C20.1125 37.8367 15.4955 34.1603 13.7854 40.0091C12.0754 45.8579 19.4285 50.8712 20.7965 50.5369L20.1125 37.8367Z" fill="#FF7E3E"/>
<path d="M70.4894 37.8367C70.4894 37.8367 75.1065 34.1603 76.8165 40.0091C78.5265 45.8579 71.1734 50.8712 69.8054 50.5369L70.4894 37.8367Z" fill="#FF7E3E"/>
<path opacity="0.3" d="M20.1125 37.8367C20.1125 37.8367 15.4955 34.1603 13.7854 40.0091C12.0754 45.8579 19.4285 50.8712 20.7965 50.5369L20.1125 37.8367Z" fill="#FE2F00"/>
<path opacity="0.3" d="M70.4894 37.8367C70.4894 37.8367 75.1065 34.1603 76.8165 40.0091C78.5265 45.8579 71.1734 50.8712 69.8054 50.5369L70.4894 37.8367Z" fill="#FE2F00"/>
<path d="M46.9937 78.0433H43.0949C41.5901 78.0433 40.3589 76.8401 40.3589 75.3696V67.8163C40.3589 66.3458 41.5901 65.1426 43.0949 65.1426H46.9937C48.4986 65.1426 49.7298 66.3458 49.7298 67.8163V75.3696C49.7298 76.8401 48.4986 78.0433 46.9937 78.0433Z" fill="#FF7E3E"/>
<g style="mix-blend-mode:multiply" opacity="0.73">
<path d="M46.9937 65.1426H43.0949C41.5901 65.1426 40.3589 66.3458 40.3589 67.8163V70.6571C42.0347 70.9914 43.7789 71.1585 45.5231 71.1585C46.9367 71.1585 48.339 71.0471 49.7298 70.8243V67.8163C49.7298 66.3458 48.4986 65.1426 46.9937 65.1426Z" fill="#F9AB64"/>
</g>
<path d="M70.4893 20.7916H48.5327C47.3927 20.6356 46.2299 20.5576 45.0443 20.5576C43.8815 20.5576 42.7301 20.6356 41.59 20.7916H19.2915V40.8446H19.4625C19.3941 41.1788 19.3371 41.5241 19.2915 41.8806C19.2915 41.8806 19.1888 46.6933 19.2915 48.2642C20.1123 60.3962 31.843 69.5872 45.0443 69.5872C57.5616 69.5872 69.2239 61.4657 70.4893 50.2026C71.2759 42.8833 70.4893 20.7916 70.4893 20.7916Z" fill="#FF7E3E"/>
<path opacity="0.3" d="M40.2906 52.8764C40.2906 52.8764 41.214 53.879 43.4713 53.1103C45.7627 52.3082 47.3701 52.2079 47.7121 53.5448C48.0541 54.8817 44.9761 56.653 42.6846 56.653C41.4192 56.653 38.3412 54.3135 40.2906 52.8764Z" fill="#FE2F00"/>
<path d="M42.4109 42.9841C42.4109 45.591 42.4109 48.1978 42.4109 50.8047C42.7301 50.7156 43.0493 50.6265 43.3685 50.5374C42.0347 48.2647 39.1276 49.4679 39.2644 51.9411C39.4696 54.7151 42.6161 55.9517 44.8049 54.3808C45.3521 54.0132 44.8391 53.1108 44.2919 53.5119C43.5623 54.1803 42.6503 54.2917 41.5558 53.8461C40.7008 53.5119 40.2904 52.7098 40.5982 51.8742C41.0086 50.7045 41.5559 50.6042 42.5477 50.905C42.9923 51.0387 42.7871 51.5734 43.3685 51.0053C43.7105 50.671 43.4369 48.8329 43.4369 48.365C43.4369 46.5825 43.4369 44.7888 43.4369 42.9841C43.4369 42.3491 42.4109 42.3491 42.4109 42.9841Z" fill="#AF4700"/>
<path opacity="0.3" d="M63.9914 53.8789C63.9914 55.784 61.5632 57.3214 58.5877 57.3214C55.6123 57.3214 53.1841 55.784 53.1841 53.8789C53.1841 51.9739 55.6123 50.4365 58.5877 50.4365C61.5632 50.4365 63.9914 51.9739 63.9914 53.8789Z" fill="#FE2F00"/>
<path opacity="0.3" d="M35.5026 54.7813C35.5026 56.7198 33.0744 58.2571 30.099 58.2571C27.0894 58.2571 24.6611 56.7198 24.6611 54.7813C24.6611 52.8763 27.0894 51.3389 30.099 51.3389C33.0744 51.3389 35.5026 52.8763 35.5026 54.7813Z" fill="#FE2F00"/>
<path d="M60.7082 45.6901C60.7082 47.4615 59.819 48.932 58.6904 48.932C57.596 48.932 56.7068 47.4615 56.7068 45.6901C56.7068 43.9188 57.596 42.4482 58.6904 42.4482C59.819 42.4482 60.7082 43.9188 60.7082 45.6901Z" fill="#560000"/>
<path d="M31.7404 45.6901C31.7404 47.4615 30.8512 48.932 29.7568 48.932C28.6282 48.932 27.739 47.4615 27.739 45.6901C27.739 43.9188 28.6282 42.4482 29.7568 42.4482C30.8512 42.4482 31.7404 43.9188 31.7404 45.6901Z" fill="#560000"/>
<path d="M41.3165 63.1037C42.3425 64.2734 43.8474 64.8416 45.4206 64.6411C46.0704 64.5408 45.9336 63.5381 45.2838 63.6384C44.0868 63.8055 42.9239 63.4045 42.1373 62.5021C41.6927 62.0007 40.8719 62.6023 41.3165 63.1037Z" fill="#AF4700"/>
<path d="M45.1129 53.0103C45.4891 53.1439 45.7969 53.4113 46.0021 53.7121C46.3441 54.2469 47.2333 53.7455 46.8913 53.2108C46.5151 52.676 46.0021 52.275 45.3865 52.041C44.7709 51.8071 44.4973 52.7763 45.1129 53.0103Z" fill="#AF4700"/>
<path fill-rule="evenodd" clip-rule="evenodd" d="M57.0485 38.3048C54.4835 38.9064 53.3891 35.0295 55.9541 34.4279C58.9295 33.726 62.0418 34.5616 64.128 36.7674C65.9406 38.639 63.0336 41.4799 61.2552 39.5748C60.1265 38.4385 58.6217 37.9372 57.0485 38.3048ZM24.866 36.9679C27.0549 35.0295 29.9961 34.2942 32.8347 35.1297C35.3655 35.865 34.2711 39.7419 31.7403 39.0066C30.3381 38.5722 28.8675 38.8061 27.7731 39.7753C25.7895 41.5133 22.8824 38.6724 24.866 36.9679Z" fill="#240000"/>
<path d="M60.571 37.5689C61.8022 38.9058 63.5807 37.9365 63.9569 36.5997C61.8706 34.5275 58.8268 33.7588 55.954 34.4273C55.099 34.6278 54.6544 35.196 54.5176 35.8644C54.9622 36.2655 55.612 36.466 56.3644 36.2989C57.9376 35.9312 59.4424 36.4326 60.571 37.5689Z" fill="#560000"/>
<path d="M33.5185 35.4973C33.3475 35.3302 33.1081 35.2299 32.8345 35.1297C29.9959 34.2941 27.0546 35.0294 24.8658 36.9678C24.558 37.2018 24.387 37.5026 24.2844 37.77C25.0368 38.405 26.1654 38.6055 27.0888 37.77C28.1833 36.8007 29.6539 36.5668 31.0561 37.0013C32.3899 37.3689 33.3133 36.4999 33.5185 35.4973Z" fill="#560000"/>
<path d="M74.7644 39.9752C74.3198 39.4739 73.6358 39.3402 72.986 39.6076C72.131 39.9418 71.8232 40.8442 71.6864 41.6798C71.5496 42.2479 71.4812 43.05 71.9942 43.4845C72.302 43.7185 72.5756 43.6851 72.9176 43.7185C73.2596 43.7185 73.5674 43.6851 73.8752 43.8856C74.525 44.2532 74.4566 45.5901 73.4306 45.2224C72.815 44.9885 72.5414 45.9577 73.157 46.1582C74.5592 46.693 75.893 45.1556 75.2432 43.8522C74.9012 43.2171 74.2172 42.7827 73.4648 42.7158C72.8834 42.649 72.5756 42.8495 72.644 42.0808C72.644 41.6129 73.2254 39.7747 74.0462 40.7105C74.4566 41.1784 75.1748 40.4766 74.7644 39.9752Z" fill="#AF4700"/>
<path d="M16.1795 40.2083C17.1371 39.8741 18.0605 41.3781 17.6843 42.1133C17.4107 42.6815 17.0003 42.4141 16.5215 42.5478C16.1111 42.6815 15.7349 42.9155 15.5639 43.3499C15.0167 44.8873 16.7951 45.656 17.8553 46.2242C18.4025 46.5584 18.9497 45.6895 18.3683 45.3552C18.1289 45.255 17.8895 45.1213 17.6501 44.9876C17.1029 44.6868 16.5899 44.5531 16.7951 43.9181C17.0345 43.2497 17.3423 43.6173 17.8895 43.4502C18.5393 43.2497 18.7103 42.7149 18.7103 42.1133C18.7103 40.6094 17.7527 38.5706 15.9059 39.2391C15.2903 39.473 15.5639 40.4423 16.1795 40.2083Z" fill="#AF4700"/>
<path fill-rule="evenodd" clip-rule="evenodd" d="M72.0624 43.6527C72.0624 43.6527 70.455 43.9201 70.0446 44.9896C69.6342 46.0256 69.087 55.8182 61.1183 56.7205C53.1497 57.6563 50.9951 55.4171 48.8404 52.5094C46.6516 49.6017 46.5148 45.1232 46.5148 45.1232C46.5148 45.1232 44.9758 44.0872 43.7446 44.1874C42.5476 44.0872 40.9744 45.1232 40.9744 45.1232C40.9744 45.1232 40.8376 49.6017 38.683 52.5094C36.5283 55.4171 34.3737 57.6563 26.405 56.7205C18.4022 55.8182 17.8892 46.0256 17.4788 44.9896C17.0684 43.9201 15.4268 43.6527 15.4268 43.6527C15.4268 43.6527 15.7004 41.2798 15.7004 40.745C15.7004 40.745 16.658 41.1461 17.4788 41.1461C18.2654 41.1461 20.9672 39.1742 28.6965 38.6394C36.3915 38.1047 39.88 42.65 39.88 42.65C43.3 41.2797 45.2494 42.015 47.4382 42.884C49.9007 39.8426 55.1333 38.3721 58.8269 38.6394C66.522 39.1742 69.2238 41.1461 70.0446 41.1461C70.8654 41.1461 71.7888 40.745 71.7888 40.745C71.7888 41.2798 72.0624 43.6527 72.0624 43.6527ZM29.4831 39.9095C24.3872 39.9095 19.1888 41.2798 20.1122 47.7636C20.762 52.1084 23.6006 55.9184 29.4831 55.8182C35.5707 55.7179 37.9989 52.2086 38.7172 47.8638C39.7774 41.7477 34.5789 39.9095 29.4831 39.9095ZM58.4507 39.9095C53.3549 39.9095 48.1564 41.7477 49.2166 47.8638C49.9349 52.2086 52.3289 55.7179 58.4507 55.8182C64.299 55.9184 67.1718 52.1084 67.7874 47.7636C68.745 41.2798 63.5466 39.9095 58.4507 39.9095Z" fill="#111111"/>
<path fill-rule="evenodd" clip-rule="evenodd" d="M72.0624 43.1849C72.0624 43.1849 70.455 43.4523 70.0446 44.5218C69.6342 45.5913 69.087 55.3504 61.1183 56.2862C53.1497 57.1886 50.9951 54.9494 48.8404 52.0417C46.6516 49.134 46.5148 44.6555 46.5148 44.6555C46.5148 44.6555 44.9758 43.6528 43.7446 43.7197C42.5476 43.6528 40.9744 44.6555 40.9744 44.6555C40.9744 44.6555 40.8376 49.134 38.683 52.0417C36.5283 54.9494 34.3737 57.1886 26.405 56.2862C18.4022 55.3504 17.8892 45.5913 17.4788 44.5218C17.0684 43.4523 15.4268 43.1849 15.4268 43.1849C15.4268 43.1849 15.7004 40.812 15.7004 40.3107C15.7004 40.3107 16.658 40.6783 17.4788 40.6783C18.2654 40.6783 20.9672 38.7064 28.6965 38.1717C36.3915 37.6704 39.88 42.1823 39.88 42.1823C43.3 40.812 45.2494 41.5473 47.4382 42.4162C49.9007 39.4083 55.1333 37.9377 58.8269 38.1717C66.522 38.7064 69.2238 40.6783 70.0446 40.6783C70.8654 40.6783 71.7888 40.3107 71.7888 40.3107C71.7888 40.812 72.0624 43.1849 72.0624 43.1849ZM29.4831 39.4751C24.3872 39.4751 19.1888 40.8454 20.1122 47.2958C20.762 51.6406 23.6006 55.4841 29.4831 55.3504C35.5707 55.2502 37.9989 51.7409 38.7172 47.4295C39.7774 41.2799 34.5789 39.4751 29.4831 39.4751ZM58.4507 39.4751C53.3549 39.4751 48.1564 41.2799 49.2166 47.4295C49.9349 51.7409 52.3289 55.2502 58.4507 55.3504C64.299 55.4841 67.1718 51.6406 67.7874 47.2958C68.745 40.8454 63.5466 39.4751 58.4507 39.4751Z" fill="#515151"/>
<path fill-rule="evenodd" clip-rule="evenodd" d="M48.8406 52.0418C47.8146 50.705 47.2331 48.967 46.9253 47.5299C46.6859 46.193 46.6517 45.2238 46.6517 45.2238C46.6517 45.2238 46.6175 45.2015 46.5491 45.157C46.5491 44.8562 46.5149 44.6556 46.5149 44.6556C46.5149 44.6556 44.9759 43.653 43.7447 43.7198C42.5477 43.653 40.9745 44.6556 40.9745 44.6556C40.9745 44.6556 40.8377 49.1341 38.6831 52.0418C36.5285 54.9495 34.3738 57.1888 26.4052 56.2864C20.4201 55.5845 18.6075 49.9028 17.9235 46.6609C17.7867 46.0594 17.7183 45.558 17.6499 45.2907C17.5815 44.923 17.5131 44.6557 17.4789 44.522C17.1369 43.6864 16.0425 43.3522 15.6321 43.2519C15.7005 42.5167 15.8373 41.2466 15.8373 40.879C15.8373 40.879 16.7607 41.2466 17.5815 41.2466C18.4023 41.2466 21.1041 39.2748 28.7992 38.74C36.4943 38.2053 40.0169 42.7506 40.0169 42.7506C43.4027 41.3803 45.3521 42.1156 47.541 42.9846C50.0034 39.9766 55.236 38.5061 58.9296 38.74C66.6589 39.2748 69.3607 41.2466 70.1473 41.2466C70.8314 41.2466 71.618 40.9793 71.8232 40.879C71.9258 41.7814 72.0626 43.1851 72.0626 43.1851C72.0626 43.1851 70.4552 43.4525 70.0447 44.522C69.6343 45.5915 69.0871 55.3506 61.1185 56.2864C53.1498 57.1888 50.9952 54.9495 48.8406 52.0418ZM38.7857 44.8562C38.1701 40.7787 33.7924 39.4753 29.4832 39.4753C24.3874 39.4753 19.1889 40.8456 20.1123 47.296C20.1807 47.6525 20.2491 47.9978 20.3175 48.332C21.0699 52.4763 23.9427 56.0524 29.5858 55.9187C35.7077 55.8185 38.1017 52.3092 38.8541 47.9978C39.0593 46.7946 38.9909 45.7586 38.7857 44.8562ZM49.2168 47.4297C49.2624 47.7193 49.3194 48.009 49.3878 48.2986C50.1744 52.4763 52.6026 55.8185 58.5534 55.9187C64.4359 56.0524 67.2745 52.2089 67.9243 47.8641C68.0953 46.6275 68.0611 45.5915 67.8217 44.6891C67.1377 40.4445 62.7601 39.4753 58.4508 39.4753C53.355 39.4753 48.1566 41.2801 49.2168 47.4297Z" fill="#240000"/>
<path d="M18.5048 42.3838C18.5048 42.8852 18.0944 43.2862 17.5814 43.2862C17.0684 43.2862 16.658 42.8852 16.658 42.3838C16.658 41.8825 17.0684 41.4814 17.5814 41.4814C18.0944 41.4814 18.5048 41.8825 18.5048 42.3838Z" fill="#222F38"/>
<path d="M18.5048 42.1494C18.5048 42.6508 18.0944 43.0518 17.5814 43.0518C17.0684 43.0518 16.658 42.6508 16.658 42.1494C16.658 41.6481 17.0684 41.2471 17.5814 41.2471C18.0944 41.2471 18.5048 41.6481 18.5048 42.1494Z" fill="white"/>
<path d="M70.8995 42.3164C70.8995 42.8178 70.4891 43.2188 69.9761 43.2188C69.4631 43.2188 69.0527 42.8178 69.0527 42.3164C69.0527 41.8151 69.4631 41.4141 69.9761 41.4141C70.4891 41.4141 70.8995 41.8151 70.8995 42.3164Z" fill="#222F38"/>
<path d="M70.8995 42.0821C70.8995 42.5834 70.4891 42.9845 69.9761 42.9845C69.4631 42.9845 69.0527 42.5834 69.0527 42.0821C69.0527 41.5808 69.4631 41.1797 69.9761 41.1797C70.4891 41.1797 70.8995 41.5808 70.8995 42.0821Z" fill="white"/>
<path d="M44.5315 89.4385C44.0527 89.6056 43.0951 89.9064 41.9665 89.9064C40.701 89.9064 39.6408 89.5722 38.82 88.8035C38.1018 88.1351 37.6572 87.0322 37.6572 85.7621C37.6572 83.2889 39.3672 81.5176 42.2059 81.5176C43.1635 81.5176 43.9159 81.7181 44.2921 81.8852L44.0185 82.7542C43.5739 82.5537 43.0267 82.3865 42.1717 82.3865C40.1196 82.3865 38.7858 83.6566 38.7858 85.6953C38.7858 87.7674 40.0854 89.004 42.0349 89.004C42.7531 89.004 43.2319 88.9038 43.4713 88.8035V86.3303H41.7613V85.4947H44.5315V89.4385Z" fill="white"/>
<path d="M52.6025 89.4385C52.1237 89.6056 51.1661 89.9064 50.0033 89.9064C48.7379 89.9064 47.7119 89.5722 46.8911 88.8035C46.1387 88.1351 45.6941 87.0322 45.6941 85.7621C45.7283 83.2889 47.4383 81.5176 50.2427 81.5176C51.2345 81.5176 51.9869 81.7181 52.3631 81.8852L52.0895 82.7542C51.6449 82.5537 51.0635 82.3865 50.2427 82.3865C48.1907 82.3865 46.8569 83.6566 46.8569 85.6953C46.8569 87.7674 48.1223 89.004 50.1059 89.004C50.7899 89.004 51.3029 88.9038 51.5423 88.8035V86.3303H49.8323V85.4947H52.6025V89.4385Z" fill="white"/>
<path d="M41.1455 67.9151C41.1455 68.8732 41.1455 69.8201 41.1455 70.7559C41.1455 72.0594 43.1975 72.0594 43.1975 70.7559C43.1975 69.7978 43.1975 68.8509 43.1975 67.9151C43.1975 66.6116 41.1455 66.6116 41.1455 67.9151Z" fill="#560000"/>
<path d="M47.2335 67.9821C47.2791 68.9179 47.3247 69.8649 47.3703 70.823C47.4729 72.093 49.5249 71.9927 49.4223 70.6893C49.3767 69.7535 49.3311 68.8065 49.2855 67.8484C49.1829 66.5784 47.1309 66.6787 47.2335 67.9821Z" fill="#560000"/>
<path d="M44.0525 68.918C44.0525 69.5864 44.0525 70.2549 44.0525 70.9233C44.0525 72.2268 46.1045 72.2268 46.1045 70.9233C46.1045 70.2549 46.1045 69.5864 46.1045 68.918C46.1045 67.6146 44.0525 67.6146 44.0525 68.918Z" fill="#560000"/>
<path d="M37.9307 58.6905C42.1031 62.3001 48.054 61.9658 51.645 57.7547C52.0554 57.2868 51.3372 56.5515 50.8926 57.0529C47.712 60.8295 42.4109 61.2306 38.6831 57.9552C38.1701 57.5542 37.4519 58.256 37.9307 58.6905Z" fill="#AF4700"/>
<path d="M49.6956 56.6201C50.7216 56.8875 51.6108 57.4557 52.2265 58.2578C52.6369 58.7591 53.5261 58.2578 53.1157 57.7565C52.3291 56.7204 51.2688 55.9851 49.9692 55.6843C49.3536 55.5172 49.08 56.4865 49.6956 56.6201Z" fill="#AF4700"/>
<g style="mix-blend-mode:multiply" opacity="0.73">
<path d="M15.8374 20.791C15.8374 20.791 15.3586 20.8244 14.6404 20.9915V37.9697C17.9578 39.975 18.4024 39.0058 18.4024 39.0058L19.0864 50.7034C19.0864 50.7034 21.6514 50.7034 21.6514 49.8678C21.6514 49.0323 20.9674 36.4992 20.9674 36.4992C20.9674 36.4992 22.5064 35.3294 24.7295 32.8228C26.9525 30.3162 26.2685 27.4753 26.2685 27.4753C26.2685 27.4753 27.9785 29.3804 30.0305 29.1464C32.7665 28.8456 34.6134 28.2106 34.2371 23.7655C34.4424 24.7682 35.2974 26.6064 38.2386 28.8122C42.6846 32.1544 46.9597 27.6424 46.4466 26.3056C46.4466 26.3056 51.2347 32.3215 54.1417 29.3135C54.1417 29.3135 56.8777 34.4939 59.6138 32.4886C62.3498 30.4833 60.8108 27.6424 60.8108 27.6424C60.8108 27.6424 65.5988 35.8307 68.8478 34.1597L69.3608 47.5283L71.7549 47.6954L71.9259 38.8387C71.9259 38.8387 74.1831 38.7719 76.2009 37.5687V20.791H15.8374Z" fill="#F9AB64"/>
</g>
<path d="M34.3055 21.1255C34.3055 21.1255 33.9635 23.6321 38.4096 26.9743C42.8556 30.3164 47.1306 25.8045 46.6176 24.4677C46.6176 24.4677 51.4057 30.4835 54.3127 27.4756C54.3127 27.4756 57.0487 32.6559 59.7847 30.6507C62.5208 28.6454 60.9818 25.8045 60.9818 25.8045C60.9818 25.8045 65.7698 33.9928 69.0188 32.3217L69.5318 45.6904L71.9258 45.8575L72.0969 37.0008C72.0969 37.0008 77.3979 36.8337 78.9369 32.8231C78.9369 32.8231 85.093 28.4782 80.4759 25.6374C80.4759 25.6374 85.093 19.7886 79.7919 13.2714C74.9013 7.25551 71.7548 7.92394 64.2308 10.4306C64.2308 10.4306 63.0338 5.91865 58.7587 6.92129C58.7587 6.92129 58.2457 -0.76568 48.4987 0.571185C38.7516 1.90805 38.2386 6.92129 38.2386 6.92129C38.2386 6.92129 37.5546 -0.932788 27.4655 3.41202C17.3764 7.75684 22.5064 14.6083 22.5064 14.6083C22.5064 14.6083 17.0344 10.9319 14.9824 14.6083C12.9304 18.2846 16.0084 18.9531 16.0084 18.9531C16.0084 18.9531 10.8783 19.1202 9.85233 24.1334C8.82632 29.1467 11.0493 30.8178 13.9564 30.8178C13.9564 30.8178 9.51032 32.6559 13.7854 35.4968C18.0604 38.3376 18.5734 37.1679 18.5734 37.1679L19.2574 48.8654C19.2574 48.8654 21.8224 48.8654 21.8224 48.0299C21.8224 47.1944 21.1384 34.6612 21.1384 34.6612C21.1384 34.6612 22.6774 33.4915 24.9005 30.9849C27.1235 28.4782 26.4395 25.6374 26.4395 25.6374C26.4395 25.6374 28.1495 27.5424 30.2015 27.3085C33.1085 26.9743 34.9895 26.3058 34.3055 21.1255Z" fill="#560000"/>
<path d="M39.9143 17.1149C39.6407 19.5213 39.7775 22.5292 42.3083 23.7658C44.121 24.6014 46.2414 23.6656 46.6518 21.7605C46.3326 21.8051 46.0248 21.8497 45.7284 21.8942C46.7544 23.2645 48.054 24.1335 49.7982 24.4677C50.448 24.568 50.7216 23.5987 50.0718 23.4985C48.6012 23.1977 47.5068 22.5627 46.6176 21.3595C46.3782 21.0587 45.7626 21.0253 45.66 21.4932C45.1128 24.1001 42.0689 22.9303 41.2481 21.2258C40.6325 19.9223 40.7693 18.4852 40.9403 17.1149C41.0087 16.4799 39.9827 16.4799 39.9143 17.1149Z" fill="#720000"/>
<path d="M64.3334 15.3107C62.7944 16.2131 62.042 18.1849 62.8286 19.8226C63.6152 21.4602 65.6672 22.1621 67.3773 21.5605C67.9929 21.3266 67.7193 20.3573 67.1037 20.5913C65.8724 21.0258 64.4018 20.6247 63.7862 19.4215C63.1706 18.2518 63.752 16.8146 64.8806 16.1462C65.4278 15.812 64.9148 14.943 64.3334 15.3107Z" fill="#720000"/>
<path d="M16.0085 25.0356C15.3929 27.208 16.3506 29.7481 18.8814 30.0823C21.036 30.3497 22.6434 28.4446 22.1646 26.4059C21.9138 26.6064 21.663 26.7958 21.4122 26.9741C23.43 28.077 25.7214 26.807 25.5162 24.4675C25.4478 23.8325 24.4218 23.8325 24.4902 24.4675C24.5928 25.7375 23.601 27.0075 21.9252 26.1386C21.5148 25.9046 21.0702 26.2722 21.1728 26.6733C21.5832 28.4446 19.668 29.581 18.1632 28.7454C16.8978 28.0102 16.6242 26.6399 17.0004 25.303C17.1714 24.668 16.1795 24.4006 16.0085 25.0356Z" fill="#720000"/>
<path d="M32.3221 12.2358C31.1935 10.0634 33.8269 8.49262 35.4685 8.4592C36.8707 8.4592 38.0678 9.26131 38.8202 10.3642C38.9912 10.5982 39.4016 10.7319 39.641 10.4645C40.325 9.43956 41.408 9.25017 42.89 9.89632C42.9926 10.5313 43.9844 10.264 43.8818 9.62895C43.3688 6.68785 40.154 8.35893 38.9228 9.76264C39.1736 9.78492 39.4358 9.81834 39.7094 9.8629C38.3072 7.82418 35.8105 6.82153 33.4165 7.92445C31.5355 8.82683 30.4069 10.7987 31.4329 12.7372C31.7407 13.3053 32.6299 12.804 32.3221 12.2358Z" fill="#720000"/>
<path d="M8.86032 33.4246C5.6797 34.1598 6.80831 38.6383 9.98893 37.8362C9.78373 37.6357 9.57853 37.4352 9.37333 37.2346C9.03133 38.3041 7.66331 38.9726 8.51832 40.2426C9.27073 41.3789 10.7413 41.145 11.87 40.8442C12.5198 40.6771 12.2462 39.7078 11.5963 39.8749C11.3227 39.9418 10.6387 40.2091 10.3651 40.1089C10.0459 39.7301 9.72673 39.3513 9.40753 38.9726C9.54433 38.8166 9.66973 38.6606 9.78373 38.5047C10.0573 38.1704 10.2283 37.9031 10.3651 37.502C10.4677 37.1344 10.0915 36.8001 9.71533 36.867C7.90272 37.3349 7.25291 34.8283 9.13393 34.3938C9.74953 34.2267 9.47593 33.2574 8.86032 33.4246Z" fill="#720000"/>
<path d="M75.9272 28.9116C77.6601 29.0453 78.3783 29.7137 78.0819 30.9169C78.0819 31.7636 77.8083 32.5323 77.2611 33.223C77.0217 33.4904 77.0901 33.9248 77.4663 34.0585C78.6975 34.3927 80.8521 36.1975 78.9027 37.4007C78.6291 37.6012 78.1503 37.5009 77.8083 37.6346C77.3637 37.8352 77.1243 38.0023 76.8849 38.4702C76.6455 39.0718 77.5347 39.5731 77.7741 38.9715C78.3555 37.7015 80.6127 38.771 80.7837 36.7657C80.9547 34.9609 79.3815 33.5572 77.7399 33.0893C77.8311 33.3567 77.9109 33.6352 77.9793 33.9248C79.3473 32.3206 79.9287 28.7779 77.9793 27.3742C76.4061 26.2379 74.6276 27.3742 74.9354 29.179C75.038 29.814 76.0298 29.5466 75.9272 28.9116Z" fill="#720000"/>
<path d="M73.4989 54.5135C75.2431 54.1793 77.5688 53.2769 77.09 51.0711C76.9531 50.4361 75.9613 50.7035 76.0981 51.3385C76.4401 52.8759 74.3197 53.3438 73.2253 53.5443C72.5755 53.678 72.8491 54.6472 73.4989 54.5135Z" fill="#720000"/>
<path d="M17.137 51.7737C16.453 53.4448 17.821 55.3498 19.5994 55.4501C20.2492 55.5169 20.2492 54.5142 19.5994 54.4474C18.4024 54.3806 17.6842 53.0771 18.1288 52.041C18.3682 51.4395 17.3764 51.1721 17.137 51.7737Z" fill="#720000"/>
<mask id="mask0_323_38238" style="mask-type:luminance" maskUnits="userSpaceOnUse" x="0" y="5" width="91" height="89">
<path d="M90.4829 49.8665C90.4829 74.1473 70.3389 93.8327 45.4924 93.8327C20.6425 93.8327 0.498535 74.1473 0.498535 49.8665C0.498535 25.5857 20.6425 5.90039 45.4924 5.90039C70.3389 5.90039 90.4829 25.5857 90.4829 49.8665Z" fill="white"/>
</mask>
<g mask="url(#mask0_323_38238)">
<path d="M38.6489 75.0336C41.8979 77.6739 41.4533 82.9211 40.5299 86.4972C39.8459 89.171 37.4861 95.354 33.7925 94.3179C29.8936 93.215 29.107 89.9731 27.226 87.0654C25.7896 84.7927 23.5666 82.988 20.9674 82.119C16.3845 80.615 13.4433 82.8543 11.3913 82.8877C9.33926 82.8877 3.11481 78.2755 8.07385 73.0952C9.13406 72.0257 15.7347 64.1047 21.0016 65.1742C26.2684 66.2437 23.806 70.7222 27.4654 73.1286C31.159 75.5349 33.5873 70.8225 38.6489 75.0336Z" fill="#5E003D"/>
<path d="M38.1702 76.3709C33.1085 72.1932 30.6461 76.8722 26.9867 74.4659C23.293 72.0595 25.7554 67.581 20.4886 66.5115C15.256 65.4755 8.6211 73.363 7.5951 74.4659C7.04789 75.034 6.63749 75.6022 6.32968 76.1704C5.50888 79.9804 9.74971 82.8881 11.3913 82.8881C13.4433 82.8547 16.3846 80.6155 20.9674 82.1194C23.5666 82.9884 25.7897 84.7932 27.2261 87.0658C29.1071 89.9735 29.8937 93.2154 33.7925 94.3183C36.4943 95.087 38.478 91.9454 39.6408 89.1714C39.7776 88.6701 39.9144 88.2022 40.017 87.8345C40.9404 84.2584 41.385 79.0112 38.1702 76.3709Z" fill="#3D003D"/>
<path d="M18.026 71.1565C16.9772 72.6047 15.9284 74.053 14.8796 75.5013C14.093 76.5708 15.7688 77.7405 16.5554 76.671C17.6042 75.2228 18.653 73.7745 19.7018 72.3262C20.4884 71.2567 18.8126 70.087 18.026 71.1565Z" fill="white"/>
<path d="M14.2295 73.2296C15.8484 74.3437 17.4786 75.4688 19.1202 76.6052C20.1804 77.3405 21.3774 75.7028 20.283 74.9675C18.6642 73.8312 17.0454 72.706 15.4266 71.5919C14.3321 70.8232 13.1351 72.4609 14.2295 73.2296Z" fill="white"/>
<path d="M37.828 79.2118C37.5543 80.1141 36.5625 80.6155 35.6391 80.3481C34.7157 80.0473 34.2027 79.1115 34.4763 78.2091C34.7841 77.3067 35.7417 76.8054 36.6651 77.0728C37.5885 77.3402 38.1016 78.3094 37.828 79.2118Z" fill="#ECC933"/>
<path d="M33.1764 80.6161C32.9028 81.485 31.911 82.0198 30.9876 81.719C30.0642 81.4516 29.5512 80.5158 29.859 79.6134C30.1326 78.711 31.0902 78.2097 32.0136 78.4771C32.937 78.7445 33.45 79.7137 33.1764 80.6161Z" fill="#90DDF4"/>
<path d="M39.5037 83.7235C39.1959 84.6259 38.2383 85.1272 37.3149 84.8264C36.3915 84.559 35.8785 83.6232 36.1521 82.7208C36.4257 81.8185 37.4175 81.3171 38.3409 81.5845C39.2643 81.8519 39.7773 82.8211 39.5037 83.7235Z" fill="#CF0000"/>
<path d="M34.784 85.2946C34.5104 86.1969 33.5186 86.6983 32.5952 86.4309C31.6718 86.1635 31.1588 85.1943 31.4324 84.3253C31.7402 83.4229 32.6978 82.9216 33.6212 83.189C34.5446 83.4564 35.0576 84.3922 34.784 85.2946Z" fill="#9EC43E"/>
<path d="M64.9489 86.8988C62.7943 86.197 61.5289 84.0246 60.4002 82.1195C58.9296 79.6463 57.801 76.3376 59.9556 73.9312C64.3333 68.9848 71.5837 78.6437 72.0283 82.554C72.3361 85.2278 68.7793 87.1662 66.3511 87.1328C65.8267 87.1105 65.3593 87.0325 64.9489 86.8988Z" fill="#3D003D"/>
<path d="M60.4001 73.4967L63.7176 77.7747L67.4796 75.1009C65.2224 72.962 62.5206 71.6251 60.4001 73.4967Z" fill="#5E003D"/>
<path d="M63.7176 77.7741L59.6136 80.782C59.6136 80.782 57.4932 74.9666 60.4002 73.4961L63.7176 77.7741Z" fill="#74003D"/>
<path d="M61.3575 76.2042C61.5969 76.8058 61.9389 77.3405 62.4519 77.775C62.8623 78.1092 63.4779 78.1761 63.8883 77.775C64.2645 77.4074 64.3329 76.7055 63.8883 76.3713C63.7515 76.2376 63.5805 76.0705 63.5121 76.0037C63.5463 76.0371 63.4095 75.8366 63.4095 75.8366C63.4095 75.8032 63.2727 75.5358 63.3411 75.6695C63.1359 75.1681 62.6571 74.8005 62.0757 74.9676C61.5969 75.1013 61.1523 75.7029 61.3575 76.2042Z" fill="#CF0000"/>
<path d="M69.0529 85.8625C71.0365 89.7394 77.2951 86.1299 76.4743 82.4535C76.0297 80.4148 74.2855 78.9442 75.0379 76.5713C75.4483 75.2679 76.9873 73.5634 78.4579 73.3294C79.484 73.1623 80.4758 73.8976 81.2966 74.2652C82.8698 74.9336 84.5798 75.4684 85.5032 73.6302C85.9478 72.7612 84.614 72.026 84.1694 72.8949C83.8274 73.5634 79.8944 71.6917 78.9709 71.7586C77.3635 71.8254 75.8929 72.6944 74.8669 73.8641C73.8067 75.0673 73.2253 76.6382 73.2595 78.2424C73.2937 79.0111 73.4647 79.7798 73.7383 80.4816C73.9891 81.0832 74.3083 81.6402 74.6959 82.1527C74.9695 85.1607 73.5331 86.141 70.3867 85.0938C69.9421 84.2249 68.6083 84.9936 69.0529 85.8625Z" fill="#3D003D"/>
<g style="mix-blend-mode:overlay" opacity="0.22">
<path d="M63.6151 72.6281C62.3155 72.3607 61.0501 72.6949 59.9556 73.9315C57.801 76.3379 58.9296 79.6466 60.4002 82.1198C61.3237 83.6906 62.3497 85.4285 63.8887 86.3978C64.1167 86.4423 64.3675 86.4646 64.6411 86.4646C67.0693 86.498 70.6261 84.5596 70.3183 81.8859C70.0447 79.3792 66.9667 74.4997 63.6151 72.6281Z" fill="white"/>
</g>
</g>
</svg>
