<svg width="94" height="95" viewBox="0 0 94 95" fill="none" xmlns="http://www.w3.org/2000/svg">
<path d="M90.4519 50.8686C90.4519 75.1661 70.3079 94.8515 45.4443 94.8515C20.6149 94.8515 0.470947 75.1661 0.470947 50.8686C0.470947 26.5711 20.6149 6.88574 45.4443 6.88574C70.3079 6.88574 90.4519 26.5711 90.4519 50.8686Z" fill="#E02F00"/>
<path d="M87.818 42.5117C87.4418 42.5117 87.134 42.2109 87.134 41.8432V22.1245C87.134 21.7568 87.4418 21.4561 87.818 21.4561C88.1942 21.4561 88.502 21.7568 88.502 22.1245V41.8432C88.502 42.2109 88.1942 42.5117 87.818 42.5117Z" fill="#313F49"/>
<path d="M54.1993 23.7962C77.4555 23.2949 65.6906 81.4486 65.6906 81.4486L25.3001 81.0475L24.5477 77.7053L23.7611 81.1812L14.698 79.8443C14.698 79.8443 15.2452 39.6047 20.6488 31.149C26.0867 22.6933 54.1993 23.7962 54.1993 23.7962Z" fill="#3B0000"/>
<path d="M18.3913 34.1577L1.53052 19.4856L47.2221 0.0341797L89.4253 21.5577L69.9653 33.2219L18.3913 34.1577Z" fill="#313F49"/>
<path d="M1.53052 19.4856L4.54014 22.1259L47.6325 2.74133L47.4957 0.167864L47.2221 0.0341797L1.53052 19.4856Z" fill="#475863"/>
<path d="M18.631 35.9965L2.6936 20.6226L47.4618 1.87305L88.2285 22.2268L70.205 35.0607L18.631 35.9965Z" fill="#1E2C35"/>
<path d="M47.4617 1.87305L47.2907 1.90647L46.9487 19.4528L68.1871 35.0941L70.2049 35.0607L88.2285 22.2268L47.4617 1.87305Z" fill="#121C21"/>
<path d="M45.5124 94.7853C53.6521 94.7853 61.313 92.6798 67.8794 88.97C64.1174 80.013 55.1227 73.6963 44.589 73.6963C34.3973 73.6963 25.642 79.6119 21.6748 88.101C28.5833 92.3456 36.7571 94.7853 45.5124 94.7853Z" fill="#313F49"/>
<path d="M44.7253 73.6963V94.7853C44.9989 94.7853 45.2611 94.7853 45.5119 94.7853C53.6516 94.7853 61.3125 92.6798 67.8789 88.97C64.1511 80.0464 55.1906 73.7631 44.7253 73.6963Z" fill="#121C21"/>
<path d="M19.8618 37.9354C19.8618 37.9354 15.2447 34.259 13.5347 40.1078C11.8247 45.9565 19.1778 50.9698 20.5458 50.6356L19.8618 37.9354Z" fill="#F49A98"/>
<path d="M70.2045 37.9354C70.2045 37.9354 74.8216 34.259 76.5316 40.1078C78.2416 45.9565 70.8885 50.9698 69.5205 50.6356L70.2045 37.9354Z" fill="#F49A98"/>
<path d="M46.7091 78.1744H42.8444C41.3396 78.1744 40.1084 76.9712 40.1084 75.5007V67.914C40.1084 66.4434 41.3396 65.2402 42.8444 65.2402H46.7091C48.2139 65.2402 49.4451 66.4434 49.4451 67.914V75.5007C49.4451 76.9712 48.2139 78.1744 46.7091 78.1744Z" fill="#F9D0BB"/>
<path d="M46.7091 65.2402H42.8444C41.3396 65.2402 40.1084 66.4434 40.1084 67.914V70.7882C41.7842 71.089 43.4942 71.2561 45.2384 71.2561C46.6749 71.2561 48.0771 71.1559 49.4451 70.9553V67.914C49.4451 66.4434 48.2139 65.2402 46.7091 65.2402Z" fill="#F49A98"/>
<path d="M70.2048 20.89H48.2482C47.131 20.7563 45.9796 20.6895 44.794 20.6895C43.6312 20.6895 42.4798 20.7563 41.3398 20.89L20.1356 21.3245L19.0412 40.943H19.2122C19.1438 41.2994 19.0868 41.6448 19.0412 41.979C19.0412 41.979 18.9386 46.7917 19.0412 48.396C19.862 60.4946 31.5927 69.6856 44.794 69.6856C57.2771 69.6856 68.9736 61.5641 70.2048 50.301C71.0256 42.9817 70.2048 20.89 70.2048 20.89Z" fill="#F9D0BB"/>
<path d="M63.3988 54.2444C63.3988 56.1494 60.9706 57.6868 57.9952 57.6868C54.9856 57.6868 52.5574 56.1494 52.5574 54.2444C52.5574 52.3394 54.9856 50.7686 57.9952 50.7686C60.9706 50.7686 63.3988 52.3394 63.3988 54.2444Z" fill="#F49A98"/>
<path d="M35.0124 54.2444C35.0124 56.1494 32.5842 57.6868 29.6087 57.6868C26.5991 57.6868 24.1709 56.1494 24.1709 54.2444C24.1709 52.3394 26.5991 50.7686 29.6087 50.7686C32.5842 50.7686 35.0124 52.3394 35.0124 54.2444Z" fill="#F49A98"/>
<path d="M60.4235 45.7895C60.4235 47.5943 59.5343 49.0314 58.4399 49.0314C57.3455 49.0314 56.4563 47.5943 56.4563 45.7895C56.4563 44.0182 57.3455 42.5811 58.4399 42.5811C59.5343 42.5811 60.4235 44.0182 60.4235 45.7895Z" fill="#560000"/>
<path d="M31.4897 45.7895C31.4897 47.5943 30.6005 49.0314 29.4719 49.0314C28.3775 49.0314 27.4883 47.5943 27.4883 45.7895C27.4883 44.0182 28.3775 42.5811 29.4719 42.5811C30.6005 42.5811 31.4897 44.0182 31.4897 45.7895Z" fill="#560000"/>
<path d="M74.5137 40.1068C74.0691 39.5721 73.3851 39.4718 72.7353 39.7057C71.8803 40.0734 71.5725 40.9423 71.4015 41.7779C71.2989 42.3795 71.2305 43.1482 71.7435 43.5827C72.0171 43.8166 72.3249 43.8166 72.6669 43.8166C73.0089 43.8166 73.3167 43.8166 73.6245 43.9837C74.2743 44.3514 74.2059 45.6882 73.1799 45.3206C72.5643 45.0866 72.2907 46.0559 72.9063 46.2898C74.3085 46.7911 75.6081 45.2537 74.9583 43.9503C74.6505 43.3153 73.9323 42.9142 73.2141 42.814C72.6327 42.7471 72.3249 42.9476 72.3591 42.1789C72.3933 41.7445 72.9747 39.8729 73.7613 40.8087C74.2059 41.31 74.9241 40.5747 74.5137 40.1068Z" fill="#F47975"/>
<path d="M15.9288 40.3416C16.8864 39.974 17.8098 41.478 17.4336 42.2132C17.16 42.7814 16.7154 42.5475 16.2708 42.6477C15.8262 42.7814 15.4842 43.0488 15.3132 43.4833C14.766 44.9872 16.5444 45.7559 17.5704 46.3575C18.1518 46.6583 18.6648 45.7893 18.1176 45.4886C17.8782 45.3549 17.6388 45.2546 17.3994 45.1209C16.8522 44.7867 16.3392 44.653 16.5444 44.018C16.7496 43.383 17.0574 43.7172 17.6388 43.5501C18.2886 43.3496 18.4596 42.8482 18.4596 42.2132C18.4254 40.7427 17.502 38.6705 15.6552 39.3724C15.0396 39.5729 15.3132 40.5422 15.9288 40.3416Z" fill="#F47975"/>
<path d="M59.3974 46.9579C60.3892 47.2252 61.4494 46.9244 62.1676 46.1892C62.6465 45.7213 61.8941 45.0194 61.4495 45.4873C60.9706 45.9552 60.3208 46.1557 59.671 45.9886C59.0212 45.8215 58.7476 46.7908 59.3974 46.9579Z" fill="#560000"/>
<path d="M59.2604 48.2615C60.1496 48.7963 61.244 48.7628 62.1332 48.2615C62.6804 47.9273 62.1674 47.0583 61.6202 47.3926C61.0388 47.7268 60.3548 47.7268 59.7734 47.3926C59.192 47.0918 58.679 47.9273 59.2604 48.2615Z" fill="#560000"/>
<path d="M28.2408 46.8915C27.2148 47.1588 26.1546 46.8915 25.4364 46.1228C24.9918 45.6549 25.71 44.953 26.1888 45.4209C26.6334 45.9222 27.2832 46.0893 27.9672 45.9222C28.5828 45.7551 28.8564 46.7244 28.2408 46.8915Z" fill="#560000"/>
<path d="M28.3776 48.2295C27.4884 48.7308 26.394 48.7308 25.5048 48.1961C24.9234 47.8619 25.4364 46.9929 26.0178 47.3271C26.5992 47.6613 27.2832 47.6948 27.8646 47.3605C28.446 47.0263 28.959 47.8953 28.3776 48.2295Z" fill="#560000"/>
<path d="M41.7501 50.4011C41.6133 51.8382 40.1085 52.8743 38.6721 52.54C38.2958 52.4398 37.9197 52.774 38.0223 53.1416C38.6379 55.1469 40.7583 56.3167 42.8445 55.8488C43.4601 55.6817 43.1865 54.7125 42.5709 54.8796C41.0319 55.2472 39.4929 54.3448 39.0141 52.8743C38.8089 53.0971 38.6037 53.3087 38.3985 53.5093C40.5189 54.0106 42.5709 52.5066 42.7761 50.4011C42.8445 49.7661 41.8185 49.7661 41.7501 50.4011Z" fill="#F47975"/>
<path d="M44.5547 54.2449C44.8625 54.178 45.2045 54.2115 45.4439 54.412C45.9227 54.8465 46.6751 54.1112 46.1621 53.7101C45.6149 53.2757 44.9651 53.1086 44.2811 53.2757C43.6655 53.4428 43.9049 54.412 44.5547 54.2449Z" fill="#F47975"/>
<path d="M57.8924 37.1994C59.4656 36.8652 60.9704 37.4 62.0306 38.5697C62.8856 39.5389 64.322 38.1018 63.467 37.1326C61.928 35.4281 59.6024 34.7596 57.3452 35.2944C56.0456 35.5618 56.5927 37.5002 57.8924 37.1994Z" fill="#560000"/>
<path d="M31.5579 35.2944C29.3007 34.7596 26.9751 35.4281 25.436 37.1326C24.5468 38.1018 25.9833 39.5389 26.8725 38.5697C27.9327 37.4 29.4375 36.8652 31.0107 37.1994C32.2761 37.5002 32.8233 35.5618 31.5579 35.2944Z" fill="#560000"/>
<g style="mix-blend-mode:multiply" opacity="0.64">
<path d="M39.1165 54.3119C39.0481 53.4764 41.8525 54.8467 42.8785 54.5125C43.9045 54.1782 46.7431 53.0753 47.3245 54.7464C47.9059 56.4175 39.5611 59.1915 39.1165 54.3119Z" fill="#F49A98"/>
</g>
<path d="M38.364 59.7923C39.4242 61.6639 41.1684 61.831 43.2205 61.8978C45.3751 61.9981 47.4613 61.6639 48.9319 59.9928C49.3765 59.4915 48.6583 58.7896 48.2137 59.2575C46.4353 61.2962 40.758 61.9313 39.2532 59.2909C38.9112 58.7228 38.0562 59.2241 38.364 59.7923Z" fill="#CC6666"/>
<path d="M48.1112 59.3245C48.5558 59.4582 48.8978 59.8927 48.932 60.3271C49.0004 60.9622 50.0264 60.9956 49.958 60.3271C49.8896 59.4248 49.3082 58.6561 48.3848 58.3553C47.7692 58.1548 47.4956 59.124 48.1112 59.3245Z" fill="#CC6666"/>
<path d="M40.1084 76.2688L44.7254 89.8045L49.1715 76.603C49.1715 76.603 40.4504 74.4306 40.1084 76.2688Z" fill="#F9D0BB"/>
<path d="M64.0488 30.5817C64.0488 31.2501 64.4934 82.6192 64.4934 82.6192L66.3403 82.3852L67.1269 79.043L67.9135 82.5189L77.2843 81.182C77.2843 81.182 76.7029 40.9424 71.1283 32.4867C65.5194 24.031 64.0488 30.5817 64.0488 30.5817Z" fill="#560000"/>
<path d="M24.1371 30.1471C20.8539 55.5476 26.3259 81.0483 26.3259 81.0483L23.9319 81.182L23.0085 77.5056L22.6665 80.948L14.8688 80.0122C14.8688 80.0122 14.2532 39.806 19.5884 31.1832C24.9237 22.5604 24.1371 30.1471 24.1371 30.1471Z" fill="#560000"/>
<g style="mix-blend-mode:multiply">
<path d="M70.9233 22.1592C70.9233 22.1592 47.1883 11.6648 19.4177 22.5936L18.6311 34.8594C18.6311 34.8594 45.1021 25.2339 71.368 35.0933L70.9233 22.1592Z" fill="#F2B297"/>
</g>
<path d="M70.9233 20.9892C70.9233 20.9892 47.1883 10.4948 19.4177 21.4237L18.6311 33.6894C18.6311 33.6894 45.1021 24.064 71.368 33.9234L70.9233 20.9892Z" fill="#313F49"/>
<path d="M86.9632 43.2818C85.9372 43.5826 84.877 54.6452 84.6376 55.8149C83.8852 60.026 83.2354 64.2706 82.3804 68.4817C82.825 68.6823 83.5432 68.8159 83.8852 68.3815C84.1246 68.0807 84.1588 67.713 84.193 67.3454C84.307 65.964 84.4324 64.5825 84.5692 63.2011C84.7288 64.7831 84.8884 66.3539 85.048 67.9136C85.0822 68.1141 85.1164 68.3146 85.219 68.4817C85.7662 69.4844 88.2628 69.6181 88.8442 68.7491C89.665 67.5459 88.4338 63.2011 88.1602 61.8308C88.3654 64.304 88.9468 66.7104 89.8361 69.0165C89.8589 67.635 89.893 66.2648 89.9386 64.9056C90.8279 65.9083 91.3067 67.2451 91.5119 69.1836C92.0135 68.8271 92.5493 68.5486 93.1193 68.348C91.4435 59.8924 90.3149 51.2696 88.9126 42.7471C88.9126 42.7471 86.9974 43.2818 86.9632 43.2818Z" fill="#FFC23E"/>
<path d="M89.6989 42.0458C89.6989 43.015 88.8781 43.7837 87.8863 43.7837C86.9287 43.7837 86.1079 43.015 86.1079 42.0458C86.1079 41.0765 86.9287 40.2744 87.9205 40.2744C88.8781 40.2744 89.6989 41.0765 89.6989 42.0458Z" fill="#313F49"/>
<path d="M49.685 28.977C46.2649 27.473 29.8488 27.8072 29.8488 27.8072L29.6778 21.4571C30.2592 19.2847 40.4851 17.246 42.8791 16.5107C35.7654 16.7781 27.7968 18.115 19.4177 21.4237L18.6311 33.6895C18.6311 33.6895 32.2428 28.743 49.6166 29.5786C52.3184 29.4783 49.9928 29.1107 49.685 28.977Z" fill="#475863"/>
<path d="M61.1419 91.9765C42.8448 98.995 28.4807 86.9632 28.4807 86.9632C30.2249 82.2174 36.3467 76.5357 38.8434 74.3633C31.1825 76.1012 24.8554 81.2481 21.6748 88.0996C28.5833 92.3441 36.7571 94.7839 45.5124 94.7839C51.7711 94.7839 57.7219 93.5473 63.1256 91.2746C62.5442 91.4752 61.8602 91.7091 61.1419 91.9765Z" fill="#475863"/>
<g style="mix-blend-mode:overlay">
<path d="M17.8787 55.9821C18.0383 59.1906 18.1865 62.3879 18.3233 65.5741C18.3575 66.2091 19.3835 66.2091 19.3493 65.5741C19.2125 62.3879 19.0643 59.1906 18.9047 55.9821C18.9047 55.3471 17.8787 55.3471 17.8787 55.9821Z" fill="#E52000"/>
<path d="M20.7852 34.8268C20.6256 38.3918 20.5914 41.9568 20.6826 45.5218C20.7168 46.1568 21.7428 46.1568 21.7086 45.5218C21.6174 41.9568 21.6516 38.3918 21.8112 34.8268C21.8112 34.1918 20.7852 34.1918 20.7852 34.8268Z" fill="#E52000"/>
<path d="M22.0507 61.3298C21.9595 64.4714 22.0051 67.5908 22.1875 70.6878C22.2217 71.3563 23.2477 71.3563 23.2135 70.6878C23.0311 67.5908 22.9855 64.4714 23.0767 61.3298C23.1109 60.6948 22.0849 60.6948 22.0507 61.3298Z" fill="#E52000"/>
<path d="M17.468 72.2585C17.468 73.6622 17.468 75.077 17.468 76.503C17.468 77.138 18.494 77.138 18.494 76.503C18.494 75.077 18.494 73.6622 18.494 72.2585C18.494 71.6235 17.468 71.6235 17.468 72.2585Z" fill="#E52000"/>
<path d="M67.1953 36.1628C67.1953 44.028 67.1953 51.9044 67.1953 59.7919C67.1953 60.4269 68.2213 60.4269 68.2213 59.7919C68.2213 51.9044 68.2213 44.028 68.2213 36.1628C68.2213 35.5278 67.1953 35.5278 67.1953 36.1628Z" fill="#E52000"/>
<path d="M71.7439 46.1901C71.7439 47.9726 71.7439 49.7551 71.7439 51.5376C71.7439 52.1726 72.7699 52.1726 72.7699 51.5376C72.7699 49.7551 72.7699 47.9726 72.7699 46.1901C72.7699 45.5551 71.7439 45.5551 71.7439 46.1901Z" fill="#E52000"/>
<path d="M71.0598 58.4554C71.0598 63.0453 71.0598 67.6464 71.0598 72.2586C71.0598 72.8936 72.0858 72.8936 72.0858 72.2586C72.0858 67.6464 72.0858 63.0453 72.0858 58.4554C72.0858 57.787 71.0598 57.787 71.0598 58.4554Z" fill="#E52000"/>
<path d="M66.511 67.8128C66.511 70.1746 66.511 72.5476 66.511 74.9317C66.511 75.5667 67.537 75.5667 67.537 74.9317C67.537 72.5476 67.537 70.1746 67.537 67.8128C67.537 67.1444 66.511 67.1444 66.511 67.8128Z" fill="#E52000"/>
<path d="M73.7959 72.6931C73.7959 74.119 73.7959 75.5339 73.7959 76.9376C73.7959 77.5726 74.8219 77.5726 74.8219 76.9376C74.8219 75.5339 74.8219 74.119 74.8219 72.6931C74.8219 72.058 73.7959 72.058 73.7959 72.6931Z" fill="#E52000"/>
</g>
<path d="M86.3475 53.9763C86.3475 56.1821 86.1765 58.3545 85.8003 60.5269C85.6635 61.1619 86.6553 61.4293 86.7579 60.7943C87.1683 58.555 87.3735 56.2824 87.3735 53.9763C87.3735 53.3412 86.3475 53.3412 86.3475 53.9763Z" fill="#FF9A3E"/>
<path d="M87.2707 45.1862C87.2023 46.9241 87.225 48.6732 87.339 50.4334C87.3732 51.0684 88.3993 51.0684 88.3651 50.4334C88.251 48.6732 88.2283 46.9241 88.2967 45.1862C88.2967 44.5512 87.2707 44.5512 87.2707 45.1862Z" fill="#FF9A3E"/>
<path d="M88.7073 55.7806C88.8441 58.2984 89.1633 60.7939 89.6649 63.2671C89.8017 63.8686 90.7935 63.6013 90.6567 62.9997C90.1779 60.6156 89.8701 58.2093 89.7333 55.7806C89.7333 55.1122 88.7073 55.1122 88.7073 55.7806Z" fill="#FF9A3E"/>
<path d="M86.9632 64.0016C86.8948 65.0043 86.8834 66.0069 86.929 67.0096C86.929 67.678 87.955 67.678 87.955 67.0096C87.9094 66.0069 87.9208 65.0043 87.9892 64.0016C88.0234 63.3666 86.9974 63.3666 86.9632 64.0016Z" fill="#FF9A3E"/>
</svg>
