<svg width="92" height="103" viewBox="0 0 92 103" fill="none" xmlns="http://www.w3.org/2000/svg">
<path d="M91.9067 56.8225C91.9067 82.0643 71.4564 102.515 46.2493 102.515C21.0075 102.515 0.557129 82.0643 0.557129 56.8225C0.557129 31.6154 21.0075 11.165 46.2493 11.165C71.4564 11.165 91.9067 31.6154 91.9067 56.8225Z" fill="#35A87E"/>
<path d="M46.1797 102.202C54.4779 102.202 62.2205 100.014 68.9216 96.1602C65.0676 86.8551 55.9361 80.293 45.2422 80.293C34.9302 80.293 26.0071 86.4385 21.9795 95.2575C28.993 99.667 37.2912 102.202 46.1797 102.202Z" fill="#90DDF4"/>
<path d="M44.9644 84.4586C44.9644 90.3148 44.9644 96.1594 44.9644 101.992C44.9644 102.652 46.006 102.652 46.006 101.992C46.006 96.1594 46.006 90.3148 46.006 84.4586C46.006 83.7989 44.9644 83.7989 44.9644 84.4586Z" fill="#6EBCDA"/>
<path d="M20.1394 43.8361C20.1394 43.8361 15.4521 40.0169 13.7161 46.093C11.9801 52.169 19.445 57.3771 20.8338 57.0299L20.1394 43.8361Z" fill="#FF7E3E"/>
<path d="M71.2825 43.8361C71.2825 43.8361 75.9698 40.0169 77.7058 46.093C79.4419 52.169 71.977 57.3771 70.5881 57.0299L71.2825 43.8361Z" fill="#FF7E3E"/>
<path opacity="0.3" d="M20.1394 43.8361C20.1394 43.8361 15.4521 40.0169 13.7161 46.093C11.9801 52.169 19.445 57.3771 20.8338 57.0299L20.1394 43.8361Z" fill="#FE2F00"/>
<path opacity="0.3" d="M71.2825 43.8361C71.2825 43.8361 75.9698 40.0169 77.7058 46.093C79.4419 52.169 71.977 57.3771 70.5881 57.0299L71.2825 43.8361Z" fill="#FE2F00"/>
<path d="M47.4296 85.6052H43.4715C41.9438 85.6052 40.6938 84.3553 40.6938 82.8276V74.9808C40.6938 73.4531 41.9438 72.2031 43.4715 72.2031H47.4296C48.9573 72.2031 50.2073 73.4531 50.2073 74.9808V82.8276C50.2073 84.3553 48.9573 85.6052 47.4296 85.6052Z" fill="#EF672B"/>
<g style="mix-blend-mode:multiply" opacity="0.73">
<path d="M47.4296 72.2031H43.4715C41.9438 72.2031 40.6938 73.4531 40.6938 74.9808V77.9667C42.3952 78.2792 44.1659 78.4528 45.9366 78.4528C47.3717 78.4528 48.7953 78.3371 50.2073 78.1056V74.9808C50.2073 73.4531 48.9573 72.2031 47.4296 72.2031Z" fill="#F9AB64"/>
</g>
<path d="M71.2826 26.1288H48.9921C47.8347 25.9899 46.6542 25.9089 45.4506 25.8857C44.2701 25.9089 43.1012 25.9899 41.9438 26.1288H19.3061V46.9611H19.4797C19.4102 47.3083 19.3524 47.6671 19.3061 48.0374C19.3061 48.0374 19.2019 53.0372 19.3061 54.7037C20.1394 67.2726 32.0485 76.8207 45.4506 76.8207C58.1583 76.8207 69.998 68.3836 71.2826 56.6828C72.0812 49.079 71.2826 26.1288 71.2826 26.1288Z" fill="#EF672B"/>
<path opacity="0.3" d="M40.6244 59.4605C40.6244 59.4605 41.5619 60.5021 43.8534 59.7036C46.1797 58.8703 47.8116 58.7661 48.1588 60.1549C48.506 61.5437 45.3811 63.3839 43.0549 63.3839C41.7702 63.3839 38.6454 60.9535 40.6244 59.4605Z" fill="#FE2F00"/>
<path d="M42.7771 49.1832C42.7771 51.8914 42.7771 54.5996 42.7771 57.3078C43.1012 57.2152 43.4253 57.1227 43.7493 57.0301C42.3952 54.6691 39.444 55.919 39.5829 58.4883C39.7912 61.4049 42.9855 62.6548 45.2076 61.0229C45.7631 60.641 45.2423 59.7383 44.6868 60.1202C43.9461 60.8146 43.0202 60.9303 41.9091 60.4674C41.0411 60.1202 40.6245 59.2869 40.937 58.4189C41.3536 57.2037 41.9091 57.0995 42.916 57.412C43.3674 57.5509 43.1591 58.1064 43.7493 57.5162C44.0965 57.169 43.8188 55.2593 43.8188 54.7732C43.8188 52.9215 43.8188 51.0581 43.8188 49.1832C43.8188 48.5236 42.7771 48.5236 42.7771 49.1832Z" fill="#B22A00"/>
<path d="M64.6858 60.502C64.6858 62.4811 62.2206 64.1129 59.1999 64.1129C56.1793 64.1129 53.7141 62.4811 53.7141 60.502C53.7141 58.5229 56.1793 56.9258 59.1999 56.9258C62.2206 56.9258 64.6858 58.5229 64.6858 60.502Z" fill="#E8470F"/>
<path d="M35.7635 61.4742C35.7635 63.4533 33.2983 65.0504 30.2776 65.0504C27.2222 65.0504 24.7571 63.4533 24.7571 61.4742C24.7571 59.4604 27.2222 57.8633 30.2776 57.8633C33.2983 57.8633 35.7635 59.4604 35.7635 61.4742Z" fill="#E8470F"/>
<path d="M61.3526 51.9958C61.3526 53.8707 60.4498 55.3637 59.3041 55.3637C58.193 55.3637 57.2903 53.8707 57.2903 51.9958C57.2903 50.1556 58.193 48.6279 59.3041 48.6279C60.4498 48.6279 61.3526 50.1556 61.3526 51.9958Z" fill="#560000"/>
<path d="M31.9444 51.9958C31.9444 53.8707 31.0417 55.3637 29.9306 55.3637C28.7848 55.3637 27.8821 53.8707 27.8821 51.9958C27.8821 50.1556 28.7848 48.6279 29.9306 48.6279C31.0417 48.6279 31.9444 50.1556 31.9444 51.9958Z" fill="#560000"/>
<path d="M41.8395 71.4043C42.8811 72.6196 44.4088 73.2445 46.0059 73.0015C46.6656 72.8973 46.5267 71.8904 45.8671 71.9599C44.6518 72.1335 43.4713 71.7168 42.6728 70.7794C42.2214 70.2933 41.3881 70.9183 41.8395 71.4043Z" fill="#B22A00"/>
<path d="M45.5198 59.6001C45.9017 59.739 46.2142 60.0168 46.4225 60.3292C46.7697 60.8848 47.6724 60.364 47.3252 59.8084C46.9433 59.2529 46.4225 58.8363 45.7975 58.5932C45.1726 58.3502 44.8948 59.3571 45.5198 59.6001Z" fill="#B22A00"/>
<path fill-rule="evenodd" clip-rule="evenodd" d="M57.6375 44.3223C55.0334 44.9473 53.9224 40.9197 56.5264 40.2947C59.5471 39.5656 62.7067 40.4336 64.8246 42.7252C66.6648 44.6695 63.7136 47.6207 61.9081 45.6764C60.7623 44.4612 59.2346 43.9404 57.6375 44.3223ZM24.9655 42.9335C27.1876 40.9197 30.1736 40.1559 33.0554 41.0239C35.6247 41.7877 34.5136 45.8153 31.9443 45.0514C30.5208 44.6348 29.0278 44.8431 27.9167 45.8847C25.903 47.6555 22.9517 44.7042 24.9655 42.9335Z" fill="#240000"/>
<path d="M61.2134 43.5942C62.4633 44.9483 64.2688 43.9414 64.6507 42.5526C62.5328 40.3999 59.4427 39.6014 56.5261 40.2958C55.6581 40.5041 55.2068 41.0943 55.0679 41.7887C55.5192 42.2054 56.1789 42.4137 56.9428 42.2401C58.5399 41.8582 60.0676 42.379 61.2134 43.5942Z" fill="#560000"/>
<path d="M33.7495 41.4066C33.5759 41.233 33.3329 41.1289 33.0551 41.0247C30.1733 40.1567 27.1874 40.9206 24.9652 42.9343C24.6528 43.1774 24.4792 43.4899 24.375 43.7676C25.1389 44.4273 26.2846 44.6357 27.2221 43.8024C28.3331 42.7607 29.8261 42.5524 31.2497 42.9691C32.6038 43.3857 33.5412 42.4483 33.7495 41.4066Z" fill="#560000"/>
<path d="M75.6228 46.0928C75.1714 45.5373 74.477 45.4331 73.8173 45.6762C72.9493 46.0234 72.6368 46.9608 72.4979 47.8289C72.3591 48.4191 72.2896 49.2524 72.8104 49.7038C73.1229 49.9468 73.4007 49.9121 73.7479 49.9468C74.0951 49.9468 74.4076 49.9121 74.7201 50.1204C75.3798 50.5023 75.3103 51.8911 74.2687 51.5092C73.6437 51.2662 73.3659 52.2731 73.9909 52.5161C75.4145 53.0369 76.7686 51.4398 76.1089 50.0857C75.7617 49.426 75.0673 48.9746 74.3034 48.9052C73.7132 48.8357 73.4007 49.0441 73.4701 48.2455C73.4701 47.7594 74.0604 45.8498 74.8937 46.822C75.3103 47.3428 76.0394 46.5789 75.6228 46.0928Z" fill="#B22A00"/>
<path d="M16.1464 46.3018C17.1186 45.9546 18.0561 47.517 17.6741 48.2809C17.3964 48.8711 16.9797 48.5934 16.4937 48.7323C16.077 48.8711 15.6951 49.1142 15.5215 49.5656C14.966 51.1627 16.7714 51.9613 17.8477 52.5515C18.4033 52.8987 18.9241 51.996 18.3686 51.6835C18.1255 51.5446 17.8825 51.4057 17.6394 51.2669C17.0839 50.9544 16.5631 50.8155 16.7714 50.1558C17.0145 49.4961 17.3269 49.8433 17.8825 49.6697C18.5422 49.4614 18.7158 48.9059 18.7158 48.2809C18.7158 46.7185 17.7436 44.6005 15.8687 45.2949C15.2437 45.538 15.5215 46.5449 16.1464 46.3018Z" fill="#B22A00"/>
<path d="M39.7564 80.8835C39.4092 80.6058 33.8539 83.557 33.1595 85.3277C32.4651 87.1332 39.8606 91.751 39.8606 91.751L45.3812 85.5361L51.8739 91.6469C51.8739 91.6469 57.1514 86.0569 57.2903 84.6333C57.4292 83.2098 51.11 80.9877 51.11 80.9877L45.4159 85.05C45.4159 85.05 41.8049 82.6195 39.7564 80.8835Z" fill="#6EBCDA"/>
<path fill-rule="evenodd" clip-rule="evenodd" d="M73.9909 36.5796C74.3381 37.1004 74.3728 37.7601 74.3034 38.385C74.2687 38.9058 74.1992 39.4614 73.8867 39.9127C73.6437 40.2947 73.1576 40.5724 72.6715 40.503C73.7478 40.8155 74.1645 42.3432 73.5743 43.3153C73.1576 44.0097 72.4285 44.4264 71.6299 44.6347C71.6299 45.1902 71.6299 45.7226 71.6299 46.2319L69.8592 48.9401L68.6787 35.7463C67.0815 37.5865 64.3039 36.1976 64.3039 36.1976C64.6511 36.3712 58.7486 39.1489 58.0542 39.253C56.1098 39.5655 53.9919 39.1836 52.5684 37.8295C51.3531 39.3225 49.3394 40.1558 47.4297 39.9822C45.4854 39.7739 43.7146 38.5586 42.8119 36.8573C41.0064 38.8017 38.3677 39.9822 35.6942 40.0169C32.3263 40.0169 29.8612 36.8573 26.8752 37.4129C26.3544 37.517 21.4588 38.4545 21.0422 36.9268L22.0491 42.3084C21.7018 43.0376 21.181 43.8709 20.5214 44.3222L20.313 47.7596L19.3061 46.1277C19.3061 46.1277 19.3061 45.5722 19.3061 44.6694C19.2598 44.6694 19.202 44.6579 19.1325 44.6347C18.6117 44.5305 18.1951 44.1139 17.8479 43.6973C17.084 42.7945 16.4938 41.6488 16.3549 40.4335C16.2507 39.2183 16.6327 37.9337 17.5007 37.1004C15.5563 37.1004 13.8203 35.156 14.0633 33.2117C14.2022 32.0659 14.8966 31.0937 15.6605 30.2257C16.3549 29.4387 17.1303 28.7327 17.9868 28.1078C20.5908 26.1287 27.6391 27.5175 30.625 27.5175C34.398 27.5175 38.1709 27.5175 41.9439 27.5175C43.1012 27.3786 44.2702 27.2976 45.4507 27.2745C46.6543 27.2976 47.8348 27.3786 48.9921 27.5175C52.8345 27.5175 56.6769 27.5175 60.5193 27.5175C62.9151 27.5175 67.4287 26.9273 70.7966 27.6911L70.7619 27.5175C71.1091 27.5175 71.2827 27.5175 71.2827 27.5175C71.2827 27.5175 71.2827 27.6217 71.2827 27.83C73.1576 28.3855 74.6159 29.4271 74.9978 31.4062C75.345 33.2464 74.3034 35.2602 72.6021 36.024C73.0882 35.8851 73.6784 36.1282 73.9909 36.5796ZM21.0074 36.8226C21.0074 36.7763 21.0074 36.7184 21.0074 36.649C21.0074 36.6837 21.0074 36.7879 21.0074 36.7879V36.8226ZM71.6993 43.0028L71.5952 41.371C71.5952 41.9497 71.5952 42.5283 71.5952 43.107C71.6183 43.0839 71.653 43.0491 71.6993 43.0028Z" fill="#560000"/>
<path d="M16.9798 26.407C16.9798 26.407 16.7368 3.24847 44.7909 3.07486C74.6853 2.86654 71.8382 22.7961 72.984 26.7542C72.984 26.7542 53.4363 33.2122 46.6658 33.4206C39.062 33.6289 17.0145 27.8306 16.9798 26.407Z" fill="#ECC933"/>
<path d="M46.666 33.4194C53.4365 33.2111 72.9841 26.7531 72.9841 26.7531C72.1856 24.0796 73.2619 14.0454 64.6512 7.93457C64.8943 12.1357 63.679 16.8577 58.957 21.0242C48.2979 30.5029 23.6463 23.4894 17.5355 22.1353C16.98 24.6699 16.98 26.4059 16.98 26.4059C17.0147 27.8294 39.0622 33.6277 46.666 33.4194Z" fill="#FF9A3E"/>
<path d="M16.598 24.74C16.598 24.74 14.3064 26.8232 15.2091 28.9065C16.1466 30.9897 30.1737 37.5866 44.3743 37.9338C59.2 38.281 74.477 30.2953 74.477 30.2953C74.477 30.2953 74.9284 24.0456 72.8451 24.497C72.8451 24.497 54.3391 28.9065 46.4576 29.1495C38.6107 29.3578 16.598 24.74 16.598 24.74Z" fill="#FF793E"/>
<path d="M73.088 24.498C73.0185 24.498 72.9491 24.498 72.8449 24.498C72.8449 24.498 54.3389 28.9076 46.4574 29.1506C38.6105 29.3589 16.5977 24.7411 16.5977 24.7411C16.5977 24.7411 15.695 25.5744 15.2437 26.6854C19.3407 29.4284 31.0762 34.0809 42.9506 34.3587C57.7763 34.7059 73.0533 26.7202 73.0533 26.7202C73.0533 26.7202 73.1227 25.6785 73.088 24.498Z" fill="#ECC933"/>
<path d="M61.9774 86.5433C60.959 85.6637 59.8826 84.8651 58.7484 84.1475V93.7304H31.8748V84.0781C30.7406 84.7957 29.6642 85.5827 28.6458 86.4391V98.6954C34.0621 100.952 39.9646 102.202 46.1796 102.202C51.7349 102.202 57.0471 101.195 61.9774 99.3898V86.5433Z" fill="#ECC933"/>
<path d="M61.9776 96.2648C61.9776 97.0286 61.3526 97.6536 60.5888 97.6536C59.8249 97.6536 59.2 97.0286 59.2 96.2648C59.2 95.5009 59.8249 94.876 60.5888 94.876C61.3526 94.876 61.9776 95.5009 61.9776 96.2648Z" fill="#CF0000"/>
<path d="M32.118 96.0216C32.118 96.7855 31.493 97.4105 30.7292 97.4105C29.9653 97.4105 29.3403 96.7855 29.3403 96.0216C29.3403 95.2578 29.9653 94.6328 30.7292 94.6328C31.493 94.6328 32.118 95.2578 32.118 96.0216Z" fill="#CF0000"/>
<path d="M34.1665 63.8005C35.9025 67.0295 40.6592 67.585 43.9577 67.7586C48.1588 67.9669 52.1864 66.6476 54.3044 62.8283C54.6168 62.2381 53.7141 61.7172 53.4016 62.3075C51.4573 65.8143 47.7422 66.9253 43.9577 66.717C41.1106 66.5434 36.5622 66.0573 35.0692 63.2797C34.722 62.6894 33.8193 63.2102 34.1665 63.8005Z" fill="#B22A00"/>
<path d="M52.9848 61.9951C53.7834 62.2728 54.3737 62.8978 54.6167 63.6964C54.7903 64.3561 55.7972 64.0783 55.6236 63.4186C55.2764 62.2728 54.4084 61.4048 53.2626 60.9882C52.6377 60.7798 52.3599 61.7867 52.9848 61.9951Z" fill="#B22A00"/>
<path d="M33.6109 64.4612C33.8539 63.8016 34.5136 63.3155 35.2427 63.2807C35.9024 63.246 35.9024 62.2044 35.2427 62.2391C34.0275 62.3086 33.0206 63.0724 32.604 64.2182C32.3609 64.8432 33.3678 65.0862 33.6109 64.4612Z" fill="#B22A00"/>
<path d="M34.7914 67.2033C34.8955 68.1755 35.4511 69.0088 36.7704 69.2171C37.8468 69.4254 39.0273 68.8352 39.5481 67.863C39.8953 68.6268 40.7633 68.974 41.5271 69.2171C42.6382 69.5296 43.8187 69.7379 44.9297 69.4601C46.0408 69.1824 47.0824 68.4185 47.3949 67.3074C48.1935 68.4532 49.7559 68.8004 51.1447 69.0435C52.0822 69.1824 53.8182 68.5574 54.0612 67.5505C54.3043 66.5089 53.7488 65.259 53.2627 64.3909C51.7002 61.6827 48.3324 61.1272 45.4853 61.3008C43.0201 61.4397 39.8606 60.5022 37.569 61.8216C36.1455 62.6202 34.6178 65.2937 34.7914 67.2033Z" fill="#240000"/>
<path d="M53.1586 65.4673C53.2281 65.0506 53.1934 64.5645 53.0892 64.1132C51.4921 61.648 48.2283 61.1619 45.4854 61.3008C43.0203 61.4397 39.8607 60.5022 37.5691 61.8216C36.2498 62.5855 34.8609 64.877 34.7915 66.7519C35.0693 66.9255 35.4165 67.0644 35.8331 67.1338C36.9442 67.3422 38.1247 66.7519 38.6455 65.7798C38.958 66.5436 39.826 66.8908 40.6245 67.1338C41.7009 67.4463 42.8814 67.6547 43.9924 67.3769C45.1035 67.0991 46.1451 66.3353 46.4576 65.2242C47.2909 66.37 48.8186 66.7172 50.2421 66.9602C51.1796 67.0991 52.9156 66.4742 53.1586 65.4673Z" fill="#560000"/>
<g style="mix-blend-mode:overlay">
<path d="M20.8335 28.2469C25.9374 31.094 31.5969 32.1703 37.3257 32.9342C43.5407 33.7328 49.7209 33.9758 55.7276 32.1009C57.0122 31.6843 56.4567 29.6705 55.1721 30.0871C49.721 31.7884 44.1657 31.6843 38.5409 30.9899C32.7773 30.2954 27.0137 29.3233 21.8751 26.4415C20.6946 25.7818 19.653 27.5872 20.8335 28.2469Z" fill="#FFD23E"/>
</g>
<g style="mix-blend-mode:overlay">
<path d="M22.1184 19.5681C28.2986 9.36023 40.0689 4.56881 51.6655 7.55477C52.9502 7.86726 53.5057 5.85347 52.2211 5.54099C39.7217 2.34671 26.9793 7.48533 20.3129 18.4917C19.6185 19.6375 21.424 20.7138 22.1184 19.5681Z" fill="#FFD23E"/>
</g>
<path fill-rule="evenodd" clip-rule="evenodd" d="M32.4304 20.6089C30.7291 20.0881 29.9305 15.4703 29.7222 14.1162C29.5138 12.7274 29.0972 9.01229 29.8263 7.48459C30.1735 7.27627 30.4513 6.92906 30.6596 6.44298C30.6596 6.39668 30.6712 6.3504 30.6943 6.30411C31.0068 5.4361 30.4513 4.46392 29.7222 3.97783C29.6759 3.93154 29.6411 3.89682 29.618 3.87367C28.9236 3.42231 27.6389 3.52647 27.0834 4.22088C23.3683 8.80398 25.0696 22.6575 31.3193 24.6365C33.8539 25.4698 34.965 21.4422 32.4304 20.6089ZM60.1373 14.3245C59.929 15.7134 59.061 20.3312 57.4291 20.852C54.8945 21.6506 55.9708 25.6781 58.5402 24.8796C64.7898 22.9005 66.4564 9.04702 62.7761 4.42919C62.2205 3.7695 60.9359 3.63061 60.2415 4.1167C60.1952 4.13985 60.1605 4.163 60.1373 4.18615C59.4082 4.67223 58.8527 5.6444 59.1651 6.54713C59.1883 6.59343 59.1999 6.62817 59.1999 6.65131C59.3735 7.1374 59.686 7.51932 60.0332 7.72764C60.797 9.29006 60.3456 12.9704 60.1373 14.3245ZM42.9854 2.97093C42.9854 10.0076 42.9854 17.0327 42.9854 24.0463C42.9854 26.7197 47.1518 26.7197 47.1518 24.0463C47.1518 17.0327 47.1518 10.0076 47.1518 2.97093C47.1518 0.297451 42.9854 0.297451 42.9854 2.97093Z" fill="#FF793E"/>
<path d="M31.25 24.6019C32.7777 23.9769 33.0902 21.2687 31.0417 20.6091C29.3404 20.0882 28.5418 15.4704 28.3335 14.1163C28.1252 12.7275 27.7085 9.01242 28.4376 7.48472C28.7848 7.27639 29.0626 6.92919 29.2709 6.4431C29.2709 6.39681 29.2825 6.35053 29.3056 6.30423C29.6181 5.43622 29.0626 4.46404 28.3335 3.97795C28.2872 3.93166 28.2525 3.89694 28.2293 3.8738C28.1136 3.80436 27.9863 3.74649 27.8474 3.7002C27.5349 3.80436 27.2571 3.97796 27.0835 4.221C23.4032 8.80411 25.0697 22.5534 31.25 24.6019Z" fill="#FF9A3E"/>
<path d="M61.3871 4.42945C61.2134 4.22113 60.901 4.04752 60.6232 3.94336C60.4843 3.98965 60.357 4.04752 60.2413 4.11696C60.195 4.14011 60.1603 4.16326 60.1371 4.18641C59.408 4.67249 58.8525 5.64466 59.165 6.5474C59.1881 6.59369 59.1997 6.62843 59.1997 6.65157C59.3733 7.13766 59.6858 7.48486 60.033 7.7279C60.7968 9.29032 60.3454 12.9707 60.1371 14.3248C59.9288 15.7136 59.0608 20.3314 57.4289 20.8522C55.3804 21.5119 55.6929 24.2201 57.2206 24.8451C63.4008 22.7966 65.0674 9.01256 61.3871 4.42945Z" fill="#FF9A3E"/>
<path d="M44.3742 1.06152C43.6103 1.30457 42.9854 1.92954 42.9854 2.97115C42.9854 10.0078 42.9854 17.033 42.9854 24.0465C42.9854 25.0881 43.6103 25.7131 44.3742 25.9561C45.138 25.7131 45.763 25.0881 45.763 24.0465C45.763 17.033 45.763 10.0078 45.763 2.97115C45.763 1.92954 45.138 1.30457 44.3742 1.06152Z" fill="#FF9A3E"/>
</svg>
