<svg width="91" height="90" viewBox="0 0 91 90" fill="none" xmlns="http://www.w3.org/2000/svg">
<path d="M90.457 45.8667C90.457 70.1642 70.3131 89.8495 45.4837 89.8495C20.62 89.8495 0.476074 70.1642 0.476074 45.8667C0.476074 21.5691 20.62 1.88379 45.4837 1.88379C70.3131 1.88379 90.457 21.5691 90.457 45.8667Z" fill="#90DDF4"/>
<path d="M75.6824 19.2968C75.6824 19.2968 83.7194 22.4719 84.2325 29.4904C84.7455 36.5089 76.8794 46.0341 81.1544 52.2171C81.1544 52.2171 71.2363 50.546 68.8423 40.3524C66.4483 30.1588 66.2773 19.1297 75.6824 19.2968Z" fill="#FFC23E"/>
<path d="M78.0762 26.649C77.8368 23.4405 76.0242 21.0341 74.1432 19.3965C66.3113 20.3991 66.5849 30.7598 68.8421 40.3518C69.8681 44.7301 72.2963 47.5375 74.7246 49.3088C74.8956 49.3423 74.9982 49.3757 74.9982 49.3757C70.7231 43.1927 78.5892 33.6675 78.0762 26.649Z" fill="#FF9A3E"/>
<path d="M19.0126 25.2461C19.0126 25.2461 11.0439 19.8987 11.6253 17.6928C12.1725 15.4536 25.408 2.98732 27.802 2.08493C30.1961 1.18255 53.4523 -0.15431 64.499 1.98467C64.499 1.98467 76.7085 13.5486 78.4185 16.7905C80.1285 20.0323 70.313 23.7087 70.313 23.7087L19.0126 25.2461Z" fill="#1E2C35"/>
<path d="M45.313 89.9162C53.4526 89.9162 61.1135 87.8106 67.6799 84.1008C63.9179 75.1438 54.9232 68.8271 44.3895 68.8271C34.1979 68.8271 25.4426 74.7428 21.4753 83.2319C28.3838 87.4764 36.5577 89.9162 45.313 89.9162Z" fill="#313F49"/>
<path d="M19.6625 33.7352C19.6625 33.7352 15.0455 30.0588 13.3355 35.9076C11.6255 41.7564 18.9785 46.7696 20.3466 46.4354L19.6625 33.7352Z" fill="#F9AB64"/>
<path d="M70.0055 33.7352C70.0055 33.7352 74.6226 30.0588 76.3326 35.9076C78.0426 41.7564 70.6895 46.7696 69.3215 46.4354L70.0055 33.7352Z" fill="#F9AB64"/>
<path d="M46.5098 73.9742H42.6452C41.1404 73.9742 39.9092 72.771 39.9092 71.3005V63.7138C39.9092 62.2432 41.1404 61.04 42.6452 61.04H46.5098C48.0147 61.04 49.2459 62.2432 49.2459 63.7138V71.3005C49.2459 72.771 48.0147 73.9742 46.5098 73.9742Z" fill="#FFD68F"/>
<path opacity="0.3" d="M46.5098 61.04H42.6452C41.1404 61.04 39.9092 62.2432 39.9092 63.7138V66.588C41.585 66.8888 43.295 67.0559 45.0392 67.0559C46.4756 67.0559 47.8779 66.9557 49.2459 66.7551V63.7138C49.2459 62.2432 48.0147 61.04 46.5098 61.04Z" fill="#FE2F00"/>
<path d="M70.0052 16.6898H48.0486C46.9314 16.5561 45.78 16.4893 44.5944 16.4893C43.4316 16.4893 42.2802 16.5561 41.1402 16.6898L19.936 17.1243L18.8416 36.7428H19.0126C18.9442 37.0993 18.8872 37.4446 18.8416 37.7788C18.8416 37.7788 18.7048 42.5915 18.8416 44.1958C19.6624 56.2944 31.3931 65.4854 44.5944 65.4854C57.0775 65.4854 68.774 57.3973 70.0052 46.1008C70.826 38.7815 70.0052 16.6898 70.0052 16.6898Z" fill="#FFD68F"/>
<path opacity="0.3" d="M63.1994 50.0442C63.1994 51.9492 60.7712 53.4866 57.7958 53.4866C54.7861 53.4866 52.3579 51.9492 52.3579 50.0442C52.3579 48.1392 54.7861 46.5684 57.7958 46.5684C60.7712 46.5684 63.1994 48.1392 63.1994 50.0442Z" fill="#FE2F00"/>
<path opacity="0.3" d="M34.8134 50.0442C34.8134 51.9492 32.3852 53.4866 29.4098 53.4866C26.4002 53.4866 23.9719 51.9492 23.9719 50.0442C23.9719 48.1392 26.4002 46.5684 29.4098 46.5684C32.3852 46.5684 34.8134 48.1392 34.8134 50.0442Z" fill="#FE2F00"/>
<path d="M60.2241 41.5884C60.2241 43.3931 59.3349 44.8303 58.2404 44.8303C57.146 44.8303 56.2568 43.3931 56.2568 41.5884C56.2568 39.817 57.146 38.3799 58.2404 38.3799C59.3349 38.3799 60.2241 39.817 60.2241 41.5884Z" fill="#560000"/>
<path d="M31.2907 41.5884C31.2907 43.3931 30.4015 44.8303 29.2729 44.8303C28.1785 44.8303 27.2893 43.3931 27.2893 41.5884C27.2893 39.817 28.1785 38.3799 29.2729 38.3799C30.4015 38.3799 31.2907 39.817 31.2907 41.5884Z" fill="#560000"/>
<path d="M74.3149 35.9073C73.8702 35.4059 73.1862 35.2722 72.5364 35.5062C71.6814 35.8738 71.3736 36.7428 71.2026 37.5783C71.1 38.1799 70.9974 38.9486 71.5446 39.3831C71.8182 39.6171 72.126 39.617 72.468 39.617C72.81 39.617 73.1178 39.617 73.4257 39.7842C74.0755 40.1518 74.007 41.4887 72.981 41.121C72.3654 40.8871 72.0918 41.8563 72.7074 42.0903C74.1096 42.5916 75.4093 41.0542 74.7595 39.7507C74.4516 39.1157 73.7335 38.7147 73.0152 38.6144C72.4338 38.5476 72.126 38.7481 72.1602 37.9794C72.1944 37.5449 72.7758 35.6733 73.5624 36.6091C74.007 37.1104 74.7253 36.4086 74.3149 35.9073Z" fill="#CC5200"/>
<path d="M15.7296 36.142C16.653 35.7743 17.5764 37.2783 17.2344 38.0136C16.9608 38.5818 16.5162 38.3478 16.0716 38.4481C15.627 38.5818 15.285 38.8491 15.114 39.2836C14.5668 40.821 16.3452 41.5563 17.3712 42.1579C17.9526 42.4587 18.4656 41.6231 17.8842 41.2889C17.679 41.1552 17.4396 41.055 17.2002 40.9213C16.653 40.6205 16.14 40.4534 16.3452 39.8184C16.5504 39.1833 16.8582 39.5176 17.4396 39.3505C18.0894 39.1499 18.2604 38.6486 18.2604 38.0136C18.2262 36.543 17.3028 34.5043 15.456 35.1728C14.8404 35.3733 15.0798 36.3425 15.7296 36.142Z" fill="#CC5200"/>
<path d="M59.1982 42.7587C60.19 43.026 61.2502 42.7252 61.9685 41.99C62.4131 41.522 61.6948 40.8202 61.2502 41.2881C60.7714 41.7894 60.1216 41.9565 59.4718 41.7894C58.822 41.6223 58.5484 42.5915 59.1982 42.7587Z" fill="#560000"/>
<path d="M59.0272 44.0613C59.9506 44.5961 61.045 44.5961 61.9342 44.0613C62.4814 43.7271 61.9684 42.8581 61.4212 43.1924C60.8398 43.5266 60.1558 43.5266 59.5744 43.1924C58.993 42.8916 58.48 43.7605 59.0272 44.0613Z" fill="#560000"/>
<path d="M28.0415 42.6918C27.0155 42.9592 25.9553 42.6918 25.2371 41.9565C24.7925 41.4552 25.5107 40.7534 25.9553 41.2213C26.4341 41.7226 27.0839 41.9231 27.7679 41.7226C28.3835 41.5555 28.6571 42.5247 28.0415 42.6918Z" fill="#560000"/>
<path d="M28.1784 44.0274C27.2892 44.5287 26.1948 44.5287 25.3056 43.9939C24.7242 43.6597 25.2372 42.7908 25.8186 43.125C26.4 43.4926 27.084 43.4926 27.6654 43.1584C28.2468 42.8242 28.7598 43.6931 28.1784 44.0274Z" fill="#560000"/>
<path d="M41.5509 46.2009C41.4141 47.638 39.9093 48.6741 38.4729 48.3399C38.0967 48.273 37.7204 48.5738 37.823 48.9749C38.4386 50.9467 40.5591 52.1165 42.6453 51.6486C43.2609 51.5149 42.9873 50.5457 42.3717 50.6794C40.8327 51.047 39.2595 50.1446 38.8149 48.7075C38.6097 48.908 38.4044 49.1085 38.1992 49.3091C40.3197 49.8104 42.3717 48.3064 42.5769 46.2009C42.6453 45.5659 41.6193 45.5659 41.5509 46.2009Z" fill="#CC5200"/>
<path d="M44.3554 50.0447C44.6632 49.9779 44.971 50.0113 45.2446 50.2118C45.7234 50.6463 46.4758 49.9444 45.9628 49.5099C45.4156 49.0755 44.7658 48.9084 44.0818 49.0755C43.432 49.2426 43.7056 50.2118 44.3554 50.0447Z" fill="#CC5200"/>
<path d="M37.5151 54.0218C39.4303 51.9831 42.3031 53.7878 42.3031 53.7878C45.3128 52.1836 49.3142 54.991 49.3142 54.991L49.4168 55.7597C43.124 66.6217 35.5999 56.0605 37.5151 54.0218Z" fill="#FF5732"/>
<path d="M37.2075 55.1918C42.2692 58.4337 47.2966 56.1275 49.2802 54.9912H49.3144L49.417 55.7599C43.945 65.2182 37.5495 58.4671 37.2075 55.1918Z" fill="#FF6D59"/>
<path d="M57.6934 33.0327C59.2666 32.665 60.7714 33.1998 61.8316 34.3695C62.6866 35.3388 64.123 33.9016 63.268 32.9324C61.729 31.2613 59.4034 30.5595 57.1462 31.0942C55.8466 31.3616 56.3938 33.3 57.6934 33.0327Z" fill="#FFC23E"/>
<path d="M31.3592 31.0942C29.1019 30.5595 26.7763 31.2613 25.2373 32.9324C24.3481 33.9016 25.7845 35.3388 26.6737 34.3695C27.7339 33.1998 29.2387 32.665 30.812 33.0327C32.0774 33.3 32.6246 31.3616 31.3592 31.0942Z" fill="#FFC23E"/>
<path d="M36.0106 54.9584C38.644 56.7631 40.0462 57.3647 43.3294 57.1976C46.0655 57.0305 48.4937 56.2952 50.5799 54.5573C51.0929 54.1228 50.3747 53.421 49.8617 53.8555C47.7071 55.6602 45.1421 56.195 42.3376 56.2284C39.8068 56.2618 38.5072 55.4263 36.5236 54.1228C36.0106 53.7552 35.4976 54.6242 36.0106 54.9584Z" fill="#FF3332"/>
<path d="M49.793 53.6204C50.2376 53.9546 50.5112 54.3891 50.648 54.9238C50.7848 55.5588 51.7767 55.2915 51.6398 54.6565C51.4346 53.8543 50.9558 53.2193 50.306 52.7514C50.1008 52.5843 49.7246 52.718 49.622 52.952C49.451 53.1859 49.5536 53.4533 49.793 53.6204Z" fill="#CC5200"/>
<path d="M35.7027 53.2516C35.1213 53.8532 34.8135 54.6219 34.8135 55.4574C34.8135 56.0924 35.8395 56.0924 35.8395 55.4574C35.8395 54.8893 36.0447 54.3879 36.4551 53.9869C36.8997 53.519 36.1815 52.8171 35.7027 53.2516Z" fill="#CC5200"/>
<path opacity="0.3" d="M38.7463 49.4428C38.6779 48.6407 41.4824 49.9775 42.5084 49.6433C43.5344 49.3091 46.373 48.2062 46.9544 49.8773C47.5358 51.5484 39.191 54.3224 38.7463 49.4428Z" fill="#FE2F00"/>
<path opacity="0.3" d="M70.4499 21.0337C64.6701 20.7663 23.9033 18.9949 19.1495 22.3037C19.0127 22.3705 18.8759 22.7382 18.6707 23.3063V37.2431C19.0469 38.6134 19.2521 39.3487 19.2521 39.3487C19.2521 39.3487 19.3547 29.222 20.3807 28.2193C21.4067 27.2167 27.1181 28.3196 30.6408 27.9853C30.6408 27.9853 28.4861 30.5588 26.6735 30.4251C24.8267 30.3249 42.6109 35.2378 50.3743 31.0936C58.1378 26.9827 68.6031 22.7381 68.6031 22.7381C68.6031 22.7381 66.7905 26.8824 67.1325 27.7514C67.4745 28.6538 69.8685 39.2484 70.3131 38.7805C70.3587 38.7582 70.4043 38.7025 70.4499 38.6134V21.0337Z" fill="#FE2F00"/>
<path d="M19.1497 21.1347C18.5683 21.5357 16.8583 28.8217 17.7817 32.498C18.6709 36.1744 19.2523 38.1797 19.2523 38.1797C19.2523 38.1797 19.3549 28.053 20.3809 27.0503C21.4069 26.0477 27.1184 27.1506 30.641 26.8164C30.641 26.8164 28.4864 29.3898 26.6738 29.2561C24.827 29.1559 42.6111 34.0689 50.3746 29.9246C58.1381 25.8137 68.6034 21.5692 68.6034 21.5692C68.6034 21.5692 66.7907 25.7134 67.1327 26.5824C67.4748 27.4848 69.8688 38.0794 70.3134 37.6115C70.7922 37.1771 71.9208 32.8323 72.3654 31.7293C72.8442 30.593 71.1342 19.8981 71.1342 19.8981C71.1342 19.8981 24.2798 17.5586 19.1497 21.1347Z" fill="#FFC23E"/>
<path d="M42.5083 77.9519C42.5083 77.9519 42.5083 82.9651 45.0733 82.4638C47.6383 81.9625 47.1253 76.7821 47.1253 76.7821L44.7313 74.1084L42.5083 77.9519Z" fill="#240000"/>
<path d="M40.2166 69.2617C39.5326 69.4957 34.0605 73.9407 34.0605 73.9407C34.0605 73.9407 38.1646 79.7227 41.14 81.5275L44.3206 75.2776L48.2195 81.2935C48.2195 81.2935 55.0595 76.18 55.0595 73.9407C55.0595 71.7015 48.9035 69.2617 48.9035 69.2617C48.9035 69.2617 50.4767 73.5063 43.876 73.0384C38.0278 72.6707 40.2166 69.2617 40.2166 69.2617Z" fill="#1E2C35"/>
<path d="M46.5436 89.9163C46.9198 87.8441 47.7749 81.7614 44.218 80.7922C43.7392 80.6585 42.166 86.8081 43.363 89.6489C43.3972 89.7492 43.4314 89.816 43.4656 89.8829C44.0812 89.9052 44.6968 89.9163 45.3124 89.9163C45.7228 89.9163 46.1332 89.9163 46.5436 89.9163Z" fill="#240000"/>
<path d="M59.8819 82.464C59.8819 84.4359 58.2061 86.0736 56.1882 86.0736C54.1704 86.0401 52.5288 84.4359 52.5288 82.464C52.5288 80.4921 54.1704 78.8545 56.1882 78.8545C58.2061 78.8879 59.8819 80.4921 59.8819 82.464Z" fill="#FFC23E"/>
<path d="M58.2403 85.2044L56.2224 84.2017L54.2046 85.2378L54.5808 83.0654L52.905 81.528L55.1622 81.1938L56.1198 79.1885L57.1801 81.1603L59.4373 81.4277L57.8299 82.9985L58.2403 85.2044Z" fill="#FF9A3E"/>
<path d="M19.252 18.6282L18.739 15.286C18.739 15.286 32.9321 13.7821 43.8762 13.4479C54.8203 13.1136 70.8945 15.7874 70.8945 15.7874L70.7235 18.9624C70.7235 18.9624 58.2404 26.0144 45.2442 26.3152C31.0511 26.6494 19.252 18.6282 19.252 18.6282Z" fill="#313F49"/>
<path d="M18.9099 17.9601C18.9099 17.9601 18.7389 29.3234 41.4821 30.6603C64.2253 31.9972 71.5784 19.7983 71.4074 17.793C71.4074 17.793 60.5659 21.7033 43.6368 22.0375C26.7076 22.3717 18.9099 17.9601 18.9099 17.9601Z" fill="#272525"/>
<path d="M41.3794 3.35475C41.7556 3.15422 49.8269 3.35475 49.8269 3.35475L51.7079 9.03643L45.5861 11.7102L39.7036 9.30381L41.3794 3.35475Z" fill="#FFC23E"/>
<path d="M45.4151 3.75586L46.4754 5.828L48.8352 6.16222L47.1252 7.79988L47.5356 10.106L45.4151 9.03647L43.2947 10.106L43.7051 7.79988L41.9951 6.16222L44.3549 5.828L45.4151 3.75586Z" fill="#FF9A3E"/>
<path d="M75.7511 22.906C77.5295 24.1426 78.7607 25.8805 79.3763 27.9193C79.5815 28.5543 80.5733 28.2869 80.3681 27.6519C79.6841 25.3458 78.2819 23.4408 76.2641 22.0371C75.7511 21.6694 75.2381 22.5384 75.7511 22.906Z" fill="#FFD23E"/>
<path d="M74.3828 27.7517C75.0326 28.7543 75.5114 29.8238 75.8876 30.9602C76.0928 31.5618 77.0846 31.2944 76.8794 30.6928C76.4918 29.4673 75.956 28.3087 75.272 27.217C74.93 26.6822 74.0408 27.1835 74.3828 27.7517Z" fill="#FFD23E"/>
<path d="M79.7868 32.4986C80.2656 37.8795 75.3408 43.8954 78.795 48.9755C79.137 49.5102 80.0262 49.0089 79.6842 48.4742C76.4694 43.7617 81.2574 37.6121 80.8128 32.4986C80.7444 31.8636 79.7184 31.8302 79.7868 32.4986Z" fill="#FFD23E"/>
<path d="M74.5541 44.7646C74.2121 45.3662 74.2121 46.0346 74.5541 46.6362C74.8961 47.1709 75.7511 46.6696 75.4433 46.1014C75.2723 45.8341 75.2723 45.5333 75.4091 45.2659C75.7511 44.6977 74.8619 44.1964 74.5541 44.7646Z" fill="#FFD23E"/>
<path d="M69.5263 27.2857C69.7657 28.6226 70.2104 29.8592 70.7918 31.0958C71.0654 31.664 71.9546 31.1626 71.681 30.5945C71.1338 29.4247 70.7576 28.255 70.5182 27.0184C70.3814 26.3834 69.3895 26.6507 69.5263 27.2857Z" fill="#FFD23E"/>
<path d="M19.2863 23.675C18.8075 24.8114 18.5339 25.9477 18.3629 27.1509C18.2603 27.7859 19.2863 27.7859 19.3889 27.1509C19.5257 26.048 19.8335 24.9785 20.2781 23.9424C20.5175 23.3408 19.5257 23.0735 19.2863 23.675Z" fill="#FFD23E"/>
</svg>
