<svg width="35" height="64" viewBox="0 0 35 64" fill="none" xmlns="http://www.w3.org/2000/svg">
<path d="M31.6482 62.695H3.35166C1.81468 62.695 0.568726 61.4485 0.568726 59.9108V7.32179C0.568726 5.78412 1.81468 4.5376 3.35166 4.5376H31.6482C33.1852 4.5376 34.4311 5.78412 34.4311 7.32179V59.9108C34.4311 61.4485 33.1852 62.695 31.6482 62.695Z" fill="#EAEAEA"/>
<path d="M2.91441 60.9999C2.41022 60.9999 2 60.209 2 59.237V8.76279C2 7.79075 2.41022 7 2.91441 7H32.0856C32.5898 7 33 7.79075 33 8.76279V59.2371C33 60.2091 32.5898 61 32.0856 61L2.91441 60.9999Z" fill="#FFA6D6"/>
<path d="M31.6483 3.96877H24.7577V2.18613C24.7577 0.978777 23.7793 0 22.5725 0H12.4275C11.2207 0 10.2424 0.978777 10.2424 2.18613V3.96877H3.35173C1.5036 3.96877 0 5.47305 0 7.32203V59.911C0 61.7601 1.5036 63.2643 3.35173 63.2643H31.6483C33.4964 63.2643 35 61.76 35 59.911V7.32203C35 5.47299 33.4964 3.96877 31.6483 3.96877ZM33.8624 59.911C33.8624 61.1325 32.8691 62.1262 31.6482 62.1262H3.35173C2.13087 62.1262 1.13755 61.1325 1.13755 59.911V7.32203C1.13755 6.10061 2.13081 5.1069 3.35173 5.1069H31.6483C32.8691 5.1069 33.8624 6.10061 33.8624 7.32203L33.8624 59.911Z" fill="black"/>
<path d="M5.01363 58.2214C4.43673 58.2214 3.96912 57.7535 3.96912 57.1764V37.2388C3.96912 36.6617 4.4368 36.1938 5.01363 36.1938C5.59053 36.1938 6.05815 36.6617 6.05815 37.2388V57.1763C6.05821 57.7535 5.59053 58.2214 5.01363 58.2214Z" fill="#F9D775"/>
<path d="M29.9864 58.2214C29.4095 58.2214 28.9418 57.7535 28.9418 57.1764V37.2388C28.9418 36.6617 29.4095 36.1938 29.9863 36.1938C30.5632 36.1938 31.0308 36.6617 31.0308 37.2388V57.1763C31.0309 57.7535 30.5632 58.2214 29.9864 58.2214Z" fill="#CE9F55"/>
<path d="M11.3511 24.6925C13.3019 24.6925 14.8833 23.1104 14.8833 21.1588C14.8833 19.2071 13.3019 17.625 11.3511 17.625C9.40037 17.625 7.81897 19.2071 7.81897 21.1588C7.81897 23.1104 9.40037 24.6925 11.3511 24.6925Z" fill="black"/>
<path d="M10.087 20.671C10.486 20.671 10.8094 20.3474 10.8094 19.9483C10.8094 19.5492 10.486 19.2256 10.087 19.2256C9.68804 19.2256 9.36462 19.5492 9.36462 19.9483C9.36462 20.3474 9.68804 20.671 10.087 20.671Z" fill="white"/>
<path d="M11.1261 21.305C11.3009 21.305 11.4426 21.1633 11.4426 20.9884C11.4426 20.8136 11.3009 20.6719 11.1261 20.6719C10.9514 20.6719 10.8097 20.8136 10.8097 20.9884C10.8097 21.1633 10.9514 21.305 11.1261 21.305Z" fill="white"/>
<path d="M23.6489 24.6925C25.5996 24.6925 27.181 23.1104 27.181 21.1588C27.181 19.2071 25.5996 17.625 23.6489 17.625C21.6981 17.625 20.1167 19.2071 20.1167 21.1588C20.1167 23.1104 21.6981 24.6925 23.6489 24.6925Z" fill="black"/>
<path d="M22.3846 20.671C22.7836 20.671 23.107 20.3474 23.107 19.9483C23.107 19.5492 22.7836 19.2256 22.3846 19.2256C21.9857 19.2256 21.6622 19.5492 21.6622 19.9483C21.6622 20.3474 21.9857 20.671 22.3846 20.671Z" fill="white"/>
<path d="M23.4234 21.305C23.5981 21.305 23.7398 21.1633 23.7398 20.9884C23.7398 20.8136 23.5981 20.6719 23.4234 20.6719C23.2486 20.6719 23.1069 20.8136 23.1069 20.9884C23.1069 21.1633 23.2486 21.305 23.4234 21.305Z" fill="white"/>
<path d="M19.1604 27.8518L17 28.5L14.8396 27.8518C14.6302 27.8518 14 27.3028 14 27.0933C14 26.8838 14.6302 27.0931 14.8396 27.0931H19.1604C19.3698 27.0931 20.5 26.8836 20.5 27.0931C20.5 27.3026 19.3698 27.8518 19.1604 27.8518Z" fill="black"/>
</svg>
