<svg width="35" height="64" viewBox="0 0 35 64" fill="none" xmlns="http://www.w3.org/2000/svg">
<path d="M31.6481 62.695H3.35153C1.81456 62.695 0.568604 61.4485 0.568604 59.9108V7.32179C0.568604 5.78412 1.81456 4.5376 3.35153 4.5376H31.6481C33.185 4.5376 34.431 5.78412 34.431 7.32179V59.9108C34.431 61.4485 33.185 62.695 31.6481 62.695Z" fill="#EAEAEA"/>
<path d="M2.91441 60.9999C2.41022 60.9999 2 60.209 2 59.237V8.76279C2 7.79075 2.41022 7 2.91441 7H32.0856C32.5898 7 33 7.79075 33 8.76279V59.2371C33 60.2091 32.5898 61 32.0856 61L2.91441 60.9999Z" fill="#FFCE3B"/>
<path d="M31.6483 3.96877H24.7577V2.18613C24.7577 0.978777 23.7793 0 22.5725 0H12.4275C11.2207 0 10.2424 0.978777 10.2424 2.18613V3.96877H3.35173C1.5036 3.96877 0 5.47305 0 7.32203V59.911C0 61.7601 1.5036 63.2643 3.35173 63.2643H31.6483C33.4964 63.2643 35 61.76 35 59.911V7.32203C35 5.47299 33.4964 3.96877 31.6483 3.96877ZM33.8624 59.911C33.8624 61.1325 32.8691 62.1262 31.6482 62.1262H3.35173C2.13087 62.1262 1.13755 61.1325 1.13755 59.911V7.32203C1.13755 6.10061 2.13081 5.1069 3.35173 5.1069H31.6483C32.8691 5.1069 33.8624 6.10061 33.8624 7.32203L33.8624 59.911Z" fill="black"/>
<path d="M5.01351 58.2214C4.43661 58.2214 3.96899 57.7535 3.96899 57.1764V37.2388C3.96899 36.6617 4.43668 36.1938 5.01351 36.1938C5.59041 36.1938 6.05803 36.6617 6.05803 37.2388V57.1763C6.05809 57.7535 5.59041 58.2214 5.01351 58.2214Z" fill="#F9D775"/>
<path d="M29.9865 58.2214C29.4096 58.2214 28.9419 57.7535 28.9419 57.1764V37.2388C28.9419 36.6617 29.4096 36.1938 29.9864 36.1938C30.5633 36.1938 31.0309 36.6617 31.0309 37.2388V57.1763C31.031 57.7535 30.5634 58.2214 29.9865 58.2214Z" fill="#CE9F55"/>
<path d="M11.351 24.6925C13.3018 24.6925 14.8832 23.1104 14.8832 21.1588C14.8832 19.2071 13.3018 17.625 11.351 17.625C9.40025 17.625 7.81885 19.2071 7.81885 21.1588C7.81885 23.1104 9.40025 24.6925 11.351 24.6925Z" fill="black"/>
<path d="M10.0869 20.671C10.4858 20.671 10.8093 20.3474 10.8093 19.9483C10.8093 19.5492 10.4858 19.2256 10.0869 19.2256C9.68792 19.2256 9.3645 19.5492 9.3645 19.9483C9.3645 20.3474 9.68792 20.671 10.0869 20.671Z" fill="white"/>
<path d="M11.126 21.305C11.3008 21.305 11.4424 21.1633 11.4424 20.9884C11.4424 20.8136 11.3008 20.6719 11.126 20.6719C10.9512 20.6719 10.8096 20.8136 10.8096 20.9884C10.8096 21.1633 10.9512 21.305 11.126 21.305Z" fill="white"/>
<path d="M23.6489 24.6925C25.5996 24.6925 27.181 23.1104 27.181 21.1588C27.181 19.2071 25.5996 17.625 23.6489 17.625C21.6981 17.625 20.1167 19.2071 20.1167 21.1588C20.1167 23.1104 21.6981 24.6925 23.6489 24.6925Z" fill="black"/>
<path d="M22.3845 20.671C22.7834 20.671 23.1069 20.3474 23.1069 19.9483C23.1069 19.5492 22.7834 19.2256 22.3845 19.2256C21.9855 19.2256 21.6621 19.5492 21.6621 19.9483C21.6621 20.3474 21.9855 20.671 22.3845 20.671Z" fill="white"/>
<path d="M23.4234 21.305C23.5981 21.305 23.7398 21.1633 23.7398 20.9884C23.7398 20.8136 23.5981 20.6719 23.4234 20.6719C23.2486 20.6719 23.1069 20.8136 23.1069 20.9884C23.1069 21.1633 23.2486 21.305 23.4234 21.305Z" fill="white"/>
<path d="M19.1604 27.8518L17 28.5L14.8396 27.8518C14.6302 27.8518 14 27.3028 14 27.0933C14 26.8838 14.6302 27.0931 14.8396 27.0931H19.1604C19.3698 27.0931 20.5 26.8836 20.5 27.0931C20.5 27.3026 19.3698 27.8518 19.1604 27.8518Z" fill="black"/>
</svg>
