<svg width="19" height="31" viewBox="0 0 19 31" fill="none" xmlns="http://www.w3.org/2000/svg">
<path fill-rule="evenodd" clip-rule="evenodd" d="M13.1455 28.9242C13.1436 29.6803 12.7445 30.4645 12.0178 30.6689C10.2989 31.111 8.50415 31.111 6.78515 30.6689C6.05844 30.4645 5.6537 29.714 5.65186 28.9578C5.65186 28.7227 5.7048 27.7391 5.7048 27.504C5.73167 27.4541 6.07709 26.7356 6.80939 26.7173C8.53733 26.7173 10.2656 26.7173 11.9935 26.7173C12.7257 26.7356 13.1454 27.2653 13.1454 27.5604C13.1455 27.7954 13.1455 28.6896 13.1455 28.9242Z" fill="#004587"/>
<path d="M17.8381 3.93484C17.4845 3.05333 16.6903 2.43111 15.7726 2.4248C11.5909 2.4248 7.40907 2.4248 3.22727 2.4248C2.30925 2.43111 1.51542 3.0534 1.16178 3.93484H0.965576V4.95805C0.965576 5.57878 0.965576 6.66395 0.965576 7.2851L1.68774 8.59858L0.965576 8.92273C0.965576 14.8597 0.965576 19.091 0.965576 25.0279C0.966285 26.4104 1.94739 27.96 3.17921 28.3196C7.3177 29.5073 11.6822 29.5073 15.8207 28.3196C17.0521 27.96 18.0336 26.4101 18.0344 25.0279C18.0344 19.0773 18.0344 14.8734 18.0344 8.92273L17.3633 8.32057L18.0344 7.2851C18.0344 6.66402 18.0344 5.57886 18.0344 4.95805V3.93484H17.8381Z" fill="#FFD548"/>
<path fill-rule="evenodd" clip-rule="evenodd" d="M0.965576 8.92181C6.49778 10.9258 12.5021 10.9258 18.0344 8.92181C18.0344 8.37565 18.0344 7.82991 18.0344 7.28418C12.5022 9.28849 6.49778 9.28849 0.965576 7.28418C0.965576 7.82991 0.965576 8.37565 0.965576 8.92181Z" fill="#FF854A"/>
<path fill-rule="evenodd" clip-rule="evenodd" d="M6.43298 19.3746C6.41363 19.9423 5.73428 20.3806 4.91543 20.3534C4.09658 20.3254 3.44863 19.8427 3.4677 19.2742C3.48712 18.706 4.16605 18.2677 4.98525 18.2957C5.80368 18.323 6.45198 18.8061 6.43298 19.3746Z" fill="#FF6086"/>
<path fill-rule="evenodd" clip-rule="evenodd" d="M16.7343 19.7223C16.7149 20.2908 16.0356 20.7288 15.2172 20.7019C14.3983 20.6743 13.7504 20.1908 13.7695 19.6227C13.7885 19.0545 14.4678 18.6158 15.2866 18.6438C16.1054 18.6714 16.7533 19.1541 16.7343 19.7223Z" fill="#FF6086"/>
<path d="M9.19045 15.607C9.14232 17.0298 7.92475 18.1437 6.47029 18.0944C5.01582 18.0456 3.87579 16.8526 3.92357 15.429C3.9717 14.0066 5.18927 12.8927 6.64416 12.942C8.09856 12.9908 9.23816 14.1842 9.19045 15.607Z" fill="white"/>
<path fill-rule="evenodd" clip-rule="evenodd" d="M3.92357 15.4291C3.87579 16.8526 5.01582 18.0455 6.47029 18.0944C6.53408 18.0967 6.59788 18.0956 6.66089 18.0933C7.77625 15.8375 7.00447 14.0048 6.27741 12.9551C4.99044 13.0856 3.96759 14.1279 3.92357 15.4291Z" fill="#004587"/>
<path d="M16.5333 15.8432C16.4852 17.2663 15.2673 18.3798 13.8127 18.3306C12.3583 18.2817 11.2182 17.0883 11.2664 15.6656C11.3145 14.2428 12.5324 13.129 13.9865 13.1778C15.4411 13.2274 16.5814 14.4204 16.5333 15.8432Z" fill="white"/>
<path fill-rule="evenodd" clip-rule="evenodd" d="M11.2664 15.6662C11.2182 17.089 12.3583 18.2824 13.8127 18.3312C13.8772 18.3335 13.9407 18.3327 14.0037 18.3305C15.1187 16.0747 14.3473 14.242 13.6202 13.1919C12.3332 13.3225 11.3103 14.3647 11.2664 15.6662Z" fill="#004587"/>
<path d="M4.67096 12.6772C4.43896 12.6698 4.25055 12.4896 4.20277 12.2296C4.14755 11.9308 4.28521 11.6476 4.53777 11.5409C5.14659 11.2839 5.80574 11.1627 6.49544 11.181C6.79428 11.1911 7.00984 11.4466 6.99978 11.7752C6.99007 12.1061 6.75806 12.3501 6.46035 12.3419C5.90264 12.3273 5.38561 12.4239 4.88014 12.6377C4.81159 12.6664 4.74113 12.6798 4.67096 12.6772Z" fill="#004587"/>
<path d="M13.3031 12.5112C13.0961 12.4075 13.0006 12.165 13.0655 11.9088C13.1401 11.6141 13.3837 11.4149 13.6576 11.4231C14.3182 11.4444 14.9669 11.6092 15.5865 11.914C15.854 12.0484 15.9428 12.3706 15.7969 12.6653C15.6488 12.9619 15.3362 13.0861 15.0699 12.9548C14.5689 12.7079 14.0589 12.5796 13.5102 12.5624C13.436 12.5601 13.3662 12.543 13.3036 12.5113L13.3031 12.5112Z" fill="#004587"/>
<path d="M11.2711 17.9432C11.2901 17.5183 10.6309 17.484 10.6123 17.9093C10.5951 18.2901 10.7081 19.103 10.2087 19.2078C9.61182 19.3331 9.64613 18.4121 9.67973 18.0592C9.71964 17.6358 9.06084 17.603 9.02058 18.0257C8.94637 18.8135 9.13584 19.8173 10.0975 19.8715C11.2009 19.933 11.2356 18.7292 11.2711 17.9432Z" fill="#004587"/>
<path d="M11.7959 14.9947C11.6866 15.476 11.6727 15.9564 11.8541 16.4216C11.9358 16.6312 12.2506 16.4824 12.1701 16.275C12.0242 15.9005 12.0365 15.4965 12.1245 15.1101C12.173 14.8936 11.8455 14.7758 11.7959 14.9947Z" fill="white"/>
<path d="M12.0562 16.9819C12.0827 17.0301 12.1085 17.0789 12.1349 17.1278C12.1808 17.2106 12.2755 17.2543 12.3662 17.2121C12.4475 17.1737 12.4964 17.064 12.4501 16.9808C12.4237 16.9319 12.3982 16.8831 12.3714 16.8349C12.3256 16.7514 12.2308 16.7081 12.1401 16.7502C12.0588 16.7883 12.01 16.8987 12.0562 16.9819Z" fill="white"/>
<path d="M12.0896 14.4103C12.0504 14.4969 12.1134 14.6032 12.1966 14.6323C12.2917 14.6655 12.3786 14.6121 12.4178 14.5259C12.4167 14.5274 12.4156 14.5282 12.4137 14.5297C12.482 14.4648 12.4976 14.3603 12.4335 14.285C12.3745 14.216 12.2567 14.1996 12.188 14.2649C12.1422 14.3085 12.1156 14.3536 12.0896 14.4103Z" fill="white"/>
<path d="M12.4185 14.5277C12.4204 14.5251 12.4219 14.5232 12.4238 14.5205C12.422 14.5224 12.42 14.5239 12.4181 14.5262C12.3973 14.5722 12.4124 14.5383 12.4185 14.5277Z" fill="white"/>
<path d="M12.4236 14.5211C12.4332 14.5098 12.4445 14.5014 12.4236 14.5211V14.5211Z" fill="white"/>
<path d="M4.36306 14.7427C4.25412 15.2239 4.23994 15.704 4.42162 16.1696C4.50292 16.3796 4.81779 16.2304 4.73719 16.023C4.59131 15.6484 4.604 15.2445 4.69168 14.858C4.74059 14.642 4.41311 14.5237 4.36306 14.7427Z" fill="white"/>
<path d="M4.62383 16.73C4.6507 16.7785 4.67607 16.8278 4.70251 16.8759C4.74837 16.9595 4.8435 17.0027 4.93416 16.9606C5.01511 16.9222 5.06395 16.8126 5.01809 16.7293C4.99087 16.6809 4.96585 16.6312 4.93941 16.5835C4.89312 16.4999 4.79806 16.4566 4.70811 16.4988C4.62645 16.5368 4.57762 16.6468 4.62383 16.73Z" fill="white"/>
<path d="M4.65699 14.1584C4.61779 14.2449 4.68045 14.3512 4.76402 14.3803C4.8588 14.4135 4.94605 14.3602 4.98525 14.274C4.98376 14.2755 4.98298 14.2766 4.98079 14.2781C5.04983 14.2128 5.06471 14.1083 5.00092 14.033C4.94194 13.9639 4.82406 13.9476 4.75545 14.0132C4.71001 14.0565 4.68279 14.1017 4.65699 14.1584Z" fill="white"/>
<path d="M4.98568 14.2754C4.98756 14.2727 4.98907 14.2705 4.99102 14.2686C4.98951 14.2701 4.9872 14.2719 4.98532 14.2739C4.96438 14.3198 4.97954 14.2857 4.98568 14.2754Z" fill="white"/>
<path d="M4.99097 14.2703C5.00066 14.259 5.01146 14.2502 4.99097 14.2703V14.2703Z" fill="white"/>
<path d="M4.98607 14.2729L4.98511 14.2747L4.98607 14.2729Z" fill="white"/>
<path fill-rule="evenodd" clip-rule="evenodd" d="M3.16765 8.28112C2.75766 8.07258 2.40891 8.69033 2.84867 8.91454C3.2956 9.12939 3.58466 8.48144 3.16765 8.28112Z" fill="white"/>
<path fill-rule="evenodd" clip-rule="evenodd" d="M8.52367 9.24209C7.14229 9.26967 5.75984 9.11117 4.43289 8.71535C4.00539 8.58294 3.77558 9.23649 4.23442 9.37897C5.6292 9.79492 7.08331 9.96277 8.53629 9.93442C9.01724 9.91918 8.97244 9.22834 8.52367 9.24209Z" fill="white"/>
<path fill-rule="evenodd" clip-rule="evenodd" d="M9.91222 9.12008C9.46381 9.13943 9.46494 9.83296 9.94504 9.81205C10.4278 9.78037 10.3636 9.09024 9.91222 9.12008Z" fill="white"/>
<path fill-rule="evenodd" clip-rule="evenodd" d="M2.84675 13.9359C2.9031 13.2435 1.82949 13.1566 1.77314 13.8487C1.71679 14.541 2.79039 14.6283 2.84675 13.9359Z" fill="white"/>
<path fill-rule="evenodd" clip-rule="evenodd" d="M2.82472 22.1556C2.84564 20.083 2.82246 18.0104 2.84372 15.9378C2.85046 15.2596 1.79847 15.248 1.79173 15.9263C1.77082 17.9993 1.79358 20.0718 1.77274 22.1441C1.76607 22.8226 2.81806 22.8342 2.82472 22.1556Z" fill="white"/>
<path fill-rule="evenodd" clip-rule="evenodd" d="M2.83711 24.2405C2.89197 23.5645 1.84332 23.4794 1.78845 24.1554C1.73366 24.8317 2.78189 24.9164 2.83711 24.2405Z" fill="white"/>
<path fill-rule="evenodd" clip-rule="evenodd" d="M18.0345 3.93447C18.0345 5.28226 14.2135 6.3745 9.50017 6.3745C4.78682 6.3745 0.96582 5.28226 0.96582 3.93447C0.96582 2.58633 4.78689 1.49365 9.50017 1.49365C14.2135 1.49365 18.0345 2.58626 18.0345 3.93447Z" fill="#FF854A"/>
<path fill-rule="evenodd" clip-rule="evenodd" d="M13.1457 2.69379C13.1439 3.44955 12.7447 4.23409 12.018 4.4381C10.2991 4.88013 8.5044 4.88013 6.78539 4.4381C6.05869 4.23402 5.65394 3.4835 5.6521 2.72731C5.6521 2.49226 5.70505 1.50861 5.70505 1.27356C5.73191 1.22316 6.07733 0.505104 6.80963 0.486816C8.53757 0.486816 10.2659 0.486816 11.9937 0.486816C12.726 0.505104 13.1457 1.03482 13.1457 1.32991C13.1457 1.56503 13.1457 2.45881 13.1457 2.69379Z" fill="#004587"/>
<path fill-rule="evenodd" clip-rule="evenodd" d="M13.1459 1.2124C13.1459 1.88161 11.4791 2.42437 9.42298 2.42437C7.36713 2.42437 5.70044 1.88161 5.70044 1.2124C5.70044 0.542758 7.36713 0 9.42298 0C11.4791 0 13.1459 0.542758 13.1459 1.2124Z" fill="#FFD548"/>
<path fill-rule="evenodd" clip-rule="evenodd" d="M12.8077 23.6699C13.7802 24.9125 13.3169 26.0615 11.5808 26.6695C11.5677 26.837 11.5543 27.0127 11.533 27.288C11.0499 26.9504 10.6262 26.6538 10.1587 26.3267C10.5011 25.8776 10.8156 25.4639 11.1733 24.9946C11.2498 25.1807 11.3001 25.3034 11.3744 25.4844C11.6046 25.4053 11.8228 25.3304 12.041 25.2557C12.7868 24.964 12.7693 24.3033 12.8077 23.6699Z" fill="#FF6086"/>
<path fill-rule="evenodd" clip-rule="evenodd" d="M9.67856 27.125C8.33078 27.9453 7.2437 27.3507 6.84271 25.5556C6.67819 25.5232 6.50509 25.4892 6.23389 25.4359C6.62595 24.9957 6.96987 24.6096 7.34932 24.1836C7.75591 24.576 8.12932 24.9372 8.5542 25.3467C8.35984 25.4012 8.23225 25.437 8.04426 25.4892C8.09537 25.7272 8.14428 25.9525 8.19312 26.1782C8.39563 26.9527 9.05372 27.0124 9.67856 27.125Z" fill="#FF6086"/>
<path fill-rule="evenodd" clip-rule="evenodd" d="M7.98657 23.3402C8.0985 21.7664 9.21237 21.2243 10.9082 21.9365C11.0298 21.8212 11.1578 21.7004 11.3581 21.5098C11.4902 22.0842 11.6062 22.5886 11.7337 23.1444C11.1783 23.2485 10.6675 23.3444 10.0875 23.4529C10.1558 23.2634 10.2006 23.1385 10.2666 22.9549C10.0431 22.859 9.83083 22.768 9.6186 22.6769C8.86993 22.3942 8.44016 22.896 7.98657 23.3402Z" fill="#FF6086"/>
<path d="M15.6659 23.1263C15.5932 23.0558 15.4473 22.068 15.3149 22.0762C15.1817 22.084 15.0661 23.0636 15.0041 23.1282C14.8795 23.2576 13.9689 23.3491 13.9764 23.4744C13.9838 23.5997 14.878 23.6591 15.0045 23.7814C15.075 23.8497 15.2231 24.8401 15.3559 24.8319C15.4887 24.8245 15.6021 23.8475 15.6667 23.7807C15.7868 23.6557 16.7045 23.5595 16.697 23.4338C16.6895 23.3073 15.7875 23.2442 15.6659 23.1263Z" fill="white"/>
<path fill-rule="evenodd" clip-rule="evenodd" d="M6.80802 3.32831C6.54767 3.20781 6.34543 3.60135 6.62486 3.73043C6.90804 3.85313 7.07214 3.44279 6.80802 3.32831Z" fill="#00EEE4"/>
<path fill-rule="evenodd" clip-rule="evenodd" d="M10.1656 3.79686C9.30648 3.84726 8.44177 3.78198 7.60619 3.56748C7.33647 3.49546 7.20924 3.90808 7.49837 3.98563C8.37726 4.21097 9.2867 4.28036 10.1906 4.22776C10.4895 4.2065 10.445 3.77708 10.1656 3.79686Z" fill="#00EEE4"/>
<path fill-rule="evenodd" clip-rule="evenodd" d="M11.0279 3.68752C10.7489 3.71028 10.7664 4.14189 11.0648 4.11729C11.3648 4.08589 11.3081 3.65768 11.0279 3.68752Z" fill="#00EEE4"/>
<path d="M4.53639 23.0527C4.05069 23.0527 4.05069 23.8059 4.53639 23.8059C5.02251 23.8059 5.02251 23.0527 4.53639 23.0527Z" fill="white"/>
<path d="M9.95998 12.0537C9.47428 12.0537 9.47428 12.8069 9.95998 12.8069C10.4457 12.8069 10.4457 12.0537 9.95998 12.0537Z" fill="white"/>
<path d="M15.2681 26.4624C14.7824 26.4624 14.7824 27.2155 15.2681 27.2155C15.7538 27.2156 15.7538 26.4624 15.2681 26.4624Z" fill="white"/>
</svg>
