<svg width="1274" height="21" viewBox="0 0 1274 21" fill="none" xmlns="http://www.w3.org/2000/svg">
<path d="M46.1498 21C46.1498 21 18.0226 6.71579 0 0H1274L1217.64 21L1171.49 3.80315L1125.34 21L1079.19 3.80315L1033.04 21L986.895 3.80315L940.745 21L894.596 3.80315L855.546 18.3543L816.496 3.80315L770.346 21L724.196 3.80315L678.047 21L631.897 3.80315L585.747 21L539.597 3.80315L493.448 21L447.298 3.80315L401.148 21L354.998 3.80315L308.848 21L262.699 3.80315L216.549 21L170.399 3.80315L131.349 18.3543L92.2995 3.80315L46.1498 21Z" fill="#801DFF"/>
</svg>
