<svg width="87" height="86" viewBox="0 0 87 86" fill="none" xmlns="http://www.w3.org/2000/svg">
<circle cx="43.5" cy="43" r="43" fill="#DB00FF"/>
<g clip-path="url(#clip0_384_18497)">
<path d="M43.5001 67C45.5736 67 47.3641 65.769 48.1821 64H38.8181C39.6361 65.769 41.4265 67 43.5001 67Z" fill="white"/>
<path d="M42.0939 54.625V43.2525C38.8884 42.6863 36.4689 40.2242 36.4689 37.2814C36.4689 36.5048 37.0986 35.8751 37.8752 35.8751C38.6518 35.8751 39.2814 36.5048 39.2814 37.2814C39.2814 38.7072 40.4571 39.923 42.0939 40.3745V19.9614C41.1287 19.3432 39.9958 19.0002 38.8127 19.0002C35.8553 19.0002 33.3327 21.1356 32.8189 24.0175C29.4324 25.0079 27.094 28.1053 27.094 31.6564C27.094 33.5552 27.7662 35.3698 28.9956 36.8126C27.7663 38.2554 27.094 40.0701 27.094 41.9689C27.094 45.5201 29.4324 48.6174 32.8189 49.6078C33.3326 52.4896 35.8553 54.625 38.8127 54.625H42.0939Z" fill="white"/>
<path d="M36.4688 58.8438C36.4688 60.1382 37.5181 61.1875 38.8125 61.1875H48.1875C49.4819 61.1875 50.5313 60.1382 50.5313 58.8438V57.4375H36.4688V58.8438Z" fill="white"/>
<path d="M54.1813 24.0173C53.6675 21.1354 51.1449 19 48.1875 19C47.0044 19 45.8715 19.3429 44.9062 19.9611V30.3727C48.1117 30.9388 50.5312 33.4009 50.5312 36.3437C50.5312 37.1204 49.9016 37.75 49.125 37.75C48.3484 37.75 47.7187 37.1204 47.7187 36.3437C47.7187 34.9179 46.543 33.7022 44.9062 33.2507V54.6249H48.1875C51.1448 54.6249 53.6675 52.4896 54.1813 49.6076C57.5678 48.6172 59.9062 45.5198 59.9062 41.9687C59.9062 40.0699 59.234 38.2553 58.0046 36.8125C59.234 35.3697 59.9062 33.5551 59.9062 31.6563C59.9063 28.105 57.5678 25.0077 54.1813 24.0173Z" fill="white"/>
<path d="M63.2825 26.9689C62.8281 26.9689 62.3821 26.749 62.1111 26.3425C61.6803 25.6963 61.8549 24.8232 62.5011 24.3924L65.3136 22.5174C65.9598 22.0864 66.833 22.2612 67.2637 22.9074C67.6945 23.5536 67.5199 24.4267 66.8736 24.8575L64.0611 26.7325C63.8215 26.8924 63.5505 26.9689 63.2825 26.9689Z" fill="white"/>
<path d="M66.0924 50.4063C65.8244 50.4063 65.5534 50.3298 65.3136 50.1699L62.5011 48.2949C61.8549 47.8642 61.6803 46.9911 62.1111 46.3449C62.5419 45.6985 63.4151 45.5241 64.0611 45.9549L66.8736 47.8299C67.5199 48.2606 67.6945 49.1337 67.2637 49.7799C66.9928 50.1864 66.5468 50.4063 66.0924 50.4063Z" fill="white"/>
<path d="M23.7177 26.9691C23.4496 26.9691 23.1786 26.8926 22.9389 26.7327L20.1264 24.8577C19.4802 24.427 19.3055 23.5539 19.7363 22.9076C20.1672 22.2613 21.0404 22.0868 21.6864 22.5176L24.4989 24.3926C25.1451 24.8234 25.3198 25.6965 24.889 26.3427C24.618 26.7491 24.1721 26.9691 23.7177 26.9691Z" fill="white"/>
<path d="M20.9077 50.4064C20.4533 50.4064 20.0073 50.1865 19.7363 49.78C19.3055 49.1338 19.4802 48.2607 20.1264 47.8299L22.9389 45.9549C23.585 45.5239 24.4582 45.6987 24.889 46.3449C25.3198 46.9911 25.1451 47.8642 24.4989 48.295L21.6864 50.17C21.4468 50.3299 21.1757 50.4064 20.9077 50.4064Z" fill="white"/>
<path d="M23.719 37.75H20.9065C20.1299 37.75 19.5002 37.1204 19.5002 36.3438C19.5002 35.5671 20.1299 34.9375 20.9065 34.9375H23.719C24.4956 34.9375 25.1252 35.5671 25.1252 36.3438C25.1252 37.1204 24.4956 37.75 23.719 37.75Z" fill="white"/>
<path d="M66.0938 37.75H63.2812C62.5046 37.75 61.875 37.1204 61.875 36.3438C61.875 35.5671 62.5046 34.9375 63.2812 34.9375H66.0938C66.8704 34.9375 67.5 35.5671 67.5 36.3438C67.5 37.1204 66.8704 37.75 66.0938 37.75Z" fill="white"/>
</g>
<defs>
<clipPath id="clip0_384_18497">
<rect width="48" height="48" fill="white" transform="translate(19.5 19)"/>
</clipPath>
</defs>
</svg>
