<svg width="142" height="142" viewBox="0 0 142 142" fill="none" xmlns="http://www.w3.org/2000/svg">
<path d="M67.6826 84.8587L97.3911 83.3086L103.69 118.99H67.6826V84.8587Z" fill="#65E1E9"/>
<path d="M55.2004 116.293C55.2004 116.293 58.2426 121.099 65.2672 122.959C72.4426 121.811 75.9502 117.333 75.9502 117.333C75.0854 106.577 70.4358 99.8433 70.0885 99.3562C70.2358 99.3582 70.3781 99.3543 70.5256 99.351C72.779 99.2947 74.6619 97.5862 74.9595 95.3561C75.1955 93.5925 75.284 91.8272 75.2252 90.0544C75.1525 87.8002 73.4499 85.912 71.2134 85.6308C68.5154 85.2935 65.8019 85.1574 63.0784 85.2231C60.825 85.2794 58.9476 86.9881 58.6498 89.2238C58.414 90.9818 58.3255 92.7474 58.3841 94.5255C58.4573 96.7742 60.1544 98.6621 62.3909 98.9436C62.5376 98.9619 62.684 98.9802 62.831 98.9929C62.4363 99.4422 57.1366 105.677 55.2004 116.293Z" fill="#91A2B5"/>
<path d="M72.579 100.486C74.6341 99.7107 76.165 97.8625 76.4743 95.5578C76.7206 93.7232 76.814 91.8547 76.7524 90.0043C76.6515 86.9682 74.4025 84.4923 71.4047 84.1171C68.6415 83.7713 65.8284 83.6306 63.0428 83.698C60.0228 83.7718 57.5372 86.0102 57.1331 89.0208C56.8871 90.8563 56.7934 92.7247 56.855 94.5741C56.9323 96.8988 58.2711 98.8909 60.2386 99.8672C58.3388 102.594 55.1365 108.122 53.6963 116.019C53.6272 116.397 53.703 116.786 53.9085 117.11C54.0458 117.327 57.3578 122.447 64.8755 124.437C65.0033 124.471 65.1351 124.488 65.2668 124.488C65.3475 124.488 65.4282 124.482 65.5084 124.469C73.1875 123.24 76.9948 118.478 77.1532 118.276C77.3898 117.973 77.504 117.593 77.4735 117.211C76.8301 109.208 74.1967 103.388 72.579 100.486ZM60.1634 89.4274C60.3631 87.9395 61.633 86.7901 63.1177 86.7541C65.7519 86.6897 68.4122 86.8234 71.0253 87.1504C72.4988 87.3348 73.6476 88.6054 73.6975 90.1058C73.7535 91.787 73.6684 93.4844 73.4448 95.1512C73.2452 96.6392 71.9752 97.7885 70.4906 97.8245C67.8566 97.8886 65.1966 97.7552 62.5827 97.4282C61.1091 97.2438 59.9604 95.9733 59.9105 94.4726C59.8547 92.7924 59.9399 91.0948 60.1634 89.4274ZM65.3453 121.397C60.4543 120.01 57.7239 117.054 56.8261 115.926C58.463 107.697 62.1583 102.332 63.4929 100.602C65.3886 100.795 67.3003 100.897 69.2056 100.897C69.2273 100.897 69.2492 100.896 69.2708 100.896C70.4279 102.755 73.5635 108.458 74.369 116.805C73.3589 117.842 70.3469 120.507 65.3453 121.397Z" fill="#678490"/>
<path d="M27.8804 59.8162C28.0986 59.5705 28.2243 59.4451 28.2243 59.4451C17.9018 54.2186 33.047 42.2105 33.047 42.2105C29.5766 38.7398 31.9235 34.4171 37.0604 30.5323L34.2496 31.8786C31.8381 29.3636 27.0151 23.0457 32.1054 16.9023C38.385 9.31333 52.0681 10.6773 57.2838 20.8467L53.7036 22.5612C58.3566 21.1745 63.1224 20.3377 67.3311 20.3377C71.5387 20.3377 76.304 21.1745 80.9568 22.5612L77.3774 20.8467C82.5931 10.6773 96.2708 9.31333 102.556 16.9023C107.646 23.0457 102.823 29.3636 100.406 31.8786L97.6051 30.5368C102.738 34.4201 105.081 38.7409 101.61 42.2102C101.61 42.2102 116.76 54.2186 106.438 59.4449C106.438 59.4449 116.34 69.3308 108.331 81.3118C96.9012 98.3995 67.3309 88.4969 67.3309 88.4969C67.3309 88.4969 37.7549 98.3995 26.3306 81.3118C19.2275 70.6898 26.2058 61.7149 27.8804 59.8162Z" fill="#FFD5AE"/>
<path d="M35.5472 31.7596C38.5097 29.1573 42.8089 26.6911 47.5991 24.7164C45.2312 21.7866 39.9994 16.4782 35.3455 19.8443C30.9535 23.0141 33.5886 28.6772 35.5472 31.7596Z" fill="#FFF1E6"/>
<path d="M67.3293 51.9375C59.6039 51.9375 56.8358 63.7221 50.5398 65.7026C40.9212 68.7196 34.478 65.7026 28.22 59.4449C28.22 59.4449 18.3177 69.3308 26.3268 81.3118C37.7567 98.3995 67.3293 88.4972 67.3293 88.4972C67.3293 88.4972 96.9019 98.3995 108.332 81.3118C116.341 69.3308 106.439 59.4449 106.439 59.4449C100.181 65.7026 93.7374 68.7198 84.1189 65.7026C77.8229 63.7221 75.0547 51.9375 67.3293 51.9375Z" fill="#FFF1E6"/>
<path d="M99.3745 78.9406C104.646 76.8137 107.195 70.8164 105.068 65.5453C102.941 60.2741 96.9435 57.7252 91.6724 59.8521C86.4013 61.979 83.8523 67.9762 85.9792 73.2474C88.1061 78.5185 94.1034 81.0674 99.3745 78.9406Z" fill="#FF9EB6"/>
<path d="M46.4171 76.6735C50.4361 72.6545 50.4361 66.1384 46.4171 62.1194C42.3981 58.1004 35.882 58.1004 31.863 62.1194C27.844 66.1384 27.844 72.6545 31.863 76.6735C35.882 80.6925 42.3981 80.6925 46.4171 76.6735Z" fill="#FF9EB6"/>
<path d="M111.821 65.3528C110.919 62.9233 109.672 61.0168 108.752 59.812C110.412 58.5698 111.345 57.0034 111.534 55.1371C112.057 49.9655 106.357 44.3077 103.74 42.0044C104.936 40.1595 105.11 38.0211 104.208 35.8434C102.554 31.8491 97.1931 27.5717 89.4999 24.1076C82.1309 20.7895 73.8438 18.8087 67.3318 18.8087C64.6174 18.8087 61.5933 19.1571 58.4576 19.7986C55.6936 14.6896 50.629 11.2769 44.8306 10.6426C39.3595 10.0438 34.1626 12.0193 30.9263 15.926C26.9553 20.7199 27.6256 26.8561 32.6874 32.4418C31.6715 33.5817 30.9163 34.7235 30.4526 35.8429C29.5506 38.0206 29.7231 40.1589 30.9185 42.0038C28.3031 44.3069 22.6054 49.9647 23.1285 55.136C23.3173 57.0028 24.2517 58.5698 25.9127 59.8123C23.4413 63.0661 18.2259 71.9392 25.0607 82.1604C30.0426 89.6121 39.0713 93.3052 51.1743 92.8387C58.9258 92.5403 65.516 90.6615 67.3315 90.1002C69.1473 90.6618 75.7361 92.5403 83.4868 92.8387C84.1671 92.8648 84.8358 92.8778 85.4964 92.8778C96.5882 92.8775 104.898 89.193 109.602 82.1601C114.099 75.4351 113.291 69.308 111.821 65.3528ZM33.2798 17.876C35.8588 14.7628 40.0525 13.195 44.4978 13.6812C49.0107 14.1749 52.9829 16.7056 55.3414 20.5224C51.9242 21.4135 48.4511 22.6261 45.1607 24.1076C40.9689 25.995 37.4716 28.1241 34.8867 30.3174C32.3801 27.5242 29.359 22.6097 33.2798 17.876ZM107.061 80.4614C96.4182 96.3734 68.1011 87.1423 67.8169 87.0472C67.5024 86.9421 67.1615 86.9421 66.8467 87.0469C66.7743 87.0713 59.501 89.4704 50.9893 89.7868C39.8847 90.1989 32.0148 87.0625 27.6017 80.4614C24.8483 76.3437 24.0692 72.0515 25.2859 67.7033C26.2613 64.2177 28.2269 61.7327 29.0231 60.8305C29.1906 60.6419 29.2924 60.5379 29.3052 60.5248C29.6516 60.1784 29.8108 59.6867 29.7337 59.203C29.6566 58.719 29.3521 58.3016 28.9147 58.0803C27.2015 57.2128 26.3035 56.1497 26.1695 54.8298C25.9815 52.9819 27.2548 50.3835 29.7542 47.513C31.809 45.1533 33.9757 43.4235 33.9967 43.4066C34.3381 43.1356 34.5481 42.7321 34.5731 42.297C34.598 41.8618 34.436 41.4366 34.1279 41.1285C32.8946 39.8952 32.6239 38.5872 33.2762 37.0127C34.6158 33.7783 39.5278 29.9959 46.4154 26.8947C53.4097 23.7457 61.2286 21.8653 67.3312 21.8653C80.053 21.8653 98.511 30.0758 101.383 37.0122C102.035 38.5869 101.764 39.8946 100.53 41.128C100.221 41.4361 100.059 41.861 100.084 42.2961C100.109 42.731 100.318 43.1351 100.66 43.4063C100.682 43.4235 102.849 45.1536 104.905 47.5138C107.406 50.3843 108.68 52.9833 108.492 54.8309C108.358 56.1503 107.46 57.2133 105.748 58.0803C105.312 58.3011 105.009 58.7185 104.931 59.2011C104.853 59.6836 105.011 60.1759 105.356 60.5229C105.723 60.8931 114.255 69.7005 107.061 80.4614Z" fill="#FF9356"/>
<path d="M76.7589 64.1723C76.4275 58.6299 70.0777 61.7461 67.3237 61.7461C64.8914 61.7461 58.4601 58.9613 57.8885 64.1723C57.3202 69.3522 62.1127 73.6075 67.3237 73.6075C72.5347 73.6075 77.0698 69.3739 76.7589 64.1723Z" fill="white"/>
<path d="M67.3237 75.1368C64.1212 75.1368 60.9434 73.7246 58.8233 71.3589C56.9499 69.2685 56.0782 66.6576 56.3691 64.0065C56.553 62.3299 57.2447 61.0885 58.4254 60.3164L60.0986 62.8746C59.8534 63.0349 59.515 63.3611 59.4077 64.3396C59.213 66.1157 59.8137 67.884 61.0995 69.3184C62.6493 71.0477 64.9759 72.0797 67.3237 72.0797C69.5688 72.0797 71.7354 71.1464 73.268 69.5192C74.65 68.0518 75.348 66.1856 75.2332 64.2638C75.1952 63.6257 75.0541 63.1425 74.8252 62.8671L77.1771 60.9144C77.8336 61.7051 78.2063 62.7706 78.2848 64.0816C78.4504 66.8528 77.4592 69.5284 75.4934 71.6154C73.3853 73.8533 70.4074 75.1368 67.3237 75.1368Z" fill="#FFD5AE"/>
<path d="M77.1768 60.9156C75.3064 58.6633 71.9561 59.3611 69.5096 59.8703C69.2855 59.9169 69.065 59.9626 68.8517 60.0053V57.0059H65.7949V60.007C65.6792 59.9854 65.5625 59.9635 65.4437 59.941C63.2181 59.5194 60.4485 58.9944 58.4247 60.3176C57.7183 60.7797 57.52 61.7268 57.9821 62.4332C58.4439 63.1396 59.3907 63.3376 60.0977 62.8758C61.0897 62.2271 63.2774 62.6418 64.8744 62.9443C65.8143 63.1224 66.6263 63.2763 67.323 63.2763C68.1476 63.2763 69.1116 63.0755 70.1322 62.8631C71.819 62.512 74.129 62.031 74.8246 62.8686C75.1269 63.2325 75.5624 63.4205 76.0011 63.4205C76.3453 63.4205 76.6914 63.3049 76.9768 63.0678C77.6269 62.5283 77.7162 61.5648 77.1768 60.9156Z" fill="#FF9356"/>
<path d="M64.6905 55.2205C65.3675 54.5347 66.4721 54.5277 67.1577 55.2047L67.3236 55.3684L67.4872 55.2025C68.1642 54.5169 69.2689 54.5097 69.9544 55.1867C70.64 55.8637 70.6472 56.9684 69.9703 57.6539L69.3889 58.2427C68.2657 59.3804 66.4327 59.3923 65.2951 58.2691L64.7063 57.6878C64.0204 57.0108 64.0135 55.9061 64.6905 55.2205Z" fill="#FD80A6"/>
<path d="M50.5 60.7624C48.3866 60.7624 46.3997 59.9395 44.9054 58.4452C44.3086 57.8483 44.3086 56.8804 44.9054 56.2836C45.5022 55.6867 46.4699 55.6867 47.067 56.2836C47.9839 57.2005 49.2031 57.7055 50.5 57.7055C51.7968 57.7055 53.016 57.2007 53.9329 56.2836C54.5298 55.6867 55.4974 55.6867 56.0946 56.2836C56.6914 56.8804 56.6914 57.8483 56.0946 58.4452C54.5999 59.9392 52.6133 60.7624 50.5 60.7624Z" fill="#605C5D"/>
<path d="M84.1613 60.7584C82.1353 60.7584 80.1093 59.9874 78.567 58.4451C77.9699 57.8483 77.9699 56.8806 78.567 56.2838C79.1638 55.6867 80.1315 55.6867 80.7283 56.2838C82.6215 58.1769 85.7017 58.1766 87.5945 56.2838C88.1916 55.6869 89.1593 55.6872 89.7561 56.2838C90.353 56.8806 90.353 57.8486 89.7561 58.4454C88.2133 59.9874 86.1873 60.7584 84.1613 60.7584Z" fill="#605C5D"/>
<path d="M91.9131 101.152L94.6973 94.1103C95.9809 90.8642 99.6659 89.2676 102.912 90.5511L114.945 95.3092C118.192 96.5928 119.788 100.278 118.505 103.524L115.72 110.566C115.221 111.828 113.792 112.448 112.529 111.948L93.2954 104.343C92.0329 103.844 91.4139 102.415 91.9131 101.152ZM113.931 101.716C114.218 100.991 113.862 100.169 113.137 99.8829L101.104 95.1248C100.38 94.8383 99.5578 95.1944 99.2713 95.9188L97.3912 100.674L112.051 106.471L113.931 101.716Z" fill="#FD80A6"/>
<path d="M113.435 113.651C112.939 113.651 112.443 113.557 111.967 113.369L92.7336 105.764C90.6891 104.956 89.6834 102.635 90.4919 100.59L93.2761 93.5482C94.0469 91.5984 95.5334 90.065 97.4612 89.2297C99.3891 88.394 101.525 88.3588 103.474 89.1298L115.508 93.8876C119.538 95.4813 121.52 100.056 119.926 104.086L117.142 111.128C116.75 112.118 115.996 112.897 115.019 113.32C114.51 113.54 113.973 113.651 113.435 113.651ZM93.3344 101.714C93.2428 101.945 93.247 102.198 93.346 102.426C93.4447 102.654 93.6267 102.83 93.8577 102.922L113.092 110.527C113.569 110.715 114.11 110.481 114.299 110.003L117.083 102.961C118.057 100.499 116.846 97.7036 114.384 96.7301L102.35 91.972C101.16 91.5014 99.8553 91.5238 98.6766 92.0342C97.4978 92.5447 96.5893 93.4816 96.1189 94.672L93.3344 101.714ZM112.051 107.999C111.861 107.999 111.67 107.963 111.489 107.892L96.8289 102.095C96.452 101.946 96.1497 101.653 95.9885 101.281C95.8274 100.909 95.8208 100.488 95.9697 100.112L97.8498 95.3567C98.4461 93.8491 100.158 93.1066 101.666 93.7035L113.699 98.4616C114.429 98.75 115.004 99.3064 115.316 100.027C115.628 100.749 115.641 101.548 115.353 102.278V102.278L113.473 107.033C113.323 107.41 113.031 107.712 112.659 107.873C112.465 107.956 112.258 107.999 112.051 107.999ZM99.3744 99.8142L111.192 104.487L112.467 101.261L100.65 96.5887L99.3744 99.8142Z" fill="#FE518E"/>
<path d="M84.3594 97.2467L73.1344 120.591C72.0922 122.767 73.1103 125.373 75.3559 126.264L106.762 138.683L110.555 140.181C112.803 141.068 115.329 139.867 116.054 137.564L123.828 112.855C124.398 111.055 123.478 109.124 121.724 108.431L120.332 107.88C120.325 107.875 120.318 107.876 120.311 107.871L88.9197 95.462C87.1691 94.7711 85.1792 95.5513 84.3594 97.2467Z" fill="#FD80A6"/>
<path d="M89.7547 128.673C89.2685 128.673 88.8039 128.44 88.5136 128.036L85.8597 124.342C85.5562 123.92 85.4883 123.372 85.6797 122.888L87.5894 118.058C87.8998 117.273 88.7876 116.889 89.5727 117.199L96.6894 120.013C97.0663 120.162 97.3686 120.455 97.5297 120.827C97.6909 121.199 97.6975 121.619 97.5486 121.996L95.6388 126.826C95.4474 127.31 95.0234 127.663 94.5131 127.763L90.0506 128.643C89.9519 128.663 89.8528 128.673 89.7547 128.673ZM88.8289 123.236L90.4228 125.455L93.1028 124.926L94.1436 122.294L89.8698 120.604L88.8289 123.236Z" fill="#FE518E"/>
<path d="M122.284 107.009L120.895 106.46L120.894 106.459L89.4851 94.0399C86.9984 93.0567 84.1429 94.1739 82.9839 96.5837L82.9825 96.5831L71.7584 119.929C71.0761 121.347 71.014 123.002 71.5876 124.467C72.1611 125.932 73.3296 127.105 74.7928 127.684L106.202 140.103L109.994 141.602C110.664 141.868 111.375 141.999 112.084 141.999C112.924 141.999 113.763 141.815 114.533 141.448C115.953 140.771 117.039 139.521 117.511 138.02L125.287 113.312C126.09 110.761 124.77 107.992 122.284 107.009ZM74.4342 123.353C74.1649 122.665 74.1929 121.919 74.513 121.253L80.1397 109.551C80.1575 109.599 80.173 109.648 80.1916 109.695C81.1936 112.259 83.2363 114.31 85.7956 115.322L86.1021 115.443L87.2264 112.6L86.92 112.479C85.1214 111.768 83.743 110.384 83.0391 108.582C82.3355 106.782 82.4098 104.832 83.2499 103.088L84.7076 100.052L85.7382 97.9088C86.2058 96.9362 87.3579 96.485 88.3613 96.8821L115.418 107.581C115.007 107.984 114.655 108.459 114.393 109.003L111.339 115.354C109.753 118.537 105.951 120.004 102.64 118.694L102.209 118.524L101.085 121.367L101.515 121.537C102.699 122.005 103.927 122.227 105.138 122.227C106.213 122.227 107.273 122.047 108.281 121.714L103.168 132.348C102.707 133.305 102.537 134.368 102.645 135.409L75.9166 124.84C75.2302 124.569 74.7035 124.04 74.4342 123.353ZM122.371 112.394L114.596 137.103C114.374 137.807 113.885 138.37 113.218 138.688C112.551 139.006 111.805 139.031 111.118 138.759L107.327 137.26C106.64 136.988 106.113 136.46 105.844 135.772C105.575 135.084 105.603 134.339 105.923 133.673L114.107 116.651C114.116 116.633 114.127 116.616 114.136 116.597L117.149 110.327L117.149 110.326C117.502 109.594 118.243 109.158 119.016 109.158C119.268 109.158 119.524 109.204 119.77 109.302L121.159 109.851C122.163 110.248 122.695 111.365 122.371 112.394Z" fill="#FE518E"/>
<path d="M86.846 113.561L88.8714 108.438C89.9464 105.72 93.0327 104.383 95.7509 105.457L100.874 107.483C103.592 108.558 104.929 111.644 103.854 114.363L101.829 119.485C100.754 122.204 97.6679 123.541 94.9494 122.466L89.8266 120.441C87.1081 119.366 85.771 116.28 86.846 113.561ZM94.065 109.722C93.6978 109.577 93.2809 109.757 93.1359 110.125L91.1101 115.247C90.9651 115.615 91.1456 116.031 91.5129 116.176L96.6357 118.202C97.0029 118.347 97.4194 118.166 97.5645 117.799L99.5899 112.677C99.735 112.309 99.5547 111.893 99.1875 111.748L94.065 109.722Z" fill="#FFFF9D"/>
<path d="M96.8904 124.365C96.0565 124.365 95.2089 124.211 94.3874 123.886L89.2643 121.861C85.7623 120.476 84.04 116.5 85.4242 112.998L87.4497 107.875C88.8347 104.373 92.8107 102.651 96.3127 104.035L101.436 106.061C103.13 106.731 104.463 108.022 105.189 109.698C105.915 111.373 105.945 113.229 105.275 114.923L103.25 120.046C102.19 122.727 99.612 124.365 96.8904 124.365ZM93.8058 106.613C92.3024 106.613 90.8782 107.518 90.2924 108.999L88.267 114.122C87.5021 116.057 88.4536 118.253 90.3884 119.018L95.5112 121.044C97.446 121.808 99.6423 120.857 100.407 118.922L102.433 113.799C102.802 112.864 102.785 111.839 102.384 110.913C101.982 109.987 101.247 109.273 100.311 108.903L95.1887 106.878C94.7352 106.699 94.2668 106.613 93.8058 106.613ZM96.8957 119.779C96.622 119.779 96.3435 119.729 96.0739 119.622L90.9509 117.597C89.7999 117.142 89.2338 115.835 89.6889 114.684L91.7144 109.562C91.9346 109.004 92.3592 108.566 92.9095 108.328C93.46 108.089 94.0701 108.079 94.627 108.3L99.7499 110.325C100.307 110.545 100.745 110.97 100.984 111.52C101.222 112.071 101.232 112.681 101.011 113.237L98.9861 118.36C98.6374 119.241 97.7902 119.779 96.8957 119.779ZM92.8301 115.053L96.4417 116.481L97.8697 112.869L94.2579 111.441L92.8301 115.053Z" fill="#FFCC6B"/>
<path d="M57.1086 82.0399L20.3154 92.1973L31.5601 132.929L68.3532 122.772L57.1086 82.0399Z" fill="white"/>
<path d="M31.5605 134.463C31.2985 134.463 31.0383 134.396 30.8064 134.264C30.4539 134.064 30.1952 133.732 30.0873 133.341L18.8429 92.6077C18.7351 92.2169 18.7869 91.7995 18.9869 91.447C19.1869 91.0943 19.5188 90.8358 19.9096 90.7279L56.7045 80.5707C57.0956 80.4628 57.513 80.5147 57.8655 80.7147C58.218 80.9146 58.4768 81.2466 58.5846 81.6374L69.8287 122.371C70.0534 123.185 69.5758 124.027 68.762 124.251L31.9671 134.408C31.8334 134.445 31.6967 134.463 31.5605 134.463ZM22.196 93.2678L32.6269 131.055L66.4751 121.711L56.0442 83.9241L22.196 93.2678Z" fill="#E3E3E3"/>
<path d="M38.8574 120.461C38.1871 120.461 37.572 120.017 37.385 119.339L35.8541 113.793C35.6294 112.98 36.107 112.138 36.9208 111.913C37.7339 111.688 38.5762 112.166 38.8009 112.98L40.3318 118.526C40.5564 119.34 40.0789 120.181 39.2651 120.406C39.129 120.443 38.992 120.461 38.8574 120.461Z" fill="#6DB850"/>
<path d="M44.0197 119.036C43.3494 119.036 42.7342 118.591 42.5473 117.914L42.0897 116.256C41.865 115.442 42.3426 114.601 43.1563 114.376C43.9701 114.151 44.8118 114.629 45.0365 115.443L45.4941 117.1C45.7187 117.914 45.2411 118.756 44.4274 118.98C44.2912 119.018 44.1542 119.036 44.0197 119.036Z" fill="#6DB850"/>
<path d="M49.1815 117.61C48.5111 117.61 47.896 117.166 47.7091 116.488L46.41 111.782C46.1853 110.968 46.6629 110.126 47.4767 109.901C48.2901 109.676 49.1318 110.154 49.3565 110.968L50.6556 115.675C50.8802 116.488 50.4026 117.33 49.5889 117.554C49.453 117.592 49.316 117.61 49.1815 117.61Z" fill="#6DB850"/>
<path d="M54.3438 116.185C53.6735 116.185 53.0584 115.741 52.8714 115.063L50.3243 105.836C50.0997 105.022 50.5772 104.181 51.391 103.956C52.2047 103.731 53.0462 104.209 53.2711 105.023L55.8182 114.25C56.0428 115.063 55.5653 115.905 54.7515 116.13C54.6154 116.167 54.4784 116.185 54.3438 116.185Z" fill="#6DB850"/>
<path d="M59.5058 114.761C58.8354 114.761 58.2203 114.316 58.0334 113.638L52.4879 93.5491C52.2632 92.7353 52.7408 91.8936 53.5545 91.669C54.368 91.4438 55.2097 91.9222 55.4344 92.7356L60.9799 112.825C61.2045 113.639 60.7269 114.48 59.9132 114.705C59.7773 114.743 59.6403 114.761 59.5058 114.761Z" fill="#6DB850"/>
<path d="M35.6708 126.503C35.0005 126.503 34.3854 126.059 34.1984 125.381L27.1905 99.9944C26.9659 99.1807 27.4434 98.3389 28.2572 98.1143C29.0706 97.8891 29.9124 98.3672 30.1373 99.1809L36.7386 123.095L60.4246 116.556C61.2389 116.331 62.0798 116.809 62.3047 117.623C62.5294 118.437 62.0518 119.278 61.2381 119.503L36.0788 126.448C35.9424 126.485 35.8054 126.503 35.6708 126.503Z" fill="#678490"/>
<path d="M35.892 105.253C35.4626 105.253 35.0358 105.073 34.7335 104.722C34.1824 104.083 34.254 103.118 34.8933 102.567L46.3137 92.7225C46.9527 92.1711 47.9179 92.2427 48.4692 92.8822C49.0203 93.5215 48.9488 94.4867 48.3095 95.0378L36.889 104.882C36.6003 105.131 36.2453 105.253 35.892 105.253Z" fill="#FE518E"/>
<path d="M47.3337 100.349C47.2957 100.349 47.2577 100.348 47.2192 100.345C46.3775 100.283 45.7454 99.5495 45.8078 98.7075L46.0874 94.934L42.3141 94.6544C41.4724 94.5923 40.8403 93.8593 40.9027 93.0172C40.9648 92.1752 41.6989 91.5432 42.5398 91.6058L47.8377 91.9983C48.6794 92.0607 49.3115 92.7934 49.2491 93.6354L48.8566 98.9333C48.797 99.737 48.1267 100.349 47.3337 100.349Z" fill="#FE518E"/>
<path d="M110.391 88.4921C106.009 86.8213 101.871 87.0044 100.2 91.3867C98.5291 95.7687 100.727 100.676 105.109 102.346C109.491 104.017 114.398 101.819 116.069 97.437C117.74 93.0549 114.774 90.1628 110.391 88.4921Z" fill="#FFD5AE"/>
<path d="M108.123 104.432C106.939 104.432 105.735 104.22 104.564 103.774C102.064 102.821 100.084 100.95 98.9895 98.5076C97.8954 96.0651 97.818 93.3426 98.7715 90.8416C99.7367 88.3097 101.53 86.6961 103.958 86.1744C105.93 85.7515 108.278 86.0499 110.936 87.0633C113.594 88.0767 115.545 89.4166 116.735 91.0457C118.199 93.0509 118.463 95.4491 117.497 97.9807C115.975 101.973 112.161 104.432 108.123 104.432ZM105.782 89.0463C105.358 89.0463 104.963 89.0852 104.6 89.1631C103.195 89.4648 102.223 90.3701 101.628 91.9304C100.965 93.6683 101.019 95.5603 101.78 97.2576C102.54 98.955 103.916 100.255 105.654 100.917C109.242 102.286 113.273 100.48 114.641 96.8915C115.236 95.3312 115.113 94.0086 114.266 92.8481C113.442 91.7199 111.914 90.7073 109.847 89.9191C108.33 89.3414 106.949 89.0463 105.782 89.0463Z" fill="#FF9356"/>
<path d="M19.2242 114.974C21.1154 119.266 24.1543 122.081 28.4459 120.191C32.7375 118.299 34.6836 113.287 32.7927 108.996C30.9015 104.704 25.8893 102.758 21.5977 104.649C17.3058 106.54 17.333 110.683 19.2242 114.974Z" fill="#FFD5AE"/>
<path d="M25.8181 122.322C22.5829 122.322 19.7673 119.998 17.8256 115.591C16.6788 112.988 16.2608 110.659 16.5837 108.667C16.9811 106.216 18.5018 104.343 20.9812 103.251C23.4305 102.172 26.1534 102.111 28.6487 103.079C31.1437 104.048 33.1122 105.931 34.1914 108.38C36.4193 113.436 34.1184 119.362 29.0622 121.589C27.9475 122.081 26.8609 122.322 25.8181 122.322ZM20.6229 114.359C23.431 120.731 26.7417 119.272 27.8297 118.792C29.5317 118.043 30.84 116.675 31.5131 114.941C32.1862 113.207 32.144 111.314 31.3938 109.612C30.6439 107.91 29.276 106.602 27.5421 105.929C25.8081 105.256 23.9161 105.298 22.2137 106.048C20.6856 106.722 19.8308 107.738 19.6009 109.157C19.3776 110.535 19.731 112.334 20.6229 114.359Z" fill="#FF9356"/>
<path d="M54.4316 17.0415C56.8778 11.1027 64.5097 8.13154 74.0748 8.49708C77.5929 4.22765 81.6892 0.779711 85.3144 1.67054C90.955 3.04866 91.2798 7.74991 92.4923 12.0756C96.4067 9.86161 99.9479 6.75286 104.923 9.74734C108.124 11.6679 108.604 17.0007 108.094 22.5093C115.142 28.987 118.467 36.4714 116.021 42.4101C112.14 51.8337 95.2056 53.7937 78.198 46.7885C61.191 39.7831 50.5499 26.4651 54.4316 17.0415Z" fill="#91A2B5"/>
<path d="M65.5754 21.6325C66.18 24.2409 71.3827 31.1251 82.7291 35.7986C94.0689 40.4694 102.611 39.2466 104.877 37.8208C104.877 37.8208 105.776 35.0526 106.647 31.2297C103.323 32.341 95.5594 32.7576 85.6612 28.6806C75.7565 24.6009 70.5385 18.8369 68.9615 15.707C66.8876 19.0346 65.5754 21.6325 65.5754 21.6325Z" fill="white"/>
<path d="M109.678 21.8985C110.212 14.8628 108.884 10.3405 105.712 8.43679C100.71 5.42622 96.8595 7.66772 93.4634 9.72228C92.503 5.87136 91.3478 1.57004 85.6795 0.18526C82.0857 -0.697526 77.9566 1.57752 73.3798 6.94829C63.1586 6.73751 55.5733 10.262 53.0164 16.4576C50.9192 21.5518 52.4359 27.7019 57.2872 33.7749C61.9364 39.5944 69.1567 44.7183 77.6185 48.2032C84.488 51.0329 91.5361 52.5189 97.9048 52.5189C99.3791 52.5189 100.818 52.439 102.209 52.2779C109.93 51.3832 115.336 48.085 117.434 42.9913C119.99 36.791 117.09 28.9464 109.678 21.8985ZM84.952 3.15422C88.7269 4.07639 89.5359 6.60133 90.543 10.6447C90.5968 10.8608 90.6514 11.0796 90.7069 11.2998C89.2808 12.014 87.7424 12.5315 86.0636 12.3346C85.2263 12.2383 84.4658 12.8357 84.3671 13.6739C84.2683 14.5123 84.8682 15.2716 85.7064 15.3704C88.6823 15.7204 91.1875 14.5727 93.2471 13.404C93.2471 13.404 93.2474 13.4037 93.2479 13.4037C93.8087 13.0865 94.3601 12.7528 94.8937 12.4297C98.4562 10.2731 100.809 9.0536 104.137 11.0569C108.77 13.8372 106.332 28.0303 103.612 36.7528C101.258 37.7323 93.6498 38.6434 83.311 34.3848C72.9674 30.1242 68.206 24.1178 67.225 21.7648C71.4351 13.6564 79.7002 1.86513 84.952 3.15422ZM114.607 41.8273C112.952 45.8474 108.424 48.4808 101.857 49.2415C94.9672 50.0406 86.7714 48.6677 78.7825 45.3768C70.7919 42.0861 64.0062 37.2883 59.6754 31.8671C55.5486 26.7013 54.1876 21.642 55.8423 17.6224C56.882 15.1033 59.0134 13.1486 62.1774 11.8123C64.6296 10.7767 67.6233 10.1732 70.9517 10.0293C67.0844 15.3008 64.3279 20.7117 64.212 20.9406C64.0497 21.2603 64.0053 21.6273 64.0863 21.9764C64.9153 25.555 71.0668 32.6472 82.1464 37.2109C88.2094 39.7081 93.7568 40.6278 98.0476 40.6275C101.595 40.6275 104.284 39.9988 105.691 39.1132C105.994 38.9224 106.221 38.6307 106.331 38.2892C106.41 38.0452 108.265 32.259 109.232 25.7907C114.471 31.4333 116.477 37.2914 114.607 41.8273Z" fill="#678490"/>
</svg>
