<svg width="24" height="32" viewBox="0 0 24 32" fill="none" xmlns="http://www.w3.org/2000/svg">
<path d="M21.0258 18.9191C22.2353 18.9191 23.2158 17.9386 23.2158 16.7291C23.2158 15.5196 22.2353 14.5391 21.0258 14.5391C19.8163 14.5391 18.8358 15.5196 18.8358 16.7291C18.8358 17.9386 19.8163 18.9191 21.0258 18.9191Z" fill="#FFCBBE"/>
<path d="M2.97503 18.9191C4.18454 18.9191 5.16503 17.9386 5.16503 16.7291C5.16503 15.5196 4.18454 14.5391 2.97503 14.5391C1.76553 14.5391 0.785034 15.5196 0.785034 16.7291C0.785034 17.9386 1.76553 18.9191 2.97503 18.9191Z" fill="#FFCBBE"/>
<path d="M18.1645 31.996H14.5267L12.1258 30.7688C11.4942 29.2809 11.5025 27.4169 12.015 25.7969L17.3881 26.8219C18.3668 27.8393 19.0589 29.1341 19.3364 30.5769C19.478 31.3129 18.914 31.996 18.1645 31.996Z" fill="#D7DDF5"/>
<path d="M12.1254 30.7694L11.9992 30.7051L9.47202 31.9966H5.83421C5.08477 31.9966 4.52071 31.3135 4.66239 30.5776C4.94052 29.1308 5.6359 27.8321 6.61908 26.8123C6.61908 26.8136 12.0127 25.7969 12.0127 25.7969C11.5021 27.4175 11.4938 29.2814 12.1254 30.7694Z" fill="#C5CFF1"/>
<path d="M14.5277 31.9979H12.8762C11.6414 31.3916 11.1315 30.042 11.6605 28.758L12.014 28.5391L13.4029 29.4147L14.5277 31.9979Z" fill="#7888AF"/>
<path d="M12.8753 31.9977H9.47253L10.5973 29.4146L11.6597 28.7578C11.7467 29.9754 12.1349 31.1317 12.8753 31.9977Z" fill="#687DAA"/>
<path d="M14.5268 25.6094L13.402 29.4146H11.737C10.7751 28.539 11.009 26.4548 12.0776 25.6094H14.5268Z" fill="#687DAA"/>
<path d="M11.737 29.4146H10.5973L9.47253 25.6094H12.0776C11.6623 26.8134 11.5297 28.1701 11.737 29.4146Z" fill="#5972A5"/>
<path d="M17.3899 26.8279C17.3893 26.8293 14.6361 28.0861 14.6361 28.0861C14.1499 28.3082 13.5743 28.1447 13.2775 27.6991L12.0155 25.8055C12.0767 25.6111 12.1456 25.4205 12.2216 25.2344H15.1679C16.0049 25.6265 16.7576 26.1693 17.3899 26.8279Z" fill="#F3F5FC"/>
<path d="M12.22 25.2344C12.144 25.4204 12.0751 25.6111 12.014 25.8055C12.0126 25.8036 10.7494 27.6991 10.7494 27.6991C10.4532 28.1447 9.87696 28.3082 9.39083 28.0861L6.61902 26.8203C7.24939 26.1648 7.99883 25.6246 8.83196 25.2344H12.22V25.2344Z" fill="#D7DDF5"/>
<path d="M21.0645 16.7362C21.0645 21.1557 17.9006 24.8372 13.7142 25.6382C6.37174 22.7634 4.51355 13.6531 7.83637 8.68338C9.08287 8.03694 10.4994 7.67188 12.0009 7.67188C17.0069 7.67188 21.0645 11.7302 21.0645 16.7362Z" fill="#FFDDCF"/>
<path d="M13.7124 25.6424C13.1574 25.7486 12.585 25.804 11.9991 25.804C6.99305 25.804 2.93542 21.7458 2.93542 16.7403C2.93542 13.2358 4.9243 10.1954 7.83455 8.6875C6.26424 14.3741 7.89899 21.3562 13.7124 25.6424Z" fill="#FFCBBE"/>
<path d="M22.6305 15.2409C22.0169 15.2409 21.442 15.1572 20.8992 15.0104C20.0216 12.0151 18.4125 10.7821 16.3786 10.2761C15.1772 11.4073 9.64185 11.4537 7.37097 11.0937C7.62141 8.85762 8.34066 6.72644 9.47772 4.91006C10.2864 4.71369 11.1305 4.60938 11.9991 4.60938C17.8705 4.60938 22.6305 9.36881 22.6305 15.2409Z" fill="#E4996D"/>
<path d="M9.47914 4.91406C8.34208 6.73038 7.62289 8.86156 7.37239 11.0977C6.71371 10.9934 6.32933 10.8544 6.40596 10.6986C4.95021 11.3746 3.79508 12.6443 3.09971 15.0169C2.54408 15.1901 1.97421 15.2449 1.36902 15.2449C1.36902 10.2414 4.82464 6.046 9.47914 4.91406Z" fill="#DF8A57"/>
<path d="M6.87822 20.7837C7.92208 20.7837 8.76828 20.1098 8.76828 19.2786C8.76828 18.4473 7.92208 17.7734 6.87822 17.7734C5.83437 17.7734 4.98816 18.4473 4.98816 19.2786C4.98816 20.1098 5.83437 20.7837 6.87822 20.7837Z" fill="#FFA1AC"/>
<path d="M17.1224 20.7837C18.1662 20.7837 19.0124 20.1098 19.0124 19.2786C19.0124 18.4473 18.1662 17.7734 17.1224 17.7734C16.0785 17.7734 15.2323 18.4473 15.2323 19.2786C15.2323 20.1098 16.0785 20.7837 17.1224 20.7837Z" fill="#FFA1AC"/>
<path d="M7.97839 18.3039C7.71952 18.3039 7.50964 18.094 7.50964 17.8351V17.0625C7.50964 16.8036 7.71952 16.5938 7.97839 16.5938C8.23727 16.5938 8.44714 16.8036 8.44714 17.0625V17.8351C8.44714 18.0941 8.23733 18.3039 7.97839 18.3039Z" fill="#495560"/>
<path d="M16.0214 18.3039C15.7625 18.3039 15.5526 18.094 15.5526 17.8351V17.0625C15.5526 16.8036 15.7625 16.5938 16.0214 16.5938C16.2802 16.5938 16.4901 16.8036 16.4901 17.0625V17.8351C16.4901 18.0941 16.2803 18.3039 16.0214 18.3039Z" fill="#495560"/>
<path d="M11.9994 18.7642C11.4577 18.7642 10.9425 18.5296 10.586 18.1205C10.4158 17.9253 10.4362 17.6293 10.6313 17.4592C10.8265 17.289 11.1226 17.3093 11.2927 17.5045C11.4712 17.7093 11.7287 17.8267 11.9994 17.8267C12.2701 17.8267 12.5277 17.7093 12.7061 17.5045C12.8761 17.3093 13.1722 17.289 13.3675 17.4592C13.5627 17.6292 13.583 17.9253 13.4128 18.1205C13.0563 18.5296 12.5412 18.7642 11.9994 18.7642Z" fill="#495560"/>
<path d="M23.9605 7.98131C23.9605 9.0495 23.5207 10.0597 22.7372 10.9579C19.8301 11.4569 16.7119 11.4846 11.9995 11.4846C10.9403 11.4846 9.95391 11.4678 9.0306 11.4395C5.63766 8.51575 6.11191 2.46544 9.54566 0.197C10.3376 0.068875 11.1585 0 11.9994 0C18.6055 0 23.9605 4.25338 23.9605 7.98131Z" fill="#F3F5FC"/>
<path d="M9.03113 11.4378C5.84594 11.3399 3.40313 11.1063 1.26225 10.9562C0.47869 10.058 0.0389404 9.04781 0.0389404 7.97962C0.0389404 4.72619 4.11719 1.07288 9.54625 0.195312C7.44469 3.255 7.09569 7.72788 9.03113 11.4378Z" fill="#D7DDF5"/>
<path d="M22.3101 10.9509H8.78965C7.27127 9.89819 6.82777 7.88394 7.75815 6.36987C9.00852 6.20631 10.4546 6.08594 11.9993 6.08594C14.2322 6.08594 16.1811 6.31387 17.6595 6.56687C19.9258 6.95512 21.757 8.63756 22.314 10.8685C22.3185 10.8884 22.3236 10.9077 22.3281 10.9277C22.3314 10.9394 22.3224 10.9509 22.3101 10.9509Z" fill="#7888AF"/>
<path d="M8.78959 10.9482H1.68847C1.67622 10.9482 1.66722 10.9367 1.67047 10.9251C1.67366 10.9116 1.67691 10.898 1.68016 10.8845C2.23197 8.65869 4.05728 6.97625 6.31659 6.58544C6.75891 6.50881 7.24184 6.43412 7.75822 6.36719C7.78003 7.90988 8.11359 9.47962 8.78959 10.9482Z" fill="#687DAA"/>
<path d="M22.3625 10.9531C20.628 13.497 17.748 15.0191 14.669 15.0191H11.9925C9.87685 14.3117 8.40817 12.4452 8.79117 10.9531H22.3625Z" fill="#7888AF"/>
<path d="M11.9922 15.0191H9.36008C7.82058 15.0191 6.33071 14.6386 5.00883 13.94C3.68696 13.2414 2.53321 12.2254 1.66589 10.9531H8.79089C9.48502 12.4617 10.541 13.8634 11.9922 15.0191Z" fill="#687DAA"/>
<path d="M14.2752 5.79831C14.2752 6.82594 13.7137 7.70931 12.9102 8.09625C10.8249 7.25756 10.7484 4.15188 12.1356 3.29688C13.3287 3.37356 14.2752 4.46425 14.2752 5.79831Z" fill="#F9EE80"/>
<path d="M12.909 8.09288C12.6309 8.22681 12.323 8.3015 11.9992 8.3015C10.743 8.3015 9.72449 7.17925 9.72449 5.79494C9.72449 4.41063 10.743 3.28906 11.9992 3.28906C12.0443 3.28906 12.0894 3.29031 12.1344 3.29356C11.3495 4.70294 11.497 6.75563 12.909 8.09288Z" fill="#F9D171"/>
<path d="M23.0543 10.8564C23.0543 11.123 22.9461 11.3644 22.771 11.5396C22.5965 11.7141 22.355 11.8222 22.0885 11.8222H12.2786C10.9933 11.4346 11.2011 10.1712 11.8987 9.89062H22.0885C22.6216 9.89062 23.0543 10.3227 23.0543 10.8564Z" fill="#F9EE80"/>
<path d="M12.2788 11.8222H1.9403C1.40655 11.8222 0.974487 11.3896 0.974487 10.8564C0.974487 10.5893 1.08267 10.3484 1.25717 10.1733C1.4323 9.99881 1.67311 9.89062 1.9403 9.89062H11.8989C11.644 10.4875 11.7347 11.2795 12.2788 11.8222Z" fill="#F9D171"/>
</svg>
