<svg width="33" height="32" viewBox="0 0 33 32" fill="none" xmlns="http://www.w3.org/2000/svg">
<path d="M11.464 20.452H12.176H24.289H25.842C27.035 20.452 28.124 19.703 28.55 18.589L31.221 11.615C31.563 10.723 31.444 9.721 30.903 8.934C30.361 8.147 29.468 7.677 28.513 7.677H8.28296L7.45496 5.656C6.99596 4.537 5.91796 3.814 4.70896 3.814H2.48496C1.98796 3.814 1.58496 4.217 1.58496 4.714C1.58496 5.211 1.98796 5.614 2.48496 5.614H4.70996C5.18596 5.614 5.60896 5.899 5.78996 6.339L10.865 18.724C9.66296 18.998 8.76096 20.071 8.76096 21.356C8.76096 22.846 9.97396 24.059 11.465 24.059H11.516C11.363 24.416 11.277 24.809 11.277 25.222C11.277 26.856 12.606 28.186 14.24 28.186C15.874 28.186 17.203 26.856 17.203 25.222C17.203 24.809 17.117 24.416 16.964 24.059H23.82C23.667 24.416 23.581 24.809 23.581 25.222C23.581 26.856 24.91 28.186 26.544 28.186C28.178 28.186 29.508 26.856 29.508 25.222C29.508 23.588 28.178 22.258 26.544 22.258H11.464C10.965 22.258 10.56 21.854 10.56 21.356C10.56 20.858 10.965 20.452 11.464 20.452ZM9.01996 9.477H28.513C28.881 9.477 29.211 9.651 29.419 9.954C29.627 10.257 29.671 10.627 29.54 10.971L26.869 17.945C26.707 18.368 26.294 18.651 25.842 18.651H24.289H12.779L9.01996 9.477ZM15.403 25.222C15.403 25.864 14.881 26.385 14.239 26.385C13.597 26.385 13.075 25.864 13.075 25.222C13.075 24.58 13.597 24.059 14.239 24.059C14.881 24.059 15.403 24.58 15.403 25.222ZM26.543 26.385C25.901 26.385 25.379 25.864 25.379 25.222C25.379 24.58 25.901 24.059 26.543 24.059C27.185 24.059 27.707 24.58 27.707 25.222C27.707 25.864 27.185 26.385 26.543 26.385Z" fill="white"/>
</svg>
