<svg width="51" height="32" viewBox="0 0 51 32" fill="none" xmlns="http://www.w3.org/2000/svg">
<path opacity="0.07" d="M46.3991 0.183594H3.97706C1.72339 0.183594 0 1.90699 0 4.16066V28.023C0 30.2767 1.85596 32.0001 3.97706 32.0001H46.3991C48.6528 32.0001 50.3761 30.2767 50.3761 28.023V4.16066C50.3761 1.90699 48.5202 0.183594 46.3991 0.183594Z" fill="black"/>
<path d="M46.3991 1.50977C47.8573 1.50977 49.0505 2.70288 49.0505 4.16114V28.0235C49.0505 29.4818 47.8573 30.6749 46.3991 30.6749H3.97706C2.5188 30.6749 1.32568 29.4818 1.32568 28.0235V4.16114C1.32568 2.70288 2.5188 1.50977 3.97706 1.50977H46.3991Z" fill="white"/>
<path d="M19.8853 25.3721C25.0104 25.3721 29.1651 21.2174 29.1651 16.0923C29.1651 10.9672 25.0104 6.8125 19.8853 6.8125C14.7602 6.8125 10.6055 10.9672 10.6055 16.0923C10.6055 21.2174 14.7602 25.3721 19.8853 25.3721Z" fill="#EB001B"/>
<path d="M30.4909 25.3721C35.616 25.3721 39.7707 21.2174 39.7707 16.0923C39.7707 10.9672 35.616 6.8125 30.4909 6.8125C25.3658 6.8125 21.2111 10.9672 21.2111 16.0923C21.2111 21.2174 25.3658 25.3721 30.4909 25.3721Z" fill="#F79E1B"/>
<path d="M29.1652 16.0916C29.1652 12.9099 27.5744 10.126 25.1881 8.53516C22.8019 10.2586 21.2111 13.0425 21.2111 16.0916C21.2111 19.1407 22.8019 22.0572 25.1881 23.648C27.5744 22.0572 29.1652 19.2732 29.1652 16.0916Z" fill="#FF5F00"/>
</svg>
