<svg width="25" height="25" viewBox="0 0 25 25" fill="none" xmlns="http://www.w3.org/2000/svg">
<g clip-path="url(#clip0_480_71500)">
<path d="M7.8031 6.33789V23.0165C7.05409 23.3237 6.30512 23.6308 5.5561 23.938C4.89887 23.6308 4.24158 23.3237 3.58435 23.0165V6.33789C3.58435 5.94977 3.89935 5.63477 4.28748 5.63477H7.09998C7.4881 5.63477 7.8031 5.94977 7.8031 6.33789Z" fill="#2EE6A8"/>
<path d="M11.7875 11.5234C12.0726 13.5892 12.3576 15.6549 12.6427 17.7206C12.3576 19.4855 12.0726 21.2504 11.7875 23.0153C11.3748 23.2482 10.9621 23.4811 10.5494 23.714C10.2589 23.4811 9.96854 23.2482 9.6781 23.0153V12.2266C9.6781 11.8384 9.9931 11.5234 10.3812 11.5234H11.7875Z" fill="#FFDD33"/>
<path d="M13.8969 12.2266V23.0153C13.4706 23.1917 13.0443 23.368 12.618 23.5444C12.3412 23.368 12.0643 23.1917 11.7875 23.0153V11.5234H13.1937C13.5819 11.5234 13.8969 11.8384 13.8969 12.2266Z" fill="#FFBB33"/>
<path d="M19.9906 15.2891V23.015C19.3121 23.2583 18.6336 23.5017 17.955 23.745C17.2273 23.5017 16.4996 23.2583 15.7719 23.015V15.2891C15.7719 14.9009 16.0869 14.5859 16.475 14.5859H19.2875C19.6756 14.5859 19.9906 14.9009 19.9906 15.2891Z" fill="#E62E6B"/>
<path d="M11.7875 23.0156C12.0296 23.277 12.2717 23.5384 12.5138 23.7998C12.2716 24.0072 12.0295 24.2145 11.7875 24.4219H1.00623C0.618101 24.4219 0.303101 24.1069 0.303101 23.7188V1.125C0.303101 0.736875 0.618101 0.421875 1.00623 0.421875C1.39435 0.421875 1.70935 0.736875 1.70935 1.125V23.0156H11.7875Z" fill="#574D8C"/>
<path d="M24.3031 23.7188C24.3031 24.1069 23.9881 24.4219 23.6 24.4219H11.7875V23.0156H23.6C23.9881 23.0156 24.3031 23.3306 24.3031 23.7188Z" fill="#3D2866"/>
<path d="M18.9594 0.421875C19.2953 2.11003 19.6312 3.79819 19.9672 5.48639C19.6312 7.36069 19.2953 9.23503 18.9594 11.1094C16.0278 11.1094 13.6156 8.69714 13.6156 5.76562C13.6156 2.83411 16.0278 0.421875 18.9594 0.421875Z" fill="#2EE6A8"/>
<path d="M24.3031 5.76562C24.3031 8.69714 21.8909 11.1094 18.9594 11.1094V0.421875C21.8909 0.421875 24.3031 2.83411 24.3031 5.76562Z" fill="#24B383"/>
<path d="M18.9594 6.89064C19.1156 7.10941 19.2719 7.32813 19.4281 7.54689C19.2719 7.79688 19.1156 8.04691 18.9594 8.29689C18.8345 8.29558 18.66 8.28761 18.4572 8.24599C17.9673 8.14535 17.5136 7.89789 17.1462 7.52486C16.8734 7.2483 16.8767 6.80299 17.1533 6.53064C17.4298 6.25783 17.8751 6.26111 18.1475 6.53767C18.372 6.76549 18.6603 6.89064 18.9594 6.89064Z" fill="#24B383"/>
<path d="M20.7725 7.52486C20.2822 8.02267 19.6381 8.29689 18.9594 8.29689V6.89064C19.2584 6.89064 19.5467 6.76549 19.7712 6.53767C20.0436 6.26111 20.4889 6.25783 20.7654 6.53064C21.042 6.80299 21.0453 7.2483 20.7725 7.52486Z" fill="#19805D"/>
</g>
<defs>
<clipPath id="clip0_480_71500">
<rect width="24" height="24" fill="white" transform="translate(0.303101 0.421875)"/>
</clipPath>
</defs>
</svg>
