<svg width="33" height="32" viewBox="0 0 33 32" fill="none" xmlns="http://www.w3.org/2000/svg">
<g clip-path="url(#clip0_472_15317)">
<path d="M4.19065 24.9587C3.12137 24.9587 2.07672 24.6858 1.12996 24.1542C0.642847 23.9033 0.454178 23.2757 0.745181 22.8035C1.71205 21.2585 2.06119 19.3699 1.61851 17.5938C1.15967 15.7525 0.495761 14.2017 0.500514 12.2525C0.516989 5.41374 6.20914 -0.130368 13.0409 0.00230197C19.6396 0.13521 25.0778 5.68217 25.0779 12.2826C25.0779 20.9028 16.0439 26.955 8.06835 23.6262C6.96904 24.489 5.58729 24.9587 4.19065 24.9587ZM2.89135 22.854C4.39373 23.3206 6.08344 22.9479 7.24199 21.8278C7.52745 21.5518 7.95445 21.4823 8.31262 21.6536C15.1407 24.9183 23.1769 19.8012 23.1768 12.2826C23.1768 6.67209 18.6127 2.0158 13.0027 1.90285C7.22124 1.788 2.4154 6.47036 2.40146 12.2571C2.39695 14.1085 3.11931 15.5882 3.51407 17.342C3.92998 19.1903 3.7109 21.1448 2.89135 22.854Z" fill="white"/>
<path d="M28.8094 32C27.4128 32 26.031 31.5303 24.9319 30.6676C20.6904 32.4378 15.6451 31.6316 12.1674 28.6283C11.7701 28.2852 11.7262 27.685 12.0692 27.2876C12.4124 26.8904 13.0125 26.8464 13.4098 27.1896C16.4943 29.8533 21.0115 30.4525 24.6875 28.6951C25.0456 28.5236 25.4725 28.5932 25.7581 28.8692C26.9166 29.9892 28.6064 30.3622 30.1088 29.8953C29.142 27.8788 29.008 25.5686 29.7572 23.4299C29.764 23.4107 29.7713 23.3917 29.7793 23.3729C30.3264 22.083 30.6021 20.7121 30.5987 19.2984C30.5927 16.806 29.7636 14.5004 28.2008 12.6307C27.8642 12.2279 27.9178 11.6285 28.3206 11.2919C28.7233 10.9552 29.3228 11.0089 29.6594 11.4116C31.484 13.5946 32.4927 16.3939 32.4997 19.2938C32.5037 20.9549 32.1814 22.5669 31.5418 24.0857C30.87 26.0305 31.179 28.1127 32.2549 29.8447C32.5461 30.317 32.3573 30.9447 31.87 31.1957C30.9234 31.7271 29.8785 31.9999 28.8094 32Z" fill="white"/>
<path d="M12.7891 13.8331C13.6197 13.8331 14.2931 13.1601 14.2931 12.33C14.2931 11.4998 13.6197 10.8268 12.7891 10.8268C11.9585 10.8268 11.2852 11.4998 11.2852 12.33C11.2852 13.1601 11.9585 13.8331 12.7891 13.8331Z" fill="white"/>
<path d="M7.24811 13.8331C8.07872 13.8331 8.75207 13.1601 8.75207 12.33C8.75207 11.4998 8.07872 10.8268 7.24811 10.8268C6.41749 10.8268 5.74414 11.4998 5.74414 12.33C5.74414 13.1601 6.41749 13.8331 7.24811 13.8331Z" fill="white"/>
<path d="M18.3301 13.8331C19.1608 13.8331 19.8341 13.1601 19.8341 12.33C19.8341 11.4998 19.1608 10.8268 18.3301 10.8268C17.4995 10.8268 16.8262 11.4998 16.8262 12.33C16.8262 13.1601 17.4995 13.8331 18.3301 13.8331Z" fill="white"/>
</g>
<defs>
<clipPath id="clip0_472_15317">
<rect width="32" height="32" fill="white" transform="translate(0.5)"/>
</clipPath>
</defs>
</svg>
