<svg width="376" height="387" viewBox="0 0 376 387" fill="none" xmlns="http://www.w3.org/2000/svg">
<path d="M210.813 344.398C210.813 344.398 265.226 231.926 270.479 215.264C275.633 198.601 278.606 194.138 285.247 194.436C291.788 194.733 298.924 198.8 295.852 202.073C295.852 202.073 305.168 199.097 307.051 202.965C309.034 206.734 304.871 212.487 304.871 212.487C304.871 212.487 309.727 216.255 308.637 221.611C307.646 226.967 304.97 225.975 304.97 225.975C304.97 225.975 307.943 233.315 300.51 238.075C296.05 240.852 287.328 233.91 287.328 233.91L223.995 348.266L210.813 344.398Z" fill="#FFA585"/>
<path d="M284.751 263.069C282.372 279.037 280.291 294.014 278.606 306.907C276.921 319.701 275.434 330.413 274.443 337.951C273.551 345.489 273.056 349.753 273.056 349.753C272.857 351.142 273.848 352.332 275.137 352.53C276.425 352.63 277.615 351.836 277.912 350.547C277.912 350.547 278.705 346.282 280.093 338.843C281.48 331.405 283.462 320.792 285.841 307.998C288.121 295.303 290.797 280.426 293.473 264.358C295.257 254.044 296.744 245.216 298.528 234.207C295.257 233.215 292.581 230.835 289.806 228.852C287.922 241.15 286.337 251.465 284.751 263.069Z" fill="#E0A326"/>
<path d="M318.847 74.6247C317.558 74.5255 316.468 75.4182 316.17 76.6083C316.17 76.6083 315.972 77.6993 315.477 79.5838C315.08 81.5674 314.386 84.5428 313.693 88.2125C312.9 91.9814 312.008 96.4446 310.917 101.602C309.926 106.759 308.737 112.611 307.647 118.959C306.457 125.405 305.169 132.249 303.88 139.588C303.286 143.225 302.658 146.994 301.997 150.895C301.337 154.73 300.676 158.631 300.015 162.598C298.231 173.806 296.447 185.608 294.564 197.51C299.718 201.477 293.077 202.866 293.672 203.461C298.033 202.271 300.709 201.378 303.98 201.081C305.962 188.981 308.142 175.69 309.827 164.185C310.422 160.152 311.017 156.218 311.611 152.383C312.206 148.548 312.768 144.779 313.296 141.076C314.386 133.737 315.278 126.794 316.071 120.347C316.963 113.9 317.657 108.049 318.351 102.792C318.946 97.5356 319.441 92.9732 319.838 89.2044C320.234 85.4355 320.531 82.46 320.73 80.4764C320.928 78.3936 321.027 77.4018 321.027 77.4018C321.126 76.0133 320.135 74.8231 318.847 74.6247Z" fill="#E0A326"/>
<path d="M285.346 207.33C290.103 206.537 294.662 204.652 297.041 199.991C297.041 199.891 296.942 199.693 296.843 199.892C292.383 204.652 286.436 205.842 280.192 206.437C279.3 206.537 279.3 207.925 280.192 207.925C281.579 207.826 283.066 207.628 284.553 207.429C283.661 209.215 283.363 211.793 284.652 213.182C285.048 213.579 285.643 213.182 285.544 212.686C285.246 210.801 285.246 209.115 285.346 207.33Z" fill="#D67550"/>
<path d="M306.456 225.877C303.086 224.191 299.32 223.298 296.446 220.719C292.283 217.05 302.69 213.777 305.069 212.686C305.564 212.487 305.366 211.892 305.069 211.694C305.135 211.628 305.201 211.562 305.267 211.496V211.396C305.135 211.463 305.003 211.529 304.87 211.595C304.738 211.529 304.573 211.529 304.375 211.595C304.177 211.727 303.978 211.859 303.78 211.992C300.807 213.083 297.734 213.975 294.563 213.876C292.085 213.777 289.805 212.289 291.094 209.413C291.788 207.925 293.175 206.834 294.067 205.644C294.265 205.247 293.869 204.85 293.572 205.049C291.094 206.735 286.832 211.396 290.499 214.074C292.085 215.165 293.671 215.562 295.356 215.463C293.968 216.554 292.977 217.942 293.373 220.025C293.671 222.207 295.157 223.596 297.14 224.588C296.083 224.455 295.058 224.389 294.067 224.389C292.184 224.29 289.31 224.687 288.715 226.77C287.526 231.034 294.265 233.415 297.239 234.406C298.329 234.704 298.726 233.117 297.734 232.72C296.446 232.324 287.427 228.257 291.49 226.472C292.977 225.877 294.959 226.174 296.545 226.274C299.221 226.373 301.897 226.472 304.573 226.373C305.168 226.439 305.729 226.472 306.258 226.472C306.655 226.472 306.754 226.075 306.456 225.877Z" fill="#D67550"/>
<path d="M270.776 214.271C270.677 214.569 270.578 214.867 270.479 215.263C266.811 227.066 238.465 286.773 222.211 320.693C226.274 319.205 230.239 317.321 234.005 314.94C238.961 311.866 243.817 308.394 248.277 304.328L275.137 255.928C276.624 242.042 274.047 227.859 270.776 214.271Z" fill="#D67550"/>
<path d="M82.6596 212.784C79.9836 195.725 77.4067 178.666 74.7306 162.598C74.1359 158.631 73.5082 154.73 72.8475 150.895C72.1867 146.994 71.526 143.225 70.8652 139.588C69.6759 132.249 68.3874 125.405 67.198 118.959C66.1078 112.611 64.9184 106.759 63.9273 101.602C62.8371 96.4446 61.9451 91.9814 61.1522 88.2125C60.4584 84.5428 59.7646 81.5674 59.3681 79.5838C58.8726 77.6993 58.6743 76.6083 58.6743 76.6083C58.377 75.4182 57.2868 74.5255 55.9983 74.6247C54.7098 74.8231 53.6196 76.0133 53.8178 77.4018C53.8178 77.4018 53.9169 78.3936 54.1152 80.4764C54.3134 82.46 54.6107 85.4355 55.0072 89.2044C55.4036 92.9732 55.8992 97.5356 56.4939 102.792C57.1877 108.049 57.8814 113.9 58.7735 120.347C59.5664 126.794 60.4584 133.737 61.5486 141.076C62.0772 144.779 62.6389 148.548 63.2335 152.383C63.7621 156.218 64.3568 160.152 65.0176 164.185C67.3963 180.253 70.2705 197.213 72.9466 214.371C73.6073 218.074 74.235 221.81 74.8297 225.578C77.6049 223.396 80.6774 221.413 83.6508 219.628C83.3204 217.313 82.99 215.032 82.6596 212.784Z" fill="#E0A326"/>
<path d="M0 19.3806C0 19.3806 198.919 -31.1026 375.637 30.8856L357.103 124.81C178.304 75.2196 20.1199 128.083 20.1199 128.083L0 19.3806Z" fill="white"/>
<path opacity="0.1" d="M70.8656 91.0888C30.7249 90.097 0 19.3809 0 19.3809L20.1199 128.083C20.1199 128.083 178.304 75.2198 357.103 124.81C357.103 124.81 264.334 96.1471 70.8656 91.0888Z" fill="#B3D2FF"/>
<path d="M154.913 332.1L93.9591 255.135C93.9591 255.135 104.465 244.721 104.663 237.382C104.961 230.042 96.2387 229.447 96.2387 229.447C96.2387 229.447 96.536 212.586 89.7964 211.694C82.9576 210.9 55.9989 236.786 56.1971 244.721C56.4945 252.655 145.299 344.001 145.299 344.001L154.913 332.1Z" fill="#FFA585"/>
<path d="M101.788 349.753C101.788 349.753 101.293 345.488 100.401 337.95C99.4098 330.413 97.9231 319.701 96.2382 306.907C94.5533 294.013 92.4719 279.037 90.0932 263.069C89.7628 260.82 89.4324 258.572 89.1021 256.324C86.426 258.109 83.5517 259.002 80.4792 259.498C80.8096 261.151 81.107 262.771 81.3713 264.358C84.0473 280.425 86.7234 295.302 89.0029 307.998C91.3817 320.792 93.3639 331.404 94.7515 338.843C96.1391 346.282 96.932 350.546 96.932 350.546C97.2293 351.836 98.4187 352.629 99.7071 352.53C100.996 352.332 101.987 351.141 101.788 349.753Z" fill="#E0A326"/>
<path d="M99.3115 237.48C99.1133 235.397 97.8248 234.107 95.8426 233.413C96.4372 231.628 96.3381 229.843 96.0408 228.057C95.9417 227.958 95.7435 227.958 95.7435 228.157C95.5452 229.843 95.2479 231.429 94.5541 233.016C90.3914 231.925 84.7419 232.62 82.2641 232.818C81.9668 232.818 81.9668 233.215 82.2641 233.314C86.8233 233.512 92.4727 233.215 96.5364 235.397C100.204 237.48 97.0319 241.943 95.347 243.827C93.6621 245.811 91.2834 247.398 88.7065 247.596C85.1384 244.323 78.5969 243.43 74.5333 242.637C74.3351 242.637 74.236 242.835 74.4342 242.934C78.4978 244.521 82.9579 245.612 86.6251 248.092C89.7967 250.175 90.4905 253.844 87.6162 256.622C84.5437 259.597 81.0748 259.399 77.1103 258.903C75.7227 258.704 75.5245 260.688 76.912 260.688C82.5615 260.688 93.0674 259.399 90.8869 251.167C90.6887 250.307 90.3253 249.514 89.7967 248.786C94.6532 247.398 99.9062 242.736 99.3115 237.48Z" fill="#D67550"/>
<path d="M103.87 267.631C99.6085 276.16 97.8244 284.69 97.5271 293.715C105.952 302.84 114.574 311.965 122.206 319.899C128.549 318.114 135.19 315.833 139.551 312.758L103.87 267.631Z" fill="#D67550"/>
<path d="M69.4884 45.4C68.5084 45.4 67.5684 44.82 66.6684 43.66C65.7884 42.52 65.0784 40.99 64.5384 39.07C64.1584 37.65 63.7684 35.94 63.3684 33.94C62.9884 31.94 62.6384 29.69 62.3184 27.19C62.0184 24.69 61.7984 22 61.6584 19.12L66.8184 18.88C66.9184 20.74 67.0484 22.58 67.2084 24.4C67.3884 26.22 67.5884 27.94 67.8084 29.56C68.0284 31.18 68.2584 32.64 68.4984 33.94C68.7584 35.22 69.0084 36.26 69.2484 37.06C69.3084 37.24 69.3484 37.38 69.3684 37.48C69.4084 37.58 69.4384 37.65 69.4584 37.69C69.4784 37.61 69.5084 37.48 69.5484 37.3C69.6084 37.12 69.6684 36.93 69.7284 36.73C70.0284 35.67 70.3584 34.27 70.7184 32.53C71.0984 30.79 71.4484 28.84 71.7684 26.68C72.0884 24.52 72.3384 22.28 72.5184 19.96C72.4984 19.8 72.4884 19.64 72.4884 19.48L77.8284 19.45C78.0084 22.47 78.2384 25.07 78.5184 27.25C78.7984 29.43 79.0984 31.29 79.4184 32.83C79.7584 34.35 80.0684 35.65 80.3484 36.73C80.3684 36.79 80.3884 36.88 80.4084 37C80.4484 37.1 80.4784 37.2 80.4984 37.3C80.5384 37.2 80.5784 37.08 80.6184 36.94C80.6584 36.78 80.6984 36.61 80.7384 36.43C80.9784 35.57 81.2184 34.49 81.4584 33.19C81.7184 31.87 81.9584 30.42 82.1784 28.84C82.4184 27.26 82.6284 25.63 82.8084 23.95C83.0084 22.27 83.1784 20.64 83.3184 19.06H88.5984C88.5184 20.38 88.3784 21.79 88.1784 23.29C87.9984 24.79 87.7884 26.31 87.5484 27.85C87.3084 29.39 87.0484 30.88 86.7684 32.32C86.5084 33.74 86.2384 35.05 85.9584 36.25C85.6984 37.45 85.4584 38.45 85.2384 39.25C84.6984 41.17 84.0084 42.67 83.1684 43.75C82.3484 44.83 81.4684 45.37 80.5284 45.37C79.5484 45.37 78.7084 44.96 78.0084 44.14C77.3284 43.32 76.6384 41.93 75.9384 39.97C75.7584 39.47 75.5684 38.84 75.3684 38.08C75.1884 37.32 74.9984 36.48 74.7984 35.56C74.5384 36.68 74.2884 37.69 74.0484 38.59C73.8284 39.47 73.6284 40.19 73.4484 40.75C73.0684 41.91 72.6884 42.83 72.3084 43.51C71.9284 44.19 71.5184 44.67 71.0784 44.95C70.6384 45.25 70.1084 45.4 69.4884 45.4ZM100.225 45.4C98.3046 45.4 96.6146 45.02 95.1546 44.26C93.7146 43.52 92.5846 42.48 91.7646 41.14C90.9646 39.8 90.5646 38.25 90.5646 36.49C90.5646 35.43 90.7446 34.32 91.1046 33.16C91.4646 31.98 92.0446 30.88 92.8446 29.86C93.6446 28.84 94.6946 28.01 95.9946 27.37C97.3146 26.73 98.9146 26.41 100.795 26.41C102.155 26.41 103.295 26.56 104.215 26.86C105.155 27.16 105.915 27.55 106.495 28.03C107.095 28.51 107.545 29.02 107.845 29.56C108.165 30.1 108.375 30.62 108.475 31.12C108.595 31.6 108.655 32 108.655 32.32C108.655 34.26 107.835 35.76 106.195 36.82C104.575 37.86 102.275 38.38 99.2946 38.38C98.6146 38.38 97.9646 38.35 97.3446 38.29C96.7446 38.23 96.1846 38.16 95.6646 38.08C96.0446 39.08 96.6746 39.82 97.5546 40.3C98.4346 40.76 99.3446 40.99 100.285 40.99C101.645 40.99 102.845 40.75 103.885 40.27C104.925 39.77 105.905 39.01 106.825 37.99L109.495 41.83C108.855 42.35 108.135 42.89 107.335 43.45C106.555 44.01 105.595 44.47 104.455 44.83C103.315 45.21 101.905 45.4 100.225 45.4ZM100.885 30.91C99.7046 30.91 98.6646 31.21 97.7646 31.81C96.8646 32.41 96.2046 33.2 95.7846 34.18C96.2846 34.26 96.7746 34.33 97.2546 34.39C97.7546 34.43 98.2446 34.45 98.7246 34.45C99.1646 34.45 99.6646 34.41 100.225 34.33C100.805 34.25 101.365 34.13 101.905 33.97C102.465 33.81 102.925 33.61 103.285 33.37C103.645 33.11 103.825 32.81 103.825 32.47C103.825 32.31 103.745 32.11 103.585 31.87C103.425 31.63 103.135 31.41 102.715 31.21C102.295 31.01 101.685 30.91 100.885 30.91ZM117.669 45.37C116.569 45.37 115.659 45.13 114.939 44.65C114.239 44.19 113.679 43.55 113.259 42.73C112.859 41.91 112.559 40.97 112.359 39.91C112.179 38.85 112.059 37.72 111.999 36.52C111.959 35.3 111.939 34.08 111.939 32.86C111.939 31.8 111.969 30.64 112.029 29.38C112.089 28.1 112.159 26.81 112.239 25.51C112.339 24.19 112.439 22.95 112.539 21.79C112.659 20.63 112.769 19.62 112.869 18.76L118.299 18.82C118.139 19.84 117.989 21 117.849 22.3C117.709 23.58 117.589 24.88 117.489 26.2C117.409 27.52 117.339 28.74 117.279 29.86C117.239 30.98 117.219 31.87 117.219 32.53C117.219 34.35 117.249 35.78 117.309 36.82C117.389 37.86 117.499 38.6 117.639 39.04C117.799 39.46 118.009 39.67 118.269 39.67C118.609 39.67 118.979 39.46 119.379 39.04C119.779 38.6 120.169 38.11 120.549 37.57L123.099 42.64C122.479 43.32 121.739 43.94 120.879 44.5C120.019 45.08 118.949 45.37 117.669 45.37ZM134.496 45.43C132.816 45.43 131.266 45.08 129.846 44.38C128.426 43.68 127.286 42.68 126.426 41.38C125.566 40.06 125.136 38.49 125.136 36.67C125.136 34.63 125.536 32.84 126.336 31.3C127.136 29.76 128.256 28.57 129.696 27.73C131.136 26.87 132.816 26.44 134.736 26.44C136.576 26.44 138.136 26.82 139.416 27.58C140.696 28.32 141.836 29.5 142.836 31.12L138.666 34C138.106 33.1 137.536 32.42 136.956 31.96C136.376 31.48 135.586 31.24 134.586 31.24C133.226 31.24 132.126 31.72 131.286 32.68C130.446 33.62 130.026 34.88 130.026 36.46C130.026 37.38 130.246 38.13 130.686 38.71C131.146 39.29 131.706 39.72 132.366 40C133.026 40.28 133.646 40.42 134.226 40.42C134.826 40.42 135.406 40.35 135.966 40.21C136.526 40.05 137.056 39.71 137.556 39.19C138.056 38.67 138.506 37.88 138.906 36.82L143.406 39.22C142.806 40.32 142.136 41.34 141.396 42.28C140.656 43.22 139.736 43.98 138.636 44.56C137.556 45.14 136.176 45.43 134.496 45.43ZM154.303 45.46C152.703 45.46 151.303 45.2 150.103 44.68C148.923 44.16 147.943 43.45 147.163 42.55C146.383 41.63 145.803 40.58 145.423 39.4C145.043 38.22 144.853 36.98 144.853 35.68C144.853 34.36 145.083 33.14 145.543 32.02C146.023 30.88 146.673 29.89 147.493 29.05C148.333 28.21 149.313 27.56 150.433 27.1C151.553 26.62 152.773 26.38 154.093 26.38C155.473 26.38 156.753 26.62 157.933 27.1C159.113 27.58 160.143 28.25 161.023 29.11C161.903 29.97 162.583 30.98 163.063 32.14C163.563 33.3 163.813 34.56 163.813 35.92C163.813 38.94 162.983 41.29 161.323 42.97C159.663 44.63 157.323 45.46 154.303 45.46ZM154.273 40.6C155.733 40.6 156.843 40.19 157.603 39.37C158.383 38.55 158.773 37.37 158.773 35.83C158.773 34.45 158.353 33.34 157.513 32.5C156.673 31.66 155.573 31.24 154.213 31.24C153.393 31.24 152.643 31.46 151.963 31.9C151.283 32.32 150.733 32.89 150.313 33.61C149.913 34.31 149.713 35.09 149.713 35.95C149.713 36.71 149.863 37.45 150.163 38.17C150.483 38.89 150.983 39.48 151.663 39.94C152.343 40.38 153.213 40.6 154.273 40.6ZM166.165 45.34C166.145 45.04 166.125 44.54 166.105 43.84C166.085 43.16 166.065 42.34 166.045 41.38C166.025 40.42 166.015 39.39 166.015 38.29C166.015 37.17 166.015 36.05 166.015 34.93C166.015 33.69 166.015 32.51 166.015 31.39C166.035 30.27 166.045 29.3 166.045 28.48C166.065 27.66 166.075 27.07 166.075 26.71L171.145 26.62C171.105 27.18 171.075 27.86 171.055 28.66C171.575 27.96 172.175 27.41 172.855 27.01C173.535 26.61 174.315 26.41 175.195 26.41C176.255 26.41 177.125 26.72 177.805 27.34C178.505 27.96 179.075 28.77 179.515 29.77C180.955 27.53 182.725 26.41 184.825 26.41C186.005 26.41 186.975 26.67 187.735 27.19C188.515 27.69 189.125 28.37 189.565 29.23C190.005 30.09 190.325 31.06 190.525 32.14C190.745 33.22 190.885 34.33 190.945 35.47C191.005 36.61 191.035 37.71 191.035 38.77C191.035 40.03 191.015 41.18 190.975 42.22C190.935 43.26 190.925 44.25 190.945 45.19H185.755C185.755 44.71 185.755 44.1 185.755 43.36C185.755 42.64 185.755 41.91 185.755 41.17C185.775 40.41 185.785 39.76 185.785 39.22C185.785 38.66 185.785 38.33 185.785 38.23C185.785 37.03 185.755 35.9 185.695 34.84C185.635 33.78 185.485 32.92 185.245 32.26C185.005 31.6 184.615 31.27 184.075 31.27C183.555 31.27 183.095 31.52 182.695 32.02C182.295 32.52 181.935 33.17 181.615 33.97C181.315 34.77 181.055 35.62 180.835 36.52C180.875 37.3 180.905 38.08 180.925 38.86C180.945 39.62 180.955 40.36 180.955 41.08C180.955 41.9 180.945 42.61 180.925 43.21C180.925 43.83 180.925 44.49 180.925 45.19H175.885C175.885 43.57 175.875 42.14 175.855 40.9C175.835 39.66 175.795 38.46 175.735 37.3C175.635 35.22 175.415 33.7 175.075 32.74C174.755 31.76 174.305 31.27 173.725 31.27C173.085 31.27 172.545 31.66 172.105 32.44C171.665 33.2 171.305 34.13 171.025 35.23C171.045 36.83 171.085 38.5 171.145 40.24C171.205 41.98 171.285 43.66 171.385 45.28L166.165 45.34ZM202.705 45.4C200.785 45.4 199.095 45.02 197.635 44.26C196.195 43.52 195.065 42.48 194.245 41.14C193.445 39.8 193.045 38.25 193.045 36.49C193.045 35.43 193.225 34.32 193.585 33.16C193.945 31.98 194.525 30.88 195.325 29.86C196.125 28.84 197.175 28.01 198.475 27.37C199.795 26.73 201.395 26.41 203.275 26.41C204.635 26.41 205.775 26.56 206.695 26.86C207.635 27.16 208.395 27.55 208.975 28.03C209.575 28.51 210.025 29.02 210.325 29.56C210.645 30.1 210.855 30.62 210.955 31.12C211.075 31.6 211.135 32 211.135 32.32C211.135 34.26 210.315 35.76 208.675 36.82C207.055 37.86 204.755 38.38 201.775 38.38C201.095 38.38 200.445 38.35 199.825 38.29C199.225 38.23 198.665 38.16 198.145 38.08C198.525 39.08 199.155 39.82 200.035 40.3C200.915 40.76 201.825 40.99 202.765 40.99C204.125 40.99 205.325 40.75 206.365 40.27C207.405 39.77 208.385 39.01 209.305 37.99L211.975 41.83C211.335 42.35 210.615 42.89 209.815 43.45C209.035 44.01 208.075 44.47 206.935 44.83C205.795 45.21 204.385 45.4 202.705 45.4ZM203.365 30.91C202.185 30.91 201.145 31.21 200.245 31.81C199.345 32.41 198.685 33.2 198.265 34.18C198.765 34.26 199.255 34.33 199.735 34.39C200.235 34.43 200.725 34.45 201.205 34.45C201.645 34.45 202.145 34.41 202.705 34.33C203.285 34.25 203.845 34.13 204.385 33.97C204.945 33.81 205.405 33.61 205.765 33.37C206.125 33.11 206.305 32.81 206.305 32.47C206.305 32.31 206.225 32.11 206.065 31.87C205.905 31.63 205.615 31.41 205.195 31.21C204.775 31.01 204.165 30.91 203.365 30.91ZM221.425 45.16C221.425 43.52 221.455 41.76 221.515 39.88C221.575 38 221.655 36.09 221.755 34.15C221.855 32.21 221.955 30.31 222.055 28.45C222.175 26.59 222.295 24.84 222.415 23.2C222.535 21.54 222.635 20.07 222.715 18.79L227.725 18.85C227.605 19.99 227.485 21.27 227.365 22.69C227.265 24.11 227.165 25.62 227.065 27.22C227.645 26.98 228.265 26.8 228.925 26.68C229.605 26.54 230.335 26.47 231.115 26.47C232.175 26.47 233.185 26.65 234.145 27.01C235.125 27.35 236.005 27.88 236.785 28.6C237.565 29.32 238.175 30.25 238.615 31.39C239.075 32.53 239.305 33.9 239.305 35.5C239.305 37.2 239.065 38.67 238.585 39.91C238.105 41.15 237.455 42.17 236.635 42.97C235.815 43.77 234.885 44.36 233.845 44.74C232.825 45.14 231.775 45.34 230.695 45.34C229.875 45.34 229.105 45.23 228.385 45.01C227.685 44.79 227.035 44.5 226.435 44.14C226.435 44.46 226.435 44.78 226.435 45.1L221.425 45.16ZM230.425 31.51C228.925 31.51 227.705 31.95 226.765 32.83C226.685 34.67 226.615 36.47 226.555 38.23C227.535 39.53 228.905 40.18 230.665 40.18C231.245 40.18 231.825 40.05 232.405 39.79C233.005 39.51 233.505 39.04 233.905 38.38C234.305 37.72 234.505 36.8 234.505 35.62C234.505 34.28 234.155 33.26 233.455 32.56C232.775 31.86 231.765 31.51 230.425 31.51ZM248.87 45.37C247.37 45.37 246.01 44.98 244.79 44.2C243.57 43.44 242.6 42.41 241.88 41.11C241.18 39.79 240.83 38.32 240.83 36.7C240.83 35.18 241.11 33.81 241.67 32.59C242.23 31.35 242.99 30.29 243.95 29.41C244.93 28.53 246.04 27.86 247.28 27.4C248.52 26.92 249.82 26.68 251.18 26.68C252.32 26.68 253.44 26.84 254.54 27.16C254.62 26.74 254.69 26.32 254.75 25.9L259.88 26.77C259.74 27.15 259.6 27.72 259.46 28.48C259.32 29.24 259.2 30.09 259.1 31.03C259.02 31.97 258.95 32.91 258.89 33.85C258.83 34.79 258.8 35.64 258.8 36.4C258.8 37.02 258.84 37.63 258.92 38.23C259.02 38.81 259.22 39.29 259.52 39.67C259.82 40.03 260.28 40.21 260.9 40.21H261.32L260.57 45.43C259.25 45.43 258.16 45.2 257.3 44.74C256.44 44.3 255.75 43.7 255.23 42.94C254.37 43.9 253.39 44.54 252.29 44.86C251.19 45.2 250.05 45.37 248.87 45.37ZM245.75 37.3C245.85 38.26 246.24 39.03 246.92 39.61C247.62 40.17 248.5 40.45 249.56 40.45C250.58 40.45 251.43 40.18 252.11 39.64C252.79 39.08 253.35 38.32 253.79 37.36C253.77 37.04 253.76 36.71 253.76 36.37C253.76 35.67 253.78 34.95 253.82 34.21C253.86 33.47 253.91 32.74 253.97 32.02C253.13 31.7 252.25 31.54 251.33 31.54C250.25 31.54 249.28 31.76 248.42 32.2C247.58 32.62 246.92 33.21 246.44 33.97C245.96 34.73 245.72 35.61 245.72 36.61C245.72 36.73 245.72 36.85 245.72 36.97C245.72 37.09 245.73 37.2 245.75 37.3ZM272.016 45.43C270.336 45.43 268.786 45.08 267.366 44.38C265.946 43.68 264.806 42.68 263.946 41.38C263.086 40.06 262.656 38.49 262.656 36.67C262.656 34.63 263.056 32.84 263.856 31.3C264.656 29.76 265.776 28.57 267.216 27.73C268.656 26.87 270.336 26.44 272.256 26.44C274.096 26.44 275.656 26.82 276.936 27.58C278.216 28.32 279.356 29.5 280.356 31.12L276.186 34C275.626 33.1 275.056 32.42 274.476 31.96C273.896 31.48 273.106 31.24 272.106 31.24C270.746 31.24 269.646 31.72 268.806 32.68C267.966 33.62 267.546 34.88 267.546 36.46C267.546 37.38 267.766 38.13 268.206 38.71C268.666 39.29 269.226 39.72 269.886 40C270.546 40.28 271.166 40.42 271.746 40.42C272.346 40.42 272.926 40.35 273.486 40.21C274.046 40.05 274.576 39.71 275.076 39.19C275.576 38.67 276.026 37.88 276.426 36.82L280.926 39.22C280.326 40.32 279.656 41.34 278.916 42.28C278.176 43.22 277.256 43.98 276.156 44.56C275.076 45.14 273.696 45.43 272.016 45.43ZM283.123 45.19C283.043 44.23 282.973 43 282.913 41.5C282.873 40 282.853 38.37 282.853 36.61C282.853 35.05 282.863 33.44 282.883 31.78C282.923 30.12 282.973 28.49 283.033 26.89C283.113 25.27 283.193 23.76 283.273 22.36C283.373 20.94 283.483 19.7 283.603 18.64L288.823 19C288.543 21.04 288.323 23.11 288.163 25.21C288.023 27.29 287.933 29.41 287.893 31.57C289.013 30.79 290.313 29.97 291.793 29.11C293.293 28.23 295.093 27.24 297.193 26.14L300.013 30.85C297.853 31.53 295.943 32.31 294.283 33.19C292.623 34.05 291.263 34.92 290.203 35.8C290.003 35.94 289.873 36.04 289.813 36.1C289.753 36.16 289.723 36.2 289.723 36.22C289.723 36.34 290.053 36.56 290.713 36.88C291.593 37.34 292.503 37.79 293.443 38.23C294.383 38.67 295.433 39.12 296.593 39.58C297.753 40.02 299.083 40.49 300.583 40.99L298.513 45.43C296.693 44.89 294.873 44.21 293.053 43.39C291.233 42.57 289.583 41.74 288.103 40.9C288.123 41.58 288.153 42.27 288.193 42.97C288.253 43.67 288.303 44.37 288.343 45.07L283.123 45.19ZM304.328 47.44L301.688 45.91C302.148 45.71 302.598 45.48 303.038 45.22C303.478 44.96 303.808 44.65 304.028 44.29H303.878C303.518 44.29 303.138 44.2 302.738 44.02C302.358 43.84 302.028 43.56 301.748 43.18C301.488 42.8 301.358 42.32 301.358 41.74C301.358 41.3 301.468 40.84 301.688 40.36C301.928 39.88 302.298 39.47 302.798 39.13C303.318 38.77 304.008 38.59 304.868 38.59C305.968 38.59 306.748 38.89 307.208 39.49C307.688 40.09 307.928 40.85 307.928 41.77C307.928 42.29 307.798 42.91 307.538 43.63C307.298 44.37 306.908 45.09 306.368 45.79C305.848 46.49 305.168 47.04 304.328 47.44ZM111.919 87.13C111.859 85.39 111.829 83.43 111.829 81.25C111.829 79.21 111.859 77.05 111.919 74.77C111.979 72.49 112.079 70.17 112.219 67.81C112.359 65.45 112.529 63.15 112.729 60.91L117.949 61C117.769 62.4 117.609 63.83 117.469 65.29C117.349 66.73 117.249 68.18 117.169 69.64C118.009 69.06 119.019 68.39 120.199 67.63C121.399 66.85 122.679 66.07 124.039 65.29C125.399 64.49 126.759 63.73 128.119 63.01C129.499 62.29 130.789 61.68 131.989 61.18L133.459 66.28C132.239 66.78 131.009 67.33 129.769 67.93C128.549 68.53 127.379 69.13 126.259 69.73C125.159 70.31 124.179 70.87 123.319 71.41C122.459 71.93 121.779 72.39 121.279 72.79C120.779 73.17 120.529 73.45 120.529 73.63C120.529 73.89 120.919 74.33 121.699 74.95C122.479 75.57 123.539 76.3 124.879 77.14C126.219 77.98 127.739 78.86 129.439 79.78C131.159 80.7 132.939 81.6 134.779 82.48L131.989 87.1C129.709 85.92 127.609 84.74 125.689 83.56C123.789 82.36 122.089 81.23 120.589 80.17C119.109 79.11 117.879 78.2 116.899 77.44C116.899 78.18 116.899 78.92 116.899 79.66C116.899 81 116.909 82.3 116.929 83.56C116.969 84.8 117.009 85.96 117.049 87.04L111.919 87.13ZM144.339 87.37C142.839 87.37 141.479 86.98 140.259 86.2C139.039 85.44 138.069 84.41 137.349 83.11C136.649 81.79 136.299 80.32 136.299 78.7C136.299 77.18 136.579 75.81 137.139 74.59C137.699 73.35 138.459 72.29 139.419 71.41C140.399 70.53 141.509 69.86 142.749 69.4C143.989 68.92 145.289 68.68 146.649 68.68C147.789 68.68 148.909 68.84 150.009 69.16C150.089 68.74 150.159 68.32 150.219 67.9L155.349 68.77C155.209 69.15 155.069 69.72 154.929 70.48C154.789 71.24 154.669 72.09 154.569 73.03C154.489 73.97 154.419 74.91 154.359 75.85C154.299 76.79 154.269 77.64 154.269 78.4C154.269 79.02 154.309 79.63 154.389 80.23C154.489 80.81 154.689 81.29 154.989 81.67C155.289 82.03 155.749 82.21 156.369 82.21H156.789L156.039 87.43C154.719 87.43 153.629 87.2 152.769 86.74C151.909 86.3 151.219 85.7 150.699 84.94C149.839 85.9 148.859 86.54 147.759 86.86C146.659 87.2 145.519 87.37 144.339 87.37ZM141.219 79.3C141.319 80.26 141.709 81.03 142.389 81.61C143.089 82.17 143.969 82.45 145.029 82.45C146.049 82.45 146.899 82.18 147.579 81.64C148.259 81.08 148.819 80.32 149.259 79.36C149.239 79.04 149.229 78.71 149.229 78.37C149.229 77.67 149.249 76.95 149.289 76.21C149.329 75.47 149.379 74.74 149.439 74.02C148.599 73.7 147.719 73.54 146.799 73.54C145.719 73.54 144.749 73.76 143.889 74.2C143.049 74.62 142.389 75.21 141.909 75.97C141.429 76.73 141.189 77.61 141.189 78.61C141.189 78.73 141.189 78.85 141.189 78.97C141.189 79.09 141.199 79.2 141.219 79.3ZM158.545 87.34C158.625 85.68 158.685 84.02 158.725 82.36C158.765 80.7 158.785 79.06 158.785 77.44C158.765 75.96 158.735 74.5 158.695 73.06C158.675 71.6 158.625 70.19 158.545 68.83L163.585 68.68C163.605 69.42 163.635 70.18 163.675 70.96C164.315 70.16 165.055 69.52 165.895 69.04C166.755 68.54 167.735 68.29 168.835 68.29C169.255 68.29 169.795 68.35 170.455 68.47C171.115 68.59 171.785 68.82 172.465 69.16L171.895 74.23C171.395 73.93 170.855 73.72 170.275 73.6C169.715 73.46 169.245 73.39 168.865 73.39C167.585 73.39 166.495 73.97 165.595 75.13C164.715 76.27 164.115 77.86 163.795 79.9C163.795 81.3 163.775 82.64 163.735 83.92C163.715 85.18 163.665 86.32 163.585 87.34H158.545ZM182.754 87.4C180.834 87.4 179.144 87.02 177.684 86.26C176.244 85.52 175.114 84.48 174.294 83.14C173.494 81.8 173.094 80.25 173.094 78.49C173.094 77.43 173.274 76.32 173.634 75.16C173.994 73.98 174.574 72.88 175.374 71.86C176.174 70.84 177.224 70.01 178.524 69.37C179.844 68.73 181.444 68.41 183.324 68.41C184.684 68.41 185.824 68.56 186.744 68.86C187.684 69.16 188.444 69.55 189.024 70.03C189.624 70.51 190.074 71.02 190.374 71.56C190.694 72.1 190.904 72.62 191.004 73.12C191.124 73.6 191.184 74 191.184 74.32C191.184 76.26 190.364 77.76 188.724 78.82C187.104 79.86 184.804 80.38 181.824 80.38C181.144 80.38 180.494 80.35 179.874 80.29C179.274 80.23 178.714 80.16 178.194 80.08C178.574 81.08 179.204 81.82 180.084 82.3C180.964 82.76 181.874 82.99 182.814 82.99C184.174 82.99 185.374 82.75 186.414 82.27C187.454 81.77 188.434 81.01 189.354 79.99L192.024 83.83C191.384 84.35 190.664 84.89 189.864 85.45C189.084 86.01 188.124 86.47 186.984 86.83C185.844 87.21 184.434 87.4 182.754 87.4ZM183.414 72.91C182.234 72.91 181.194 73.21 180.294 73.81C179.394 74.41 178.734 75.2 178.314 76.18C178.814 76.26 179.304 76.33 179.784 76.39C180.284 76.43 180.774 76.45 181.254 76.45C181.694 76.45 182.194 76.41 182.754 76.33C183.334 76.25 183.894 76.13 184.434 75.97C184.994 75.81 185.454 75.61 185.814 75.37C186.174 75.11 186.354 74.81 186.354 74.47C186.354 74.31 186.274 74.11 186.114 73.87C185.954 73.63 185.664 73.41 185.244 73.21C184.824 73.01 184.214 72.91 183.414 72.91ZM203.408 87.4C201.488 87.4 199.798 87.02 198.338 86.26C196.898 85.52 195.768 84.48 194.948 83.14C194.148 81.8 193.748 80.25 193.748 78.49C193.748 77.43 193.928 76.32 194.288 75.16C194.648 73.98 195.228 72.88 196.028 71.86C196.828 70.84 197.878 70.01 199.178 69.37C200.498 68.73 202.098 68.41 203.978 68.41C205.338 68.41 206.478 68.56 207.398 68.86C208.338 69.16 209.098 69.55 209.678 70.03C210.278 70.51 210.728 71.02 211.028 71.56C211.348 72.1 211.558 72.62 211.658 73.12C211.778 73.6 211.838 74 211.838 74.32C211.838 76.26 211.018 77.76 209.378 78.82C207.758 79.86 205.458 80.38 202.478 80.38C201.798 80.38 201.148 80.35 200.528 80.29C199.928 80.23 199.368 80.16 198.848 80.08C199.228 81.08 199.858 81.82 200.738 82.3C201.618 82.76 202.528 82.99 203.468 82.99C204.828 82.99 206.028 82.75 207.068 82.27C208.108 81.77 209.088 81.01 210.008 79.99L212.678 83.83C212.038 84.35 211.318 84.89 210.518 85.45C209.738 86.01 208.778 86.47 207.638 86.83C206.498 87.21 205.088 87.4 203.408 87.4ZM204.068 72.91C202.888 72.91 201.848 73.21 200.948 73.81C200.048 74.41 199.388 75.2 198.968 76.18C199.468 76.26 199.958 76.33 200.438 76.39C200.938 76.43 201.428 76.45 201.908 76.45C202.348 76.45 202.848 76.41 203.408 76.33C203.988 76.25 204.548 76.13 205.088 75.97C205.648 75.81 206.108 75.61 206.468 75.37C206.828 75.11 207.008 74.81 207.008 74.47C207.008 74.31 206.928 74.11 206.768 73.87C206.608 73.63 206.318 73.41 205.898 73.21C205.478 73.01 204.868 72.91 204.068 72.91ZM215.003 87.34C214.983 87.04 214.963 86.54 214.943 85.84C214.923 85.16 214.903 84.34 214.883 83.38C214.863 82.42 214.853 81.39 214.853 80.29C214.853 79.17 214.853 78.05 214.853 76.93C214.853 75.69 214.853 74.51 214.853 73.39C214.873 72.27 214.883 71.3 214.883 70.48C214.903 69.66 214.913 69.07 214.913 68.71L219.983 68.62C219.943 69.18 219.913 69.86 219.893 70.66C220.413 69.96 221.013 69.41 221.693 69.01C222.373 68.61 223.153 68.41 224.033 68.41C225.093 68.41 225.963 68.72 226.643 69.34C227.343 69.96 227.913 70.77 228.353 71.77C229.793 69.53 231.563 68.41 233.663 68.41C234.843 68.41 235.813 68.67 236.573 69.19C237.353 69.69 237.963 70.37 238.403 71.23C238.843 72.09 239.163 73.06 239.363 74.14C239.583 75.22 239.723 76.33 239.783 77.47C239.843 78.61 239.873 79.71 239.873 80.77C239.873 82.03 239.853 83.18 239.813 84.22C239.773 85.26 239.763 86.25 239.783 87.19H234.593C234.593 86.71 234.593 86.1 234.593 85.36C234.593 84.64 234.593 83.91 234.593 83.17C234.613 82.41 234.623 81.76 234.623 81.22C234.623 80.66 234.623 80.33 234.623 80.23C234.623 79.03 234.593 77.9 234.533 76.84C234.473 75.78 234.323 74.92 234.083 74.26C233.843 73.6 233.453 73.27 232.913 73.27C232.393 73.27 231.933 73.52 231.533 74.02C231.133 74.52 230.773 75.17 230.453 75.97C230.153 76.77 229.893 77.62 229.673 78.52C229.713 79.3 229.743 80.08 229.763 80.86C229.783 81.62 229.793 82.36 229.793 83.08C229.793 83.9 229.783 84.61 229.763 85.21C229.763 85.83 229.763 86.49 229.763 87.19H224.723C224.723 85.57 224.713 84.14 224.693 82.9C224.673 81.66 224.633 80.46 224.573 79.3C224.473 77.22 224.253 75.7 223.913 74.74C223.593 73.76 223.143 73.27 222.563 73.27C221.923 73.27 221.383 73.66 220.943 74.44C220.503 75.2 220.143 76.13 219.863 77.23C219.883 78.83 219.923 80.5 219.983 82.24C220.043 83.98 220.123 85.66 220.223 87.28L215.003 87.34Z" fill="#7400E8"/>
<path d="M131.523 433.66C131.523 433.66 171.168 464.109 248.178 436.239C248.178 436.239 233.212 392.797 223.103 360.861L239.159 331.603L210.813 316.924L201.695 340.033C201.695 340.033 195.649 334.38 172.06 338.942L151.742 318.61L137.767 349.356L156.598 358.382L131.523 433.66Z" fill="white"/>
<g style="mix-blend-mode:multiply" opacity="0.49">
<path d="M223.499 362.249C222.112 362.05 220.625 361.951 219.436 361.951C218.841 367.406 221.616 373.456 222.706 378.911C225.382 390.416 228.158 401.921 231.428 413.426C233.906 422.055 236.483 430.684 238.961 439.312C241.934 438.321 245.007 437.329 248.178 436.238C248.178 436.238 233.609 393.987 223.499 362.249Z" fill="#B0316F"/>
</g>
<g style="mix-blend-mode:multiply" opacity="0.3">
<path d="M184.944 436.932C173.943 423.245 170.672 405.195 170.672 388.83C170.276 372.068 173.051 355.207 174.439 338.446C173.646 338.578 172.853 338.743 172.06 338.942L151.742 318.609L137.767 349.356L156.598 358.381L131.523 433.66C131.523 433.66 153.724 450.719 197.234 447.644C192.675 444.867 188.513 441.396 184.944 436.932Z" fill="#B0316F"/>
</g>
<path d="M199.911 379.605C209.723 379.804 219.733 380.597 229.743 381.39C229.083 379.407 228.422 377.423 227.761 375.44C219.436 375.241 211.209 375.241 203.082 375.142C190.693 374.944 178.403 375.44 166.113 376.035C160.86 376.233 155.508 376.828 150.255 377.423L149.363 380.002C153.922 379.804 158.581 379.605 163.041 379.506C175.331 379.308 187.621 379.407 199.911 379.605Z" fill="#B0316F"/>
<path d="M154.022 357.091C156.499 353.718 158.68 349.949 160.96 346.577C163.536 342.941 166.18 339.337 168.889 335.767L167.303 334.18C161.158 340.825 155.112 347.867 150.454 355.404L154.022 357.091Z" fill="#B0316F"/>
<path d="M154.814 363.637C178.006 363.934 201.298 364.232 224.49 365.224C224.094 364.033 223.697 362.843 223.301 361.653C217.618 361.521 211.936 361.422 206.253 361.355C189.305 361.058 172.357 361.256 155.409 361.851L154.814 363.637Z" fill="#B0316F"/>
<path d="M228.95 350.149L230.833 346.678C226.869 344.397 222.607 342.314 218.741 340.132C214.182 337.652 209.028 335.867 204.172 333.586L203.577 335.272C207.343 337.454 211.308 339.239 214.975 341.223C219.534 343.702 224.193 347.273 228.95 350.149Z" fill="#B0316F"/>
<path d="M236.582 336.264L238.465 332.892C228.752 328.726 218.94 324.858 209.425 320.494L208.831 321.982C214.876 325.056 221.021 327.834 226.968 331.107C230.14 332.892 233.311 334.578 236.582 336.264Z" fill="#B0316F"/>
<path d="M151.147 339.637C153.724 335.075 156.598 330.711 159.374 326.248L157.986 324.859C151.643 333.191 145.597 341.522 140.146 350.448L143.813 352.233C146.588 348.266 148.868 343.803 151.147 339.637Z" fill="#B0316F"/>
<path d="M177.808 307.005C177.61 307.997 177.907 340.33 179.196 342.909C180.484 345.587 192.279 346.38 194.36 343.603C196.54 340.826 201.199 306.807 201.199 306.807L177.808 307.005Z" fill="#FFA585"/>
<path d="M198.919 322.18C200.208 314.047 201.199 306.807 201.199 306.807L177.808 307.005C177.709 307.501 177.709 314.344 177.907 321.981C184.746 322.973 191.882 322.973 198.919 322.18Z" fill="#D67550"/>
<path d="M131.522 302.642C131.522 302.642 148.372 315.039 188.611 315.436C228.851 315.734 267.307 285.583 268.298 240.951C269.289 196.419 233.906 173.409 210.813 168.251C187.719 163.094 140.145 184.021 140.145 184.021C140.145 184.021 111.898 265.548 131.522 302.642Z" fill="#FFA585"/>
<path d="M247.683 188.98C244.907 187.988 241.538 189.277 240.447 192.649C239.357 196.22 237.771 199.096 235.789 202.171C232.518 207.427 227.86 204.948 223.4 202.667C214.282 198.203 206.65 190.566 199.811 183.227C197.432 180.648 192.774 181.243 190.99 184.417C185.836 193.641 182.566 203.956 176.619 212.783C172.753 218.436 166.608 223.296 160.265 225.776C151.742 229.247 147.975 221.809 145.497 215.263C145.101 214.271 143.713 214.37 143.614 215.56C142.524 230.536 154.219 237.678 167.798 230.834C182.962 223.395 189.404 210.502 196.937 196.815C205.758 206.634 216.66 217.643 229.347 219.627C239.555 221.114 246.791 214.072 249.962 205.344C253.729 207.824 258.089 209.51 262.45 210.304C258.783 201.972 253.629 194.831 247.683 188.98Z" fill="#D67550"/>
<path d="M268.298 240.95C268.596 228.751 266.118 218.139 261.955 209.113C266.613 238.372 261.261 269.019 240.15 290.739C232.519 298.476 223.499 305.418 213.687 311.667C243.52 302.244 267.505 276.061 268.298 240.95Z" fill="#FFB199"/>
<path d="M167.203 255.035C162.842 260.788 172.257 268.524 181.871 265.945C191.386 263.267 192.774 252.952 186.53 251.068C180.385 249.283 171.96 248.787 167.203 255.035Z" fill="#F47069"/>
<path d="M263.441 234.404C258.386 235.991 250.259 248.884 255.512 251.066C257.594 253.546 265.423 249.876 267.108 245.512C268.992 240.454 268.595 232.916 263.441 234.404Z" fill="#F47069"/>
<path d="M241.141 256.322C240.645 259.496 239.456 262.571 237.969 265.348C237.474 266.24 238.762 267.034 239.357 266.141C241.438 262.769 242.43 259.298 242.826 255.43C242.826 254.834 242.33 254.636 241.934 254.735C237.771 255.529 233.906 257.909 230.04 259.595C229.941 259.595 229.941 259.694 230.04 259.794C233.807 260.389 237.573 257.512 241.141 256.322Z" fill="#D67550"/>
<path d="M246.196 265.843C245.898 265.05 245.204 264.752 244.312 264.653C243.619 264.554 242.627 264.554 242.033 264.851C241.636 264.951 241.636 265.446 241.835 265.744C241.967 265.81 242.066 265.876 242.132 265.942C239.852 277.348 235.491 290.242 223.796 295.002C216.561 297.978 209.326 292.622 205.857 286.671C202.982 281.712 203.28 275.861 203.181 270.306C204.073 270.505 204.965 270.604 205.064 269.513C205.064 269.215 204.866 268.918 204.568 268.719C202.982 267.827 201.198 267.827 199.513 268.521C198.522 269.017 196.738 270.306 197.333 271.596C197.432 271.695 197.432 271.695 197.531 271.695C198.027 271.497 198.522 271.1 199.018 270.802C199.811 270.306 200.802 270.108 201.694 270.009C201.826 270.009 201.991 270.042 202.19 270.108C200.604 280.72 205.163 296.887 218.147 297.482C234.005 298.176 241.339 279.332 243.123 266.24C243.189 266.24 243.288 266.273 243.42 266.339C244.114 266.438 244.61 266.934 245.403 266.934C245.898 266.934 246.295 266.339 246.196 265.843Z" fill="#B73427"/>
<path d="M217.156 254.241C220.03 250.968 212.498 228.156 198.424 227.859C184.35 227.561 180.385 247.001 183.359 252.753C185.638 257.316 204.569 268.721 217.156 254.241Z" fill="white"/>
<path d="M204.073 246.605C208.038 246.605 211.408 242.538 212.399 236.984C209.029 232.124 204.271 228.058 198.424 227.859C197.763 227.859 197.102 227.892 196.442 227.959C195.847 229.744 195.55 231.727 195.55 233.909C195.55 240.951 199.316 246.605 204.073 246.605Z" fill="#662C24"/>
<path d="M198.127 230.139C197.334 232.916 195.847 238.669 199.019 240.553C199.613 240.95 200.406 240.652 200.604 239.958C200.902 238.47 200.208 236.983 199.812 235.594C199.118 233.908 198.92 232.024 198.82 230.238C198.721 229.842 198.226 229.743 198.127 230.139Z" fill="#913C33"/>
<path d="M200.604 242.836C200.803 243.629 201.199 244.125 202.091 244.323C202.983 244.522 203.776 243.53 203.28 242.737C202.983 242.241 202.686 241.943 202.091 241.646C201.298 241.249 200.307 241.943 200.604 242.836Z" fill="#913C33"/>
<path d="M244.511 244.62C244.511 244.62 248.178 249.876 257.099 246.504C264.036 243.925 264.235 233.016 260.964 227.858C257.693 222.8 250.359 222.8 246.394 228.652C242.033 234.999 243.421 242.735 244.511 244.62Z" fill="white"/>
<path d="M251.152 238.37C254.72 238.37 257.594 234.403 257.594 229.543C257.594 227.658 257.197 225.873 256.405 224.484C253.035 223.493 248.971 224.782 246.394 228.65C245.799 229.576 245.304 230.501 244.907 231.427C245.502 235.394 248.079 238.37 251.152 238.37Z" fill="#662C24"/>
<path d="M246.494 230.931C246.394 232.022 246.593 233.014 246.989 234.006C247.584 235.295 249.07 236.684 250.557 235.791C251.945 234.998 251.152 233.212 250.062 232.518C249.17 232.022 248.476 231.427 248.079 230.535C247.683 229.642 246.494 230.138 246.494 230.931Z" fill="#913C33"/>
<path d="M251.35 236.983C251.35 237.049 251.35 237.082 251.35 237.082C251.548 237.479 252.043 237.578 252.341 237.578C252.737 237.379 252.936 237.28 253.134 236.983C253.332 236.685 253.233 236.189 252.936 236.09C252.44 235.892 252.044 235.793 251.548 235.991C251.251 236.189 251.151 236.586 251.35 236.983Z" fill="#913C33"/>
<path d="M127.162 182.831C127.162 182.831 136.379 164.383 131.523 163.094C126.765 161.904 117.251 169.243 115.665 188.98C115.665 188.98 115.566 163.491 105.555 165.573C95.5448 167.656 92.2741 195.824 108.628 199.791C108.628 199.791 83.9487 239.761 121.314 289.748L143.218 287.07C143.218 287.07 155.211 276.16 149.363 264.556C143.515 253.051 135.19 266.54 135.19 266.54C135.19 266.54 136.776 238.67 149.363 221.809C149.363 221.809 147.282 234.207 162.049 227.958C176.817 221.809 188.215 202.766 198.424 185.31C198.424 185.31 212.894 208.122 228.059 211.693C243.223 215.263 242.826 194.435 242.826 194.435C242.826 194.435 258.982 211.792 268.298 194.435C277.714 177.078 266.217 167.259 248.178 178.268C248.178 178.268 275.038 158.234 263.045 149.109C251.053 140.084 230.14 151.985 217.156 164.78C217.156 164.78 233.807 136.414 214.084 136.414C194.459 136.414 157.094 147.126 127.162 182.831Z" fill="#539181"/>
<path d="M192.477 193.941C186.233 201.875 180.484 210.008 173.844 217.546C170.276 221.711 166.212 225.579 160.959 227.464C146.786 232.522 152.138 210.008 153.03 203.958C153.03 203.66 152.634 203.561 152.534 203.76C150.255 211.297 146.191 219.331 149.957 226.869C152.733 232.125 159.076 232.324 163.734 230.34C169.384 228.059 173.645 222.703 177.313 217.942C182.962 210.603 189.603 203.264 193.567 194.833C193.864 194.139 192.972 193.246 192.477 193.941Z" fill="#376156"/>
<path d="M239.061 208.618C217.751 208.42 208.038 193.245 195.847 178.17C195.748 178.07 195.649 178.269 195.649 178.368C202.389 194.039 218.445 221.809 239.457 210.007C240.151 209.61 239.754 208.618 239.061 208.618Z" fill="#376156"/>
<path d="M261.46 199.892C250.755 200.784 242.926 193.842 237.474 185.312C237.276 184.915 236.681 185.114 236.781 185.51C240.745 195.329 250.26 206.537 261.658 200.685C261.955 200.487 261.856 199.892 261.46 199.892Z" fill="#376156"/>
<path d="M113.484 198.305C108.925 195.627 104.762 196.023 101.392 190.965C98.0226 185.907 98.5182 178.766 98.9146 172.914C98.9146 172.815 98.8155 172.815 98.8155 172.914C96.5359 180.353 95.8421 187.196 99.5093 194.238C101.789 198.9 108.033 202.669 113.088 201.379C114.574 200.983 114.773 198.999 113.484 198.305Z" fill="#376156"/>
<path d="M123.693 166.764C117.25 173.012 113.484 182.633 113.98 191.658C114.079 193.047 116.259 193.543 116.557 191.956C118.142 183.029 118.836 174.897 123.792 166.863C123.891 166.764 123.693 166.665 123.693 166.764Z" fill="#376156"/>
<path d="M217.155 165.773C228.454 155.954 240.249 148.714 255.314 147.127C256.107 147.028 256.107 145.937 255.314 145.838C245.799 144.647 238.366 147.821 230.139 152.383C225.679 154.962 217.552 159.921 216.462 165.376C216.462 165.773 216.858 166.07 217.155 165.773Z" fill="#6FC2AD"/>
<path d="M254.521 151.987C253.233 151.788 251.944 152.978 252.737 154.268C254.621 157.243 252.638 161.012 252.539 164.384C252.539 165.376 253.53 166.368 254.521 166.368C262.748 165.574 262.252 153.177 254.521 151.987Z" fill="#6FC2AD"/>
<path d="M249.17 160.019C248.575 159.126 247.386 159.126 246.791 160.019C246.395 160.614 245.899 161.209 245.701 161.904C245.403 163.094 245.502 164.086 246.395 165.077C247.088 165.97 248.872 165.97 249.566 165.077C250.458 164.086 250.557 163.094 250.26 161.904C250.062 161.209 249.566 160.614 249.17 160.019Z" fill="#6FC2AD"/>
<path d="M259.874 183.029C258.586 182.83 257.297 184.417 258.487 185.409C260.271 186.897 259.478 189.079 259.874 191.162C260.568 194.434 266.118 193.74 265.821 190.368C265.524 187.194 263.145 183.624 259.874 183.029Z" fill="#6FC2AD"/>
<path d="M200.703 150.299C198.721 149.01 196.243 152.184 198.127 153.672C202.983 157.54 203.875 164.383 195.649 161.209C191.387 159.523 187.621 161.309 184.251 163.887C182.962 164.879 181.971 166.962 181.178 168.35C179.592 171.326 180.286 174.103 176.52 172.417C173.249 170.83 170.375 168.945 166.708 169.045C160.563 169.144 158.779 176.087 157.589 180.946C157.292 182.236 156.995 183.525 156.598 184.814C155.607 188.187 152.832 183.327 152.039 182.335C150.453 180.153 148.868 177.574 146.39 176.384C145.101 175.789 144.011 176.979 144.606 178.169C146.588 182.632 151.643 198.997 159.77 192.947C163.14 190.468 164.626 187.096 165.915 183.228C166.212 182.037 166.906 178.07 167.996 178.566C170.97 180.054 172.952 183.029 176.124 184.418C181.575 186.699 186.332 184.219 189.801 179.855C191.783 177.376 192.675 174.4 193.468 171.425C193.865 169.739 201.001 169.937 202.686 168.945C210.516 164.482 206.65 154.564 200.703 150.299Z" fill="#6FC2AD"/>
<path d="M120.124 203.559C120.223 203.262 119.827 202.964 119.629 203.262C110.114 223.098 103.771 254.142 119.133 272.788C119.926 273.681 121.512 272.49 120.818 271.399C107.834 251.662 111.105 224.288 120.124 203.559Z" fill="#376156"/>
<path d="M136.082 282.904C127.062 275.366 128.153 262.373 129.144 251.959C130.135 240.752 133.207 229.842 135.487 218.833C135.586 218.436 134.991 218.237 134.892 218.634C131.621 231.032 127.657 243.132 126.17 255.926C125.08 265.944 125.278 278.639 134.595 284.689C135.685 285.482 137.073 283.697 136.082 282.904Z" fill="#376156"/>
<path d="M141.434 283.401C135.09 276.26 113.979 263.763 102.482 276.756C91.0844 289.749 111.303 312.461 127.657 312.362C143.911 312.164 150.849 294.014 141.434 283.401Z" fill="#FFA585"/>
<path d="M141.038 294.508C134.496 284.193 119.728 283.797 110.511 290.442C110.214 290.64 110.511 291.136 110.808 290.938C116.854 287.466 123.396 286.772 129.243 288.656C127.162 289.351 125.18 290.739 123.891 292.128C122.603 293.615 121.611 295.698 121.81 297.781C121.909 299.864 123.495 302.542 125.774 302.443C126.369 302.343 126.765 301.847 126.666 301.252C126.27 299.963 124.981 299.17 124.684 297.781C124.288 296.393 125.378 294.806 126.27 293.715C128.054 291.632 130.532 290.64 133.109 290.342C135.487 291.632 137.668 293.417 139.551 295.698C140.245 296.492 141.632 295.401 141.038 294.508Z" fill="#D67550"/>
<path d="M109.816 277.649C111.997 278.641 114.474 277.947 116.754 277.947C120.421 278.046 123.295 280.03 126.864 280.327C128.053 280.426 128.747 278.74 127.855 278.046C122.503 273.583 116.06 274.971 110.014 276.558C109.519 276.657 109.321 277.352 109.816 277.649Z" fill="#FFB199"/>
<path d="M129.441 281.715C129.639 282.211 130.036 282.509 130.432 282.806C132.216 284.096 134 280.823 132.117 280.029C131.324 279.633 130.531 279.533 129.838 280.129C129.342 280.624 129.144 281.12 129.441 281.715Z" fill="#FFB199"/>
</svg>
