<svg width="24" height="24" viewBox="0 0 24 24" fill="none" xmlns="http://www.w3.org/2000/svg">
<g clip-path="url(#clip0_519_24383)">
<path d="M24 12C24 11.8542 23.9974 11.709 23.9923 11.5645C23.763 5.13881 18.4816 0 12 0C5.51836 0 0.237 5.13881 0.00778125 11.5645C0.002625 11.709 0 11.8542 0 12C0 18.6274 6.16416 23.5645 12 23.5645C17.9416 23.5645 24 18.6274 24 12Z" fill="#FF5876"/>
<path d="M12 23.129C5.51845 23.129 0.238031 17.99 0.00871875 11.5645C0.00351563 11.7091 0 11.8541 0 12C0 18.6274 5.37258 24 12 24C18.6274 24 24 18.6274 24 12C24 11.8541 23.9965 11.7091 23.9913 11.5645C23.762 17.9901 18.4815 23.129 12 23.129Z" fill="#E6485D"/>
<path d="M22.0039 11.5642C21.7759 6.23602 17.3842 1.98633 11.9999 1.98633C6.61561 1.98633 2.22389 6.23602 1.99589 11.5642C1.9897 11.7086 1.99585 21.3761 11.9999 21.3761C22.004 21.3761 22.0101 11.7086 22.0039 11.5642Z" fill="#E4EEF9"/>
<path d="M11.9999 21.1423C6.61567 21.1423 2.22465 16.8925 1.99656 11.5645C1.99037 11.7089 1.98657 11.854 1.98657 11.9999C1.98657 17.5301 6.4697 22.0133 11.9999 22.0133C17.5301 22.0133 22.0133 17.5302 22.0133 12C22.0133 11.854 22.0094 11.7089 22.0033 11.5645C21.7752 16.8926 17.3842 21.1423 11.9999 21.1423Z" fill="#D5E0F2"/>
<path d="M15.6373 8.48642C15.3519 8.20493 14.8923 8.20807 14.6109 8.49345L12.9077 10.2202L13.0789 11.0422L13.8744 11.3073L15.6444 9.51284C15.9258 9.22746 15.9227 8.7679 15.6373 8.48642Z" fill="#405B6C"/>
<path d="M10.9726 10.2862L7.11004 6.84411C6.81074 6.57739 6.35198 6.60383 6.0853 6.90313C5.81863 7.20238 5.84502 7.66119 6.14432 7.92786L10.083 11.4378L10.9037 11.164L10.9726 10.2862Z" fill="#405B6C"/>
<path d="M17.1391 16.6801C17.0567 16.6801 16.9739 16.6522 16.9059 16.5951L12.3087 12.7336C12.1553 12.6047 12.1353 12.3757 12.2642 12.2223C12.3931 12.0688 12.622 12.0489 12.7755 12.1778L17.3727 16.0393C17.5261 16.1683 17.5461 16.3972 17.4172 16.5506C17.3454 16.6361 17.2426 16.6801 17.1391 16.6801Z" fill="#86DCFF"/>
<path d="M10.083 11.4377L10.7608 12.0417L11.6313 11.7459L11.5841 10.831L10.9727 10.2861C10.5473 10.5417 10.2253 10.9513 10.083 11.4377Z" fill="#2D4456"/>
<path d="M12.9076 10.2207L12.3313 10.805V11.9518H13.2391L13.8743 11.3078C13.6998 10.8355 13.3516 10.4477 12.9076 10.2207Z" fill="#2D4456"/>
<path d="M13.1616 11.5646C12.9853 11.0944 12.5317 10.7598 11.9999 10.7598C11.4682 10.7598 11.0146 11.0944 10.8382 11.5646C10.7874 11.7001 10.8349 12.805 11.9999 12.805C13.165 12.805 13.2125 11.7001 13.1616 11.5646Z" fill="#FF5876"/>
<path d="M11.9999 12.3693C11.4681 12.3693 11.0147 12.0346 10.8384 11.5645C10.7875 11.7 10.7595 11.8466 10.7595 11.9999C10.7595 12.685 11.3148 13.2402 11.9998 13.2402C12.6849 13.2402 13.2401 12.6849 13.2401 11.9999C13.2401 11.8466 13.2122 11.7 13.1614 11.5645C12.9851 12.0346 12.5316 12.3693 11.9999 12.3693Z" fill="#E6485D"/>
<path d="M12.3634 4.38636V3.26009C12.3634 3.05928 12.2007 2.89648 11.9998 2.89648C11.799 2.89648 11.6362 3.05928 11.6362 3.26009V4.38636C11.6362 4.58717 11.799 4.74997 11.9998 4.74997C12.2007 4.74997 12.3634 4.58717 12.3634 4.38636Z" fill="#405B6C"/>
<path d="M11.6362 19.6136V20.7399C11.6362 20.9407 11.799 21.1035 11.9998 21.1035C12.2007 21.1035 12.3634 20.9407 12.3634 20.7399V19.6136C12.3634 19.4128 12.2007 19.25 11.9998 19.25C11.799 19.25 11.6362 19.4128 11.6362 19.6136Z" fill="#405B6C"/>
<path d="M20.7399 12.3639C20.9407 12.3639 21.1035 12.2011 21.1035 12.0003C21.1035 11.7995 20.9407 11.6367 20.7399 11.6367H19.6136C19.4128 11.6367 19.25 11.7995 19.25 12.0003C19.25 12.2011 19.4128 12.3639 19.6136 12.3639H20.7399Z" fill="#405B6C"/>
<path d="M3.25985 11.6367C3.05899 11.6367 2.89624 11.7995 2.89624 12.0003C2.89624 12.2011 3.05899 12.3639 3.25985 12.3639H4.38612C4.58697 12.3639 4.74972 12.2011 4.74972 12.0003C4.74972 11.7995 4.58693 11.6367 4.38612 11.6367H3.25985Z" fill="#405B6C"/>
</g>
<defs>
<clipPath id="clip0_519_24383">
<rect width="24" height="24" fill="white"/>
</clipPath>
</defs>
</svg>
