<svg width="33" height="33" viewBox="0 0 33 33" fill="none" xmlns="http://www.w3.org/2000/svg">
<g clip-path="url(#clip0_1373_46993)">
<path d="M16.7283 32.0977C25.5648 32.0977 32.7283 24.9342 32.7283 16.0977C32.7283 7.2611 25.5648 0.0976562 16.7283 0.0976562C7.89172 0.0976562 0.728271 7.2611 0.728271 16.0977C0.728271 24.9342 7.89172 32.0977 16.7283 32.0977Z" fill="#FFCE00"/>
<path d="M32.7286 16.0991C32.7286 15.6722 32.7118 15.2493 32.679 14.8308L26.3108 8.46272L25.0409 9.13347L19.2942 3.38672L14.1629 5.90572L16.8551 8.59791L9.15405 25.052L16.1923 32.0903C16.3704 32.0962 16.5491 32.0991 16.7286 32.0991C25.5651 32.0991 32.7286 24.9357 32.7286 16.0991Z" fill="#FFA300"/>
<path d="M15.1697 4.5625H18.2851V8.59419H15.1697V4.5625Z" fill="#555A66"/>
<path d="M16.7166 4.5625H18.2856V8.59419H16.7166V4.5625Z" fill="#333940"/>
<path d="M7.14429 8.46094L9.34686 6.25837L12.1973 9.10877L9.99469 11.3113L7.14429 8.46094Z" fill="#555A66"/>
<path d="M23.4626 11.3164L21.2601 9.11384L24.1105 6.26343L26.313 8.466L23.4626 11.3164Z" fill="#333940"/>
<path d="M16.7274 28.2365C22.5798 28.2365 27.3241 23.4921 27.3241 17.6397C27.3241 11.7873 22.5798 7.04297 16.7274 7.04297C10.8749 7.04297 6.13062 11.7873 6.13062 17.6397C6.13062 23.4921 10.8749 28.2365 16.7274 28.2365Z" fill="#707789"/>
<path d="M16.7279 7.04297C16.7241 7.04297 16.7204 7.04309 16.7166 7.04309V28.2363C16.7204 28.2363 16.7241 28.2364 16.7279 28.2364C22.5804 28.2364 27.3247 23.4921 27.3247 17.6397C27.3247 11.7872 22.5804 7.04297 16.7279 7.04297Z" fill="#555A66"/>
<path d="M16.7276 25.6941C21.1758 25.6941 24.7817 22.0881 24.7817 17.64C24.7817 13.1919 21.1758 9.58594 16.7276 9.58594C12.2795 9.58594 8.67358 13.1919 8.67358 17.64C8.67358 22.0881 12.2795 25.6941 16.7276 25.6941Z" fill="white"/>
<path d="M16.7279 9.58594C16.7241 9.58594 16.7204 9.58606 16.7166 9.58606V25.6939C16.7204 25.6939 16.7241 25.694 16.7279 25.694C21.1761 25.694 24.782 22.0881 24.782 17.6399C24.782 13.1918 21.1761 9.58594 16.7279 9.58594Z" fill="#E9EDF5"/>
<path d="M14.1619 3.38672H19.2931V5.90572H14.1619V3.38672Z" fill="#707789"/>
<path d="M16.7166 3.38672H19.2936V5.90572H16.7166V3.38672Z" fill="#555A66"/>
<path d="M16.0623 16.9766L20.481 12.5578L21.8066 13.8834L17.3879 18.3022L16.0623 16.9766Z" fill="#333940"/>
<path d="M16.7278 19.2842C17.6347 19.2842 18.3699 18.549 18.3699 17.6421C18.3699 16.7352 17.6347 16 16.7278 16C15.8209 16 15.0857 16.7352 15.0857 17.6421C15.0857 18.549 15.8209 19.2842 16.7278 19.2842Z" fill="#707789"/>
<path d="M16.7279 16C16.7241 16 16.7204 16.0002 16.7166 16.0003V19.284C16.7204 19.284 16.7241 19.2843 16.7279 19.2843C17.6349 19.2843 18.3701 18.5491 18.3701 17.6422C18.3701 16.7352 17.6349 16 16.7279 16Z" fill="#555A66"/>
</g>
<defs>
<clipPath id="clip0_1373_46993">
<rect width="32" height="32" fill="white" transform="translate(0.728271 0.0976562)"/>
</clipPath>
</defs>
</svg>
