<svg width="22" height="23" viewBox="0 0 22 23" fill="none" xmlns="http://www.w3.org/2000/svg">
<g clip-path="url(#clip0_339_28447)">
<path d="M16.1334 20.6667V21.0334H5.8667V20.6667C5.8667 20.6667 8.0667 20.3001 8.0667 18.1001V17.7334H13.9334V18.1001C13.9334 20.3001 16.1334 20.6667 16.1334 20.6667Z" fill="#97AAB2"/>
<path d="M16.1333 20.6665H5.86663C5.46163 20.6665 5.1333 20.9948 5.1333 21.3998C5.1333 21.8048 5.46163 22.1332 5.86663 22.1332H16.1333C16.5383 22.1332 16.8666 21.8048 16.8666 21.3998C16.8666 20.9948 16.5383 20.6665 16.1333 20.6665Z" fill="#B3C1C9"/>
<path d="M21.6334 15.5331V16.9998C21.6334 17.6085 21.142 18.0998 20.5334 18.0998H1.4667C0.858033 18.0998 0.366699 17.6085 0.366699 16.9998V15.5331L0.733366 14.7998H21.2667L21.6334 15.5331Z" fill="#B3C1C9"/>
<path d="M21.6334 1.9667V15.5334H0.366699V1.9667C0.366699 1.35803 0.858033 0.866699 1.4667 0.866699H20.5334C21.142 0.866699 21.6334 1.35803 21.6334 1.9667Z" fill="#18316D"/>
<path d="M8.80019 6.73359C8.70632 6.73359 8.61246 6.69765 8.54096 6.62615L6.70762 4.79282C6.56426 4.64945 6.56426 4.41772 6.70762 4.27435L8.54096 2.44102C8.68432 2.29765 8.91606 2.29765 9.05942 2.44102C9.20279 2.58439 9.20279 2.81612 9.05942 2.95949L7.48532 4.53359L9.05942 6.10769C9.20279 6.25105 9.20279 6.48279 9.05942 6.62615C8.98792 6.69765 8.89406 6.73359 8.80019 6.73359Z" fill="white"/>
<path d="M13.2003 6.73359C13.1064 6.73359 13.0125 6.69765 12.941 6.62615C12.7977 6.48279 12.7977 6.25105 12.941 6.10769L14.5151 4.53359L12.941 2.95949C12.7977 2.81612 12.7977 2.58439 12.941 2.44102C13.0844 2.29765 13.3161 2.29765 13.4595 2.44102L15.2928 4.27435C15.4362 4.41772 15.4362 4.64945 15.2928 4.79282L13.4595 6.62615C13.388 6.69765 13.2941 6.73359 13.2003 6.73359Z" fill="white"/>
<path d="M10.2669 7.10017C10.2288 7.10017 10.1896 7.09394 10.1511 7.08111C9.95931 7.01731 9.85517 6.80977 9.91934 6.61727L11.386 2.21727C11.4502 2.02551 11.6559 1.92064 11.8498 1.98554C12.0416 2.04934 12.1457 2.25687 12.0816 2.44937L10.6149 6.84937C10.5636 7.00301 10.4206 7.10017 10.2669 7.10017Z" fill="white"/>
<path d="M2.93353 8.56683H2.56686C2.3641 8.56683 2.2002 8.40293 2.2002 8.20016C2.2002 7.9974 2.3641 7.8335 2.56686 7.8335H2.93353C3.1363 7.8335 3.3002 7.9974 3.3002 8.20016C3.3002 8.40293 3.1363 8.56683 2.93353 8.56683Z" fill="white"/>
<path d="M10.2666 8.56683H4.76657C4.5638 8.56683 4.3999 8.40293 4.3999 8.20016C4.3999 7.9974 4.5638 7.8335 4.76657 7.8335H10.2666C10.4693 7.8335 10.6332 7.9974 10.6332 8.20016C10.6332 8.40293 10.4693 8.56683 10.2666 8.56683Z" fill="#4ED8D5"/>
<path d="M14.3 8.56683H11.7334C11.5306 8.56683 11.3667 8.40293 11.3667 8.20016C11.3667 7.9974 11.5306 7.8335 11.7334 7.8335H14.3C14.5028 7.8335 14.6667 7.9974 14.6667 8.20016C14.6667 8.40293 14.5028 8.56683 14.3 8.56683Z" fill="#FF4D78"/>
<path d="M2.93353 10.3998H2.56686C2.3641 10.3998 2.2002 10.2359 2.2002 10.0332C2.2002 9.8304 2.3641 9.6665 2.56686 9.6665H2.93353C3.1363 9.6665 3.3002 9.8304 3.3002 10.0332C3.3002 10.2359 3.1363 10.3998 2.93353 10.3998Z" fill="white"/>
<path d="M11.3667 10.3998H5.86667C5.6639 10.3998 5.5 10.2359 5.5 10.0332C5.5 9.8304 5.6639 9.6665 5.86667 9.6665H11.3667C11.5694 9.6665 11.7333 9.8304 11.7333 10.0332C11.7333 10.2359 11.5694 10.3998 11.3667 10.3998Z" fill="#F9DC4E"/>
<path d="M16.1335 10.3998H12.8335C12.6307 10.3998 12.4668 10.2359 12.4668 10.0332C12.4668 9.8304 12.6307 9.6665 12.8335 9.6665H16.1335C16.3362 9.6665 16.5001 9.8304 16.5001 10.0332C16.5001 10.2359 16.3362 10.3998 16.1335 10.3998Z" fill="#4ED8D5"/>
<path d="M2.93353 12.2333H2.56686C2.3641 12.2333 2.2002 12.0694 2.2002 11.8667C2.2002 11.6639 2.3641 11.5 2.56686 11.5H2.93353C3.1363 11.5 3.3002 11.6639 3.3002 11.8667C3.3002 12.0694 3.1363 12.2333 2.93353 12.2333Z" fill="white"/>
<path d="M10.2666 12.2333H4.76657C4.5638 12.2333 4.3999 12.0694 4.3999 11.8667C4.3999 11.6639 4.5638 11.5 4.76657 11.5H10.2666C10.4693 11.5 10.6332 11.6639 10.6332 11.8667C10.6332 12.0694 10.4693 12.2333 10.2666 12.2333Z" fill="#4ED8D5"/>
<path d="M14.3 12.2333H11.7334C11.5306 12.2333 11.3667 12.0694 11.3667 11.8667C11.3667 11.6639 11.5306 11.5 11.7334 11.5H14.3C14.5028 11.5 14.6667 11.6639 14.6667 11.8667C14.6667 12.0694 14.5028 12.2333 14.3 12.2333Z" fill="#FF4D78"/>
<path d="M2.93353 14.0668H2.56686C2.3641 14.0668 2.2002 13.9029 2.2002 13.7002C2.2002 13.4974 2.3641 13.3335 2.56686 13.3335H2.93353C3.1363 13.3335 3.3002 13.4974 3.3002 13.7002C3.3002 13.9029 3.1363 14.0668 2.93353 14.0668Z" fill="white"/>
<path d="M19.4334 10.3998H17.6001C17.3973 10.3998 17.2334 10.2359 17.2334 10.0332C17.2334 9.8304 17.3973 9.6665 17.6001 9.6665H19.4334C19.6362 9.6665 19.8001 9.8304 19.8001 10.0332C19.8001 10.2359 19.6362 10.3998 19.4334 10.3998Z" fill="#FF4D78"/>
<path d="M11.3667 14.0668H5.86667C5.6639 14.0668 5.5 13.9029 5.5 13.7002C5.5 13.4974 5.6639 13.3335 5.86667 13.3335H11.3667C11.5694 13.3335 11.7333 13.4974 11.7333 13.7002C11.7333 13.9029 11.5694 14.0668 11.3667 14.0668Z" fill="#F9DC4E"/>
<path d="M16.1335 14.0668H12.8335C12.6307 14.0668 12.4668 13.9029 12.4668 13.7002C12.4668 13.4974 12.6307 13.3335 12.8335 13.3335H16.1335C16.3362 13.3335 16.5001 13.4974 16.5001 13.7002C16.5001 13.9029 16.3362 14.0668 16.1335 14.0668Z" fill="#4ED8D5"/>
<path d="M19.4334 14.0668H17.6001C17.3973 14.0668 17.2334 13.9029 17.2334 13.7002C17.2334 13.4974 17.3973 13.3335 17.6001 13.3335H19.4334C19.6362 13.3335 19.8001 13.4974 19.8001 13.7002C19.8001 13.9029 19.6362 14.0668 19.4334 14.0668Z" fill="#FF4D78"/>
</g>
<defs>
<clipPath id="clip0_339_28447">
<rect width="22" height="22" fill="white" transform="translate(0 0.5)"/>
</clipPath>
</defs>
</svg>
