<svg width="142" height="140" viewBox="0 0 142 140" fill="none" xmlns="http://www.w3.org/2000/svg">
<path d="M55.4963 30.6279V37.3296H1.52661V30.6279C1.52661 27.3941 4.14723 24.7734 7.38106 24.7734H49.6419C52.8757 24.7734 55.4963 27.3941 55.4963 30.6279Z" fill="#65E1E9"/>
<path d="M55.4963 37.3301V66.7518C55.4963 69.9856 52.8757 72.6063 49.6419 72.6063H7.38106C4.14723 72.6063 1.52661 69.9856 1.52661 66.7518V37.3301H55.4963Z" fill="white"/>
<path d="M49.642 23.2461H7.38345C3.31204 23.2461 0 26.5581 0 30.6295V66.7544C0 70.8258 3.31204 74.1378 7.38345 74.1378H49.642C53.7132 74.1378 57.0255 70.8255 57.0255 66.7544V30.6295C57.0252 26.5581 53.7132 23.2461 49.642 23.2461ZM7.38345 26.3027H49.642C52.0277 26.3027 53.9686 28.2436 53.9686 30.6295V35.8048H3.05688V30.6295C3.05688 28.2436 4.99773 26.3027 7.38345 26.3027ZM49.642 71.0812H7.38345C4.99773 71.0812 3.05688 69.1404 3.05688 66.7547V38.8614H53.9686V66.7544C53.9686 69.1404 52.0275 71.0812 49.642 71.0812Z" fill="#00D4D7"/>
<path d="M8.85685 34.3457C10.5459 34.3457 11.9151 32.999 11.9151 31.3379C11.9151 29.6767 10.5459 28.3301 8.85685 28.3301C7.16782 28.3301 5.79858 29.6767 5.79858 31.3379C5.79858 32.999 7.16782 34.3457 8.85685 34.3457Z" fill="white"/>
<path d="M18.4243 34.3457C20.1135 34.3457 21.4828 32.999 21.4828 31.3379C21.4828 29.6767 20.1135 28.3301 18.4243 28.3301C16.7351 28.3301 15.3657 29.6767 15.3657 31.3379C15.3657 32.999 16.7351 34.3457 18.4243 34.3457Z" fill="white"/>
<path d="M42.827 47.0686H8.85705C8.0131 47.0686 7.32861 46.3844 7.32861 45.5402C7.32861 44.6959 8.0131 44.0117 8.85705 44.0117H42.827C43.6709 44.0117 44.3554 44.6959 44.3554 45.5402C44.3554 46.3844 43.6709 47.0686 42.827 47.0686Z" fill="#605C5D"/>
<path d="M42.827 53.4885H8.85705C8.0131 53.4885 7.32861 52.8043 7.32861 51.9601C7.32861 51.1158 8.0131 50.4316 8.85705 50.4316H42.827C43.6709 50.4316 44.3554 51.1158 44.3554 51.9601C44.3554 52.8043 43.6709 53.4885 42.827 53.4885Z" fill="#605C5D"/>
<path d="M42.827 59.9104H8.85705C8.0131 59.9104 7.32861 59.2262 7.32861 58.382C7.32861 57.538 8.0131 56.8535 8.85705 56.8535H42.827C43.6709 56.8535 44.3554 57.5377 44.3554 58.382C44.3554 59.2262 43.6709 59.9104 42.827 59.9104Z" fill="#605C5D"/>
<path d="M42.827 66.3303H8.85705C8.0131 66.3303 7.32861 65.6461 7.32861 64.8019C7.32861 63.9576 8.0131 63.2734 8.85705 63.2734H42.827C43.6709 63.2734 44.3554 63.9576 44.3554 64.8019C44.3554 65.6461 43.6709 66.3303 42.827 66.3303Z" fill="#605C5D"/>
<path d="M122.028 67.8114C120.946 63.2131 118.319 59.9132 117.346 58.8072C117.105 58.5368 116.967 58.3987 116.967 58.3987C128.339 52.6405 111.653 39.4112 111.653 39.4112C115.476 35.5883 112.892 30.8265 107.235 26.5477L110.326 28.0282C112.983 25.2572 88.8909 17.7623 88.8909 17.7623C83.7664 16.2355 78.5179 15.3142 73.8824 15.3142C69.2447 15.3142 63.9912 16.2369 58.8629 17.7659L62.812 15.8744C57.0657 4.67082 41.997 3.16817 35.0729 11.5287C29.465 18.297 34.7783 25.2572 37.4411 28.0282L40.5352 26.5457C34.8765 30.8252 32.2917 35.5877 36.1176 39.4112C36.1176 39.4112 19.426 52.6405 30.7982 58.3987C30.7982 58.3987 27.0837 62.1073 25.7494 67.8173C24.7876 71.8923 25.0341 76.9893 28.7128 82.4893C34.2284 90.735 43.5782 93.2758 52.3453 93.5276C52.221 94.0942 52.1503 94.6711 52.1503 95.2582C52.1503 102.48 61.8584 108.334 73.8339 108.334C85.8093 108.334 95.5174 102.48 95.5174 95.2582C95.5174 94.6716 95.447 94.0956 95.323 93.5295C104.12 93.2943 113.519 90.7663 119.053 82.4893C122.731 76.9893 122.984 71.8865 122.028 67.8114Z" fill="#FFD5AE"/>
<path d="M52.15 20.1435C46.8786 22.3195 42.1363 25.0364 38.8725 27.9033C36.7145 24.5072 33.7993 18.2683 38.644 14.7699C43.7773 11.0613 49.5477 16.9157 52.15 20.1435Z" fill="#FFF1E6"/>
<path d="M119.052 82.4879C106.466 101.313 73.8822 90.4038 73.8822 90.4038C73.8822 90.4038 41.3043 101.313 28.7121 82.4879C25.0334 76.9879 24.7868 71.8909 25.7487 67.8159C33.5745 72.9789 43.3237 74.4937 53.2653 71.6146C60.9952 69.3726 64.3971 56.0293 73.882 56.0293C83.3666 56.0293 86.7687 69.3729 94.4983 71.6146C104.446 74.4937 114.195 72.9792 122.027 67.81C122.983 71.885 122.731 76.9879 119.052 82.4879Z" fill="#FFF1E6"/>
<path d="M50.8432 83.8883C55.271 79.4605 55.271 72.2817 50.8432 67.8539C46.4155 63.4262 39.2367 63.4262 34.8089 67.8539C30.3812 72.2817 30.3812 79.4605 34.8089 83.8883C39.2367 88.316 46.4155 88.316 50.8432 83.8883Z" fill="#FF9EB6"/>
<path d="M112.953 83.8883C117.381 79.4605 117.381 72.2817 112.953 67.8539C108.525 63.4262 101.347 63.4262 96.9188 67.8539C92.491 72.2817 92.491 79.4605 96.9188 83.8883C101.347 88.316 108.525 88.316 112.953 83.8883Z" fill="#FF9EB6"/>
<path d="M119.291 58.7719C121.164 57.4146 122.216 55.6929 122.424 53.6355C123 47.9422 116.614 41.679 113.797 39.2145C115.172 37.1951 115.373 34.8868 114.366 32.4553C112.558 28.0911 106.681 23.4087 98.2417 19.6088C90.1422 15.962 81.035 13.7848 73.8799 13.7848C70.8679 13.7848 67.5079 14.1751 64.0244 14.8942C61.0155 9.25498 55.4526 5.4845 49.0778 4.78725C43.1036 4.133 37.4286 6.28879 33.8963 10.5527C31.149 13.8694 30.3904 17.7423 31.7031 21.7521C32.643 24.6226 34.4424 27.0236 35.9256 28.6469C34.7716 29.9237 33.9157 31.2029 33.3968 32.4559C32.3903 34.8874 32.592 37.196 33.9684 39.215C31.1495 41.6798 24.7609 47.9433 25.3364 53.6366C25.5441 55.6931 26.595 57.4141 28.467 58.7711C27.4533 60.0791 26.0314 62.2141 25.0111 64.9611C23.4047 69.2849 22.5222 75.9828 27.4395 83.3382C32.5789 91.0215 41.7077 95.0768 53.8534 95.0768C53.9588 95.0768 54.0648 95.0765 54.171 95.076L54.153 92.0191C54.0473 92.0199 53.943 92.0202 53.8376 92.0202C42.6146 92.0202 34.5883 88.5282 29.9802 81.6392C21.9814 69.6735 31.4698 59.888 31.8753 59.4794C32.2223 59.133 32.382 58.6416 32.3049 58.1573C32.2278 57.6734 31.9233 57.2557 31.4859 57.0344C29.5481 56.0531 28.5311 54.8417 28.3777 53.3313C27.9287 48.9088 34.4962 42.6472 37.0639 40.6081C37.4056 40.3372 37.6152 39.9334 37.6405 39.4979C37.6654 39.0625 37.5034 38.6373 37.1948 38.3292C35.785 36.9203 35.4755 35.4257 36.221 33.6255C37.7109 30.0269 43.1518 25.829 50.7755 22.3964C58.5 18.9185 67.1371 16.842 73.8793 16.842C80.6235 16.842 89.2616 18.9185 96.9862 22.3964C104.61 25.8288 110.05 30.0266 111.541 33.6255C112.287 35.426 111.978 36.9206 110.569 38.3295C110.261 38.6376 110.1 39.0625 110.124 39.4977C110.149 39.9325 110.359 40.3366 110.7 40.6076C113.267 42.6469 119.831 48.9077 119.382 53.3302C119.228 54.8414 118.212 56.0529 116.273 57.0344C115.837 57.2551 115.534 57.6723 115.456 58.1548C115.377 58.6371 115.536 59.1292 115.88 59.4761C115.896 59.4916 116.01 59.6087 116.196 59.8178C117.084 60.8246 119.267 63.5844 120.35 67.4553C121.704 72.2911 120.838 77.063 117.779 81.6389C113.173 88.5281 105.148 92.0202 93.9238 92.0202C93.8187 92.0202 93.7133 92.0199 93.6076 92.0191L93.5896 95.076C93.6964 95.0765 93.8017 95.0768 93.908 95.0768C106.054 95.0765 115.183 91.0209 120.32 83.3379C127.883 72.0295 121.955 62.229 119.291 58.7719ZM49.521 19.6088C44.8528 21.7108 40.9705 24.0826 38.1255 26.5213C31.9865 19.8004 34.2893 14.8695 36.2501 12.5024C39.1248 9.03228 43.7964 7.28418 48.7453 7.82555C53.8368 8.38246 58.3126 11.2674 60.9212 15.6145C57.0983 16.5988 53.2061 17.9497 49.521 19.6088Z" fill="#FF9356"/>
<path d="M75.4121 62.3613H72.3552V68.5816H75.4121V62.3613Z" fill="#FF9356"/>
<path d="M76.7895 60.2555C76.0437 59.5 74.8267 59.4923 74.0712 60.238L73.8887 60.4183L73.7085 60.2358C72.9627 59.4803 71.7457 59.4726 70.9902 60.2183C70.2347 60.9641 70.227 62.1811 70.9727 62.9366L71.6131 63.5853C72.8506 64.8389 74.87 64.8516 76.1233 63.6141L76.772 62.9738C77.5275 62.228 77.5352 61.011 76.7895 60.2555Z" fill="#FD80A6"/>
<path d="M91.6602 67.6084C94.2708 67.6084 96.3872 65.492 96.3872 62.8813C96.3872 60.2707 94.2708 58.1543 91.6602 58.1543C89.0495 58.1543 86.9331 60.2707 86.9331 62.8813C86.9331 65.492 89.0495 67.6084 91.6602 67.6084Z" fill="#605C5D"/>
<path d="M56.1016 67.6084C58.7122 67.6084 60.8286 65.492 60.8286 62.8813C60.8286 60.2707 58.7122 58.1543 56.1016 58.1543C53.4909 58.1543 51.3745 60.2707 51.3745 62.8813C51.3745 65.492 53.4909 67.6084 56.1016 67.6084Z" fill="#605C5D"/>
<path d="M77.4668 71.2003C77.0184 71.2003 76.54 71.1562 76.031 71.0566C75.2026 70.8949 74.6621 70.0923 74.8238 69.2639C74.9854 68.4351 75.7867 67.8938 76.6168 68.0566C78.954 68.512 80.0337 66.9186 80.149 66.7356C80.5795 66.0095 81.5119 65.7776 82.238 66.2084C82.9641 66.6385 83.199 67.5845 82.7686 68.3106C82.6903 68.4426 81.0105 71.2003 77.4668 71.2003Z" fill="#FF9356"/>
<path d="M76.3239 69.5577C71.7355 71.1893 61.803 68.7509 62.6622 62.9561C63.5214 57.161 71.2885 58.7768 71.504 63.4949C71.7194 68.2131 76.3239 69.5577 76.3239 69.5577Z" fill="#FD80A6"/>
<path d="M72.9852 71.5694C69.7866 71.5694 66.0585 70.6234 63.6207 68.6187C61.6987 67.0384 60.8215 64.9478 61.1501 62.7318C61.5389 60.109 63.5061 57.5413 67.0187 57.7219C70.7631 57.9121 72.9109 60.8023 73.0304 63.4249C73.1918 66.9616 76.6154 68.0485 76.761 68.0929C77.3914 68.2856 77.8318 68.8625 77.8468 69.5215C77.8617 70.1807 77.4568 70.7765 76.8356 70.9972C75.7736 71.3752 74.4332 71.5694 72.9852 71.5694ZM66.6934 60.7702C65.815 60.7702 64.4791 61.1224 64.174 63.18C64.002 64.3412 64.456 65.348 65.5624 66.2574C67.1671 67.5767 69.6668 68.3197 71.9576 68.4906C70.929 67.3515 70.0773 65.7563 69.9771 63.5644C69.9017 61.9134 68.3347 60.8495 66.8637 60.7746C66.8093 60.7718 66.7522 60.7702 66.6934 60.7702Z" fill="#FE518E"/>
<path d="M98.8876 99.5957H48.8733C47.1974 99.5957 45.748 100.764 45.3918 102.402L39.0534 131.557C38.9993 131.805 38.9722 132.059 38.9722 132.313V134.221C38.9722 136.188 40.5672 137.783 42.5349 137.783H105.226C107.194 137.783 108.789 136.188 108.789 134.221V132.313C108.789 132.059 108.762 131.805 108.708 131.557L102.369 102.402C102.013 100.764 100.564 99.5957 98.8876 99.5957Z" fill="#91A2B5"/>
<path d="M46.4302 125.919L50.8466 105.605H96.9151L101.331 125.919H46.4302Z" fill="white"/>
<path d="M99.5785 116.333H93.4356L92.8568 112.591H98.1002V109.535H89.7882L89.2471 105.407L86.2163 105.804L86.7053 109.534H61.0549L61.5435 105.803L58.5127 105.406L57.9719 109.534H49.6599V112.591H54.9034L54.3246 116.332H48.1814V119.389H56.6828L55.8563 125.723L58.8877 126.119L59.766 119.389H67.3431L67.0727 125.858L70.1268 125.985L70.4022 119.389H77.358L77.6334 125.985L80.6875 125.858L80.4173 119.389H87.9944L88.8727 126.119L91.9041 125.723L91.0776 119.389H99.5787V116.333H99.5785ZM90.3421 116.333H85.343L85.0254 112.591H89.7633L90.3421 116.333ZM75.4113 112.591H81.9577L82.2753 116.333H75.4116V112.591H75.4113ZM72.3544 116.333H65.486L65.8069 112.591H72.3544V116.333ZM57.9966 112.591H62.7392L62.4183 116.333H57.4178L57.9966 112.591Z" fill="#E3E3E3"/>
<path d="M101.331 127.448H46.43C45.9677 127.448 45.53 127.239 45.2399 126.879C44.9498 126.519 44.8383 126.047 44.9365 125.595L49.3529 105.282C49.5055 104.579 50.1275 104.078 50.8464 104.078H96.9149C97.6338 104.078 98.2558 104.579 98.4084 105.282L102.825 125.595C102.923 126.047 102.811 126.519 102.521 126.879C102.231 127.239 101.794 127.448 101.331 127.448ZM48.3265 124.392H99.4348L95.6829 107.135H52.0781L48.3265 124.392Z" fill="#678490"/>
<path d="M105.226 139.311H42.535C39.7278 139.311 37.4438 137.027 37.4438 134.22V132.313C37.4438 131.948 37.483 131.584 37.5603 131.229L43.8987 102.076C44.4041 99.7527 46.4966 98.0664 48.874 98.0664H98.888C101.266 98.0664 103.358 99.7527 103.863 102.076L110.201 131.231C110.278 131.584 110.318 131.948 110.318 132.313V134.22C110.318 137.027 108.034 139.311 105.226 139.311ZM48.8737 101.123C47.9236 101.123 47.0876 101.797 46.8855 102.726L40.547 131.88C40.516 132.022 40.5007 132.167 40.5007 132.313V134.22C40.5007 135.342 41.4135 136.254 42.5353 136.254H105.226C106.348 136.254 107.261 135.342 107.261 134.22V132.313C107.261 132.167 107.245 132.022 107.215 131.882L100.876 102.725C100.674 101.797 99.8381 101.123 98.8882 101.123H48.8737Z" fill="#678490"/>
<path d="M102.938 132.934H44.8231C43.9792 132.934 43.2947 132.25 43.2947 131.405C43.2947 130.561 43.9792 129.877 44.8231 129.877H102.938C103.782 129.877 104.467 130.561 104.467 131.405C104.466 132.249 103.782 132.934 102.938 132.934Z" fill="#678490"/>
<path d="M66.3314 92.5975L64.9902 89.8918C63.4248 86.7342 59.8468 85.2318 56.575 86.169C53.963 85.0657 50.6562 84.506 47.0973 84.7213C39.0197 85.2097 32.7068 89.5004 32.9974 94.3049C33.2792 98.9648 39.6695 102.396 47.424 102.153C49.2337 105.607 53.4746 106.999 56.9863 105.258L62.4733 102.538C63.8774 104.086 65.5523 105.072 67.2524 104.123C70.1393 102.51 68.7523 97.4818 66.3314 92.5975Z" fill="#FFD5AE"/>
<path d="M67.702 91.9205C67.6954 91.9072 67.6873 91.895 67.6804 91.8817L66.3583 89.2148C64.5464 85.5602 60.5014 83.7345 56.6876 84.5662C53.8676 83.474 50.4526 82.9862 47.0052 83.1961C37.9483 83.7447 31.1257 88.6654 31.4729 94.3986C31.8004 99.7716 38.2223 103.676 46.5668 103.694C48.2921 106.252 51.2195 107.661 54.1993 107.526C55.3699 107.473 56.5486 107.182 57.6641 106.629L62.1809 104.39C62.8651 105 63.6032 105.489 64.3855 105.763C64.9461 105.96 65.5102 106.045 66.0654 106.02C66.7297 105.99 67.3811 105.801 67.9977 105.457C72.1501 103.138 70.1288 96.8159 67.702 91.9205ZM34.5239 94.2133C34.2888 90.3255 40.0888 86.6776 47.1897 86.2475C48.9084 86.1432 50.5999 86.2383 52.1863 86.506L48.5767 88.2954C44.2681 90.4312 42.5006 95.6738 44.6362 99.9824L44.9277 100.57C39.1961 100.125 34.7245 97.506 34.5239 94.2133ZM66.5075 102.788C66.1373 102.995 65.8055 103.022 65.3984 102.879C63.4184 102.186 61.1387 98.1566 60.1669 95.7803C59.8482 94.9985 58.9554 94.6227 58.1747 94.9416C57.3929 95.26 57.0174 96.152 57.3357 96.9338C57.5141 97.3712 58.5292 99.7802 60.1056 102.006L56.3062 103.89C53.5081 105.277 50.1026 104.129 48.7156 101.33L47.3744 98.6248C45.9877 95.8264 47.1356 92.4211 49.934 91.0341L56.0342 88.0103C58.8295 86.6249 62.232 87.7743 63.6195 90.5724L64.9608 93.2781L64.963 93.277L64.9633 93.2779C67.4474 98.2889 68.0387 101.933 66.5075 102.788Z" fill="#FF9356"/>
<path d="M111.733 93.0987C111.349 88.3009 105.49 84.8552 98.6458 85.4029C96.0643 85.6096 93.7121 86.3551 91.8032 87.4605L85.6273 89.1859C81.8052 90.2537 79.5731 94.225 80.6409 98.047L81.4535 100.956C82.9204 106.206 85.2526 110.872 88.4767 110.139C90.3759 109.709 90.9617 107.856 90.9697 105.765L96.868 104.117C97.8271 103.849 98.686 103.399 99.4182 102.816C99.6231 102.806 99.8289 102.794 100.036 102.777C106.88 102.23 112.116 97.8964 111.733 93.0987Z" fill="#FFD5AE"/>
<path d="M113.256 92.9772C113.03 90.1463 111.3 87.6436 108.386 85.9301C105.646 84.3188 102.145 83.591 98.5255 83.8806C95.8774 84.0916 93.3624 84.8382 91.2299 86.035L85.2182 87.7146C80.5902 89.0075 77.8775 93.8272 79.171 98.4591L79.972 101.326C79.9756 101.34 79.9778 101.355 79.9817 101.369C81.3376 106.224 83.7625 111.751 87.772 111.751C88.1082 111.751 88.4565 111.712 88.8151 111.631C90.0795 111.344 91.0791 110.587 91.7056 109.442C92.1039 108.715 92.3252 107.858 92.4256 106.947L97.281 105.59C98.2703 105.314 99.1714 104.876 99.9654 104.314C100.03 104.309 100.093 104.307 100.158 104.302C107.83 103.688 113.706 98.6075 113.256 92.9772ZM96.4587 102.646L92.3745 103.787C92.0575 101.078 91.2008 98.6078 91.0408 98.1632C90.7549 97.3689 89.8784 96.9573 89.085 97.243C88.2907 97.5289 87.8788 98.4048 88.1647 99.1991C89.0337 101.612 90.0354 106.127 89.0242 107.974C88.8165 108.354 88.5516 108.556 88.1381 108.65C86.4277 109.036 84.4303 105.933 82.9252 100.547C82.9252 100.547 82.9249 100.546 82.9249 100.546L82.9271 100.545L82.1145 97.6365C81.2744 94.6285 83.0353 91.4981 86.04 90.6586L92.5972 88.8267C95.6067 87.9858 98.7365 89.75 99.5772 92.7578L100.39 95.6663C101.23 98.6746 99.4668 101.806 96.4587 102.646ZM102.906 100.718C103.699 98.9312 103.9 96.8697 103.334 94.8442L102.521 91.9357C101.919 89.7799 100.552 88.0404 98.7959 86.9261C101.786 86.6917 104.639 87.2736 106.837 88.5654C108.867 89.7591 110.064 91.4127 110.209 93.2212C110.465 96.4176 107.314 99.4739 102.906 100.718Z" fill="#FF9356"/>
<path d="M140.471 8.0732V14.7749H86.5015V8.0732C86.5015 4.83937 89.1221 2.21875 92.3559 2.21875H134.617C137.851 2.21875 140.471 4.83937 140.471 8.0732Z" fill="#FFFF9D"/>
<path d="M140.471 14.7734V44.1952C140.471 47.429 137.851 50.0496 134.617 50.0496H92.3557C89.1218 50.0496 86.5012 47.429 86.5012 44.1952V14.7734H140.471Z" fill="#E965AC"/>
<path d="M107.446 36.7933C108.435 38.494 106.662 40.1838 104.902 39.4134L94.8151 35.5062C92.3093 34.6505 92.3512 30.8981 94.8151 29.9934L104.902 26.0859C106.677 25.3152 108.43 27.0097 107.446 28.7212C107.264 28.9839 107.011 29.1755 106.688 29.2967L97.6925 32.7496L106.688 36.2028C107.011 36.3443 107.264 36.5412 107.446 36.7933Z" fill="white"/>
<path d="M110.295 45.3351C108.77 46.4237 106.363 44.9476 107.1 43.0631L113.975 21.4666C114.137 20.9821 114.394 20.6188 114.748 20.3764C116.245 19.3044 118.666 20.7408 117.944 22.6481L111.068 44.2446C110.905 44.7294 110.648 45.0927 110.295 45.3351Z" fill="white"/>
<path d="M131.696 31.0969C132.741 32.6035 132.092 34.9115 130.318 35.5042L120.231 39.4114C119.452 39.7173 118.516 39.6574 117.945 39.0631C117.115 38.2754 117.253 36.6175 118.444 36.2009L127.44 32.7477L118.444 29.2948C118.121 29.1736 117.869 28.9819 117.687 28.7193C116.702 27.0078 118.456 25.3132 120.231 26.0839L130.317 29.9914C130.903 30.2338 131.363 30.6027 131.696 31.0969Z" fill="white"/>
<path d="M134.617 0.689453H92.3581C88.2869 0.689453 84.9746 4.00177 84.9746 8.0729V44.198C84.9746 48.2694 88.2867 51.5815 92.3581 51.5815H134.617C138.688 51.5815 142 48.2694 142 44.198V8.0729C142 4.00149 138.688 0.689453 134.617 0.689453ZM92.3581 3.74606H134.617C137.002 3.74606 138.943 5.68691 138.943 8.0729V13.2481H88.0315V8.0729C88.0315 5.68719 89.9726 3.74606 92.3581 3.74606ZM134.617 48.5246H92.3581C89.9723 48.5246 88.0315 46.5837 88.0315 44.198V16.305H138.943V44.198C138.943 46.5837 137.002 48.5246 134.617 48.5246Z" fill="#00D4D7"/>
<path d="M93.832 11.789C95.521 11.789 96.8902 10.4424 96.8902 8.78123C96.8902 7.12007 95.521 5.77344 93.832 5.77344C92.1429 5.77344 90.7737 7.12007 90.7737 8.78123C90.7737 10.4424 92.1429 11.789 93.832 11.789Z" fill="#65E1E9"/>
<path d="M103.399 11.789C105.088 11.789 106.458 10.4424 106.458 8.78123C106.458 7.12007 105.088 5.77344 103.399 5.77344C101.71 5.77344 100.341 7.12007 100.341 8.78123C100.341 10.4424 101.71 11.789 103.399 11.789Z" fill="#65E1E9"/>
</svg>
