<svg width="22" height="23" viewBox="0 0 22 23" fill="none" xmlns="http://www.w3.org/2000/svg">
<g clip-path="url(#clip0_339_28496)">
<path d="M15.4002 14.9834H13.2002V12.7834H16.5002V10.9501C16.5002 10.1397 17.1565 9.4834 17.9669 9.4834H20.1669C20.9772 9.4834 21.6335 10.1397 21.6335 10.9501V15.7167C21.6335 16.5271 20.9772 17.1834 20.1669 17.1834H16.1335V21.9501H13.9335V16.4501C13.9335 15.6397 14.5899 14.9834 15.4002 14.9834Z" fill="#EE964B"/>
<path d="M19.4331 0.683105V2.88311H17.2331V3.98311L16.1331 2.88311H14.2998V0.683105H19.4331Z" fill="#DEDEE6"/>
<path d="M21.2667 7.2835C21.2667 8.49844 20.2816 9.4835 19.0667 9.4835C17.8518 9.4835 16.8667 8.49844 16.8667 7.2835C16.8667 6.06855 17.8518 5.0835 19.0667 5.0835C20.2816 5.0835 21.2667 6.06855 21.2667 7.2835Z" fill="#EE964B"/>
<path d="M11.7332 11.3166C11.1245 11.3166 10.6332 10.8253 10.6332 10.2166C10.6332 9.93426 10.7431 9.67752 10.9191 9.48327H9.5332V4.34993H10.9191C10.7431 4.15568 10.6332 3.89894 10.6332 3.6166C10.6332 3.00788 11.1245 2.5166 11.7332 2.5166C12.3419 2.5166 12.8332 3.00788 12.8332 3.6166C12.8332 3.89894 12.7233 4.15568 12.5473 4.34993H13.9332V6.10252C13.7389 5.92653 13.4822 5.8166 13.1999 5.8166C12.5911 5.8166 12.0999 6.30788 12.0999 6.9166C12.0999 7.52533 12.5911 8.0166 13.1999 8.0166C13.4822 8.0166 13.7389 7.90667 13.9332 7.73068V9.48327H12.5473C12.7233 9.67752 12.8332 9.93426 12.8332 10.2166C12.8332 10.8253 12.3419 11.3166 11.7332 11.3166Z" fill="#FFCA55"/>
<path d="M0.366699 3.61644V0.683105H8.43337V3.61644H7.33337L6.23337 4.71644V3.61644H0.366699Z" fill="#DEDEE6"/>
<path d="M6.2335 7.2835C6.2335 8.49844 5.24844 9.4835 4.0335 9.4835C2.81855 9.4835 1.8335 8.49844 1.8335 7.2835C1.8335 6.06855 2.81855 5.0835 4.0335 5.0835C5.24844 5.0835 6.2335 6.06855 6.2335 7.2835Z" fill="#5DBCD9"/>
<path d="M3.05808 9.48317H6.9668L9.53347 6.9165L11.0001 8.38317L7.70014 11.6832H5.50014L4.7668 14.9832H6.60014C7.41046 14.9832 8.0668 15.6395 8.0668 16.4498V21.9498H5.8668V17.1832H2.12315C1.21007 17.1832 0.517195 16.3546 0.682087 15.4524L1.61343 10.6858C1.7418 9.98913 2.35053 9.48317 3.05808 9.48317Z" fill="#5DBCD9"/>
<path d="M17.2333 15.3498H15.7666V14.6165H17.2333C17.8397 14.6165 18.3333 14.1229 18.3333 13.5165V12.0498H19.0666V13.5165C19.0666 14.5273 18.2441 15.3498 17.2333 15.3498Z" fill="#E38A40"/>
<path d="M5.86667 16.8168H1.83333C1.22694 16.8168 0.733333 16.3232 0.733333 15.7168V10.2168H0V15.7168C0 16.7276 0.822493 17.5501 1.83333 17.5501V22.3168H2.56667V17.5501H5.86667V16.8168Z" fill="#45639C"/>
<path d="M21.2666 10.2168V15.7168C21.2666 16.3232 20.773 16.8168 20.1666 16.8168H16.1333V17.5501H19.4333V22.3168H20.1666V17.5501C21.1775 17.5501 22 16.7276 22 15.7168V10.2168H21.2666Z" fill="#45639C"/>
<path d="M1.4668 1.7832H2.93346V2.51654H1.4668V1.7832Z" fill="#45639C"/>
<path d="M9.53343 14.6167H6.6001V13.8834H9.27938L10.2899 11.188L10.9766 11.4454L9.87664 14.3788C9.82311 14.5218 9.68633 14.6167 9.53343 14.6167Z" fill="#DEDEE6"/>
<path d="M15.7667 15.35V14.6167H6.2334V15.35H10.6334V21.5834H9.16673V22.3167H12.8334V21.5834H11.3667V15.35H15.7667Z" fill="#45639C"/>
<path d="M3.6665 1.7832H4.39984V2.51654H3.6665V1.7832Z" fill="#45639C"/>
<path d="M5.1333 1.7832H5.86663V2.51654H5.1333V1.7832Z" fill="#45639C"/>
<path d="M6.59961 1.7832H7.33294V2.51654H6.59961V1.7832Z" fill="#45639C"/>
</g>
<defs>
<clipPath id="clip0_339_28496">
<rect width="22" height="22" fill="white" transform="translate(0 0.5)"/>
</clipPath>
</defs>
</svg>
