<svg width="86" height="86" viewBox="0 0 86 86" fill="none" xmlns="http://www.w3.org/2000/svg">
<path d="M58.4059 69.9541C43.6685 78.6444 24.7146 73.7522 16.0439 59.0481C7.35351 44.3107 12.2458 25.3568 26.9832 16.6664C41.6872 7.99568 60.6412 12.888 69.3315 27.6253C78.0023 42.3294 73.11 61.2834 58.4059 69.9541Z" fill="#FCD131"/>
<path d="M54.2249 62.8811C43.4008 69.2639 29.4898 65.6732 23.1168 54.8658C16.7341 44.0418 20.3247 30.1307 31.1488 23.748C41.9562 17.375 55.8672 20.9657 62.25 31.7897C68.6229 42.5971 65.0323 56.5082 54.2249 62.8811Z" fill="#F6AF21"/>
<path d="M35.7292 50.9255L25.7359 56.8184C25.3656 56.3011 25.0275 55.7648 24.6951 55.201C24.3363 54.5926 24.0123 53.9877 23.7125 53.3686L33.6978 47.4805L35.7292 50.9255Z" fill="#E5E5E5"/>
<path d="M53.2307 33.489L46.3855 37.5255L43.9689 33.4273L50.8141 29.3908C51.8392 28.7863 53.2061 29.2224 53.8709 30.3499C54.541 31.4863 54.2478 32.8893 53.2307 33.489Z" fill="white"/>
<path d="M59.8484 44.7117L53.0032 48.7482L50.5865 44.65L57.4317 40.6135C58.4569 40.009 59.8238 40.4451 60.4886 41.5725C61.1587 42.7089 60.8655 44.1119 59.8484 44.7117Z" fill="white"/>
<path d="M51.5245 53.2149L45.1475 56.9753C39.9732 60.0264 33.0319 57.8487 29.6497 52.113C26.2674 46.3773 27.7212 39.2491 32.8954 36.1979L39.2725 32.4375L51.5245 53.2149Z" fill="#44394A"/>
<path d="M54.7025 55.5599C53.2334 56.4262 51.2711 55.8106 50.3108 54.182L37.911 33.1541C36.9507 31.5256 37.3617 29.5105 38.8308 28.6442C40.3 27.7778 42.2622 28.3935 43.2225 30.022L55.6223 51.0499C56.5826 52.6785 56.1636 54.6983 54.7025 55.5599Z" fill="#8C9FFA"/>
<path d="M43.4729 48.1207L41.5628 44.8815C41.5048 44.7831 41.4036 44.7221 41.3046 44.7202L34.8194 44.5889C34.5999 44.5857 34.48 44.8252 34.6014 45.031L35.2293 46.0958C35.3507 46.3016 35.2413 46.559 35.0243 46.5785L31.217 46.9664C30.9196 46.9971 30.8972 47.4203 31.1772 47.5447L37.8424 50.3797C38.1038 50.4908 38.3177 50.2079 38.17 49.9574L37.5474 48.9015C37.4154 48.6778 37.549 48.4061 37.7952 48.4177L43.2497 48.5538C43.4744 48.566 43.5943 48.3265 43.4729 48.1207Z" fill="white"/>
</svg>
