<svg width="33" height="33" viewBox="0 0 33 33" fill="none" xmlns="http://www.w3.org/2000/svg">
<g clip-path="url(#clip0_880_183533)">
<path d="M16.7283 32.0977C25.5648 32.0977 32.7283 24.9342 32.7283 16.0977C32.7283 7.2611 25.5648 0.0976562 16.7283 0.0976562C7.89172 0.0976562 0.728271 7.2611 0.728271 16.0977C0.728271 24.9342 7.89172 32.0977 16.7283 32.0977Z" fill="#FFDD33"/>
<path d="M13.4895 5.94141C12.9407 5.94141 12.4957 6.38634 12.4957 6.93522V13.7878H14.4833V6.93516C14.4834 6.38634 14.0384 5.94141 13.4895 5.94141Z" fill="#FCF9F0"/>
<path d="M13.9482 6.05391C13.6301 6.21953 13.4132 6.55203 13.4132 6.93516V13.7877H12.4957V6.93516C12.4957 6.38641 12.9401 5.94141 13.4895 5.94141C13.6551 5.94134 13.8114 5.98197 13.9482 6.05391Z" fill="#EDEAE2"/>
<path d="M19.9671 5.94141C19.4182 5.94141 18.9733 6.38634 18.9733 6.93522V13.7878H20.9608V6.93516C20.9609 6.38634 20.516 5.94141 19.9671 5.94141Z" fill="#FCF9F0"/>
<path d="M20.4258 6.05391C20.1076 6.21953 19.8908 6.55203 19.8908 6.93516V13.7877H18.9733V6.93516C18.9733 6.38641 19.4176 5.94141 19.967 5.94141C20.1326 5.94134 20.2889 5.98197 20.4258 6.05391Z" fill="#EDEAE2"/>
<path d="M16.7283 31.0201C16.2106 31.0201 15.7908 30.6004 15.7908 30.0826C15.7908 29.5649 16.2106 29.1451 16.7283 29.1451C23.9236 29.1451 29.7774 23.2913 29.7775 16.0961C29.7775 12.6196 28.4176 9.34525 25.9483 6.876C23.479 4.40675 20.2046 3.04688 16.7283 3.04688C9.53301 3.04694 3.6792 8.90069 3.6792 16.096C3.6792 20.8154 6.23995 25.1811 10.3621 27.4897C11.4978 28.1256 12.8484 28.1109 13.9754 27.4504C15.1122 26.7842 15.7908 25.6011 15.7908 24.2856V19.812C15.7908 19.2943 16.2106 18.8745 16.7283 18.8745C17.2461 18.8745 17.6658 19.2943 17.6658 19.812V24.2856C17.6658 26.2738 16.6407 28.0617 14.9235 29.0681C13.2163 30.0688 11.1684 30.0903 9.44595 29.1256C4.73232 26.4859 1.8042 21.4932 1.8042 16.096C1.8042 12.1096 3.35657 8.36187 6.17532 5.54306C8.99407 2.72425 12.7418 1.17194 16.7283 1.17188C20.7055 1.17188 24.4508 2.72675 27.2741 5.55013C30.0975 8.3735 31.6525 12.1188 31.6525 16.096C31.6524 20.0824 30.1 23.8301 27.2813 26.6489C24.4625 29.4676 20.7146 31.0201 16.7283 31.0201Z" fill="#FC5965"/>
<path d="M20.0587 21.0148C20.0587 20.6226 19.7408 20.3047 19.3486 20.3047H14.1081C13.7159 20.3047 13.3979 20.6226 13.3979 21.0148C13.3979 21.407 13.7159 21.7249 14.1081 21.7249H14.2517C14.075 21.8541 13.9598 22.0623 13.9598 22.2979C13.9598 22.6878 14.2741 23.0039 14.6631 23.0077C14.4861 23.1369 14.3707 23.3452 14.3707 23.5811C14.3707 23.9732 14.6886 24.2912 15.0808 24.2912H18.3758C18.768 24.2912 19.0859 23.9732 19.0859 23.5811C19.0859 23.3452 18.9705 23.1369 18.7936 23.0077C19.1826 23.004 19.4968 22.6878 19.4968 22.2979C19.4968 22.0623 19.3816 21.8541 19.2049 21.7249H19.3486C19.7408 21.7249 20.0587 21.407 20.0587 21.0148Z" fill="#78757A"/>
<path d="M16.6848 24.2914H15.0808C14.8847 24.2914 14.7073 24.2121 14.5786 24.0835C14.45 23.9549 14.3707 23.7775 14.3707 23.5814C14.3707 23.3456 14.4859 23.1371 14.6628 23.0079C14.2742 23.0042 13.9596 22.688 13.9596 22.2984C13.9596 22.0626 14.0748 21.8546 14.2517 21.7254H14.1081C13.7158 21.7254 13.3979 21.4071 13.3979 21.0148C13.3979 20.6231 13.7158 20.3047 14.1081 20.3047H15.7121C15.3198 20.3047 15.0019 20.623 15.0019 21.0148C15.0019 21.4071 15.3198 21.7254 15.7121 21.7254H15.8557C15.6788 21.8546 15.5636 22.0626 15.5636 22.2984C15.5636 22.688 15.8777 23.0042 16.2668 23.0079C16.0899 23.1371 15.9747 23.3456 15.9747 23.5814C15.9747 23.7775 16.054 23.9549 16.1826 24.0835C16.3113 24.2121 16.4887 24.2914 16.6848 24.2914Z" fill="#5A565E"/>
<path d="M22.0408 13.9961L21.8039 15.8723L21.2633 20.1555C21.1526 21.0323 20.407 21.6905 19.5233 21.6905H13.9333C13.0495 21.6905 12.3039 21.0323 12.1933 20.1555L11.6526 15.8723L11.4158 13.9961H22.0408Z" fill="#78757A"/>
<path d="M22.0408 13.9961L21.8039 15.8723H11.6526L11.4158 13.9961H22.0408Z" fill="#5A565E"/>
<path d="M15.2571 21.6905H13.9334C13.0496 21.6905 12.304 21.0323 12.1934 20.1555L11.4159 13.9961H12.7396L13.5171 20.1555C13.6278 21.0323 14.3734 21.6905 15.2571 21.6905Z" fill="#5A565E"/>
<path d="M22.3576 13.2891H11.0988C10.67 13.2891 10.3224 13.6367 10.3224 14.0655C10.3224 14.4943 10.67 14.8419 11.0988 14.8419H22.3576C22.7864 14.8419 23.134 14.4943 23.134 14.0655C23.1341 13.6367 22.7865 13.2891 22.3576 13.2891Z" fill="#78757A"/>
<path d="M13.0905 14.6147C13.2311 14.7553 13.4255 14.8422 13.6399 14.8422H11.0986C10.8843 14.8422 10.6905 14.7553 10.5499 14.6147C10.4093 14.4741 10.3224 14.2803 10.3224 14.0659C10.3224 13.6366 10.6699 13.2891 11.0986 13.2891H13.6399C13.2111 13.2891 12.863 13.6366 12.863 14.0659C12.863 14.2804 12.9499 14.4741 13.0905 14.6147Z" fill="#5A565E"/>
<path d="M16.7282 19.9762C17.5814 19.9762 18.273 19.2846 18.273 18.4315C18.273 17.5783 17.5814 16.8867 16.7282 16.8867C15.8751 16.8867 15.1835 17.5783 15.1835 18.4315C15.1835 19.2846 15.8751 19.9762 16.7282 19.9762Z" fill="#5A565E"/>
<path d="M16.7283 19.282C17.1998 19.282 17.5821 18.8997 17.5821 18.4281C17.5821 17.9565 17.1998 17.5742 16.7283 17.5742C16.2567 17.5742 15.8744 17.9565 15.8744 18.4281C15.8744 18.8997 16.2567 19.282 16.7283 19.282Z" fill="#FCF9F0"/>
<path d="M29.2541 3.31818L27.8686 6.65718L30.1711 6.76174C30.6995 6.78574 30.9576 7.41743 30.5971 7.80462L26.2368 12.4881C25.9874 12.7561 25.5544 12.4698 25.7032 12.1354L27.0534 9.10168L24.7711 9.00968C24.2499 8.98868 23.9855 8.37293 24.3293 7.98056L28.7106 2.98018C28.9526 2.70418 29.3947 2.97918 29.2541 3.31818Z" fill="#5A565E"/>
</g>
<defs>
<clipPath id="clip0_880_183533">
<rect width="32" height="32" fill="white" transform="translate(0.728271 0.0976562)"/>
</clipPath>
</defs>
</svg>
