<svg width="126" height="126" viewBox="0 0 126 126" fill="none" xmlns="http://www.w3.org/2000/svg">
<path d="M63 126C53.0827 126 43.5948 123.762 34.7994 119.349C26.9396 115.41 19.8593 109.743 14.256 102.915H10.9746C9.61587 102.915 8.51484 101.813 8.51484 100.455V96.6592H6.84731C5.48887 96.6592 4.38761 95.5582 4.38761 94.1998V86.1444C1.47607 78.7803 0 70.9961 0 62.9988C0 51.8552 2.9418 40.9291 8.51484 31.3531V20.3362C8.51484 19.0801 9.46107 18.0261 10.7098 17.891C10.8579 17.875 14.2353 17.5125 19.7633 17.1778C31.5025 6.09328 46.8196 0 63 0C76.0179 0 88.4803 3.92495 99.0941 11.3585H99.2439C100.4 11.3589 101.37 12.1565 101.633 13.2317C103.118 14.3859 104.564 15.6174 105.95 16.9076C113.125 17.3102 117.963 17.8689 118.174 17.8932C119.414 18.0377 120.349 19.088 120.349 20.3362V36.8835C124.099 45.1014 126 53.8842 126 62.9988C126 72.1124 124.099 80.8962 120.349 89.1162V100.455C120.349 101.814 119.248 102.915 117.889 102.915H111.745C101.821 115.028 87.9268 122.958 72.4874 125.289C69.3696 125.761 66.1773 126 63 126Z" fill="white"/>
<path d="M123.541 62.9355C123.541 72.0752 121.517 80.7402 117.891 88.5099C117.107 90.1872 116.251 91.8228 115.321 93.4118C114.578 94.6883 113.789 95.9352 112.952 97.1477C112.645 97.6003 112.328 98.0504 112.005 98.4931C111.976 98.5325 111.949 98.5719 111.919 98.6113C111.479 99.214 111.029 99.8065 110.566 100.392C101.262 112.193 87.6603 120.447 72.1207 122.793C69.1472 123.244 57.3935 97.8727 54.292 97.8727C44.5496 97.8727 44.0542 121.178 35.9031 117.087C27.907 113.081 20.9241 107.352 15.4345 100.392C15.0287 99.8779 14.6303 99.354 14.2417 98.8254C14.158 98.7146 14.0768 98.6039 13.9958 98.4934C13.8851 98.3408 13.7744 98.1885 13.6663 98.0359C13.6245 97.9793 13.5851 97.9202 13.5457 97.8636C12.6898 96.6536 11.8757 95.4116 11.1109 94.1375C11.0641 94.0637 11.0198 93.9899 10.9755 93.9136C9.39636 91.2695 8.01429 88.4926 6.8483 85.6077C4.01724 78.6053 2.46045 70.9538 2.46045 62.9355C2.46045 51.6167 5.56689 41.0234 10.9755 31.96C11.7798 30.6072 12.6381 29.2913 13.5457 28.0099C14.8468 26.1677 16.2513 24.4017 17.7468 22.7219C18.7282 21.6149 19.7512 20.5476 20.8114 19.517C31.7144 8.92166 46.5949 2.39648 63.0005 2.39648C76.1791 2.39648 88.371 6.60715 98.3103 13.7547C98.625 13.9811 98.9351 14.2073 99.2449 14.4408C101.232 15.9265 103.126 17.5349 104.914 19.2492C106.043 20.3362 107.133 21.4628 108.176 22.6335C108.621 23.1304 109.056 23.6346 109.484 24.146C109.536 24.2075 109.585 24.2691 109.637 24.3306C111.745 26.8737 113.648 29.5916 115.321 32.4618C116.251 34.0505 117.106 35.6863 117.891 37.3637C121.517 45.1309 123.541 53.7959 123.541 62.9355Z" fill="#2730FF"/>
<path d="M10.9747 100.391V20.2721C10.9747 20.2721 22.4801 19.0261 37.7037 19.0261C52.9273 19.0261 65.4156 20.2721 65.4156 20.2721C65.4156 20.2721 78.3815 18.9043 92.2654 18.9043C106.149 18.9043 117.89 20.2721 117.89 20.2721V100.391H74.0631H65.612L53.2303 103.7L36.2626 100.391H10.9747V100.391Z" fill="#6E72FF"/>
<path d="M13.5449 98.491V23.2847C13.5449 23.2847 17.5265 22.1055 37.4421 22.1055C57.3577 22.1055 65.3491 23.2847 65.3491 23.2847C65.3491 23.2847 75.1769 22.2366 92.21 22.2366C109.243 22.2366 115.32 23.2847 115.32 23.2847V98.491H13.5449Z" fill="white"/>
<path d="M115.478 98.1397C115.471 98.1372 115.417 98.1126 115.321 98.0732C114.996 97.933 114.172 97.5911 112.952 97.146C108.628 95.5719 99.3209 92.7089 89.4456 92.9968C84.8215 93.1322 80.4952 93.806 76.8107 94.6299C76.6138 94.6717 76.4172 94.716 76.2252 94.7603C76.1637 94.7751 76.1046 94.7899 76.0456 94.8022C70.8682 96.0171 67.0828 97.4831 65.7325 98.0415V23.1532C65.7325 22.9418 65.5602 22.7695 65.3489 22.7695C65.1348 22.7695 64.9627 22.9418 64.9627 23.1532V98.056C64.3231 97.8077 63.1352 97.3625 61.5465 96.8287C61.448 96.7943 61.3496 96.7623 61.2489 96.7303C61.1357 96.6909 61.0228 96.654 60.9046 96.6146C55.656 94.8954 46.7471 92.48 38.7387 92.7335C27.459 93.095 15.5646 97.3303 13.6657 98.0339C13.619 98.0511 13.5796 98.0659 13.5451 98.0782C13.459 98.1102 13.4122 98.1298 13.4049 98.1323C13.2277 98.2012 13.127 98.3904 13.1689 98.575C13.2107 98.7621 13.3854 98.8898 13.5747 98.875C13.5944 98.8725 13.8279 98.8553 14.2413 98.8233C15.1046 98.7593 16.7549 98.6388 18.8753 98.4913C25.0365 98.0634 35.1824 97.4164 41.6412 97.3035C47.4532 97.2001 54.7188 97.82 59.6528 98.3415C59.8053 98.3562 59.9552 98.371 60.1029 98.3882C60.1988 98.3981 60.2948 98.4079 60.3881 98.4178C60.6219 98.4424 60.8456 98.4695 61.0644 98.4916C63.6026 98.7744 65.2507 98.9958 65.2974 99.0032C65.3146 99.0057 65.3319 99.0081 65.3491 99.0081C65.3565 99.0081 65.3639 99.0057 65.3712 99.0057C65.45 99.0008 69.2918 98.7746 74.3118 98.5211C74.4004 98.5162 74.489 98.5113 74.5774 98.5064C74.6684 98.5014 74.7595 98.4965 74.8527 98.4916C74.9167 98.4891 74.9832 98.4867 75.0496 98.4818C80.4976 98.2088 87.1336 97.9135 91.8657 97.8276C97.7269 97.7194 105.339 98.1498 110.266 98.4916C110.859 98.531 111.412 98.5728 111.919 98.6097C113.955 98.7598 115.244 98.8703 115.286 98.8753C115.471 98.8925 115.645 98.7694 115.692 98.5876C115.739 98.4055 115.648 98.216 115.478 98.1397ZM18.2504 97.3108C23.0884 95.8203 31.0746 93.7494 38.7633 93.5035C39.1519 93.4912 39.543 93.4863 39.9367 93.4863C45.933 93.4863 52.3133 94.8858 57.1638 96.2706C52.3529 95.2769 46.3342 94.3055 41.6239 94.4382C35.0791 94.62 24.1658 96.3171 18.2504 97.3108ZM41.6266 96.5337C36.0703 96.6321 27.8013 97.1241 21.667 97.5299C27.747 96.5607 36.218 95.3605 41.6439 95.208C47.114 95.0529 54.3846 96.4106 59.402 97.5422C54.4558 97.0281 47.35 96.4328 41.6266 96.5337ZM91.8514 97.0576C87.2323 97.1413 80.8055 97.424 75.4362 97.6923C75.2714 97.6997 75.1116 97.707 74.9492 97.7169C74.8655 97.7194 74.7819 97.7243 74.7007 97.7292C73.5915 97.7858 72.5338 97.8399 71.5573 97.8916C72.5855 97.7194 73.7045 97.535 74.8828 97.3529C74.9664 97.3406 75.0501 97.3283 75.136 97.316C75.3058 97.2865 75.4778 97.2619 75.6525 97.2348C81.2507 96.3838 87.9752 95.5599 92.6384 95.6436C98.148 95.7445 104.806 96.8019 109.386 97.6603C104.449 97.3305 97.3782 96.9567 91.8514 97.0576ZM92.6532 94.8735C88.0808 94.7899 81.5704 95.567 76.0461 96.3934C75.8664 96.4205 75.6895 96.4475 75.5123 96.4746C75.436 96.4869 75.3597 96.4992 75.2837 96.5091C73.1168 96.8435 71.1269 97.1779 69.5037 97.4634C71.149 96.9075 73.2398 96.2731 75.6599 95.6876C75.7288 95.6704 75.7977 95.6532 75.8691 95.6384C76.0586 95.5916 76.2503 95.5473 76.4447 95.5006C80.1982 94.6324 84.6721 93.9069 89.4683 93.7666C89.9331 93.7518 90.3955 93.7444 90.8555 93.7444C98.5565 93.7444 105.773 95.5843 110.308 97.0524C105.701 96.1648 98.5341 94.9816 92.6532 94.8735Z" fill="#412945"/>
<path d="M70.9834 32.7113C70.8013 32.7113 70.6396 32.5814 70.6054 32.3961C70.567 32.1871 70.7051 31.9863 70.9143 31.9479C71.1141 31.9112 91.1365 28.3089 111.799 31.9474C112.008 31.9843 112.148 32.1839 112.111 32.3933C112.074 32.6028 111.875 32.7423 111.665 32.7056C91.1382 29.091 71.2521 32.6685 71.0535 32.7051C71.0302 32.7091 71.0065 32.7113 70.9834 32.7113Z" fill="#412945"/>
<path d="M70.9834 38.0825C70.8013 38.0825 70.6396 37.9528 70.6054 37.7673C70.567 37.5583 70.7051 37.3575 70.9143 37.3191C71.1138 37.2825 91.1365 33.6799 111.799 37.3186C112.008 37.3555 112.148 37.5551 112.111 37.7643C112.074 37.9735 111.875 38.1138 111.665 38.0766C91.1449 34.463 71.2521 38.0397 71.0535 38.0761C71.0302 38.0805 71.0065 38.0825 70.9834 38.0825Z" fill="#412945"/>
<path d="M70.9834 43.4554C70.8013 43.4554 70.6396 43.3255 70.6054 43.1402C70.567 42.9313 70.7051 42.7304 70.9143 42.6921C71.1141 42.6554 91.1365 39.0531 111.799 42.6916C112.008 42.7285 112.148 42.9281 112.111 43.1372C112.074 43.3467 111.875 43.4862 111.665 43.4495C91.1382 39.8349 71.2521 43.4126 71.0535 43.449C71.0302 43.4532 71.0065 43.4554 70.9834 43.4554Z" fill="#412945"/>
<path d="M70.9834 48.8264C70.8013 48.8264 70.6396 48.6965 70.6054 48.5112C70.567 48.3022 70.7051 48.1014 70.9143 48.063C71.1141 48.0264 91.1365 44.4243 111.799 48.0626C112.008 48.0995 112.148 48.299 112.111 48.5085C112.074 48.7177 111.875 48.8569 111.665 48.8208C91.1382 45.2061 71.2521 48.7836 71.0535 48.8203C71.0302 48.8245 71.0065 48.8264 70.9834 48.8264Z" fill="#412945"/>
<path d="M70.9834 54.1978C70.8013 54.1978 70.6396 54.0681 70.6054 53.8825C70.567 53.6736 70.7051 53.4728 70.9143 53.4344C71.1141 53.3975 91.1365 49.7952 111.799 53.4339C112.008 53.4708 112.148 53.6704 112.111 53.8796C112.074 54.0888 111.874 54.2278 111.665 54.1919C91.1449 50.5782 71.2521 54.155 71.0535 54.1914C71.0302 54.1958 71.0065 54.1978 70.9834 54.1978Z" fill="#412945"/>
<path d="M70.9834 59.5706C70.8013 59.5706 70.6396 59.4407 70.6054 59.2554C70.567 59.0464 70.7051 58.8456 70.9143 58.8072C71.1141 58.7703 91.1365 55.1685 111.799 58.8067C112.008 58.8437 112.148 59.0432 112.111 59.2524C112.074 59.4616 111.875 59.6009 111.665 59.5647C91.1382 55.9501 71.2521 59.5276 71.0535 59.5642C71.0302 59.5684 71.0065 59.5706 70.9834 59.5706Z" fill="#412945"/>
<path d="M70.9834 64.9437C70.8013 64.9437 70.6396 64.8137 70.6054 64.6284C70.567 64.4192 70.7051 64.2187 70.9143 64.1803C71.1141 64.1434 91.1365 60.5415 111.799 64.1798C112.008 64.2167 112.148 64.4163 112.111 64.6257C112.074 64.8351 111.875 64.9747 111.665 64.938C91.1382 61.3234 71.2521 64.9008 71.0535 64.9375C71.0302 64.9414 71.0065 64.9437 70.9834 64.9437Z" fill="#412945"/>
<path d="M70.9834 70.3147C70.8013 70.3147 70.6396 70.185 70.6054 69.9997C70.567 69.7908 70.7051 69.59 70.9143 69.5516C71.1138 69.5147 91.1365 65.9124 111.799 69.5511C112.008 69.588 112.148 69.7876 112.111 69.9968C112.074 70.206 111.875 70.3453 111.665 70.3091C91.1449 66.6954 71.2521 70.2719 71.0535 70.3086C71.0302 70.3128 71.0065 70.3147 70.9834 70.3147Z" fill="#412945"/>
<path d="M70.9834 75.6858C70.8013 75.6858 70.6396 75.5559 70.6054 75.3706C70.567 75.1616 70.7051 74.9608 70.9143 74.9224C71.1141 74.8858 91.1365 71.2837 111.799 74.9219C112.008 74.9588 112.148 75.1584 112.111 75.3676C112.074 75.577 111.875 75.7166 111.665 75.6799C91.1382 72.0653 71.2521 75.6427 71.0535 75.6794C71.0302 75.6838 71.0065 75.6858 70.9834 75.6858Z" fill="#412945"/>
<path d="M70.9834 81.0588C70.8013 81.0588 70.6396 80.9289 70.6054 80.7436C70.567 80.5344 70.7051 80.3339 70.9143 80.2955C71.1141 80.2588 91.1365 76.6567 111.799 80.295C112.008 80.3319 112.148 80.5315 112.111 80.7409C112.074 80.9501 111.875 81.0894 111.665 81.0532C91.1382 77.4383 71.2521 81.0158 71.0535 81.0524C71.0302 81.0566 71.0065 81.0588 70.9834 81.0588Z" fill="#412945"/>
<path d="M70.9834 86.43C70.8013 86.43 70.6396 86.3003 70.6054 86.115C70.567 85.906 70.7051 85.7052 70.9143 85.6668C71.1141 85.6299 91.1365 82.0276 111.799 85.6663C112.008 85.7033 112.148 85.9028 112.111 86.112C112.074 86.3212 111.874 86.4605 111.665 86.4243C91.1449 82.8109 71.2521 86.3872 71.0535 86.4238C71.0302 86.428 71.0065 86.43 70.9834 86.43Z" fill="#412945"/>
<path d="M76.2258 94.7617C76.1101 95.0567 75.992 95.3496 75.8692 95.6397C75.7535 95.92 75.6329 96.1981 75.5126 96.4759C75.3896 96.7587 75.264 97.0393 75.1363 97.3171C75.0748 97.4524 75.0133 97.5851 74.9493 97.718C74.8287 97.9811 74.7081 98.237 74.5853 98.4927C74.5829 98.4976 74.5804 98.5025 74.5779 98.5074C74.2607 99.164 73.9433 99.7962 73.6384 100.392C72.7726 102.066 71.9856 103.454 71.5084 104.29C71.5084 104.29 71.5429 104.428 71.5995 104.681C72.0077 106.484 73.6064 114.17 72.6865 120.144C72.5413 121.081 72.3496 121.964 72.1207 122.793C69.1471 123.243 66.102 123.477 63.0005 123.477C53.2581 123.477 44.0542 121.177 35.9031 117.087C36.1344 110.294 36.2547 101.016 36.2621 100.392C36.2621 100.372 36.2621 100.36 36.2621 100.36H58.7994C58.7994 100.36 58.8019 100.355 58.8068 100.345C58.8757 100.239 59.3209 99.5455 60.0316 98.4927C60.0562 98.4582 60.0783 98.4238 60.1029 98.3893C60.4349 97.9023 60.8186 97.3415 61.249 96.7316C62.2796 95.2706 63.5635 93.5169 64.9631 91.7756C65.2163 91.4608 65.4722 91.1433 65.7328 90.831C69.3238 86.5023 73.4708 82.5694 75.9622 83.7204C76.5231 83.9786 76.951 84.3502 77.2633 84.8126C77.4159 85.0363 77.5411 85.2824 77.642 85.5479C78.4785 87.7593 77.5933 91.2962 76.2258 94.7617Z" fill="#FF9582"/>
<path d="M70.6259 86.3792C70.0518 87.1561 69.5461 88.0019 69.2983 88.9356C69.0504 89.8693 69.081 90.9039 69.5355 91.7563C70.4155 93.4071 72.7394 93.9116 74.4374 93.1271C76.1357 92.3425 77.2136 90.5714 77.6182 88.7451C77.8525 87.6882 77.8884 86.5552 77.4937 85.5472C76.0326 81.8159 72.259 84.1703 70.6259 86.3792Z" fill="#E36352"/>
<path d="M68.1014 121.95C68.064 121.95 68.0261 121.944 67.9892 121.93C67.8229 121.868 67.7382 121.683 67.8 121.516C69.1503 117.888 67.7129 110.236 67.6981 110.159C67.6831 110.081 67.6974 110.001 67.7382 109.933C67.7926 109.842 73.1912 100.833 74.101 98.9526C74.1819 98.785 74.2781 98.5899 74.3862 98.3709C75.9853 95.1269 80.2334 86.5094 76.2513 84.442C72.5944 82.5436 68.2511 88.143 64.4191 93.0835C64.0965 93.4997 63.7776 93.9109 63.4631 94.3123C59.4148 99.48 56.3502 104.368 56.3199 104.417C56.2257 104.567 56.0273 104.613 55.8767 104.519C55.7261 104.425 55.6803 104.226 55.7746 104.076C55.8054 104.027 58.8879 99.1099 62.9568 93.9158C63.2706 93.5152 63.5891 93.1047 63.9112 92.6895C67.8972 87.5506 72.4147 81.7251 76.5479 83.8713C81.0893 86.2293 76.6387 95.257 74.9633 98.6556C74.8562 98.8729 74.7607 99.0666 74.68 99.2332C73.8007 101.05 68.9906 109.094 68.3525 110.16C68.5424 111.201 69.7362 118.158 68.4029 121.741C68.3547 121.87 68.2319 121.95 68.1014 121.95Z" fill="#412945"/>
<path d="M54.2129 100.987C54.0443 100.987 53.9026 100.856 53.8922 100.685C53.8812 100.508 54.0163 100.356 54.1937 100.345L58.4738 100.082C58.6487 100.074 58.8035 100.207 58.8144 100.384C58.8252 100.561 58.6903 100.714 58.5129 100.725L54.2328 100.987C54.2262 100.987 54.2193 100.987 54.2129 100.987Z" fill="#412945"/>
<path d="M30.5634 32.3477C41.8803 32.3477 51.0544 40.6277 51.0544 50.8416C51.0544 59.1153 45.0342 66.1184 36.7322 68.4811L42.6478 79.213L32.9507 69.2066C32.1672 69.2888 31.3716 69.3355 30.5636 69.3355C19.2468 69.3355 10.0726 61.0555 10.0726 50.8416C10.0726 40.6277 19.2465 32.3477 30.5634 32.3477Z" fill="#F7EDE5"/>
<path d="M26.2986 43.2031V58.2705L39.5448 49.6606L26.2986 43.2031Z" fill="#E36352"/>
<path d="M98.0405 38.4844C85.0689 38.4844 74.5531 47.9752 74.5531 59.6826C74.5531 69.1661 81.4538 77.1934 90.9698 79.9017L84.1889 92.203L95.304 80.7333C96.2022 80.8275 97.114 80.8812 98.0403 80.8812C111.012 80.8812 121.527 71.3903 121.527 59.6829C121.528 47.9752 111.012 38.4844 98.0405 38.4844Z" fill="#F7EDE5"/>
<path d="M117.339 50.5276L112.372 65.5297L112.101 66.3856H79.143C78.8989 66.3856 78.7018 66.1885 78.7018 65.9444C78.7018 65.7003 78.8989 65.5031 79.143 65.5031H83.8811L90.1045 50.5273H117.339V50.5276Z" fill="#412945"/>
<path d="M85.0496 65.2947L90.5062 51.5781H116.037L111.182 65.1443L85.0496 65.2947Z" fill="#B5E1E8"/>
<path d="M95.5099 56.498H93.7821V58.2259H95.5099V56.498Z" fill="#412945"/>
<path d="M107.845 56.498H106.118V58.2259H107.845V56.498Z" fill="#412945"/>
<path d="M100.29 60.8844C98.5733 60.8844 98.2984 58.3595 98.2873 58.251C98.2731 58.1102 98.3757 57.9845 98.5164 57.9702C98.6602 57.9552 98.7835 58.0585 98.7977 58.1993C98.7999 58.2212 99.0357 60.3713 100.294 60.3713C100.305 60.3713 100.315 60.3711 100.326 60.3708C101.644 60.3332 102.175 58.2291 102.181 58.2079C102.214 58.0704 102.354 57.9864 102.491 58.0199C102.628 58.0536 102.713 58.1927 102.679 58.3302C102.654 58.4324 102.045 60.8352 100.341 60.8839C100.324 60.8842 100.307 60.8844 100.29 60.8844Z" fill="#412945"/>
<path d="M17.2886 83.6953H6.84802V94.1356H17.2886V83.6953Z" fill="#C0D48C"/>
<path d="M27.6809 73.3027H17.2404V83.743H27.6809V73.3027Z" fill="#F8BDFF"/>
<path d="M99.2438 24.1942V13.7539L88.8032 13.7539V24.1942H99.2438Z" fill="#C0D48C"/>
<path d="M109.636 34.5868V24.1465L99.1955 24.1465V34.5868H109.636Z" fill="#F8BDFF"/>
</svg>
