<svg width="24" height="25" viewBox="0 0 24 25" fill="none" xmlns="http://www.w3.org/2000/svg">
<path d="M19.5 3.49414H4.5C3.465 3.49414 2.625 4.33414 2.625 5.36914V17.7441H21.375V5.36914C21.375 4.33414 20.535 3.49414 19.5 3.49414Z" fill="#076DF3"/>
<path d="M23.2089 20.9504L21.3751 17.7441H2.62512L0.79137 20.9504C0.73512 21.0666 0.73887 21.2054 0.80637 21.3141C0.87387 21.4229 0.99387 21.4904 1.12512 21.4904H22.8751C23.0064 21.4904 23.1264 21.4229 23.1939 21.3141C23.2614 21.2054 23.2689 21.0666 23.2089 20.9504Z" fill="#282572"/>
<path d="M22.875 20.7441H1.125C0.91875 20.7441 0.75 20.9129 0.75 21.1191C0.75 22.1541 1.59 22.9941 2.625 22.9941H21.375C22.41 22.9941 23.25 22.1541 23.25 21.1191C23.25 20.9129 23.0812 20.7441 22.875 20.7441Z" fill="#076DF3"/>
<path d="M19.8563 4.61914H4.14375C3.92625 4.61914 3.75 4.79914 3.75 5.02039V16.2216C3.75 16.4429 3.92625 16.6229 4.14375 16.6229H19.8563C20.0737 16.6229 20.25 16.4429 20.25 16.2216V5.02039C20.25 4.79914 20.0737 4.61914 19.8563 4.61914Z" fill="white"/>
<path d="M13.875 21.4941H10.125C9.91789 21.4941 9.75 21.662 9.75 21.8691C9.75 22.0762 9.91789 22.2441 10.125 22.2441H13.875C14.0821 22.2441 14.25 22.0762 14.25 21.8691C14.25 21.662 14.0821 21.4941 13.875 21.4941Z" fill="#282572"/>
<path d="M19.5 19.6191H4.5C4.29375 19.6191 4.125 19.4504 4.125 19.2441C4.125 19.0379 4.29375 18.8691 4.5 18.8691H19.5C19.7063 18.8691 19.875 19.0379 19.875 19.2441C19.875 19.4504 19.7063 19.6191 19.5 19.6191Z" fill="white"/>
<path d="M9.75 10.6191C7.89 10.6191 6.375 12.1341 6.375 13.9941C6.375 14.2004 6.54375 14.3691 6.75 14.3691H12.75C12.9563 14.3691 13.125 14.2004 13.125 13.9941C13.125 12.1341 11.61 10.6191 9.75 10.6191Z" fill="#F37781"/>
<path d="M21.75 1.99414H14.25C13.4212 1.99414 12.75 2.66539 12.75 3.49414V7.99414C12.75 8.82289 13.4212 9.49414 14.25 9.49414V10.6191C14.25 10.7579 14.325 10.8854 14.4487 10.9491C14.505 10.9791 14.565 10.9941 14.625 10.9941C14.6962 10.9941 14.7712 10.9716 14.8312 10.9304L16.9875 9.49414H21.75C22.5787 9.49414 23.25 8.82289 23.25 7.99414V3.49414C23.25 2.66539 22.5787 1.99414 21.75 1.99414Z" fill="#F2B443"/>
<path d="M19.4325 5.1022L17.5837 4.31095C17.3362 4.20595 17.0437 4.22845 16.8187 4.37845C16.62 4.5097 16.5 4.7272 16.5 4.95595V6.53845C16.5 6.7672 16.62 6.9847 16.8187 7.11595C16.95 7.2022 17.1075 7.2472 17.2612 7.2472C17.37 7.2472 17.4787 7.2247 17.5837 7.18345L19.4325 6.3922C19.7062 6.27595 19.875 6.02845 19.875 5.75095C19.875 5.47345 19.7062 5.22595 19.4325 5.1097V5.1022Z" fill="white"/>
<path d="M9.75 6.86914C8.715 6.86914 7.875 7.70914 7.875 8.74414V9.49414C7.875 10.5291 8.715 11.3691 9.75 11.3691C10.785 11.3691 11.625 10.5291 11.625 9.49414V8.74414C11.625 7.70914 10.785 6.86914 9.75 6.86914Z" fill="#F29494"/>
</svg>
