<svg width="142" height="142" viewBox="0 0 142 142" fill="none" xmlns="http://www.w3.org/2000/svg">
<path d="M122.884 94.9355C118.072 103.799 108.315 107.165 104.656 105.482L106.95 91.0977L122.884 94.9355Z" fill="#FFD5AE"/>
<path d="M106.959 107.43C105.832 107.43 104.83 107.244 104.017 106.87C103.25 106.517 102.915 105.61 103.267 104.843C103.62 104.076 104.527 103.741 105.294 104.093C107.877 105.282 116.927 102.706 121.541 94.2056C121.944 93.464 122.871 93.1891 123.613 93.5915C124.355 93.9942 124.63 94.922 124.227 95.6641C119.983 103.481 112.145 107.43 106.959 107.43Z" fill="#FF9356"/>
<path d="M105.675 51.7806C105.446 51.5221 105.313 51.3901 105.313 51.3901C116.177 45.8898 100.238 33.2523 100.238 33.2523C103.89 29.6 101.42 25.0507 96.0144 20.9624L98.9726 22.3793C101.51 19.7327 106.586 13.0836 101.229 6.61845C94.6205 -1.36794 80.2205 0.0673153 74.7316 10.7697L78.4993 12.5741C73.6026 11.115 68.5871 10.2342 64.1579 10.2342C59.7301 10.2342 54.7149 11.1147 49.8184 12.5741L53.5853 10.7697C48.0964 0.0675926 33.7022 -1.36794 27.0878 6.61845C21.731 13.0836 26.8066 19.7324 29.3501 22.3793L32.2978 20.9674C26.8962 25.054 24.4301 29.6014 28.0832 33.2523C28.0832 33.2523 12.1387 45.8898 23.002 51.3901C23.002 51.3901 12.5808 61.7941 21.0096 74.4024C26.6846 82.8869 36.6088 85.0474 45.5099 84.9639C42.2896 91.2097 40.2567 98.8924 40.2567 102.673C40.2567 109.649 47.1753 115.304 55.71 115.304C64.2447 115.304 71.1633 109.649 71.1633 102.673C71.1633 98.2603 68.3943 88.5322 64.1998 81.978C65.4118 82.3749 95.5257 92.022 107.306 74.4024C114.781 63.2238 107.438 53.7785 105.675 51.7806Z" fill="#FFD5AE"/>
<path d="M43.3948 14.8409C38.3594 16.919 33.8292 19.5144 30.7116 22.2531C28.6504 19.0091 25.877 13.0495 30.4992 9.7136C35.4023 6.17081 40.9087 11.7573 43.3948 14.8409Z" fill="#FFF1E6"/>
<path d="M97.6073 22.253C94.4894 19.5142 89.9651 16.9191 84.9241 14.8407C87.416 11.7575 92.9221 6.17094 97.8197 9.71346C102.442 13.0493 99.6682 19.0092 97.6073 22.253Z" fill="#FFF1E6"/>
<path d="M64.1598 43.4883C72.2899 43.4883 75.2031 55.8903 81.8291 57.9745C91.9516 61.1495 98.7324 57.9745 105.318 51.389C105.318 51.389 115.739 61.7927 107.311 74.4013C95.282 92.384 64.1601 81.9631 64.1601 81.9631C64.1601 81.9631 33.0383 92.384 21.0096 74.4013C12.5808 61.7927 23.002 51.389 23.002 51.389C29.5875 57.9745 36.3686 61.1498 46.4911 57.9745C53.1166 55.8903 56.0298 43.4883 64.1598 43.4883Z" fill="#FFF1E6"/>
<path d="M44.4614 66.1091C46.8062 60.6061 44.2459 54.2442 38.7429 51.8994C33.2398 49.5546 26.8779 52.1149 24.5332 57.6179C22.1884 63.1209 24.7487 69.4828 30.2517 71.8276C35.7547 74.1724 42.1166 71.6121 44.4614 66.1091Z" fill="#FF9EB6"/>
<path d="M96.2715 72.4063C102.098 71.0545 105.726 65.2352 104.374 59.4085C103.022 53.5819 97.2027 49.9544 91.3761 51.3062C85.5495 52.658 81.9219 58.4773 83.2738 64.3039C84.6256 70.1306 90.4449 73.7581 96.2715 72.4063Z" fill="#FF9EB6"/>
<path d="M107.633 51.7612C109.403 50.4594 110.398 48.8125 110.597 46.8475C111.147 41.4091 105.099 35.4418 102.378 33.0538C103.675 31.118 103.858 28.9086 102.895 26.5826C102.403 25.3944 101.596 24.1819 100.509 22.9715C101.922 21.4162 103.623 19.1323 104.516 16.4054C105.778 12.5515 105.049 8.82979 102.409 5.64256C99.0198 1.55174 93.5761 -0.516971 87.8464 0.110658C81.751 0.777669 76.4299 4.37454 73.5396 9.75695C70.224 9.07524 67.026 8.70526 64.1574 8.70526C61.2905 8.70526 58.0938 9.07524 54.7798 9.7564C51.8896 4.37454 46.5685 0.777669 40.4733 0.110658C34.744 -0.516971 29.2997 1.55174 25.9109 5.64228C23.2708 8.82951 22.5422 12.5512 23.8039 16.4052C24.6964 19.1314 26.3965 21.4148 27.8101 22.9704C26.7229 24.1813 25.9158 25.3941 25.4238 26.5826C24.4606 28.9089 24.6439 31.118 25.9422 33.0538C23.2192 35.4426 17.1693 41.4102 17.7189 46.8483C17.9175 48.8125 18.9115 50.4588 20.6807 51.7601C19.7119 53.0184 18.3751 55.0425 17.4119 57.6351C15.8721 61.7803 15.0259 68.2013 19.7388 75.2514C24.6745 82.6299 33.3941 86.4949 45.0409 86.4946C45.734 86.4946 46.4393 86.4808 47.1526 86.4533C55.3354 86.1383 62.285 84.148 64.1571 83.5678C66.0295 84.148 72.9805 86.1383 81.1638 86.4533C93.8709 86.9403 103.349 83.0689 108.576 75.2514C115.784 64.4727 110.206 55.1232 107.633 51.7612ZM88.1787 3.14924C92.883 2.63393 97.3233 4.29522 100.055 7.59228C104.246 12.6527 100.976 17.8981 98.3098 20.8474C95.5907 18.5274 91.8948 16.2726 87.457 14.2746C83.9639 12.7018 80.2749 11.4182 76.649 10.4792C79.1364 6.38917 83.3679 3.67563 88.1787 3.14924ZM28.2649 7.59228C30.9962 4.2955 35.4351 2.63476 40.1411 3.14924C44.9519 3.67563 49.183 6.38889 51.6705 10.4783C48.0443 11.4174 44.355 12.7012 40.8611 14.2743C36.4236 16.2723 32.7282 18.5266 30.0092 20.8463C27.3433 17.897 24.0737 12.6521 28.2649 7.59228ZM106.035 73.5521C101.374 80.5245 93.0691 83.841 81.3494 83.4014C72.3809 83.0669 64.7187 80.5395 64.643 80.514C64.4858 80.4613 64.3218 80.435 64.1579 80.435C63.9943 80.435 63.8304 80.4613 63.6731 80.514C63.5969 80.5395 55.9361 83.0669 46.9685 83.4014C35.2512 83.8402 26.944 80.5243 22.2804 73.5524C14.672 62.1708 23.6965 52.8595 24.082 52.4709C24.429 52.1245 24.5888 51.6331 24.5117 51.1491C24.4345 50.6649 24.13 50.2475 23.6927 50.0259C21.8641 49.0998 20.9051 47.9605 20.7611 46.5427C20.5584 44.5469 21.8711 41.8625 24.5569 38.7799C26.7254 36.291 29.0107 34.4672 29.0332 34.4497C29.3749 34.1787 29.5845 33.7749 29.6095 33.3398C29.6345 32.9043 29.4725 32.4792 29.1641 32.171C27.8395 30.8473 27.5486 29.4431 28.2486 27.7521C29.6653 24.3303 34.8496 20.334 42.1166 17.0619C49.487 13.7432 57.7269 11.7621 64.1582 11.7621C70.5912 11.7621 78.8322 13.7435 86.2029 17.0619C93.4696 20.3337 98.654 24.3303 100.071 27.7524C100.772 29.4434 100.482 30.8476 99.1579 32.1713C98.8498 32.4794 98.6881 32.9043 98.713 33.3395C98.738 33.7744 98.9474 34.1782 99.2885 34.4491C99.3113 34.4674 101.596 36.2907 103.763 38.7793C106.447 41.8617 107.759 44.5461 107.556 46.5419C107.412 47.9602 106.453 49.1001 104.624 50.0262C104.187 50.2472 103.884 50.6643 103.806 51.1472C103.728 51.6298 103.887 52.1218 104.231 52.4687C104.247 52.4842 104.355 52.5949 104.529 52.7913C105.375 53.7495 107.452 56.3762 108.483 60.0604C109.77 64.6594 108.947 69.1987 106.035 73.5521Z" fill="#FF9356"/>
<path d="M55.9788 63.0237C57.0685 64.3034 58.6715 65.4047 60.5502 66.0562C61.7392 66.4703 63.0363 66.6991 64.3831 66.6852C67.8657 66.6378 70.8988 64.9344 72.6125 62.7952C72.9206 62.4119 73.1832 62.017 73.4012 61.6129C73.8591 60.7637 74.1046 59.8792 74.0949 59.0333C74.03 54.027 69.6316 53.9701 64.2137 54.0422C58.7899 54.1155 54.622 54.8335 54.4653 59.2957C54.4223 60.5443 54.9864 61.8581 55.9788 63.0237Z" fill="white"/>
<path d="M64.2372 68.2124C60.8839 68.2124 57.5513 66.8459 55.2934 64.5384C53.7118 62.9217 52.8753 61.0411 52.9385 59.2428C53.0253 56.7786 54.1225 54.9767 56.199 53.8867L57.6193 56.5933C56.5273 57.1663 56.0412 57.9909 55.9932 59.3504C55.9602 60.2906 56.5013 61.4025 57.4781 62.4006C59.1735 64.1335 61.8085 65.1879 64.3612 65.1549C66.5109 65.1261 68.6789 64.3287 70.3097 62.9672C71.7191 61.7902 72.5847 60.2911 72.5681 59.0547C72.5426 57.1347 71.7837 56.4749 70.653 56.0752L71.6714 53.1934C74.2552 54.1064 75.585 56.0647 75.6247 59.014C75.6541 61.2125 74.431 63.5089 72.2688 65.3138C70.0767 67.144 67.283 68.1733 64.4022 68.2118C64.3473 68.2121 64.2921 68.2124 64.2372 68.2124Z" fill="#FFD5AE"/>
<path d="M71.6729 53.1917C70.049 52.6178 68.0671 52.5036 65.7161 52.5036L65.6945 48.2422L62.6378 48.2577L62.6598 52.5541C60.3001 52.6514 57.9868 52.9479 56.2007 53.8853C55.4533 54.2775 55.1654 55.2016 55.5578 55.949C55.831 56.4696 56.3627 56.7675 56.9124 56.7675C57.1517 56.7675 57.3947 56.7112 57.6213 56.5922C59.229 55.7485 61.8666 55.6023 64.2348 55.5707C66.4907 55.5405 69.0484 55.5064 70.6545 56.0738C71.4502 56.3556 72.3235 55.9379 72.6048 55.1422C72.8857 54.346 72.4688 53.4729 71.6729 53.1917Z" fill="#FF9356"/>
<path d="M66.9369 46.9459C66.2244 46.2242 65.0618 46.2167 64.3404 46.9292L64.166 47.1015L63.9937 46.927C63.2812 46.2054 62.1189 46.1979 61.3972 46.9104C60.6756 47.6229 60.6681 48.7852 61.3806 49.5069L61.9924 50.1265C63.1745 51.3238 65.1034 51.3362 66.301 50.1542L66.9205 49.5424C67.6419 48.8299 67.6494 47.6675 66.9369 46.9459Z" fill="#FD80A6"/>
<path d="M51.1966 52.2018C50.8055 52.2018 50.4145 52.0526 50.1158 51.7542C48.0923 49.731 44.8002 49.7313 42.7767 51.7542C42.1799 52.3511 41.2119 52.3511 40.6154 51.7542C40.0185 51.1574 40.0185 50.1897 40.6154 49.5929C43.8306 46.3779 49.0621 46.3779 52.2771 49.5929C52.874 50.1897 52.874 51.1574 52.2771 51.7542C51.9787 52.0526 51.5876 52.2018 51.1966 52.2018Z" fill="#605C5D"/>
<path d="M86.6211 52.2019C86.23 52.2019 85.839 52.0527 85.5403 51.7543C83.5171 49.7311 80.2247 49.7314 78.2015 51.7543C77.6044 52.3512 76.637 52.3509 76.0402 51.7543C75.4433 51.1575 75.4433 50.1898 76.0402 49.593C79.2551 46.3777 84.4864 46.378 87.7019 49.593C88.2988 50.1898 88.2988 51.1575 87.7019 51.7543C87.4035 52.0527 87.0124 52.2019 86.6211 52.2019Z" fill="#605C5D"/>
<path d="M35.6892 109.757C40.2329 109.757 43.9163 103.52 43.9163 95.8275C43.9163 88.1347 40.2329 81.8984 35.6892 81.8984C31.1454 81.8984 27.462 88.1347 27.462 95.8275C27.462 103.52 31.1454 109.757 35.6892 109.757Z" fill="#FFD5AE"/>
<path d="M35.6881 111.284C30.2189 111.284 25.9344 104.495 25.9344 95.8278C25.9344 92.4889 26.5773 89.3208 27.7935 86.6657C28.1452 85.8989 29.0523 85.5605 29.8195 85.913C30.5869 86.2644 29.8813 89.663 29.6348 90.6171C29.2143 92.244 28.9911 94.024 28.9911 95.8278C28.9911 102.549 32.0579 108.227 35.6881 108.227C39.3196 108.227 42.3879 102.549 42.3879 95.8278C42.3879 94.4533 42.2633 93.1054 42.0179 91.8218C41.8593 90.9929 44.8615 90.4185 45.0201 91.2477C45.3019 92.7199 45.4447 94.2611 45.4447 95.8278C45.4445 104.495 41.159 111.284 35.6881 111.284Z" fill="#FF9356"/>
<path d="M106.813 122.689L81.9173 137.063L57.0215 122.689L41.5887 85.0318L81.9173 79.5684L114.24 88.417L106.813 122.689Z" fill="#DDFCFC"/>
<path d="M114.643 86.9442L82.3209 78.0953C82.1228 78.0409 81.9157 78.0273 81.7121 78.0548L41.3835 83.5182C40.9145 83.5817 40.5019 83.8588 40.265 84.2684C40.0284 84.6783 39.9949 85.1742 40.1743 85.6121L55.6074 123.27C55.7358 123.583 55.9643 123.845 56.2575 124.014L81.1532 138.387C81.3895 138.524 81.6536 138.592 81.9173 138.592C82.1814 138.592 82.4451 138.524 82.6814 138.387L107.577 124.014C107.95 123.798 108.215 123.435 108.307 123.014L115.733 88.742C115.905 87.9485 115.427 87.1586 114.643 86.9442ZM80.3889 105.67L46.2279 85.9469L80.3889 81.3191V105.67ZM80.3889 134.417L60.0366 122.666L80.3889 110.475V134.417ZM83.4458 110.964L103.756 122.69L83.4458 134.416V110.964ZM83.4458 81.5726L110.382 88.9472L83.4458 105.081V81.5726ZM44.6997 88.5939L78.445 108.077L57.7615 120.465L44.6997 88.5939ZM105.763 120.319L84.4747 108.028L111.999 91.5423L105.763 120.319Z" fill="#678490"/>
<path d="M54.0723 124.392C53.1318 122.763 53.6901 120.681 55.319 119.74C56.9478 118.8 59.0306 119.358 59.9711 120.986C60.9116 122.615 60.3536 124.698 58.7247 125.639C57.0956 126.579 55.0128 126.021 54.0723 124.392Z" fill="#89D770"/>
<path d="M57.0297 127.625C56.6012 127.625 56.1699 127.568 55.7447 127.455C54.4717 127.114 53.4078 126.297 52.7489 125.156C51.3888 122.8 52.1986 119.776 54.5546 118.416C56.9107 117.055 59.9343 117.866 61.2947 120.222C62.6548 122.578 61.8446 125.602 59.4886 126.962C58.7284 127.401 57.8847 127.625 57.0297 127.625ZM57.0186 120.812C56.7002 120.812 56.3779 120.893 56.0831 121.063C55.1867 121.581 54.8786 122.731 55.3961 123.628C55.6468 124.062 56.0515 124.373 56.536 124.502C57.0202 124.632 57.5264 124.565 57.9602 124.315C58.8565 123.797 59.1649 122.647 58.6474 121.75C58.3002 121.149 57.6678 120.812 57.0186 120.812Z" fill="#6DB850"/>
<path d="M85.1961 137.947C85.6855 136.131 84.6102 134.262 82.7942 133.773C80.9783 133.284 79.1095 134.359 78.6201 136.175C78.1307 137.991 79.2061 139.86 81.022 140.349C82.8379 140.838 84.7068 139.763 85.1961 137.947Z" fill="#FD80A6"/>
<path d="M81.9254 141.999C81.4969 141.999 81.0656 141.943 80.6404 141.829C79.3674 141.488 78.3035 140.672 77.6446 139.53C76.9856 138.389 76.8106 137.059 77.1517 135.786C77.4929 134.513 78.3094 133.449 79.4506 132.79C80.5913 132.131 81.9209 131.956 83.1945 132.297C84.4675 132.639 85.5314 133.455 86.1904 134.596C87.5505 136.952 86.7403 139.976 84.3843 141.336C83.6241 141.775 82.7801 141.999 81.9254 141.999ZM80.2918 138.002C80.5425 138.436 80.9472 138.747 81.4317 138.877C81.9159 139.007 82.4221 138.94 82.8558 138.689C83.7522 138.172 84.0606 137.021 83.5431 136.125C83.2924 135.69 82.8875 135.38 82.4032 135.25C81.919 135.12 81.4131 135.187 80.9791 135.438C80.5447 135.688 80.2341 136.093 80.1043 136.577C79.9743 137.062 80.0408 137.568 80.2918 138.002Z" fill="#FE518E"/>
<path d="M103.864 124.392C102.923 122.763 103.481 120.681 105.111 119.74C106.739 118.8 108.822 119.358 109.763 120.986C110.703 122.615 110.145 124.698 108.516 125.639C106.887 126.579 104.804 126.021 103.864 124.392Z" fill="#65E1E9"/>
<path d="M106.821 127.625C106.393 127.625 105.961 127.568 105.536 127.455C104.263 127.114 103.199 126.297 102.54 125.156C101.18 122.8 101.99 119.776 104.346 118.416C106.702 117.055 109.726 117.866 111.086 120.222C112.446 122.578 111.636 125.602 109.28 126.962C108.52 127.401 107.676 127.625 106.821 127.625ZM106.81 120.812C106.492 120.812 106.169 120.893 105.875 121.063C104.978 121.581 104.67 122.731 105.188 123.628C105.438 124.062 105.843 124.373 106.327 124.502C106.812 124.632 107.318 124.565 107.752 124.315C108.648 123.797 108.956 122.647 108.439 121.75C108.092 121.149 107.459 120.812 106.81 120.812Z" fill="#00D4D7"/>
<path d="M85.1986 80.4549C85.688 78.639 84.6126 76.7702 82.7967 76.2808C80.9808 75.7914 79.112 76.8668 78.6226 78.6827C78.1332 80.4986 79.2085 82.3674 81.0245 82.8568C82.8404 83.3462 84.7092 82.2708 85.1986 80.4549Z" fill="#65E1E9"/>
<path d="M81.9254 84.5049C81.4969 84.5049 81.0656 84.4489 80.6404 84.3349C79.3674 83.9938 78.3035 83.1776 77.6446 82.0363C76.9856 80.895 76.8106 79.5654 77.1517 78.2921C77.4929 77.0191 78.3094 75.9552 79.4506 75.2963C81.8064 73.937 84.83 74.7463 86.1904 77.1023C87.5505 79.4587 86.7403 82.4823 84.3843 83.8424C83.6241 84.2808 82.7801 84.5049 81.9254 84.5049ZM81.9143 77.6922C81.5959 77.6922 81.2736 77.7732 80.9788 77.9435C80.5445 78.194 80.2338 78.5989 80.104 79.0831C79.9742 79.5677 80.0408 80.0732 80.2915 80.5076C80.5423 80.9419 80.9469 81.2525 81.4314 81.3823C81.9157 81.5124 82.4218 81.4453 82.8556 81.1948C83.752 80.6773 84.0604 79.5266 83.5428 78.6302C83.1959 78.0289 82.5635 77.6922 81.9143 77.6922Z" fill="#00D4D7"/>
<path d="M94.2837 110.011C95.2209 103.179 90.4419 96.88 83.6095 95.9428C76.777 95.0055 70.4784 99.7845 69.5412 106.617C68.6039 113.449 73.3829 119.748 80.2154 120.685C87.0478 121.623 93.3464 116.844 94.2837 110.011Z" fill="#FFFF9D"/>
<path d="M81.9409 122.329C77.0932 122.329 72.3726 119.815 69.7794 115.324C65.9155 108.631 68.2169 100.042 74.9094 96.1779C81.602 92.3134 90.1911 94.6151 94.0553 101.308C97.9193 108.001 95.6181 116.59 88.925 120.454C86.7237 121.725 84.3169 122.329 81.9409 122.329ZM72.4267 113.796C75.448 119.029 82.1636 120.828 87.3968 117.807C92.63 114.786 94.4297 108.07 91.4083 102.836C88.387 97.6032 81.6711 95.8043 76.4379 98.8249C71.2047 101.846 69.4053 108.562 72.4267 113.796Z" fill="#FFCC6B"/>
<path d="M85.5548 107.01H78.28C77.4358 107.01 76.7516 106.326 76.7516 105.482C76.7516 104.638 77.4358 103.953 78.28 103.953H85.5548C86.399 103.953 87.0832 104.638 87.0832 105.482C87.0832 106.326 86.399 107.01 85.5548 107.01Z" fill="#605C5D"/>
<path d="M88.4851 112.68H75.3498C74.5056 112.68 73.8214 111.995 73.8214 111.151C73.8214 110.308 74.5056 109.623 75.3498 109.623H88.4851C89.3294 109.623 90.0136 110.308 90.0136 111.151C90.0136 111.995 89.3291 112.68 88.4851 112.68Z" fill="#605C5D"/>
<path d="M31.012 82.3203C33.4798 78.0459 36.9802 75.4469 41.2543 77.9147C45.5285 80.3825 46.9931 85.8481 44.5253 90.1225C42.0575 94.3969 36.5919 95.8613 32.3175 93.3935C28.0433 90.9257 28.5442 86.5947 31.012 82.3203Z" fill="#FFD5AE"/>
<path d="M36.7694 96.1242C34.9559 96.1242 33.1665 95.6486 31.5537 94.7175C29.1089 93.3061 27.7452 91.1958 27.6104 88.6149C27.5006 86.5104 28.1998 84.1358 29.6886 81.5567C31.1776 78.978 32.8844 77.185 34.7617 76.2281C37.0642 75.0544 39.5737 75.1798 42.0187 76.5917C44.4394 77.9893 46.1711 80.246 46.8944 82.9462C47.618 85.6465 47.2466 88.4665 45.8488 90.8874C44.4513 93.3084 42.1946 95.0398 39.4943 95.7634C38.5932 96.005 37.6783 96.1242 36.7694 96.1242ZM37.9828 78.4996C34.9831 78.4996 33.0655 81.8211 32.3358 83.0852C31.1638 85.1148 30.5855 86.9719 30.6629 88.4554C30.7433 89.9946 31.5346 91.1772 33.0819 92.0703C34.7956 93.0596 36.7919 93.3228 38.7036 92.8105C40.6151 92.2985 42.2126 91.0727 43.2019 89.359C44.1914 87.6453 44.4543 85.6487 43.9421 83.7372C43.4301 81.826 42.204 80.2283 40.4903 79.2387C39.5853 78.7165 38.7486 78.4996 37.9828 78.4996Z" fill="#FF9356"/>
<path d="M119.766 84.232C123.706 87.2049 125.857 90.997 122.884 94.937C119.911 98.8769 114.308 99.661 110.368 96.6881C106.428 93.7153 105.644 88.1115 108.616 84.1716C111.589 80.2319 115.826 81.2592 119.766 84.232Z" fill="#FFD5AE"/>
<path d="M115.729 100.02C113.47 100.02 111.282 99.2919 109.447 97.9074C107.216 96.2239 105.774 93.7719 105.386 91.0037C104.999 88.2353 105.713 85.4818 107.396 83.2503C110.534 79.0926 115.378 79.0058 120.687 83.0109C125.996 87.0169 127.241 91.6987 124.104 95.8564C122.42 98.0879 119.969 99.5301 117.2 99.9176C116.708 99.9866 116.216 100.02 115.729 100.02ZM113.392 83.1044C111.335 83.1044 110.3 84.4773 109.837 85.0913C108.645 86.6711 108.139 88.6202 108.414 90.5799C108.688 92.5397 109.709 94.2753 111.288 95.467C112.868 96.659 114.817 97.1632 116.777 96.8903C118.737 96.616 120.472 95.5951 121.664 94.0154C124.759 89.9132 120.308 86.5546 118.846 85.451C116.51 83.6896 114.734 83.1044 113.392 83.1044Z" fill="#FF9356"/>
</svg>
