<svg width="22" height="23" viewBox="0 0 22 23" fill="none" xmlns="http://www.w3.org/2000/svg">
<g clip-path="url(#clip0_339_29018)">
<path fill-rule="evenodd" clip-rule="evenodd" d="M13.8576 6.59277C17.5142 6.59277 19.2587 9.08926 19.1341 12.7459C19.4564 13.4291 20.1783 14.4904 20.7068 15.3713C20.8185 15.5518 20.8185 15.7666 20.7111 15.9557C20.608 16.149 20.4232 16.2607 20.2084 16.2693C19.6669 16.2951 19.0783 16.3166 18.7474 16.3424C18.7302 17.2275 18.7388 17.4166 18.7216 18.3018C18.713 18.7229 18.5584 19.0838 18.2533 19.3846C17.9482 19.6811 17.583 19.8357 17.1619 19.8357C16.7666 19.8357 16.3755 19.8357 15.9845 19.8357C15.2584 19.8357 14.6353 20.3342 14.4677 21.0432C14.3732 21.4428 14.2744 21.8424 14.1798 22.242C12.3064 22.242 10.4287 22.242 8.55953 22.242C8.8732 20.9271 8.93336 20.4545 9.24703 19.1396C9.84859 16.6174 8.52515 16.626 7.79468 14.4861C6.5314 10.7951 7.67867 6.59277 13.8576 6.59277Z" fill="#FAD1A2"/>
<path fill-rule="evenodd" clip-rule="evenodd" d="M7.30478 7.6459H6.81924L7.16299 8.8791L5.73643 7.6459H1.77471C1.46533 7.6459 1.20752 7.39238 1.20752 7.07871V3.71855C1.20752 3.40918 1.46104 3.15137 1.77471 3.15137H7.30478C7.61846 3.15137 7.87197 3.40488 7.87197 3.71855V7.07871C7.87197 7.39238 7.61846 7.6459 7.30478 7.6459Z" fill="#ED2024"/>
<path fill-rule="evenodd" clip-rule="evenodd" d="M9.76689 5.24805H10.2524L9.90869 6.48125L11.3353 5.24805H15.3013C15.6149 5.24805 15.8685 4.99453 15.8685 4.68086V1.325C15.8685 1.01563 15.6149 0.757812 15.3013 0.757812H9.76689C9.45752 0.757812 9.19971 1.01133 9.19971 1.325V4.68516C9.19971 4.99453 9.45752 5.24805 9.76689 5.24805Z" fill="#76CEDB"/>
<path fill-rule="evenodd" clip-rule="evenodd" d="M13.3677 9.50198C13.5267 9.17542 13.8489 8.94339 14.27 8.89612C14.8716 8.82737 15.4989 9.16253 15.8298 9.68245C18.7603 9.60941 18.8634 13.4809 16.0532 13.4938C15.7782 14.6754 14.9962 15.1008 13.6899 14.7957C13.0282 15.7969 12.1646 14.568 12.0399 15.3801C12.0485 15.7883 12.113 15.9731 12.547 16.7551C11.7735 16.6262 10.8239 15.7668 10.5317 15.1782C9.01064 15.6895 7.54111 13.425 8.7915 12.0457C8.46924 11.2336 9.40166 9.97034 10.5446 10.3055C10.6521 9.66097 11.1505 9.16683 11.881 9.08519C12.4052 9.02503 12.938 9.18831 13.3677 9.50198Z" fill="#E2BB92"/>
<path fill-rule="evenodd" clip-rule="evenodd" d="M8.81298 10.8123C8.81728 10.8209 8.81728 10.8295 8.82157 10.8381C8.90751 11.0959 9.17392 11.5084 9.51767 11.5342C9.79697 11.5557 9.76689 11.9854 9.48759 11.9596C9.08368 11.9295 8.77431 11.633 8.58095 11.3108C8.07392 12.1701 8.52509 13.3174 9.32431 13.7385C9.6122 13.8889 9.93876 13.9405 10.2696 13.8373C10.3985 13.76 10.4931 13.6397 10.5403 13.5065C10.5919 13.3647 10.5919 13.21 10.536 13.0596C10.4974 12.9479 10.5532 12.8233 10.6649 12.7846C10.7767 12.7416 10.897 12.8018 10.9399 12.9135C11.0946 13.3346 10.9743 13.803 10.6392 14.0994C10.9099 14.5162 11.4341 14.9846 11.9196 15.2338C11.8466 15.0877 11.7907 14.9674 11.752 14.8643C11.6747 14.6494 11.6489 14.4862 11.6446 14.267C11.6446 14.2498 11.6446 14.2283 11.6446 14.2112C11.7349 13.6354 12.0786 13.6955 12.4567 13.7987C12.7145 13.8674 13.0497 13.9576 13.3204 13.5494C13.3763 13.4592 13.4235 13.4291 13.445 13.283C13.4708 13.124 13.4278 12.935 13.3161 12.8147C13.3032 12.8018 13.2946 12.7889 13.286 12.776C12.9724 12.8576 12.6329 12.819 12.3407 12.6643C12.0915 12.5311 12.2977 12.153 12.5427 12.2862C13.1571 12.617 13.8919 12.1186 13.8145 11.4268C13.7845 11.1475 14.2099 11.1002 14.2399 11.3795C14.2915 11.8565 14.0809 12.3205 13.6856 12.5912C13.879 12.849 13.9306 13.2057 13.8274 13.5065C14.8157 13.6612 15.4173 13.3174 15.6536 12.3076C15.7267 11.9897 15.6321 11.6717 15.3872 11.4612C15.297 11.3838 15.2884 11.2463 15.3657 11.1604C15.4431 11.0744 15.5806 11.0615 15.6665 11.1389C15.9501 11.3881 16.1134 11.7533 16.1048 12.1315C17.1145 12.0326 17.7075 11.3194 17.6903 10.4643C17.686 10.2237 17.6259 9.97874 17.5184 9.7553C17.2392 9.18811 16.6247 8.74553 15.6665 8.76272C15.6106 8.77561 15.5634 8.80999 15.5247 8.85295C15.3786 9.01624 15.3485 9.3342 15.5204 9.49319C15.9544 9.42444 16.397 9.58342 16.6892 9.91428C16.7665 10.0002 16.7579 10.1377 16.6677 10.2151C16.5817 10.2924 16.4442 10.2838 16.3669 10.1936C15.9071 9.67366 15.0434 9.8842 14.8802 10.5631C14.8114 10.8381 14.3946 10.735 14.4634 10.46C14.5493 10.1076 14.777 9.81116 15.095 9.63928C14.8759 9.27405 14.9747 8.73264 15.3142 8.47053C14.9017 8.01506 14.1712 7.79163 13.6642 8.13538C13.5481 8.21272 13.4536 8.32014 13.3892 8.44045C13.3634 8.62522 13.4063 8.80139 13.5009 8.94749C13.5997 9.09788 13.7544 9.21389 13.9477 9.26116C14.2227 9.32561 14.1239 9.7467 13.8489 9.67795C13.2989 9.54905 12.9208 9.03772 12.9595 8.47483C12.3536 8.08811 11.4985 7.99788 10.9571 8.49631C10.8024 8.63811 10.6864 8.82288 10.622 9.02913C10.9829 9.17092 11.2837 9.43303 11.4813 9.77249C11.9067 9.71233 12.3407 9.87131 12.6286 10.1936C12.7059 10.2838 12.6974 10.417 12.6114 10.4944C12.5212 10.5717 12.388 10.5631 12.3063 10.4772C11.8466 9.95725 10.9829 10.1678 10.8196 10.8467C10.7509 11.1217 10.3341 11.0186 10.4028 10.7436C10.4931 10.3826 10.7337 10.0776 11.0645 9.90569C10.7509 9.44592 10.1192 9.201 9.59501 9.41155C9.05361 9.6092 8.61962 10.2967 8.81298 10.8123Z" fill="#F6851F"/>
<path d="M3.23555 4.65957C3.15391 4.57363 3.15391 4.44043 3.23555 4.35449C3.32148 4.26855 3.45469 4.26855 3.54062 4.35449L4.55039 5.36426L5.56016 4.35449C5.64609 4.26855 5.7793 4.26855 5.86523 4.35449C5.95117 4.44043 5.95117 4.57363 5.86523 4.65957L4.85547 5.66934L5.86523 6.6791C5.95117 6.76504 5.95117 6.89824 5.86523 6.98418C5.7793 7.07012 5.64609 7.07012 5.56016 6.98418L4.55039 5.97441L3.54062 6.98418C3.45469 7.07012 3.32148 7.07012 3.23555 6.98418C3.15391 6.89824 3.15391 6.76504 3.23555 6.6791L4.24531 5.66934L3.23555 4.65957Z" fill="#B92025"/>
<path d="M13.8575 1.97381C13.9348 1.88358 14.0681 1.87069 14.1583 1.94373C14.2528 2.02108 14.2657 2.15428 14.1884 2.24451L12.2891 4.56912C12.2118 4.66366 12.0786 4.67655 11.9884 4.5992C11.9755 4.59061 11.9669 4.57772 11.954 4.56483L10.9013 3.27576C10.8282 3.18553 10.8411 3.04803 10.9313 2.97498C11.0259 2.89764 11.1591 2.91483 11.2321 3.00506L12.1216 4.09217L13.8575 1.97381Z" fill="#555555"/>
<path d="M3.22705 4.43154C3.14111 4.34561 3.14111 4.2124 3.22705 4.12646C3.31299 4.04053 3.44619 4.04053 3.53213 4.12646L4.54189 5.13623L5.55166 4.12646C5.6376 4.04053 5.7708 4.04053 5.85674 4.12646C5.94268 4.2124 5.94268 4.34561 5.85674 4.43154L4.84268 5.44131L5.85244 6.45107C5.93838 6.53701 5.93838 6.67022 5.85244 6.75615C5.7708 6.84209 5.6333 6.84209 5.54736 6.75615L4.54189 5.74209L3.53213 6.75186C3.44619 6.83779 3.31299 6.83779 3.22705 6.75186C3.14111 6.66592 3.14111 6.53271 3.22705 6.44678L4.23682 5.44131L3.22705 4.43154Z" fill="white"/>
<path d="M13.8447 1.74627C13.9221 1.65604 14.0553 1.64315 14.1455 1.71619C14.2358 1.79354 14.2487 1.92674 14.1756 2.01698L12.2764 4.34159C12.2033 4.43612 12.0658 4.44901 11.9756 4.37166C11.9627 4.36307 11.9541 4.35018 11.9455 4.33729L10.8928 3.04823C10.8155 2.95799 10.8326 2.82049 10.9229 2.74744C11.0131 2.6701 11.1506 2.68729 11.2237 2.77752L12.1131 3.86463L13.8447 1.74627Z" fill="white"/>
</g>
<defs>
<clipPath id="clip0_339_29018">
<rect width="22" height="22" fill="white" transform="translate(0 0.5)"/>
</clipPath>
</defs>
</svg>
