<svg width="142" height="142" viewBox="0 0 142 142" fill="none" xmlns="http://www.w3.org/2000/svg">
<g clip-path="url(#clip0_623_47219)">
<path d="M119.677 67.9262C119.664 67.7523 119.644 67.5851 119.617 67.4179C119.329 64.8083 118.526 62.4864 117.603 60.5661C115.83 56.866 113.602 54.6448 113.602 54.6448C126.261 48.2348 107.68 33.5076 107.68 33.5076C109.875 31.3138 110.17 28.8421 109.083 26.3097C110.104 25.1465 111.285 23.5906 112.196 21.7687C114.037 18.1086 114.786 13.4049 110.952 8.78128C104.18 0.604355 90.4122 0.905829 82.8299 9.55646C76.9727 7.76953 70.9449 6.68345 65.6398 6.68345C62.4121 6.68345 58.917 7.08505 55.3557 7.80143C47.6971 -0.41516 34.2822 -0.573524 27.6321 7.45752C23.6822 12.2289 24.601 17.0819 26.5568 20.7839C21.6675 25.1096 19.8077 29.7224 23.5934 33.5081C23.5934 33.5081 5.01888 48.2354 17.6785 54.6453C17.6785 54.6453 17.6785 54.6453 17.6719 54.6517C17.6652 54.6584 17.6585 54.665 17.6519 54.672C17.5917 54.7322 17.4577 54.8725 17.2569 55.0999C16.5342 55.9164 14.9619 57.8365 13.6168 60.5397C11.121 65.538 9.4084 73.206 15.3566 81.4628C22.874 91.8982 34.604 96.4186 45.6802 98.1534C43.1464 101.851 41.6615 106.325 41.6615 111.146C41.6615 123.859 51.9671 134.165 64.6797 134.165C77.3923 134.165 87.6978 123.859 87.6978 111.146C87.6978 106.116 86.0795 101.467 83.3421 97.6794C91.037 97.1513 102.579 94.8818 111.434 86.7423C113.033 85.2769 114.539 83.5307 115.924 81.4631C119.209 76.5444 120.039 71.9075 119.677 67.9262Z" fill="#FFD5AE"/>
<path d="M98.2889 16.2186C103.595 19.3299 107.609 22.8696 109.088 26.302C110.112 25.1444 111.289 23.5854 112.2 21.7655C112.681 19.029 112.173 16.2589 109.436 14.2783C105.616 11.5215 101.481 13.5154 98.2889 16.2186Z" fill="#FFF1E6"/>
<path d="M15.3565 81.4615C33.2485 106.299 75.0076 97.6339 75.0076 97.6339C75.0076 97.6339 101.906 102.418 115.924 81.4615C119.209 76.5439 120.039 71.9067 119.677 67.9254C114.057 71.2644 105.713 72.2209 97.5967 69.6785C89.8752 67.2498 86.4827 52.7969 77.0084 52.7969C67.534 52.7969 64.0143 66.8818 56.4201 69.6785C29.2207 79.6817 16.6817 69.2769 13.617 60.5384C11.1209 65.5367 9.40807 73.2047 15.3565 81.4615Z" fill="#FFF1E6"/>
<path d="M98.9548 74.2015C98.9548 81.1736 103.973 86.8272 110.169 86.8272C110.597 86.8272 111.019 86.8003 111.434 86.7404C113.033 85.2752 114.538 83.5288 115.924 81.4612C119.209 76.5436 120.038 71.9064 119.677 67.9252C119.664 67.7513 119.644 67.584 119.617 67.4168C117.63 63.9106 114.137 61.582 110.169 61.582C103.973 61.582 98.9548 67.236 98.9548 74.2015Z" fill="#FF9EB6"/>
<path d="M51.3612 83.1298C56.2902 78.2008 56.2902 70.2093 51.3612 65.2803C46.4322 60.3513 38.4407 60.3513 33.5117 65.2803C28.5827 70.2093 28.5827 78.2008 33.5117 83.1298C38.4407 88.0588 46.4322 88.0588 51.3612 83.1298Z" fill="#FF9EB6"/>
<path d="M51.873 62.8254C51.873 59.9199 54.2285 57.5645 57.134 57.5645C60.0394 57.5645 62.3949 59.9199 62.3949 62.8254C62.3949 65.7308 60.0394 68.0863 57.134 68.0863C54.2285 68.0863 51.873 65.7311 51.873 62.8254Z" fill="#605C5D"/>
<path d="M91.6241 62.8254C91.6241 59.9199 93.9796 57.5645 96.8851 57.5645C99.7905 57.5645 102.146 59.9199 102.146 62.8254C102.146 65.7308 99.7905 68.0863 96.8851 68.0863C93.9796 68.0863 91.6241 65.7311 91.6241 62.8254Z" fill="#605C5D"/>
<path d="M87.467 64.4064C86.6552 64.1715 85.8088 64.6399 85.5747 65.4509C85.4557 65.8627 85.2299 66.2549 84.9188 66.5888C84.2373 67.3241 83.2117 67.7453 82.1051 67.7453C80.7935 67.7453 79.591 67.1443 78.9561 66.1609C78.6763 65.7393 78.5346 65.2717 78.5346 64.7706V59.1652C78.5346 58.3212 77.8501 57.6367 77.0061 57.6367C76.1622 57.6367 75.4777 58.3212 75.4777 59.1652V64.7706C75.4777 65.2676 75.336 65.7329 75.0434 66.1747C74.423 67.1435 73.224 67.7453 71.9144 67.7453C70.8075 67.7453 69.7822 67.3238 69.0899 66.5774C68.7826 66.2527 68.5607 65.8677 68.4484 65.4647C68.2221 64.6519 67.3787 64.1754 66.5661 64.4025C65.7529 64.6288 65.2773 65.4717 65.5039 66.2849C65.7493 67.1657 66.2213 67.9933 66.8587 68.6667C68.1162 70.0237 69.9588 70.8022 71.9141 70.8022C73.8996 70.8022 75.7733 69.981 77.0061 68.6231C78.2506 69.986 80.1232 70.8022 82.1045 70.8022C84.0593 70.8022 85.9019 70.024 87.1564 68.6706C87.7909 67.9905 88.2594 67.1701 88.5109 66.2987C88.7458 65.4878 88.2779 64.6405 87.467 64.4064Z" fill="#FF9356"/>
<path d="M73.7717 56.8205C74.6021 55.9796 75.9566 55.9707 76.7978 56.8011L77.0011 57.0019L77.2019 56.7986C78.032 55.9577 79.3868 55.9488 80.228 56.7792C81.0689 57.6093 81.0778 58.9641 80.2474 59.805L79.5344 60.5272C78.1568 61.9225 75.9089 61.9369 74.5136 60.5594L73.7914 59.8463C72.9502 59.0162 72.9416 57.6614 73.7717 56.8205Z" fill="#FD80A6"/>
<path d="M37.4217 23.6934L45.3543 19.8935C47.7436 18.7489 48.2423 15.552 46.3003 13.7495C43.021 10.706 38.4829 8.06316 34.3194 11.0701C30.4413 13.8685 31.0323 18.2506 32.5646 21.8976C33.3528 23.7741 35.586 24.5726 37.4217 23.6934Z" fill="#FFF1E6"/>
<path d="M119.877 62.0075C118.71 58.8655 117.069 56.4496 115.944 55.0201C118.078 53.5227 119.273 51.6127 119.504 49.3235C120.145 42.9831 112.892 35.9666 109.836 33.3144C111.257 31.3039 111.595 29.0244 110.829 26.6171C116.172 20.0937 116.657 13.2766 112.123 7.80735C108.781 3.77116 103.63 1.41014 97.9914 1.32887C92.0521 1.2404 86.4115 3.59699 82.3451 7.81622C76.4626 6.10473 70.6223 5.15067 65.6376 5.15067C62.6301 5.15067 59.3463 5.48681 55.8756 6.14467C52.5023 2.81239 48.067 0.659921 43.2038 0.127699C36.6077 -0.595337 30.3503 1.78261 26.4553 6.48414C23.4367 10.1284 22.6033 14.3823 24.0452 18.7868C24.2296 19.3504 24.4468 19.8957 24.6842 20.4248C21.6883 23.2953 20.1269 26.124 20.047 28.8439C20.0001 30.4461 20.4655 31.9443 21.4331 33.3147C18.379 35.9666 11.129 42.9826 11.7705 49.3229C12.0021 51.6113 13.1971 53.5211 15.3294 55.0185C13.9476 56.7585 11.7993 59.9211 10.6314 63.9559C8.79959 70.2835 10.0041 76.6446 14.1146 82.3524C18.3635 88.2506 24.2584 92.8002 31.6355 95.8748C37.4767 98.3096 44.2535 99.8264 51.7771 100.383C54.0981 100.555 56.3388 100.626 58.456 100.626C67.0495 100.626 73.5915 99.4622 75.0331 99.1841C76.457 99.4026 82.72 100.211 90.4607 98.9112C101.977 96.977 111.221 91.2359 117.193 82.3085C122.625 74.1812 121.65 66.7828 119.877 62.0075ZM97.9479 4.38548C102.69 4.45398 106.998 6.41175 109.769 9.75791C112.168 12.6523 113.88 17.3208 109.311 23.5888C106.482 19.4433 100.603 15.185 92.6833 11.6192C90.4024 10.5922 88.05 9.67137 85.6796 8.86708C89.0407 5.93694 93.3944 4.32835 97.9479 4.38548ZM114.651 80.6092C109.099 88.9096 100.822 94.0477 90.0516 95.8798C81.916 97.264 75.3374 96.1377 75.2731 96.1264C75.0817 96.0925 74.8853 96.0953 74.6951 96.1344C74.5925 96.1558 64.3219 98.2464 52.0025 97.3347C44.8063 96.802 38.3495 95.3614 32.8115 93.0531C25.9641 90.1995 20.5079 85.9978 16.5949 80.5657C8.35001 69.1167 15.8932 58.9501 18.3973 56.1115C18.6142 55.8674 18.7443 55.7346 18.7582 55.7207C19.104 55.3743 19.2629 54.8828 19.1856 54.3992C19.1082 53.9157 18.8037 53.4986 18.3668 53.2773C16.1522 52.156 14.9893 50.7626 14.8121 49.0167C14.3038 44.0154 21.6628 36.9872 24.5408 34.7014C24.8825 34.4304 25.0919 34.0269 25.1171 33.5917C25.1421 33.1566 24.9801 32.7311 24.6717 32.4233C23.579 31.3303 23.0656 30.1887 23.1025 28.9335C23.1527 27.2253 24.2257 25.2661 26.2187 23.2085C27.19 24.6901 28.2561 25.9406 29.1635 26.8872C29.4636 27.2001 29.8647 27.3579 30.2671 27.3579C30.6473 27.3579 31.0284 27.2167 31.3246 26.9327C31.9339 26.3486 31.9542 25.3812 31.3698 24.7716C23.8574 16.9358 26.5407 11.1724 28.8088 8.43442C32.0463 4.52693 37.3025 2.55834 42.8707 3.16655C49.0019 3.83745 54.3414 7.51059 57.1528 12.9926C57.538 13.7433 58.4596 14.0409 59.2101 13.6549C59.9612 13.2699 60.2579 12.3489 59.8724 11.5975C59.376 10.6296 58.8113 9.71103 58.187 8.84461C60.8243 8.42388 63.3245 8.20755 65.6379 8.20755C73.1669 8.20755 82.8082 10.5248 91.4283 14.4062C99.9542 18.2449 106.044 22.9523 107.719 26.9979C108.579 29.0749 108.223 30.7986 106.597 32.4224C106.289 32.7306 106.127 33.1557 106.152 33.5909C106.177 34.0258 106.386 34.4299 106.728 34.7008C109.607 36.987 116.97 44.0162 116.462 49.0179C116.285 50.7629 115.123 52.156 112.909 53.277C112.472 53.4983 112.167 53.916 112.09 54.4003C112.013 54.8845 112.172 55.3762 112.519 55.7224C112.547 55.7504 115.338 58.5693 117.011 63.0717C119.23 69.046 118.437 74.9464 114.651 80.6092Z" fill="#FF9356"/>
<path d="M48.1224 92.7536C48.1202 92.7536 48.118 92.7536 48.1161 92.7536C47.7491 92.7536 47.3814 92.6221 47.0888 92.3559C46.4642 91.7882 46.4179 90.8216 46.9859 90.197C47.2754 89.8781 47.689 89.6953 48.1194 89.6953C48.5501 89.6953 48.9634 89.8781 49.2529 90.197C49.8209 90.8213 49.7749 91.7882 49.15 92.3559C48.8571 92.6221 48.4891 92.7536 48.1224 92.7536Z" fill="#FF9356"/>
<path d="M62.7335 109.006L44.9513 95.0759C42.083 92.8292 41.5793 88.6826 43.8261 85.8143C46.0729 82.946 50.2197 82.4424 53.0877 84.6891L70.8699 98.619C71.4642 99.0844 71.8658 99.7528 71.9984 100.496L72.927 105.707C73.2478 107.507 71.9321 109.186 70.1072 109.306L64.8257 109.652C64.0728 109.701 63.3278 109.471 62.7335 109.006Z" fill="#91A2B5"/>
<path d="M74.4318 105.438L73.5035 100.227C73.305 99.113 72.7045 98.1143 71.8129 97.4151L54.0307 83.4853C50.504 80.7226 45.3864 81.3442 42.623 84.8709C39.8604 88.3981 40.4822 93.5154 44.0089 96.2786L61.7897 110.207C61.7902 110.207 61.7905 110.208 61.791 110.208C62.6031 110.844 63.599 111.187 64.6241 111.186C64.7242 111.186 64.8252 111.183 64.9259 111.177L70.2076 110.831C71.5106 110.745 72.7198 110.107 73.5249 109.079C74.3303 108.051 74.6606 106.724 74.4318 105.438ZM45.0292 86.7563C46.0279 85.4816 47.5189 84.8154 49.0249 84.8154C50.1185 84.8154 51.2201 85.1671 52.1456 85.8921L64.9336 95.9097C63.1994 96.318 61.5866 97.2928 60.4049 98.8013C59.2234 100.31 58.6629 102.109 58.6817 103.89L45.8934 93.8726C43.6938 92.1489 43.3061 88.9564 45.0292 86.7563ZM71.1184 107.194C70.8446 107.543 70.45 107.752 70.0073 107.781L64.7259 108.127C64.3457 108.15 63.9746 108.036 63.6759 107.802L63.6756 107.802C61.4757 106.079 61.0877 102.887 62.8111 100.686C64.5348 98.4865 67.727 98.0982 69.9275 99.8222C70.2262 100.057 70.4272 100.391 70.4935 100.764L71.4218 105.975C71.5 106.411 71.3924 106.845 71.1184 107.194Z" fill="#678490"/>
<path d="M59.0251 100.855C58.8565 95.3443 54.2523 91.0136 48.7415 91.1825C44.6032 91.3093 42.5595 93.8933 41.8695 97.5062C40.5027 99.0014 39.2694 101.157 38.2429 104.139C35.1367 113.164 36.5808 121.843 41.4684 123.526C46.3561 125.208 52.8362 119.256 55.9424 110.231C56.2697 109.28 56.5263 108.386 56.7243 107.539C58.2269 105.731 59.1028 103.39 59.0251 100.855Z" fill="#FFD5AE"/>
<path d="M60.5527 100.81C60.4584 97.736 59.1732 94.8832 56.9337 92.7765C54.6941 90.6698 51.762 89.5624 48.6946 89.6559C45.6061 89.7504 43.1996 91.0761 41.7352 93.4907C41.2956 94.2154 40.9431 95.0333 40.6763 95.9391C39.1071 98.1736 37.7673 100.828 36.7979 103.643C35.214 108.243 34.7001 112.929 35.3505 116.837C36.0566 121.078 38.0529 123.967 40.9711 124.971C41.6947 125.22 42.4438 125.343 43.211 125.343C45.5384 125.343 48.0248 124.208 50.4061 122.02C53.3238 119.341 55.8029 115.331 57.386 110.731C57.6769 109.889 57.9277 109.047 58.1384 108.222C59.7839 106.111 60.6356 103.518 60.5527 100.81ZM48.7878 92.7108C48.8757 92.708 48.9628 92.7069 49.0502 92.7069C53.5933 92.7069 57.3574 96.3307 57.4975 100.903C57.5666 103.16 56.7526 105.309 55.2053 106.954C53.658 108.599 51.5626 109.543 49.3056 109.612C47.2402 109.673 45.7484 108.992 44.7297 107.523C43.7645 106.131 43.211 103.994 43.13 101.343C43.0487 98.6909 43.4703 96.5237 44.3486 95.0754C45.2755 93.5475 46.7277 92.774 48.7878 92.7108ZM48.3385 119.769C46.0709 121.852 43.7487 122.695 41.9668 122.08C40.184 121.467 38.8719 119.374 38.3663 116.335C37.7978 112.92 38.2673 108.766 39.6884 104.638C39.8482 104.174 40.0223 103.718 40.2029 103.265C40.4766 105.714 41.1517 107.728 42.2184 109.265C43.7676 111.499 46.1264 112.673 49.0563 112.673C49.1694 112.673 49.2842 112.671 49.3991 112.667C50.9267 112.62 52.3994 112.279 53.7534 111.673C52.3625 114.973 50.4793 117.803 48.3385 119.769Z" fill="#FF9356"/>
<path d="M64.6794 135.139L109.194 140.47C109.194 140.47 117.544 134.45 114.98 117.091C114.328 112.645 114.297 107.031 114.789 101.398V101.392L127.881 102.96C131.884 95.5625 132.204 76.1127 124.751 76.1127L81.1592 70.8978L80.2368 70.7871C72.784 70.7871 68.3443 97.3763 70.4659 111.759C73.03 129.125 64.6794 135.139 64.6794 135.139Z" fill="white"/>
<path d="M86.09 82.8542C86.0293 82.8542 85.968 82.8503 85.9064 82.8431L79.5974 82.0868C78.7593 81.9864 78.1613 81.2254 78.2617 80.3875C78.3621 79.5494 79.1248 78.9525 79.961 79.0518L86.27 79.8081C87.1084 79.9085 87.7061 80.6696 87.6057 81.5074C87.5125 82.2837 86.853 82.8542 86.09 82.8542Z" fill="#678490"/>
<path d="M85.7458 91.0083C85.6856 91.0083 85.6246 91.0045 85.563 90.9972L78.5404 90.1608C77.7023 90.0612 77.1038 89.3007 77.2036 88.4626C77.3032 87.6247 78.0634 87.0276 78.9018 87.1258L85.9244 87.9623C86.7626 88.0618 87.3611 88.8223 87.2612 89.6604C87.1691 90.437 86.5091 91.0083 85.7458 91.0083Z" fill="#678490"/>
<path d="M83.3435 99.2064C83.2767 99.2064 83.2093 99.2019 83.1413 99.1928L76.7302 98.3449C75.8932 98.2345 75.3047 97.4663 75.4153 96.6295C75.5257 95.7928 76.2956 95.2015 77.1307 95.3147L83.5418 96.1625C84.3788 96.2729 84.9673 97.0411 84.8567 97.8779C84.7552 98.6467 84.0984 99.2064 83.3435 99.2064Z" fill="#678490"/>
<path d="M109.194 142.001C109.134 142.001 109.073 141.997 109.012 141.99L64.4969 136.66C63.8718 136.585 63.3562 136.135 63.1989 135.525C63.0414 134.915 63.2741 134.271 63.785 133.903C64.0853 133.679 71.3301 128.086 68.9538 111.984C67.1514 99.7701 70.0069 78.3178 75.7867 71.6224C77.1416 70.0532 78.6375 69.2578 80.2334 69.2578C80.6064 69.2578 81.0197 69.2944 81.4545 69.3932L124.847 74.5881C126.309 74.6133 128.34 75.2127 129.912 77.8496C133.499 83.8677 132.564 97.51 129.222 103.691C128.924 104.243 128.318 104.556 127.696 104.482L116.187 103.104C115.828 108.235 115.933 113.073 116.493 116.868C119.161 134.942 110.459 141.444 110.087 141.712C109.827 141.901 109.514 142.001 109.194 142.001ZM67.8797 133.987L108.718 138.876C110.288 137.416 115.543 131.368 113.469 117.314C112.873 113.271 112.762 108.144 113.149 102.74L83.1802 99.1521C82.6779 99.092 82.2377 98.7869 82.0048 98.3376C81.7721 97.8886 81.7768 97.3527 82.0175 96.9079C84.8733 91.6267 85.785 79.1426 82.7708 74.0855C82.1099 72.9773 81.426 72.5626 80.9165 72.4073L80.1574 72.3164C79.5112 72.3482 78.8195 72.7865 78.1001 73.6199C73.33 79.1457 70.1256 98.991 71.9774 111.538C73.7829 123.768 70.3827 130.699 67.8797 133.987ZM85.61 96.3646L126.98 101.318C129.476 95.6246 130.137 84.1975 127.286 79.4147C126.231 77.6441 125.115 77.6441 124.749 77.6441C124.688 77.6441 124.628 77.6405 124.567 77.6333L85.651 72.9742C88.6108 78.5804 88.1188 89.7865 85.61 96.3646Z" fill="#E3E3E3"/>
<path d="M124.421 90.7929C124.364 90.7929 124.308 90.7898 124.251 90.7837L92.2104 87.2351C91.3714 87.1419 90.7668 86.3867 90.8595 85.5478C90.9524 84.7091 91.7073 84.1045 92.5468 84.1968L124.587 87.7454C125.426 87.8386 126.031 88.5938 125.938 89.4328C125.851 90.2146 125.189 90.7929 124.421 90.7929Z" fill="#678490"/>
<path d="M124.396 83.7083C124.335 83.7083 124.274 83.7044 124.213 83.6972L110.82 82.0939L103.848 81.5622C103.826 81.5606 103.805 81.5584 103.783 81.5559L90.357 79.9484C89.5186 79.848 88.9206 79.0872 89.021 78.2494C89.1211 77.411 89.8852 76.8127 90.72 76.9134L104.113 78.5167L111.085 79.0484C111.106 79.0501 111.128 79.0523 111.15 79.0548L124.576 80.6623C125.414 80.7627 126.012 81.5234 125.912 82.3613C125.819 83.1375 125.159 83.708 124.396 83.7083Z" fill="#678490"/>
<path d="M109.533 110.247C109.472 110.247 109.411 110.243 109.349 110.236L95.9385 108.631L90.2055 108.061C90.1955 108.06 90.1853 108.059 90.1748 108.058L76.7485 106.45C75.9104 106.35 75.3125 105.589 75.4129 104.751C75.5133 103.913 76.2732 103.316 77.1121 103.415L90.5228 105.021L96.2558 105.591C96.2658 105.591 96.276 105.593 96.2863 105.594L109.712 107.201C110.55 107.302 111.149 108.062 111.048 108.9C110.955 109.676 110.295 110.247 109.533 110.247Z" fill="#678490"/>
<path d="M99.9797 128.799C99.8999 128.799 99.8192 128.793 99.7376 128.78C98.9039 128.647 98.3356 127.864 98.4685 127.03L99.6688 119.488C99.8014 118.654 100.584 118.084 101.418 118.219C102.252 118.351 102.82 119.135 102.687 119.968L101.487 127.51C101.368 128.262 100.718 128.799 99.9797 128.799Z" fill="#00D4D7"/>
<path d="M93.4275 127.756C93.3476 127.756 93.2669 127.75 93.1854 127.736C92.3517 127.604 91.7834 126.821 91.9162 125.987L92.576 121.842C92.7089 121.008 93.491 120.438 94.3255 120.572C95.1592 120.705 95.7275 121.488 95.5946 122.322L94.9348 126.467C94.8153 127.22 94.1658 127.756 93.4275 127.756Z" fill="#00D4D7"/>
<path d="M86.8752 126.712C86.7954 126.712 86.7147 126.706 86.6331 126.693C85.7994 126.561 85.2311 125.778 85.364 124.944L86.6403 116.923C86.7729 116.089 87.5556 115.521 88.3898 115.654C89.2235 115.787 89.7918 116.57 89.6589 117.403L88.3826 125.424C88.2631 126.176 87.6133 126.712 86.8752 126.712Z" fill="#00D4D7"/>
<path d="M80.323 125.669C80.2431 125.669 80.1624 125.663 80.0809 125.65C79.2472 125.517 78.6789 124.734 78.8117 123.9L79.3193 120.711C79.4519 119.877 80.2345 119.307 81.0688 119.442C81.9025 119.574 82.4707 120.357 82.3379 121.191L81.8304 124.38C81.7108 125.133 81.061 125.669 80.323 125.669Z" fill="#00D4D7"/>
<path d="M105.129 134.314C105.049 134.314 104.969 134.308 104.889 134.295L78.1009 130.031C77.2672 129.899 76.6989 129.116 76.8318 128.282C76.9641 127.448 77.7462 126.878 78.5812 127.013L103.86 131.036L106.519 114.326C106.652 113.492 107.434 112.924 108.269 113.056C109.102 113.189 109.671 113.972 109.538 114.806L106.638 133.026C106.574 133.426 106.354 133.785 106.026 134.023C105.763 134.213 105.449 134.314 105.129 134.314Z" fill="#E3E3E3"/>
<path d="M125.315 115.949C126.334 110.289 125.174 105.342 119.514 104.323C113.853 103.304 108.438 107.066 107.418 112.727C106.399 118.388 110.162 123.803 115.822 124.822C121.483 125.841 124.296 121.61 125.315 115.949Z" fill="#FFD5AE"/>
<path d="M117.438 126.502C116.832 126.502 116.202 126.444 115.551 126.327C109.07 125.16 104.747 118.938 105.914 112.457C107.081 105.976 113.303 101.651 119.784 102.819C122.934 103.387 125.197 105.11 126.328 107.804C127.26 110.023 127.425 112.855 126.819 116.221C125.624 122.854 122.252 126.502 117.438 126.502ZM117.664 105.686C113.448 105.686 109.695 108.706 108.922 112.998C108.054 117.821 111.271 122.45 116.093 123.319C120.171 124.053 122.766 121.482 123.811 115.679C124.856 109.876 123.319 106.561 119.243 105.828C118.713 105.732 118.185 105.686 117.664 105.686Z" fill="#FF9356"/>
</g>
<defs>
<clipPath id="clip0_623_47219">
<rect width="142" height="142" fill="white"/>
</clipPath>
</defs>
</svg>
