<svg width="22" height="23" viewBox="0 0 22 23" fill="none" xmlns="http://www.w3.org/2000/svg">
<g clip-path="url(#clip0_339_28933)">
<path d="M11.0001 1.44531C5.18594 1.44531 0.472656 6.1586 0.472656 11.9727C0.472656 17.7155 5.07113 22.3838 10.7867 22.4975L15.8415 21.3227C19.2194 19.57 21.5275 16.0411 21.5275 11.9727C21.5275 6.1586 16.8142 1.44531 11.0001 1.44531Z" fill="#2A428C"/>
<path d="M17.7536 6.43506H16.74C16.654 6.53573 16.4654 6.79368 16.4644 7.12196C16.4636 7.3701 16.5703 7.60291 16.7814 7.81405C17.3472 8.37982 17.51 8.85454 17.5426 8.96811C17.4778 9.0653 17.2725 9.41404 17.3767 9.79745C17.4304 9.99515 17.5574 10.1678 17.755 10.314C18.4912 10.3133 19.0878 9.71632 19.0878 8.97997V7.7692C19.0877 7.03232 18.4904 6.43506 17.7536 6.43506Z" fill="#F9A0B1"/>
<path d="M16.5431 6.43506C15.8063 6.43506 15.209 7.03237 15.209 7.76915V8.97993C15.209 9.71671 15.8063 10.314 16.5431 10.314H17.7539C17.7899 10.314 17.8256 10.3122 17.861 10.3094C17.0266 9.76243 17.6127 8.98057 17.6127 8.98057C17.6127 8.98057 17.4981 8.43934 16.8272 7.76851C16.1563 7.09764 16.8272 6.4351 16.8272 6.4351H16.5431V6.43506Z" fill="#FF7186"/>
<path d="M17.7546 8.83886V7.91035C17.7546 7.83206 17.6911 7.76855 17.6128 7.76855H16.6843C16.606 7.76855 16.5425 7.83202 16.5425 7.91035V8.83886C16.5425 8.91715 16.6059 8.98066 16.6843 8.98066H17.6128C17.6911 8.98066 17.7546 8.91715 17.7546 8.83886Z" fill="#FF4155"/>
<path d="M10.3493 7.95946C10.9327 8.54289 11.2858 8.79757 11.3006 8.80814L11.3321 8.83065L11.5349 8.73015C11.5444 8.91534 11.6008 9.29446 11.8911 9.50715C12.1091 9.66674 12.4101 9.69677 12.788 9.59777C12.8848 9.41301 12.9398 9.20293 12.9398 8.97993V7.76915C12.9398 7.03237 12.3425 6.43506 11.6057 6.43506H10.3949C10.3692 6.43506 10.3437 6.43596 10.3183 6.43742C10.2135 6.61789 9.80312 7.41324 10.3493 7.95946Z" fill="#3ECE9A"/>
<path d="M9.06055 7.76915V8.97993C9.06055 9.71671 9.65786 10.314 10.3946 10.314H11.6054C12.1496 10.314 12.6173 9.98806 12.8249 9.5209C11.5276 9.89654 11.5981 8.62681 11.5981 8.62681L11.3378 8.75572C11.3378 8.75572 10.981 8.50027 10.3946 7.91387C9.80829 7.32752 10.3946 6.43506 10.3946 6.43506C9.65786 6.43506 9.06055 7.03232 9.06055 7.76915Z" fill="#2BBC85"/>
<path d="M12.3781 20.1447C13.3212 20.3195 14.6869 20.3118 15.9042 19.3168C16.084 18.8442 16.5596 18.2591 16.5596 17.0388C16.5596 16.7055 16.5596 14.3508 16.5596 13.4846C16.5596 13.0699 16.2203 12.7306 15.8055 12.7306H15.7338C15.3191 12.7306 14.9798 13.0699 14.9798 13.4846V12.9773C14.9798 12.5743 14.6863 12.2203 14.2862 12.1723C13.8092 12.115 13.4 12.4902 13.4 12.9564V12.797C13.4 12.394 13.1066 12.0402 12.7064 11.9921C12.2295 11.9347 11.8202 12.31 11.8202 12.7762V10.2644C11.8202 9.86138 11.5268 9.50744 11.1266 9.45941C10.6496 9.40213 10.2404 9.77737 10.2404 10.2435V14.4359C10.2404 14.4867 10.2144 14.5311 10.1753 14.5572L10.1944 15.2873C10.2001 15.506 10.0503 15.6358 9.92016 15.6805C9.78623 15.7265 9.59751 15.7142 9.47011 15.5414C9.34266 15.3687 9.25651 15.1717 9.21122 14.9534C8.69456 15.6044 8.59801 16.4997 8.97343 17.2491C9.34331 17.9643 8.84706 17.1779 10.5925 19.4322C10.6233 19.471 10.6502 19.5123 10.6735 19.5554C10.9242 19.6888 11.5577 19.9927 12.3781 20.1447Z" fill="#FFC7AB"/>
<path d="M10.8454 9.4541H11.2136C11.4251 9.4541 11.5981 9.62714 11.5981 9.83854V10.5301C11.5981 10.7416 11.4251 10.9146 11.2136 10.9146H10.8454C10.634 10.9146 10.4609 10.7416 10.4609 10.5301V9.83854C10.4609 9.62709 10.6339 9.4541 10.8454 9.4541Z" fill="#FCE4D9"/>
<path d="M10.2626 15.2856L10.2403 14.436C10.2403 14.5186 10.172 14.5848 10.0895 14.5817C9.87646 14.574 9.54848 14.5665 9.28371 14.8663C9.23846 14.9175 9.19636 14.9706 9.15674 15.0251C9.21122 15.2486 9.30459 15.4322 9.41511 15.5821C9.68732 15.951 10.2746 15.744 10.2626 15.2856Z" fill="#FFAA7B"/>
<path d="M10.5928 19.4322C10.7106 19.5805 10.7746 19.7643 10.7746 19.9536L10.7869 22.4971C10.8579 22.4986 10.929 22.4999 11.0003 22.4999C12.7461 22.4999 14.3923 22.0745 15.8418 21.3224L15.8368 19.6356C15.8368 19.4884 15.8882 19.3419 15.9635 19.1782C13.5974 21.2381 10.5928 19.4322 10.5928 19.4322Z" fill="#FFAA7B"/>
<path d="M10.9464 9.26274C10.8486 9.26274 10.7547 9.2239 10.6856 9.15472L10.068 8.53713C9.92395 8.39306 9.92395 8.15961 10.068 8.01553C10.212 7.87154 10.4455 7.87154 10.5895 8.01553L10.9464 8.37235L11.4684 7.85023C11.6125 7.70616 11.846 7.7062 11.99 7.85019C12.1341 7.99422 12.1341 8.22771 11.99 8.37174L11.2071 9.15468C11.1379 9.2239 11.0441 9.26274 10.9464 9.26274Z" fill="#DEEEFF"/>
<path d="M21.5276 11.9725C21.5276 11.712 21.5178 11.4539 21.4992 11.1982C20.1425 11.2379 18.1772 11.6969 18.1772 14.0228V17.5749C18.1772 17.5749 18.2108 18.355 18.8337 19.0046C20.5084 17.1404 21.5276 14.6757 21.5276 11.9725Z" fill="#3C58A0"/>
<path d="M0.474121 12.083C0.52491 17.0222 3.97672 21.1455 8.5996 22.2238C9.05618 20.8912 8.93536 19.4264 8.06283 18.8215C6.13044 17.4818 6.49151 16.3205 6.22764 13.2812C6.02865 10.9897 2.29814 11.6294 0.474121 12.083Z" fill="#3C58A0"/>
<path d="M11.6052 0.5H10.5916C10.5056 0.600676 10.317 0.858617 10.3159 1.1869C10.3151 1.435 10.4218 1.66785 10.633 1.879C11.1988 2.44477 11.3615 2.91948 11.3942 3.03305C11.3293 3.13025 11.1241 3.47898 11.2283 3.86239C11.282 4.06009 11.409 4.23278 11.6065 4.37896C12.3427 4.37823 12.9393 3.78127 12.9393 3.04491V1.83409C12.9393 1.09731 12.342 0.5 11.6052 0.5Z" fill="#F9A0B1"/>
<path d="M10.3946 0.5C9.65786 0.5 9.06055 1.09731 9.06055 1.83409V3.04487C9.06055 3.78165 9.65786 4.37896 10.3946 4.37896H11.6054C11.6415 4.37896 11.6772 4.37711 11.7125 4.37432C10.8781 3.82737 11.4643 3.04551 11.4643 3.04551C11.4643 3.04551 11.3496 2.50428 10.6787 1.83345C10.0079 1.16258 10.6787 0.500043 10.6787 0.500043H10.3946V0.5Z" fill="#FF7186"/>
<path d="M11.6061 2.9038V1.97529C11.6061 1.897 11.5427 1.8335 11.4644 1.8335H10.5358C10.4576 1.8335 10.394 1.89696 10.394 1.97529V2.9038C10.394 2.98209 10.4575 3.0456 10.5358 3.0456H11.4644C11.5427 3.0456 11.6061 2.98214 11.6061 2.9038Z" fill="#FF4155"/>
<path d="M5.45676 6.43506H4.44313C4.35715 6.53573 4.16852 6.79368 4.16748 7.12196C4.16671 7.37006 4.2734 7.60291 4.48455 7.81401C5.05032 8.37978 5.21309 8.8545 5.24574 8.96807C5.1809 9.06526 4.97564 9.414 5.07984 9.79741C5.13355 9.99511 5.26052 10.1678 5.45809 10.314C6.19432 10.3132 6.7909 9.71628 6.7909 8.97993V7.76915C6.79086 7.03237 6.19359 6.43506 5.45676 6.43506Z" fill="#F9A0B1"/>
<path d="M4.2462 6.43506C3.50942 6.43506 2.91211 7.03237 2.91211 7.76915V8.97993C2.91211 9.71671 3.50942 10.314 4.2462 10.314H5.45698C5.49307 10.314 5.52873 10.3122 5.5641 10.3094C4.72969 9.76243 5.31582 8.98057 5.31582 8.98057C5.31582 8.98057 5.20118 8.43934 4.53031 7.76846C3.85944 7.09759 4.53031 6.43506 4.53031 6.43506H4.2462Z" fill="#FF7186"/>
<path d="M5.45771 8.83886V7.91035C5.45771 7.83206 5.39425 7.76855 5.31591 7.76855H4.3874C4.30911 7.76855 4.24561 7.83202 4.24561 7.91035V8.83886C4.24561 8.91715 4.30907 8.98066 4.3874 8.98066H5.31591C5.39425 8.98062 5.45771 8.91715 5.45771 8.83886Z" fill="#FF4155"/>
<path d="M17.7536 0.5H16.74C16.654 0.600676 16.4654 0.858617 16.4644 1.1869C16.4636 1.435 16.5703 1.66785 16.7814 1.879C17.3472 2.44477 17.51 2.91948 17.5426 3.03305C17.4778 3.13025 17.2725 3.47898 17.3767 3.86239C17.4304 4.06009 17.5574 4.23278 17.755 4.37896C18.4912 4.37823 19.0878 3.78127 19.0878 3.04491V1.83409C19.0877 1.09731 18.4904 0.5 17.7536 0.5Z" fill="#FFDD40"/>
<path d="M16.5431 0.5C15.8063 0.5 15.209 1.09731 15.209 1.83409V3.04487C15.209 3.78165 15.8063 4.37896 16.5431 4.37896H17.7539C17.7899 4.37896 17.8256 4.37711 17.861 4.37432C17.0266 3.82737 17.6127 3.04551 17.6127 3.04551C17.6127 3.04551 17.4981 2.50428 16.8272 1.83345C16.1563 1.16258 16.8272 0.500043 16.8272 0.500043H16.5431V0.5Z" fill="#FFB332"/>
<path d="M17.7546 2.9038V1.97529C17.7546 1.897 17.6911 1.8335 17.6128 1.8335H16.6843C16.606 1.8335 16.5425 1.89696 16.5425 1.97529V2.9038C16.5425 2.98209 16.6059 3.0456 16.6843 3.0456H17.6128C17.6911 3.0456 17.7546 2.98214 17.7546 2.9038Z" fill="#FF8F33"/>
<path d="M5.45676 0.5H4.44313C4.35715 0.600676 4.16852 0.858617 4.16748 1.1869C4.16671 1.435 4.2734 1.66785 4.48455 1.879C5.05032 2.44477 5.21309 2.91948 5.24574 3.03305C5.1809 3.13025 4.97564 3.47898 5.07984 3.86239C5.13355 4.06009 5.26052 4.23278 5.45809 4.37896C6.19432 4.37823 6.7909 3.78127 6.7909 3.04491V1.83409C6.79086 1.09731 6.19359 0.5 5.45676 0.5Z" fill="#FFDD40"/>
<path d="M4.2462 0.5C3.50942 0.5 2.91211 1.09731 2.91211 1.83409V3.04487C2.91211 3.78165 3.50942 4.37896 4.2462 4.37896H5.45698C5.49307 4.37896 5.52873 4.37711 5.5641 4.37432C4.72969 3.82737 5.31582 3.04551 5.31582 3.04551C5.31582 3.04551 5.20118 2.50428 4.53031 1.83345C3.85944 1.16258 4.53031 0.500043 4.53031 0.500043H4.2462V0.5Z" fill="#FFB332"/>
<path d="M5.45771 2.9038V1.97529C5.45771 1.897 5.39425 1.8335 5.31591 1.8335H4.3874C4.30911 1.8335 4.24561 1.89696 4.24561 1.97529V2.9038C4.24561 2.98209 4.30907 3.0456 4.3874 3.0456H5.31591C5.39425 3.0456 5.45771 2.98214 5.45771 2.9038Z" fill="#FF8F33"/>
</g>
<defs>
<clipPath id="clip0_339_28933">
<rect width="22" height="22" fill="white" transform="translate(0 0.5)"/>
</clipPath>
</defs>
</svg>
