<svg width="118" height="125" viewBox="0 0 118 125" fill="none" xmlns="http://www.w3.org/2000/svg">
<path d="M61.5603 105.739C61.5289 106.063 61.4985 106.377 61.469 106.682C61.3736 108.024 61.207 109.389 60.3453 110.473C59.5976 111.445 58.4451 111.978 57.1487 112.221C57.0539 112.253 56.9487 112.273 56.8331 112.283C55.676 112.509 54.4372 112.511 53.2355 112.487C52.3434 112.462 51.442 112.416 50.5311 112.348C50.4383 112.36 50.3474 112.351 50.2584 112.322C47.8193 112.168 45.39 111.912 42.9705 111.555C41.7153 111.372 40.429 111.156 39.1797 110.912C37.8622 110.662 36.3861 110.273 35.7676 109.2C35.4768 108.65 35.4675 108.035 35.4212 107.447C35.1519 100.276 35.18 93.113 35.5054 85.9586C35.5912 83.2953 35.7909 80.5201 37.3528 78.2452C40.5594 73.55 50.0497 75.0212 54.2613 78.0698C56.8349 79.9157 58.6473 82.5171 59.8255 85.2721C62.605 91.7443 62.1916 98.8595 61.5603 105.739Z" fill="#4CB597"/>
<g style="mix-blend-mode:multiply" opacity="0.3">
<path d="M61.5603 105.739C61.5289 106.063 61.4985 106.377 61.469 106.682C61.3736 108.024 61.207 109.389 60.3453 110.473C59.5976 111.445 58.4451 111.978 57.1487 112.221C57.0539 112.253 56.9487 112.273 56.8331 112.283C55.676 112.509 54.4372 112.511 53.2355 112.487C52.3434 112.462 51.442 112.416 50.5311 112.348C50.4383 112.36 50.3474 112.351 50.2584 112.322C47.8193 112.168 45.39 111.912 42.9705 111.555C41.7153 111.372 40.429 111.156 39.1797 110.912C37.8622 110.662 36.3861 110.273 35.7676 109.2C35.4768 108.65 35.4675 108.035 35.4212 107.447C35.1519 100.276 35.18 93.113 35.5054 85.9586C35.5912 83.2953 35.7909 80.5201 37.3528 78.2452C40.5594 73.55 50.0497 75.0212 54.2613 78.0698C56.8349 79.9157 58.6473 82.5171 59.8255 85.2721C62.605 91.7443 62.1916 98.8595 61.5603 105.739Z" fill="#53436E"/>
</g>
<path d="M17.5539 102.954C17.568 103.283 17.583 103.602 17.599 103.911C17.6428 105.235 17.6807 106.621 16.9835 107.782C16.3663 108.827 15.3043 109.492 14.0272 109.891C13.9551 109.925 13.8717 109.958 13.7769 109.989C12.645 110.31 11.3915 110.465 10.212 110.566C9.31018 110.642 8.41028 110.698 7.51234 110.734C7.41949 110.746 7.32762 110.747 7.23673 110.738C4.79481 110.85 2.35136 110.859 -0.0936499 110.766C-1.36062 110.705 -2.62758 110.644 -3.89161 110.552C-5.25493 110.42 -6.74576 110.184 -7.50951 109.189C-7.87434 108.693 -7.98587 108.068 -8.10329 107.503C-9.34063 100.382 -10.289 93.2375 -10.9485 86.0697C-11.2095 83.4342 -11.3846 80.6227 -10.1548 78.2236C-7.60337 73.1886 1.98703 73.6254 6.55551 76.1865C9.363 77.7479 11.5027 80.1661 13.0395 82.7715C16.6753 88.9273 17.2251 96.0436 17.5539 102.954Z" fill="#4CB597"/>
<g style="mix-blend-mode:multiply" opacity="0.3">
<path d="M17.5539 102.954C17.568 103.283 17.583 103.602 17.599 103.911C17.6428 105.235 17.6807 106.621 16.9835 107.782C16.3663 108.827 15.3043 109.492 14.0272 109.891C13.9551 109.925 13.8717 109.958 13.7769 109.989C12.645 110.31 11.3915 110.465 10.212 110.566C9.31018 110.642 8.41028 110.698 7.51234 110.734C7.41949 110.746 7.32762 110.747 7.23673 110.738C4.79481 110.85 2.35136 110.859 -0.0936499 110.766C-1.36062 110.705 -2.62758 110.644 -3.89161 110.552C-5.25493 110.42 -6.74576 110.184 -7.50951 109.189C-7.87434 108.693 -7.98587 108.068 -8.10329 107.503C-9.34063 100.382 -10.289 93.2375 -10.9485 86.0697C-11.2095 83.4342 -11.3846 80.6227 -10.1548 78.2236C-7.60337 73.1886 1.98703 73.6254 6.55551 76.1865C9.363 77.7479 11.5027 80.1661 13.0395 82.7715C16.6753 88.9273 17.2251 96.0436 17.5539 102.954Z" fill="#53436E"/>
</g>
<path d="M55.2847 39.4141C55.2847 39.4141 59.5179 31.9316 58.2689 29.9068C57.02 27.8819 48.8714 34.5863 48.8714 34.5863L55.2847 39.4141Z" fill="#ED8B00"/>
<path d="M45.3356 31.6643C45.3356 31.6643 45.1467 21.1743 42.5155 19.5684C39.8502 17.9593 35.2877 29.5556 35.2877 29.5556L45.3356 31.6643Z" fill="#ED8B00"/>
<path d="M29.6638 29.0121C29.6638 29.0121 26.8101 20.1067 24.1394 19.2648C21.4687 18.4229 20.625 29.2736 20.625 29.2736L29.6638 29.0121Z" fill="#ED8B00"/>
<path d="M14.0975 28.8251C14.0975 28.8251 7.94335 21.3201 5.15023 21.3875C2.32302 21.4517 5.84741 31.9575 5.84741 31.9575L14.0975 28.8251Z" fill="#ED8B00"/>
<path d="M110.913 40.1298C110.848 40.3283 110.75 40.5031 110.621 40.6544C107.934 44.6015 92.9061 42.4101 92.9061 42.4101C92.9061 42.4101 94.2011 51.7788 90.8757 63.0342C90.6199 63.9 90.33 64.7625 90.0031 65.6521C88.7177 69.3356 86.4129 72.8898 83.2706 76.2093C75.9052 84.0643 63.9098 90.7034 49.0519 95.2845C18.9464 104.562 -12.9567 90.1126 -26.6531 89.8004C-44.8467 89.3909 -52.7738 76.0331 -55.38 67.0595C-56.7448 62.3211 -56.6477 58.8297 -55.7392 59.0405C-38.7017 63.576 -29.7123 60.2695 -22.4456 58.0554C-20.3182 57.4015 -19.3963 55.3411 -18.2956 52.4995C-15.6757 45.6901 -12.0806 34.4914 11.5733 27.5372C29.5959 22.2491 41.5899 27.7091 50.0692 33.2282C57.3463 38.0167 61.9725 42.8251 65.4654 40.8599C73.0657 36.6206 70.4466 18.8938 77.7061 14.6215C84.9286 10.3764 105.142 18.3516 108.634 22.436C112.164 26.4933 112.599 35.5025 110.913 40.1298Z" fill="#4CB597"/>
<g style="mix-blend-mode:multiply" opacity="0.3">
<path d="M50.0693 33.229C49.8191 34.3922 49.5585 35.5442 49.2876 36.6849C48.6788 39.4205 47.9249 42.2342 45.8695 44.277C44.1532 46.0148 41.7178 47.0075 39.3564 47.9459C28.6191 52.2501 19.6732 58.6624 7.42687 59.7189C-1.28406 60.5035 -12.1423 58.5928 -18.2956 52.5004C-15.6756 45.6909 -12.0805 34.4923 11.5733 27.5381C29.5959 22.25 41.59 27.71 50.0693 33.229Z" fill="#53436E"/>
</g>
<g style="mix-blend-mode:multiply" opacity="0.3">
<path d="M102.543 41.6543C96.8117 41.8673 90.792 40.7934 86.1002 37.7291C85.1278 37.113 83.6811 36.4202 82.9482 37.2398C82.6031 37.6056 82.6183 38.1599 82.6394 38.6532C82.881 41.1333 83.4693 43.5856 84.3732 45.9762C85.1421 47.9853 86.1213 49.9533 86.6086 52.0272C87.3308 55.2294 86.7683 58.553 86.0161 61.7046C85.1027 65.4548 83.7315 69.3143 81.4367 72.4087C71.4385 80.8073 59.1924 86.8388 45.6472 88.8752C23.4803 92.1961 0.798349 84.8419 -21.7411 84.9023C-27.969 84.9138 -34.5878 85.4094 -40.0248 82.5801C-46.741 79.1049 -49.6307 71.6394 -55.38 67.0601C-52.7738 76.0337 -44.8467 89.3915 -26.6531 89.801C-12.9567 90.1131 18.9464 104.563 49.0519 95.285C63.9099 90.704 75.9052 84.0648 83.2706 76.2099C83.3447 76.1556 83.4074 76.1003 83.4587 76.0438C83.7154 75.7616 83.9597 75.4884 84.1917 75.2242C84.321 75.0729 84.438 74.9307 84.5426 74.7975C84.7726 74.5536 84.9922 74.2985 85.2015 74.0322C85.3081 73.8787 85.426 73.7263 85.5554 73.5751C85.8159 73.2522 86.0662 72.9182 86.306 72.5729C86.4392 72.3811 86.5725 72.1892 86.7057 71.9974C86.8903 71.7491 87.0645 71.4896 87.2283 71.2188C87.3596 71.0473 87.4805 70.8645 87.591 70.6705C87.7282 70.4381 87.8643 70.2158 87.9995 70.0037C88.1101 69.8097 88.2092 69.6145 88.297 69.4183C88.4342 69.1859 88.56 68.9524 88.6744 68.7178C88.783 68.5441 88.8802 68.3692 88.966 68.1933C89.0844 67.9181 89.2017 67.6531 89.3181 67.3982C89.3793 67.2404 89.4518 67.0836 89.5357 66.9279C89.6905 66.513 89.8444 66.1082 89.9972 65.7135C89.9992 65.6932 90.0012 65.673 90.0031 65.6527C90.2822 64.9017 90.5262 64.1576 90.7352 63.4204C90.7944 63.2828 90.8412 63.1543 90.8757 63.0348C94.2012 51.7793 92.9061 42.4106 92.9061 42.4106C92.9061 42.4106 107.934 44.602 110.621 40.655C107.954 41.1953 105.271 41.5498 102.543 41.6543Z" fill="#53436E"/>
</g>
<path d="M10.3984 107.574C10.3443 107.896 10.2901 108.218 10.236 108.541C10.0753 109.845 9.83761 111.235 8.9477 112.254C8.13479 113.189 6.95116 113.689 5.62361 113.898C5.53076 113.91 5.42655 113.92 5.31098 113.929C4.15973 114.094 2.88982 114.063 1.72805 113.982C0.817199 113.914 -0.0916861 113.826 -0.998607 113.718C-1.09146 113.729 -1.18235 113.721 -1.27127 113.692C-3.70254 113.456 -6.11165 113.11 -8.4986 112.654C-9.7479 112.411 -11.0283 112.133 -12.2406 111.862C-13.5522 111.551 -15.0224 111.102 -15.5669 109.974C-15.8607 109.454 -15.8359 108.843 -15.8451 108.228C-15.7489 101.071 -15.3667 93.9225 -14.6984 86.7809C-14.4423 84.134 -14.1062 81.372 -12.448 79.1679C-8.98049 74.6208 0.406298 76.4504 4.46398 79.6684C6.95758 81.6294 8.6248 84.3089 9.6638 87.0811C12.1218 93.6757 11.3365 100.724 10.3984 107.574Z" fill="#4CB597"/>
<path d="M3.66128 108.58C4.66994 110.244 5.18084 112.075 5.31092 113.93C4.15968 114.095 2.88977 114.064 1.728 113.982C0.817148 113.915 -0.0917364 113.827 -0.998658 113.718C-0.867857 112.011 -0.532557 110.324 0.435602 108.852C0.924097 108.07 1.92678 107.307 2.81464 107.731C3.21186 107.892 3.45214 108.253 3.66128 108.58Z" fill="#CFE4A3"/>
<path d="M10.3983 107.574C10.3442 107.896 10.29 108.219 10.2359 108.541C10.0752 109.846 9.83752 111.235 8.94761 112.255C8.1347 113.19 6.95107 113.689 5.62352 113.898C5.72476 113.089 5.82501 112.29 5.92429 111.502C6.05259 110.531 6.18384 109.531 6.74933 108.664C7.28075 107.794 8.30868 107.126 9.43048 107.265C9.77131 107.298 10.1033 107.423 10.3983 107.574Z" fill="#CFE4A3"/>
<path d="M68.4613 105.886C68.5 106.196 68.5264 106.516 68.5404 106.845C68.6524 108.176 68.7244 109.565 68.0613 110.73C67.4411 111.806 66.3791 112.471 65.1331 112.903C65.0611 112.937 64.9662 112.969 64.8487 112.998C63.748 113.352 62.5256 113.541 61.3462 113.642C60.4443 113.718 59.5434 113.785 58.6435 113.841C58.5487 113.873 58.4558 113.884 58.365 113.875C55.9418 114.03 53.5058 114.081 51.0569 114.028C49.784 114.028 48.483 113.963 47.219 113.872C45.8838 113.804 44.356 113.594 43.5922 112.599C43.1933 112.1 43.0788 111.505 42.9644 110.911C41.5621 103.835 40.4393 96.7145 39.5961 89.5494C39.301 86.9106 39.0548 84.123 40.1853 81.6835C42.6374 76.6082 52.2144 76.8287 56.8569 79.3355C59.6703 80.8362 61.8841 83.2 63.492 85.7816C67.2729 91.8594 67.996 98.9617 68.4613 105.886Z" fill="#4CB597"/>
<path d="M55.9865 108.947C57.115 110.438 57.8111 112.133 58.3649 113.876C55.9417 114.03 53.5057 114.081 51.0568 114.029C50.9171 113.339 50.8114 112.654 50.811 111.947C50.8412 110.568 51.3263 109.111 52.446 108.205C52.8222 107.873 53.2947 107.612 53.8118 107.601C54.7438 107.568 55.4689 108.252 55.9865 108.947Z" fill="#CFE4A3"/>
<path d="M62.1323 108.007C63.4372 109.453 64.3347 111.199 64.8486 112.999C63.7478 113.353 62.5255 113.542 61.346 113.642C60.4442 113.719 59.5433 113.785 58.6434 113.842C58.4304 112.132 58.3908 110.408 58.9958 108.778C59.3168 107.949 60.1638 107.018 61.1346 107.296C61.5377 107.396 61.852 107.703 62.1323 108.007Z" fill="#CFE4A3"/>
<path d="M68.4613 105.886C68.5 106.197 68.5264 106.517 68.5404 106.846C68.6524 108.177 68.7244 109.566 68.0613 110.73C67.4411 111.806 66.3791 112.471 65.1331 112.903C65.0734 112.099 65.0136 111.295 64.9538 110.491C64.8776 109.501 64.8044 108.48 65.1342 107.56C65.5011 106.613 66.3734 105.776 67.4787 105.729C67.8255 105.702 68.1633 105.765 68.4613 105.886Z" fill="#CFE4A3"/>
<path d="M45.6166 89.5494C46.9997 90.5431 49.1587 90.6292 50.4947 89.6223C50.939 89.2968 51.2928 88.8397 51.5444 88.3727C52.1705 87.2356 52.266 85.8937 51.7614 84.7086C50.8933 82.6592 48.4759 81.6883 46.2092 82.3594C44.4373 82.8943 43.6918 84.9103 43.8483 86.4916C43.975 87.6708 44.5877 88.8049 45.6166 89.5494Z" fill="#CDC9E2"/>
<g style="mix-blend-mode:multiply" opacity="0.3">
<path d="M46.8214 87.0555C46.6867 87.3803 46.518 87.7018 46.4486 88.0636C46.425 88.307 46.4326 88.5841 46.6565 88.7593C46.8521 88.8704 47.1307 88.8359 47.3499 88.7036C47.5351 88.5679 47.6579 88.3649 47.7438 88.1889C48.3639 87.1127 48.8507 85.9929 49.3375 84.8731C49.4633 84.6396 49.561 84.3419 49.4823 84.0886C49.4124 83.7441 49.024 83.4915 48.6908 83.7357C48.3916 83.9831 48.2052 84.4871 48.0365 84.8086C47.5984 85.5441 47.1933 86.2931 46.8214 87.0555Z" fill="#53436E"/>
</g>
<path d="M94.7106 23.0549C94.7178 22.6256 94.6197 22.2169 94.4846 21.8354C94.3719 21.5788 94.225 21.3189 94.0264 21.2382C93.893 21.1946 93.7537 21.2119 93.6115 21.2595C93.367 21.2973 93.1507 21.3992 92.9627 21.5652C92.5836 21.9278 92.3766 22.6447 92.3488 23.2869C92.3181 23.9596 92.4949 24.6216 92.8403 24.9621C93.5565 25.7377 94.6404 24.4914 94.7106 23.0549Z" fill="#454F59"/>
<path d="M105.957 29.4865C105.287 29.2988 106.21 26.87 107.806 27.0859C109.439 27.2746 109.67 29.508 108.915 29.4963C108.156 29.515 108.549 28.294 107.697 28.2116C106.879 28.1324 106.627 29.6741 105.957 29.4865Z" fill="#454F59"/>
<path d="M102.567 40.3354C98.5115 39.9429 96.3293 38.3191 95.1919 36.9192C93.8083 35.2192 93.6576 33.577 93.6323 33.4824C93.613 33.327 93.764 33.1881 93.9374 33.1742C94.1448 33.1635 94.3035 33.3017 94.3228 33.4571C94.3334 33.7038 94.958 39.6911 104.234 39.8211C104.442 39.8105 104.566 39.9453 104.582 40.1312C104.568 40.2833 104.417 40.4222 104.246 40.4057C103.65 40.4094 103.09 40.386 102.567 40.3354Z" fill="#454F59"/>
<path d="M92.4564 34.2595C92.32 34.2463 92.2237 34.1756 92.1673 34.0473C92.1138 33.8885 92.1997 33.7126 92.376 33.6682C93.4027 33.3684 94.3448 32.8761 95.1594 32.2793C95.2734 32.1675 95.5149 32.1602 95.6395 32.2951C95.764 32.43 95.7464 32.6125 95.5983 32.721C94.7407 33.4058 93.6934 33.9186 92.5956 34.2423C92.5482 34.2581 92.5018 34.2639 92.4564 34.2595Z" fill="#454F59"/>
<path d="M87.1892 19.0096C87.5376 19.3197 88.1141 19.4062 88.6312 19.3948C89.1172 19.3497 89.615 19.183 90.1069 19.077C91.1647 18.8109 92.2389 18.7306 93.2627 18.4612C94.2864 18.1917 95.2996 17.6756 95.794 16.8329C96.3254 15.9631 96.0994 14.7435 95.1493 14.2524C94.5934 13.9529 93.8689 13.9749 93.2406 14.0677C91.9219 14.1857 90.6849 14.5266 89.5012 15.0262C88.0702 15.5941 85.3507 17.3884 87.1892 19.0096Z" fill="#454F59"/>
<path d="M87.6712 33.581C88.9483 33.1825 89.9122 32.1089 90.1322 30.9018C90.3699 29.5122 89.4235 27.9159 87.8763 27.5512C86.0964 27.1026 83.701 28.0377 83.2946 29.7488C83.1246 30.4386 83.2954 31.1615 83.4692 31.8539C83.8303 33.455 86.1779 34.0814 87.6712 33.581Z" fill="#FB8D84"/>
<g style="mix-blend-mode:multiply" opacity="0.3">
<path d="M-6.75353 41.3027C-7.93502 42.8466 -8.93556 44.6537 -8.80842 46.5393C-8.73686 47.2218 -8.49783 47.9512 -7.99372 48.4299C-7.30278 49.111 -6.2239 49.3382 -5.21488 49.2209C-4.2088 49.134 -3.30961 48.7297 -2.44156 48.2917C0.0855919 47.0622 2.46294 45.6033 4.65346 43.942C6.02936 42.8776 7.38296 41.6881 8.21184 40.2328C9.07481 38.7809 9.35372 36.9654 8.60889 35.4193C5.34761 28.5934 -4.54454 38.3841 -6.75353 41.3027Z" fill="#53436E"/>
</g>
<g style="mix-blend-mode:multiply" opacity="0.3">
<path d="M11.2721 34.2038C11.6269 35.1594 12.7386 35.7583 13.8486 36.0193C15.8642 36.5214 18.1014 36.1545 19.7929 35.0284C20.0862 34.8418 20.3513 34.5911 20.5171 34.3C20.7034 33.796 20.5149 33.2557 20.2153 32.7968C19.7259 32.166 18.9803 31.6946 18.2258 31.3145C16.6857 30.5206 14.5709 29.9781 12.9711 30.8674C11.8838 31.4377 10.8669 33.059 11.2721 34.2038Z" fill="#53436E"/>
</g>
<g style="mix-blend-mode:multiply" opacity="0.3">
<path d="M10.3943 40.0764C9.80356 40.8484 9.24691 41.6237 8.92294 42.4829C8.63011 43.3758 8.60111 44.3864 9.10691 45.203C9.90938 46.5091 11.7175 47.0218 13.3564 47.1497C14.5834 47.2685 15.8251 47.2351 16.96 46.8843C18.1259 46.5672 19.1879 45.9023 19.7934 44.9782C20.3589 44.1117 20.4931 43.0805 20.3828 42.0872C20.3007 41.158 19.946 40.2024 19.2239 39.4876C17.9666 38.2604 15.8816 38.1201 14.0293 38.0636C12.4527 38.0032 11.219 39.02 10.3943 40.0764Z" fill="#53436E"/>
</g>
<g style="mix-blend-mode:multiply" opacity="0.3">
<path d="M45.3645 56.6031C46.8528 57.5763 48.812 57.9501 50.5439 57.4728C52.2388 57.0227 53.6723 55.7181 53.9988 54.1221C54.0888 53.5474 54.0825 52.9019 53.7547 52.3788C53.3957 51.822 52.7776 51.4551 52.1565 51.1186C50.2903 50.1396 47.548 48.6151 45.2885 48.8571C42.8526 49.1434 42.0999 51.5887 42.8182 53.4086C43.2828 54.6512 44.1682 55.8117 45.3645 56.6031Z" fill="#53436E"/>
</g>
<g style="mix-blend-mode:multiply" opacity="0.3">
<path d="M34.0022 59.1886C34.1121 59.4756 34.256 59.7659 34.511 59.9748C34.9587 60.3252 35.581 60.2933 36.1352 60.2548C37.002 60.1852 37.8747 60.0547 38.5441 59.536C39.1025 59.0987 39.3747 58.4187 39.5417 57.7593C39.6982 56.8532 39.6561 55.8664 39.2896 55.0325C39.1739 54.8064 39.0893 54.6139 38.8995 54.442C38.7127 54.2397 38.4148 54.1187 38.1509 54.0011C37.4217 53.7155 36.6125 53.5451 35.8169 53.5909C32.5912 53.8622 33.2023 57.1458 34.0022 59.1886Z" fill="#53436E"/>
</g>
<g style="mix-blend-mode:multiply" opacity="0.3">
<path d="M75.5629 18.284C75.5052 18.5241 75.4787 18.7979 75.5945 19.0241C75.6732 19.2774 75.86 19.4797 76.1238 19.5974C76.4247 19.6879 76.7743 19.6296 77.0958 19.5072C77.5254 19.3338 77.9268 19.0963 78.2037 18.7238C78.4435 18.3785 78.5247 17.8951 78.2874 17.5036C78.056 17.0513 77.3608 16.769 76.829 16.9325C76.223 17.1503 75.7211 17.7159 75.5629 18.284Z" fill="#53436E"/>
</g>
<g style="mix-blend-mode:multiply" opacity="0.3">
<path d="M79.2718 16.2176C79.0008 16.5291 78.8203 16.9723 78.9184 17.381C78.9823 17.7864 79.3249 18.1573 79.7591 18.2915C80.0288 18.3483 80.3044 18.3443 80.5489 18.3065C81.0038 18.2277 81.3964 18.0814 81.7296 17.8373C82.0317 17.5595 82.1752 17.1434 82.1453 16.7413C82.0813 16.3359 81.807 15.9716 81.4497 15.7527C80.67 15.2781 79.7767 15.6215 79.2718 16.2176Z" fill="#53436E"/>
</g>
<path d="M96.1187 85.284C96.0918 84.8514 109.494 81.45 109.899 81.8884C110.304 82.3268 102.596 92.2982 101.985 92.2084C101.337 92.1457 99.5638 78.1244 99.9459 77.7314C100.291 77.3656 110.88 89.1692 110.802 89.6223C110.72 90.1057 96.1251 85.9295 96.1187 85.284Z" fill="#EDC30F"/>
</svg>
