<svg width="24" height="24" viewBox="0 0 24 24" fill="none" xmlns="http://www.w3.org/2000/svg">
<path d="M9.63 0L13.7262 11.9638L9.63 24C9.52875 24 9.4275 23.9784 9.33328 23.9344L0.406406 19.7077C0.158438 19.5923 0 19.3439 0 19.0702V2.36531C0 1.05891 1.06125 0 2.37 0L9.63 0Z" fill="#AA80FF"/>
<path d="M21.6271 0C20.3207 0 21.6297 6.33281 21.6297 6.33281L19.2594 13.9419V19.0702C19.2594 19.3439 19.101 19.5923 18.853 19.7077L9.9266 23.9344C9.83238 23.9784 9.73113 24 9.62988 24V0L21.6271 0Z" fill="#9966FF"/>
<path d="M24 2.36766V13.2388C24 13.6271 23.6852 13.9419 23.2969 13.9419H19.2598V2.36513C19.2613 1.05858 20.3208 0 21.6274 0H21.6323C21.6398 0 21.6468 0 21.6542 0.000515625C22.9519 0.0119531 24 1.06753 24 2.36766Z" fill="#7733FF"/>
<path d="M9.06445 11.6348C9.06445 13.2012 8.83594 14.3516 8.37891 15.0859C7.92578 15.8164 7.22461 16.1816 6.27539 16.1816C5.31445 16.1816 4.60938 15.8086 4.16016 15.0625C3.71094 14.3164 3.48633 13.1777 3.48633 11.6465C3.48633 10.0723 3.71289 8.92188 4.16602 8.19531C4.62305 7.46484 5.32617 7.09961 6.27539 7.09961C7.23633 7.09961 7.94141 7.47656 8.39062 8.23047C8.83984 8.98438 9.06445 10.1191 9.06445 11.6348ZM7.56445 14.2949C7.67773 14.0059 7.75781 13.6406 7.80469 13.1992C7.85156 12.7578 7.875 12.2363 7.875 11.6348C7.875 11.0371 7.85156 10.5176 7.80469 10.0762C7.75781 9.63477 7.67578 9.26758 7.55859 8.97461C7.44141 8.67773 7.2793 8.45312 7.07227 8.30078C6.86914 8.14453 6.60352 8.06641 6.27539 8.06641C5.95117 8.06641 5.68359 8.14453 5.47266 8.30078C5.26562 8.45312 5.10156 8.68164 4.98047 8.98633C4.86328 9.2832 4.7832 9.6582 4.74023 10.1113C4.69727 10.5645 4.67578 11.0762 4.67578 11.6465C4.67578 12.2559 4.69336 12.7656 4.72852 13.1758C4.76758 13.5859 4.84961 13.9531 4.97461 14.2773C5.08789 14.5781 5.24805 14.8105 5.45508 14.9746C5.66602 15.1348 5.93945 15.2148 6.27539 15.2148C6.59961 15.2148 6.86523 15.1387 7.07227 14.9863C7.2832 14.8301 7.44727 14.5996 7.56445 14.2949ZM15.1289 16H10.875V15.1094H12.457V9.26172H10.875V8.46484C11.4727 8.46484 11.9121 8.38086 12.1934 8.21289C12.4785 8.04102 12.6387 7.71875 12.6738 7.24609H13.582V15.1094H15.1289V16Z" fill="white"/>
</svg>
