<svg width="24" height="26" viewBox="0 0 24 26" fill="none" xmlns="http://www.w3.org/2000/svg">
<path d="M0.0154248 22.8914C-0.323361 26.9652 5.015 24.1747 6.54629 23.1971C7.37761 22.6664 7.80877 22.0476 8.79003 22.298C9.63957 22.5147 10.5227 22.5837 11.3966 22.5296C13.2902 22.4123 15.1572 21.7589 16.7785 20.7878C19.9868 18.8663 21.9602 15.49 21.0165 11.7241C20.7377 10.6114 20.2239 10.3631 20.8821 9.4029C21.4226 8.61424 21.9395 7.80842 22.4189 6.98108C23.1571 5.70751 24.1128 4.08637 23.9891 2.56161C23.7006 -0.998687 18.5562 2.36024 17.2984 3.27601C16.648 3.74959 16.012 4.24391 15.3891 4.75288C14.6763 4.4686 13.9209 4.29856 13.1587 4.21802C11.4616 4.03893 9.71885 4.21864 8.13196 4.86552C4.93483 6.16881 2.59986 9.23761 2.31572 12.6935C2.2363 13.6594 2.3224 14.6349 2.55216 15.576C2.87682 16.9057 3.08752 16.912 2.27812 18.0318C1.27122 19.4249 0.162097 21.13 0.0154248 22.8914C0.0736382 22.1922 -0.037789 23.5312 0.0154248 22.8914Z" fill="white"/>
<path d="M23.1456 2.01493C22.6425 1.32023 21.5474 1.67481 20.9064 1.92912C19.3855 2.53259 18.0126 3.52455 16.7256 4.51699C16.3112 4.83662 15.9034 5.16462 15.5009 5.49898C15.4986 5.50048 15.4961 5.50155 15.494 5.50311C14.7362 5.14804 13.922 4.94944 13.0908 4.86162C11.2909 4.67156 9.47798 4.90253 7.84417 5.70319C6.32156 6.44942 5.01921 7.63852 4.14264 9.09041C3.25249 10.5648 2.82272 12.3018 2.95578 14.0212C3.03956 15.1037 3.32766 16.1594 3.78656 17.1357C2.74134 18.4209 1.75188 19.8083 1.10483 21.3405C0.888929 21.8515 0.705676 22.3895 0.659368 22.9458C0.627712 23.3265 0.673327 23.7418 0.92118 24.0484C1.16401 24.3489 1.55363 24.453 1.92623 24.4542C2.52522 24.4562 3.1219 24.2499 3.66785 24.0224C4.55424 23.6531 5.39035 23.1692 6.19848 22.6533C6.83123 22.2494 7.44821 21.8211 8.05455 21.3781C9.45199 21.9478 10.9666 22.0197 12.4415 21.7534C13.6363 21.5377 14.7983 21.1229 15.8716 20.5575C16.9705 19.9784 17.9949 19.2247 18.8198 18.2919C19.6316 17.374 20.2466 16.2745 20.4995 15.069C20.821 13.5364 20.5316 11.9471 19.9326 10.518C19.8561 10.3357 19.7739 10.1559 19.688 9.97779C20.3385 9.07573 20.9611 8.15095 21.5378 7.20041C22.0058 6.42881 22.4489 5.63637 22.8067 4.80682C23.0459 4.25226 23.2623 3.673 23.333 3.06958C23.3744 2.71726 23.3618 2.31357 23.1456 2.01493ZM5.45722 19.941C5.17818 20.1451 4.88392 20.3555 4.56283 20.4892C4.21303 20.6349 4.12856 20.5394 4.26135 20.1325C4.35847 19.8352 4.51073 19.5555 4.66669 19.2856C4.73804 19.1623 4.81294 19.0411 4.88907 18.9208C5.02062 19.0877 5.15682 19.2512 5.29993 19.409C5.41698 19.5379 5.53885 19.6623 5.66305 19.7844C5.59466 19.8368 5.52679 19.8901 5.45722 19.941ZM18.1622 5.98114C18.0685 6.32832 17.8827 6.65146 17.6965 6.95607C17.6751 6.99119 17.6523 7.02569 17.6304 7.06066C17.3477 6.77447 17.0482 6.50417 16.7292 6.25961C17.0112 6.04552 17.308 5.84291 17.6288 5.69426C18.1401 5.45757 18.2642 5.603 18.1622 5.98114Z" fill="#68182B"/>
<path d="M9.6106 21.5235C10.7429 20.9658 11.8314 20.3261 12.8685 19.6056C13.4178 19.224 13.953 18.8227 14.4797 18.4105C14.7567 18.1938 15.0313 17.974 15.3042 17.7524C15.5878 17.5222 15.8632 17.2788 16.1571 17.062C16.3824 16.8958 16.6222 16.7409 16.8804 16.6306C17.5302 16.3528 17.6476 16.7081 17.3248 17.2067C17.0542 17.6243 16.6837 17.9697 16.3361 18.3223C16.0285 18.6342 15.7143 18.9394 15.3874 19.2309C14.5664 19.963 13.6687 20.6044 12.7113 21.1447C12.1285 21.4736 11.2318 21.7892 9.6106 21.5235Z" fill="#FBF199"/>
<path d="M4.1346 19.6871C4.03002 19.9153 3.9205 20.167 3.91325 20.4223C3.90815 20.602 3.98441 20.7782 4.16937 20.8301C4.387 20.8911 4.63592 20.7735 4.82526 20.679C5.21045 20.4867 5.56097 20.2232 5.89983 19.9602C6.4017 19.5706 6.88114 19.1514 7.36296 18.7376C8.24678 17.9783 9.11909 17.2053 9.97106 16.4103C11.4257 15.0528 12.8138 13.6259 14.1071 12.1133C14.7391 11.3741 15.3491 10.6163 15.9435 9.84649C16.5927 9.00576 17.2629 8.16236 17.8366 7.2678C18.0613 6.91768 18.2792 6.54738 18.4089 6.14974C18.4758 5.94448 18.5377 5.67559 18.4167 5.47724C18.1188 4.98869 17.2897 5.53229 16.9872 5.72975C16.8172 5.84073 16.6541 5.96134 16.4931 6.08489C16.428 6.03893 16.3614 5.99517 16.2947 5.95136C16.8881 5.4911 17.4958 5.04512 18.1378 4.65475C18.5369 4.41202 18.9592 4.17071 19.4127 4.04567C19.9634 3.8936 20.247 4.12861 20.1949 4.64201C20.1593 4.99324 20.0317 5.33841 19.8985 5.66267C19.7084 6.12533 19.4742 6.5702 19.2261 7.00391C18.6106 8.07974 17.8955 9.10325 17.1679 10.1056C16.3172 11.2776 15.4176 12.4145 14.4711 13.5106C13.4515 14.6912 12.3766 15.8251 11.2395 16.8933C10.0866 17.9762 8.86877 18.993 7.57362 19.9019C6.94921 20.3401 6.30733 20.756 5.6447 21.1342C5.23884 21.3659 4.81994 21.582 4.38106 21.7446C4.08 21.8561 3.7516 21.9603 3.42643 21.9459C3.2162 21.9365 3.02738 21.8556 2.95308 21.6653C2.84093 21.378 2.94253 21.0241 3.03265 20.7453C3.21868 20.1694 3.51467 19.6284 3.81974 19.1084C3.99842 18.8039 4.18769 18.5057 4.38104 18.2103C4.48385 18.3696 4.59288 18.525 4.70537 18.6779C4.49581 19.0025 4.29552 19.3356 4.1346 19.6871Z" fill="#FF8E5B"/>
<path d="M3.20122 18.355C3.43454 18.0363 3.67735 17.7249 3.9252 17.4176C4.03551 17.6328 4.15419 17.8437 4.28119 18.0498C3.86535 18.6798 3.46583 19.3266 3.14585 20.011C2.95567 20.4177 2.76739 20.8603 2.74017 21.3145C2.72492 21.5701 2.78363 21.844 3.0069 21.9966C3.23149 22.1503 3.53422 22.1326 3.78937 22.0897C4.18357 22.0234 4.56275 21.8689 4.92386 21.7022C5.47862 21.446 6.00541 21.1314 6.5224 20.8069C7.89327 19.9463 9.18131 18.9561 10.3976 17.8894C11.6202 16.8172 12.7719 15.6649 13.8622 14.4586C14.8851 13.3268 15.8544 12.1466 16.7721 10.9279C17.5688 9.86981 18.3393 8.78438 19.0363 7.65756C19.3332 7.17757 19.6135 6.6858 19.8562 6.17601C20.0386 5.79277 20.2083 5.39515 20.3072 4.98115C20.3686 4.72464 20.4201 4.42303 20.3229 4.16829C20.2377 3.94455 20.0388 3.83159 19.8056 3.82072C19.4493 3.80414 19.0861 3.96398 18.7721 4.11325C18.1862 4.39179 17.6406 4.75607 17.1129 5.13074C16.784 5.36427 16.462 5.60744 16.1435 5.85492C16.0223 5.7799 15.8983 5.70961 15.7722 5.64261C17.1353 4.5128 18.5679 3.41644 20.1413 2.59529C20.6338 2.33833 21.149 2.10273 21.6918 1.9744C21.889 1.92777 22.0577 1.9 22.2607 1.9025C22.3989 1.90423 22.5637 1.93079 22.6632 1.97786C22.7891 2.03737 22.8706 2.10699 22.9276 2.19948C22.9991 2.31536 23.0435 2.46246 23.0568 2.58725C23.1058 3.04813 22.979 3.51324 22.8345 3.9487C22.5985 4.65981 22.2631 5.33692 21.9054 5.9936C21.392 6.93608 20.8148 7.84343 20.2125 8.73124C19.0032 10.5141 17.6598 12.1847 16.1947 13.7638C14.5371 15.5503 12.7596 17.2271 10.8924 18.7927C8.83067 20.5214 7.27665 21.781 4.87035 23.1168C4.19884 23.4896 3.49709 23.8387 2.75321 24.042C2.33738 24.1556 1.8707 24.238 1.47059 24.0979C0.99374 23.9308 0.77445 23.2961 1.09386 22.2044C1.27402 21.5885 1.55135 21.0033 1.85833 20.4415C2.25515 19.7151 2.71257 19.0224 3.20122 18.355Z" fill="#FF1D92"/>
<path d="M5.15599 13.7251C4.96979 13.8862 4.81232 13.8636 4.81789 13.5338C4.822 13.294 4.87185 13.0552 4.92811 12.8231C4.9661 12.6661 5.01008 12.5107 5.05728 12.3562C5.41864 11.1867 6.01889 10.0643 6.74935 9.08483C7.13131 8.57274 7.56763 8.0858 8.07859 7.69912C8.33891 7.5021 8.62208 7.33256 8.91253 7.18396C9.12724 7.07412 9.36319 6.96002 9.60542 6.92883C9.94572 6.88502 9.92347 7.13364 9.7348 7.49317C9.57166 7.80384 9.35252 8.08362 9.14501 8.36518C8.90748 8.68753 8.6653 9.00657 8.42116 9.32392C7.96392 9.91808 7.49957 10.5068 7.05443 11.1102C6.8238 11.4229 6.59825 11.7394 6.38003 12.0608C6.15002 12.3997 5.93756 12.7506 5.70055 13.0845C5.53955 13.3114 5.3676 13.5422 5.15599 13.7251Z" fill="#FBF199"/>
<path d="M12.0815 9.63333C12.3835 9.07951 12.6718 8.51732 12.9345 7.94365C13.0244 7.74716 13.1119 7.54913 13.1905 7.34771C13.3156 7.02706 13.4481 6.6835 13.6888 6.42887C13.8041 6.30687 13.9479 6.21297 14.1207 6.21487C14.3673 6.21764 14.6082 6.36387 14.7584 6.56623C15.2385 7.21339 14.8766 8.08807 14.5614 8.72745C13.968 9.9313 13.1406 11.0446 12.2304 12.0266C11.7769 12.5159 11.2886 12.9831 10.7429 13.3692C10.5108 13.5333 10.2672 13.6836 10.0089 13.8031C9.7819 13.9081 9.43195 14.0678 9.37465 13.8292C9.32572 13.6249 9.48529 13.4562 9.61164 13.3168C10.0956 12.7824 10.5186 12.1933 10.9141 11.5914C11.3315 10.9562 11.7177 10.3005 12.0815 9.63333Z" fill="#FFA0B9"/>
<path d="M17.0524 6.89601C16.4213 6.3236 15.6977 5.85274 14.8967 5.55559C14.0888 5.25583 13.2319 5.1277 12.3737 5.09409C11.4819 5.05907 10.5944 5.11045 9.72497 5.32128C8.92092 5.51624 8.14833 5.82802 7.43341 6.24455C6.0157 7.07055 4.8419 8.29736 4.09542 9.75987C3.32662 11.2659 3.05028 12.995 3.31707 14.6652C3.61694 16.5435 4.53393 18.278 5.89004 19.6059C6.20365 19.3549 6.50866 19.0929 6.81418 18.8325C7.25805 18.4542 7.69911 18.0728 8.1366 17.6872C8.91248 17.0032 9.67698 16.3061 10.4231 15.5897C11.749 14.3167 13.0109 12.9792 14.1932 11.5717C14.7856 10.8666 15.3591 10.1461 15.9183 9.41453C16.4459 8.72428 16.9949 8.03404 17.4733 7.30541C17.3368 7.16512 17.1974 7.02753 17.0524 6.89601ZM4.67535 13.8084C4.62137 13.6245 4.64796 13.4161 4.67414 13.2303C4.71827 12.9179 4.80042 12.6114 4.89249 12.3101C4.93261 12.1801 4.97607 12.0513 5.02253 11.9235C5.48277 10.6592 6.17455 9.43616 7.06438 8.42455C7.52051 7.90605 8.04022 7.46973 8.64404 7.13317C8.896 6.99276 9.1634 6.85633 9.44499 6.78636C9.59518 6.74909 9.78492 6.71959 9.92139 6.81341C10.0508 6.90237 10.0579 7.06671 10.0289 7.20695C9.97602 7.46215 9.82256 7.70142 9.67931 7.914C9.20914 8.61147 8.67696 9.2711 8.16207 9.9357C7.65983 10.584 7.15967 11.234 6.69164 11.9078C6.43765 12.2734 6.20281 12.6514 5.95271 13.0195C5.77393 13.2827 5.58449 13.5481 5.35652 13.7717C5.24588 13.8802 5.09634 14.02 4.93083 14.0257C4.79586 14.0304 4.71082 13.929 4.67535 13.8084ZM8.51467 15.8471C8.40742 16.0123 8.28545 16.1683 8.15378 16.3146C7.57058 16.9629 6.80522 17.4272 6.04344 17.8355C5.75663 17.9892 5.2415 18.2246 5.06773 17.7917C4.90935 17.3971 5.2958 17.0672 5.56603 16.8486C6.01211 16.4875 6.44448 16.1088 6.88355 15.7392C7.08537 15.5694 7.28721 15.3996 7.49167 15.233C7.64976 15.1043 7.8014 14.9759 7.99711 14.9073C8.30946 14.7977 8.75675 14.8751 8.73873 15.2903C8.7299 15.4934 8.62258 15.6809 8.51467 15.8471ZM14.8328 8.54932C14.713 8.81992 14.575 9.0824 14.4282 9.33919C14.0699 9.966 13.6572 10.5617 13.2136 11.1308C12.7519 11.723 12.2517 12.2887 11.7013 12.8002C11.2315 13.2368 10.7164 13.654 10.1344 13.9319C10.0087 13.992 9.87927 14.0457 9.74653 14.0885C9.4793 14.1746 9.17142 14.1826 9.1939 13.726C9.20434 13.5139 9.3553 13.3448 9.49066 13.1956C9.60849 13.0655 9.72245 12.932 9.83323 12.7959C10.3392 12.1736 10.7838 11.5013 11.2013 10.8173C11.6077 10.1514 11.9873 9.46881 12.3415 8.77383C12.5877 8.29068 12.8314 7.80131 13.0281 7.29541C13.206 6.83742 13.4795 6.08768 14.0704 6.04516C14.7472 5.9965 15.1633 6.72043 15.1588 7.31595C15.1556 7.74567 15.0048 8.16096 14.8328 8.54932Z" fill="#67D5E8"/>
<path d="M5.23874 17.4526C5.32693 17.2506 5.52033 17.1052 5.68688 16.9704C6.37378 16.4143 7.02828 15.8187 7.71994 15.2683C7.88624 15.1359 8.07665 15.0209 8.29824 15.0276C8.48374 15.0333 8.59445 15.1585 8.56091 15.3455C8.5281 15.5288 8.41546 15.6941 8.31138 15.8445C7.87738 16.4715 7.24161 16.9362 6.59663 17.3263C6.41242 17.4377 6.22493 17.5437 6.03574 17.6463C5.3773 18.0033 5.09333 17.7859 5.23874 17.4526Z" fill="#CEFFFF"/>
<path d="M19.4991 10.2402C18.2093 12.0044 16.7491 13.6442 15.2145 15.1979C13.4019 17.0331 11.4681 18.751 9.43275 20.3357C9.06656 20.6208 8.69728 20.9023 8.32434 21.1789C9.19331 21.507 9.45302 21.429 10.2016 21.0321C11.2906 20.4548 12.3322 19.7948 13.3288 19.0688C13.9113 18.6445 14.479 18.2006 15.0395 17.7479C15.5649 17.3235 16.0704 16.8346 16.682 16.5346C17.4407 16.1625 17.7943 16.4633 17.6769 16.8737C17.6101 17.1067 17.4657 17.317 17.3202 17.5071C17.0264 17.891 16.6707 18.2296 16.3297 18.5715C15.9875 18.9146 15.6351 19.2473 15.267 19.5627C14.4165 20.2914 13.4879 20.9216 12.5026 21.4513C12.6031 21.4319 12.7034 21.4115 12.8034 21.3891C13.959 21.1308 15.0755 20.6938 16.1022 20.1043C17.1426 19.5069 18.0981 18.7458 18.8545 17.8103C19.5966 16.8923 20.1173 15.7986 20.29 14.6267C20.5103 13.1316 20.1322 11.596 19.4991 10.2402ZM19.7013 14.1489C19.4632 14.8038 19.0156 15.3749 18.5301 15.8665C18.3055 16.094 17.9379 16.1243 17.7554 15.8571C17.5449 15.5487 17.6714 15.2075 17.8343 14.9115C18.0712 14.481 18.2868 14.0382 18.5137 13.6023C18.6123 13.4127 18.7107 13.2227 18.8149 13.0362C18.9128 12.861 19.034 12.7008 19.2406 12.6477C19.5715 12.5623 19.8116 12.8324 19.8573 13.1366C19.9071 13.4695 19.8146 13.8375 19.7013 14.1489Z" fill="#67D5E8"/>
<path d="M19.666 13.6236C19.5564 14.2439 19.2293 14.7942 18.8327 15.2743C18.726 15.4034 18.6144 15.5284 18.5 15.6507C18.2946 15.8703 17.8455 15.9919 17.8122 15.5228C17.7988 15.3332 17.8936 15.1589 17.9819 14.9985C18.3326 14.3613 18.6312 13.6952 18.9953 13.0653C19.0936 12.8952 19.2905 12.7253 19.4961 12.8362C19.7601 12.9787 19.7087 13.3816 19.666 13.6236Z" fill="#CEFFFF"/>
<path d="M1.0427 23.1031C1.00736 23.0375 0.978648 22.9692 0.955011 22.899C0.892986 23.5683 1.10599 23.9702 1.47047 24.0979C1.87059 24.238 2.33726 24.1556 2.75309 24.042C3.49697 23.8387 4.19873 23.4896 4.87023 23.1168C7.27654 21.781 8.83055 20.5214 10.8923 18.7927C12.7595 17.2271 14.537 15.5503 16.1946 13.7638C17.6597 12.1847 19.0031 10.5141 20.2124 8.73124C20.8146 7.84341 21.3919 6.93608 21.9053 5.9936C22.263 5.33692 22.5984 4.65981 22.8344 3.94871C22.979 3.51324 23.1058 3.04813 23.0567 2.58725C23.0434 2.46246 22.999 2.31536 22.9275 2.19948C22.8704 2.10699 22.789 2.03737 22.6631 1.97787C22.5636 1.93079 22.3988 1.90423 22.2606 1.9025C22.0576 1.9 21.8888 1.92777 21.6917 1.9744C21.4809 2.02427 21.2744 2.0906 21.0716 2.16775C21.3519 2.12684 21.6322 2.10986 21.903 2.13686C22.4163 2.188 22.596 2.61841 22.5788 3.08389C22.5516 3.81287 22.2161 4.54146 21.9064 5.18673C21.4306 6.17811 20.843 7.11587 20.2278 8.02562C18.5276 10.5403 16.5293 12.8597 14.4167 15.0347C12.0675 17.453 9.52433 19.7429 6.73848 21.6498C5.99673 22.1575 5.22946 22.6329 4.42413 23.0335C3.80432 23.3417 3.13702 23.6204 2.44356 23.6991C1.89036 23.762 1.32422 23.6259 1.0427 23.1031Z" fill="#EF6200"/>
<path d="M2.639 22.1143C3.03612 22.6867 4.09082 22.278 4.57462 22.1014C5.93952 21.6029 7.19128 20.7624 8.35765 19.9114C9.70017 18.9318 10.9467 17.8269 12.1234 16.6548C13.3442 15.4386 14.4832 14.1421 15.5774 12.8116C16.6597 11.4955 17.7377 10.1545 18.6989 8.74656C19.1921 8.02419 19.6429 7.27273 20.0326 6.4895C20.3201 5.91175 20.6291 5.30214 20.7857 4.67234C20.8641 4.35689 20.9088 3.96752 20.7086 3.68707C20.527 3.43266 20.1721 3.43288 19.8957 3.47228C19.3006 3.5571 18.7274 3.87735 18.2178 4.17884C17.5824 4.55475 16.9888 5.00103 16.418 5.46787C16.2889 5.57341 16.1635 5.68288 16.0377 5.79208C16.073 5.8129 16.1086 5.83331 16.1434 5.85485C16.462 5.60734 16.7839 5.36419 17.1128 5.13067C17.6406 4.756 18.1861 4.39174 18.772 4.11317C19.086 3.9639 19.4492 3.80406 19.8055 3.82065C20.0387 3.83149 20.2376 3.94447 20.3229 4.16822C20.42 4.42295 20.3685 4.72456 20.3072 4.98108C20.2082 5.39511 20.0386 5.7927 19.8561 6.17594C19.6134 6.68575 19.3332 7.17752 19.0363 7.65748C18.3392 8.78428 17.5688 9.86974 16.7721 10.9278C15.8544 12.1465 14.8851 13.3268 13.8621 14.4585C12.7719 15.6648 11.6202 16.8171 10.3975 17.8894C9.18123 18.9561 7.89318 19.9463 6.52234 20.8068C6.00535 21.1313 5.47856 21.446 4.9238 21.7022C4.56269 21.8688 4.18351 22.0233 3.78931 22.0896C3.53413 22.1325 3.23143 22.1502 3.00684 21.9966C2.78357 21.8439 2.72484 21.5701 2.74011 21.3144C2.76733 20.8602 2.95561 20.4177 3.14579 20.0109C3.46577 19.3265 3.86529 18.6798 4.28113 18.0497C4.23603 17.9765 4.19329 17.9021 4.15032 17.8278C4.11426 17.8816 4.07842 17.9352 4.0432 17.9874C3.54282 18.729 3.09402 19.5197 2.77114 20.3556C2.58101 20.8479 2.29818 21.6229 2.639 22.1143Z" fill="#FACB1A"/>
<path d="M11.9157 21.1813C11.6117 21.3378 11.3013 21.4806 10.988 21.6172C11.7863 21.5802 12.3202 21.3663 12.7113 21.1456C13.6687 20.6053 14.5664 19.9639 15.3874 19.2318C15.7143 18.9403 16.0285 18.6351 16.336 18.3232C16.6837 17.9706 17.0543 17.6252 17.3248 17.2076C17.4648 16.9912 17.5217 16.8021 17.4885 16.6797C17.3463 16.8625 17.1835 17.0324 17.0325 17.1979C16.752 17.5055 16.4518 17.7948 16.1493 18.0805C15.5003 18.6934 14.8215 19.2712 14.1038 19.8024C13.4107 20.3153 12.6825 20.7866 11.9157 21.1813Z" fill="#F3AF79"/>
<path d="M5.15604 13.7262C5.36766 13.5432 5.53957 13.3125 5.7006 13.0856C5.93761 12.7517 6.15007 12.4008 6.38008 12.0619C6.59831 11.7405 6.82386 11.424 7.05448 11.1113C7.4996 10.5079 7.96397 9.91916 8.42121 9.325C8.66535 9.00765 8.90754 8.68864 9.14507 8.36626C9.35258 8.0847 9.57172 7.80492 9.73485 7.49425C9.7699 7.42747 9.79915 7.36458 9.82138 7.30664C9.6011 7.55192 9.36842 7.78789 9.13019 8.0226C8.52573 8.61827 7.98592 9.26412 7.4547 9.92515C6.90786 10.6055 6.40119 11.309 5.97165 12.0697C5.74043 12.4791 5.5225 12.8954 5.31724 13.3184C5.24668 13.4639 5.17302 13.6104 5.1123 13.7606C5.12666 13.7502 5.14126 13.739 5.15604 13.7262Z" fill="#F3AF79"/>
<path d="M2.98414 20.9049C2.91303 21.1516 2.8613 21.4307 2.9531 21.6658C3.0274 21.8561 3.21622 21.937 3.42645 21.9463C3.75165 21.9607 4.08002 21.8566 4.38108 21.745C4.81994 21.5825 5.23884 21.3663 5.64473 21.1346C6.30733 20.7564 6.94923 20.3405 7.57364 19.9024C8.86879 18.9934 10.0866 17.9766 11.2395 16.8937C12.3766 15.8256 13.4515 14.6916 14.4711 13.511C15.4177 12.415 16.3172 11.2781 17.168 10.106C17.8955 9.10373 18.6106 8.08022 19.2262 7.00438C19.4743 6.57066 19.7085 6.12579 19.8985 5.66315C20.0317 5.33889 20.1593 4.99372 20.1949 4.64248C20.2244 4.35241 20.1465 4.15133 19.974 4.05859C20.3374 5.15284 18.6386 7.67901 18.2178 8.29065C17.1982 9.77244 16.101 11.2078 14.9458 12.5855C13.8493 13.8932 12.7416 15.1701 11.5074 16.3517C9.77177 18.0134 7.85983 19.5522 5.80731 20.8073C5.20058 21.1782 4.47774 21.6197 3.74495 21.6366C3.23986 21.6483 3.0424 21.3132 2.98414 20.9049Z" fill="#FF564D"/>
<path d="M6.81414 18.8337C7.20552 18.5001 7.59368 18.1629 7.98006 17.8238C7.69994 17.9973 7.40966 18.1538 7.10421 18.2803C6.47292 18.5419 5.72407 18.6988 5.17208 18.2017C4.75486 17.8259 4.5027 17.2132 4.27725 16.7121C3.97081 16.0311 3.75902 15.3069 3.62034 14.5741C3.48083 13.8364 3.3769 13.0925 3.37296 12.3407C3.37158 12.0758 3.39744 11.8153 3.43608 11.5566C3.19548 12.571 3.15152 13.63 3.31703 14.6664C3.6169 16.5446 4.53389 18.2791 5.89 19.607C6.20361 19.3561 6.50861 19.094 6.81414 18.8337Z" fill="#65B0B9"/>
<path d="M9.43275 20.3356C9.06656 20.6207 8.69728 20.9023 8.32434 21.1788C9.19331 21.5069 9.45302 21.4289 10.2016 21.032C10.5007 20.8735 10.7958 20.7082 11.0877 20.5375C10.5847 20.4852 10.0871 20.374 9.62474 20.1836C9.56051 20.2341 9.49715 20.2855 9.43275 20.3356Z" fill="#65B0B9"/>
<path d="M19.0662 17.2353C18.1756 18.1981 17.0905 19.0123 15.921 19.6033C15.4672 19.8327 14.994 20.0209 14.5088 20.1698C13.8735 20.647 13.2027 21.0751 12.5026 21.4516C12.6031 21.4322 12.7034 21.4118 12.8034 21.3894C13.959 21.1311 15.0755 20.6941 16.1022 20.1046C17.1426 19.5072 18.0981 18.7461 18.8545 17.8105C19.2241 17.3534 19.5387 16.8526 19.7828 16.3203C19.5706 16.6408 19.333 16.9469 19.0662 17.2353Z" fill="#65B0B9"/>
<path d="M5.01465 8.33936C5.08754 8.27441 5.16045 8.20935 5.23461 8.14569C5.84936 7.61724 6.48822 7.1268 7.18738 6.71439C8.47374 5.95553 9.92982 5.58947 11.4134 5.50866C12.7623 5.4352 14.185 5.62338 15.3716 6.30258C15.9503 6.63385 16.5026 7.0731 17.0122 7.50019C17.0824 7.55912 17.1512 7.61981 17.219 7.68142C17.3054 7.55764 17.3907 7.43324 17.4734 7.30736C17.3368 7.16705 17.1975 7.02946 17.0524 6.89796C16.4213 6.32555 15.6977 5.8547 14.8967 5.55754C14.0888 5.25779 13.2319 5.12965 12.3737 5.09604C11.4819 5.06102 10.5944 5.1124 9.72498 5.32323C8.92093 5.51819 8.14834 5.82997 7.43342 6.2465C6.50508 6.78742 5.68232 7.50108 5.01465 8.33936Z" fill="#A6F4FF"/>
<path d="M14.7583 6.56654C14.7337 6.53337 14.7058 6.50243 14.6767 6.47266C14.8355 7.21572 14.4833 8.00304 14.1452 8.66806C13.702 9.54012 13.1316 10.3548 12.5189 11.115C11.9116 11.8686 11.2489 12.6144 10.5119 13.244C10.2011 13.5094 9.8638 13.7389 9.51514 13.9516C9.65263 13.9667 9.85768 13.8733 10.0087 13.8034C10.2671 13.684 10.5106 13.5337 10.7427 13.3695C11.2884 12.9834 11.7767 12.5162 12.2303 12.0269C13.1404 11.045 13.9678 9.93165 14.5613 8.72781C14.8765 8.08838 15.2383 7.21369 14.7583 6.56654Z" fill="#ED7490"/>
<path d="M18.4999 15.6508C18.6143 15.5285 18.7259 15.4035 18.8326 15.2744C19.2292 14.7943 19.5563 14.244 19.6659 13.6237C19.7087 13.3817 19.7601 12.9788 19.4961 12.8363C19.4886 12.8323 19.4813 12.8294 19.4739 12.8262C19.4366 13.5972 19.0876 14.3913 18.6801 14.9967C18.4756 15.3005 18.2332 15.5702 17.9675 15.816C18.1258 15.8956 18.3651 15.795 18.4999 15.6508Z" fill="#A9CDDD"/>
<path d="M6.03565 17.6472C6.22487 17.5446 6.41233 17.4386 6.59655 17.3272C7.24155 16.937 7.87729 16.4723 8.31129 15.8453C8.41537 15.695 8.52801 15.5296 8.56083 15.3464C8.5733 15.2767 8.56571 15.2156 8.5417 15.166C8.18737 15.775 7.69085 16.2851 7.10094 16.7C6.75134 16.9459 6.37028 17.147 5.98499 17.3307C5.75015 17.4426 5.47624 17.5568 5.20314 17.5945C5.18891 17.8388 5.47673 17.9502 6.03565 17.6472Z" fill="#A9CDDD"/>
</svg>
