<svg width="24" height="25" viewBox="0 0 24 25" fill="none" xmlns="http://www.w3.org/2000/svg">
<path d="M19.733 21.0508H13.356C12.942 21.0508 12.606 20.7148 12.606 20.3008C12.606 19.8868 12.942 19.5508 13.356 19.5508H19.733C20.147 19.5508 20.483 19.8868 20.483 20.3008C20.483 20.7148 20.147 21.0508 19.733 21.0508Z" fill="#999999"/>
<path fill-rule="evenodd" clip-rule="evenodd" d="M16.058 11.9955L17.2852 10.3606C17.8932 9.55061 18.1492 8.55262 18.0062 7.54961C17.8632 6.54661 17.3392 5.66061 16.5292 5.05261C14.8582 3.79861 12.4762 4.13561 11.2212 5.80861L4.46919 14.8036C2.45719 17.4866 4.24719 20.6826 4.32419 20.8176C4.42819 20.9986 4.60319 21.1276 4.80719 21.1746C4.86519 21.1886 5.42519 21.3126 6.20619 21.3126C7.46919 21.3126 9.30719 20.9896 10.5332 19.3556L15.9018 12.2036C15.933 12.1742 15.9621 12.1418 15.9887 12.1064C16.0154 12.0709 16.0385 12.0338 16.058 11.9955ZM5.47719 19.7656C6.25819 19.8606 8.22819 19.9276 9.33319 18.4546L14.3293 11.7988L10.6646 9.04734L5.66819 15.7036C4.54119 17.2076 5.16119 19.0486 5.47719 19.7656ZM11.5648 7.84821L15.23 10.5989L16.0852 9.45961C16.8442 8.44962 16.6392 7.01061 15.6292 6.25161C14.6182 5.49461 13.1782 5.69962 12.4202 6.70861L11.5648 7.84821Z" fill="black"/>
</svg>
