<svg width="22" height="23" viewBox="0 0 22 23" fill="none" xmlns="http://www.w3.org/2000/svg">
<g clip-path="url(#clip0_339_28912)">
<path fill-rule="evenodd" clip-rule="evenodd" d="M4.54265 22.0703H14.3434V19.9498C15.4996 20.1267 17.9558 19.4365 17.8689 18.7886C17.8689 18.7886 17.7751 17.5795 17.5878 15.161C18.7128 14.9666 19.3555 15.1144 19.9438 14.9511C20.6873 14.7447 20.7741 14.2098 20.478 13.7276C19.8812 12.7559 18.7079 11.1846 18.7277 9.77081C18.7531 7.94283 18.2456 6.13879 17.2558 4.58456C14.9953 0.929513 10.2532 0.142283 6.43796 1.66076C3.3024 2.9087 0.809398 5.67782 1.4709 9.8888C1.75325 11.6863 2.6861 13.8366 4.58102 16.3973L4.54265 22.0703V22.0703Z" fill="#FFD2A7"/>
<path fill-rule="evenodd" clip-rule="evenodd" d="M10.0776 22.0704H14.3434V19.9499C15.4997 20.1268 17.9558 19.4366 17.8689 18.7887C17.8689 18.7887 17.7752 17.5795 17.5878 15.161C18.7129 14.9667 19.3555 15.1145 19.9439 14.9511C20.6873 14.7448 20.7741 14.2098 20.4781 13.7276C19.8813 12.756 18.708 11.1847 18.7277 9.77086C18.7532 7.94288 18.2456 6.13884 17.2559 4.58462C15.6824 2.04039 12.9064 0.886168 10.0776 0.931457V22.0703V22.0704Z" fill="#FFC186"/>
<path fill-rule="evenodd" clip-rule="evenodd" d="M14.2872 5.63763C15.5308 5.88848 16.4672 6.98719 16.4672 8.3047C16.4672 9.8074 15.249 11.0256 13.7463 11.0256C13.2599 11.0256 12.8034 10.8979 12.4083 10.6743C12.1091 11.6302 11.2966 12.3591 10.2936 12.5385C10.0215 12.5898 9.74625 12.5902 9.48096 12.5428C9.21387 12.495 8.95567 12.3987 8.71973 12.2571C8.59791 12.1843 8.44009 12.2239 8.36725 12.3457C8.29442 12.4675 8.33408 12.6253 8.45586 12.6982C8.74465 12.8715 9.06159 12.9895 9.3903 13.0483C9.59796 13.0855 9.80989 13.099 10.0219 13.0879C9.70852 13.5745 9.24437 13.9546 8.69545 14.1622C8.686 15.3597 8.02664 16.5067 6.89514 17.0894C7.19889 16.1309 7.245 15.1834 7.03363 14.2466C5.86987 13.9379 5.01213 12.8775 5.01213 11.6166C3.8976 11.6166 2.99414 10.7131 2.99414 9.59857C2.99414 8.86381 3.38688 8.22095 3.97383 7.86805C4.0834 8.08659 4.23284 8.27986 4.41228 8.43911C4.60298 8.60836 4.82826 8.73937 5.07611 8.82166C5.21068 8.86613 5.35588 8.79312 5.40039 8.6585C5.44491 8.52388 5.37186 8.37869 5.23724 8.33422C5.05698 8.27436 4.8925 8.17854 4.75264 8.05436C4.61359 7.93096 4.49929 7.77966 4.41851 7.60822L4.41843 7.608C4.25441 7.25665 4.16276 6.86477 4.16276 6.45141C4.16276 4.93883 5.38896 3.71267 6.9015 3.71267C7.4781 3.71267 8.01293 3.89099 8.45427 4.1953C9.26908 2.24838 13.5172 2.1841 14.2047 5.10683C13.941 5.07469 13.6774 5.06812 13.4173 5.0863C13.0991 5.10851 12.7845 5.16755 12.4798 5.26182C12.3441 5.30355 12.268 5.44736 12.3096 5.58306C12.3513 5.71875 12.4952 5.79494 12.6309 5.75326C12.8968 5.67097 13.1721 5.61941 13.4515 5.5999C13.7295 5.58048 14.0099 5.5926 14.2871 5.63754L14.2872 5.63763Z" fill="#FDCB02"/>
<path fill-rule="evenodd" clip-rule="evenodd" d="M14.2875 5.63721C15.531 5.88807 16.4674 6.98678 16.4674 8.30429C16.4674 9.80699 15.2493 11.0252 13.7465 11.0252C13.2602 11.0252 12.8037 10.8975 12.4086 10.6739C12.1093 11.6298 11.2968 12.3587 10.2939 12.5381C10.2219 12.5517 10.1497 12.5617 10.0776 12.5682V2.93671C11.6374 2.51708 13.739 3.12548 14.205 5.10646C13.9413 5.07432 13.6776 5.06775 13.4175 5.08593C13.0994 5.10814 12.7848 5.16718 12.4801 5.26145C12.3444 5.30318 12.2682 5.44699 12.3099 5.58269C12.3515 5.71838 12.4954 5.79457 12.6311 5.75289C12.897 5.6706 13.1724 5.61904 13.4517 5.59953C13.7297 5.58011 14.0101 5.59223 14.2874 5.63717L14.2875 5.63721Z" fill="#FDAE02"/>
<path fill-rule="evenodd" clip-rule="evenodd" d="M10.0774 7.19964C10.3709 6.61277 10.6643 6.31934 11.2512 6.31934C11.8991 6.31934 12.425 6.84519 12.425 7.49307C12.425 8.66681 11.2512 9.84058 10.0774 11.0143C8.90372 9.84058 7.72998 8.66681 7.72998 7.49307C7.72998 6.84519 8.25583 6.31934 8.90372 6.31934C9.49058 6.31934 9.78406 6.61277 10.0774 7.19964Z" fill="#FF4B00"/>
<path fill-rule="evenodd" clip-rule="evenodd" d="M10.0776 7.19964C10.3711 6.61277 10.6645 6.31934 11.2514 6.31934C11.8993 6.31934 12.4251 6.84519 12.4251 7.49307C12.4251 8.66681 11.2514 9.84058 10.0776 11.0143V7.19964Z" fill="#F00000"/>
</g>
<defs>
<clipPath id="clip0_339_28912">
<rect width="22" height="22" fill="white" transform="translate(0 0.5)"/>
</clipPath>
</defs>
</svg>
