<svg width="22" height="23" viewBox="0 0 22 23" fill="none" xmlns="http://www.w3.org/2000/svg">
<g clip-path="url(#clip0_339_28809)">
<path fill-rule="evenodd" clip-rule="evenodd" d="M10.6174 3.32916C10.8065 3.34028 10.9508 3.50262 10.9397 3.69173C10.9286 3.88083 10.7662 4.02512 10.5771 4.01399C10.4135 4.00437 10.2427 3.99951 10.0634 3.99951V3.99818C9.89925 3.99818 9.72828 4.00346 9.54957 4.01399C9.36047 4.02512 9.19813 3.88083 9.187 3.69173C9.17588 3.50262 9.32016 3.34028 9.50927 3.32916C9.68802 3.31863 9.87231 3.31334 10.0634 3.31334V3.31201C10.2392 3.31201 10.4236 3.31773 10.6174 3.32916ZM8.20328 3.50146C8.38869 3.46365 8.56963 3.58327 8.60744 3.76868C8.64525 3.95409 8.52563 4.13504 8.34022 4.17285C8.17952 4.20589 8.01327 4.24546 7.84054 4.29174C7.66419 4.33901 7.50022 4.38782 7.34773 4.43852C7.16825 4.49786 6.97467 4.40045 6.91538 4.22097C6.85608 4.04149 6.95345 3.84792 7.13293 3.78862C7.32023 3.7264 7.49666 3.67312 7.66333 3.62843C7.83366 3.5828 8.01327 3.54056 8.20332 3.5015L8.20328 3.50146ZM5.91528 4.29282C6.08436 4.2083 6.28997 4.27683 6.37448 4.44587C6.45905 4.61495 6.39047 4.82056 6.22143 4.90512C6.06739 4.98234 5.91674 5.06346 5.76858 5.14901C5.62098 5.23422 5.47558 5.32402 5.33155 5.41894C5.17359 5.52275 4.96137 5.47888 4.85756 5.32093C4.75375 5.16298 4.79762 4.95075 4.95557 4.84694C5.11052 4.74485 5.26752 4.64791 5.4275 4.55553C5.58691 4.46349 5.74916 4.37613 5.91524 4.29286L5.91528 4.29282ZM3.90894 5.64865C4.05056 5.52258 4.2676 5.53521 4.39367 5.67684C4.51974 5.81846 4.50711 6.0355 4.36548 6.16157C4.23971 6.27329 4.11532 6.39068 3.99152 6.51452C3.86773 6.63831 3.75034 6.7627 3.63858 6.88847C3.51251 7.0301 3.29547 7.04273 3.15385 6.91666C3.01222 6.79059 2.99959 6.57355 3.12566 6.43193C3.25177 6.29 3.3781 6.15577 3.50542 6.02845C3.63273 5.90114 3.76697 5.77477 3.90889 5.6487L3.90894 5.64865ZM2.32391 7.47856C2.42772 7.32061 2.63994 7.27674 2.79789 7.38055C2.95585 7.48436 2.99972 7.69659 2.89591 7.85454C2.80516 7.99225 2.71539 8.13805 2.62598 8.29291C2.53703 8.44695 2.45595 8.59713 2.38213 8.74438C2.29757 8.91346 2.09196 8.982 1.92288 8.89743C1.7538 8.81287 1.68526 8.60727 1.76982 8.43823C1.85645 8.26536 1.94385 8.10268 2.03245 7.94916C2.12066 7.7964 2.21764 7.63987 2.32391 7.47856ZM1.26563 9.65588C1.32497 9.47639 1.51854 9.37903 1.69798 9.43832C1.87746 9.49762 1.97483 9.69124 1.91553 9.87068C1.86487 10.0232 1.81606 10.1871 1.76879 10.3635C1.72252 10.5363 1.68294 10.7025 1.6499 10.8632C1.61209 11.0486 1.4311 11.1682 1.24573 11.1304C1.06032 11.0926 0.940699 10.9116 0.978512 10.7263C1.01757 10.5363 1.05981 10.3567 1.10544 10.1863C1.15009 10.0196 1.20341 9.84318 1.26563 9.65588ZM0.806207 12.0323C0.817336 11.8432 0.979672 11.6989 1.16878 11.71C1.35788 11.7211 1.50217 11.8835 1.49104 12.0726C1.48142 12.2361 1.47656 12.407 1.47656 12.5863H1.47523C1.47523 12.7505 1.48052 12.9214 1.49104 13.1001C1.50217 13.2892 1.35788 13.4516 1.16878 13.4627C0.979672 13.4738 0.817336 13.3295 0.806207 13.1404C0.795637 12.9617 0.790394 12.7774 0.790394 12.5863H0.789062C0.789062 12.4105 0.794777 12.2262 0.806207 12.0323V12.0323ZM0.978512 14.4464C0.940699 14.261 1.06032 14.08 1.24573 14.0422C1.43114 14.0044 1.61209 14.124 1.6499 14.3094C1.68294 14.4701 1.72252 14.6364 1.76879 14.8091C1.81606 14.9855 1.86487 15.1494 1.91553 15.302C1.97483 15.4814 1.87746 15.675 1.69798 15.7343C1.5185 15.7936 1.32493 15.6962 1.26563 15.5168C1.20341 15.3295 1.15013 15.153 1.10544 14.9863C1.05981 14.816 1.01757 14.6364 0.978512 14.4464ZM1.76987 16.7344C1.6853 16.5653 1.75388 16.3597 1.92292 16.2752C2.09196 16.1906 2.29761 16.2592 2.38217 16.4282C2.45939 16.5823 2.54051 16.7329 2.62602 16.8811C2.71123 17.0287 2.80103 17.174 2.89595 17.3181C2.99976 17.4761 2.95589 17.6883 2.79794 17.7921C2.63998 17.8959 2.42776 17.852 2.32395 17.6941C2.22186 17.5391 2.12492 17.3821 2.03254 17.2222C1.9405 17.0627 1.85314 16.9005 1.76987 16.7344V16.7344ZM3.1257 18.7407C2.99963 18.5991 3.01227 18.3821 3.15389 18.256C3.29552 18.1299 3.51255 18.1425 3.63862 18.2842C3.75034 18.4099 3.86777 18.5343 3.99157 18.6581C4.11536 18.7819 4.23975 18.8993 4.36552 19.0111C4.50715 19.1371 4.51978 19.3542 4.39371 19.4958C4.26764 19.6374 4.05061 19.6501 3.90898 19.524C3.76705 19.3979 3.63282 19.2716 3.5055 19.1442C3.37819 19.0169 3.25182 18.8827 3.12575 18.7408L3.1257 18.7407ZM4.95561 20.3257C4.79766 20.2219 4.75379 20.0097 4.8576 19.8518C4.96141 19.6938 5.17364 19.6499 5.33159 19.7537C5.47566 19.8486 5.62103 19.9385 5.76863 20.0237L5.76961 20.0243L5.76996 20.0237C5.92396 20.1126 6.07418 20.1937 6.22143 20.2675C6.39051 20.352 6.45905 20.5577 6.37448 20.7267C6.28992 20.8958 6.08432 20.9643 5.91528 20.8798C5.74246 20.7932 5.57973 20.7058 5.42621 20.6171L5.42655 20.6165C5.26692 20.5243 5.11026 20.4276 4.95561 20.3257ZM7.13293 21.384C6.95349 21.3247 6.85608 21.1311 6.91538 20.9517C6.97467 20.7722 7.16829 20.6748 7.34773 20.7341C7.50027 20.7848 7.66415 20.8336 7.84054 20.8809C8.01327 20.9271 8.17947 20.9667 8.34022 20.9998C8.52563 21.0376 8.64525 21.2186 8.60744 21.4039C8.56963 21.5893 8.38865 21.709 8.20328 21.6711C8.01327 21.6321 7.83362 21.5898 7.66329 21.5442C7.49666 21.4996 7.32023 21.4462 7.13293 21.384ZM9.50931 21.8434C9.32021 21.8323 9.17592 21.67 9.18705 21.4809C9.19818 21.2918 9.36051 21.1475 9.54962 21.1586C9.7132 21.1682 9.88409 21.1731 10.0634 21.1731C10.2427 21.1731 10.4136 21.1683 10.5772 21.1586C10.7663 21.1475 10.9286 21.2918 10.9397 21.4809C10.9509 21.67 10.8066 21.8323 10.6175 21.8434C10.4236 21.8549 10.2393 21.8606 10.0634 21.8606C9.88752 21.8606 9.70323 21.8549 9.50931 21.8434ZM11.9234 21.6712C11.738 21.709 11.5571 21.5894 11.5193 21.404C11.4815 21.2186 11.6011 21.0376 11.7865 20.9998C11.9472 20.9667 12.1134 20.9272 12.2862 20.8809C12.4626 20.8336 12.6265 20.7848 12.779 20.7342C12.9585 20.6749 13.1521 20.7722 13.2114 20.9517C13.2707 21.1312 13.1733 21.3248 12.9938 21.3841C12.8065 21.4463 12.63 21.4996 12.4634 21.5443C12.2931 21.5899 12.1134 21.6321 11.9234 21.6712ZM14.2114 20.8798C14.0423 20.9643 13.8367 20.8958 13.7522 20.7267C13.6677 20.5576 13.7362 20.352 13.9053 20.2675C14.0593 20.1903 14.2099 20.1092 14.3581 20.0237C14.5057 19.9385 14.6511 19.8487 14.7952 19.7537C14.9531 19.6499 15.1653 19.6938 15.2691 19.8518C15.373 20.0097 15.3291 20.2219 15.1711 20.3257C15.0162 20.4278 14.8592 20.5248 14.6992 20.6172C14.5398 20.7092 14.3775 20.7966 14.2115 20.8798L14.2114 20.8798ZM16.2178 19.5239C16.0761 19.65 15.8591 19.6374 15.733 19.4958C15.607 19.3541 15.6196 19.1371 15.7612 19.011C15.887 18.8993 16.0113 18.7819 16.1352 18.6581C16.259 18.5343 16.3764 18.4099 16.4881 18.2841C16.6142 18.1425 16.8312 18.1299 16.9729 18.2559C17.1145 18.382 17.1271 18.599 17.001 18.7407C16.8749 18.8826 16.7486 19.0168 16.6213 19.1441C16.494 19.2715 16.3597 19.3978 16.2178 19.5239L16.2178 19.5239ZM17.8028 17.694C17.699 17.852 17.4868 17.8959 17.3288 17.7921C17.1709 17.6882 17.127 17.476 17.2308 17.3181C17.3257 17.174 17.4155 17.0286 17.5007 16.881L17.5013 16.88L17.5007 16.8797C17.5897 16.7257 17.6708 16.5755 17.7446 16.4282C17.8291 16.2591 18.0347 16.1906 18.2038 16.2752C18.3729 16.3597 18.4414 16.5653 18.3569 16.7344C18.2703 16.9072 18.1829 17.0699 18.0942 17.2234L18.0936 17.2231C18.0014 17.3827 17.9047 17.5394 17.8028 17.694ZM18.8611 15.5167C18.8018 15.6962 18.6082 15.7936 18.4288 15.7343C18.2493 15.675 18.1519 15.4814 18.2112 15.3019C18.2619 15.1494 18.3107 14.9855 18.358 14.8091C18.4042 14.6363 18.4438 14.4701 18.4768 14.3094C18.5147 14.124 18.6956 14.0044 18.881 14.0422C19.0664 14.08 19.186 14.261 19.1482 14.4464C19.1092 14.6364 19.0669 14.816 19.0213 14.9863C18.9767 15.153 18.9233 15.3294 18.8611 15.5167ZM19.3205 13.1404C19.3094 13.3295 19.147 13.4738 18.9579 13.4626C18.7688 13.4515 18.6245 13.2892 18.6357 13.1001C18.6453 12.9365 18.6501 12.7656 18.6501 12.5863C18.6501 12.407 18.6453 12.2361 18.6357 12.0725C18.6245 11.8834 18.7688 11.7211 18.9579 11.71C19.147 11.6988 19.3094 11.8431 19.3205 12.0322C19.3319 12.2261 19.3376 12.4104 19.3376 12.5863C19.3376 12.7621 19.3319 12.9465 19.3205 13.1403V13.1404ZM19.1482 10.7262C19.186 10.9116 19.0664 11.0926 18.881 11.1304C18.6956 11.1682 18.5147 11.0486 18.4768 10.8632C18.4438 10.7025 18.4042 10.5363 18.358 10.3635C18.3107 10.1871 18.2619 10.0232 18.2112 9.87068C18.1519 9.6912 18.2493 9.49762 18.4288 9.43832C18.6082 9.37903 18.8018 9.47639 18.8611 9.65588C18.9233 9.84318 18.9767 10.0196 19.0213 10.1863C19.0669 10.3566 19.1092 10.5362 19.1483 10.7263L19.1482 10.7262ZM18.3568 8.43823C18.4414 8.60731 18.3729 8.81291 18.2038 8.89743C18.0347 8.98195 17.8291 8.91342 17.7445 8.74438C17.6673 8.59034 17.5862 8.43969 17.5007 8.29153C17.4155 8.14393 17.3257 7.99857 17.2308 7.8545C17.1269 7.69654 17.1708 7.48432 17.3288 7.38051C17.4867 7.27669 17.6989 7.32057 17.8028 7.47852C17.9049 7.63346 18.0018 7.79047 18.0942 7.95045C18.1862 8.10986 18.2736 8.27211 18.3568 8.43818V8.43823ZM17.001 6.43189C17.1271 6.57351 17.1144 6.79055 16.9728 6.91662C16.8312 7.04269 16.6142 7.03005 16.4881 6.88843C16.3763 6.7627 16.259 6.63831 16.1351 6.51447C16.0113 6.39068 15.887 6.27329 15.7612 6.16153C15.6196 6.03546 15.6069 5.81842 15.733 5.6768C15.8591 5.53517 16.0761 5.52254 16.2177 5.64861C16.3597 5.77472 16.4939 5.90105 16.6212 6.02837C16.7485 6.15568 16.8749 6.28992 17.001 6.43184L17.001 6.43189ZM15.1711 4.84686C15.329 4.95067 15.3729 5.16289 15.2691 5.32084C15.1653 5.4788 14.9531 5.52267 14.7951 5.41886C14.6574 5.32815 14.5116 5.23834 14.3567 5.14893C14.3509 5.14553 14.3451 5.14192 14.3395 5.13823C14.1973 5.05663 14.0529 4.97903 13.9053 4.90508C13.7362 4.82052 13.6677 4.61491 13.7522 4.44583C13.8367 4.27675 14.0424 4.20821 14.2114 4.29277C14.3712 4.37287 14.5275 4.45679 14.6811 4.545C14.6876 4.54827 14.6941 4.5517 14.7005 4.55544C14.8533 4.64366 15.0098 4.74059 15.1711 4.84686ZM12.9938 3.78858C13.1733 3.84792 13.2707 4.04149 13.2114 4.22093C13.1521 4.40041 12.9585 4.49778 12.779 4.43848C12.6265 4.38782 12.4626 4.33901 12.2862 4.2917C12.1135 4.24542 11.9472 4.20585 11.7865 4.1728C11.6011 4.13499 11.4815 3.95401 11.5193 3.76864C11.5571 3.58327 11.7381 3.46361 11.9234 3.50142C12.1134 3.54048 12.293 3.58271 12.4634 3.62835C12.63 3.67299 12.8065 3.72636 12.9938 3.78858Z" fill="#B4D2D7"/>
<path fill-rule="evenodd" clip-rule="evenodd" d="M2.73994 22.0897C4.10196 22.0897 5.21279 20.9789 5.21279 19.6169C5.21279 18.2549 4.10196 17.144 2.73994 17.144C1.37792 17.144 0.26709 18.2549 0.26709 19.6169C0.26709 20.9789 1.37796 22.0897 2.73994 22.0897Z" fill="#FDB800"/>
<path fill-rule="evenodd" clip-rule="evenodd" d="M4.0957 17.5488C4.76855 17.9907 5.21293 18.752 5.21293 19.6171C5.21293 20.9828 4.1058 22.09 2.74008 22.09C2.02925 22.09 1.38859 21.7899 0.9375 21.3098C1.3268 21.5655 1.79254 21.7143 2.29312 21.7143C3.65884 21.7143 4.76597 20.6072 4.76597 19.2415C4.76597 18.5866 4.5113 17.9913 4.0957 17.5489V17.5488Z" fill="#F4A40E"/>
<path fill-rule="evenodd" clip-rule="evenodd" d="M2.27214 18.304C2.27214 18.1731 2.37831 18.0669 2.50928 18.0669C2.64025 18.0669 2.74643 18.1731 2.74643 18.304V18.5189C2.81969 18.5323 2.88981 18.5567 2.955 18.5901C3.06229 18.6453 3.1542 18.7242 3.22304 18.8194C3.29978 18.9253 3.27614 19.0734 3.17023 19.1501C3.06431 19.2269 2.91628 19.2032 2.83954 19.0973C2.81286 19.0604 2.77874 19.0306 2.74011 19.0107C2.70329 18.9918 2.6604 18.9811 2.61382 18.9811H2.4517C2.37556 18.9811 2.30617 19.0125 2.25572 19.0629C2.20528 19.1134 2.17395 19.1827 2.17395 19.2589C2.17395 19.335 2.20528 19.4044 2.25572 19.4549C2.30617 19.5053 2.37556 19.5366 2.4517 19.5366H2.56682C2.77388 19.5366 2.96196 19.6212 3.09817 19.7574C3.23434 19.8936 3.3189 20.0817 3.3189 20.2887C3.3189 20.4958 3.23438 20.6839 3.09817 20.8201C3.00265 20.9156 2.88165 20.9857 2.74643 21.0191V21.2436C2.74643 21.3745 2.64025 21.4807 2.50928 21.4807C2.37831 21.4807 2.27214 21.3745 2.27214 21.2436V21.0287C2.19888 21.0153 2.12875 20.991 2.06357 20.9575C1.95627 20.9024 1.86436 20.8234 1.79553 20.7282C1.71879 20.6223 1.74242 20.4742 1.84834 20.3975C1.95425 20.3207 2.10232 20.3444 2.17907 20.4503C2.20575 20.4872 2.23987 20.5171 2.27854 20.5369C2.31536 20.5558 2.3582 20.5664 2.40478 20.5664H2.5669C2.64304 20.5664 2.71244 20.5351 2.76288 20.4847C2.81333 20.4342 2.84465 20.3648 2.84465 20.2887C2.84465 20.2126 2.81333 20.1431 2.76288 20.0927C2.71244 20.0423 2.64304 20.0109 2.5669 20.0109H2.45179C2.24472 20.0109 2.05665 19.9264 1.92044 19.7902C1.78423 19.654 1.69971 19.4659 1.69971 19.2588C1.69971 19.0518 1.78423 18.8637 1.92044 18.7275C2.01596 18.632 2.13696 18.5619 2.27218 18.5286V18.304L2.27214 18.304Z" fill="#F4A40E"/>
<path fill-rule="evenodd" clip-rule="evenodd" d="M2.50273 18.1473C2.50273 18.0163 2.60891 17.9102 2.73988 17.9102C2.87085 17.9102 2.97702 18.0163 2.97702 18.1473V18.3621C3.05029 18.3756 3.12041 18.3999 3.18564 18.4334C3.29293 18.4885 3.38484 18.5675 3.45368 18.6627C3.53042 18.7686 3.50679 18.9167 3.40087 18.9934C3.29495 19.0701 3.14688 19.0465 3.07014 18.9406C3.04345 18.9037 3.00934 18.8738 2.97071 18.854C2.93388 18.8351 2.891 18.8244 2.84442 18.8244H2.6823C2.60616 18.8244 2.53677 18.8557 2.48632 18.9062C2.43588 18.9566 2.40455 19.026 2.40455 19.1022C2.40455 19.1783 2.43588 19.2477 2.48632 19.2981C2.53677 19.3486 2.60616 19.3799 2.6823 19.3799H2.79741C3.00448 19.3799 3.19255 19.4645 3.32872 19.6006C3.46489 19.7368 3.54945 19.9249 3.54945 20.1319C3.54945 20.339 3.46489 20.5271 3.32872 20.6633C3.23325 20.7588 3.1122 20.8289 2.97698 20.8623V21.0868C2.97698 21.2178 2.8708 21.3239 2.73984 21.3239C2.60887 21.3239 2.50269 21.2178 2.50269 21.0868V20.8719C2.42943 20.8585 2.3593 20.8342 2.29412 20.8007C2.18683 20.7456 2.09487 20.6666 2.02604 20.5714C1.9493 20.4655 1.97293 20.3174 2.07885 20.2407C2.18477 20.164 2.33279 20.1876 2.40954 20.2935C2.43622 20.3304 2.47034 20.3603 2.50896 20.3801C2.54579 20.399 2.58867 20.4097 2.63525 20.4097H2.79737C2.87351 20.4097 2.94291 20.3784 2.99335 20.3279C3.0438 20.2775 3.07512 20.2081 3.07512 20.1319C3.07512 20.0558 3.0438 19.9864 2.99335 19.936C2.94291 19.8855 2.87351 19.8542 2.79737 19.8542H2.68226C2.47519 19.8542 2.28712 19.7697 2.15091 19.6335C2.01474 19.4973 1.93018 19.3092 1.93018 19.1021C1.93018 18.895 2.01474 18.707 2.15091 18.5708C2.24638 18.4752 2.36747 18.4052 2.50265 18.3718V18.1473L2.50273 18.1473Z" fill="#FFDA2D"/>
<path fill-rule="evenodd" clip-rule="evenodd" d="M17.8555 8.88281V9.83534C17.8555 10.1305 17.6145 10.3716 17.3193 10.3716H16.939C16.6439 10.3716 16.4028 10.1307 16.4028 9.83534V9.09645L17.8555 8.88281Z" fill="#96A4AF"/>
<path fill-rule="evenodd" clip-rule="evenodd" d="M17.8554 8.88281V9.83534C17.8554 10.1305 17.6144 10.3716 17.3192 10.3716H16.9389C16.7033 10.3716 16.5022 10.2181 16.4307 10.0059C16.5115 10.0549 16.6061 10.0831 16.7071 10.0831H17.0874C17.3826 10.0831 17.6236 9.84196 17.6236 9.54681V8.91693L17.8555 8.88286L17.8554 8.88281Z" fill="#8696A3"/>
<path fill-rule="evenodd" clip-rule="evenodd" d="M17.1295 3.03662C18.5898 3.03662 19.7736 4.22041 19.7736 5.6807C19.7736 6.6472 19.2551 7.49261 18.4811 7.95379C18.3142 8.05322 18.2193 8.22016 18.2193 8.41442V9.05912C18.2193 9.25931 18.056 9.42259 17.8558 9.42259H16.4031C16.2029 9.42259 16.0397 9.25931 16.0397 9.05912V8.41442C16.0397 8.22011 15.9447 8.05322 15.7779 7.95379C15.0039 7.49261 14.4854 6.64724 14.4854 5.6807C14.4854 4.22045 15.6691 3.03662 17.1295 3.03662Z" fill="#E6F8FF"/>
<path fill-rule="evenodd" clip-rule="evenodd" d="M17.1293 3.03662C18.5895 3.03662 19.7734 4.22041 19.7734 5.6807C19.7734 6.52027 19.3821 7.2684 18.7719 7.75274C19.1299 7.30166 19.3437 6.73099 19.3437 6.11039C19.3437 4.65014 18.1599 3.46631 16.6996 3.46631C16.0789 3.46631 15.5083 3.68025 15.0571 4.03831C15.5415 3.42807 16.2896 3.03662 17.1293 3.03662ZM18.2407 8.25913C18.2265 8.3082 18.2191 8.36023 18.2191 8.41442V9.05912C18.2191 9.25931 18.0558 9.42259 17.8556 9.42259H17.7894V8.84411C17.7894 8.64984 17.8843 8.48291 18.0511 8.38348C18.1162 8.34472 18.1795 8.30317 18.2407 8.25913Z" fill="#CBF0FF"/>
<path fill-rule="evenodd" clip-rule="evenodd" d="M16.7856 6.16357C16.7856 5.97374 16.9396 5.81982 17.1294 5.81982C17.3192 5.81982 17.4731 5.97374 17.4731 6.16357V8.32692C17.4731 8.51676 17.3192 8.67067 17.1294 8.67067C16.9396 8.67067 16.7856 8.51676 16.7856 8.32692V6.16357Z" fill="#FFDA2D"/>
<path fill-rule="evenodd" clip-rule="evenodd" d="M17.129 6.33032C17.4561 6.33032 17.7229 6.06357 17.7229 5.73645C17.7229 5.40933 17.4561 5.14258 17.129 5.14258C16.8019 5.14258 16.5352 5.40937 16.5352 5.73645C16.5352 6.06353 16.8019 6.33032 17.129 6.33032Z" fill="#FFDA2D"/>
<path fill-rule="evenodd" clip-rule="evenodd" d="M17.1294 5.14258C17.4574 5.14258 17.7232 5.40847 17.7232 5.73645C17.7232 5.94085 17.6199 6.12115 17.4628 6.22797C17.5367 6.12893 17.5805 6.00608 17.5805 5.87296C17.5805 5.54498 17.3147 5.27909 16.9867 5.27909C16.8631 5.27909 16.7483 5.31686 16.6533 5.38144C16.7616 5.23646 16.9346 5.14262 17.1294 5.14262L17.1294 5.14258Z" fill="#FFC700"/>
<path fill-rule="evenodd" clip-rule="evenodd" d="M18.219 9.05921V8.4145C18.219 8.38468 18.2212 8.35555 18.2256 8.32715H16.0327C16.0371 8.35551 16.0393 8.38468 16.0393 8.4145V9.05921C16.0393 9.2594 16.2026 9.42268 16.4028 9.42268H17.8555C18.0557 9.42268 18.219 9.2594 18.219 9.05921Z" fill="#788A98"/>
<path fill-rule="evenodd" clip-rule="evenodd" d="M18.2189 9.05921V8.4145C18.2189 8.38468 18.2211 8.35555 18.2255 8.32715H18.0171V8.86774C18.0171 9.06793 17.8538 9.23121 17.6536 9.23121H16.201C16.1551 9.23121 16.1112 9.22262 16.0708 9.20702C16.1276 9.33391 16.2551 9.42264 16.4027 9.42264H17.8554C18.0556 9.42264 18.2189 9.25936 18.2189 9.05916V9.05921ZM16.8118 8.45953C16.7419 8.43461 16.6824 8.38769 16.6417 8.32715H16.7853C16.7853 8.37407 16.7947 8.4188 16.8118 8.45953Z" fill="#6C7E8D"/>
<path fill-rule="evenodd" clip-rule="evenodd" d="M16.7855 1.25439C16.7855 1.06456 16.9394 0.910645 17.1293 0.910645C17.3191 0.910645 17.473 1.06456 17.473 1.25439V2.08305C17.473 2.27288 17.3191 2.4268 17.1293 2.4268C16.9394 2.4268 16.7855 2.27288 16.7855 2.08305V1.25439ZM13.7169 2.81025C13.5827 2.67602 13.5827 2.45834 13.7169 2.3241C13.8511 2.18987 14.0688 2.18987 14.203 2.3241L14.789 2.91002C14.9232 3.04426 14.9232 3.26194 14.789 3.39617C14.6547 3.53041 14.437 3.53041 14.3028 3.39617L13.7169 2.81025ZM21.6113 5.39271C21.8011 5.39271 21.955 5.54663 21.955 5.73646C21.955 5.9263 21.8011 6.08021 21.6113 6.08021H20.7826C20.5928 6.08021 20.4389 5.9263 20.4389 5.73646C20.4389 5.54663 20.5928 5.39271 20.7826 5.39271H21.6113ZM20.0555 2.3241C20.1897 2.18987 20.4074 2.18987 20.5416 2.3241C20.6758 2.45834 20.6758 2.67602 20.5416 2.81025L19.9557 3.39617C19.8215 3.53041 19.6038 3.53041 19.4695 3.39617C19.3353 3.26194 19.3353 3.04426 19.4695 2.91002L20.0555 2.3241Z" fill="#FFDA2D"/>
<path fill-rule="evenodd" clip-rule="evenodd" d="M9.21033 6.23145H10.9158C11.0302 6.23145 11.1236 6.32477 11.1236 6.43924V7.2957C11.8258 7.43569 12.4788 7.71198 13.054 8.09582L13.66 7.48987C13.7409 7.40896 13.873 7.40896 13.9539 7.48987L15.1597 8.69583C15.2406 8.77679 15.2406 8.90879 15.1597 8.9897L14.5538 9.59564C14.9377 10.1708 15.2138 10.8239 15.3539 11.5261H16.2104C16.3248 11.5261 16.4182 11.6194 16.4182 11.7339V13.4393C16.4182 13.5537 16.3248 13.6471 16.2104 13.6471H15.3539C15.2139 14.3493 14.9376 15.0024 14.5538 15.5776L15.1597 16.1835C15.2406 16.2644 15.2406 16.3964 15.1597 16.4773L13.9538 17.6832C13.8729 17.7641 13.7409 17.7641 13.66 17.6832L13.0541 17.0774C12.4789 17.4612 11.8258 17.7374 11.1236 17.8775V18.7338C11.1236 18.8483 11.0302 18.9416 10.9158 18.9416H9.21033C9.09586 18.9416 9.00253 18.8483 9.00253 18.7338V17.8775C8.30029 17.7375 7.64725 17.4612 7.07203 17.0774L6.46613 17.6833C6.38522 17.7642 6.25318 17.7642 6.17227 17.6833L4.96639 16.4773C4.88548 16.3964 4.88548 16.2644 4.96639 16.1835L5.57229 15.5776C5.18841 15.0024 4.91221 14.3493 4.77217 13.647H3.9158C3.80134 13.647 3.70801 13.5537 3.70801 13.4392V11.7338C3.70801 11.6193 3.80134 11.526 3.9158 11.526H4.77217C4.91216 10.8238 5.18845 10.1707 5.57229 9.59556L4.96639 8.98965C4.88548 8.90874 4.88548 8.7767 4.96639 8.69579L6.17231 7.48987C6.25322 7.40896 6.38526 7.40896 6.46617 7.48987L7.07207 8.09577C7.64725 7.71189 8.30034 7.43573 9.00257 7.2957V6.43924C9.00257 6.32482 9.0959 6.23145 9.21037 6.23145H9.21033Z" fill="#FFDA2D"/>
<path fill-rule="evenodd" clip-rule="evenodd" d="M10.5578 6.23145H10.9158C11.0303 6.23145 11.1236 6.32482 11.1236 6.43924V7.2957C10.9391 7.23743 10.7503 7.18879 10.5578 7.15042V6.23145ZM8.65178 17.2772C7.84457 17.2772 7.18096 16.9828 6.5063 16.5326L5.9004 17.1385C5.83874 17.2002 5.74735 17.2148 5.67155 17.1825L6.17231 17.6833C6.25322 17.7642 6.38526 17.7642 6.46617 17.6833L7.07207 17.0774C7.65748 17.468 8.31336 17.7401 9.00257 17.8775V17.2597C8.8872 17.2713 8.7702 17.2773 8.65178 17.2773V17.2772ZM14.8352 11.526H15.3539C15.2165 10.8367 14.9442 10.1804 14.5538 9.59556L15.1597 8.98961C15.2407 8.9087 15.2407 8.7767 15.1597 8.69575L13.9539 7.48983C13.9346 7.47058 13.9125 7.45593 13.8889 7.44583L14.594 8.15099C14.6749 8.23194 14.6749 8.36394 14.594 8.44485L13.9881 9.0508C14.4802 9.7881 14.7999 10.6369 14.8352 11.526L14.8352 11.526ZM15.8524 11.526H16.2104C16.3248 11.526 16.4182 11.6193 16.4182 11.7338V13.4392C16.4182 13.5537 16.3248 13.647 16.2104 13.647H15.3539C15.2139 14.3493 14.9376 15.0023 14.5538 15.5775L15.1597 16.1834C15.2406 16.2643 15.2406 16.3963 15.1597 16.4773L13.9538 17.6832C13.8729 17.7641 13.7409 17.7641 13.66 17.6832L13.1592 17.1824C13.235 17.2148 13.3264 17.2001 13.3881 17.1384L14.594 15.9325C14.6749 15.8516 14.6749 15.7196 14.594 15.6387L13.9881 15.0327C14.3719 14.4575 14.6482 13.8045 14.7882 13.1022H15.6446C15.7591 13.1022 15.8524 13.0089 15.8524 12.8944V11.526L15.8524 11.526ZM13.0414 17.0857C12.4693 17.4652 11.8207 17.7384 11.1236 17.8774V18.7338C11.1236 18.8483 11.0303 18.9416 10.9158 18.9416H9.21037C9.0959 18.9416 9.00257 18.8483 9.00257 18.7338V18.3968H10.35C10.4645 18.3968 10.5578 18.3035 10.5578 18.189V17.3327C11.26 17.1926 11.9131 16.9164 12.4883 16.5326L13.0414 17.0857ZM4.77217 13.647H3.9158C3.80134 13.647 3.70801 13.5537 3.70801 13.4392V13.1023H4.63351C4.67042 13.2874 4.71683 13.4692 4.77217 13.647ZM6.40116 7.44587C6.42479 7.45597 6.44692 7.47062 6.46617 7.48987L6.51898 7.54268L6.50635 7.55106L6.4012 7.44591L6.40116 7.44587Z" fill="#FFC700"/>
<path fill-rule="evenodd" clip-rule="evenodd" d="M10.0633 15.8077C11.8374 15.8077 13.2843 14.3608 13.2843 12.5867C13.2843 10.8127 11.8374 9.36572 10.0633 9.36572C8.28926 9.36572 6.84229 10.8127 6.84229 12.5867C6.84229 14.3608 8.28926 15.8077 10.0633 15.8077Z" fill="#EFF4F7"/>
<path fill-rule="evenodd" clip-rule="evenodd" d="M10.0633 9.36572C11.0612 9.36572 11.9532 9.81964 12.5439 10.5322C12.0033 10.1216 11.329 9.87778 10.5978 9.87778C8.81889 9.87778 7.37682 11.3199 7.37682 13.0988C7.37682 13.8797 7.65478 14.5956 8.11708 15.1532C7.34253 14.565 6.84229 13.6344 6.84229 12.5867C6.84229 10.8078 8.28436 9.36577 10.0633 9.36577V9.36572Z" fill="#DEE8EE"/>
<path fill-rule="evenodd" clip-rule="evenodd" d="M10.0631 15.7975C11.8343 15.7975 13.279 14.3529 13.279 12.5816C13.279 10.8104 11.8343 9.36572 10.0631 9.36572C8.29182 9.36572 6.84717 10.8104 6.84717 12.5816C6.84717 14.3529 8.29182 15.7975 10.0631 15.7975Z" fill="#465759"/>
<path fill-rule="evenodd" clip-rule="evenodd" d="M12.1168 10.1069C12.8268 10.6969 13.279 11.5864 13.279 12.5817C13.279 14.3578 11.8392 15.7976 10.0631 15.7976C9.06784 15.7976 8.17825 15.3454 7.58838 14.6354C8.14547 15.0981 8.8612 15.3765 9.64203 15.3765C11.4181 15.3765 12.8579 13.9367 12.8579 12.1606C12.8579 11.3798 12.5796 10.664 12.1168 10.1069Z" fill="#3E4D4F"/>
<path fill-rule="evenodd" clip-rule="evenodd" d="M12.1555 15.0234C11.5931 15.5059 10.8621 15.7976 10.0629 15.7976C9.2637 15.7976 8.53268 15.506 7.97021 15.0235C8.37842 14.2862 9.16483 13.7842 10.0629 13.7842C10.9609 13.7842 11.7473 14.2862 12.1555 15.0234Z" fill="#64B5F6"/>
<path fill-rule="evenodd" clip-rule="evenodd" d="M12.156 15.0234C12.0312 15.1305 11.8981 15.2281 11.7578 15.3152C11.4419 14.5016 10.6918 13.9002 9.7959 13.7993C9.88373 13.7894 9.97293 13.7842 10.0633 13.7842C10.9613 13.7842 11.7478 14.2862 12.156 15.0234Z" fill="#42A5F5"/>
<path fill-rule="evenodd" clip-rule="evenodd" d="M7.9707 15.0233C7.98669 14.9945 8.00319 14.9659 8.02029 14.9378C8.49647 15.2165 9.05068 15.3764 9.64227 15.3764C10.4748 15.3764 11.2334 15.06 11.8045 14.541C11.9406 14.6861 12.059 14.8481 12.156 15.0233C11.5936 15.5058 10.8625 15.7975 10.0634 15.7975C9.26419 15.7975 8.53316 15.5058 7.97075 15.0233L7.9707 15.0233Z" fill="#42A5F5"/>
<path fill-rule="evenodd" clip-rule="evenodd" d="M12.1555 15.0233C12.0308 15.1303 11.8976 15.2279 11.7574 15.3151C11.686 15.1312 11.5924 14.9582 11.48 14.7993C11.5935 14.7201 11.7018 14.6339 11.804 14.541C11.9401 14.6861 12.0585 14.8481 12.1555 15.0233Z" fill="#2D90F1"/>
<path fill-rule="evenodd" clip-rule="evenodd" d="M10.0632 13.6591C10.7746 13.6591 11.3549 13.0788 11.3549 12.3674C11.3549 11.6559 10.7746 11.0757 10.0632 11.0757C9.35173 11.0757 8.77148 11.6559 8.77148 12.3674C8.77148 13.0788 9.35173 13.6591 10.0632 13.6591Z" fill="#FFD6BD"/>
<path fill-rule="evenodd" clip-rule="evenodd" d="M9.02393 13.1343C9.25918 13.4526 9.63713 13.6591 10.0633 13.6591C10.7767 13.6591 11.355 13.0808 11.355 12.3674C11.355 11.9238 11.1313 11.5324 10.7906 11.2998C10.9491 11.5143 11.0429 11.7795 11.0429 12.0667C11.0429 12.78 10.4645 13.3584 9.75117 13.3584C9.48146 13.3584 9.23108 13.2756 9.02393 13.1343Z" fill="#F9C6AA"/>
<path d="M15.1802 19.9883H14.208C14.1605 19.9883 14.1221 20.0268 14.1221 20.0742V21.7638C14.1221 21.8113 14.1605 21.8498 14.208 21.8498H15.1802C15.2277 21.8498 15.2662 21.8113 15.2662 21.7638V20.0742C15.2662 20.0268 15.2277 19.9883 15.1802 19.9883Z" fill="#FC685B"/>
<path fill-rule="evenodd" clip-rule="evenodd" d="M14.208 19.9883H15.1802C15.2276 19.9883 15.2662 20.0269 15.2662 20.0742V20.418H14.5518V21.8498H14.208C14.1607 21.8498 14.1221 21.8112 14.1221 21.7638V20.0742C14.1221 20.0269 14.1607 19.9883 14.208 19.9883Z" fill="#FB4737"/>
<path d="M17.5445 19.0972H16.5723C16.5248 19.0972 16.4863 19.1356 16.4863 19.1831V21.7639C16.4863 21.8114 16.5248 21.8498 16.5723 21.8498H17.5445C17.5919 21.8498 17.6304 21.8114 17.6304 21.7639V19.1831C17.6304 19.1356 17.5919 19.0972 17.5445 19.0972Z" fill="#FFDA2D"/>
<path fill-rule="evenodd" clip-rule="evenodd" d="M16.5723 19.0972H17.5445C17.5918 19.0972 17.6304 19.1358 17.6304 19.1831V19.5269H16.916V21.8498H16.5723C16.5249 21.8498 16.4863 21.8112 16.4863 21.7639V19.1831C16.4863 19.1358 16.5249 19.0972 16.5723 19.0972V19.0972Z" fill="#FFC700"/>
<path d="M19.9092 17.9404H18.937C18.8895 17.9404 18.8511 17.9789 18.8511 18.0264V21.7637C18.8511 21.8112 18.8895 21.8496 18.937 21.8496H19.9092C19.9567 21.8496 19.9952 21.8112 19.9952 21.7637V18.0264C19.9952 17.9789 19.9567 17.9404 19.9092 17.9404Z" fill="#72D561"/>
<path fill-rule="evenodd" clip-rule="evenodd" d="M18.9365 17.9405H19.9087C19.9561 17.9405 19.9947 17.9791 19.9947 18.0264V18.3702H19.2803V21.8497H18.9365C18.8892 21.8497 18.8506 21.8111 18.8506 21.7637V18.0264C18.8506 17.9791 18.8892 17.9404 18.9365 17.9404V17.9405Z" fill="#42C345"/>
<path fill-rule="evenodd" clip-rule="evenodd" d="M14.6343 18.9204C14.4682 19.0109 14.2602 18.9496 14.1697 18.7835C14.0792 18.6174 14.1406 18.4094 14.3067 18.3189L17.8914 16.3602L17.7409 16.3188C17.5585 16.2691 17.4508 16.0809 17.5005 15.8985C17.5502 15.7161 17.7384 15.6084 17.9208 15.6581L18.8802 15.9223C18.9704 15.9445 19.0513 16.0031 19.0992 16.0911C19.1449 16.1751 19.1518 16.2698 19.1261 16.3546L18.8623 17.3125C18.8126 17.4949 18.6244 17.6025 18.442 17.5529C18.2596 17.5032 18.1519 17.315 18.2016 17.1326L18.2539 16.9427L14.6343 18.9205L14.6343 18.9204Z" fill="#64B5F6"/>
<path fill-rule="evenodd" clip-rule="evenodd" d="M2.38982 2.18164H2.95534C3.23596 2.18164 3.49086 2.2962 3.67541 2.48075C3.85996 2.6653 3.97451 2.92019 3.97451 3.20082V3.87629C3.97451 4.06612 3.8206 4.22004 3.63076 4.22004H1.71436C1.52452 4.22004 1.37061 4.06612 1.37061 3.87629V3.20082C1.37061 2.92014 1.48516 2.6653 1.66971 2.48075C1.85426 2.2962 2.1092 2.18164 2.38982 2.18164ZM2.95534 2.86914H2.38982C2.29899 2.86914 2.2161 2.90657 2.15582 2.96685C2.09553 3.02714 2.05811 3.10998 2.05811 3.20086V3.53258H3.28701V3.20086C3.28701 3.11002 3.24959 3.02714 3.1893 2.96685C3.12902 2.90657 3.04621 2.86914 2.95534 2.86914Z" fill="#96A4AF"/>
<path d="M0.402207 3.28076H4.94263C5.13981 3.28076 5.29991 3.44086 5.29991 3.63805V6.49981C5.29991 6.69699 5.13981 6.85709 4.94263 6.85709H0.402164C0.20498 6.85709 0.0449219 6.69699 0.0449219 6.49985V3.63813C0.0449219 3.44095 0.205023 3.28085 0.402207 3.28085V3.28076Z" fill="#64B5F6"/>
<path fill-rule="evenodd" clip-rule="evenodd" d="M0.402207 3.2808H0.474609V6.07012C0.474609 6.26662 0.635398 6.42741 0.831895 6.42741H5.29991V6.49981C5.29991 6.6963 5.13917 6.85705 4.94263 6.85705H0.402207C0.205711 6.85705 0.0449219 6.6963 0.0449219 6.49981V3.63805C0.0449219 3.44155 0.205711 3.2808 0.402207 3.2808Z" fill="#42A5F5"/>
<path fill-rule="evenodd" clip-rule="evenodd" d="M0.24 3.28076H5.10484C5.21213 3.28076 5.29991 3.36855 5.29991 3.47584V4.2482C5.29991 4.78029 4.8646 5.2156 4.33252 5.2156H1.01232C0.480238 5.2156 0.0449219 4.78029 0.0449219 4.2482V3.47584C0.0449219 3.36855 0.132707 3.28076 0.24 3.28076Z" fill="#2D90F1"/>
<path fill-rule="evenodd" clip-rule="evenodd" d="M0.24 3.2808H0.474609V3.81852C0.474609 4.3506 0.909926 4.78591 1.44201 4.78591H4.7622C4.91805 4.78591 5.06556 4.74853 5.19632 4.68232C5.03652 4.99792 4.70871 5.2156 4.33252 5.2156H1.01232C0.480238 5.2156 0.0449219 4.78029 0.0449219 4.2482V3.47584C0.0449219 3.36855 0.132707 3.2808 0.24 3.2808Z" fill="#1D83D4"/>
<path d="M2.9386 4.67725H2.40639C2.3308 4.67725 2.26953 4.73852 2.26953 4.8141V5.59214C2.26953 5.66772 2.3308 5.72899 2.40639 5.72899H2.9386C3.01418 5.72899 3.07545 5.66772 3.07545 5.59214V4.8141C3.07545 4.73852 3.01418 4.67725 2.9386 4.67725Z" fill="#FFDA2D"/>
<path fill-rule="evenodd" clip-rule="evenodd" d="M2.40639 4.67725H2.93855C3.01384 4.67725 3.07541 4.73882 3.07541 4.8141V4.9113H2.71989C2.64461 4.9113 2.58303 4.97287 2.58303 5.04815V5.72899H2.40639C2.33111 5.72899 2.26953 5.66742 2.26953 5.59214V4.8141C2.26953 4.73882 2.33111 4.67725 2.40639 4.67725Z" fill="#FFC700"/>
</g>
<defs>
<clipPath id="clip0_339_28809">
<rect width="22" height="22" fill="white" transform="translate(0 0.5)"/>
</clipPath>
</defs>
</svg>
