<svg width="32" height="33" viewBox="0 0 32 33" fill="none" xmlns="http://www.w3.org/2000/svg">
<g clip-path="url(#clip0_378_10252)">
<path fill-rule="evenodd" clip-rule="evenodd" d="M15.9489 0.985352C18.8335 1.01827 21.4394 1.72721 23.7667 3.11218C26.0662 4.4695 27.9791 6.39407 29.3224 8.70185C30.6989 11.0432 31.4036 13.6649 31.4364 16.567C31.3547 20.5379 30.1022 23.9293 27.6791 26.7415C25.256 29.5536 22.1526 31.2933 18.9399 31.9603V20.8273H21.9772L22.6641 16.4523H18.0649V13.5868C18.0394 12.9927 18.2272 12.4092 18.5945 11.9416C18.9623 11.4727 19.61 11.2263 20.5376 11.2023H23.3149V7.36989C23.2751 7.35707 22.8969 7.30637 22.1805 7.2178C21.3681 7.12273 20.551 7.07196 19.733 7.0657C17.8817 7.07424 16.4175 7.59647 15.3405 8.63241C14.2634 9.66805 13.7133 11.1664 13.6899 13.1275V16.4523H10.1899V20.8273H13.6899V31.9603C9.74526 31.2933 6.64181 29.5536 4.21869 26.7415C1.79556 23.9293 0.543188 20.5378 0.461426 16.567C0.494138 13.6647 1.1988 11.043 2.5754 8.70185C3.9187 6.39407 5.83158 4.46951 8.13113 3.11218C10.4584 1.72748 13.0643 1.01853 15.9489 0.985352Z" fill="white"/>
</g>
<defs>
<clipPath id="clip0_378_10252">
<rect width="32" height="32" fill="white" transform="translate(0 0.5)"/>
</clipPath>
</defs>
</svg>
