<svg width="72" height="72" viewBox="0 0 72 72" fill="none" xmlns="http://www.w3.org/2000/svg">
<circle cx="36" cy="36" r="36" fill="#00CCCC"/>
<path d="M29.3333 35.3334C26 35.3334 23.3333 32.6667 23.3333 29.3334C23.3333 26 26 23.3334 29.3333 23.3334C32.6666 23.3334 35.3333 26 35.3333 29.3334C35.3333 32.6667 32.6666 35.3334 29.3333 35.3334ZM43.3333 40.6667C40.4 40.6667 38 38.2667 38 35.3334C38 32.4 40.4 30 43.3333 30C46.2666 30 48.6666 32.4 48.6666 35.3334C48.6666 38.2667 46.2666 40.6667 43.3333 40.6667ZM43.3333 42C46.6666 42 49.3333 44.6667 49.3333 48V48.6667H37.3333V48C37.3333 44.6667 40 42 43.3333 42ZM29.3333 36.6667C33.0666 36.6667 36 39.6 36 43.3334V48.6667H22.6666V43.3334C22.6666 39.6 25.6 36.6667 29.3333 36.6667Z" fill="white"/>
</svg>
