<svg width="22" height="23" viewBox="0 0 22 23" fill="none" xmlns="http://www.w3.org/2000/svg">
<path d="M9.43744 17.6554C5.49799 17.6482 2.37984 16.101 3.03255 12.1857C3.37707 10.1073 4.77732 8.29146 6.69716 7.36699C6.73549 7.35057 6.77368 7.32867 6.812 7.31772C8.36706 6.58252 10.2506 6.45101 11.8988 7.29595C11.937 7.31237 11.9698 7.33428 12.0081 7.35057C13.7529 8.26408 15.1641 10.0691 15.5962 12.1857C16.1733 14.9756 14.3707 17.669 9.43744 17.6554Z" fill="#D67B42"/>
<path d="M15.6838 13.5749C15.476 15.894 13.4085 17.6662 9.43756 17.6552C6.4457 17.6498 4.16485 16.7746 3.30615 14.9368C3.58511 14.9587 3.79836 15.0353 3.82574 15.0517C3.85859 15.0626 5.58694 15.8448 6.56054 16.2988C6.56602 16.2933 6.56602 16.2823 6.56602 16.2769C6.69181 15.5167 7.38646 15.2322 7.77478 15.1775C9.60279 15.1732 10.1866 15.1718 10.1158 15.172C12.7139 13.5694 14.1359 13.5694 15.1752 13.5694C15.4272 13.5694 15.4546 13.554 15.6838 13.5749Z" fill="#B46432"/>
<path d="M11.8988 7.29595C11.7456 7.42174 11.5542 7.49278 11.3463 7.49278H7.33707C7.14024 7.49278 6.9597 7.42722 6.81201 7.31772C8.36707 6.58252 10.2506 6.45101 11.8988 7.29595Z" fill="#B46432"/>
<path d="M11.8787 8.74306C11.8787 9.20186 11.3405 9.4649 10.9783 9.16856C9.42079 7.89395 9.70132 6.16184 9.70132 6.16184L10.8841 5.1748C10.8841 5.1748 10.0877 6.88716 11.6961 8.33263C11.8156 8.44041 11.8787 8.59056 11.8787 8.74306Z" fill="#E4E3EF"/>
<path d="M9.83088 6.05431C9.84253 6.58701 9.72547 7.82823 8.537 8.80001C8.27943 9.01655 7.89309 8.94637 7.71743 8.66537C7.56719 8.39869 7.63997 8.12795 7.81691 7.96873C8.6979 7.17431 9.01411 6.16917 8.71852 5.04736H8.91762L9.8133 5.79661C9.8133 5.79661 9.82502 5.89623 9.83088 6.05431Z" fill="#E4E3EF"/>
<path d="M12.4715 3.34371C12.2621 3.64169 11.7755 3.53502 11.2713 3.95846C10.5158 4.55907 10.6465 5.3931 10.6332 5.45137C10.5738 5.45402 9.23798 5.51371 9.32176 5.50997L8.03967 5.45137C8.03967 5.45137 8.05132 5.34589 8.03967 5.17623C8.02054 4.94659 7.96914 4.76184 7.91668 4.64924C7.80541 4.37996 7.62396 4.13998 7.40149 3.95846C6.88368 3.54032 6.40039 3.63545 6.19544 3.34371C5.9203 2.97495 6.15449 2.54759 6.5409 2.3895C6.9978 2.21016 7.66159 2.15546 8.47876 2.41295C9.14613 2.62869 9.21952 2.82736 9.57933 2.65879C10.3691 2.28684 11.3135 2.07053 12.1261 2.38951C12.5124 2.54759 12.7466 2.97495 12.4715 3.34371Z" fill="#D67B42"/>
<path d="M10.75 4.64941C10.6784 4.82876 10.6488 4.98682 10.633 5.1764H8.0395C8.02036 4.94676 7.96896 4.76201 7.9165 4.64941H10.75Z" fill="#B46432"/>
<path d="M11.5367 6.49179V6.50274V6.61211C11.5367 6.85822 11.3342 7.05505 11.0881 7.05505H7.7102C7.46409 7.05505 7.26172 6.85822 7.26172 6.61211C7.26172 6.57654 7.26172 6.54759 7.26172 6.49179C7.26172 6.27055 7.45477 6.0542 7.7102 6.0542H11.0881C11.3442 6.0542 11.5367 6.27147 11.5367 6.49179Z" fill="#E4E3EF"/>
<path d="M11.4982 6.3222C11.1834 6.52239 11.1472 6.40113 7.71003 6.43705C7.56234 6.43705 7.42012 6.39872 7.2998 6.3222C7.37098 6.16356 7.52955 6.0542 7.71003 6.0542H11.0879C11.2684 6.0542 11.4271 6.16356 11.4982 6.3222Z" fill="#C9C8DB"/>
<path d="M11.5339 5.52733V5.57421C11.5339 5.83763 11.3173 6.05431 11.0538 6.05431H7.73925C7.1077 6.05431 7.1052 5.04736 7.73925 5.04736H11.0538C11.3173 5.04736 11.5339 5.2639 11.5339 5.52733Z" fill="#E4E3EF"/>
<path d="M17.2227 16.6415C17.2227 17.4314 17.1595 18.0632 17.0584 18.5371C17.0331 18.6698 17.0015 18.7898 16.9699 18.9035C16.9509 18.9604 16.9383 19.011 16.9257 19.0615C16.9194 19.068 16.913 19.0805 16.913 19.0868V19.0931C16.7993 19.0868 16.237 19.0805 16.0663 19.0805H16.041C16.0094 19.0805 15.9841 19.0741 15.9526 19.0741C15.9463 19.0741 15.9337 19.0805 15.9147 19.0931C15.8957 19.1058 15.8578 19.1247 15.8136 19.15C15.3081 19.4091 13.583 19.9336 12.61 20.2938C11.3062 20.7744 10.8165 21.2073 8.1679 19.883C5.44448 18.5055 3.28983 17.602 2.67686 17.1975C2.14373 16.8386 2.23431 15.9695 2.60736 15.6431C2.99279 15.3145 3.631 15.5609 3.631 15.5609C3.631 15.5609 5.60877 16.4582 6.52496 16.8879C6.76515 17.0017 6.92945 17.0838 6.97364 17.1091C7.01784 17.1344 7.06212 17.1532 7.11264 17.1597C7.16949 17.1723 7.22641 17.1785 7.27693 17.1723C7.38438 17.3303 7.5297 17.4377 7.68134 17.463C8.02258 17.5134 11.1693 17.4883 12.1992 17.6587C12.7035 17.1904 15.6685 14.4367 15.4787 14.6131C15.5367 14.5591 15.9917 14.1358 15.9337 14.1897L15.9526 14.1771V14.1709C16.0548 14.1709 16.7874 14.1701 16.8878 14.1771C16.9067 14.2214 16.9257 14.2783 16.9446 14.3414C16.9762 14.4426 17.0078 14.5689 17.0458 14.7143C17.1405 15.1882 17.2163 15.8327 17.2227 16.6415Z" fill="#F6BF89"/>
<path d="M7.27676 17.1726C7.38551 17.3324 7.5305 17.4395 7.68043 17.4609C8.02148 17.5153 11.1668 17.4873 12.1965 17.6553C12.2572 17.599 16.0523 14.0799 15.9349 14.1888L15.9514 14.1739V14.1723C15.6877 14.1291 15.6045 14.1107 15.4851 14.113C14.4211 14.1329 13.0909 13.9494 10.2705 15.721H7.84684C7.84684 15.721 7.19603 15.8067 7.10706 16.3603C7.05764 16.6734 7.13672 16.9666 7.27676 17.1726Z" fill="#F6BF89"/>
<path d="M17.2227 16.6415C17.2227 17.4313 17.1595 18.0632 17.0584 18.5371C17.0332 18.6698 17.0016 18.7898 16.9699 18.9035C16.951 18.9604 16.9383 19.011 16.9257 19.0615C16.9194 19.0679 16.9131 19.0804 16.9131 19.0868V19.0931C16.7993 19.0868 16.237 19.0804 16.0664 19.0804V14.1709C16.156 14.1709 16.7946 14.1706 16.8879 14.1771C16.9068 14.2213 16.9257 14.2783 16.9446 14.3414C16.9763 14.4426 17.0079 14.5689 17.0458 14.7142C17.1406 15.1881 17.2164 15.8327 17.2227 16.6415Z" fill="#F0A06D"/>
<path d="M19.1412 19.5336H17.1753C16.8676 19.5336 16.6182 19.2842 16.6182 18.9765V14.1767C16.6182 13.8691 16.8676 13.6196 17.1753 13.6196H19.1412C19.4488 13.6196 19.6983 13.8691 19.6983 14.1767V18.9765C19.6983 19.2842 19.4488 19.5336 19.1412 19.5336Z" fill="#ED3E43"/>
<path d="M11.0866 18.0703L7.4996 17.6929C7.33895 17.6761 7.22232 17.532 7.23947 17.3713C7.25605 17.2104 7.39498 17.0918 7.56135 17.1109L11.1483 17.4883C11.309 17.5051 11.4256 17.6492 11.4085 17.8098C11.3922 17.9684 11.2499 18.0875 11.0866 18.0703Z" fill="#F0A06D"/>
<path d="M18.4675 18.2333C18.3057 18.2333 18.1748 18.1023 18.1748 17.9405V15.2131C18.1748 15.0513 18.3057 14.9204 18.4675 14.9204C18.6293 14.9204 18.7603 15.0513 18.7603 15.2131V17.9405C18.7603 18.1023 18.6293 18.2333 18.4675 18.2333Z" fill="#D03539"/>
<path d="M9.49495 14.422C10.8117 14.422 11.8791 13.3546 11.8791 12.0379C11.8791 10.7212 10.8117 9.65381 9.49495 9.65381C8.17824 9.65381 7.11084 10.7212 7.11084 12.0379C7.11084 13.3546 8.17824 14.422 9.49495 14.422Z" fill="#FBBF10"/>
<path d="M9.49512 13.7529C10.4422 13.7529 11.21 12.9852 11.21 12.0381C11.21 11.091 10.4422 10.3232 9.49512 10.3232C8.54803 10.3232 7.78027 11.091 7.78027 12.0381C7.78027 12.9852 8.54803 13.7529 9.49512 13.7529Z" fill="#FED667"/>
<path d="M9.62919 12.8836V13.0515C9.62919 13.2078 9.3918 13.2136 9.3918 13.0515V12.8836C9.21233 12.872 9.05024 12.8257 8.94024 12.762C8.78971 12.6694 8.88812 12.4378 9.05024 12.5304C9.24706 12.6404 9.53654 12.6636 9.67552 12.6057C9.82025 12.5478 9.84919 12.4089 9.79707 12.322C9.65813 12.0904 8.88812 12.2757 8.88812 11.6968C8.88812 11.4073 9.10812 11.2278 9.3918 11.1931V11.0252C9.3918 10.8631 9.62919 10.8689 9.62919 11.0252V11.1931C9.75075 11.1988 9.90707 11.251 10.0171 11.332C10.1387 11.4304 10.0345 11.6215 9.87813 11.5288C9.62339 11.3841 9.18918 11.4015 9.18918 11.6852C9.18918 11.8936 9.43233 11.882 9.68128 11.9515C9.83181 11.9862 9.94181 12.0383 10.0171 12.1078C10.2197 12.3162 10.1676 12.7967 9.62919 12.8836Z" fill="white"/>
<path d="M9.28623 3.9802C9.12671 3.9539 9.01866 3.80325 9.04496 3.64374C9.08555 3.39761 9.08555 3.15606 9.04553 2.92594C9.01752 2.76672 9.12386 2.61492 9.28337 2.58691C9.43144 2.56118 9.59438 2.66523 9.62183 2.82475C9.67385 3.12004 9.67385 3.42763 9.6224 3.73922C9.59569 3.90241 9.43935 4.00754 9.28623 3.9802Z" fill="#B46432"/>
</svg>
