<svg width="33" height="33" viewBox="0 0 33 33" fill="none" xmlns="http://www.w3.org/2000/svg">
<g clip-path="url(#clip0_880_184013)">
<path d="M16.377 0.449219C14.3105 0.449219 12.3376 0.849762 10.5316 1.57752L3.41978 7.3206C1.72091 9.82362 0.728271 12.8448 0.728271 16.0979C0.728271 19.3389 1.7135 22.3497 3.40081 24.8473L3.4201 24.8751L10.9804 30.7912C12.6626 31.4093 14.4804 31.7466 16.377 31.7466C25.0195 31.7466 32.0257 24.7405 32.0257 16.0979C32.0257 7.45537 25.0195 0.449219 16.377 0.449219Z" fill="#FFDD33"/>
<path d="M28.0483 1.57812H17.4996C15.2229 1.57812 13.3772 3.42378 13.3772 5.70057V26.6683C13.3772 28.945 15.2228 30.7907 17.4996 30.7907H28.0483C30.633 30.7907 32.7283 28.6955 32.7283 26.1108V6.25804C32.7283 3.67339 30.633 1.57812 28.0483 1.57812Z" fill="#FEA95C"/>
<path d="M18.347 1.57902L10.5316 1.57812C7.62756 2.74826 5.15545 4.76465 3.42004 7.32139V24.8757C5.24417 27.5632 7.88229 29.6534 10.9804 30.7916H18.3469C15.7623 30.7915 13.6671 28.6962 13.6671 26.1116V6.25894C13.667 3.67428 15.7623 1.57902 18.347 1.57902Z" fill="#FD9468"/>
<path d="M14.6299 10.909C13.756 10.909 13.2501 11.3995 13.2501 12.4419V16.5043C13.2501 17.5467 13.756 18.0373 14.6145 18.0373C15.4729 18.0373 15.9942 17.5467 15.9942 16.5043V15.9831H15.0897C14.6299 15.9831 14.3693 15.5386 14.3693 15.0634C14.3693 14.6188 14.6299 14.1436 15.0897 14.1436H17.6651C18.1249 14.1436 18.3855 14.4963 18.3855 14.8948V16.5044C18.3855 19.1411 16.7299 20.1223 14.6145 20.1223C12.4989 20.1223 10.8586 19.1412 10.8586 16.5044V12.442C10.8586 9.8053 12.5296 8.82422 14.5378 8.82422C16.7299 8.82422 18.3855 9.928 18.3855 11.8748C18.3855 12.7946 18.0023 13.0092 17.1898 13.0092C16.546 13.0092 16.0094 12.8406 15.9941 12.2887C15.9789 11.7368 15.9329 10.909 14.6299 10.909Z" fill="white"/>
<path d="M26.1729 15.5533C26.1729 16.9176 25.3911 16.979 24.6859 16.979H21.7273V17.0709C21.7273 17.8221 22.3559 18.3279 23.2909 18.3279C24.2414 18.3279 24.7013 17.7608 25.2071 17.7608C25.7591 17.7608 26.081 18.4352 26.081 18.8031C26.081 19.3857 24.9619 20.1829 23.2296 20.1829C20.9608 20.1829 19.3512 18.8799 19.3512 16.933V15.8139C19.3512 14.097 20.9148 12.6406 22.877 12.6406C24.6399 12.6406 26.1729 13.821 26.1729 15.5533ZM23.6281 15.6452C23.8428 15.6452 23.9501 15.5686 23.9501 15.2773C23.9501 14.6641 23.3982 14.3576 22.831 14.3576C22.2791 14.3576 21.7272 14.6642 21.7272 15.2773V15.6452H23.6281Z" fill="white"/>
<path d="M7.36578 23.6115C7.06367 23.6115 6.88872 23.7811 6.88872 24.1416V25.5463C6.88872 25.9068 7.0636 26.0764 7.36048 26.0764C7.65736 26.0764 7.83761 25.9068 7.83761 25.5463V25.3661H7.52489C7.36585 25.3661 7.27579 25.2124 7.27579 25.0481C7.27579 24.8944 7.36585 24.7301 7.52489 24.7301H8.4154C8.57444 24.7301 8.66456 24.852 8.66456 24.9898V25.5464C8.66456 26.4581 8.09201 26.7974 7.36048 26.7974C6.62902 26.7974 6.06177 26.4581 6.06177 25.5464V24.1416C6.06177 23.2299 6.63962 22.8906 7.33404 22.8906C8.09201 22.8906 8.66456 23.2723 8.66456 23.9455C8.66456 24.2636 8.53203 24.3378 8.25105 24.3378C8.02839 24.3378 7.84285 24.2795 7.83754 24.0887C7.83231 23.8977 7.8164 23.6115 7.36578 23.6115Z" fill="white"/>
<path d="M11.3577 25.2181C11.3577 25.69 11.0873 25.7112 10.8434 25.7112H9.82031V25.743C9.82031 26.0027 10.0377 26.1776 10.3611 26.1776C10.6897 26.1776 10.8487 25.9815 11.0237 25.9815C11.2145 25.9815 11.3258 26.2147 11.3258 26.342C11.3258 26.5434 10.9388 26.819 10.3398 26.819C9.55524 26.819 8.99866 26.3685 8.99866 25.6953V25.3083C8.99866 24.7146 9.53934 24.2109 10.2179 24.2109C10.8275 24.211 11.3577 24.6191 11.3577 25.2181ZM10.4777 25.2499C10.5519 25.2499 10.589 25.2234 10.589 25.1227C10.589 24.9107 10.3982 24.8047 10.202 24.8047C10.0112 24.8047 9.82031 24.9107 9.82031 25.1227V25.2499H10.4777Z" fill="white"/>
<path d="M13.123 24.9266C12.8315 24.9266 12.5452 25.234 12.5452 25.7164V26.5116C12.5452 26.6388 12.3597 26.766 12.1264 26.766C11.8932 26.766 11.7235 26.6388 11.7235 26.5116V24.4919C11.7235 24.3435 11.8932 24.2427 12.1264 24.2427C12.3279 24.2427 12.4922 24.3435 12.4922 24.4919V24.6881C12.5982 24.4548 12.8527 24.2109 13.123 24.2109H13.2768C13.4304 24.2109 13.5683 24.3753 13.5683 24.5661C13.5683 24.7623 13.4304 24.9266 13.2768 24.9266H13.123V24.9266Z" fill="white"/>
<path d="M15.3285 25.3295C15.3285 25.0645 15.1482 24.9266 14.968 24.9266C14.7983 24.9266 14.634 25.0538 14.634 25.3242V26.5116C14.634 26.6388 14.4431 26.766 14.2205 26.766C13.982 26.766 13.8123 26.6388 13.8123 26.5116V24.4919C13.8123 24.3435 13.9819 24.2427 14.2205 24.2427C14.4166 24.2427 14.581 24.3435 14.581 24.4919V24.6138C14.6976 24.4072 14.9309 24.2109 15.2807 24.2109C15.5669 24.2109 15.8002 24.4283 15.9062 24.7411C16.0917 24.3806 16.3992 24.2109 16.7013 24.2109C17.1996 24.2109 17.6661 24.6138 17.6661 25.3242V26.5116C17.6661 26.6388 17.4805 26.766 17.2525 26.766C17.0353 26.766 16.8443 26.6388 16.8443 26.5116V25.3242C16.8443 25.0592 16.6695 24.9213 16.4891 24.9213C16.3196 24.9213 16.1499 25.0538 16.1499 25.3242V26.5169C16.1499 26.6918 15.9432 26.766 15.7364 26.766C15.5456 26.766 15.3282 26.6918 15.3282 26.5169V25.3295H15.3285Z" fill="white"/>
<path d="M20.232 25.2501V26.5117C20.232 26.6548 20.0624 26.7661 19.8291 26.7661C19.6224 26.7661 19.4633 26.6548 19.4633 26.5117V26.395C19.2725 26.6176 19.0287 26.8191 18.6576 26.8191C18.2918 26.8191 17.9791 26.5964 17.9791 26.1141C17.9791 25.4886 18.488 25.3136 19.2195 25.3136H19.4104V25.2606C19.4104 25.0804 19.315 24.8683 19.0128 24.8683C18.5781 24.8683 18.5356 25.0433 18.3925 25.0433C18.2123 25.0433 18.1169 24.8259 18.1169 24.6351C18.1169 24.3859 18.6311 24.2109 19.0234 24.2109C19.8928 24.2111 20.232 24.7147 20.232 25.2501ZM19.4104 25.7113H19.3892C19.0871 25.7113 18.8061 25.7431 18.8061 25.9975C18.8061 26.1512 18.8909 26.2201 19.0128 26.2201C19.1771 26.2201 19.4104 26.0028 19.4104 25.7324V25.7113Z" fill="white"/>
<path d="M21.5098 26.5116C21.5098 26.6388 21.319 26.766 21.0963 26.766C20.8578 26.766 20.6881 26.6388 20.6881 26.5116V24.4919C20.6881 24.3435 20.8578 24.2427 21.0963 24.2427C21.2925 24.2427 21.4568 24.3435 21.4568 24.4919V24.6138C21.5575 24.4072 21.812 24.2109 22.1671 24.2109C22.6496 24.2109 23.0682 24.7146 23.0682 25.3242V26.5116C23.0682 26.6812 22.8616 26.766 22.6548 26.766C22.4639 26.766 22.2466 26.6812 22.2466 26.5116V25.3242C22.2466 25.1227 22.0769 24.9266 21.8649 24.9266C21.6899 24.9266 21.5097 25.075 21.5097 25.3242V26.5116H21.5098Z" fill="white"/>
<path d="M24.3567 23.3725C24.3567 23.5739 24.1658 23.7541 23.9273 23.7541C23.6835 23.7541 23.4926 23.5739 23.4926 23.3725C23.4926 23.171 23.6834 22.9961 23.9273 22.9961C24.1658 22.9962 24.3567 23.171 24.3567 23.3725ZM24.3408 24.491V26.5106C24.3408 26.6378 24.1552 26.7651 23.9273 26.7651C23.6888 26.7651 23.5191 26.6378 23.5191 26.5106V24.491C23.5191 24.3425 23.6887 24.2418 23.9273 24.2418C24.1552 24.2419 24.3408 24.3426 24.3408 24.491Z" fill="white"/>
<path d="M24.786 25.7052V24.4967C24.786 24.3694 24.9716 24.2422 25.1995 24.2422C25.4169 24.2422 25.6077 24.3694 25.6077 24.4967V25.7052C25.6077 25.9066 25.7826 26.1029 25.9947 26.1029C26.2067 26.1029 26.3764 25.9067 26.3764 25.7052V24.4914C26.3764 24.3588 26.5672 24.2422 26.7899 24.2422C27.0284 24.2422 27.1981 24.3588 27.1981 24.4914V25.7052C27.1981 26.2989 26.6521 26.8184 25.9948 26.8184C25.3321 26.8184 24.786 26.2936 24.786 25.7052Z" fill="white"/>
<path d="M29.1649 25.3295C29.1649 25.0645 28.9846 24.9266 28.8044 24.9266C28.6347 24.9266 28.4704 25.0538 28.4704 25.3242V26.5116C28.4704 26.6388 28.2795 26.766 28.0569 26.766C27.8184 26.766 27.6487 26.6388 27.6487 26.5116V24.4919C27.6487 24.3435 27.8183 24.2427 28.0569 24.2427C28.253 24.2427 28.4174 24.3435 28.4174 24.4919V24.6138C28.534 24.4072 28.7673 24.2109 29.1171 24.2109C29.4033 24.2109 29.6366 24.4283 29.7426 24.7411C29.9282 24.3806 30.2356 24.2109 30.5378 24.2109C31.036 24.2109 31.5025 24.6138 31.5025 25.3242V26.5116C31.5025 26.6388 31.3169 26.766 31.089 26.766C30.8717 26.766 30.6808 26.6388 30.6808 26.5116V25.3242C30.6808 25.0592 30.5059 24.9213 30.3256 24.9213C30.156 24.9213 29.9863 25.0538 29.9863 25.3242V26.5169C29.9863 26.6918 29.7796 26.766 29.5728 26.766C29.382 26.766 29.1646 26.6918 29.1646 26.5169V25.3295H29.1649Z" fill="white"/>
<path d="M26.4284 7.45938V7.33802C26.4284 6.91007 26.1664 6.82704 25.8151 6.82704C25.598 6.82704 25.5276 6.63542 25.5276 6.44381C25.5276 6.25219 25.598 6.06057 25.8151 6.06057C26.0578 6.06057 26.3133 6.02864 26.3133 5.51121C26.3133 5.14069 26.1026 5.05126 25.8407 5.05126C25.5277 5.05126 25.368 5.12791 25.368 5.37701C25.368 5.59418 25.2722 5.74108 24.9018 5.74108C24.4418 5.74108 24.3843 5.64528 24.3843 5.33869C24.3843 4.84042 24.742 4.19531 25.8407 4.19531C26.6519 4.19531 27.2652 4.48919 27.2652 5.35146C27.2652 5.81773 27.0927 6.25213 26.7733 6.39903C27.1501 6.53955 27.4248 6.82065 27.4248 7.33802V7.45938C27.4248 8.50695 26.703 8.90302 25.8087 8.90302C24.7101 8.90302 24.2885 8.23236 24.2885 7.69577C24.2885 7.40834 24.4098 7.33163 24.7612 7.33163C25.17 7.33163 25.2721 7.42105 25.2721 7.66377C25.2721 7.96403 25.5532 8.03423 25.8406 8.03423C26.2751 8.03423 26.4284 7.87455 26.4284 7.45938Z" fill="white"/>
<path d="M29.2642 4.19531C30.0052 4.19531 30.7525 4.66164 30.7525 5.51753C30.7525 6.90362 28.7788 7.35718 28.7788 7.93842V7.9959H30.4523C30.612 7.9959 30.7525 8.19391 30.7525 8.42385C30.7525 8.65379 30.612 8.86457 30.4523 8.86457H28.1783C27.9995 8.86457 27.7439 8.74321 27.7439 8.55798V7.93835C27.7439 6.9355 29.756 6.36065 29.756 5.5494C29.756 5.34501 29.6283 5.09585 29.2705 5.09585C29.015 5.09585 28.7915 5.22359 28.7915 5.57495C28.7915 5.76018 28.5934 5.93902 28.2677 5.93902C28.0122 5.93902 27.8205 5.82405 27.8205 5.4216C27.8205 4.64242 28.536 4.19531 29.2642 4.19531Z" fill="white"/>
</g>
<defs>
<clipPath id="clip0_880_184013">
<rect width="32" height="32" fill="white" transform="translate(0.728271 0.0976562)"/>
</clipPath>
</defs>
</svg>
