<svg width="33" height="33" viewBox="0 0 33 33" fill="none" xmlns="http://www.w3.org/2000/svg">
<g clip-path="url(#clip0_880_183697)">
<path d="M16.7283 32.0977C25.5648 32.0977 32.7283 24.9342 32.7283 16.0977C32.7283 7.2611 25.5648 0.0976562 16.7283 0.0976562C7.89172 0.0976562 0.728271 7.2611 0.728271 16.0977C0.728271 24.9342 7.89172 32.0977 16.7283 32.0977Z" fill="#FFDD33"/>
<path d="M24.211 7.02606L24.9108 6.72006C24.9685 6.69456 24.9685 6.61206 24.9108 6.58656L24.211 6.28056C24.1945 6.27306 24.181 6.25956 24.1735 6.24306L23.8675 5.54331C23.842 5.48556 23.7595 5.48556 23.734 5.54331L23.428 6.24306C23.4205 6.25956 23.407 6.27306 23.3905 6.28056L22.6908 6.58656C22.633 6.61206 22.633 6.69456 22.6908 6.72006L23.3905 7.02606C23.407 7.03356 23.4205 7.04706 23.428 7.06356L23.734 7.76331C23.7595 7.82106 23.842 7.82106 23.8675 7.76331L24.1735 7.06356C24.181 7.04706 24.1938 7.03356 24.211 7.02606Z" fill="#6AC3EF"/>
<path d="M25.7845 8.74359C25.9046 8.74359 26.002 8.64622 26.002 8.52609C26.002 8.40597 25.9046 8.30859 25.7845 8.30859C25.6644 8.30859 25.567 8.40597 25.567 8.52609C25.567 8.64622 25.6644 8.74359 25.7845 8.74359Z" fill="#52B3D1"/>
<path d="M8.40777 7.47706L8.83452 7.29031C8.86977 7.27456 8.86977 7.22431 8.83452 7.20931L8.40777 7.02256C8.39802 7.01806 8.38977 7.01056 8.38527 7.00006L8.19852 6.57331C8.18277 6.53806 8.13252 6.53806 8.11752 6.57331L7.93077 7.00006C7.92627 7.01056 7.91802 7.01806 7.90827 7.02256L7.48152 7.20931C7.44627 7.22506 7.44627 7.27531 7.48152 7.29031L7.90827 7.47706C7.91877 7.48156 7.92702 7.48981 7.93077 7.49956L8.11752 7.92631C8.13327 7.96156 8.18352 7.96156 8.19852 7.92631L8.38527 7.49956C8.38977 7.48981 8.39802 7.48156 8.40777 7.47706Z" fill="#6AC3EF"/>
<path d="M11.3688 7.21216C11.6765 7.21216 11.926 6.96267 11.926 6.65491C11.926 6.34715 11.6765 6.09766 11.3688 6.09766C11.061 6.09766 10.8115 6.34715 10.8115 6.65491C10.8115 6.96267 11.061 7.21216 11.3688 7.21216Z" fill="#52B3D1"/>
<path d="M21.2763 26.4992H12.1795C11.5315 26.4992 10.9848 26.0155 10.906 25.372L9.12403 10.7725C9.05428 10.2025 9.49978 9.69922 10.0743 9.69922H23.3808C23.9553 9.69922 24.4008 10.2025 24.331 10.7725L22.549 25.372C22.471 26.0155 21.9243 26.4992 21.2763 26.4992Z" fill="#DAF1F2"/>
<path d="M20.3883 24.4023H22.666L22.5498 25.3706C22.4703 26.0186 21.9243 26.4986 21.2763 26.4986H18.9985C19.6533 26.4986 20.1993 26.0186 20.272 25.3706L20.3883 24.4023Z" fill="#BCE2E2"/>
<path d="M24.3333 10.7734L23.6343 16.4794H23.62C23.5765 16.9886 23.2855 17.4761 22.732 17.7169C22.2805 17.9059 21.7638 18.0589 21.16 18.1099L22.0555 10.7734C22.1283 10.2056 21.6843 9.70312 21.109 9.70312H23.38C23.9545 9.70312 24.3985 10.2056 24.3333 10.7734Z" fill="#BCE2E2"/>
<path d="M22.7246 17.7134C21.5021 18.2301 19.6968 18.4408 17.3973 17.1021C17.2953 17.0436 17.1933 16.9859 17.0913 16.9349C19.5371 14.6931 21.3566 14.5041 22.5933 14.8971C23.8968 15.3118 23.9838 17.1749 22.7246 17.7134Z" fill="#52B3D1"/>
<path d="M23.6343 16.4796L22.6661 24.4056H10.7891L9.79907 16.3341L9.81332 16.3266C9.81332 16.3266 12.7533 14.5506 17.0988 16.9379C17.2008 16.9889 17.3028 17.0474 17.4048 17.1051C19.6976 18.4514 21.5096 18.2406 22.7321 17.7164C23.2856 17.4764 23.5766 16.9889 23.6201 16.4789H23.6343V16.4796Z" fill="#6AC3EF"/>
<path d="M11.518 20.1699C11.6718 20.1511 11.782 20.0109 11.7625 19.8564L11.4963 17.6844C11.4775 17.5306 11.341 17.4196 11.1828 17.4399C11.029 17.4586 10.9188 17.5989 10.9383 17.7534L11.2045 19.9254C11.2218 20.0679 11.3433 20.1721 11.4835 20.1721C11.494 20.1721 11.506 20.1714 11.518 20.1699Z" fill="#8BE1FC"/>
<path d="M11.8997 20.9784C11.881 20.8239 11.7452 20.7114 11.5862 20.7332C11.4325 20.7519 11.3222 20.8922 11.3417 21.0459L11.398 21.5064C11.4152 21.6489 11.5367 21.7539 11.677 21.7539C11.6882 21.7539 11.6995 21.7532 11.7115 21.7517C11.8652 21.7329 11.9755 21.5927 11.956 21.4389L11.8997 20.9784Z" fill="#8BE1FC"/>
</g>
<defs>
<clipPath id="clip0_880_183697">
<rect width="32" height="32" fill="white" transform="translate(0.728271 0.0976562)"/>
</clipPath>
</defs>
</svg>
