<svg width="40" height="40" viewBox="0 0 40 40" fill="none" xmlns="http://www.w3.org/2000/svg">
<g clip-path="url(#clip0_1444_226250)">
<path d="M20 40C8.97186 40 0 31.0281 0 20C0 8.97186 8.97186 0 20 0C31.0281 0 40 8.97186 40 20C40 31.0281 31.0281 40 20 40Z" fill="#FE0050"/>
<path d="M20 0V40C31.0281 40 40 31.0281 40 20C40 8.97186 31.0281 0 20 0Z" fill="#E10555"/>
<path d="M20 33.3594C12.6337 33.3594 6.64062 27.3663 6.64062 20C6.64062 12.6337 12.6337 6.64062 20 6.64062C27.3663 6.64062 33.3594 12.6337 33.3594 20C33.3594 27.3663 27.3663 33.3594 20 33.3594Z" fill="#D9E7F3"/>
<path d="M20 6.64062V33.3594C27.3663 33.3594 33.3594 27.3663 33.3594 20C33.3594 12.6337 27.3663 6.64062 20 6.64062Z" fill="#C8D4DF"/>
<path d="M20 26.3281C16.5106 26.3281 13.6719 23.4894 13.6719 20C13.6719 16.5106 16.5106 13.6719 20 13.6719C23.4894 13.6719 26.3281 16.5106 26.3281 20C26.3281 23.4894 23.4894 26.3281 20 26.3281Z" fill="#FE0050"/>
<path d="M20 13.6719V26.3281C23.4894 26.3281 26.3281 23.4894 26.3281 20C26.3281 16.5106 23.4894 13.6719 20 13.6719Z" fill="#E10555"/>
<path d="M20 21.1725C19.7 21.1725 19.4 21.0581 19.1714 20.8292C18.7137 20.3718 18.7137 19.6296 19.1714 19.1721L27.7893 10.5543C28.2468 10.0965 28.989 10.0965 29.4464 10.5543C29.9042 11.0117 29.9042 11.7536 29.4464 12.2114L20.8286 20.8292C20.6 21.0581 20.3 21.1725 20 21.1725Z" fill="#2D2D55"/>
<path d="M29.4468 10.5547L19.1719 20.8297C19.4005 21.0585 19.7004 21.173 20.0004 21.173C20.3004 21.173 20.6004 21.0585 20.829 20.8297L29.4468 12.2118C29.9046 11.7543 29.9046 11.0121 29.4468 10.5547Z" fill="#0A0A48"/>
<path d="M33.2026 12.9397C33.1699 12.9397 33.137 12.9381 33.104 12.9357L28.519 12.549C27.9496 12.5008 27.4976 12.0492 27.4497 11.4797L27.0627 6.89444C27.0337 6.5505 27.158 6.21145 27.4021 5.96731L32.3737 0.995695C32.6963 0.673124 33.1766 0.566923 33.6051 0.723784C34.0333 0.880339 34.3317 1.27127 34.3702 1.72568L34.6735 5.32461L38.2728 5.62826C38.7272 5.66672 39.1181 5.96518 39.275 6.39364C39.4315 6.82181 39.3253 7.30215 39.0027 7.62472L34.0311 12.5963C33.8105 12.817 33.512 12.9397 33.2026 12.9397Z" fill="#FFC300"/>
<path d="M38.2731 5.62787L34.6741 5.32422L27.7891 12.2093C27.9792 12.3994 28.2343 12.5245 28.519 12.5486L33.1043 12.9353C33.1373 12.9377 33.1699 12.9393 33.2029 12.9393C33.5123 12.9393 33.8108 12.8166 34.0314 12.5959L39.0031 7.62433C39.3256 7.30176 39.4318 6.82141 39.2753 6.39294C39.1184 5.96478 38.7275 5.66632 38.2731 5.62787Z" fill="#FAB400"/>
</g>
<defs>
<clipPath id="clip0_1444_226250">
<rect width="40" height="40" fill="white"/>
</clipPath>
</defs>
</svg>
