<svg width="33" height="33" viewBox="0 0 33 33" fill="none" xmlns="http://www.w3.org/2000/svg">
<g clip-path="url(#clip0_880_183631)">
<path d="M7.54721 29.0408L27.4412 27.7247C30.2791 24.9452 32.0408 21.0712 32.0408 16.7852C32.0408 8.32828 25.1851 1.47266 16.7283 1.47266C8.2714 1.47266 1.41577 8.32828 1.41577 16.7852C1.41577 21.7977 3.8244 26.2475 7.54721 29.0408Z" fill="#FF4155"/>
<path d="M30.187 7.82537L28.8864 7.47662L18.1132 4.58974C16.7795 4.23224 15.4089 5.02412 15.0514 6.35787L8.93274 29.1935H25.7031C26.3189 28.7472 26.9007 28.2569 27.4427 27.726L31.4789 12.6635L31.9552 10.8872C32.312 9.55349 31.5207 8.18224 30.187 7.82537Z" fill="#FFDD40"/>
<path d="M29.9445 8.73059L29.7145 8.66871L17.8708 5.49496C17.037 5.27184 16.1801 5.76621 15.957 6.59996L9.90308 29.1931H25.7045L25.7046 29.1934C25.8635 29.0783 26.0203 28.9603 26.1745 28.8393L30.9364 11.0662L31.0495 10.6437C31.2726 9.81059 30.7783 8.95371 29.9445 8.73059Z" fill="#FFC839"/>
<path d="M13.7852 29.1931L19.579 7.57048C19.8023 6.73692 20.6591 6.24229 21.4926 6.46561L17.8704 5.49504C17.0368 5.27167 16.1801 5.76636 15.9567 6.59992L9.90295 29.1931H13.7852Z" fill="#FFB332"/>
<path d="M20.5105 19.789C17.6764 19.0297 15.9946 16.1166 16.754 13.2826C17.5134 10.4485 20.4264 8.76671 23.2604 9.52609C26.0945 10.2855 27.7763 13.1985 27.0169 16.0325C26.2576 18.8665 23.3446 20.5484 20.5105 19.789Z" fill="#FFB332"/>
<path d="M21.8855 19.0352C24.3017 19.0352 26.2605 17.0764 26.2605 14.6602C26.2605 12.2439 24.3017 10.2852 21.8855 10.2852C19.4693 10.2852 17.5105 12.2439 17.5105 14.6602C17.5105 17.0764 19.4693 19.0352 21.8855 19.0352Z" fill="#FCA027"/>
<path d="M24.9039 15.4695C25.0878 14.7833 24.8644 14.0823 24.3826 13.624C24.2096 13.4595 24.0878 13.2485 24.0318 13.0165C23.8758 12.3701 23.3805 11.8261 22.6943 11.6422C22.008 11.4583 21.3071 11.6818 20.8488 12.1636C20.6843 12.3366 20.4733 12.4584 20.2412 12.5143C19.5948 12.6703 19.0508 13.1656 18.8669 13.8519C18.6831 14.5381 18.9065 15.2391 19.3883 15.6974C19.5613 15.8619 19.6831 16.0729 19.7391 16.305C19.8951 16.9513 20.3904 17.4953 21.0766 17.6792C21.7629 17.8631 22.4638 17.6396 22.9221 17.1578C23.0866 16.9848 23.2976 16.863 23.5297 16.8071C24.1761 16.6511 24.7201 16.1558 24.9039 15.4695Z" fill="#FFC839"/>
<path d="M21.8855 15.9102C22.5759 15.9102 23.1355 15.3505 23.1355 14.6602C23.1355 13.9698 22.5759 13.4102 21.8855 13.4102C21.1951 13.4102 20.6355 13.9698 20.6355 14.6602C20.6355 15.3505 21.1951 15.9102 21.8855 15.9102Z" fill="#FCA027"/>
<path d="M25.7045 29.192C23.1826 31.0202 20.0814 32.0977 16.7283 32.0977C13.2839 32.0977 10.1051 30.9608 7.54702 29.0408L2.64764 10.7583L1.50139 6.4808C1.14452 5.14705 1.93577 3.7758 3.26952 3.41892L15.3433 0.183298C16.5364 -0.136077 17.7589 0.463923 18.2595 1.5483C18.3183 1.67642 18.3676 1.8108 18.4051 1.95142L25.7045 29.192Z" fill="#FFE87F"/>
<path d="M24.8826 29.7475C22.5213 31.2363 19.7257 32.0975 16.7282 32.0975C13.7976 32.0975 11.0595 31.2744 8.73258 29.8463L3.2732 9.46941L2.40695 6.23753C2.18383 5.40441 2.6782 4.54753 3.51195 4.32441L15.5857 1.08878C16.1363 0.941283 16.6969 1.10691 17.0788 1.47691C17.2751 1.66691 17.4238 1.91066 17.4994 2.19378L24.8826 29.7475Z" fill="#FFDD40"/>
<path d="M13.1026 31.6673C11.5382 31.288 10.0676 30.6673 8.73258 29.848L3.2732 9.47109L2.40695 6.23922C2.18383 5.40609 2.6782 4.54922 3.51195 4.32609L7.13445 3.35547C6.3007 3.57859 5.8057 4.43547 6.02945 5.26922L6.14945 5.71609L13.1026 31.6673Z" fill="#FFC839"/>
<path d="M12.946 15.3828C10.1119 16.1422 7.19892 14.4603 6.43954 11.6263C5.68017 8.79221 7.36198 5.87921 10.196 5.11984C13.0301 4.36046 15.9431 6.04228 16.7025 8.87634C17.4619 11.7104 15.78 14.6234 12.946 15.3828Z" fill="#FFC839"/>
<path d="M11.571 14.6289C13.9873 14.6289 15.946 12.6702 15.946 10.2539C15.946 7.83766 13.9873 5.87891 11.571 5.87891C9.1548 5.87891 7.19604 7.83766 7.19604 10.2539C7.19604 12.6702 9.1548 14.6289 11.571 14.6289Z" fill="#FFB332"/>
<path d="M10.4387 6.02734C8.10857 6.65172 6.72075 9.05541 7.34513 11.3856C7.9695 13.7158 10.3733 15.1035 12.7034 14.4792C12.3699 14.5685 12.0273 14.3707 11.9379 14.0372C11.8486 13.7038 12.0464 13.3611 12.3799 13.2718L10.7623 7.23472C10.4288 7.32403 10.0861 7.12622 9.99682 6.79278C9.9075 6.45934 10.1053 6.11666 10.4387 6.02734Z" fill="#FCA027"/>
<path d="M14.5896 9.44571C14.4057 8.75946 13.8617 8.26415 13.2153 8.10815C12.9832 8.05215 12.7722 7.93033 12.6077 7.75733C12.1494 7.27552 11.4485 7.05208 10.7622 7.23596C10.076 7.41983 9.58068 7.96383 9.42468 8.61021C9.36868 8.84227 9.24686 9.05327 9.07386 9.21777C8.59205 9.67608 8.36861 10.377 8.55249 11.0633C8.73636 11.7495 9.28036 12.2448 9.92674 12.4008C10.1588 12.4568 10.3698 12.5786 10.5343 12.7516C10.9926 13.2335 11.6936 13.4569 12.3798 13.273C13.0661 13.0891 13.5614 12.5451 13.7174 11.8988C13.7734 11.6667 13.8952 11.4557 14.0682 11.2912C14.55 10.8329 14.7734 10.132 14.5896 9.44571Z" fill="#FFDD40"/>
<path d="M11.571 11.5039C12.2614 11.5039 12.821 10.9443 12.821 10.2539C12.821 9.56355 12.2614 9.00391 11.571 9.00391C10.8807 9.00391 10.321 9.56355 10.321 10.2539C10.321 10.9443 10.8807 11.5039 11.571 11.5039Z" fill="#FFB332"/>
<path d="M11.5711 10.2535C11.4517 9.80778 11.5908 9.3534 11.895 9.04771C11.6895 8.99209 11.4676 8.98715 11.2475 9.04609C10.5818 9.22446 10.1853 9.91128 10.3637 10.577C10.542 11.2428 11.2288 11.6393 11.8946 11.4609C12.1146 11.402 12.3043 11.2867 12.4545 11.1358C12.0382 11.0232 11.6905 10.6992 11.5711 10.2535Z" fill="#FCA027"/>
<path d="M16.8282 30.8125C17.346 30.8125 17.7657 30.3928 17.7657 29.875C17.7657 29.3572 17.346 28.9375 16.8282 28.9375C16.3105 28.9375 15.8907 29.3572 15.8907 29.875C15.8907 30.3928 16.3105 30.8125 16.8282 30.8125Z" fill="#FFC839"/>
<path d="M17.4203 20.0074L11.3832 21.625C10.8831 21.759 10.3691 21.4622 10.2351 20.962C10.1011 20.4619 10.3979 19.9479 10.898 19.8139L16.9351 18.1962C17.4352 18.0622 17.9492 18.359 18.0832 18.8592C18.2172 19.3593 17.9204 19.8734 17.4203 20.0074Z" fill="#FFC839"/>
<path d="M12.6499 20.3162C12.5159 19.816 12.8127 19.302 13.3128 19.168L10.898 19.815C10.3979 19.949 10.1011 20.4631 10.2351 20.9632C10.3691 21.4633 10.8831 21.7602 11.3832 21.6262L13.7981 20.9791C13.298 21.1131 12.7839 20.8163 12.6499 20.3162Z" fill="#FFB332"/>
<path d="M19.5983 23.3081L11.1464 25.5728C10.6463 25.7068 10.1322 25.41 9.99824 24.9099C9.86424 24.4098 10.161 23.8957 10.6612 23.7617L19.113 21.497C19.6132 21.363 20.1272 21.6598 20.2612 22.16C20.3952 22.6601 20.0984 23.1741 19.5983 23.3081Z" fill="#FFC839"/>
<path d="M12.413 24.2615C12.279 23.7613 12.5759 23.2473 13.076 23.1133L10.6612 23.7603C10.161 23.8943 9.86424 24.4084 9.99824 24.9085C10.1322 25.4087 10.6463 25.7055 11.1464 25.5715L13.5612 24.9244C13.0611 25.0584 12.547 24.7616 12.413 24.2615Z" fill="#FFB332"/>
<path d="M20.3263 26.023L11.8745 28.2877C11.3743 28.4217 10.8603 28.1249 10.7263 27.6247C10.5923 27.1246 10.8891 26.6105 11.3892 26.4765L19.8411 24.2119C20.3412 24.0779 20.8553 24.3747 20.9893 24.8748C21.1232 25.3749 20.8265 25.8889 20.3263 26.023Z" fill="#FFC839"/>
<path d="M13.1411 26.9802C13.0071 26.4801 13.3039 25.966 13.804 25.832L11.3892 26.4791C10.8891 26.6131 10.5923 27.1272 10.7263 27.6273C10.8603 28.1274 11.3743 28.4242 11.8745 28.2902L14.2893 27.6432C13.7891 27.7772 13.2751 27.4803 13.1411 26.9802Z" fill="#FFB332"/>
<path d="M26.7886 17.6365C26.4416 17.4474 26.1471 17.1748 25.9317 16.8435C25.8712 16.7505 25.7671 16.6951 25.6561 16.6995C25.5452 16.7038 25.4456 16.767 25.3924 16.8644C25.2034 17.2114 24.9308 17.5059 24.5995 17.7213C24.5064 17.7818 24.4511 17.886 24.4554 17.9969C24.4597 18.1078 24.5229 18.2075 24.6204 18.2606C24.9674 18.4496 25.2619 18.7222 25.4772 19.0535C25.5377 19.1465 25.6419 19.2018 25.7529 19.1975C25.8638 19.1932 25.9634 19.13 26.0166 19.0326C26.2056 18.6856 26.4782 18.3911 26.8095 18.1757C26.9026 18.1152 26.9579 18.011 26.9536 17.9001C26.9492 17.7891 26.8861 17.6896 26.7886 17.6365Z" fill="white"/>
<path d="M11.1567 22.7423C10.7615 22.7413 10.3727 22.6418 10.0256 22.4529C9.92803 22.3999 9.81016 22.4009 9.7146 22.4575C9.6191 22.5141 9.5616 22.6171 9.56128 22.7281C9.56022 23.1232 9.46072 23.512 9.27191 23.8591C9.21885 23.9567 9.21985 24.0746 9.27647 24.1701C9.3331 24.2656 9.43604 24.3231 9.5471 24.3234C9.94222 24.3245 10.331 24.424 10.6781 24.6128C10.7757 24.6659 10.8935 24.6649 10.9891 24.6083C11.0846 24.5516 11.1421 24.4487 11.1424 24.3377C11.1435 23.9426 11.243 23.5538 11.4318 23.2067C11.4848 23.1091 11.4838 22.9913 11.4272 22.8957C11.3707 22.8001 11.2677 22.7426 11.1567 22.7423Z" fill="white"/>
<path d="M6.81015 17.9244C6.34365 17.5587 5.97546 17.0825 5.7389 16.539C5.67246 16.3864 5.53202 16.2787 5.36677 16.2577C5.20159 16.2365 5.03859 16.3054 4.93584 16.4364C4.57015 16.9029 4.09402 17.2711 3.55052 17.5077C3.39784 17.5741 3.29027 17.7145 3.26915 17.8798C3.24802 18.045 3.31684 18.208 3.4479 18.3107C3.9144 18.6764 4.28259 19.1525 4.51915 19.696C4.58559 19.8487 4.72602 19.9563 4.89127 19.9774C5.05646 19.9985 5.21946 19.9297 5.32221 19.7987C5.6879 19.3322 6.16402 18.964 6.70752 18.7274C6.86021 18.661 6.96784 18.5205 6.9889 18.3553C7.00996 18.19 6.94121 18.0271 6.81015 17.9244Z" fill="white"/>
<path d="M20.6192 5.16682C20.2491 4.70382 20 4.15588 19.8945 3.57257C19.8649 3.4087 19.7529 3.27176 19.597 3.21326C19.441 3.15476 19.2666 3.18432 19.1365 3.28832C18.6735 3.65838 18.1256 3.90751 17.5423 4.01295C17.3784 4.04257 17.2415 4.15457 17.183 4.31051C17.1245 4.46645 17.154 4.64088 17.258 4.77095C17.6281 5.23395 17.8772 5.78188 17.9827 6.36513C18.0123 6.52901 18.1243 6.66595 18.2802 6.72445C18.4362 6.78295 18.6106 6.75338 18.7407 6.64938C19.2037 6.27932 19.7516 6.0302 20.3349 5.92476C20.4987 5.89513 20.6357 5.78313 20.6942 5.6272C20.7527 5.47132 20.7232 5.29695 20.6192 5.16682Z" fill="white"/>
</g>
<defs>
<clipPath id="clip0_880_183631">
<rect width="32" height="32" fill="white" transform="translate(0.728271 0.0976562)"/>
</clipPath>
</defs>
</svg>
