<svg width="32" height="32" viewBox="0 0 32 32" fill="none" xmlns="http://www.w3.org/2000/svg">
<g clip-path="url(#clip0_339_29102)">
<path d="M30.7917 13.2179L17.7392 13.2173C17.1629 13.2173 16.6957 13.6844 16.6957 14.2608V18.4305C16.6957 19.0067 17.1629 19.474 17.7392 19.474H25.0896C24.2847 21.5628 22.7824 23.3121 20.8658 24.4236L24 29.8492C29.0276 26.9415 32 21.8397 32 16.1285C32 15.3153 31.9401 14.734 31.8202 14.0795C31.7291 13.5822 31.2973 13.2179 30.7917 13.2179Z" fill="#167EE6"/>
<path d="M15.9999 25.7389C12.4028 25.7389 9.26257 23.7735 7.57601 20.8652L2.15063 23.9924C4.91157 28.7775 10.0837 31.9998 15.9999 31.9998C18.9023 31.9998 21.6408 31.2184 23.9999 29.8565V29.8491L20.8658 24.4235C19.4321 25.255 17.7731 25.7389 15.9999 25.7389Z" fill="#12B347"/>
<path d="M24 29.8569V29.8495L20.8658 24.4238C19.4322 25.2553 17.7733 25.7393 16 25.7393V32.0001C18.9023 32.0001 21.641 31.2187 24 29.8569Z" fill="#0F993E"/>
<path d="M6.26088 15.9999C6.26088 14.2268 6.74475 12.568 7.57606 11.1344L2.15069 8.00732C0.781375 10.359 0 13.0901 0 15.9999C0 18.9096 0.781375 21.6408 2.15069 23.9924L7.57606 20.8653C6.74475 19.4318 6.26088 17.7729 6.26088 15.9999Z" fill="#FFD500"/>
<path d="M15.9999 6.26088C18.3456 6.26088 20.5003 7.09437 22.1832 8.48081C22.5984 8.82281 23.2018 8.79813 23.5821 8.41781L26.5365 5.46344C26.968 5.03194 26.9373 4.32562 26.4763 3.92575C23.6566 1.47956 19.9879 0 15.9999 0C10.0837 0 4.91157 3.22231 2.15063 8.00744L7.57601 11.1346C9.26257 8.22625 12.4028 6.26088 15.9999 6.26088Z" fill="#FF4B26"/>
<path d="M22.1833 8.48081C22.5984 8.82281 23.2019 8.79813 23.5822 8.41781L26.5366 5.46344C26.968 5.03194 26.9373 4.32562 26.4764 3.92575C23.6567 1.4795 19.9879 0 16 0V6.26088C18.3456 6.26088 20.5003 7.09437 22.1833 8.48081Z" fill="#D93F21"/>
</g>
<defs>
<clipPath id="clip0_339_29102">
<rect width="32" height="32" fill="white"/>
</clipPath>
</defs>
</svg>
