<svg width="41" height="15" viewBox="0 0 41 15" fill="none" xmlns="http://www.w3.org/2000/svg">
<path d="M32.9869 1.9847C30.6628 3.56614 27.3953 4.12008 24.7402 3.3465L24.8047 2.83937C25.998 2.6445 26.263 1.07839 27.1701 0.406907C27.621 0.0688196 28.2285 -0.0345323 28.7715 0.134568C29.5259 0.370465 29.8881 0.941929 30.8332 1.44937C31.4959 1.78745 32.2414 1.9753 32.9869 1.9847Z" fill="#FFD880"/>
<path d="M31.0544 12.0459C28.8546 11.7548 26.8022 11.0692 24.8326 10.3272C25.8358 10.8814 26.1488 11.9238 25.6978 12.7597C25.256 13.5955 24.1607 14.2154 22.9366 14.4877C19.935 15.1555 15.3612 13.9586 13.1437 11.1913C11.938 12.647 9.62788 13.6425 7.22569 13.6989C4.8143 13.7646 2.38447 12.8536 1.17877 11.3979C0.00227675 9.98371 0.00230929 7.91903 1.5101 6.69268C3.20363 5.32148 5.7899 4.56075 8.27489 4.20387C13.5384 3.469 19.0267 4.35114 24.2528 3.58404C28.0809 3.01014 32.888 1.21449 36.7792 2.89847C38.3402 3.57369 39.8305 4.61735 40.4607 6.22309C41.517 9.22046 38.0722 12.9709 31.0544 12.0459Z" fill="#00C6C5"/>
<path d="M40.4141 6.0916C39.5793 9.7838 36.008 11.8381 32.554 11.6139C29.1551 11.3788 26.295 9.17524 25.0713 9.20023C24.6203 9.21903 24.1418 9.51017 24.0589 9.97036C23.9853 10.4305 24.3074 10.8438 24.5007 11.2664C24.9241 12.1962 23.9025 12.7597 23.2306 13.1729C21.9236 13.99 20.3314 14.3281 18.8127 14.1027C17.3954 13.8961 16.0608 12.6658 15.0668 11.689C14.4686 11.1068 13.8335 10.4399 13.0051 10.4024C11.7665 10.3431 10.906 11.6533 10.106 12.2901C8.08282 13.8941 4.57935 13.7663 1.51877 10.299C1.05858 9.78251 0.635184 9.20963 0.386719 8.56161C0.506317 7.86664 0.874492 7.20921 1.50956 6.69268C3.20309 5.32148 5.78936 4.56075 8.27435 4.20387C13.5378 3.469 19.0262 4.35114 24.2522 3.58404C28.0804 3.01014 32.8874 1.21449 36.7786 2.89847C38.4721 3.63099 39.8711 4.7392 40.4141 6.0916Z" fill="#018E9A"/>
<path d="M36.2643 9.55363C32.1859 11.8467 27.3336 8.90542 25.3486 8.82111C24.6859 8.7929 23.9864 8.99015 23.5354 9.49728C22.7623 10.3707 23.02 11.8264 22.3389 12.7844C21.621 13.7893 20.1576 13.8644 18.9704 13.5545C17.3689 13.1506 15.8871 12.2303 14.7826 10.9718C14.212 10.3237 13.5861 9.50668 12.7394 9.56303C11.9754 9.60057 11.46 10.3143 10.917 10.8685C9.39837 12.4275 6.93175 12.9253 4.93454 12.08C2.89134 11.2146 1.33821 8.92167 1.66714 6.56709C2.00525 4.83035 3.93096 3.69731 5.23823 2.85737C7.32445 1.58237 9.73098 1.01823 11.5981 1.10113C15.8749 1.22142 17.809 3.06596 23.8852 2.35964C29.873 1.53365 33.0018 -0.0330756 36.2919 1.10113C37.2821 1.43794 38.246 2.08336 38.7954 2.98887C40.1359 5.19512 38.4682 8.31548 36.2643 9.55363Z" fill="#FFD880"/>
<path d="M32.1127 0.829544C28.1321 2.43724 27.8304 4.98866 26.029 4.74585C25.1034 4.64092 24.064 3.43759 23.8845 2.40733V2.36039C24.5656 2.26643 25.2467 2.16314 25.9278 2.04104C26.3361 1.50516 26.6113 0.820678 27.1703 0.406907C27.6213 0.0688196 28.2287 -0.0345323 28.7718 0.134568C29.4407 0.34375 30.0711 1.00954 30.3272 1.13942C30.9254 1.01739 31.5145 0.904633 32.1127 0.829544Z" fill="#FFCA28"/>
<path d="M18.5003 2.30353C17.5247 3.6637 15.8071 3.70744 14.2941 3.06425C13.208 2.5922 12.4078 1.927 10.9531 1.11077C13.4176 1.00131 15.995 1.89611 18.5003 2.30353Z" fill="#FFCA28"/>
<path d="M27.3915 5.09028C27.1841 5.80431 26.8467 6.43359 26.5079 6.85592C26.4067 6.98742 25.8176 7.01556 25.6704 7.05316C23.8757 7.36305 21.9429 7.23161 20.231 6.49903C17.6993 5.39567 16.2167 2.86247 15.9512 2.59213C16.7434 2.7214 17.474 2.15143 18.1969 1.86895C19.1541 1.48392 20.2493 1.49326 21.1974 1.88776C23.0284 2.65986 24.1422 4.75414 26.195 5.13723C26.5908 5.21238 26.9958 5.21238 27.3915 5.09028Z" fill="black"/>
<path d="M36.2634 9.55163C32.185 11.8447 27.3327 8.90342 25.3477 8.81911C24.685 8.79091 23.9855 8.98816 23.5345 9.49528C22.7614 10.3687 23.0191 11.8244 22.338 12.7824C21.6201 13.7873 20.1567 13.8624 18.9694 13.5525C17.3679 13.1487 15.8861 12.2283 14.7816 10.9698C14.211 10.3218 13.5852 9.50468 12.7384 9.56103C11.9745 9.59858 11.4591 10.3124 10.9161 10.8665C9.39743 12.4255 6.93081 12.9233 4.93359 12.078C2.98233 11.2515 1.51895 9.1478 1.62018 6.96893C1.68462 5.40054 3.12962 4.21718 4.42734 3.36256C3.51461 6.3962 5.57749 9.04859 8.06286 8.96936C10.2166 8.91301 12.1586 6.82808 14.2202 7.42911C15.4167 7.7766 16.1806 8.89421 17.0366 9.80523C17.8925 10.7256 19.1995 11.5145 20.3039 10.9604C21.1783 10.5283 21.5281 9.47648 22.1999 8.77211C23.1847 7.72965 24.777 7.55121 26.176 7.8048C28.4906 8.22436 31.4611 10.0088 33.2997 8.56552C34.1281 7.91749 34.303 6.38665 33.401 5.84192C33.0604 5.63533 32.6279 5.58838 32.3701 5.27844C32.002 4.8464 32.2597 4.10448 32.7659 3.86029C33.2721 3.6161 33.8888 3.78514 34.349 4.10448C35.2128 4.72148 35.681 5.83517 36.6591 6.28335C37.1469 6.48994 37.3862 6.11431 37.6347 5.70107C38.1409 4.8652 38.279 3.79454 37.9385 2.86478C37.782 2.43274 37.5243 2.01016 37.3218 1.57812C37.9109 1.92561 38.4355 2.39519 38.7944 2.98687C40.2118 5.29724 38.3158 8.39648 36.2634 9.55163Z" fill="#FF9F1C"/>
<path d="M29.3974 6.3917C28.4586 7.28392 27.0321 7.25571 25.7436 7.29332C23.9764 7.33086 22.2185 7.57506 20.4606 7.54685C17.2668 7.49991 14.0915 6.56074 11.3672 4.87025L12.039 4.31612C12.8214 4.7951 13.8246 4.69181 14.6621 4.33492C17.084 3.30297 18.6926 0.320044 22.2553 2.96372C23.5155 3.88842 25.4696 5.99211 27.5659 5.29289C27.9394 5.1693 28.3182 4.93092 28.7072 4.85145C29.1029 4.76696 29.5999 4.87965 29.7656 5.25529C29.9405 5.64037 29.7012 6.10056 29.3974 6.3917Z" fill="#FFD880"/>
<path d="M28.5686 4.88494C27.8323 5.69261 26.6726 6.12464 25.6234 5.84285C24.7582 5.61746 24.0679 4.97883 23.3776 4.39655C22.0825 3.31049 20.5388 2.26562 18.877 1.98289C21.1164 1.35977 23.0257 3.81104 24.6846 4.79099C25.5497 5.30752 26.6081 5.60806 27.5654 5.28877C27.9059 5.17608 28.228 4.97883 28.5686 4.88494Z" fill="#FF9F1C"/>
<path d="M10.92 5.04481C10.3754 4.92121 10.042 5.1252 9.92914 5.39149C9.67138 5.99961 10.3907 6.40052 10.8924 6.47239C11.1927 6.51539 12.1436 6.41018 12.1662 5.98589C12.1907 5.52472 11.2539 5.1206 10.92 5.04481Z" fill="#FF9F1C"/>
<path d="M8.9784 3.33593C8.61741 3.43647 8.64327 3.96069 9.24397 4.04674C9.39282 4.06806 9.8643 4.0159 9.87548 3.80553C9.88668 3.59465 9.31611 3.24188 8.9784 3.33593Z" fill="#FF9F1C"/>
</svg>
