<svg width="116" height="126" viewBox="0 0 116 126" fill="none" xmlns="http://www.w3.org/2000/svg">
<path d="M56.9473 126C44.7571 125.548 34.0542 122.482 26.363 118.881C24.8788 118.06 24.1339 116.342 24.5486 114.698C24.7159 114.034 24.9057 113.381 25.1136 112.753C25.1557 112.614 25.1983 112.48 25.2477 112.34C25.8342 110.605 26.5926 108.893 27.4892 107.288C23.8571 104.996 20.5141 102.318 17.4891 99.2764C16.87 99.6931 16.1273 99.9293 15.3378 99.9293C13.6284 99.9293 12.1061 98.7813 11.6363 97.1379L11.1768 95.524L9.86393 95.2019C8.15751 94.7842 6.95067 93.2636 6.93147 91.5048C6.91622 90.0903 7.67197 88.8138 8.85224 88.1311C3.59149 79.3096 0.830811 69.3039 0.830811 58.9372C0.830811 32.4054 19.2266 9.32351 44.8572 3.2947L44.9741 2.85198C45.4149 1.1751 46.9384 0 48.6788 0C50.1325 0 51.4353 0.813586 52.0843 2.07555C54.0542 1.87154 56.0348 1.76868 58.0001 1.76868C78.529 1.76868 97.0402 12.4661 107.292 29.9661C108.63 30.2243 109.749 31.1816 110.195 32.5087L110.557 33.6041L111.527 33.9075C113.164 34.4275 114.262 35.9747 114.213 37.675C114.173 39.0369 113.405 40.258 112.253 40.9059C114.189 46.7162 115.169 52.7652 115.169 58.9372C115.169 77.8988 105.653 95.6586 90.0775 106.246C90.6395 107.032 91.1728 107.814 91.646 108.548C91.7253 108.661 91.8031 108.779 91.8742 108.89C92.6607 110.093 93.1278 110.913 93.1472 110.948C94.1417 112.695 93.5749 114.916 91.8643 115.974C91.3899 116.267 79.367 124.818 60.5405 125.904C59.3554 125.968 58.146 126.044 56.9473 126Z" fill="white"/>
<path d="M58.6362 112.37C88.1458 112.37 112.068 88.4473 112.068 58.9377C112.068 29.4281 88.1458 5.50586 58.6362 5.50586C29.1266 5.50586 5.20435 29.4281 5.20435 58.9377C5.20435 88.4473 29.1266 112.37 58.6362 112.37Z" fill="#C9CC39"/>
<path d="M90.5355 112.793C90.0783 113.076 89.6211 113.353 89.1641 113.618C89.1166 113.647 89.1038 113.51 89.0565 113.538C88.9783 113.584 88.8663 113.793 88.791 113.834C86.7937 114.989 84.8087 116 82.8414 116.884C82.7984 116.903 82.7267 116.57 82.6859 116.588C82.647 116.605 82.6389 116.972 82.6007 116.986C82.5045 117.034 82.4083 117.077 82.3121 117.119C82.2717 117.136 81.9988 116.908 81.9597 116.924C81.9176 116.941 82.109 117.202 82.0652 117.221C79.9358 118.141 77.8241 118.917 75.7428 119.555C75.7131 119.565 75.6602 119.345 75.6301 119.354C75.5758 119.371 75.5445 119.617 75.4901 119.633C75.418 119.657 75.3457 119.675 75.2797 119.693C75.2398 119.707 74.9854 119.456 74.9475 119.467C74.9054 119.48 75.0804 119.755 75.039 119.765C72.8554 120.415 70.7016 120.914 68.5904 121.287C68.5471 121.3 68.5611 121.061 68.5163 121.069C68.474 121.076 68.3726 121.329 68.3317 121.335C68.2958 121.347 68.2535 121.353 68.2114 121.359C68.1757 121.367 67.9862 121.197 67.9488 121.203C67.8981 121.211 67.9988 121.395 67.9468 121.402C65.6971 121.786 63.4953 122.027 61.3597 122.147C61.3136 122.153 61.2319 121.946 61.1859 121.949C61.1296 121.952 61.1091 122.166 61.0528 122.166C58.8571 122.286 56.7274 122.286 54.6883 122.196C54.6211 122.193 54.5397 122.08 54.4725 122.076C54.3952 122.071 54.3322 122.175 54.2549 122.172C52.1134 122.058 50.074 121.847 48.137 121.564C48.0322 121.548 47.8708 121.466 47.7642 121.45C47.7118 121.442 47.7135 121.5 47.6621 121.492C45.2196 121.113 42.9518 120.632 40.9066 120.102C40.85 120.085 40.7798 119.852 40.7247 119.837C40.6624 119.82 40.6154 120.022 40.5517 120.006C38.2657 119.398 36.2564 118.743 34.578 118.123C34.5332 118.106 34.6353 117.94 34.5935 117.924C34.5623 117.913 34.3863 118.052 34.3555 118.039C34.2534 118.003 34.151 117.967 34.0548 117.924C34.0058 117.907 33.981 117.758 33.9332 117.739C33.8988 117.726 33.841 117.843 33.8082 117.828C30.6139 116.607 28.8093 115.609 28.8093 115.609C28.9597 115.013 29.1283 114.435 29.3146 113.876C29.3296 113.825 29.5082 113.695 29.524 113.646C29.5397 113.596 29.3928 113.626 29.4108 113.575C29.9704 111.921 30.656 110.411 31.4201 109.052C31.4201 109.052 31.681 109.032 31.7022 108.995C31.7218 108.96 31.5405 108.835 31.5405 108.835C31.8774 108.246 32.2202 107.692 32.5751 107.163C32.5751 107.163 32.7796 107.168 32.8029 107.134C32.8275 107.097 32.7193 106.952 32.7193 106.952C36.6235 101.231 41.5021 98.6743 41.5021 98.6743L65.7212 98.0546L77.3196 97.7539C80.159 99.5465 82.8119 102.272 84.9955 104.918C85.2603 105.243 85.5248 105.562 85.7717 105.881C85.7717 105.881 85.6688 106.101 85.6936 106.132C85.7185 106.164 85.922 106.073 85.922 106.073C86.289 106.543 86.6441 107 86.9687 107.445C86.9687 107.445 86.8141 107.619 86.8427 107.66C86.8609 107.686 87.1131 107.644 87.1131 107.644C87.9434 108.769 88.6411 109.791 89.1825 110.633C89.2093 110.671 89.1296 110.962 89.1557 111C89.1884 111.049 89.3267 110.845 89.357 110.892C90.1145 112.053 90.5355 112.793 90.5355 112.793Z" fill="#5E2D42"/>
<path d="M84.9945 104.917C72.9514 108.356 59.9345 107.348 48.0489 103.283C45.6776 102.471 43.2582 101.488 41.512 99.6136C41.9414 99.6437 42.1656 98.9571 42.595 98.992C47.085 99.3378 51.5939 99.6035 56.0888 99.368C59.324 99.1926 62.5495 98.7516 65.7224 98.0546L77.3218 97.7539C80.1561 99.5484 82.8139 102.276 84.9945 104.917Z" fill="#491D30"/>
<path d="M33.9157 116.187C33.9998 116.758 34.0478 117.342 34.054 117.925C33.9698 117.895 33.8856 117.865 33.8074 117.829C33.7953 117.294 33.7533 116.752 33.675 116.223C33.6029 115.748 33.4946 115.2 33.2239 114.743C32.8932 114.183 32.3156 113.762 31.6359 113.594C31.0283 113.444 30.3485 113.492 29.6686 113.732C29.5482 113.774 29.4279 113.822 29.3137 113.877C29.3437 113.775 29.374 113.678 29.4099 113.576C29.4641 113.546 29.5241 113.522 29.5844 113.504C30.3124 113.245 31.0401 113.197 31.6959 113.36C32.4359 113.54 33.0735 114.003 33.4346 114.617C33.7294 115.116 33.8436 115.687 33.9157 116.187Z" fill="#FFE7E0"/>
<path d="M67.8503 120.686C67.9645 120.909 68.0848 121.137 68.2113 121.36C68.1272 121.378 68.0368 121.39 67.9468 121.402C67.8385 121.203 67.7361 120.999 67.634 120.8C67.1226 119.814 66.6415 118.881 65.7391 118.472C64.8369 118.057 63.6217 118.352 62.7855 119.194C62.1178 119.868 61.6485 120.837 61.3598 122.148C61.2575 122.16 61.1553 122.166 61.053 122.166C60.7099 121.402 60.3491 120.632 59.8016 120.018C59.1698 119.314 58.3518 118.965 57.6239 119.074C57.1187 119.152 56.6193 119.447 56.09 119.976C55.4103 120.662 54.9771 121.342 54.6882 122.196C54.5438 122.19 54.3993 122.178 54.2551 122.172C54.1168 121.377 53.9364 120.584 53.5454 119.886C53.0522 119.007 52.2157 118.454 51.4398 118.478C51.0608 118.496 50.6577 118.635 50.2125 118.905C49.256 119.495 48.51 120.463 48.137 121.564C47.9807 121.54 47.818 121.516 47.6618 121.492C47.4511 120.102 47.1024 118.767 46.1217 117.985C45.2796 117.317 44.0102 117.215 42.9695 117.72C42.0732 118.159 41.3212 119.02 40.9062 120.102C40.7859 120.066 40.6717 120.036 40.5514 120.006C40.4552 119.188 40.3407 118.346 40.0159 117.588C39.6248 116.667 38.9451 116.006 38.1992 115.807C37.4654 115.615 36.5991 115.855 35.8891 116.451C35.3236 116.914 34.9025 117.546 34.5777 118.123C34.4994 118.093 34.4273 118.069 34.355 118.039C34.6798 117.438 35.1312 116.764 35.7326 116.264C36.5026 115.615 37.4531 115.362 38.2593 115.573C39.0773 115.783 39.8173 116.505 40.2383 117.492C40.5511 118.22 40.6776 119.001 40.7677 119.778C41.2308 118.749 41.9767 117.937 42.8612 117.504C43.9861 116.95 45.3576 117.071 46.2721 117.792C47.3249 118.629 47.6918 120.03 47.9083 121.474C48.2994 120.325 49.0815 119.314 50.086 118.701C50.5674 118.406 51.0064 118.25 51.4336 118.238H51.4937C52.3479 118.238 53.2323 118.827 53.7617 119.766C54.1527 120.469 54.3452 121.282 54.4835 122.052C54.7842 121.185 55.2294 120.494 55.9212 119.802C56.4805 119.236 57.0281 118.923 57.5875 118.833C58.3996 118.707 59.2958 119.086 59.9817 119.85C60.5051 120.433 60.86 121.137 61.1787 121.847C61.4856 120.614 61.9546 119.687 62.6105 119.026C63.5309 118.093 64.8302 117.78 65.841 118.249C66.8216 118.695 67.3448 119.706 67.8503 120.686Z" fill="#FFE7E0"/>
<path d="M74.0104 118.01C74.5277 118.504 74.9187 119.093 75.2798 119.694C75.1956 119.724 75.1173 119.749 75.0391 119.767C74.6963 119.195 74.3173 118.642 73.8421 118.184C73.1082 117.481 72.1937 117.138 71.4057 117.27C70.5936 117.402 69.8175 118.052 69.3302 119.009C68.9633 119.719 68.7467 120.525 68.5902 121.288C68.506 121.313 68.4157 121.325 68.3315 121.337C68.494 120.53 68.7226 119.658 69.1075 118.894C69.6309 117.878 70.4731 117.18 71.3634 117.03C72.2417 116.879 73.2104 117.24 74.0104 118.01Z" fill="#FFE7E0"/>
<path d="M82.3121 117.121C82.2279 117.156 82.1497 117.187 82.0655 117.223C81.4761 116.483 80.712 115.947 79.8999 115.731C78.6605 115.4 77.3252 115.821 76.5852 116.784C76.0138 117.53 75.8211 118.504 75.7431 119.557C75.6589 119.587 75.5745 119.611 75.4904 119.635C75.5686 118.51 75.7611 117.457 76.3928 116.639C77.1869 115.598 78.6246 115.135 79.9661 115.496C80.8623 115.731 81.6804 116.308 82.3121 117.121Z" fill="#FFE7E0"/>
<path d="M89.1639 113.618C89.0374 113.697 88.9111 113.769 88.7908 113.835C87.3649 112.494 86.1438 111.994 85.0671 112.301C83.9664 112.62 83.3046 113.739 83.0519 114.683C82.8594 115.399 82.8233 116.139 82.8412 116.885C82.7571 116.921 82.6788 116.957 82.6005 116.987C82.5764 116.205 82.6126 115.387 82.8171 114.617C83.0878 113.613 83.8037 112.415 85.0007 112.066C86.1497 111.729 87.437 112.241 88.9168 113.613C88.7664 112.62 88.8688 111.591 89.1816 110.635C89.2419 110.719 89.3019 110.809 89.3561 110.893C89.0977 111.772 89.0197 112.716 89.1639 113.618Z" fill="#FFE7E0"/>
<path d="M87.1127 107.644C83.8701 110.002 80.0261 111.843 75.8273 113.046C71.3816 114.315 66.4307 114.935 60.728 114.935C60.3852 114.935 60.0421 114.935 59.6934 114.929C49.4126 114.797 39.9018 112.823 31.4197 109.052C31.4559 108.979 31.4979 108.907 31.54 108.835C39.986 112.589 49.4608 114.55 59.6993 114.682C65.8172 114.76 71.075 114.147 75.7552 112.811C79.9361 111.614 83.7441 109.785 86.9685 107.445C87.0223 107.512 87.0706 107.578 87.1127 107.644Z" fill="#FFE7E0"/>
<path d="M85.9214 106.075C82.9437 108.048 79.5267 109.6 75.8272 110.659C71.3815 111.928 66.4306 112.548 60.7278 112.548C60.385 112.548 60.042 112.548 59.6933 112.542C49.8817 112.416 40.762 110.611 32.5745 107.164C32.6227 107.092 32.6707 107.02 32.7189 106.954C40.8641 110.376 49.9356 112.169 59.6992 112.296C65.8171 112.374 71.0748 111.76 75.7551 110.425C79.4307 109.378 82.8175 107.832 85.7713 105.883C85.825 105.949 85.8732 106.009 85.9214 106.075Z" fill="#FFE7E0"/>
<path d="M58.2132 103.681C44.834 103.681 32.2358 97.7896 23.6488 87.5176C16.8938 79.4388 13.1741 69.1839 13.1741 58.6412C13.1741 33.803 33.3786 13.5957 58.2132 13.5957C64.0879 13.5957 69.8091 14.7137 75.2182 16.919C76.839 17.5809 78.4047 18.3276 79.8721 19.1392C94.2932 27.0627 103.253 42.1989 103.253 58.6412C103.253 68.2051 100.288 77.3448 94.6798 85.0724C86.2231 96.7245 72.5909 103.681 58.2132 103.681ZM58.2132 14.7989C34.0418 14.7989 14.377 34.4664 14.377 58.6414C14.377 68.9023 17.9975 78.8836 24.5717 86.7461C32.9292 96.7437 45.1911 102.478 58.2132 102.478C72.2068 102.478 85.4752 95.7071 93.706 84.3656C99.1644 76.8452 102.049 67.9499 102.049 58.6414C102.049 42.6382 93.3288 27.9056 79.2911 20.193C77.8635 19.4035 76.3407 18.677 74.7635 18.033C69.4998 15.8868 63.9314 14.7989 58.2132 14.7989Z" fill="white"/>
<path d="M93.4049 59.8186H88.2674L87.7081 63.3316L84.989 80.3982L68.8789 80.2478L42.034 81.8841L37.7599 61.208L37.0679 57.9778L52.7327 28.6875L84.1045 33.0308L91.8469 55.3249L92.8994 58.3568L93.4049 59.8186Z" fill="#F5755D"/>
<path d="M60.4393 79.3243L59.0316 79.4267L58.8813 79.4387L56.1381 79.6373L55.9877 79.6494L53.6597 79.8177L53.5093 79.8298L51.6264 79.9681L51.4761 79.9801L49.8639 80.0943L49.7135 80.1064L48.2338 80.2147L48.4324 79.8957L47.1451 68.2555C47.0488 67.371 47.1089 66.5048 47.3075 65.6929C47.3316 65.5785 47.3675 65.4643 47.3976 65.356C47.6924 64.3756 48.1855 63.4791 48.8352 62.7331C48.8773 62.6849 48.9196 62.6369 48.9617 62.5948C49.7797 61.7106 50.8205 61.0548 52.0116 60.7361C52.0596 60.724 52.1078 60.7061 52.1619 60.6999C52.4265 60.6337 52.7033 60.5857 52.9861 60.5555C53.2086 60.5313 53.4251 60.5195 53.6417 60.5195C54.2431 60.5195 54.8269 60.6037 55.3803 60.7723C55.4286 60.7843 55.4827 60.7964 55.5307 60.8144C56.4993 61.1212 57.3774 61.6626 58.1053 62.3785C58.1595 62.4268 58.2136 62.4809 58.2678 62.5409C59.465 63.7803 60.223 65.5066 60.253 67.4257L60.4393 79.3243Z" fill="#5E2D42"/>
<path d="M59.2305 63.7975C59.0981 63.6292 58.9539 63.4668 58.8035 63.3102C58.7494 63.2499 58.6952 63.196 58.6411 63.1478C57.9131 62.4319 57.0348 61.8905 56.0665 61.5839C56.0182 61.5659 55.9641 61.5539 55.9161 61.5418C55.3626 61.3735 54.7791 61.2891 54.1774 61.2891C53.9609 61.2891 53.7443 61.3011 53.5216 61.3252C53.2388 61.3553 52.9622 61.4035 52.6974 61.4697C52.6433 61.4758 52.5951 61.4938 52.5471 61.5059C51.356 61.8248 50.3152 62.4804 49.497 63.3646C49.4549 63.4067 49.4128 63.4549 49.3707 63.5029C48.721 64.2488 48.2279 65.1451 47.9331 66.1258C47.903 66.2341 47.8669 66.3485 47.8427 66.4627C47.6441 67.2748 47.5841 68.1411 47.6803 69.0253L48.9135 80.1664L48.2338 80.2147L48.4324 79.8957L47.1451 68.2555C47.0488 67.371 47.1089 66.5048 47.3075 65.6929C47.3316 65.5785 47.3675 65.4643 47.3976 65.356C47.6924 64.3756 48.1855 63.4791 48.8352 62.7331C48.8773 62.6849 48.9196 62.6369 48.9617 62.5948C49.7797 61.7106 50.8205 61.0548 52.0116 60.7361C52.0596 60.724 52.1078 60.7061 52.1619 60.6999C52.4265 60.6337 52.7033 60.5857 52.9861 60.5555C53.2086 60.5313 53.4251 60.5195 53.6417 60.5195C54.2431 60.5195 54.8269 60.6037 55.3803 60.7723C55.4286 60.7843 55.4827 60.7964 55.5307 60.8144C56.4993 61.1212 57.3774 61.6626 58.1053 62.3785C58.1595 62.4268 58.2136 62.4809 58.2678 62.5409C58.6288 62.9192 58.9536 63.3403 59.2305 63.7975Z" fill="#491D30"/>
<path opacity="0.3" d="M57.3426 51.1521C57.3426 53.7991 55.1949 55.9527 52.542 55.9527C51.363 55.9527 50.2861 55.5257 49.4501 54.8157C48.4032 53.9433 47.7417 52.6201 47.7417 51.1521C47.7417 48.4992 49.8894 46.3516 52.5423 46.3516C54.022 46.3516 55.3517 47.0192 56.23 48.0779C56.9276 48.9082 57.3426 49.9851 57.3426 51.1521Z" fill="#C32D02"/>
<path d="M57.3423 51.1516C57.3423 53.7986 55.1947 55.9522 52.5418 55.9522C51.3627 55.9522 50.2858 55.5252 49.4499 54.8152C48.764 53.9911 48.355 52.9203 48.355 51.7654C48.355 49.1125 50.5026 46.9648 53.1555 46.9648C54.3287 46.9648 55.3994 47.38 56.2295 48.0777C56.9274 48.9078 57.3423 49.9847 57.3423 51.1516Z" fill="#FFDEEC"/>
<path d="M52.5805 56.0373C49.8514 56.0373 47.6311 53.817 47.6311 51.0881C47.6311 48.3589 49.8514 46.1387 52.5805 46.1387C55.3097 46.1387 57.53 48.3589 57.53 51.0881C57.53 53.8168 55.3097 56.0373 52.5805 56.0373ZM52.5805 46.5659C50.0871 46.5659 48.0586 48.5944 48.0586 51.0879C48.0586 53.5813 50.0871 55.6096 52.5805 55.6096C55.074 55.6096 57.1025 53.5813 57.1025 51.0879C57.1025 48.5947 55.074 46.5659 52.5805 46.5659Z" fill="white"/>
<path d="M52.7175 46.3516H52.29V55.8227H52.7175V46.3516Z" fill="white"/>
<path d="M57.3164 51.1562H47.8447V51.5837H57.3164V51.1562Z" fill="white"/>
<path opacity="0.4" d="M92.8994 58.3559L92.8573 59.8177H88.2674L87.708 63.3307L85.9994 74.0508L85.9152 74.5863L84.9889 80.3973L68.8789 80.247L69.0052 74.3336L69.0231 73.5394L69.3241 59.2042L82.324 52.8516L91.8468 55.3241L92.8994 58.3559Z" fill="#C32D02"/>
<path opacity="0.4" d="M93.4049 59.8186H88.2674L87.7081 63.3316L69.5286 63.4039L53.1417 31.966L37.375 59.5878L37.0679 57.9778L52.7327 28.6875L84.1045 33.0308L93.4049 59.8186Z" fill="#C32D02"/>
<path opacity="0.59" d="M79.7255 26.0069C79.7255 26.0249 79.7194 26.0431 79.7135 26.0611C79.7075 26.0852 79.6893 26.1573 79.6893 26.1814L76.5551 25.8445L74.8647 25.6641C73.7216 25.5258 72.6808 24.7737 72.1818 23.7392C71.6824 22.7046 71.7486 21.4173 72.3562 20.4425C72.9097 19.5342 73.8481 18.9386 74.5339 18.1324C74.7084 17.9279 74.8647 17.7054 74.9912 17.4766C76.5671 18.1203 78.1013 18.848 79.5811 19.6663C78.2937 19.967 76.904 20.0273 75.9477 20.8995C75.5808 21.2302 75.298 21.7298 75.4302 22.205C75.5747 22.7102 76.122 22.993 76.6333 23.0772C77.1506 23.1616 77.6861 23.1072 78.1914 23.2396C79.3283 23.5406 80.0683 24.882 79.7255 26.0069Z" fill="white"/>
<path d="M35.7365 60.4256C35.688 60.4256 35.639 60.4138 35.5937 60.3894C35.4476 60.3104 35.3934 60.1278 35.4722 59.9817L52.4696 28.5464C52.5486 28.4002 52.7315 28.3461 52.8774 28.4248C53.0236 28.5038 53.0777 28.6864 52.999 28.8326L36.0015 60.2679C35.9469 60.3685 35.8435 60.4256 35.7365 60.4256Z" fill="white"/>
<path d="M70.3462 61.5599L52.6318 28.2305L85.1932 31.8655L98.1973 61.7647L70.3462 61.5599Z" fill="white"/>
<path d="M73.2234 25.7083V31.5289H80.4259L80.384 26.0435C80.384 26.0435 73.1816 25.6665 73.2234 25.7083Z" fill="white"/>
<path d="M85.9994 74.0524L85.9152 74.5879C85.5362 75.0331 85.2114 75.5324 84.9407 76.098C84.3934 77.2228 83.8278 78.9854 83.7978 80.1706C83.7978 80.2547 83.7316 80.3209 83.6475 80.3209C83.5633 80.315 83.4971 80.2488 83.4971 80.1646C83.5032 79.954 83.5212 79.6774 83.5392 79.3584C83.6475 77.4035 83.8699 73.3306 82.1916 72.7833C81.8847 72.6812 81.506 72.8013 81.217 73.0843C80.477 73.8002 80.1101 75.0934 79.8394 76.0379C79.7914 76.2003 79.737 76.5734 79.6711 77.0004C79.4904 78.2577 79.3162 79.2563 79.0275 79.6053C79.0275 79.6415 79.0214 79.6715 79.0096 79.6956C78.9734 79.7739 78.8954 79.8159 78.811 79.798C78.7448 79.7918 78.6365 79.7438 78.6126 79.5393C78.5464 79.0459 78.5043 78.5407 78.4623 78.0475C78.3481 76.6458 78.2277 75.196 77.614 73.8907C77.3794 73.3914 76.9343 72.8138 76.3808 72.6696C76.068 72.5855 75.7491 72.6516 75.4424 72.8682C73.7099 74.0893 73.5296 77.3557 73.4213 79.305L73.4092 79.5096C73.4031 79.5937 73.3371 79.654 73.2589 79.654C73.1867 79.6661 73.1144 79.5937 73.1085 79.5157C72.9402 77.6929 72.7536 76.0566 72.1219 74.5348C71.9595 74.1437 71.7188 73.6565 71.3278 73.3136C70.9488 72.9888 70.4435 72.8626 70.0525 72.9947C69.499 73.1812 69.2042 73.7167 69.0059 74.3362L69.0238 73.542C69.2283 73.181 69.5232 72.8562 69.9563 72.7119C70.4556 72.5436 71.0571 72.6819 71.5264 73.0909C71.9656 73.4699 72.2243 73.9993 72.3988 74.4144C72.8378 75.4793 73.0664 76.58 73.2229 77.7652C73.3974 75.8703 73.8364 73.6326 75.2682 72.6278C75.6531 72.3509 76.0562 72.2729 76.4593 72.375C77.0128 72.5254 77.5421 73.0427 77.8849 73.7586C78.5226 75.1182 78.6488 76.5921 78.7632 78.0236C78.7994 78.4388 78.8353 78.8719 78.8836 79.293C79.094 78.8537 79.2746 77.6506 79.3767 76.959C79.4429 76.5018 79.4971 76.141 79.5512 75.9545C79.8278 74.9799 80.213 73.6444 81.0069 72.8685C81.3738 72.5074 81.8731 72.363 82.2821 72.4954C83.8222 73.0006 83.9664 75.7738 83.9004 77.9695C84.1232 77.2295 84.3998 76.5198 84.6705 75.9663C85.0248 75.2194 85.4821 74.5938 85.9994 74.0524Z" fill="white"/>
<path d="M94.1932 84.2549C93.5856 85.0912 92.9479 85.9092 92.28 86.7033C92.1838 86.8175 92.0876 86.9319 91.9914 87.0461C89.6392 89.7952 86.9563 92.2557 84.0024 94.3613C83.3107 94.8547 82.6068 95.3299 81.8909 95.781C75.039 100.112 66.9179 102.615 58.2133 102.615C48.4197 102.615 39.3662 99.4446 32.021 94.0726C31.5759 93.7477 31.1368 93.4167 30.7096 93.0798C28.2915 91.179 26.0835 89.0255 24.1104 86.6671C26.5346 84.7961 29.3802 83.4608 32.3638 82.7749H32.37C32.4662 82.7449 32.5624 82.7267 32.6587 82.7028C32.9835 82.6366 33.3024 82.5707 33.6273 82.5163C34.2711 82.408 34.9146 82.3297 35.5643 82.2876C37.1765 82.1673 38.8007 82.2456 40.401 82.5283C41.7907 80.2003 46.8017 76.8436 49.3042 75.7846C61.5341 70.6112 73.5533 72.9632 85.6569 78.4375C86.6435 78.8886 87.624 79.37 88.5746 79.9052V79.9114C88.6829 79.9655 88.7912 80.0317 88.8995 80.0918C89.1222 80.2183 89.3385 80.3504 89.555 80.4828C90.0182 80.7656 90.4695 81.0604 90.9086 81.3732C90.9447 81.3973 90.9748 81.4212 91.0109 81.4453V81.4514C92.1659 82.2697 93.2428 83.1962 94.1932 84.2549Z" fill="white"/>
<path opacity="0.57" d="M81.8912 95.7811C75.0392 100.112 66.9181 102.615 58.2135 102.615C48.4199 102.615 39.3664 99.4447 32.0212 94.0727C32.7672 93.8441 33.5372 93.7058 34.3193 93.6637C36.7015 93.5313 39.1139 94.3134 40.9727 95.8052C42.3744 93.6335 44.3594 91.6965 46.5071 90.2588C47.662 89.4887 48.9193 88.8332 50.2789 88.5745C51.4159 88.3518 52.589 88.4121 53.726 88.6227C57.7265 89.3748 61.2936 92.1719 62.9781 95.8776C64.5361 94.2954 66.6356 93.4051 68.8553 93.4533C71.0751 93.4954 73.2589 94.4879 74.7507 96.1303C75.208 96.6296 75.599 97.1831 76.0681 97.6763C77.8545 96.846 79.8877 96.118 81.8912 95.7811Z" fill="#FFE7E0"/>
<path opacity="0.57" d="M59.1338 80.1928C59.1338 80.5604 58.2858 80.8585 57.2396 80.8585C56.1935 80.8585 55.3455 80.5604 55.3455 80.1928C55.3455 79.8251 56.1935 79.5273 57.2396 79.5273C58.2858 79.5271 59.1338 79.8251 59.1338 80.1928Z" fill="#FFE7E0"/>
<path opacity="0.57" d="M63.2808 84.3395C63.2808 84.7072 62.4328 85.0052 61.3866 85.0052C60.3405 85.0052 59.4922 84.7072 59.4922 84.3395C59.4922 83.9718 60.3402 83.6738 61.3866 83.6738C62.4328 83.6738 63.2808 83.9718 63.2808 84.3395Z" fill="#FFE7E0"/>
<path opacity="0.57" d="M69.2709 80.0387C69.2709 80.4062 68.4229 80.7042 67.3767 80.7042C66.3306 80.7042 65.4825 80.4062 65.4825 80.0387C65.4825 79.6711 66.3306 79.373 67.3767 79.373C68.4229 79.373 69.2709 79.6711 69.2709 80.0387Z" fill="#FFE7E0"/>
<path d="M33.6503 71.8085L36.5705 87.8046L33.3904 88.3854L30.475 72.4146C30.4203 72.1156 30.3108 71.84 30.1553 71.5988C29.9353 71.2577 29.6355 70.9838 29.2873 70.8044C28.9091 70.6041 28.4705 70.5066 28.0185 70.5497C27.9463 70.5497 27.8826 70.5613 27.8127 70.5741C27.5012 70.6309 27.2137 70.7493 26.9686 70.9189C26.5623 71.177 26.2577 71.5612 26.0955 72.0049C25.9419 72.3878 25.8942 72.8106 25.9719 73.2368L26.3576 75.3483L23.1773 75.9288L22.7919 73.8173C22.7629 73.6584 22.7402 73.4982 22.724 73.337C22.6755 72.8199 22.7058 72.3019 22.8005 71.8114C23.0304 70.5864 23.6692 69.4775 24.5921 68.6649C24.9268 68.3738 25.3013 68.1215 25.703 67.9101C26.1787 67.6721 26.6851 67.4942 27.2322 67.3943C27.8937 67.2735 28.5517 67.2784 29.1763 67.3877C29.6176 67.4649 30.0428 67.5976 30.442 67.7679C31.1933 68.104 31.8612 68.5933 32.4011 69.211C32.6846 69.5405 32.9285 69.9035 33.1311 70.2935C33.3737 70.7614 33.5516 71.2678 33.6503 71.8085Z" fill="#FFE7E0"/>
<path d="M26.0522 73.675L26.3261 75.1759C25.0634 74.7031 23.8526 74.083 22.7237 73.3361C22.6753 72.819 22.7055 72.301 22.8003 71.8105C23.8036 72.5542 24.9039 73.1815 26.0522 73.675Z" fill="#F5755D"/>
<path d="M26.9683 70.9191C26.562 71.1773 26.2574 71.5614 26.0952 72.0052C25.9667 71.8051 25.8636 71.6006 25.763 71.4086C25.3175 70.5173 24.9272 69.6028 24.5916 68.6649C24.9262 68.3738 25.3008 68.1216 25.7024 67.9102C26.0356 68.9076 26.4439 69.8843 26.9176 70.8232C26.9366 70.8525 26.9499 70.8896 26.9683 70.9191Z" fill="#F5755D"/>
<path d="M30.4418 67.7669C29.9186 68.7169 29.5274 69.7413 29.2874 70.8037C28.9092 70.6034 28.4706 70.506 28.0186 70.549C28.2654 69.4524 28.655 68.3824 29.1764 67.3867C29.6174 67.464 30.0427 67.5966 30.4418 67.7669Z" fill="#F5755D"/>
<path d="M30.6155 73.1844L30.4749 72.4148C30.4203 72.1158 30.3108 71.8402 30.1553 71.599C30.8168 70.7224 31.5708 69.9209 32.4009 69.2109C32.6844 69.5405 32.9283 69.9034 33.1308 70.2935C32.1678 71.1396 31.3134 72.1107 30.6155 73.1844Z" fill="#F5755D"/>
<path d="M33.6506 71.8086L33.912 73.2396C32.8889 74.0441 31.9503 74.9515 31.122 75.9572L30.8247 74.3291C31.6873 73.4028 32.631 72.5599 33.6506 71.8086Z" fill="#F5755D"/>
<path d="M34.375 75.7773L34.6304 77.1766C33.6182 77.861 32.6659 78.6197 31.758 79.4427L31.4851 77.9479C32.4013 77.1697 33.3658 76.4416 34.375 75.7773Z" fill="#F5755D"/>
<path d="M35.0033 79.2188L35.2588 80.618C34.2503 81.3214 33.2885 82.1015 32.3967 82.9414L32.1238 81.4466C33.0277 80.6375 33.9963 79.8955 35.0033 79.2188Z" fill="#F5755D"/>
<path d="M35.6476 82.748L35.9042 84.1537C34.9044 84.8686 33.9512 85.6603 33.0493 86.5153L32.7729 85.0015C33.683 84.1911 34.643 83.4374 35.6476 82.748Z" fill="#F5755D"/>
<path opacity="0.2" d="M32.023 73.7281L34.6565 88.1532L33.3908 88.3845L30.4753 72.4138C30.2489 71.1734 29.0529 70.3468 27.8128 70.5732C26.5728 70.7996 25.7459 71.9956 25.9723 73.2357L26.3579 75.3472L24.7106 75.6479L24.6072 75.0819C24.087 72.2324 25.3295 69.6068 27.3713 69.234C29.4191 68.8604 31.5028 70.8789 32.023 73.7281Z" fill="#F5755D"/>
<path d="M30.0394 68.7817C30.0581 68.9822 30.1662 69.1644 30.2956 69.3184C30.51 69.5731 30.7851 69.768 31.057 69.96C31.2455 70.0929 31.4737 70.2324 31.6919 70.1583C31.859 70.1015 31.9656 69.9263 31.9818 69.7508C31.9981 69.5753 31.938 69.4006 31.8568 69.2443C31.6489 68.8444 31.2898 68.5262 30.8707 68.3618C30.4787 68.2078 29.9858 68.2026 30.0394 68.7817Z" fill="white"/>
<path d="M31.8647 71.0509C31.9499 71.299 32.2607 71.4508 32.5002 71.3435C32.6045 71.2965 32.6869 71.2106 32.7526 71.1168C32.7942 71.0575 32.8307 70.9933 32.8454 70.9224C32.8658 70.8225 32.8403 70.7164 32.7873 70.6293C32.4738 70.1145 31.6625 70.4622 31.8647 71.0509Z" fill="white"/>
<path d="M30.4309 87.3345C30.9844 86.669 31.7842 86.2133 32.6389 86.0764C33.4935 85.9396 34.3957 86.1227 35.1293 86.5819C35.8942 85.9704 37.0508 85.5655 38.001 85.8035C38.9509 86.0412 39.7608 86.8634 39.8669 87.837C39.3845 88.5804 38.6822 89.1538 37.8878 89.5466C36.2687 90.3469 34.5559 90.9579 32.7959 91.363C32.6873 91.3879 32.5724 91.412 32.4666 91.3775C32.349 91.3392 32.2655 91.2368 32.1915 91.1376C31.4027 90.0856 30.7097 88.6188 30.4309 87.3345Z" fill="white"/>
<path d="M93.9128 72.2152L89.7108 85.584L87.053 84.7488L91.2481 71.4011C91.3266 71.1513 91.3539 70.8971 91.332 70.6505C91.3015 70.3021 91.1829 69.9728 90.9897 69.6959C90.7818 69.3913 90.4867 69.1408 90.1247 68.9919C90.0696 68.9628 90.0164 68.9461 89.9578 68.9279C89.6975 68.8459 89.4307 68.8208 89.1758 68.8516C88.7621 68.8851 88.3757 69.0556 88.0738 69.3288C87.8028 69.5589 87.5966 69.8621 87.4846 70.2184L86.9299 71.9831L84.2721 71.1476L84.8268 69.3829C84.8686 69.25 84.9156 69.1189 84.968 68.9894C85.1388 68.5757 85.3702 68.193 85.6394 67.8569C86.307 67.0155 87.2395 66.4266 88.2699 66.178C88.642 66.0907 89.0291 66.0486 89.4201 66.0488C89.8786 66.0587 90.3361 66.1266 90.7933 66.2701C91.3461 66.4438 91.8459 66.7118 92.2783 67.0462C92.5837 67.2825 92.8544 67.5544 93.0904 67.8448C93.5282 68.403 93.8407 69.0443 94.0039 69.7324C94.0878 70.0976 94.1277 70.4721 94.1252 70.8511C94.1227 71.3059 94.0548 71.7634 93.9128 72.2152Z" fill="#FFE7E0"/>
<path d="M87.3694 70.5837L86.9752 71.8382C86.2024 70.9705 85.5286 70.011 84.9683 68.988C85.1391 68.5743 85.3704 68.1916 85.6396 67.8555C86.1057 68.8256 86.6924 69.746 87.3694 70.5837Z" fill="#F5755D"/>
<path d="M89.176 68.8516C88.7623 68.8851 88.3759 69.0556 88.074 69.3288C88.0562 69.1245 88.0599 68.9271 88.0602 68.7404C88.0789 67.8817 88.1488 67.0275 88.2699 66.178C88.6419 66.0907 89.029 66.0486 89.4201 66.0488C89.2734 66.9431 89.192 67.852 89.176 68.7581C89.1784 68.7881 89.1738 68.8216 89.176 68.8516Z" fill="#F5755D"/>
<path d="M93.0903 67.8452C92.3097 68.359 91.5997 68.9829 90.9899 69.6966C90.7819 69.3919 90.4869 69.1414 90.1249 68.9925C90.7536 68.2557 91.4806 67.5964 92.2784 67.0469C92.5836 67.2829 92.8543 67.5551 93.0903 67.8452Z" fill="#F5755D"/>
<path d="M91.046 72.0445L91.2481 71.4014C91.3266 71.1516 91.3539 70.8974 91.332 70.6508C92.1886 70.2485 93.0856 69.9404 94.0038 69.7324C94.0877 70.0976 94.1276 70.4722 94.1251 70.8512C93.0514 71.1093 92.0097 71.5063 91.046 72.0445Z" fill="#F5755D"/>
<path d="M93.9128 72.2148L93.5368 73.4109C92.4335 73.6131 91.3534 73.9279 90.3176 74.3615L90.7453 73.0009C91.7755 72.6411 92.8334 72.378 93.9128 72.2148Z" fill="#F5755D"/>
<path d="M92.8703 75.5332L92.5026 76.7026C91.456 76.8176 90.4249 77.0132 89.4021 77.276L89.7949 76.0269C90.8058 75.8012 91.834 75.6339 92.8703 75.5332Z" fill="#F5755D"/>
<path d="M91.9665 78.4082L91.5988 79.5776C90.5473 79.7086 89.5006 79.9168 88.4833 80.1988L88.876 78.9496C89.8899 78.6961 90.9267 78.5197 91.9665 78.4082Z" fill="#F5755D"/>
<path d="M91.0391 81.3574L90.6697 82.532C89.6201 82.6753 88.5754 82.896 87.5441 83.1849L87.9418 81.9197C88.9613 81.668 89.9961 81.4792 91.0391 81.3574Z" fill="#F5755D"/>
<path opacity="0.2" d="M91.9 73.0254L88.1106 85.0813L87.0529 84.7488L91.2481 71.4011C91.5739 70.3646 90.9944 69.2537 89.9578 68.9279C88.9213 68.6021 87.8104 69.1816 87.4846 70.2182L86.9299 71.9829L85.553 71.5503L85.7016 71.0773C86.4502 68.6958 88.4527 67.1934 90.1589 67.7297C91.8709 68.2676 92.6486 70.6439 91.9 73.0254Z" fill="#F5755D"/>
<path d="M92.376 68.4572C92.3095 68.6176 92.3189 68.7998 92.3558 68.9693C92.4166 69.2496 92.5482 69.5088 92.6784 69.7644C92.7687 69.9416 92.8864 70.1397 93.0828 70.1708C93.2329 70.1946 93.3847 70.1038 93.4677 69.9766C93.5506 69.8494 93.575 69.6921 93.5757 69.5403C93.5779 69.1519 93.432 68.7648 93.1785 68.4712C92.9413 68.1961 92.5677 67.994 92.376 68.4572Z" fill="white"/>
<path d="M92.8548 70.9206C92.8201 71.1441 92.9961 71.3847 93.2218 71.3988C93.3202 71.4049 93.4177 71.3724 93.5053 71.3274C93.5606 71.2991 93.6145 71.2646 93.6542 71.2164C93.71 71.1485 93.7332 71.0572 93.7277 70.9696C93.6957 70.4513 92.9373 70.3903 92.8548 70.9206Z" fill="white"/>
<path d="M85.2185 82.7595C85.9081 82.4745 86.701 82.4487 87.4075 82.6876C88.1141 82.9266 88.7283 83.4289 89.1031 84.0739C89.9319 83.9149 90.9764 84.0712 91.6051 84.6342C92.2339 85.1973 92.5208 86.1494 92.2103 86.9345C91.5439 87.3073 90.7778 87.4624 90.0144 87.4424C88.4583 87.4018 86.9072 87.1793 85.4026 86.7809C85.3098 86.7563 85.2124 86.7285 85.1457 86.6596C85.0713 86.5831 85.049 86.4713 85.0322 86.366C84.8538 85.2475 84.9151 83.8509 85.2185 82.7595Z" fill="white"/>
<path d="M35.3784 43.2295L36.3066 43.5199C36.3561 43.5354 36.3541 43.6061 36.3039 43.6189L35.4438 43.8362C35.0279 43.9413 34.6967 44.2548 34.5687 44.664L34.2466 45.6952C34.2313 45.7439 34.1619 45.7429 34.1479 45.6939L33.8634 44.6945C33.7421 44.2683 33.4013 43.94 32.9708 43.8344L32.1048 43.6221C32.0532 43.6095 32.0524 43.5362 32.1039 43.5226L33.0267 43.2766C33.4544 43.1624 33.7881 42.8279 33.9013 42.4L34.1509 41.4562C34.1639 41.4067 34.2333 41.4048 34.2493 41.4532L34.5759 42.4398C34.7004 42.8168 34.9991 43.1109 35.3784 43.2295Z" fill="#FFE7E0"/>
<path d="M44.702 26.4559L46.242 26.9377C46.3242 26.9636 46.321 27.0807 46.2376 27.1019L44.8105 27.4624C44.1205 27.6367 43.5709 28.1569 43.3585 28.8361L42.824 30.547C42.7987 30.6277 42.6838 30.6264 42.6606 30.545L42.1886 28.8871C41.9873 28.18 41.422 27.6352 40.7081 27.4602L39.2712 27.1078C39.1855 27.0869 39.1843 26.9653 39.2697 26.9427L40.8009 26.5344C41.5104 26.3452 42.0641 25.7902 42.2519 25.0802L42.6658 23.5146C42.6874 23.4326 42.8026 23.4292 42.8292 23.5097L43.3709 25.1467C43.5771 25.7713 44.073 26.259 44.702 26.4559Z" fill="#FFE7E0"/>
<path d="M99.5797 49.0139L100.467 49.2915C100.514 49.3062 100.512 49.3737 100.464 49.386L99.642 49.5937C99.2445 49.6941 98.928 49.9936 98.8057 50.3849L98.4979 51.37C98.4833 51.4165 98.4171 51.4158 98.4039 51.3688L98.1319 50.4139C98.016 50.0066 97.6904 49.6929 97.2792 49.5922L96.4518 49.3894C96.4024 49.3774 96.4019 49.3075 96.4509 49.2942L97.3326 49.0589C97.7411 48.9501 98.0603 48.6305 98.1683 48.2215L98.4068 47.3198C98.4191 47.2725 98.4856 47.2706 98.5008 47.3168L98.8126 48.2596C98.9322 48.6199 99.2174 48.9007 99.5797 49.0139Z" fill="#FFE7E0"/>
<path d="M22.0158 47.5303C22.0158 48.1241 21.5345 48.6054 20.9407 48.6054C20.3468 48.6054 19.8655 48.1241 19.8655 47.5303C19.8655 46.9364 20.3468 46.4551 20.9407 46.4551C21.5345 46.4551 22.0158 46.9367 22.0158 47.5303Z" fill="#FFE7E0"/>
<path d="M54.3213 18.2959C54.3213 18.8897 53.8399 19.3711 53.2461 19.3711C52.6523 19.3711 52.1709 18.8897 52.1709 18.2959C52.1709 17.7021 52.6523 17.2207 53.2461 17.2207C53.8399 17.2207 54.3213 17.7021 54.3213 18.2959Z" fill="#FFE7E0"/>
<path d="M68.7589 25.0537C68.7589 25.6475 68.2775 26.1289 67.684 26.1289C67.0901 26.1289 66.6088 25.6475 66.6088 25.0537C66.6088 24.4599 67.0901 23.9785 67.684 23.9785C68.2778 23.9785 68.7589 24.4599 68.7589 25.0537Z" fill="#FFE7E0"/>
<path d="M94.4602 38.6728C94.4602 39.2667 93.9788 39.748 93.385 39.748C92.7912 39.748 92.3098 39.2667 92.3098 38.6728C92.3098 38.079 92.7912 37.5977 93.385 37.5977C93.9786 37.5977 94.4602 38.079 94.4602 38.6728Z" fill="#FFE7E0"/>
<path d="M97.8902 65.3975C97.8902 65.9913 97.4089 66.4726 96.815 66.4726C96.2212 66.4726 95.7399 65.9913 95.7399 65.3975C95.7399 64.8036 96.2212 64.3223 96.815 64.3223C97.4089 64.3223 97.8902 64.8036 97.8902 65.3975Z" fill="#FFE7E0"/>
<path d="M32.3066 61.9658C32.3066 62.5596 31.8253 63.041 31.2314 63.041C30.6376 63.041 30.1562 62.5596 30.1562 61.9658C30.1562 61.372 30.6376 60.8906 31.2314 60.8906C31.8253 60.8906 32.3066 61.372 32.3066 61.9658Z" fill="#FFE7E0"/>
<path d="M24.6782 78.1963C24.6782 78.7901 24.1968 79.2715 23.603 79.2715C23.0092 79.2715 22.5278 78.7901 22.5278 78.1963C22.5278 77.6025 23.0092 77.1211 23.603 77.1211C24.1968 77.1211 24.6782 77.6025 24.6782 78.1963Z" fill="#FFE7E0"/>
<path d="M21.4752 42.743C21.3478 44.5397 21.8353 46.7445 23.5515 47.2915C24.4535 47.579 25.4622 47.2876 26.2349 46.7405C27.0074 46.1932 27.5843 45.4175 28.1235 44.6394C30.2987 41.4997 32.088 38.0928 33.4386 34.52C33.7684 33.6476 34.0762 32.7393 34.0383 31.8073C34.0007 30.8754 33.5454 29.9055 32.7033 29.5049C31.8097 29.0799 30.7367 29.386 29.8685 29.8607C25.2934 32.3615 21.8429 37.5598 21.4752 42.743Z" fill="white"/>
<path d="M19.0118 52.2675C18.6343 53.5026 18.6288 54.988 19.5136 55.9291C20.1066 56.5596 21.0322 56.8328 21.8876 56.7013C22.7433 56.5697 23.519 56.0598 24.0459 55.3732C24.8939 54.2677 25.0782 52.6602 24.4061 51.4399C22.8981 48.7011 19.8096 49.6567 19.0118 52.2675Z" fill="white"/>
<path d="M101.718 85.2868L103.415 85.8176C103.505 85.8459 103.501 85.9751 103.409 85.9983L101.838 86.3955C101.078 86.5874 100.472 87.1603 100.239 87.9085L99.6496 89.7928C99.6218 89.8819 99.4951 89.8802 99.4697 89.7906L98.9497 87.9643C98.728 87.1854 98.1054 86.5855 97.3189 86.3925L95.7363 86.0044C95.6418 85.9813 95.6405 85.8477 95.7343 85.8226L97.421 85.3727C98.2026 85.1643 98.8124 84.553 99.0191 83.7711L99.4752 82.0465C99.499 81.9562 99.6258 81.9522 99.6551 82.0411L100.252 83.844C100.479 84.5328 101.026 85.07 101.718 85.2868Z" fill="#FFE7E0"/>
<path d="M109.351 36.9433L111.048 37.4741C111.138 37.5024 111.135 37.6316 111.043 37.6548L109.471 38.052C108.711 38.2439 108.105 38.8168 107.872 39.5649L107.283 41.4493C107.255 41.5384 107.129 41.5367 107.103 41.4471L106.583 39.6206C106.361 38.8417 105.739 38.2417 104.952 38.0488L103.369 37.6607C103.275 37.6375 103.274 37.5039 103.368 37.4788L105.054 37.029C105.836 36.8205 106.446 36.2092 106.652 35.4274L107.108 33.7027C107.132 33.6124 107.259 33.6085 107.288 33.6973L107.885 35.5002C108.113 36.1895 108.659 36.7267 109.351 36.9433Z" fill="#FFE7E0"/>
<path d="M51.4667 7.04658L53.163 7.5774C53.2536 7.60571 53.2499 7.73491 53.1581 7.75804L51.5863 8.15523C50.8264 8.34719 50.2207 8.92009 49.9872 9.66822L49.3983 11.5526C49.3705 11.6416 49.244 11.6399 49.2184 11.5503L48.6984 9.72408C48.4766 8.94519 47.854 8.34522 47.0675 8.15228L45.4849 7.76419C45.3904 7.74106 45.3892 7.60743 45.4832 7.58233L47.1696 7.13247C47.9512 6.92403 48.5611 6.31273 48.7678 5.53089L49.2238 3.80626C49.2477 3.71595 49.3744 3.71201 49.4037 3.80085L50.0002 5.60373C50.2281 6.2928 50.7739 6.83002 51.4667 7.04658Z" fill="#FFE7E0"/>
<path d="M12.697 43.2827L13.9388 43.6712C14.005 43.6919 14.0023 43.7864 13.9351 43.8034L12.7844 44.094C12.2282 44.2346 11.785 44.6539 11.6137 45.2015L11.1828 46.5808C11.1624 46.646 11.0696 46.6448 11.0511 46.5791L10.6704 45.2423C10.508 44.6721 10.0525 44.2331 9.47663 44.0918L8.31802 43.8078C8.24886 43.7908 8.24788 43.6929 8.31678 43.6747L9.55144 43.3454C10.1236 43.1928 10.57 42.7454 10.7214 42.173L11.0551 40.9106C11.0725 40.8444 11.1653 40.8417 11.1867 40.9066L11.6233 42.2264C11.7902 42.7307 12.1898 43.1239 12.697 43.2827Z" fill="#FFE7E0"/>
<path d="M18.5607 90.7121L20.5939 91.3482C20.7022 91.3822 20.698 91.537 20.5878 91.5648L18.7037 92.0407C17.7929 92.2708 17.0672 92.9574 16.7869 93.8542L16.0811 96.1129C16.0476 96.2197 15.896 96.2177 15.8652 96.1102L15.2419 93.9212C14.9761 92.9875 14.23 92.2684 13.2872 92.0373L11.3903 91.5722C11.2771 91.5444 11.2753 91.3842 11.3881 91.3541L13.4097 90.815C14.3466 90.5652 15.0775 89.8325 15.3253 88.8952L15.8719 86.828C15.9004 86.7197 16.0525 86.715 16.0875 86.8213L16.8024 88.9823C17.076 89.8084 17.7304 90.4522 18.5607 90.7121Z" fill="#FFE7E0"/>
<path d="M85.5792 16.6631C85.5792 17.2569 85.0978 17.7383 84.504 17.7383C83.9102 17.7383 83.4288 17.2569 83.4288 16.6631C83.4288 16.0692 83.9102 15.5879 84.504 15.5879C85.0978 15.5881 85.5792 16.0695 85.5792 16.6631Z" fill="#FFE7E0"/>
<path d="M108.358 62.0652C108.358 62.659 107.876 63.1404 107.282 63.1404C106.689 63.1404 106.207 62.659 106.207 62.0652C106.207 61.4714 106.689 60.9902 107.282 60.9902C107.876 60.99 108.358 61.4714 108.358 62.0652Z" fill="#FFE7E0"/>
<path d="M85.8972 97.3681C85.8972 97.962 85.4158 98.4433 84.822 98.4433C84.2282 98.4433 83.7468 97.962 83.7468 97.3681C83.7468 96.7743 84.2282 96.293 84.822 96.293C85.4158 96.2932 85.8972 96.7743 85.8972 97.3681Z" fill="#FFE7E0"/>
<path d="M33.1394 99.1162C33.1394 99.71 32.658 100.191 32.0642 100.191C31.4704 100.191 30.989 99.71 30.989 99.1162C30.989 98.5224 31.4704 98.041 32.0642 98.041C32.658 98.0413 33.1394 98.5226 33.1394 99.1162Z" fill="#FFE7E0"/>
<path d="M8.80881 63.0185C8.80881 63.6124 8.32746 64.0935 7.73363 64.0935C7.13981 64.0935 6.65845 63.6121 6.65845 63.0185C6.65845 62.4247 7.13981 61.9434 7.73363 61.9434C8.32746 61.9434 8.80881 62.4247 8.80881 63.0185Z" fill="#FFE7E0"/>
<path d="M25.8244 22.626C25.8244 23.2198 25.3431 23.7011 24.7493 23.7011C24.1554 23.7011 23.6741 23.2198 23.6741 22.626C23.6741 22.0321 24.1554 21.5508 24.7493 21.5508C25.3431 21.5508 25.8244 22.0321 25.8244 22.626Z" fill="#FFE7E0"/>
</svg>
