<svg width="21" height="20" viewBox="0 0 21 20" fill="none" xmlns="http://www.w3.org/2000/svg">
<path fill-rule="evenodd" clip-rule="evenodd" d="M18.979 5.57827L13.593 1.12502C11.7787 -0.375008 9.2213 -0.375008 7.40703 1.12502L2.02097 5.57827C1.05059 6.38059 0.5 7.59705 0.5 8.8663V15.8109C0.5 18.066 2.23415 20 4.5 20H6.5C7.60457 20 8.5 19.1046 8.5 18V14.7478C8.5 13.4803 9.4521 12.5587 10.5 12.5587C11.5479 12.5587 12.5 13.4803 12.5 14.7478V18C12.5 19.1046 13.3954 20 14.5 20H16.5C18.7659 20 20.5 18.066 20.5 15.8109V8.8663C20.5 7.59706 19.9494 6.38059 18.979 5.57827Z" fill="#0E0226"/>
</svg>
