<svg width="91" height="160" viewBox="0 0 91 160" fill="none" xmlns="http://www.w3.org/2000/svg">
<path fill-rule="evenodd" clip-rule="evenodd" d="M4.01108 13.1613C4.84318 12.7623 5.42935 12.5342 5.76975 12.4772C6.11016 12.4392 6.47904 12.4867 6.87618 12.6197C7.29223 12.7718 7.54745 13.0093 7.642 13.3323C7.73656 13.6363 8.47418 14.7384 9.85471 16.6385C11.2352 18.5386 11.8971 19.6312 11.8404 19.9162C11.8026 20.2012 11.5472 20.5053 11.0744 20.8283C10.6206 21.1323 10.11 21.3698 9.54265 21.5408C8.9564 21.6929 8.38906 21.7118 7.84063 21.5978C7.27329 21.5028 6.27096 20.4197 4.8337 18.3486C3.41535 16.2965 2.66838 15.1754 2.59273 14.9854C2.51709 14.7764 2.52657 14.5199 2.62113 14.2158C2.71569 13.8928 3.17899 13.5413 4.01108 13.1613ZM51.3839 0.734488C51.8946 0.430468 52.4241 0.221434 52.9725 0.107426C53.502 -0.0255825 53.9937 -0.0350761 54.4475 0.0789313C54.9014 0.21194 55.1851 0.449455 55.2985 0.791478C55.412 1.1525 55.3459 3.07161 55.1001 6.54884C54.8731 10.0071 54.6461 11.9452 54.4191 12.3632C54.2111 12.7623 53.9369 13.0758 53.5965 13.3038C53.2561 13.5318 52.6699 13.7598 51.8378 13.9879C51.0058 14.1969 50.4289 14.2539 50.1074 14.1589C49.8049 14.0638 49.559 13.8928 49.3699 13.6458C49.1997 13.3988 49.2375 12.7813 49.4833 11.7932C49.7292 10.8051 49.8994 8.905 49.994 6.09282C50.0886 3.29963 50.2114 1.77954 50.3627 1.53252C50.4951 1.3045 50.8355 1.03851 51.3839 0.734488ZM14.4785 27.9823C14.6676 27.9062 14.8662 27.8302 15.0742 27.7542C15.4524 27.6022 15.7171 27.4122 15.8684 27.1842C16.0197 26.9562 16.171 26.8612 16.3223 26.8992C16.4547 26.9182 16.5587 26.8422 16.6344 26.6712C16.6722 26.5762 16.7005 26.4907 16.7194 26.4147C16.7762 26.4337 16.8235 26.4621 16.8613 26.5001C16.9747 26.5571 17.2396 26.4337 17.6556 26.1296C17.8637 25.9966 18.0716 25.8541 18.2796 25.7021C18.2985 25.7401 18.327 25.7781 18.3648 25.8161C18.3837 25.8731 18.412 25.9206 18.4499 25.9586C19.1496 25.4076 19.8493 24.8565 20.549 24.3055C21.9484 23.2034 22.7711 22.6524 23.017 22.6524C23.2817 22.6714 23.641 22.5194 24.0949 22.1964C24.5487 21.8733 25.1255 21.5883 25.8253 21.3413C26.525 21.1133 26.9032 21.0373 26.9599 21.1133C27.0167 21.2083 27.4044 21.0943 28.123 20.7713C28.8227 20.4673 29.305 20.2867 29.5698 20.2297C29.8345 20.1537 30.0709 20.1727 30.2789 20.2868C30.4681 20.4008 30.6665 20.3247 30.8745 20.0587C30.9691 19.9257 31.0636 19.8022 31.1582 19.6882C31.1771 19.7262 31.2056 19.7642 31.2434 19.8022C31.3001 19.8972 31.5743 19.8592 32.066 19.6882C32.5766 19.5172 32.9548 19.4697 33.2007 19.5457C33.4276 19.6407 33.7303 19.5837 34.1085 19.3747C34.4678 19.1847 34.619 19.0137 34.5622 18.8617C34.5433 18.7857 34.5245 18.7096 34.5056 18.6336C34.5812 18.7476 34.6568 18.8521 34.7325 18.9471C34.8649 19.1562 35.5173 19.1657 36.6898 18.9757C37.8434 18.7857 38.6093 18.5956 38.9875 18.4056C39.3468 18.2156 39.6117 18.1206 39.7819 18.1206C39.971 18.1206 40.1411 18.2251 40.2924 18.4341C40.3492 18.5291 40.4154 18.6336 40.4911 18.7476C40.5856 18.6146 40.6802 18.4816 40.7747 18.3486C40.9827 18.0826 41.1907 17.9401 41.3987 17.9211C41.6257 17.8831 41.777 17.9971 41.8526 18.2631C41.8715 18.3961 41.8998 18.5291 41.9377 18.6621C42.1079 18.5101 42.2781 18.3581 42.4483 18.2061C42.7888 17.9021 43.0724 17.8261 43.2994 17.9781C43.5452 18.1301 43.7721 18.1301 43.9801 17.9781C44.0747 17.9211 44.1787 17.8546 44.2922 17.7786C44.3111 17.8166 44.3394 17.8546 44.3772 17.8926C44.3962 17.9306 44.4246 17.9781 44.4624 18.0351C44.5381 17.9781 44.6231 17.9211 44.7177 17.8641C44.869 17.7311 45.2188 17.7026 45.7672 17.7786C46.2967 17.8356 46.6844 17.8071 46.9303 17.6931C47.1572 17.5981 47.4504 17.5791 47.8097 17.6361C48.169 17.7121 48.3486 17.8356 48.3486 18.0066C48.3486 18.1016 48.3486 18.1966 48.3486 18.2916C48.4999 18.1966 48.6418 18.0921 48.7741 17.9781C49.0767 17.7881 49.5779 17.7501 50.2777 17.8641C50.9963 17.9971 51.4974 18.1776 51.7811 18.4056C51.9134 18.5386 52.0553 18.6621 52.2066 18.7761C52.1498 18.8141 52.0836 18.8522 52.0079 18.8902C51.9512 18.9472 51.8946 18.9947 51.8378 19.0327C51.9135 19.1087 51.9891 19.1752 52.0647 19.2322C52.216 19.3842 52.4807 19.4507 52.8589 19.4317C53.2183 19.4317 53.7951 19.5552 54.5894 19.8022C55.3836 20.0682 55.8186 20.1157 55.8943 19.9447C55.9132 19.8497 55.9415 19.7642 55.9793 19.6882C55.9793 19.7452 55.97 19.8117 55.9511 19.8877C55.9322 20.0397 55.9794 20.1633 56.0929 20.2583C56.2253 20.3533 56.3954 20.3247 56.6034 20.1727C56.7169 20.0967 56.821 20.0207 56.9155 19.9447C56.9722 20.0777 57.029 20.2012 57.0857 20.3152C57.1803 20.5623 57.4545 20.7428 57.9084 20.8568C58.3622 20.9708 58.6742 20.9708 58.8444 20.8568C58.9201 20.7998 59.0051 20.7428 59.0997 20.6858C59.1753 20.8188 59.2605 20.9423 59.3551 21.0563C59.5253 21.3033 59.9981 21.5978 60.7734 21.9398C61.5677 22.2629 62.031 22.4339 62.1634 22.4529C62.3147 22.4719 62.4376 22.4244 62.5321 22.3104C62.5699 22.2344 62.6172 22.1679 62.674 22.1109C62.6929 22.2249 62.7118 22.3389 62.7307 22.4529C62.7686 22.6809 62.882 22.8424 63.0711 22.9374C63.2791 23.0514 63.4589 23.0514 63.6101 22.9374C63.7047 22.8804 63.7898 22.8234 63.8654 22.7664C63.8843 22.8804 63.9032 22.9944 63.9221 23.1084C63.9599 23.3365 64.9622 23.973 66.929 25.0181C68.8958 26.0821 70.8342 27.3742 72.7442 28.8943C74.6732 30.4144 76.4225 31.9915 77.9921 33.6256C79.5618 35.2787 81.1598 37.1884 82.7861 39.3545C84.4125 41.5206 85.6512 43.4303 86.5022 45.0834C87.3343 46.7365 88.034 48.3706 88.6014 49.9857C89.1498 51.5818 89.547 52.9499 89.7928 54.0899C90.0198 55.249 90.1806 57.0066 90.2751 59.3628C90.3697 61.7189 90.379 62.9255 90.3034 62.9825C90.2277 63.0585 90.1711 63.8186 90.1333 65.2627C90.0955 66.7258 89.8874 68.2173 89.5092 69.7374C89.1309 71.2385 88.9701 72.1221 89.0269 72.3881C89.1025 72.6541 89.0459 72.8822 88.8568 73.0722C88.7811 73.1672 88.6959 73.2622 88.6014 73.3572C88.6581 73.3952 88.7243 73.4427 88.8 73.4997C88.9135 73.5947 88.9418 73.9177 88.885 74.4688C88.8283 75.0008 88.6865 75.3143 88.4595 75.4094C88.3461 75.4664 88.2232 75.5233 88.0908 75.5803C88.2043 75.6943 88.3178 75.8084 88.4313 75.9224C88.5258 76.0174 88.6297 76.1219 88.7432 76.2359C88.6675 76.2739 88.592 76.3024 88.5163 76.3214C88.4407 76.3404 88.3651 76.3594 88.2894 76.3784C88.3462 76.4734 88.4028 76.5589 88.4595 76.6349C88.573 76.806 88.5636 76.9675 88.4313 77.1195C88.2989 77.2715 88.2421 77.4615 88.261 77.6895C88.2989 77.9175 88.2421 78.06 88.0908 78.117C88.0152 78.136 87.9396 78.155 87.8639 78.174C87.9017 78.326 87.949 78.4781 88.0058 78.6301C88.1003 78.9531 88.0151 79.4186 87.7503 80.0266C87.5045 80.6347 87.2776 81.0147 87.0696 81.1667C86.8615 81.3187 86.7954 81.4898 86.8711 81.6798C86.9467 81.8698 86.8994 82.0313 86.7292 82.1643C86.559 82.2783 86.455 82.5633 86.4172 83.0193C86.3605 83.4944 86.1808 83.8744 85.8782 84.1594C85.5757 84.4254 85.4054 84.7579 85.3675 85.157C85.3486 85.556 85.1217 85.841 84.6868 86.012C84.4598 86.107 84.2424 86.1925 84.0344 86.2685C84.0911 86.4015 84.1477 86.5251 84.2045 86.6391C84.299 86.8861 84.3085 87.0951 84.2329 87.2661C84.1761 87.4371 83.9587 87.6462 83.5805 87.8932C83.3914 88.0262 83.2023 88.1592 83.0131 88.2922C83.0699 88.3682 83.1172 88.4347 83.155 88.4917C83.1928 88.5487 83.2401 88.6057 83.2968 88.6627C83.1644 88.7197 83.0414 88.7767 82.928 88.8337C82.701 88.9287 82.5876 89.0332 82.5876 89.1472C82.6066 89.2612 82.4647 89.3658 82.1621 89.4608C82.0108 89.5178 81.8595 89.5653 81.7082 89.6033C81.7461 89.6603 81.7839 89.7173 81.8217 89.7743C81.9162 89.9073 81.8312 90.0973 81.5664 90.3443C81.3016 90.5913 81.1408 90.8953 81.0841 91.2563C81.0274 91.6174 80.7532 92.0259 80.2615 92.4819C79.7887 92.938 79.5335 93.2705 79.4957 93.4795C79.4578 93.7075 79.316 93.9071 79.0702 94.0781C78.8054 94.2491 78.5311 94.3441 78.2474 94.3631C78.0961 94.3631 77.9449 94.3726 77.7936 94.3915C77.8126 94.4676 77.8409 94.5436 77.8787 94.6196C77.9165 94.7716 77.6139 95.1422 76.9709 95.7312C76.6494 96.0162 76.3185 96.3012 75.9781 96.5863C76.0348 96.6243 76.0915 96.6527 76.1483 96.6717C76.2428 96.7287 76.2523 96.8428 76.1767 97.0138C76.1199 97.1848 75.9308 97.3557 75.6093 97.5268C75.458 97.6028 75.2972 97.6788 75.127 97.7548C75.1649 97.7928 75.1933 97.8403 75.2122 97.8973C75.25 97.9353 75.2784 97.9733 75.2973 98.0113C75.2027 98.0873 75.0987 98.1633 74.9852 98.2393C74.7772 98.3723 74.6638 98.6004 74.6449 98.9234C74.626 99.2654 74.5125 99.5029 74.3044 99.6359C74.2099 99.7119 74.1058 99.788 73.9924 99.864C74.0302 99.902 74.0586 99.9399 74.0775 99.9779C74.1343 100.073 73.671 100.653 72.6876 101.717C71.7042 102.781 71.0611 103.731 70.7585 104.567C70.4749 105.384 70.248 105.849 70.0778 105.963C69.9076 106.096 69.794 106.467 69.7373 107.075C69.6617 107.683 69.5388 108.044 69.3686 108.158C69.1984 108.272 69.0282 108.699 68.858 109.441C68.7067 110.182 68.4987 110.771 68.2339 111.208C67.9692 111.626 67.8368 112.053 67.8368 112.49C67.8368 112.927 67.6855 113.383 67.3829 113.858C67.0803 114.314 66.9668 114.732 67.0424 115.112C67.137 115.492 67.0236 115.73 66.7021 115.825C66.3995 115.92 66.2577 116.015 66.2766 116.11C66.2766 116.167 66.2861 116.224 66.305 116.281C66.3807 116.262 66.4562 116.243 66.5319 116.224C66.6832 116.186 66.7967 116.262 66.8724 116.452C66.9102 116.547 66.948 116.642 66.9858 116.737C66.9101 116.756 66.8344 116.785 66.7588 116.823C66.6075 116.861 66.5414 117.032 66.5603 117.336C66.5792 117.621 66.4752 117.782 66.2482 117.82C66.1348 117.839 66.0212 117.858 65.9078 117.877C65.9834 117.972 66.0591 118.077 66.1348 118.191C66.2861 118.4 66.2671 118.628 66.078 118.875C65.87 119.141 65.87 119.426 66.078 119.73C66.286 120.015 66.2577 120.319 65.993 120.642C65.7093 120.946 65.6242 121.183 65.7377 121.354C65.8511 121.525 65.8227 121.886 65.6525 122.437C65.4823 123.007 65.4823 123.359 65.6525 123.492C65.7281 123.568 65.8039 123.634 65.8795 123.691C65.785 123.786 65.6997 123.881 65.6241 123.976C65.435 124.167 65.2743 124.651 65.1419 125.43C65.0096 126.209 64.9811 126.665 65.0568 126.798C65.1135 126.855 65.1608 126.922 65.1986 126.998C65.1419 127.036 65.0757 127.074 65.0001 127.112C64.8866 127.207 64.8488 127.454 64.8867 127.853C64.9245 128.271 64.811 128.508 64.5462 128.565C64.4138 128.603 64.272 128.632 64.1207 128.651C64.2531 128.917 64.3759 129.183 64.4894 129.449C64.7353 129.962 64.8015 130.541 64.688 131.187C64.5746 131.815 64.5841 132.242 64.7164 132.47C64.7921 132.565 64.8677 132.67 64.9433 132.784C64.8298 132.784 64.7165 132.793 64.603 132.812C64.3761 132.85 64.2342 132.955 64.1775 133.126C64.1018 133.297 64.1679 133.534 64.376 133.838C64.584 134.123 64.603 134.418 64.4328 134.722C64.3571 134.874 64.2814 135.026 64.2057 135.178C64.2814 135.14 64.3571 135.111 64.4328 135.092C64.5841 135.054 64.7354 135.14 64.8867 135.349C64.9623 135.444 65.0284 135.548 65.0852 135.662C64.9528 135.7 64.8204 135.729 64.688 135.748C64.4233 135.805 64.2531 136.09 64.1775 136.603C64.0829 137.097 64.0829 137.401 64.1775 137.515C64.2531 137.648 64.2247 137.79 64.0923 137.942C63.9599 138.113 63.9411 138.256 64.0357 138.37C64.1113 138.503 64.0356 139.12 63.8086 140.223C63.5817 141.306 63.5156 141.914 63.6101 142.047C63.6858 142.161 63.6573 142.617 63.525 143.415C63.3926 144.194 63.1184 145.001 62.7024 145.837C62.3052 146.692 62.1351 147.253 62.1918 147.519C62.2674 147.785 62.1729 148.004 61.9081 148.175C61.6623 148.346 61.492 148.593 61.3974 148.916C61.3218 149.22 61.1327 149.514 60.8301 149.799C60.5275 150.065 60.4047 150.236 60.4614 150.312C60.5181 150.407 60.433 150.654 60.2061 151.053C59.9981 151.452 59.7617 151.775 59.4969 152.022C59.2322 152.269 59.0524 152.545 58.9579 152.849C58.8822 153.172 58.7121 153.419 58.4473 153.59C58.2015 153.761 58.0879 153.903 58.1068 154.017C58.1258 154.131 57.7855 154.531 57.0857 155.215C56.386 155.899 55.7902 156.374 55.2985 156.64C55.0527 156.792 54.8068 156.934 54.561 157.067C54.6366 157.143 54.7218 157.21 54.8164 157.267C54.892 157.343 54.9676 157.419 55.0433 157.495C54.9487 157.533 54.8447 157.571 54.7312 157.609C54.5421 157.685 54.4002 157.656 54.3057 157.523C54.2679 157.466 54.2301 157.4 54.1923 157.324C54.0599 157.457 53.9275 157.58 53.7951 157.694C53.5304 157.941 53.2277 158.036 52.8873 157.979C52.528 157.903 52.0647 157.998 51.4974 158.264C50.949 158.53 50.5424 158.663 50.2777 158.663C50.0318 158.644 49.8427 158.682 49.7103 158.777C49.6536 158.815 49.5968 158.863 49.5401 158.92C49.5968 158.939 49.6441 158.958 49.6819 158.977C49.7387 159.015 49.7859 159.043 49.8238 159.062C49.7859 159.138 49.7387 159.205 49.6819 159.262C49.6441 159.338 49.5968 159.404 49.5401 159.461C49.5401 159.347 49.5211 159.233 49.4833 159.119C49.4833 159.005 49.4738 158.891 49.4549 158.777C49.3036 158.853 49.1618 158.92 49.0294 158.977C48.7457 159.11 48.5756 159.138 48.5189 159.062C48.4999 159.024 48.4716 158.977 48.4338 158.92C48.4338 158.996 48.4243 159.072 48.4054 159.148C48.3865 159.224 48.377 159.29 48.377 159.347C48.2257 159.29 48.0839 159.233 47.9515 159.176C47.6868 159.043 47.4693 159.034 47.2991 159.148C47.2235 159.224 47.1383 159.29 47.0437 159.347C47.1572 159.404 47.2612 159.452 47.3558 159.49C47.4503 159.547 47.5449 159.604 47.6395 159.661C47.6016 159.737 47.5544 159.803 47.4976 159.86C47.4031 159.993 47.2139 160.031 46.9303 159.974C46.7979 159.955 46.6561 159.927 46.5048 159.889C46.5804 159.775 46.6561 159.661 46.7318 159.547C46.8074 159.433 46.883 159.319 46.9587 159.205C46.7696 159.243 46.5804 159.281 46.3913 159.319C46.0131 159.395 45.7672 159.347 45.6538 159.176C45.5403 159.024 45.3324 158.986 45.0298 159.062C44.8785 159.119 44.7177 159.167 44.5475 159.205C44.5853 159.262 44.6136 159.309 44.6325 159.347C44.6703 159.385 44.7083 159.423 44.7461 159.461C44.6705 159.499 44.6042 159.547 44.5475 159.604C44.4151 159.68 44.207 159.642 43.9233 159.49C43.6208 159.319 43.375 159.328 43.1859 159.518C43.0157 159.708 42.6753 159.699 42.1647 159.49C41.6541 159.281 41.2191 159.243 40.8598 159.376C40.5194 159.49 40.0749 159.328 39.5265 158.891C38.978 158.473 38.562 158.274 38.2783 158.293C37.9758 158.312 37.7394 158.198 37.5692 157.951C37.3801 157.685 37.1437 157.561 36.86 157.58C36.5574 157.599 36.2927 157.447 36.0658 157.124C35.8388 156.782 35.593 156.611 35.3282 156.611C35.0824 156.592 34.7041 156.45 34.1935 156.184C33.7018 155.899 33.3804 155.652 33.2291 155.443C33.1534 155.348 33.0872 155.243 33.0305 155.129C32.9737 155.167 32.9264 155.196 32.8886 155.215C32.8508 155.253 32.813 155.281 32.7752 155.3C32.7184 155.224 32.6617 155.148 32.6049 155.072C32.4726 154.901 32.2079 154.74 31.8107 154.588C31.3947 154.436 31.111 154.255 30.9597 154.046C30.8841 153.932 30.8178 153.827 30.7611 153.732C30.7044 153.77 30.6571 153.799 30.6193 153.818C30.5814 153.856 30.5436 153.884 30.5058 153.903C30.4113 153.694 30.3167 153.476 30.2222 153.248C30.0519 152.811 29.8628 152.63 29.6548 152.706C29.4657 152.782 29.3239 152.706 29.2293 152.478C29.1158 152.231 28.8417 151.918 28.4067 151.538C27.9528 151.177 27.7069 150.882 27.6691 150.654C27.6502 150.426 27.4043 150.065 26.9316 149.571C26.4777 149.096 26.2225 148.716 26.1657 148.431C26.0901 148.165 25.9955 148.042 25.8821 148.061C25.7686 148.08 25.5983 147.918 25.3714 147.576C25.1444 147.253 24.804 146.493 24.3501 145.296C23.8963 144.118 23.7261 143.434 23.8396 143.244C23.953 143.035 23.9153 142.845 23.7261 142.674C23.537 142.484 23.4803 142.18 23.5559 141.762C23.6316 141.325 23.6126 140.897 23.4991 140.479C23.3857 140.061 23.3763 139.824 23.4709 139.767C23.5465 139.691 23.4992 139.216 23.329 138.341C23.1399 137.467 23.102 136.935 23.2155 136.745C23.3289 136.536 23.3384 135.966 23.2438 135.035C23.1493 134.104 23.1777 133.525 23.329 133.297C23.4803 133.069 23.5086 132.803 23.4141 132.499C23.3195 132.176 23.329 131.786 23.4425 131.33C23.5748 130.874 23.6126 130.389 23.5559 129.876C23.4992 129.344 23.537 128.869 23.6693 128.451C23.8206 128.052 23.8584 127.786 23.7828 127.653C23.6882 127.52 23.6977 127.226 23.8112 126.77C23.9247 126.314 24.1232 125.934 24.4069 125.63C24.6717 125.307 24.8325 124.908 24.8892 124.433C24.927 123.977 24.823 122.456 24.5771 119.872C24.3502 117.307 24.0571 115.369 23.6977 114.058C23.3384 112.747 22.7901 111.16 22.0525 109.298C21.3339 107.436 20.4356 105.422 19.3577 103.256C18.2797 101.071 16.6533 98.2774 14.4785 94.8761C12.3037 91.4749 10.1478 87.8362 8.01086 83.9599C5.87388 80.1027 4.37032 77.224 3.50039 75.3238C2.63047 73.4427 1.95923 71.7706 1.48645 70.3075C1.01367 68.8254 0.644785 67.1723 0.380026 65.3482C0.115268 63.5431 0.0207112 62.612 0.0963565 62.555C0.190913 62.498 0.181568 61.8519 0.0681003 60.6168C-0.0453677 59.4008 -0.0170561 58.2037 0.153146 57.0257C0.323348 55.8286 0.361143 55.078 0.266586 54.774C0.172029 54.4699 0.209824 54.2609 0.380026 54.1469C0.550228 54.0139 0.654268 53.8429 0.692091 53.6339C0.729913 53.4249 0.692119 53.2349 0.578651 53.0639C0.446271 52.8928 0.503033 52.6649 0.74888 52.3798C0.975816 52.0948 1.01361 51.8478 0.86232 51.6388C0.729941 51.4297 0.767736 51.2207 0.975761 51.0117C1.2027 50.7837 1.23115 50.5462 1.06094 50.2992C0.966388 50.1662 0.871832 50.0427 0.777275 49.9286C0.985299 49.7766 1.19324 49.6247 1.40127 49.4727C1.60929 49.3397 1.82685 49.1971 2.05379 49.0451C2.01597 49.0071 1.97803 48.9691 1.94021 48.9311C1.9213 48.8741 1.89299 48.8266 1.85517 48.7886C1.79843 48.8456 1.74167 48.8931 1.68494 48.9311C1.60929 48.9691 1.54318 49.0071 1.48645 49.0451C1.4108 48.9501 1.33508 48.8456 1.25943 48.7316C1.2027 48.6366 1.13659 48.5321 1.06094 48.4181C1.19332 48.3991 1.32568 48.3706 1.45805 48.3326C1.72281 48.2756 1.8362 48.1331 1.79838 47.9051C1.76055 47.677 1.80783 47.5155 1.94021 47.4205C1.99694 47.3825 2.05371 47.3445 2.11044 47.3065C2.07262 47.2495 2.03482 47.183 1.997 47.107C1.90244 46.993 1.89296 46.8505 1.96861 46.6795C2.02534 46.5085 1.97806 46.347 1.82677 46.1949C1.75112 46.1379 1.67554 46.0714 1.59989 45.9954C1.82683 45.8054 2.05373 45.6059 2.28067 45.3969C2.75345 45.0169 2.95205 44.7604 2.8764 44.6273C2.78185 44.5133 2.81964 44.1713 2.98984 43.6012C3.16005 43.0502 3.35864 42.7557 3.58558 42.7177C3.69905 42.6987 3.81243 42.6892 3.9259 42.6892C3.88808 42.5562 3.85028 42.4137 3.81246 42.2617C3.79355 42.1477 3.76524 42.0147 3.72741 41.8626C3.84088 41.8626 3.95427 41.8532 4.06773 41.8341C4.29467 41.7961 4.41768 41.7011 4.43659 41.5491C4.47441 41.4161 4.40817 41.3116 4.23796 41.2356C4.06776 41.1786 3.94489 41.0171 3.86925 40.7511C3.81251 40.4851 4.06773 40.181 4.63507 39.839C4.91874 39.668 5.20241 39.497 5.48608 39.326C5.41044 39.269 5.33485 39.2025 5.2592 39.1265C5.089 38.9935 4.90937 38.965 4.72026 39.041C4.6257 39.06 4.53115 39.098 4.43659 39.155C4.41768 39.079 4.40819 39.022 4.40819 38.984C4.38928 38.87 4.46487 38.7464 4.63507 38.6134C4.80528 38.4994 4.94711 38.4899 5.06058 38.5849C5.19296 38.6989 5.30648 38.718 5.40104 38.642C5.43886 38.623 5.47666 38.5944 5.51448 38.5564C5.47666 38.4994 5.42938 38.4424 5.37264 38.3854C5.33482 38.3094 5.29703 38.2429 5.2592 38.1859C5.48614 38.0719 5.70356 37.9484 5.91159 37.8154C6.36546 37.5684 6.67758 37.1693 6.84778 36.6183C7.01798 36.0483 7.39621 35.5257 7.98246 35.0507C8.58762 34.5757 8.86181 34.3002 8.80508 34.2242C8.76725 34.1672 8.73894 34.1197 8.72003 34.0817C8.81459 34.0057 8.91849 33.9296 9.03196 33.8536C9.23998 33.7206 9.33454 33.5971 9.31563 33.4831C9.29672 33.3691 9.42921 33.2076 9.71288 32.9986C9.86417 32.9036 10.0153 32.7991 10.1666 32.6851C10.1288 32.6471 10.091 32.6091 10.0532 32.571C10.0343 32.533 10.006 32.495 9.96815 32.457C10.1762 32.305 10.3841 32.153 10.5921 32.001C11.0082 31.716 11.2163 31.4785 11.2163 31.2885C11.2163 31.1175 11.5472 30.7944 12.2091 30.3194C12.5495 30.0914 12.8805 29.8634 13.202 29.6353C13.1452 29.5783 13.0885 29.5213 13.0317 29.4643C12.9561 29.4263 12.89 29.3788 12.8332 29.3218C13.0034 29.3028 13.1641 29.2838 13.3154 29.2648C13.4856 29.2458 13.6559 29.2173 13.8261 29.1793C13.8261 29.1223 13.8166 29.0653 13.7977 29.0083C13.7977 28.8943 13.9395 28.7423 14.2232 28.5523C14.3745 28.4383 14.5163 28.3338 14.6487 28.2388C14.6298 28.2008 14.6013 28.1533 14.5635 28.0963C14.5446 28.0583 14.5163 28.0203 14.4785 27.9823ZM16.2655 33.4831C15.3956 34.2051 14.4595 35.1362 13.4572 36.2763C12.4549 37.4164 11.2919 38.889 9.96815 40.6941C8.62545 42.4992 7.5096 44.1903 6.62076 45.7674C5.71302 47.3255 5.05112 48.7791 4.63507 50.1282C4.21903 51.4773 3.94484 52.6364 3.81246 53.6054C3.68008 54.5745 3.59501 55.914 3.55718 57.6241C3.50045 59.3343 3.54773 60.9209 3.69902 62.384C3.85031 63.8471 4.1245 65.3672 4.52163 66.9443C4.95659 68.5214 5.73201 70.5641 6.84778 73.0722C7.98246 75.5994 9.65603 78.858 11.8687 82.8483C14.0813 86.8576 16.0954 90.2493 17.9109 93.0235C19.7264 95.8167 21.1258 98.1443 22.1092 100.006C23.0926 101.869 23.5748 102.876 23.5559 103.028C23.5181 103.161 23.868 103.978 24.6055 105.479C25.3242 106.961 25.9481 108.481 26.4777 110.039C27.0072 111.597 27.3854 112.956 27.6123 114.115C27.8582 115.255 28.0568 116.547 28.2081 117.991C28.3404 119.454 28.3877 120.737 28.3499 121.839C28.3121 122.922 28.3594 123.606 28.4917 123.891C28.6241 124.176 28.6431 124.347 28.5485 124.404C28.5107 124.423 28.4729 124.452 28.4351 124.49C28.6242 124.68 28.8227 124.879 29.0307 125.088C29.4467 125.487 29.825 125.725 30.1654 125.801C30.5247 125.858 30.7517 125.953 30.8463 126.086C30.8841 126.143 30.9219 126.2 30.9597 126.257C30.9975 126.238 31.0353 126.209 31.0732 126.171C31.1299 126.152 31.1772 126.124 31.215 126.086C31.3096 126.238 31.4136 126.39 31.5271 126.542C31.6216 126.675 31.7162 126.817 31.8107 126.969C31.8675 126.931 31.9147 126.903 31.9526 126.884C32.0282 126.827 32.1606 126.884 32.3497 127.055C32.5388 127.245 32.7374 127.264 32.9454 127.112C33.1534 126.979 33.3425 126.941 33.5127 126.998C33.6829 127.074 33.7963 127.245 33.8531 127.511C33.9287 127.777 34.2219 127.919 34.7325 127.938C35.2242 127.957 35.6402 128.071 35.9806 128.28C36.3021 128.489 36.7466 128.518 37.3139 128.366C37.9001 128.214 38.2216 128.176 38.2783 128.252C38.2973 128.29 38.3257 128.337 38.3635 128.394C38.4392 128.09 38.5148 127.786 38.5904 127.482C38.7228 126.874 38.7511 126.475 38.6755 126.285C38.5998 126.095 38.6377 125.354 38.789 124.062C38.9403 122.77 39.0064 120.727 38.9875 117.934C38.9686 115.141 39.0064 113.459 39.101 112.889C39.1955 112.319 39.205 111.968 39.1294 111.835C39.0348 111.721 39.0348 111.502 39.1294 111.179C39.2239 110.875 39.2334 109.061 39.1577 105.735C39.0821 102.429 38.9308 99.4554 38.7038 96.8142C38.4769 94.173 38.0799 91.1044 37.5125 87.6082C36.9641 84.1499 36.3495 81.2142 35.6687 78.801C34.9879 76.4069 34.2314 74.2978 33.3993 72.4736C32.5483 70.6305 30.8273 69.4904 28.2365 69.0534C25.6456 68.6164 23.745 68.1414 22.5347 67.6283C21.3054 67.1153 20.5302 66.7163 20.2087 66.4313C19.9061 66.1462 19.6412 65.8042 19.4143 65.4052C19.1874 65.0061 19.1306 64.3886 19.2441 63.5526C19.3575 62.7355 19.49 62.213 19.6413 61.9849C19.7737 61.7569 20.3316 61.3675 21.3149 60.8164C22.2794 60.2464 23.1209 59.9328 23.8396 59.8758C24.5393 59.8188 25.2768 59.8663 26.0521 60.0183C26.8275 60.1514 27.5367 60.3699 28.1797 60.6739C28.8227 60.9779 29.4752 61.3959 30.1371 61.928C30.8179 62.441 31.4325 63.0015 31.981 63.6095C32.5294 64.2366 33.2101 65.1677 34.0233 66.4027C34.8176 67.6568 36.5669 68.3599 39.2712 68.5119C41.9755 68.6829 44.5663 68.6829 47.0437 68.5119C49.5211 68.3409 51.1758 68.1793 52.0079 68.0273C52.8211 67.8943 53.3318 67.7518 53.5399 67.5998C53.6533 67.5238 53.7572 67.4478 53.8518 67.3718C53.8329 67.3338 53.8046 67.2958 53.7668 67.2578C53.71 67.1628 53.9654 66.1462 54.5327 64.2081C55.1001 62.251 55.8658 60.1513 56.8303 57.9092C57.8137 55.667 58.8255 53.8714 59.8657 52.5223C60.9058 51.1543 61.8797 50.1567 62.7874 49.5297C63.6951 48.8836 64.6597 48.4846 65.6809 48.3326C66.6832 48.1996 67.6382 48.2471 68.546 48.4751C69.4537 48.7221 70.333 49.1401 71.1841 49.7291C72.0351 50.3182 72.7915 51.0972 73.4534 52.0663C74.1153 53.0354 74.522 53.8429 74.6733 54.4889C74.8057 55.135 74.834 55.895 74.7583 56.7691C74.6827 57.6241 74.3517 58.6027 73.7655 59.7048C73.1603 60.8069 72.678 61.5479 72.3187 61.928C71.9594 62.308 70.8625 63.0776 69.0281 64.2366C67.1748 65.4147 64.6786 66.5453 61.5393 67.6283C58.4 68.6924 56.5467 70.5165 55.9793 73.1007C55.412 75.6848 54.8541 78.6681 54.3057 82.0503C53.7573 85.4135 53.2845 88.9572 52.8873 92.6814C52.4902 96.3867 52.2538 99.4744 52.1782 101.945C52.1214 104.434 52.0269 105.906 51.8945 106.362C51.781 106.818 51.7622 107.141 51.8378 107.331C51.9135 107.54 51.8567 108.396 51.6676 109.897C51.4785 111.398 51.3745 113.155 51.3556 115.169C51.3177 117.184 51.261 118.219 51.1853 118.276C51.1097 118.333 51.0529 120.081 51.0151 123.521C51.0151 126.979 51.0246 128.812 51.0435 129.021C51.0813 129.249 51.1854 129.401 51.3556 129.477C51.5258 129.534 51.8189 129.515 52.235 129.42C52.443 129.363 52.6509 129.306 52.8589 129.249C52.8022 129.154 52.7361 129.05 52.6605 128.936C52.5848 128.841 52.5091 128.736 52.4334 128.622C52.4713 128.603 52.5185 128.575 52.5753 128.537C52.6509 128.48 52.8117 128.584 53.0576 128.85C53.3034 129.116 53.5115 129.192 53.6817 129.078C53.833 128.964 54.0315 128.945 54.2773 129.021C54.5231 129.097 54.8636 129.05 55.2985 128.879C55.7335 128.689 56.1685 128.603 56.6034 128.622C57.0384 128.622 57.3599 128.546 57.5679 128.394C57.7759 128.261 58.0313 128.233 58.3339 128.309C58.6554 128.404 58.9579 128.385 59.2415 128.252C59.5063 128.138 59.6198 127.872 59.582 127.454C59.5442 127.036 59.6482 126.779 59.894 126.684C60.121 126.57 60.3479 126.627 60.5748 126.855C60.7828 127.083 60.8869 127.283 60.8869 127.454C60.8869 127.549 60.8964 127.644 60.9153 127.739C60.9909 127.682 61.0665 127.625 61.1422 127.568C61.2367 127.511 61.3218 127.454 61.3974 127.397C61.3029 127.245 61.1988 127.093 61.0854 126.941C60.8963 126.656 60.849 126.409 60.9435 126.2C61.057 126.01 61.2461 125.886 61.5109 125.829C61.7756 125.753 61.9364 125.544 61.9932 125.202C62.0688 124.841 62.2296 122.798 62.4755 119.074C62.7213 115.331 62.9577 112.823 63.1846 111.55C63.4116 110.258 63.7803 108.871 64.2909 107.388C64.8204 105.906 65.7376 104.111 67.0424 102.002C68.3662 99.9115 70.2196 97.5933 72.6024 95.0471C74.9852 92.5009 76.6778 90.5343 77.6801 89.1472C78.6824 87.7601 79.6659 86.1925 80.6303 84.4444C81.5948 82.7153 82.6443 80.4922 83.779 77.775C84.9137 75.0388 85.4905 73.2907 85.5094 72.5306C85.5283 71.7516 85.6134 71.248 85.7647 71.02C85.9159 70.792 85.9349 70.5925 85.8214 70.4215C85.708 70.2695 85.6985 70.032 85.7931 69.709C85.8876 69.405 85.8876 69.006 85.7931 68.5119C85.6985 68.0179 85.689 67.6093 85.7647 67.2863C85.8592 66.9823 85.8971 66.1842 85.8782 64.8921C85.8404 63.6 85.7459 62.8495 85.5946 62.6405C85.4622 62.4315 85.377 61.586 85.3391 60.1039C85.3013 58.6408 85.0271 57.0541 84.5165 55.344C84.0248 53.6339 83.8169 52.7504 83.8925 52.6934C83.9871 52.6364 83.9681 52.4368 83.8358 52.0948C83.7223 51.7338 83.7318 51.5153 83.8642 51.4393C83.9209 51.3823 83.9776 51.3348 84.0344 51.2968C83.9398 51.1447 83.8358 50.9928 83.7223 50.8408C83.5332 50.5557 83.4575 50.2707 83.4953 49.9857C83.552 49.7007 83.4764 49.5011 83.2684 49.3871C83.0793 49.2921 82.8524 48.9216 82.5876 48.2756C82.3418 47.6486 81.5475 46.3659 80.2048 44.4278C78.8621 42.5087 78.03 41.4446 77.7085 41.2356C77.3681 41.0266 76.8197 40.3806 76.0632 39.2975C75.685 38.7464 75.3068 38.1954 74.9286 37.6444C75.0609 37.5874 75.1838 37.5399 75.2973 37.5019C75.5242 37.3879 75.6188 37.2549 75.5809 37.1028C75.562 37.0268 75.5337 36.9508 75.4959 36.8748C75.3824 36.9508 75.2594 37.0363 75.127 37.1313C75.0136 37.2263 74.8907 37.3119 74.7583 37.3879C74.6827 37.2929 74.6071 37.1884 74.5314 37.0744C74.3991 36.8653 74.3611 36.7133 74.4179 36.6183C74.4368 36.5613 74.4557 36.5138 74.4747 36.4758C74.3045 36.3808 74.1248 36.2858 73.9357 36.1908C73.5575 36.0198 73.2738 35.7918 73.0847 35.5068C72.8767 35.2027 72.8577 34.9557 73.0279 34.7657C73.217 34.5757 73.2833 34.4427 73.2265 34.3667C73.1887 34.3287 73.1603 34.2812 73.1413 34.2242C73.0657 34.2812 72.9996 34.3287 72.9429 34.3667C72.8861 34.4047 72.8199 34.4522 72.7442 34.5092C72.6119 34.3002 72.47 34.0911 72.3187 33.8821C72.0162 33.4641 71.5056 33.0366 70.7869 32.5995C70.0683 32.1815 69.586 31.8015 69.3402 31.4595C69.2267 31.2885 69.1133 31.1175 68.9999 30.9465C68.9999 31.0415 68.9999 31.1365 68.9999 31.2315C68.9999 31.4215 68.9431 31.5545 68.8296 31.6305C68.6973 31.7255 68.4609 31.6115 68.1205 31.2885C67.7801 30.9654 67.4964 30.8229 67.2695 30.8609C67.0425 30.8989 66.7777 30.7089 66.4751 30.2909C66.1914 29.8729 66.1064 29.5593 66.2198 29.3503C66.3333 29.1413 66.1915 28.8943 65.7943 28.6093C65.4161 28.3243 65.1797 28.2103 65.0852 28.2673C65.0473 28.3053 65.0095 28.3338 64.9717 28.3528C65.0663 28.4478 65.1608 28.5428 65.2554 28.6378C65.3499 28.7138 65.4445 28.7993 65.539 28.8943C65.4634 28.9323 65.3972 28.9798 65.3404 29.0368C65.2837 29.0748 65.2271 29.1128 65.1703 29.1508C65.038 28.9798 64.9149 28.8183 64.8015 28.6663C64.688 28.4953 64.5746 28.3243 64.4612 28.1533C64.3855 28.2293 64.3193 28.3053 64.2625 28.3813C64.1869 28.4573 64.1113 28.5428 64.0357 28.6378C64.0167 28.5618 63.9978 28.4763 63.9789 28.3813C63.941 28.2293 63.8655 28.1628 63.752 28.1818C63.6196 28.2008 63.525 28.0773 63.4683 27.8113C63.4494 27.6782 63.421 27.5452 63.3831 27.4122C63.3264 27.5072 63.2696 27.6022 63.2129 27.6972C63.1562 27.8112 63.1089 27.9157 63.0711 28.0107C62.9198 27.8967 62.7686 27.7732 62.6173 27.6402C62.3336 27.4122 61.6433 27.1272 60.5464 26.7852C59.4307 26.4241 58.2865 25.9776 57.114 25.4456C55.9226 24.8945 54.3151 24.4955 52.2916 24.2485C50.2492 23.9825 48.5944 23.859 47.3274 23.878C46.0414 23.897 45.3702 23.8685 45.3134 23.7925C45.2567 23.7165 44.5475 23.7165 43.1859 23.7925C41.8054 23.8685 40.179 24.068 38.3067 24.391C36.4345 24.714 34.4393 25.1796 32.3213 25.7876C30.2032 26.3956 28.1797 27.0892 26.2508 27.8682C24.3407 28.6473 22.4118 29.5974 20.4639 30.7184C18.5161 31.8395 17.1165 32.761 16.2655 33.4831ZM18.2796 35.5922C19.3954 35.0792 20.1991 34.8607 20.6908 34.9367C21.2014 35.0317 21.5041 35.2027 21.5986 35.4497C21.7121 35.6777 21.7309 35.8772 21.6553 36.0483C21.5985 36.2193 21.1257 36.6088 20.2369 37.2169C19.367 37.8439 18.639 38.5754 18.0527 39.4115C17.4665 40.2665 16.7668 41.5681 15.9536 43.3162C15.1404 45.0833 14.5731 46.632 14.2516 47.962C13.949 49.3111 13.7504 50.8027 13.6559 52.4368C13.5424 54.0519 13.6275 55.9141 13.9111 58.0232C14.2137 60.1324 14.6675 62.251 15.2727 64.3791C15.8779 66.5073 16.625 68.5689 17.5138 70.564C18.4026 72.5592 18.7051 73.7562 18.4215 74.1552C18.1378 74.5353 17.6367 74.8203 16.9181 75.0103C16.1805 75.2193 15.6605 75.2763 15.3579 75.1813C15.0364 75.0863 14.8188 74.9533 14.7054 74.7823C14.5919 74.6113 14.0245 73.2622 13.0033 70.735C12.001 68.2078 11.2352 65.8517 10.7057 63.6666C10.1762 61.4815 9.8168 59.3628 9.62769 57.3107C9.43858 55.2585 9.46703 53.2064 9.71288 51.1542C9.95872 49.1021 10.2424 47.563 10.5639 46.537C10.9043 45.4919 11.5662 44.0288 12.5496 42.1477C13.533 40.2665 14.4596 38.8414 15.3295 37.8724C16.1805 36.8843 17.1639 36.1243 18.2796 35.5922ZM54.1072 19.1182C54.1829 19.1372 54.2584 19.1467 54.3341 19.1467C54.4097 19.1657 54.476 19.1847 54.5327 19.2037C54.4949 19.2607 54.4476 19.3272 54.3909 19.4032C54.3531 19.4602 54.3058 19.5172 54.249 19.5742C54.2301 19.4982 54.2112 19.4222 54.1923 19.3462C54.1544 19.2702 54.1261 19.1942 54.1072 19.1182ZM65.6809 28.9798C65.7376 28.9418 65.8039 28.8943 65.8795 28.8373C65.8984 28.9133 65.9172 28.9988 65.9362 29.0938C65.9551 29.1698 65.974 29.2458 65.993 29.3218C65.9173 29.3408 65.8416 29.3599 65.7659 29.3789C65.6903 29.3979 65.6147 29.4168 65.539 29.4358C65.539 29.3788 65.5296 29.3218 65.5107 29.2648C65.4917 29.1698 65.5485 29.0748 65.6809 28.9798ZM81.9635 18.4056C85.4054 16.0685 87.5234 14.8049 88.3177 14.6149C89.112 14.4249 89.7077 14.3869 90.1049 14.5009C90.4831 14.5959 90.7478 14.7479 90.8991 14.9569C91.0504 15.1659 91.0316 15.4604 90.8425 15.8405C90.6723 16.2015 88.9891 17.5031 85.7931 19.7452C82.5781 21.9874 80.3845 23.2414 79.212 23.5074C78.0395 23.7735 77.2641 23.764 76.8858 23.4789C76.4887 23.1939 76.3752 22.8614 76.5454 22.4814C76.7345 22.1014 78.5406 20.7428 81.9635 18.4056ZM23.2438 62.5265C23.0358 62.7545 22.8562 63.068 22.7049 63.467C22.5536 63.8851 22.6482 64.3791 22.9886 64.9492C23.329 65.5382 24.0665 66.0227 25.2011 66.4027C26.3358 66.8018 27.584 67.0868 28.9456 67.2578C29.6264 67.3338 30.2978 67.4193 30.9597 67.5144C30.5626 66.9253 30.1559 66.3362 29.7399 65.7472C28.9267 64.5691 28.2175 63.7236 27.6123 63.2105C27.0072 62.6975 26.4778 62.327 26.0239 62.099C25.5511 61.871 25.0216 61.8329 24.4353 61.9849C23.868 62.137 23.4708 62.3175 23.2438 62.5265ZM37.0586 72.5306C37.7016 73.9937 38.3257 75.7894 38.9309 77.9175C39.5549 80.0457 39.9993 81.7083 40.264 82.9054C40.5288 84.0834 40.8975 86.4395 41.3703 89.9738C41.8431 93.508 42.1835 98.0113 42.3916 103.484C42.5996 108.937 42.6563 111.949 42.5618 112.519C42.4672 113.089 42.401 115.321 42.3632 119.217C42.3443 123.093 42.2497 125.744 42.0795 127.169C41.8904 128.613 42.3632 129.468 43.4978 129.734C44.6136 130.019 45.4931 130.095 46.1361 129.962C46.779 129.81 47.1856 129.772 47.3558 129.848C47.4314 129.886 47.5165 129.924 47.6111 129.962C47.6111 127.834 47.6205 125.706 47.6395 123.577C47.6395 119.321 47.6962 117.003 47.8097 116.623C47.9042 116.243 47.9137 115.948 47.8381 115.739C47.7813 115.549 47.7908 115.426 47.8665 115.369C47.9421 115.312 48.1406 112.177 48.4621 105.963C48.7836 99.7499 49.0106 96.4152 49.143 95.9592C49.2565 95.5031 49.2753 95.1422 49.1996 94.8761C49.1429 94.6101 49.3415 92.6625 49.7954 89.0333C50.2492 85.404 50.7598 81.9553 51.3272 78.6871C51.9134 75.4189 52.3674 73.1767 52.6889 71.9606C53.0103 70.7255 53.1237 70.051 53.0292 69.937C52.9535 69.804 52.3674 69.842 51.2705 70.051C50.1737 70.241 48.6701 70.3835 46.76 70.4785C44.85 70.5735 42.7131 70.5735 40.3492 70.4785C38.0042 70.3835 36.8033 70.2885 36.7466 70.1935C36.6898 70.1175 36.5575 70.1175 36.3494 70.1935C36.2549 70.2315 36.1603 70.2695 36.0658 70.3075C36.3873 71.0485 36.7182 71.7896 37.0586 72.5306ZM64.0073 52.2373C63.3454 52.9404 62.5699 54.0425 61.6811 55.5436C60.7923 57.0257 60.0358 58.6123 59.4118 60.3034C58.8066 61.9945 58.3528 63.4671 58.0502 64.7212C57.8989 65.3672 57.7476 66.0037 57.5963 66.6308C58.3149 66.4027 59.0336 66.1842 59.7522 65.9752C61.1706 65.5382 62.6362 64.9396 64.1491 64.1796C65.6809 63.4385 66.8912 62.726 67.78 62.0419C68.6499 61.3579 69.3781 60.5884 69.9643 59.7333C70.5506 58.8973 70.9476 58.1277 71.1557 57.4247C71.3448 56.7216 71.411 56.1136 71.3543 55.6006C71.2975 55.0685 71.222 54.6505 71.1274 54.3464C71.0518 54.0424 70.7301 53.4914 70.1628 52.6934C69.6144 51.8953 69.1323 51.3253 68.7162 50.9833C68.3002 50.6603 67.884 50.4227 67.4679 50.2707C67.0519 50.1187 66.5413 50.2232 65.9362 50.5842C65.331 50.9452 64.6881 51.4963 64.0073 52.2373ZM25.6834 92.4535C26.5155 92.0545 27.1018 91.8929 27.4422 91.9689C27.8016 92.0259 28.0852 92.1969 28.2933 92.4819C28.5013 92.786 29.0024 94.0875 29.7966 96.3867C30.5909 98.7048 31.3284 101.28 32.0092 104.111C32.6711 106.942 32.9737 108.443 32.917 108.614C32.8414 108.785 32.5955 109.023 32.1794 109.327C31.7634 109.612 31.2528 109.811 30.6477 109.925C30.0425 110.039 29.598 110.011 29.3144 109.84C29.0118 109.669 28.5012 107.996 27.7826 104.823C27.0639 101.65 26.298 99.0374 25.4848 96.9852C24.6716 94.9331 24.2934 93.7645 24.3501 93.4795C24.388 93.1945 24.8324 92.8525 25.6834 92.4535ZM26.7047 129.734C26.5912 130.114 26.5912 130.389 26.7047 130.56C26.8181 130.731 26.8654 131.102 26.8465 131.672C26.8087 132.261 26.7236 132.727 26.5912 133.069C26.4589 133.411 26.4589 133.629 26.5912 133.724C26.6669 133.781 26.733 133.829 26.7897 133.867C26.7141 133.943 26.648 134.019 26.5912 134.095C26.4399 134.266 26.4115 134.408 26.506 134.522C26.6006 134.655 26.6006 134.883 26.506 135.206C26.4115 135.51 26.421 136.147 26.5344 137.116C26.6668 138.104 26.8749 139.111 27.1586 140.137C27.4612 141.182 28.0946 142.55 29.0591 144.241C30.0614 145.913 30.9124 147.13 31.6121 147.89C32.3118 148.65 33.3047 149.543 34.5906 150.569C35.8577 151.614 37.3801 152.478 39.1577 153.162C40.9354 153.865 42.6657 154.312 44.3489 154.502C46.032 154.692 47.3274 154.777 48.2352 154.758C49.1429 154.739 49.8711 154.673 50.4195 154.559C50.949 154.426 51.3745 154.245 51.696 154.017C52.0364 153.789 52.2538 153.704 52.3484 153.761C52.443 153.818 52.8022 153.628 53.4263 153.191C53.7478 152.963 54.0599 152.744 54.3625 152.535C53.2656 152.535 52.1593 152.535 51.0435 152.535C48.812 152.516 46.4008 152.241 43.8099 151.709C41.2001 151.158 39.7535 150.673 39.4698 150.255C39.1672 149.837 39.1105 149.277 39.2996 148.574C39.5076 147.871 39.6967 147.462 39.8669 147.348C40.0182 147.234 40.2356 147.205 40.5193 147.262C40.803 147.3 41.03 147.395 41.2002 147.548C41.3515 147.681 42.2308 147.928 43.8383 148.289C45.4647 148.669 47.4882 148.906 49.9088 149.001C52.3295 149.115 54.2111 149.077 55.5538 148.887C56.8965 148.697 57.7855 148.327 58.2204 147.776C58.6365 147.225 58.8349 146.578 58.816 145.837C58.816 145.115 59.0146 144.602 59.4118 144.298C59.8467 144.013 60.0926 143.69 60.1493 143.329C60.2061 142.987 60.102 142.626 59.8373 142.246C59.7049 142.056 59.5725 141.866 59.4401 141.676C59.478 141.638 59.5252 141.61 59.582 141.591C59.6576 141.534 59.6576 141.315 59.582 140.935C59.5063 140.555 59.6671 139.225 60.0643 136.945C60.4614 134.665 60.7451 133.468 60.9153 133.354C61.0666 133.24 61.1139 133.088 61.0571 132.898C60.9626 132.689 60.9909 132.508 61.1422 132.356C61.2745 132.185 61.3313 131.957 61.3124 131.672C61.2935 131.52 61.284 131.368 61.284 131.216C59.9413 131.52 58.608 131.833 57.2842 132.157C54.6177 132.765 51.7905 133.183 48.8025 133.411C45.8145 133.639 42.7225 133.496 39.5265 132.983C36.3305 132.489 33.4182 131.719 30.7895 130.674C29.4846 130.161 28.1703 129.648 26.8465 129.135C26.7898 129.344 26.7425 129.544 26.7047 129.734ZM58.2204 127.368C58.315 127.311 58.4001 127.254 58.4757 127.197C58.5324 127.311 58.5892 127.425 58.6459 127.539C58.7027 127.672 58.7499 127.796 58.7878 127.91C58.6743 127.91 58.5513 127.9 58.4189 127.881C58.1731 127.881 58.0407 127.824 58.0218 127.71C58.0029 127.596 58.0691 127.482 58.2204 127.368ZM64.5746 138.085C64.7259 138.009 64.8772 137.933 65.0285 137.857C65.1987 137.762 65.3594 137.676 65.5107 137.6C65.435 137.714 65.3689 137.828 65.3122 137.942C65.1609 138.17 65.1419 138.37 65.2554 138.541C65.3121 138.636 65.3689 138.721 65.4256 138.797C65.3878 138.835 65.35 138.864 65.3122 138.883C65.2554 138.921 65.2082 138.949 65.1703 138.968C65.0758 138.816 64.9717 138.674 64.8583 138.541C64.7637 138.389 64.6692 138.237 64.5746 138.085Z" fill="#FF1D92"/>
</svg>
