<svg width="76" height="76" viewBox="0 0 76 76" fill="none" xmlns="http://www.w3.org/2000/svg">
<g clip-path="url(#clip0_559_76597)">
<path d="M19.7917 61.7505C14.7219 61.7505 10.2125 58.5047 8.57536 53.6723L8.46453 53.3082C8.0782 52.0288 7.9167 50.9522 7.9167 49.8755V28.2852L0.234361 53.9288C-0.753639 57.7003 1.49786 61.6112 5.2757 62.653L54.2419 75.7662C54.853 75.9245 55.4642 76.0005 56.0659 76.0005C59.2199 76.0005 62.1015 73.9073 62.909 70.823L65.7622 61.7505H19.7917Z" fill="#8237EA"/>
<path d="M28.5 28.5007C31.9929 28.5007 34.8334 25.6602 34.8334 22.1673C34.8334 18.6745 31.9929 15.834 28.5 15.834C25.0072 15.834 22.1667 18.6745 22.1667 22.1673C22.1667 25.6602 25.0072 28.5007 28.5 28.5007Z" fill="#8237EA"/>
<path d="M68.0834 6.33398H20.5834C16.2197 6.33398 12.6667 9.88698 12.6667 14.2507V49.084C12.6667 53.4477 16.2197 57.0007 20.5834 57.0007H68.0834C72.447 57.0007 76 53.4477 76 49.084V14.2507C76 9.88698 72.447 6.33398 68.0834 6.33398ZM20.5834 12.6673H68.0834C68.9574 12.6673 69.6667 13.3767 69.6667 14.2507V36.7308L59.6632 25.0585C58.6024 23.814 57.0665 23.149 55.4167 23.111C53.7764 23.1205 52.2374 23.8488 51.186 25.1092L39.425 39.2262L35.5934 35.404C33.4274 33.238 29.9029 33.238 27.74 35.404L19 44.1408V14.2507C19 13.3767 19.7094 12.6673 20.5834 12.6673Z" fill="#8237EA"/>
</g>
<defs>
<clipPath id="clip0_559_76597">
<rect width="76" height="76" fill="white"/>
</clipPath>
</defs>
</svg>
