<svg width="32" height="33" viewBox="0 0 32 33" fill="none" xmlns="http://www.w3.org/2000/svg">
<g clip-path="url(#clip0_378_10254)">
<path d="M19.0625 16.5C19.0625 18.1914 17.6914 19.5625 16 19.5625C14.3086 19.5625 12.9375 18.1914 12.9375 16.5C12.9375 14.8086 14.3086 13.4375 16 13.4375C17.6914 13.4375 19.0625 14.8086 19.0625 16.5Z" fill="white"/>
<path d="M23.1621 11.0813C23.0149 10.6824 22.78 10.3213 22.4749 10.0249C22.1785 9.71973 21.8176 9.48486 21.4185 9.33765C21.0947 9.21191 20.6084 9.06226 19.7126 9.02148C18.7437 8.97729 18.4531 8.96777 16 8.96777C13.5466 8.96777 13.2561 8.97705 12.2874 9.02124C11.3916 9.06226 10.905 9.21191 10.5815 9.33765C10.1824 9.48486 9.82129 9.71973 9.52515 10.0249C9.21997 10.3213 8.98511 10.6821 8.83765 11.0813C8.71191 11.405 8.56226 11.8916 8.52148 12.7874C8.47729 13.7561 8.46777 14.0466 8.46777 16.5C8.46777 18.9531 8.47729 19.2437 8.52148 20.2126C8.56226 21.1084 8.71191 21.5947 8.83765 21.9185C8.98511 22.3176 9.21973 22.6785 9.5249 22.9749C9.82129 23.28 10.1821 23.5149 10.5813 23.6621C10.905 23.7881 11.3916 23.9377 12.2874 23.9785C13.2561 24.0227 13.5464 24.032 15.9998 24.032C18.4534 24.032 18.7439 24.0227 19.7124 23.9785C20.6082 23.9377 21.0947 23.7881 21.4185 23.6621C22.2197 23.353 22.853 22.7197 23.1621 21.9185C23.2878 21.5947 23.4375 21.1084 23.4785 20.2126C23.5227 19.2437 23.532 18.9531 23.532 16.5C23.532 14.0466 23.5227 13.7561 23.4785 12.7874C23.4377 11.8916 23.2881 11.405 23.1621 11.0813ZM16 21.2175C13.3943 21.2175 11.282 19.1055 11.282 16.4998C11.282 13.894 13.3943 11.782 16 11.782C18.6055 11.782 20.7178 13.894 20.7178 16.4998C20.7178 19.1055 18.6055 21.2175 16 21.2175ZM20.9043 12.698C20.2954 12.698 19.8018 12.2043 19.8018 11.5955C19.8018 10.9866 20.2954 10.4929 20.9043 10.4929C21.5132 10.4929 22.0068 10.9866 22.0068 11.5955C22.0066 12.2043 21.5132 12.698 20.9043 12.698Z" fill="white"/>
<path d="M16 0.5C7.16479 0.5 0 7.66479 0 16.5C0 25.3352 7.16479 32.5 16 32.5C24.8352 32.5 32 25.3352 32 16.5C32 7.66479 24.8352 0.5 16 0.5ZM25.1321 20.2878C25.0876 21.2659 24.9321 21.9336 24.7051 22.5181C24.2278 23.7522 23.2522 24.7278 22.0181 25.2051C21.4338 25.4321 20.7659 25.5874 19.7881 25.6321C18.8083 25.6768 18.4954 25.6875 16.0002 25.6875C13.5049 25.6875 13.1921 25.6768 12.2122 25.6321C11.2344 25.5874 10.5664 25.4321 9.98218 25.2051C9.3689 24.9744 8.81372 24.6128 8.35474 24.1453C7.88745 23.6865 7.52588 23.1311 7.29517 22.5181C7.06812 21.9338 6.9126 21.2659 6.86816 20.2881C6.823 19.3081 6.8125 18.9951 6.8125 16.5C6.8125 14.0049 6.823 13.6919 6.86792 12.7122C6.91235 11.7341 7.06763 11.0664 7.29468 10.4819C7.52539 9.8689 7.88721 9.31348 8.35474 8.85474C8.81348 8.38721 9.3689 8.02563 9.98193 7.79492C10.5664 7.56787 11.2341 7.4126 12.2122 7.36792C13.1919 7.32324 13.5049 7.3125 16 7.3125C18.4951 7.3125 18.8081 7.32324 19.7878 7.36816C20.7659 7.4126 21.4336 7.56787 22.0181 7.79468C22.6311 8.02539 23.1865 8.38721 23.6455 8.85474C24.1128 9.31372 24.4746 9.8689 24.7051 10.4819C24.9324 11.0664 25.0876 11.7341 25.1323 12.7122C25.177 13.6919 25.1875 14.0049 25.1875 16.5C25.1875 18.9951 25.177 19.3081 25.1321 20.2878Z" fill="white"/>
</g>
<defs>
<clipPath id="clip0_378_10254">
<rect width="32" height="32" fill="white" transform="translate(0 0.5)"/>
</clipPath>
</defs>
</svg>
