<svg width="88" height="88" viewBox="0 0 88 88" fill="none" xmlns="http://www.w3.org/2000/svg">
<g clip-path="url(#clip0_55_1723)">
<path d="M59.9965 70.4111C45.2591 79.1015 26.3052 74.2092 17.6344 59.5051C8.94409 44.7677 13.8364 25.8138 28.5737 17.1234C43.2778 8.45272 62.2318 13.345 70.9221 28.0824C79.5928 42.7864 74.7006 61.7404 59.9965 70.4111Z" fill="#FCD131"/>
<path d="M55.8153 63.3381C44.9913 69.7209 31.0802 66.1303 24.7073 55.3229C18.3245 44.4988 21.9152 30.5878 32.7392 24.205C43.5466 17.8321 57.4577 21.4227 63.8404 32.2468C70.2134 43.0542 66.6227 56.9652 55.8153 63.3381Z" fill="#F6AF21"/>
<g clip-path="url(#clip1_55_1723)">
<path d="M59.5636 33.9206L58.3215 32.8532L56.2348 33.7287L56.7864 31.5341L55.5442 30.4667L53.4576 31.3422L54.0092 29.1476L52.767 28.0802L50.6804 28.9557L51.232 26.7611L49.9898 25.6937L45.877 27.5225L41.9651 32.0749L43.3537 33.2681L47.1246 28.8799L49.0104 28.0899L48.4748 30.2659L49.717 31.3333L51.787 30.4771L51.2521 32.6524L51.8731 33.1861L52.4942 33.7198L54.5642 32.8636L54.0293 35.0389L55.2715 36.1063L57.3421 35.2494L56.8449 37.2326L53.074 41.6209L54.4626 42.8141L58.3745 38.2618L59.5636 33.9206Z" fill="white"/>
<path d="M54.5642 32.8612L54.0293 35.0364L55.2715 36.1038L57.3421 35.247L56.8449 37.2302L53.074 41.6184L54.4626 42.8117L58.3745 38.2593L59.5637 33.9181L58.3215 32.8507L56.2349 33.7262L56.7864 31.5316L55.5443 30.4642L53.4576 31.3398L51.8732 33.1836L52.4942 33.7173L54.5642 32.8612Z" fill="white"/>
<path d="M41.1724 30.1875L45.3382 33.7672L42.3551 37.2388L38.1892 33.659L41.1724 30.1875Z" fill="#3D4759"/>
<path d="M52.2821 39.7305L56.4479 43.3102L53.4648 46.7817L49.299 43.202L52.2821 39.7305Z" fill="#252E40"/>
<path d="M37.9908 49.3386L34.5193 46.3555L30.9395 50.5213L34.4111 53.5044L37.8826 56.4875L41.4624 52.3217L37.9908 49.3386Z" fill="#3D4759"/>
<path d="M37.9905 49.3398L41.462 52.323L37.8823 56.4888L34.4107 53.5057L37.9905 49.3398Z" fill="#252E40"/>
<path d="M44.037 42.3051L36.3997 35.7422L29.1606 44.1664L36.798 50.7293L44.4354 57.2922L51.6744 48.8679L44.037 42.3051Z" fill="#FF6680"/>
<path d="M44.0381 42.3047L51.6755 48.8676L44.4364 57.2918L36.799 50.7289L44.0381 42.3047Z" fill="#E65151"/>
<path d="M46.4243 39.5295L37.3983 31.7734L33.8186 35.9393L42.8446 43.6954L51.8705 51.4515L55.4503 47.2857L46.4243 39.5295Z" fill="#5B6373"/>
<path d="M46.4244 39.5273L55.4504 47.2835L51.8707 51.4493L42.8447 43.6932L46.4244 39.5273Z" fill="#3D4759"/>
</g>
</g>
<defs>
<clipPath id="clip0_55_1723">
<rect width="63.7957" height="63.7957" fill="white" transform="translate(55.5435 0.0976562) rotate(59.4729)"/>
</clipPath>
<clipPath id="clip1_55_1723">
<rect width="31.2469" height="31.2469" fill="white" transform="translate(42.9268 19.625) rotate(40.6728)"/>
</clipPath>
</defs>
</svg>
