<svg width="33" height="33" viewBox="0 0 33 33" fill="none" xmlns="http://www.w3.org/2000/svg">
<path d="M16.7283 32.0977C25.5648 32.0977 32.7283 24.9342 32.7283 16.0977C32.7283 7.2611 25.5648 0.0976562 16.7283 0.0976562C7.89172 0.0976562 0.728271 7.2611 0.728271 16.0977C0.728271 24.9342 7.89172 32.0977 16.7283 32.0977Z" fill="#FFDD33"/>
<path fill-rule="evenodd" clip-rule="evenodd" d="M12.8517 17.4141H11.122L6.1814 21.0141H17.0283L21.9689 17.4141H19.3955H12.8517Z" fill="#808080"/>
<path fill-rule="evenodd" clip-rule="evenodd" d="M6.1814 11.8984H17.0283V14.5844H14.4548C13.5736 14.5844 12.8564 15.3016 12.8564 16.1828V19.4125C12.8564 20.2937 13.5736 21.0109 14.4548 21.0109H17.0283V23.6969H6.1814V21.0156H8.75952C9.64077 21.0156 10.358 20.2984 10.358 19.4172V16.1875C10.358 15.3063 9.64077 14.5891 8.75952 14.5891H6.1814V11.8984Z" fill="#B3B3B3"/>
<path fill-rule="evenodd" clip-rule="evenodd" d="M11.122 8.29688L6.1814 11.8969H17.0283L21.9689 8.29688H11.122Z" fill="#E6E6E6"/>
<path fill-rule="evenodd" clip-rule="evenodd" d="M21.9689 8.29688V10.9828L17.0283 14.5828V11.8969L21.9689 8.29688Z" fill="#808080"/>
<path fill-rule="evenodd" clip-rule="evenodd" d="M21.9689 17.4141V20.1L17.0283 23.7V21.0141L21.9689 17.4141Z" fill="#808080"/>
<path fill-rule="evenodd" clip-rule="evenodd" d="M18.2798 20.0984L21.9689 17.4125H19.3954C18.5142 17.4125 17.797 16.6953 17.797 15.8141V14.0234L17.0282 14.5813H15.2986H14.4501C13.5689 14.5813 12.8517 15.2984 12.8517 16.1797V17.4125V19.4141C12.8517 19.6578 12.9079 19.8922 13.0064 20.1031C13.2642 20.6422 13.8173 21.0125 14.4501 21.0125H17.0236L18.2798 20.0984Z" fill="#666666"/>
<path fill-rule="evenodd" clip-rule="evenodd" d="M23.9751 14.5789L27.2751 17.8789L26.6564 20.2086L22.7423 19.243L19.447 15.943L20.0658 13.6133L23.9751 14.5789ZM23.6517 15.8117C24.7345 16.4539 25.4845 17.4617 25.3205 18.0711C25.1611 18.6758 24.1533 18.6477 23.0705 18.0102C21.9876 17.368 21.2376 16.3602 21.4017 15.7508C21.5611 15.1414 22.5689 15.1695 23.6517 15.8117Z" fill="#E6E6E6"/>
<path fill-rule="evenodd" clip-rule="evenodd" d="M16.8278 18.5586L19.4426 15.9438L22.74 19.2413L20.1253 21.8561L16.8278 18.5586Z" fill="#B3B3B3"/>
<path fill-rule="evenodd" clip-rule="evenodd" d="M26.6563 20.2086L22.7423 19.2383L20.1313 21.8539L24.0454 22.8242L26.6563 20.2086Z" fill="#666666"/>
<path fill-rule="evenodd" clip-rule="evenodd" d="M19.447 15.943L20.0611 13.6133L17.4455 16.2242L16.8314 18.5586L19.447 15.943Z" fill="#808080"/>
</svg>
