<svg width="33" height="32" viewBox="0 0 33 32" fill="none" xmlns="http://www.w3.org/2000/svg">
<path d="M15.2331 28.0581C14.0601 28.0581 13.1058 27.1038 13.1058 25.9308V13.522C13.1058 12.349 14.0601 11.3947 15.2331 11.3947H27.642C28.815 11.3947 29.7693 12.349 29.7693 13.522V24.3339C31.0687 22.0838 31.8125 19.4726 31.8125 16.6875C31.8125 8.23063 24.9569 1.375 16.5 1.375C8.04313 1.375 1.1875 8.23063 1.1875 16.6875C1.1875 25.1444 8.04313 32 16.5 32C20.4446 32 24.0405 30.508 26.7552 28.0581H15.2331Z" fill="#FCD131"/>
<path d="M9.99999 18.3838H1.28149C1.92374 24.2096 5.83356 29.0505 11.1385 31.0339V19.5223C11.1386 18.8935 10.6288 18.3838 9.99999 18.3838Z" fill="#F6AF21"/>
<path d="M22.259 2.49609V7.48647C22.259 8.11528 22.7688 8.62503 23.3976 8.62503H29.5193C27.8193 5.88578 25.2794 3.72303 22.259 2.49609Z" fill="#F6AF21"/>
<path d="M13.1058 13.522C13.1058 12.349 14.0602 11.3947 15.2332 11.3947H19.9566V2.18981C19.9566 0.980375 18.9763 0 17.7668 0H5.35803C4.14865 0 3.16821 0.980375 3.16821 2.18981V14.5987C3.16821 15.8081 4.14865 16.7885 5.35803 16.7885H13.1058V13.522Z" fill="#2ED1E2"/>
<path d="M13.1059 13.5219C13.1059 12.3489 14.0602 11.3946 15.2332 11.3946H18.2495V2.18972C18.2495 1.92359 18.0329 1.70703 17.7668 1.70703H5.35805C5.09193 1.70703 4.87537 1.92353 4.87537 2.18972V14.5986C4.87537 14.8647 5.09187 15.0812 5.35805 15.0812H13.1059V13.5219Z" fill="#03BED7"/>
<path d="M7.75949 14.5985V2.18972C7.75949 1.92359 7.97599 1.70703 8.24218 1.70703H5.35805C5.09193 1.70703 4.87537 1.92353 4.87537 2.18972V14.5986C4.87537 14.8647 5.09187 15.0812 5.35805 15.0812H8.24212C7.97599 15.0812 7.75949 14.8647 7.75949 14.5985Z" fill="#07B2CD"/>
<path d="M11.5624 6.05957L11.1038 7.27082L11.9188 9.42319H12.8363L11.5624 6.05957Z" fill="#0199B1"/>
<path d="M13.7953 11.9561L13.4828 11.1309H12.5654L13.2159 12.8485C13.3315 12.5033 13.5329 12.1972 13.7953 11.9561Z" fill="#0199B1"/>
<path d="M7.02862 13.2113L10.7642 3.34721C10.8309 3.17109 10.9521 3.02715 11.1037 2.93034C10.9696 2.84471 10.8116 2.7959 10.6451 2.7959C10.2903 2.7959 9.97249 3.01534 9.84687 3.34721L6.11124 13.2113C6.03381 13.4158 6.18487 13.6345 6.40349 13.6345H7.32087C7.10224 13.6345 6.95118 13.4158 7.02862 13.2113Z" fill="#0199B1"/>
<path d="M13.7952 11.9557C14.1742 11.6075 14.6792 11.3945 15.2331 11.3945H15.4082L12.3606 3.34721C12.235 3.0154 11.9172 2.7959 11.5624 2.7959C11.2075 2.7959 10.8898 3.01534 10.7641 3.34721L7.02848 13.2113C6.95104 13.4158 7.1021 13.6345 7.32073 13.6345H8.47792C8.60779 13.6345 8.72417 13.5541 8.77017 13.4327L9.64204 11.1304H13.4827L13.7952 11.9557ZM10.2886 9.42327L11.5624 6.05965L12.8362 9.42327H10.2886Z" fill="white"/>
<path d="M29.8319 13.5218C29.8319 12.3125 28.8515 11.332 27.6421 11.332H15.2333C14.0239 11.332 13.0435 12.3124 13.0435 13.5218V25.9307C13.0435 27.1401 14.0239 28.1205 15.2333 28.1205H26.6848C27.9348 27.0062 29.0009 25.6903 29.8319 24.2233V13.5218Z" fill="#FD6930"/>
<path d="M16.5781 25.9307V13.5218C16.5781 12.3125 17.5586 11.332 18.768 11.332H15.2331C14.0238 11.332 13.0433 12.3124 13.0433 13.5218V25.9307C13.0433 27.1401 14.0238 28.1205 15.2331 28.1205H18.768C17.5586 28.1205 16.5781 27.1401 16.5781 25.9307Z" fill="#FD5426"/>
<path d="M16.4764 21.5194C16.4992 20.0284 17.4084 18.7605 18.6905 18.1761C18.4877 17.8297 18.3602 17.4342 18.3331 17.0089C18.2406 15.5547 19.3048 14.3249 20.6928 14.1501C20.5925 14.1357 20.4908 14.1279 20.3882 14.1279H19.8959C18.3461 14.1279 17.0965 15.438 17.1964 17.0089C17.2234 17.4343 17.351 17.8297 17.5537 18.1761C16.2716 18.7605 15.3624 20.0283 15.3397 21.5194C15.3077 23.6119 17.0006 25.3242 19.0858 25.3242H20.2226C18.1374 25.3242 16.4445 23.6119 16.4764 21.5194Z" fill="#D73D24"/>
<path d="M26.3055 22.6159C25.0682 23.2738 23.6884 23.6179 22.2871 23.6179H20.266C19.1562 23.6179 18.217 22.7495 18.184 21.6402C18.1498 20.4876 19.0775 19.539 20.2225 19.539H22.2376C22.5753 19.539 22.9064 19.6328 23.194 19.8098L23.7383 20.1448L24.3128 16.7305L24.0964 16.9727C23.6078 17.5194 22.9095 17.8319 22.1763 17.8319H21.0326C20.4441 17.8319 19.973 17.3198 20.0412 16.718C20.0988 16.2098 20.5481 15.836 21.0596 15.836H24.0798L23.0752 14.7897C22.67 14.3675 22.1101 14.1289 21.525 14.1289H21.0326C19.4828 14.1289 18.2332 15.439 18.3331 17.0099C18.3601 17.4353 18.4877 17.8307 18.6905 18.1771C17.4083 18.7615 16.4991 20.0293 16.4764 21.5204C16.4445 23.6128 18.1373 25.3252 20.2225 25.3252H22.1374C24.1438 25.3252 25.9888 24.1506 26.838 22.3328L26.3055 22.6159Z" fill="white"/>
</svg>
