<svg width="115" height="32" viewBox="0 0 115 32" fill="none" xmlns="http://www.w3.org/2000/svg">
<g clip-path="url(#clip0_103_1455)">
<path d="M14.7331 28.0581C13.5601 28.0581 12.6058 27.1038 12.6058 25.9308V13.522C12.6058 12.349 13.5601 11.3947 14.7331 11.3947H27.142C28.315 11.3947 29.2693 12.349 29.2693 13.522V24.3339C30.5687 22.0838 31.3125 19.4726 31.3125 16.6875C31.3125 8.23063 24.4569 1.375 16 1.375C7.54313 1.375 0.6875 8.23063 0.6875 16.6875C0.6875 25.1444 7.54313 32 16 32C19.9446 32 23.5405 30.508 26.2552 28.0581H14.7331Z" fill="#FCD131"/>
<path d="M9.49999 18.384H0.781494C1.42374 24.2098 5.33356 29.0507 10.6385 31.0342V19.5225C10.6386 18.8937 10.1288 18.384 9.49999 18.384Z" fill="#F6AF21"/>
<path d="M21.759 2.49609V7.48647C21.759 8.11528 22.2688 8.62503 22.8976 8.62503H29.0193C27.3193 5.88578 24.7794 3.72303 21.759 2.49609Z" fill="#F6AF21"/>
<path d="M12.6058 13.522C12.6058 12.349 13.5602 11.3947 14.7332 11.3947H19.4566V2.18981C19.4566 0.980375 18.4763 0 17.2668 0H4.85803C3.64865 0 2.66821 0.980375 2.66821 2.18981V14.5987C2.66821 15.8081 3.64865 16.7885 4.85803 16.7885H12.6058V13.522Z" fill="#2ED1E2"/>
<path d="M12.6059 13.5219C12.6059 12.3489 13.5602 11.3946 14.7332 11.3946H17.7495V2.18972C17.7495 1.92359 17.5329 1.70703 17.2668 1.70703H4.85805C4.59193 1.70703 4.37537 1.92353 4.37537 2.18972V14.5986C4.37537 14.8647 4.59187 15.0812 4.85805 15.0812H12.6059V13.5219Z" fill="#03BED7"/>
<path d="M7.25949 14.5985V2.18972C7.25949 1.92359 7.47599 1.70703 7.74218 1.70703H4.85805C4.59193 1.70703 4.37537 1.92353 4.37537 2.18972V14.5986C4.37537 14.8647 4.59187 15.0812 4.85805 15.0812H7.74212C7.47599 15.0812 7.25949 14.8647 7.25949 14.5985Z" fill="#07B2CD"/>
<path d="M11.0624 6.05981L10.6038 7.27106L11.4188 9.42344H12.3363L11.0624 6.05981Z" fill="#0199B1"/>
<path d="M13.2953 11.9559L12.9828 11.1306H12.0654L12.7159 12.8482C12.8315 12.5031 13.0329 12.1969 13.2953 11.9559Z" fill="#0199B1"/>
<path d="M6.52862 13.2116L10.2642 3.34746C10.3309 3.17133 10.4521 3.02739 10.6037 2.93058C10.4696 2.84496 10.3116 2.79614 10.1451 2.79614C9.79031 2.79614 9.47249 3.01558 9.34687 3.34746L5.61124 13.2116C5.53381 13.416 5.68487 13.6348 5.90349 13.6348H6.82087C6.60224 13.6347 6.45118 13.416 6.52862 13.2116Z" fill="#0199B1"/>
<path d="M13.2952 11.956C13.6742 11.6078 14.1792 11.3948 14.7331 11.3948H14.9082L11.8606 3.34746C11.735 3.01564 11.4172 2.79614 11.0624 2.79614C10.7075 2.79614 10.3898 3.01558 10.2641 3.34746L6.52848 13.2116C6.45104 13.416 6.6021 13.6348 6.82073 13.6348H7.97792C8.10779 13.6348 8.22417 13.5544 8.27017 13.433L9.14204 11.1306H12.9827L13.2952 11.956ZM9.7886 9.42352L11.0624 6.05989L12.3362 9.42352H9.7886Z" fill="white"/>
<path d="M29.3319 13.5221C29.3319 12.3127 28.3515 11.3323 27.1421 11.3323H14.7333C13.5239 11.3323 12.5435 12.3127 12.5435 13.5221V25.931C12.5435 27.1403 13.5239 28.1208 14.7333 28.1208H26.1848C27.4348 27.0065 28.5009 25.6905 29.3319 24.2236V13.5221Z" fill="#FD6930"/>
<path d="M16.0781 25.9309V13.5221C16.0781 12.3127 17.0586 11.3323 18.268 11.3323H14.7331C13.5238 11.3323 12.5433 12.3127 12.5433 13.5221V25.931C12.5433 27.1403 13.5238 28.1208 14.7331 28.1208H18.268C17.0586 28.1207 16.0781 27.1403 16.0781 25.9309Z" fill="#FD5426"/>
<path d="M15.9764 21.5197C15.9992 20.0286 16.9084 18.7607 18.1905 18.1764C17.9877 17.83 17.8602 17.4345 17.8331 17.0092C17.7406 15.555 18.8048 14.3252 20.1928 14.1503C20.0925 14.1359 19.9908 14.1282 19.8882 14.1282H19.3959C17.8461 14.1282 16.5965 15.4382 16.6964 17.0092C16.7234 17.4345 16.851 17.83 17.0537 18.1764C15.7716 18.7607 14.8624 20.0285 14.8397 21.5197C14.8077 23.6121 16.5006 25.3244 18.5858 25.3244H19.7226C17.6374 25.3245 15.9445 23.6121 15.9764 21.5197Z" fill="#D73D24"/>
<path d="M25.8055 22.6154C24.5682 23.2734 23.1884 23.6174 21.7871 23.6174H19.766C18.6562 23.6174 17.717 22.749 17.684 21.6397C17.6498 20.4871 18.5775 19.5385 19.7225 19.5385H21.7376C22.0753 19.5385 22.4064 19.6323 22.694 19.8093L23.2383 20.1444L23.8128 16.73L23.5964 16.9722C23.1078 17.5189 22.4095 17.8314 21.6763 17.8314H20.5326C19.9441 17.8314 19.473 17.3194 19.5412 16.7175C19.5988 16.2093 20.0481 15.8355 20.5596 15.8355H23.5798L22.5752 14.7892C22.17 14.367 21.6101 14.1284 21.025 14.1284H20.5326C18.9828 14.1284 17.7332 15.4385 17.8331 17.0094C17.8601 17.4348 17.9877 17.8302 18.1905 18.1766C16.9083 18.761 15.9991 20.0288 15.9764 21.5199C15.9445 23.6124 17.6373 25.3247 19.7225 25.3247H21.6374C23.6438 25.3247 25.4888 24.1501 26.338 22.3324L25.8055 22.6154Z" fill="white"/>
</g>
<path d="M47.936 21H41.552V9.576H47.936V10.84H42.992V14.408H47.648V15.656H42.992V19.736H47.936V21ZM54.3786 12.264C55.4026 12.264 56.176 12.5147 56.6986 13.016C57.2213 13.5067 57.4826 14.3067 57.4826 15.416V21H56.0906V15.512C56.0906 14.8187 55.936 14.3013 55.6266 13.96C55.3173 13.6187 54.832 13.448 54.1706 13.448C53.2213 13.448 52.5653 13.7147 52.2026 14.248C51.84 14.7813 51.6586 15.5493 51.6586 16.552V21H50.2506V12.424H51.3866L51.5946 13.592H51.6746C51.8666 13.2933 52.1013 13.048 52.3786 12.856C52.6666 12.6533 52.9813 12.504 53.3226 12.408C53.664 12.312 54.016 12.264 54.3786 12.264ZM63.1813 12.264C63.7466 12.264 64.2533 12.3707 64.7013 12.584C65.1599 12.7973 65.5493 13.1227 65.8693 13.56H65.9493L66.1413 12.424H67.2613V21.144C67.2613 21.9547 67.1226 22.632 66.8453 23.176C66.5679 23.7307 66.1466 24.1467 65.5813 24.424C65.0159 24.7013 64.2959 24.84 63.4213 24.84C62.8026 24.84 62.2319 24.792 61.7093 24.696C61.1973 24.6107 60.7386 24.4773 60.3333 24.296V23C60.6106 23.1387 60.9146 23.256 61.2453 23.352C61.5759 23.4587 61.9333 23.5387 62.3173 23.592C62.7013 23.6453 63.0959 23.672 63.5013 23.672C64.2373 23.672 64.8133 23.4533 65.2293 23.016C65.6559 22.5893 65.8693 22.0027 65.8693 21.256V20.92C65.8693 20.792 65.8746 20.6107 65.8853 20.376C65.8959 20.1307 65.9066 19.96 65.9173 19.864H65.8533C65.5546 20.3013 65.1813 20.6267 64.7333 20.84C64.2959 21.0533 63.7839 21.16 63.1973 21.16C62.0879 21.16 61.2186 20.7707 60.5893 19.992C59.9706 19.2133 59.6613 18.1253 59.6613 16.728C59.6613 15.8107 59.7999 15.0213 60.0773 14.36C60.3653 13.688 60.7706 13.1707 61.2933 12.808C61.8159 12.4453 62.4453 12.264 63.1813 12.264ZM63.3733 13.448C62.8933 13.448 62.4826 13.576 62.1413 13.832C61.8106 14.088 61.5546 14.4613 61.3733 14.952C61.2026 15.4427 61.1173 16.04 61.1173 16.744C61.1173 17.8 61.3093 18.6107 61.6933 19.176C62.0879 19.7307 62.6586 20.008 63.4053 20.008C63.8426 20.008 64.2159 19.9547 64.5253 19.848C64.8346 19.7307 65.0906 19.5547 65.2933 19.32C65.4959 19.0747 65.6453 18.7653 65.7413 18.392C65.8373 18.0187 65.8853 17.576 65.8853 17.064V16.728C65.8853 15.9493 65.7946 15.32 65.6133 14.84C65.4426 14.36 65.1706 14.008 64.7973 13.784C64.4239 13.56 63.9493 13.448 63.3733 13.448ZM71.393 21H69.985V8.84H71.393V21ZM75.518 12.424V21H74.11V12.424H75.518ZM74.83 9.208C75.0433 9.208 75.23 9.28267 75.39 9.432C75.5607 9.57067 75.646 9.79467 75.646 10.104C75.646 10.4027 75.5607 10.6267 75.39 10.776C75.23 10.9253 75.0433 11 74.83 11C74.5953 11 74.398 10.9253 74.238 10.776C74.078 10.6267 73.998 10.4027 73.998 10.104C73.998 9.79467 74.078 9.57067 74.238 9.432C74.398 9.28267 74.5953 9.208 74.83 9.208ZM83.819 18.632C83.819 19.1867 83.6803 19.6507 83.403 20.024C83.1257 20.3973 82.731 20.68 82.219 20.872C81.707 21.064 81.099 21.16 80.395 21.16C79.7977 21.16 79.2803 21.112 78.843 21.016C78.4163 20.92 78.0377 20.7867 77.707 20.616V19.336C78.0483 19.5067 78.459 19.6667 78.939 19.816C79.4297 19.9547 79.9257 20.024 80.427 20.024C81.1417 20.024 81.659 19.912 81.979 19.688C82.299 19.4533 82.459 19.144 82.459 18.76C82.459 18.5467 82.4003 18.3547 82.283 18.184C82.1657 18.0133 81.9523 17.8427 81.643 17.672C81.3443 17.5013 80.9123 17.3093 80.347 17.096C79.7923 16.8827 79.3177 16.6693 78.923 16.456C78.5283 16.2427 78.2243 15.9867 78.011 15.688C77.7977 15.3893 77.691 15.0053 77.691 14.536C77.691 13.8107 77.9843 13.2507 78.571 12.856C79.1683 12.4613 79.947 12.264 80.907 12.264C81.4297 12.264 81.915 12.3173 82.363 12.424C82.8217 12.52 83.2483 12.6587 83.643 12.84L83.163 13.96C82.9283 13.8533 82.6777 13.7627 82.411 13.688C82.155 13.6027 81.8937 13.5387 81.627 13.496C81.3603 13.4427 81.0883 13.416 80.811 13.416C80.235 13.416 79.7923 13.512 79.483 13.704C79.1843 13.8853 79.035 14.136 79.035 14.456C79.035 14.6907 79.1043 14.8933 79.243 15.064C79.3817 15.224 79.611 15.384 79.931 15.544C80.2617 15.6933 80.699 15.8747 81.243 16.088C81.787 16.2907 82.251 16.4987 82.635 16.712C83.019 16.9253 83.3123 17.1867 83.515 17.496C83.7177 17.7947 83.819 18.1733 83.819 18.632ZM87.2993 12.408C87.2993 12.6107 87.2886 12.8187 87.2673 13.032C87.2566 13.2453 87.2406 13.4373 87.2193 13.608H87.3153C87.4966 13.3093 87.7259 13.064 88.0033 12.872C88.2806 12.68 88.5899 12.536 88.9313 12.44C89.2726 12.3333 89.6246 12.28 89.9873 12.28C90.6806 12.28 91.2566 12.392 91.7153 12.616C92.1846 12.8293 92.5366 13.1653 92.7713 13.624C93.0059 14.0827 93.1233 14.68 93.1233 15.416V21H91.7313V15.512C91.7313 14.8187 91.5766 14.3013 91.2673 13.96C90.9579 13.6187 90.4726 13.448 89.8113 13.448C89.1713 13.448 88.6699 13.5707 88.3073 13.816C87.9446 14.0507 87.6833 14.4027 87.5233 14.872C87.3739 15.3307 87.2993 15.896 87.2993 16.568V21H85.8913V8.84H87.2993V12.408Z" fill="white"/>
<g clip-path="url(#clip1_103_1455)">
<path d="M107 24C111.418 24 115 20.4183 115 16C115 11.5817 111.418 8 107 8C102.582 8 99 11.5817 99 16C99 20.4183 102.582 24 107 24Z" fill="#6EC2CB"/>
<path d="M110.195 14.1064C109.208 15.0939 108.22 16.0817 107.232 17.0694C106.242 16.0794 105.252 15.0892 104.262 14.0991C103.399 13.2356 102.064 14.5808 102.929 15.4464C104.142 16.6586 105.354 17.8708 106.566 19.0829C106.932 19.4493 107.542 19.4393 107.906 19.0758C109.118 17.8636 110.33 16.6514 111.542 15.4392C112.406 14.5757 111.061 13.2407 110.195 14.1064Z" fill="white"/>
</g>
<defs>
<clipPath id="clip0_103_1455">
<rect width="32" height="32" fill="white"/>
</clipPath>
<clipPath id="clip1_103_1455">
<rect width="16" height="16" fill="white" transform="translate(99 8)"/>
</clipPath>
</defs>
</svg>
