<svg width="77" height="48" viewBox="0 0 77 48" fill="none" xmlns="http://www.w3.org/2000/svg">
<path d="M5.25451 41.215C5.25451 41.215 1.6551 38.7523 0.613159 30.7957H76.9587C76.9587 30.7957 77.0534 35.437 69.7599 43.2989C69.7599 43.2989 60.2877 48.3191 36.4179 47.5614C12.0745 46.7089 5.25451 41.215 5.25451 41.215Z" fill="url(#paint0_radial_147_7597)"/>
<path d="M0.613084 30.7957C-0.239409 28.0488 14.3477 22.9338 37.5545 22.9338C59.6246 22.9338 76.0114 28.1435 76.9586 30.7957C77.9058 33.4479 62.561 39.6995 37.5545 39.6995C12.4533 39.6995 1.65502 34.0163 0.613084 30.7957Z" fill="#FFD8EE"/>
<path d="M5.06498 29.0907C5.06498 29.0907 -1.47082 16.8716 0.518329 7.77832H76.7691C76.7691 7.77832 76.8639 22.6496 69.5703 31.1745C69.5703 31.1745 60.0981 36.1948 36.323 35.437C11.8849 34.5845 5.06498 29.0907 5.06498 29.0907Z" fill="url(#paint1_linear_147_7597)"/>
<path d="M0.518452 7.77839C-0.334041 5.03147 14.1584 0.0112305 37.3651 0.0112305C59.53 0.0112305 75.822 5.12619 76.7692 7.77839C77.7165 10.5253 62.4663 16.7769 37.3651 16.7769C12.3587 16.7769 1.46567 10.9989 0.518452 7.77839Z" fill="#A4A0C2"/>
<path d="M66.9181 8.34667C66.9813 8.53612 66.9181 8.72557 66.7287 8.91501C64.3606 11.283 42.8588 15.3561 28.8401 14.2194C28.7769 14.1563 28.7138 14.1247 28.6506 14.1247C21.9254 13.6511 17.1893 12.7039 14.0635 11.6619C10.9377 10.62 9.32744 9.48334 8.85383 8.53613C8.72753 8.28354 8.69595 8.06251 8.7591 7.87307C9.04327 5.88391 33.292 3.89478 45.1322 5.69448C50.1524 6.45226 51.668 7.39947 50.8155 8.25196C50.2471 9.00973 48.258 9.57806 45.4163 10.0517C43.2377 10.4305 40.6803 10.62 37.8386 10.7147C35.3758 10.841 33.2604 10.841 31.4923 10.7147C27.0403 10.5253 24.5776 10.0517 23.6304 9.67278C23.1884 9.60964 22.9673 9.54649 22.9673 9.48334C22.9673 9.48334 24.8618 6.73641 27.8929 7.68363C30.8292 8.63084 31.587 9.95695 31.587 9.95695C31.587 9.95695 43.806 10.4306 46.4582 8.72557C46.6477 8.66242 46.774 8.53612 46.8372 8.34667C48.1632 6.2628 12.1691 5.22088 12.0744 9.00974C12.0744 9.13603 12.1375 9.2939 12.2638 9.48334C14.1582 12.988 36.9861 15.4508 51.8574 10.9989C54.2254 10.3358 55.4568 9.57805 55.7409 8.82028C57.1618 5.59975 43.143 2.09506 25.809 2.2845H25.5248C18.989 2.37923 12.0743 2.94756 5.25439 4.27366L8.7591 3.13699C8.7591 3.13699 16.9051 0.86368 34.8075 1.52673C52.8046 2.18978 66.4445 6.07336 66.9181 8.34667Z" fill="#7B5B7B"/>
<path d="M31.4924 10.7148C27.0405 10.5254 24.5777 10.0518 23.6305 9.67289C24.3883 8.91511 25.8091 7.87318 27.893 8.53623C30.261 9.294 31.2082 10.3359 31.4924 10.7148Z" fill="#5A475C"/>
<path d="M46.8372 9.29378C46.9635 9.10433 46.8372 8.9149 46.4583 8.72546C46.6477 8.66231 46.7741 8.53601 46.8372 8.34656C48.1633 6.26269 12.1691 5.22076 12.0744 9.00962C12.0744 9.13592 12.1376 9.29379 12.2639 9.48323C12.1376 9.60953 12.0744 9.73582 12.0744 9.86211C12.0744 10.5252 12.8322 11.0935 14.0636 11.6618C10.9378 10.6199 9.32749 9.48323 8.85388 8.53602C10.6536 6.64159 33.6709 4.74715 45.1322 6.54686C48.5422 7.11519 50.2472 7.68352 50.8155 8.25185C50.2472 9.00962 48.258 9.57794 45.4164 10.0516C46.1742 9.86211 46.6478 9.57794 46.8372 9.29378Z" fill="#5A475C"/>
<path d="M66.7288 8.91501C64.3607 11.283 42.859 15.3561 28.8402 14.2194C28.777 14.1563 28.7139 14.1247 28.6507 14.1247C36.1337 14.5036 44.8481 13.9353 51.8575 11.8514C55.078 10.9042 56.2147 9.86222 55.741 8.82028C57.1619 5.59975 43.1431 2.09506 25.8091 2.2845C28.4613 2.22135 31.4608 2.25293 34.8076 2.37923C51.8575 3.04228 64.9291 6.54697 66.7288 8.91501Z" fill="#5A475C"/>
<path style="mix-blend-mode:multiply" opacity="0.5" d="M5.06506 29.0908C5.06506 29.0908 11.222 37.0474 31.2082 38.4682C59.6246 40.6468 69.5704 31.1747 69.5704 31.1747C69.5704 31.1747 34.6182 39.6996 5.06506 29.0908Z" fill="url(#paint2_linear_147_7597)"/>
<path d="M8.94861 13.1775C8.94861 13.1775 17.3788 15.9244 26.1879 15.9244C34.997 15.8297 48.4475 16.398 48.4475 16.398C48.4475 16.398 37.9333 19.808 28.7454 19.2397C19.4627 18.6713 8.94861 13.1775 8.94861 13.1775Z" fill="#8B6F8B"/>
<path d="M64.6449 13.8406C64.6449 13.8406 70.6123 10.0517 72.5068 9.38868C74.3065 8.72563 76.0115 9.38868 76.0115 9.38868C76.0115 9.38868 73.2646 14.5984 64.6449 13.8406Z" fill="#8B6F8B"/>
<path d="M0.707886 8.34676C0.707886 8.34676 1.56039 8.15732 2.79177 9.10454C4.02315 9.95703 8.2856 12.9881 8.2856 12.9881C8.2856 12.9881 3.3601 14.4089 1.84456 12.9881C1.1815 12.4198 0.707886 8.34676 0.707886 8.34676Z" fill="#8B6F8B"/>
<g style="mix-blend-mode:soft-light">
<path d="M43.0483 47.6562L43.9008 39.6996C43.9008 39.6996 52.7099 39.4154 59.6246 37.8999L56.4988 46.709C56.4988 46.709 47.5002 47.6562 43.0483 47.6562Z" fill="#FFCCB5"/>
</g>
<g style="mix-blend-mode:soft-light">
<path d="M7.05413 42.2569L5.25439 34.5845C5.25439 34.5845 10.0852 36.5736 12.8321 37.2367L13.1163 44.5302C13.1163 44.5302 9.80105 43.6777 7.05413 42.2569Z" fill="#FFCCB5"/>
</g>
<path d="M46.8372 8.34668V9.29389C46.8372 9.29389 46.2688 9.76751 45.7952 9.95696L45.6058 9.19918C45.6058 9.19918 46.4583 8.82029 46.8372 8.34668Z" fill="#7B5B7B"/>
<path d="M55.8358 8.34668V9.57806L54.7938 10.7147V9.86223C54.7938 9.86223 55.8358 9.38862 55.8358 8.34668Z" fill="#7B5B7B"/>
<path d="M12.0744 10.0517V8.72559C12.0744 8.72559 11.9797 9.48335 12.9269 10.2411L13.1164 11.1883C13.1164 11.1883 12.0744 10.62 12.0744 10.0517Z" fill="#7B5B7B"/>
<defs>
<radialGradient id="paint0_radial_147_7597" cx="0" cy="0" r="1" gradientUnits="userSpaceOnUse" gradientTransform="translate(38.7992 39.2079) scale(27.6236 27.6236)">
<stop stop-color="#FF9689"/>
<stop offset="0.989" stop-color="#FF909C"/>
</radialGradient>
<linearGradient id="paint1_linear_147_7597" x1="33.4738" y1="35.473" x2="33.4738" y2="7.82379" gradientUnits="userSpaceOnUse">
<stop stop-color="#48365E"/>
<stop offset="1" stop-color="#685763"/>
</linearGradient>
<linearGradient id="paint2_linear_147_7597" x1="5.05749" y1="29.0463" x2="69.5619" y2="29.0463" gradientUnits="userSpaceOnUse">
<stop stop-color="#C77CBD"/>
<stop offset="1" stop-color="#974577"/>
</linearGradient>
</defs>
</svg>
