<svg width="79" height="49" viewBox="0 0 79 49" fill="none" xmlns="http://www.w3.org/2000/svg">
<path d="M5.88954 41.9126C5.88954 41.9126 2.22735 39.4069 1.16724 31.3115H78.8443C78.8443 31.3115 78.9407 36.0338 71.5199 44.0328C71.5199 44.0328 61.8826 49.1406 37.5964 48.3696C12.8284 47.5987 5.88954 41.9126 5.88954 41.9126Z" fill="url(#paint0_radial_12_7956)"/>
<path d="M1.16693 31.3115C0.299563 28.5167 15.1411 23.3125 38.7526 23.3125C61.2076 23.3125 77.8803 28.613 78.844 31.3115C79.8077 34.0099 64.1952 40.467 38.7526 40.467C13.2136 40.467 2.22703 34.5882 1.16693 31.3115Z" fill="#FFD8EE"/>
<path d="M5.69649 29.5767C5.69649 29.5767 -0.95329 17.1445 1.07055 7.98901H78.6512C78.6512 7.98901 78.7476 23.0233 71.3269 31.6969C71.3269 31.6969 61.6895 36.8047 37.4997 36.0337C12.6354 35.1664 5.69649 29.5767 5.69649 29.5767Z" fill="url(#paint1_linear_12_7956)"/>
<path d="M1.07047 7.98901C0.203104 5.09781 14.9483 -0.0100098 38.5598 -0.0100098C61.1112 -0.0100098 77.6874 5.19418 78.6512 7.98901C79.6149 10.6875 64.0988 17.0481 38.5598 17.0481C13.1172 17.0481 2.0342 11.1693 1.07047 7.98901Z" fill="#A4A0C2"/>
<path d="M68.6286 8.47092C68.6928 8.66367 68.6286 8.85642 68.4358 9.04917C66.0265 11.4585 44.1497 15.6025 29.8864 14.4461C29.8222 14.4461 29.7258 14.4461 29.5973 14.4461C22.8511 13.8678 18.0325 12.9041 14.8521 11.844C11.6718 10.7839 10.0335 9.62739 9.5516 8.66365C9.4231 8.40666 9.39098 8.1818 9.45523 7.98906C9.74435 5.96521 34.3196 3.94135 46.4627 5.77245C51.5705 6.63981 53.1124 7.50719 52.2451 8.47092C51.6668 9.14554 49.643 9.72377 46.7518 10.2056C44.5352 10.5911 41.9331 10.7839 39.0419 10.8803C36.5362 11.0088 34.3839 11.0088 32.5849 10.8803C28.0553 10.6875 25.5496 10.2056 24.4895 9.91653C24.104 9.78803 23.9113 9.72377 23.9113 9.72377C23.9113 9.72377 25.8387 6.83256 28.8263 7.7963C31.9103 8.76003 32.6812 10.2056 32.6812 10.2056C32.6812 10.2056 45.1134 10.5911 47.8119 8.85641C48.0046 8.79216 48.1331 8.66367 48.1974 8.47092C49.4502 6.35071 12.9247 5.29058 12.8283 9.14552C12.8283 9.27402 12.8925 9.43464 13.021 9.62739C14.9485 13.1932 38.1745 15.6989 53.3052 11.1694C55.7145 10.4948 56.9674 9.72378 57.2565 8.95279C58.7021 5.67609 44.4388 2.11028 26.8025 2.30302H26.5133C19.8636 2.3994 12.8283 2.97761 5.8894 4.32684L9.45523 3.17038C9.45523 3.17038 17.647 0.857402 35.958 1.53202C54.2689 2.20663 68.0503 6.25433 68.6286 8.47092Z" fill="#4C95C7"/>
<path d="M32.5846 10.8803C28.0551 10.6876 25.5494 10.2057 24.4893 9.91661C25.3566 9.14562 26.8022 7.98912 28.8261 8.66373C31.3318 9.43472 32.2955 10.5912 32.5846 10.8803Z" fill="#00FFED"/>
<path d="M48.1975 9.43464C48.326 9.2419 48.1975 9.04914 47.812 8.8564C48.0048 8.79215 48.1333 8.66366 48.1975 8.47091C49.4504 6.35069 12.9248 5.29056 12.8285 9.14551C12.8285 9.274 12.8927 9.43463 13.0212 9.62737C12.8927 9.75587 12.8285 9.88439 12.8285 10.0129C12.8285 10.6875 13.5994 11.2657 14.8523 11.844C11.672 10.7839 10.0336 9.62737 9.55176 8.66364C11.3829 6.73617 34.8016 4.80872 46.4628 6.63982C49.9323 7.21806 51.667 7.79629 52.2452 8.47091C51.667 9.14552 49.6431 9.72375 46.7519 10.2056C47.4266 10.0129 48.0048 9.72376 48.1975 9.43464Z" fill="#00FFED"/>
<path d="M68.4356 9.04927C66.0263 11.4586 44.1495 15.6026 29.8862 14.4462C29.8219 14.4462 29.7256 14.4462 29.5971 14.4462C37.307 14.7353 46.1733 14.2534 53.305 12.0368C56.5817 11.0731 57.7381 10.013 57.2563 8.95289C58.7019 5.67619 44.4386 2.11038 26.8022 2.30313C29.5007 2.23888 32.5525 2.27098 35.9577 2.39948C53.305 3.07409 66.6045 6.63994 68.4356 9.04927Z" fill="#00FFED"/>
<path style="mix-blend-mode:multiply" opacity="0.5" d="M5.69653 29.5767C5.69653 29.5767 11.9608 37.672 32.2956 39.1176C61.2077 41.3342 71.3269 31.6969 71.3269 31.6969C71.3269 31.6969 35.7651 40.4669 5.69653 29.5767Z" fill="url(#paint2_linear_12_7956)"/>
<path d="M9.64795 13.386C9.64795 13.386 18.2252 16.1808 27.1879 16.1808C36.1507 16.0844 49.8357 16.6627 49.8357 16.6627C49.8357 16.6627 39.1383 20.1321 29.79 19.5539C20.3454 18.9756 9.64795 13.386 9.64795 13.386Z" fill="#8B6F8B"/>
<path d="M66.3154 14.0606C66.3154 14.0606 72.387 10.2056 74.3144 9.53103C76.1455 8.85642 77.8803 9.53103 77.8803 9.53103C77.8803 9.53103 75.0854 14.8316 66.3154 14.0606Z" fill="#8B6F8B"/>
<path d="M1.26343 8.47081C1.26343 8.47081 2.13079 8.27806 3.38365 9.24179C4.6365 10.1092 8.97331 13.1931 8.97331 13.1931C8.97331 13.1931 3.96189 14.6387 2.41991 13.1931C1.7453 12.6149 1.26343 8.47081 1.26343 8.47081Z" fill="#8B6F8B"/>
<g style="mix-blend-mode:soft-light">
<path d="M44.3423 48.466L45.2096 40.467C45.2096 40.467 54.1724 40.1779 61.2077 38.5396L58.0273 47.5023C58.0273 47.5023 48.8718 48.466 44.3423 48.466Z" fill="#FFCCB5"/>
</g>
<g style="mix-blend-mode:soft-light">
<path d="M7.7205 42.9725L5.8894 35.1663C5.8894 35.1663 10.8045 37.2865 13.5993 37.8647L13.8884 45.2855C13.8884 45.2855 10.5153 44.4181 7.7205 42.9725Z" fill="#FFCCB5"/>
</g>
<path d="M48.1974 8.47095V9.43468C48.1974 9.43468 47.6192 9.91653 47.1373 10.1093L46.9446 9.3383C46.9446 9.3383 47.8119 8.95281 48.1974 8.47095Z" fill="#4C95C7"/>
<path d="M57.3528 8.47095V9.72379L56.2927 10.8803V10.0129C56.2927 10.0129 57.3528 9.53106 57.3528 8.47095Z" fill="#4C95C7"/>
<path d="M12.8284 10.2057V8.85645C12.8284 8.85645 12.732 9.62744 13.6957 10.3984L13.8885 11.3622C13.8885 11.3622 12.8284 10.7839 12.8284 10.2057Z" fill="#4C95C7"/>
<defs>
<radialGradient id="paint0_radial_12_7956" cx="0" cy="0" r="1" gradientUnits="userSpaceOnUse" gradientTransform="translate(40.0183 39.8753) scale(28.1054 28.1054)">
<stop stop-color="#FF9689"/>
<stop offset="0.989" stop-color="#FF909C"/>
</radialGradient>
<linearGradient id="paint1_linear_12_7956" x1="34.5999" y1="36.0761" x2="34.5999" y2="7.94468" gradientUnits="userSpaceOnUse">
<stop stop-color="#48365E"/>
<stop offset="1" stop-color="#685763"/>
</linearGradient>
<linearGradient id="paint2_linear_12_7956" x1="5.68786" y1="29.5371" x2="71.3173" y2="29.5371" gradientUnits="userSpaceOnUse">
<stop stop-color="#C77CBD"/>
<stop offset="1" stop-color="#974577"/>
</linearGradient>
</defs>
</svg>
