<svg width="143" height="142" viewBox="0 0 143 142" fill="none" xmlns="http://www.w3.org/2000/svg">
<g clip-path="url(#clip0_623_47163)">
<path d="M138.283 61.9034C136.79 59.5493 135.163 57.9357 134.422 57.2548C134.216 57.0651 134.08 56.9489 134.019 56.8996C134.012 56.894 134.005 56.8882 133.999 56.8829C133.992 56.8777 133.992 56.8777 133.992 56.8777C145.006 49.7857 126.547 38.0313 126.547 38.0313C129.663 34.1945 127.516 30.1359 122.614 26.6292C124.057 23.0434 124.439 18.4997 120.357 14.4945C113.485 7.75342 101.182 9.17647 94.9322 17.451C91.5939 17.1324 88.3459 17.0966 85.3819 17.4039C80.5104 17.9092 75.0789 19.4809 69.8704 21.6794C62.0837 14.4582 49.4127 15.4927 43.9728 23.6463C40.8927 28.2572 42.0289 32.5052 44.0671 35.6908C45.0775 37.2772 46.31 38.5932 47.3586 39.5642C46.6018 41.9932 47.1076 44.2347 49.3325 46.0402C49.3325 46.0402 33.6726 61.3337 45.9081 66.0142C45.9081 66.0142 44.0735 68.2662 42.798 71.8326C42.1329 73.6841 41.6168 75.8926 41.6013 78.3163C41.5927 78.4725 41.5902 78.6281 41.5943 78.7889C41.6418 82.4793 42.8454 86.6583 46.3305 90.8611C47.7993 92.6281 49.348 94.088 50.9561 95.2814C56.9001 99.7067 63.6911 101.613 69.6687 102.32C65.1042 108.392 55.6232 109.617 48.1729 106.637V123.889H75.3307L74.664 119.468C79.3367 122.223 85.8628 123.935 93.086 123.935C107.294 123.935 118.812 117.315 118.812 109.149C118.812 105.447 116.444 102.062 112.53 99.4682C122.502 96.811 132.791 91.5445 138.679 81.2828C143.354 73.1336 141.051 66.2555 138.283 61.9034Z" fill="#FFD5AE"/>
<path d="M138.678 81.281C124.614 105.793 85.4424 101.814 85.4424 101.814C85.4424 101.814 61.1981 108.769 46.3299 90.8599C42.8448 86.657 41.6412 82.478 41.5938 78.7877C47.073 81.3185 54.8258 81.4022 62.0368 78.2943C68.8957 75.3287 70.6344 61.7338 79.3347 60.8313C88.035 59.9289 92.6084 72.5275 99.8484 74.3724C125.778 80.9676 136.301 70.2186 138.283 61.9025C141.05 66.2545 143.354 73.1327 138.678 81.281Z" fill="#FFF1E6"/>
<path d="M61.2202 82.5777C61.8842 88.9799 57.8147 94.6496 52.125 95.2398C51.7317 95.2806 51.3421 95.2961 50.9554 95.2806C49.3474 94.0874 47.7987 92.6272 46.3299 90.8603C42.8448 86.6574 41.6411 82.4784 41.5937 78.7881C41.5895 78.6272 41.5918 78.4716 41.6006 78.3155C43.0916 74.9063 46.077 72.4355 49.7204 72.0578C55.4101 71.4673 60.5568 76.1813 61.2202 82.5777Z" fill="#FF9EB6"/>
<path d="M122.815 83.6551C126.382 78.2989 124.932 71.0651 119.575 67.498C114.219 63.9308 106.985 65.3811 103.418 70.7373C99.8511 76.0935 101.301 83.3273 106.658 86.8944C112.014 90.4616 119.248 89.0113 122.815 83.6551Z" fill="#FF9EB6"/>
<path d="M103.227 69.4269C103.932 66.8387 102.404 64.1696 99.8162 63.4652C97.2279 62.7608 94.5588 64.2879 93.8544 66.8761C93.15 69.4643 94.6771 72.1335 97.2653 72.8379C99.8536 73.5423 102.523 72.0152 103.227 69.4269Z" fill="#605C5D"/>
<path d="M66.8683 71.4343C66.5915 68.7663 64.2044 66.8276 61.5364 67.1044C58.8683 67.3812 56.9297 69.7683 57.2065 72.4364C57.4833 75.1044 59.8704 77.043 62.5384 76.7663C65.2065 76.4895 67.1451 74.1024 66.8683 71.4343Z" fill="#605C5D"/>
<path d="M90.0476 70.3779C89.2153 70.237 88.4262 70.7969 88.2848 71.629C88.2232 71.9912 88.0643 72.3476 87.8147 72.6726C87.2789 73.3862 86.4075 73.8541 85.4235 73.9561C84.2617 74.0779 83.1417 73.655 82.4892 72.8362C82.2076 72.4943 82.0418 72.1018 81.9969 71.6697V71.6686L81.463 66.5211C81.3759 65.6813 80.6212 65.0723 79.7848 65.1585C78.945 65.2456 78.3351 65.9969 78.4222 66.8365L78.9561 71.984C79.0013 72.4205 78.92 72.8412 78.7056 73.2509C78.2425 74.1636 77.2307 74.8057 76.0656 74.9266C75.0807 75.0281 74.1322 74.7496 73.4575 74.1575C73.1571 73.896 72.9236 73.5729 72.7821 73.2229C72.4654 72.4402 71.5748 72.0625 70.7919 72.3789C70.0092 72.6953 69.6315 73.5865 69.9479 74.3691C70.2691 75.1629 70.7883 75.887 71.4456 76.4595C72.5841 77.4584 74.0942 78.0043 75.6715 78.0043C75.9067 78.0043 76.1435 77.9921 76.3809 77.9674C78.1925 77.7793 79.8314 76.8708 80.8634 75.5348C82.1508 76.6342 83.9333 77.1836 85.7385 76.997C87.5665 76.8072 89.2142 75.9003 90.2492 74.5214C90.7912 73.8155 91.1539 72.9924 91.2984 72.1409C91.4399 71.3084 90.8799 70.5193 90.0476 70.3779Z" fill="#FF9356"/>
<path d="M82.6894 64.2176C81.8468 63.5245 80.6021 63.6454 79.9087 64.488L79.7412 64.6915L79.5376 64.524C78.6951 63.8309 77.4504 63.9519 76.757 64.7944C76.0639 65.637 76.1848 66.8817 77.0274 67.5748L77.751 68.17C79.1488 69.3201 81.2145 69.1193 82.3646 67.7212L82.9598 66.9977C83.6531 66.1556 83.532 64.9106 82.6894 64.2176Z" fill="#FD80A6"/>
<path d="M112.914 30.3357L105.268 27.6019C102.965 26.7784 102.202 23.8902 103.814 22.0503C106.535 18.9432 110.451 16.0841 114.56 18.4487C118.388 20.6489 118.263 24.7292 117.203 28.2242C116.658 30.0225 114.683 30.9683 112.914 30.3357Z" fill="#FFF1E6"/>
<path d="M141.457 64.713C140.024 61.1774 137.802 58.5019 136.353 57.0042C138.133 55.4206 139.031 53.551 139.025 51.4274C139.01 45.5466 131.784 39.8153 128.664 37.6146C129.399 36.2653 129.671 34.8478 129.473 33.3843C129.136 30.887 127.439 28.4348 124.435 26.0829C124.594 25.5942 124.734 25.0942 124.845 24.5814C125.758 20.358 124.577 16.4935 121.427 13.405C117.375 9.4309 111.36 7.83368 105.335 9.1322C100.914 10.0854 97.0389 12.4811 94.2447 15.8581C91.0108 15.5888 87.9759 15.5943 85.2238 15.88C80.6554 16.354 75.3969 17.7781 70.1693 19.8995C66.0155 16.4241 60.5987 14.8069 55.1503 15.4518C49.9459 16.0672 45.4105 18.7449 42.7075 22.7975C39.0402 28.2886 40.1246 34.5361 45.6549 40.0485C45.2003 42.3117 45.7173 44.3576 47.1739 46.0658C44.5707 48.8606 38.6716 55.9545 39.8636 61.7138C40.2941 63.7942 41.5571 65.4399 43.6261 66.6242C42.7286 68.0628 41.4886 70.4066 40.7315 73.3437C39.5505 77.9243 39.3589 84.8504 45.154 91.8342C51.2481 99.1746 58.8112 102.539 65.8563 103.888C61.4751 106.952 54.6652 107.588 48.7406 105.218C47.9565 104.904 47.0674 105.286 46.754 106.069C46.4403 106.853 46.8216 107.742 47.6054 108.056C50.4413 109.19 53.4183 109.736 56.3049 109.736C61.6157 109.736 66.6168 107.887 69.8609 104.46C71.4012 104.607 72.8953 104.67 74.3189 104.67C75.0206 104.67 75.7053 104.655 76.3704 104.627C77.2138 104.593 77.8697 103.881 77.8351 103.037C77.8004 102.194 77.0876 101.538 76.245 101.573C67.8504 101.915 56.0469 100.169 47.5061 89.8817C38.0379 78.4706 46.7213 67.4368 47.0934 66.975C47.403 66.5948 47.5108 66.0892 47.3844 65.6155C47.2579 65.1421 46.9115 64.7579 46.4539 64.5826C44.3541 63.7795 43.1779 62.639 42.8579 61.0959C41.926 56.6037 47.9868 49.4913 50.4002 47.1302C50.7122 46.8254 50.8792 46.4019 50.8592 45.9665C50.8393 45.5308 50.634 45.1245 50.2954 44.8499C48.6898 43.547 48.2106 42.0377 48.7872 40.0999C49.9318 36.2534 55.0557 31.3763 62.4938 27.0536C70.0262 22.6766 78.6413 19.636 85.5391 18.9208C87.6039 18.7067 89.8507 18.6631 92.2367 18.7857C91.7818 19.5961 91.3786 20.4428 91.0363 21.3245C90.7307 22.1113 91.1207 22.9972 91.9078 23.3028C92.6949 23.6082 93.5801 23.2182 93.8861 22.4314C95.9312 17.1666 100.452 13.312 105.98 12.1203C110.997 11.0389 115.971 12.3352 119.287 15.5874C121.603 17.8583 124.577 22.8385 118.481 30.6777C117.963 31.3441 118.083 32.3043 118.749 32.8226C119.028 33.0395 119.359 33.1446 119.687 33.1446C120.142 33.1446 120.593 32.9416 120.895 32.5544C121.619 31.6231 122.454 30.4136 123.192 29.0092C125.125 30.6555 126.241 32.2901 126.445 33.7939C126.596 34.911 126.241 35.981 125.361 37.0654C125.086 37.4035 124.969 37.8431 125.039 38.2733C125.108 38.7034 125.358 39.0834 125.726 39.3177C128.571 41.1332 135.959 46.8496 135.969 51.4371C135.972 53.0135 135.055 54.3717 133.165 55.5889C132.755 55.853 132.496 56.2973 132.467 56.784C132.438 57.2708 132.644 57.7428 133.02 58.0534C133.035 58.0656 133.168 58.1771 133.387 58.3754C135.944 60.7337 143.787 69.3 137.352 80.5194C132.774 88.498 122.309 98.3986 98.4592 100.255C97.6177 100.32 96.9884 101.056 97.0539 101.897C97.1163 102.699 97.7858 103.307 98.5762 103.307C98.6159 103.307 98.6561 103.306 98.6966 103.303C106.944 102.661 114.343 100.982 120.691 98.3118C129.416 94.6417 135.914 89.1672 140.004 82.0406C143.252 76.3756 143.755 70.3839 141.457 64.713ZM60.9576 24.4108C54.0911 28.4012 49.1208 32.8287 46.8666 36.886C42.2502 31.6744 43.3604 27.3237 45.2499 24.4946C47.4559 21.1875 51.1951 18.9979 55.5089 18.4876C59.5878 18.0047 63.6412 19.0223 66.9526 21.2962C64.9119 22.2403 62.8987 23.2828 60.9576 24.4108Z" fill="#FF9356"/>
<path d="M86.6028 125.462H27.8275C26.9833 125.462 26.2991 124.777 26.2991 123.933V33.1866C26.2991 32.3424 26.9836 31.6582 27.8275 31.6582C28.6717 31.6582 29.356 32.3424 29.356 33.1866V122.405H86.6028C87.447 122.405 88.1312 123.089 88.1312 123.933C88.1312 124.777 87.447 125.462 86.6028 125.462Z" fill="#678490"/>
<path d="M45.4036 58.4961H10.2514C5.91711 58.4961 2.40344 62.0098 2.40344 66.3441C2.40344 70.6784 5.91711 74.1921 10.2514 74.1921H45.4036C49.738 74.1921 53.2516 70.6784 53.2516 66.3441C53.2516 62.0098 49.738 58.4961 45.4036 58.4961Z" fill="#FFFF9D"/>
<path d="M12.8387 67.8713H10.5723C9.72803 67.8713 9.04382 67.1871 9.04382 66.3429C9.04382 65.4987 9.72803 64.8145 10.5723 64.8145H12.8387C13.683 64.8145 14.3672 65.4987 14.3672 66.3429C14.3674 67.1868 13.683 67.8713 12.8387 67.8713Z" fill="#605C5D"/>
<path d="M45.0824 67.8713H18.6318C17.7876 67.8713 17.1034 67.1871 17.1034 66.3429C17.1034 65.4987 17.7876 64.8145 18.6318 64.8145H45.0824C45.9266 64.8145 46.6108 65.4987 46.6108 66.3429C46.6108 67.1868 45.9263 67.8713 45.0824 67.8713Z" fill="#605C5D"/>
<path d="M45.4036 75.7197H10.2514C5.08119 75.7197 0.875 71.5135 0.875 66.3432C0.875 61.173 5.08119 56.9668 10.2514 56.9668H45.4036C50.5739 56.9668 54.7801 61.173 54.7801 66.3432C54.7801 71.5135 50.5739 75.7197 45.4036 75.7197ZM10.2514 60.0237C6.76689 60.0237 3.93216 62.8587 3.93216 66.343C3.93216 69.8275 6.76717 72.6625 10.2514 72.6625H45.4036C48.8882 72.6625 51.7232 69.8275 51.7232 66.343C51.7232 62.8584 48.8882 60.0237 45.4036 60.0237H10.2514Z" fill="#FFCC6B"/>
<path d="M45.4036 28.207H10.2514C5.91711 28.207 2.40344 31.7207 2.40344 36.055C2.40344 40.3894 5.91711 43.903 10.2514 43.903H45.4036C49.738 43.903 53.2516 40.3894 53.2516 36.055C53.2516 31.7207 49.738 28.207 45.4036 28.207Z" fill="#FD80A6"/>
<path d="M12.8387 37.5823H10.5723C9.72803 37.5823 9.04382 36.8981 9.04382 36.0538C9.04382 35.2096 9.72803 34.5254 10.5723 34.5254H12.8387C13.683 34.5254 14.3672 35.2096 14.3672 36.0538C14.3674 36.8978 13.683 37.5823 12.8387 37.5823Z" fill="#605C5D"/>
<path d="M45.0824 37.5823H18.6318C17.7876 37.5823 17.1034 36.8981 17.1034 36.0538C17.1034 35.2096 17.7876 34.5254 18.6318 34.5254H45.0824C45.9266 34.5254 46.6108 35.2096 46.6108 36.0538C46.6108 36.8978 45.9263 37.5823 45.0824 37.5823Z" fill="#605C5D"/>
<path d="M45.4036 45.4306H10.2514C5.08119 45.4306 0.875 41.2241 0.875 36.0539C0.875 30.8839 5.08119 26.6777 10.2514 26.6777H45.4036C50.5739 26.6777 54.7801 30.8839 54.7801 36.0542C54.7801 41.2241 50.5739 45.4306 45.4036 45.4306ZM10.2514 29.7346C6.76689 29.7346 3.93216 32.5693 3.93216 36.0539C3.93216 39.5384 6.76717 42.3735 10.2514 42.3735H45.4036C48.8882 42.3735 51.7232 39.5387 51.7232 36.0539C51.7232 32.5693 48.8882 29.7346 45.4036 29.7346H10.2514Z" fill="#FE518E"/>
<path d="M45.4036 86.5156H10.2514C5.91711 86.5156 2.40344 90.0293 2.40344 94.3636C2.40344 98.6979 5.91711 102.212 10.2514 102.212H45.4036C49.738 102.212 53.2516 98.6979 53.2516 94.3636C53.2516 90.029 49.738 86.5156 45.4036 86.5156Z" fill="#89D770"/>
<path d="M12.8387 95.8909H10.5723C9.72803 95.8909 9.04382 95.2067 9.04382 94.3624C9.04382 93.5182 9.72803 92.834 10.5723 92.834H12.8387C13.683 92.834 14.3672 93.5182 14.3672 94.3624C14.3674 95.2064 13.683 95.8909 12.8387 95.8909Z" fill="#605C5D"/>
<path d="M45.0824 95.8909H18.6318C17.7876 95.8909 17.1034 95.2067 17.1034 94.3624C17.1034 93.5182 17.7876 92.834 18.6318 92.834H45.0824C45.9266 92.834 46.6108 93.5182 46.6108 94.3624C46.6108 95.2064 45.9263 95.8909 45.0824 95.8909Z" fill="#605C5D"/>
<path d="M45.4036 103.739H10.2514C5.08119 103.739 0.875 99.533 0.875 94.3628C0.875 89.1925 5.08119 84.9863 10.2514 84.9863H45.4036C50.5739 84.9863 54.7801 89.1925 54.7801 94.3628C54.7801 99.533 50.5739 103.739 45.4036 103.739ZM10.2514 88.0435C6.76689 88.0435 3.93216 90.8785 3.93216 94.363C3.93216 97.8476 6.76717 100.682 10.2514 100.682H45.4036C48.8882 100.682 51.7232 97.8473 51.7232 94.363C51.7232 90.8785 48.8882 88.0435 45.4036 88.0435H10.2514Z" fill="#6DB850"/>
<path d="M45.4036 116.086H10.2514C5.91711 116.086 2.40344 119.6 2.40344 123.934C2.40344 128.268 5.91711 131.782 10.2514 131.782H45.4036C49.738 131.782 53.2516 128.268 53.2516 123.934C53.2516 119.6 49.738 116.086 45.4036 116.086Z" fill="#65E1E9"/>
<path d="M12.8387 125.461H10.5723C9.72803 125.461 9.04382 124.777 9.04382 123.933C9.04382 123.089 9.72803 122.404 10.5723 122.404H12.8387C13.683 122.404 14.3672 123.089 14.3672 123.933C14.3672 124.777 13.683 125.461 12.8387 125.461Z" fill="#605C5D"/>
<path d="M45.0824 125.461H18.6318C17.7876 125.461 17.1034 124.777 17.1034 123.933C17.1034 123.089 17.7876 122.404 18.6318 122.404H45.0824C45.9266 122.404 46.6108 123.089 46.6108 123.933C46.6108 124.777 45.9263 125.461 45.0824 125.461Z" fill="#605C5D"/>
<path d="M45.4036 133.31H10.2514C5.08119 133.31 0.875 129.103 0.875 123.933C0.875 118.763 5.08119 114.557 10.2514 114.557H45.4036C50.5739 114.557 54.7801 118.763 54.7801 123.933C54.7801 129.103 50.5739 133.31 45.4036 133.31ZM10.2514 117.614C6.76689 117.614 3.93216 120.449 3.93216 123.933C3.93216 127.418 6.76717 130.253 10.2514 130.253H45.4036C48.8882 130.253 51.7232 127.418 51.7232 123.933C51.7232 120.449 48.8882 117.614 45.4036 117.614H10.2514Z" fill="#00D4D7"/>
<path d="M109.028 116.086H73.8757C69.5414 116.086 66.0277 119.6 66.0277 123.934C66.0277 128.268 69.5414 131.782 73.8757 131.782H109.028C113.362 131.782 116.876 128.268 116.876 123.934C116.876 119.6 113.362 116.086 109.028 116.086Z" fill="#FFFF9D"/>
<path d="M76.4631 125.461H74.1969C73.3527 125.461 72.6685 124.777 72.6685 123.933C72.6685 123.089 73.3527 122.404 74.1969 122.404H76.4631C77.3073 122.404 77.9915 123.089 77.9915 123.933C77.9915 124.777 77.3073 125.461 76.4631 125.461Z" fill="#605C5D"/>
<path d="M108.707 125.461H82.2562C81.412 125.461 80.7278 124.777 80.7278 123.933C80.7278 123.089 81.412 122.404 82.2562 122.404H108.707C109.551 122.404 110.235 123.089 110.235 123.933C110.235 124.777 109.551 125.461 108.707 125.461Z" fill="#605C5D"/>
<path d="M109.028 133.31H73.8757C68.7055 133.31 64.4993 129.103 64.4993 123.933C64.4993 118.763 68.7055 114.557 73.8757 114.557H109.028C114.198 114.557 118.404 118.763 118.404 123.933C118.404 129.103 114.198 133.31 109.028 133.31ZM73.8757 117.614C70.3912 117.614 67.5564 120.449 67.5564 123.933C67.5564 127.418 70.3912 130.253 73.8757 130.253H109.028C112.512 130.253 115.347 127.418 115.347 123.933C115.347 120.449 112.512 117.614 109.028 117.614H73.8757Z" fill="#FFCC6B"/>
<path d="M44.6426 106.527C49.9426 106.201 54.3532 107.797 54.6786 113.097C55.0039 118.397 50.971 122.958 45.671 123.283C40.371 123.608 35.8106 119.575 35.4853 114.275C35.1602 108.975 39.3426 106.852 44.6426 106.527Z" fill="#FFD5AE"/>
<path d="M45.075 124.829C39.2391 124.829 34.3221 120.27 33.9599 114.368C33.6212 108.849 37.4816 105.434 44.5491 105C47.7242 104.806 50.3248 105.267 52.2784 106.371C54.6633 107.72 56.0206 110.013 56.2042 113.003C56.5806 119.136 51.8974 124.432 45.7647 124.808C45.5337 124.822 45.3032 124.829 45.075 124.829ZM44.7363 108.052C39.3808 108.38 36.7816 110.443 37.0112 114.181C37.2844 118.631 41.1273 122.029 45.5775 121.756C50.0278 121.483 53.4261 117.641 53.1529 113.19C53.0325 111.229 52.2546 109.869 50.7738 109.032C49.3633 108.235 47.2757 107.896 44.7363 108.052Z" fill="#FF9356"/>
<path d="M115.902 101.893C124.939 104.651 133.196 109.643 133.811 114.893C134.683 122.333 104.014 132.355 99.3051 123.888C94.5958 115.42 107.52 108.212 118.648 112.644C118.648 112.644 112.133 100.742 115.902 101.893Z" fill="#FFD5AE"/>
<path d="M107.697 128.652C103.316 128.652 99.5958 127.556 97.9708 124.632C96.0804 121.235 96.462 117.619 99.0183 114.711C102.658 110.57 110.973 107.942 119.214 111.227C119.998 111.54 120.38 112.429 120.068 113.213C119.755 113.998 118.866 114.38 118.082 114.067C111.395 111.401 104.306 113.327 101.314 116.73C100.129 118.078 99.0505 120.285 100.643 123.146C102.372 126.257 110.504 126.4 119.558 123.481C127.725 120.847 132.528 117.066 132.295 115.074C131.704 110.008 120.753 103.8 108.862 101.788C108.029 101.647 107.469 100.858 107.609 100.026C107.75 99.1931 108.54 98.6325 109.371 98.7737C119.579 100.501 134.382 106.59 135.331 114.719C135.597 116.994 134.07 119.299 130.79 121.57C128.176 123.381 124.52 125.093 120.496 126.39C116.431 127.701 111.778 128.651 107.697 128.652Z" fill="#FF9356"/>
</g>
<defs>
<clipPath id="clip0_623_47163">
<rect width="142" height="142" fill="white" transform="translate(0.875)"/>
</clipPath>
</defs>
</svg>
