<svg width="27" height="28" viewBox="0 0 27 28" fill="none" xmlns="http://www.w3.org/2000/svg">
<path d="M16.4449 26.7394L15.0211 26.819C14.6828 26.8364 14.3714 26.6149 14.2537 26.2742L13.9683 25.439L17.3381 25.2484L17.148 26.1143C17.0714 26.4631 16.7852 26.7186 16.4449 26.7394Z" fill="#C7C4C4"/>
<path d="M18.0421 21.8264L13.0145 22.1095C13.0969 21.0058 12.5031 19.9601 11.7687 19.1339C11.0363 18.3041 10.1553 17.6198 9.44937 16.7683C7.99654 15.0002 7.44478 12.5362 7.97616 10.3185C8.02625 10.1116 8.08128 9.91216 8.15071 9.71181C8.63595 8.2627 9.60218 6.98957 10.833 6.09111C11.3716 5.69468 11.9724 5.39886 12.6041 5.18562C13.2339 4.97585 13.8925 4.85213 14.5602 4.81686C14.9993 4.79299 15.4384 4.8014 15.8747 4.8545C16.7583 4.95777 17.6213 5.22485 18.4021 5.66638C19.7293 6.41879 20.8313 7.57746 21.4782 8.96357C21.6976 9.43241 21.8618 9.92484 21.9733 10.4285C22.4013 12.354 22.0527 14.4553 20.979 16.1149C20.3779 17.044 19.5757 17.8246 18.9439 18.7268C18.6226 19.1793 18.3481 19.6866 18.1764 20.2163C18.0032 20.7405 17.9362 21.2891 18.0421 21.8264Z" fill="#FFCE3B"/>
<path d="M21.9734 10.4282C21.9539 10.454 21.9289 10.4812 21.904 10.5084C21.7318 10.6864 21.488 10.8045 21.2452 10.7846C20.8366 10.7475 20.5671 10.3653 20.3396 10.0306C20.1067 9.69725 19.771 9.34163 19.3709 9.40193C19.0777 9.44532 18.869 9.69471 18.6609 9.90289C18.4529 10.1111 18.1595 10.3069 17.8818 10.2113C17.7043 10.1504 17.5784 9.97604 17.541 9.79261C17.5035 9.60917 17.5332 9.41361 17.5941 9.23607C17.6822 8.9633 17.8304 8.70668 17.8922 8.42336C17.9541 8.14004 17.9148 7.80759 17.6852 7.62876C17.3818 7.39348 16.946 7.53954 16.5693 7.47926C16.2016 7.41951 15.8928 7.15341 15.7279 6.82239C15.563 6.49137 15.5359 6.10584 15.5847 5.741C15.6283 5.43326 15.7345 5.12927 15.8817 4.85825C16.7653 4.96152 17.6283 5.2286 18.4091 5.67014C19.7363 6.42254 20.8383 7.58121 21.4852 8.96732C21.6942 9.43015 21.8619 9.92459 21.9734 10.4282Z" fill="#FAB815"/>
<path d="M16.8772 12.2714C16.4819 12.0432 16.3182 11.5418 16.3976 10.7877C16.4515 10.2779 16.5061 9.7268 16.1893 9.38666C16.0088 9.19464 15.7485 9.10905 15.4737 9.02438C15.317 8.97551 15.1568 8.92463 15.0051 8.85095C14.1988 8.44555 13.9051 7.4807 13.9772 6.69926C14.0389 5.99973 14.3303 5.35883 14.6329 4.77063C14.6555 4.72355 14.7176 4.70396 14.7627 4.72999C14.8133 4.75455 14.8294 4.81472 14.8034 4.8598C14.5073 5.42866 14.2279 6.04875 14.1698 6.718C14.1086 7.4086 14.3698 8.31767 15.0943 8.68049C15.2321 8.74617 15.3833 8.79651 15.5331 8.84138C15.8218 8.93405 16.1194 9.02726 16.3334 9.25718C16.7111 9.66017 16.6483 10.2574 16.5933 10.7851C16.5212 11.4786 16.6508 11.9188 16.9768 12.107C17.3028 12.2952 17.7474 12.1496 18.0395 11.916C18.211 11.7792 18.3627 11.6125 18.5125 11.4492C18.6412 11.3063 18.7775 11.1584 18.9271 11.0274C19.3394 10.6737 19.8098 10.5476 20.1866 10.6958C20.5109 10.8229 20.6978 11.1158 20.8818 11.3977C20.9869 11.5601 21.0934 11.7279 21.224 11.8542C21.4628 12.0892 21.8069 12.2139 22.1423 12.1856C22.1965 12.1799 22.2425 12.2203 22.2447 12.2725C22.2505 12.3266 22.21 12.3726 22.1579 12.3749C21.7649 12.4069 21.3627 12.2626 21.0868 11.9877C20.9429 11.8445 20.828 11.6672 20.718 11.4973C20.5438 11.2303 20.3815 10.9748 20.1133 10.8708C19.6577 10.691 19.1857 11.0519 19.0531 11.1695C18.913 11.2921 18.7787 11.4365 18.6519 11.576C18.4982 11.7462 18.339 11.9178 18.1546 12.061C17.8361 12.3164 17.3072 12.5197 16.8772 12.2714Z" fill="#FAB815"/>
<path d="M18.0418 21.8263L13.0142 22.1094C13.0966 21.0057 12.5028 19.96 11.7684 19.1338C11.036 18.304 10.153 17.6231 9.44904 16.7682C7.99074 15.0015 7.44445 12.5361 7.97583 10.3184C7.97399 11.0663 8.00936 11.8219 8.24512 12.5268C8.53433 13.3873 9.16999 14.1843 10.0501 14.4058C10.6544 14.5604 11.3378 14.4418 11.8788 14.7541C12.4906 15.112 12.6903 15.8792 12.8954 16.5571C13.1005 17.235 13.4696 17.9891 14.1669 18.1188C14.7078 18.223 15.2565 17.8972 15.798 17.9925C16.4427 18.1011 16.8347 18.7436 17.1913 19.287C17.438 19.6606 17.7755 20.0451 18.1691 20.2122C18.0029 20.7404 17.9379 21.2855 18.0418 21.8263Z" fill="#FAB815"/>
<path d="M12.9663 22.1927C12.9594 22.1886 12.9524 22.1846 12.9475 22.1772C12.9272 22.1562 12.9179 22.1323 12.9215 22.1021C13.0077 20.9358 12.3051 19.8782 11.7002 19.1961C11.6632 19.1562 11.6704 19.0956 11.7083 19.062C11.7482 19.0249 11.8087 19.0322 11.8423 19.0701C12.4522 19.7597 13.1582 20.8192 13.1156 22.0061L17.9271 21.7369C17.8523 21.2499 17.9067 20.7311 18.083 20.1855C18.2442 19.6821 18.5097 19.1742 18.8611 18.6697C19.1535 18.2513 19.4841 17.855 19.8046 17.4759C20.1796 17.0266 20.5716 16.564 20.8921 16.0648C22.2304 14.0031 22.4255 11.2306 21.386 9.00283C20.7597 7.66102 19.6742 6.49795 18.3484 5.75101C17.2451 5.12327 15.9332 4.83284 14.5596 4.91364C13.8919 4.94891 13.2422 5.07317 12.6289 5.27854C11.9788 5.49964 11.3938 5.80001 10.8836 6.17123C10.0918 6.7498 9.40856 7.49276 8.90177 8.31448C8.87575 8.35956 8.82105 8.37422 8.76903 8.34418C8.72395 8.31816 8.70783 8.25799 8.73932 8.21144C9.25666 7.36345 9.95885 6.60369 10.7731 6.01032C11.2948 5.62722 11.9001 5.31553 12.5701 5.09203C13.1998 4.88226 13.866 4.75361 14.55 4.71394C15.9614 4.63182 17.3106 4.92986 18.4451 5.57562L18.4971 5.60565C19.8391 6.38047 20.9276 7.55448 21.5617 8.9147C22.6283 11.1997 22.4289 14.0437 21.0531 16.1623C20.7231 16.67 20.3326 17.1381 19.9501 17.5923C19.633 17.9733 19.301 18.3642 19.0146 18.7722C18.6732 19.2594 18.4177 19.75 18.2611 20.2375C18.0808 20.79 18.0402 21.3168 18.1314 21.7994C18.1388 21.8268 18.1317 21.8551 18.1142 21.8773C18.0967 21.8996 18.0708 21.9124 18.042 21.9143L13.0194 22.2048C12.9995 22.2072 12.9837 22.2027 12.9663 22.1927Z" fill="#010101"/>
<path d="M14.3501 22.6075C14.3189 22.5894 14.2997 22.5506 14.3039 22.5114C14.5347 20.7582 14.5158 18.981 14.2558 17.245C14.0621 17.2441 13.8749 17.2239 13.7018 17.1794C12.9522 16.9963 12.2823 16.4107 11.9123 15.61C11.6088 14.9585 11.4882 14.1583 11.5579 13.2368C11.5737 13.0332 11.5971 12.7924 11.6999 12.5743C11.8167 12.332 12.0191 12.1576 12.2423 12.1154C12.4874 12.0673 12.7625 12.1753 12.9627 12.3972C13.1293 12.5812 13.2286 12.8096 13.3204 13.043C13.8312 14.3366 14.1972 15.6807 14.4166 17.0465C14.4365 17.0441 14.4598 17.0438 14.4797 17.0414C14.9845 16.9999 15.5012 16.9699 16.0098 16.9538C16.0332 16.9534 16.0531 16.951 16.0764 16.9506C16.1397 15.5677 16.3514 14.1919 16.7135 12.852C16.7802 12.6084 16.8517 12.3723 16.9967 12.1693C17.1726 11.9287 17.432 11.7918 17.6802 11.8103C17.9071 11.8257 18.1314 11.9737 18.272 12.2028C18.3997 12.406 18.4518 12.6441 18.4881 12.8455C18.6579 13.7526 18.631 14.5601 18.4035 15.2425C18.1236 16.0796 17.5261 16.7381 16.8033 17.005C16.6347 17.0649 16.4527 17.1078 16.2594 17.1302C16.1969 18.8882 16.3778 20.6571 16.8042 22.3691C16.8154 22.4218 16.7854 22.4738 16.7327 22.485C16.68 22.4962 16.628 22.4661 16.6168 22.4134C16.1874 20.6906 16.0036 18.9107 16.0631 17.1418C16.0453 17.1407 16.0289 17.1451 16.011 17.144C15.5023 17.1601 14.9911 17.1887 14.4918 17.2287C14.4774 17.2296 14.4575 17.232 14.4431 17.2329C14.704 18.9833 14.7224 20.7695 14.491 22.5316C14.4843 22.5832 14.4355 22.6198 14.3839 22.6131C14.3709 22.6195 14.3605 22.6135 14.3501 22.6075ZM12.6389 12.3814C12.5314 12.3193 12.4079 12.285 12.2792 12.3077C12.1142 12.3373 11.9626 12.4717 11.8743 12.6566C11.7941 12.8276 11.7684 13.0162 11.749 13.25C11.685 14.1378 11.7988 14.9017 12.0861 15.5253C12.4324 16.2709 13.0543 16.8195 13.7474 16.9884C13.8977 17.0244 14.058 17.043 14.2264 17.0477C14.0094 15.7017 13.6472 14.383 13.1458 13.1132C13.0603 12.8928 12.9689 12.6828 12.8241 12.5252C12.7716 12.4718 12.7083 12.4214 12.6389 12.3814ZM17.8693 12.0674C17.8034 12.0294 17.733 12.0072 17.6669 12.0014C17.449 11.9866 17.2571 12.1347 17.1531 12.2827C17.0242 12.458 16.9592 12.6748 16.9005 12.9044C16.545 14.225 16.3329 15.5775 16.2692 16.9371C16.4337 16.9165 16.5938 16.8794 16.7371 16.8234C17.4067 16.5766 17.9637 15.9642 18.2205 15.1831C18.4354 14.5304 18.4657 13.7572 18.2992 12.8844C18.2638 12.6974 18.2156 12.4847 18.1096 12.3079C18.046 12.2018 17.9629 12.1215 17.8693 12.0674Z" fill="#010101"/>
<path d="M18.4889 23.1991C18.4448 23.2754 18.3904 23.3456 18.3275 23.4064C18.1634 23.5706 17.9454 23.6759 17.697 23.6897L13.4345 23.929C12.9 23.9579 12.4419 23.5501 12.4129 23.0156C12.4034 22.8159 12.4504 22.6303 12.5405 22.4743C12.5746 22.4153 12.6195 22.3534 12.6674 22.3025C12.8326 22.1204 13.0621 22.0033 13.3249 21.9885L16.187 21.8284L17.5909 21.7512C18.0664 21.7206 18.4811 22.0433 18.5854 22.4873C18.607 22.546 18.6142 22.6056 18.6159 22.6667C18.626 22.8575 18.579 23.043 18.4889 23.1991Z" fill="#F3EDED"/>
<path d="M18.5819 22.4848C18.3711 22.6498 18.0645 22.6762 17.8322 22.5421C17.5949 22.4005 17.4437 22.1097 17.1703 22.0628C16.9623 22.0306 16.7577 22.1529 16.5492 22.1296C16.3943 22.1095 16.2552 22.0061 16.1957 21.8608C16.1908 21.8533 16.1879 21.8424 16.1829 21.8349L17.5869 21.7577C18.0628 21.7181 18.4776 22.0408 18.5819 22.4848Z" fill="#D8D6D6"/>
<path d="M16.1351 22.5427C15.986 22.4566 15.8824 22.2997 15.8413 22.1466C15.8144 22.057 15.8025 21.9577 15.804 21.8429C15.8037 21.7873 15.8491 21.7488 15.9012 21.7465C15.9569 21.7463 15.9954 21.7916 15.9977 21.8438C15.9972 21.9406 16.0068 22.0202 16.0259 22.0913C16.0674 22.2355 16.1869 22.3969 16.3493 22.4121C16.4366 22.4209 16.5282 22.3905 16.6251 22.3587C16.757 22.3145 16.8997 22.2675 17.053 22.3144C17.2186 22.3638 17.3144 22.5023 17.4023 22.6224C17.4388 22.6712 17.4699 22.7215 17.5104 22.7634C17.6181 22.8811 17.7842 22.9539 17.9491 22.9566C18.1284 22.9584 18.3895 22.8826 18.4913 22.7703C18.5277 22.7312 18.5888 22.7295 18.6279 22.7659C18.667 22.8023 18.6687 22.8634 18.6322 22.9025C18.473 23.0741 18.1365 23.1526 17.9482 23.1503C17.7312 23.1498 17.5146 23.0525 17.3677 22.8984C17.3223 22.849 17.2843 22.7947 17.2428 22.7384C17.1703 22.6318 17.0937 22.5321 16.995 22.5028C16.9018 22.4721 16.8028 22.5075 16.6839 22.5452C16.574 22.5834 16.4551 22.6211 16.332 22.6102C16.259 22.6004 16.1941 22.5768 16.1351 22.5427Z" fill="#D8D6D6"/>
<path d="M18.3277 23.4064C18.1635 23.5705 17.9455 23.6759 17.6971 23.6897L13.4326 23.9324C12.8981 23.9613 12.442 23.55 12.4111 23.019C12.3995 22.8227 12.4485 22.6337 12.5386 22.4777C12.5727 22.4187 12.6176 22.3568 12.669 22.3079C12.6514 22.4826 12.6997 22.6631 12.8039 22.8111C12.9529 23.0174 13.2112 23.1387 13.463 23.127C13.8808 23.1 14.2669 22.7357 14.6626 22.8671C14.8228 22.9179 14.9494 23.0511 15.0756 23.161C15.2052 23.2728 15.3676 23.3758 15.5341 23.3517C15.7945 23.3171 15.9767 23.0016 16.2389 23.0281C16.4508 23.0533 16.5978 23.2954 16.8079 23.2918C16.8779 23.2907 16.9441 23.2641 17.0152 23.2451C17.2663 23.1866 17.527 23.2955 17.7715 23.3766C17.9521 23.4161 18.1526 23.4533 18.3277 23.4064Z" fill="#D8D6D6"/>
<path d="M12.8485 23.8865C12.7861 23.8504 12.7242 23.8054 12.6698 23.7555C12.4571 23.5634 12.3326 23.3065 12.3175 23.0204C12.3109 22.9195 12.3189 22.8177 12.3426 22.7205C12.3548 22.6674 12.4051 22.6363 12.4582 22.6485C12.5113 22.6607 12.5423 22.711 12.5302 22.764C12.5109 22.8454 12.5061 22.9259 12.5117 23.0123C12.5246 23.2463 12.6284 23.4588 12.802 23.6146C12.9757 23.7703 13.1988 23.8483 13.4328 23.8354L17.6973 23.5927C17.9114 23.5822 18.107 23.4917 18.2652 23.3379C18.3205 23.282 18.369 23.2222 18.409 23.1528C18.4951 23.0037 18.5356 22.8375 18.5259 22.6701C18.513 22.4361 18.4057 22.2215 18.2321 22.0658C18.0584 21.9101 17.8353 21.8321 17.5993 21.8484L15.479 21.9651C15.4268 21.9674 15.3808 21.9269 15.3786 21.8748C15.3763 21.8226 15.4168 21.7766 15.4689 21.7744L17.5858 21.6556C17.8684 21.6385 18.1461 21.7341 18.3554 21.9243C18.5701 22.113 18.6961 22.3753 18.7112 22.6614C18.7222 22.8666 18.6741 23.07 18.57 23.2504C18.522 23.3336 18.4655 23.4073 18.3932 23.4766C18.2006 23.6659 17.9627 23.7736 17.6999 23.7884L13.4354 24.0311C13.2288 24.0366 13.0254 23.9886 12.8485 23.8865Z" fill="#010101"/>
<path d="M17.9608 24.8587C17.8947 24.9732 17.7995 25.0661 17.6914 25.1332C17.5908 25.1953 17.4664 25.2345 17.3388 25.2394L13.9725 25.432C13.5477 25.455 13.1851 25.13 13.1622 24.7053C13.1523 24.5701 13.1803 24.4337 13.2409 24.3207C13.2454 24.3048 13.2534 24.291 13.2614 24.2771C13.3856 24.0621 13.6152 23.9126 13.8835 23.8964L17.2532 23.7058C17.678 23.6829 18.0371 24.0058 18.0635 24.4326C18.0683 24.5925 18.0309 24.7374 17.9608 24.8587Z" fill="#F3EDED"/>
<path d="M17.689 25.1366C17.5884 25.1987 17.464 25.2379 17.3364 25.2428L13.9701 25.4354C13.5453 25.4584 13.1827 25.1334 13.1598 24.7087C13.1499 24.5735 13.1779 24.4371 13.2385 24.3241C13.224 24.4452 13.2523 24.5725 13.3179 24.6751C13.4125 24.8315 13.5928 24.9356 13.7791 24.9414C13.9762 24.9443 14.156 24.8492 14.3366 24.7685C14.5187 24.6934 14.7266 24.6377 14.9045 24.7219C15.0859 24.8081 15.1843 25.0221 15.3768 25.0732C15.6853 25.1634 15.992 24.7764 16.292 24.8895C16.4412 24.9433 16.5339 25.1032 16.6911 25.1431C16.8524 25.1761 17.0104 25.0546 17.1789 25.0271C17.3474 24.9995 17.5224 25.0728 17.689 25.1366Z" fill="#D8D6D6"/>
<path d="M13.4939 25.4195C13.2476 25.2773 13.0764 25.0213 13.0624 24.7172C13.0516 24.5677 13.0806 24.4134 13.1533 24.2796C13.1538 24.2706 13.1658 24.2498 13.1738 24.236C13.32 23.9828 13.5789 23.8225 13.874 23.808L17.2438 23.6174C17.7172 23.5902 18.1259 23.9555 18.1545 24.4345C18.1568 24.4866 18.1163 24.5326 18.0642 24.5349C18.012 24.5371 17.966 24.4967 17.9638 24.4445C17.9411 24.0754 17.621 23.7889 17.2539 23.8081L13.8841 23.9987C13.6591 24.0121 13.4524 24.1379 13.3403 24.3321C13.3363 24.339 13.3257 24.3653 13.3217 24.3722C13.2691 24.4713 13.2423 24.5899 13.2552 24.7037C13.2759 25.0763 13.5925 25.3608 13.9651 25.3401L15.3223 25.2637C15.3745 25.2614 15.4205 25.3019 15.4227 25.354C15.425 25.4062 15.3845 25.4522 15.3324 25.4545L13.9751 25.5309C13.8022 25.542 13.636 25.5015 13.4939 25.4195Z" fill="#010101"/>
<path d="M23.4717 11.9501C23.3988 11.9081 23.3495 11.8333 23.3425 11.7414C23.3366 11.5994 23.4425 11.4801 23.5831 11.4688L24.7207 11.4044C24.8628 11.3985 24.982 11.5044 24.9933 11.645C24.9991 11.787 24.8933 11.9063 24.7527 11.9176L23.615 11.982C23.5609 11.9878 23.5133 11.9741 23.4717 11.9501Z" fill="#EEA820"/>
<path d="M5.08689 12.9921C5.01407 12.9501 4.96473 12.8753 4.95769 12.7834C4.95187 12.6413 5.05769 12.5221 5.1983 12.5108L6.33596 12.4464C6.47803 12.4405 6.59726 12.5464 6.60855 12.687C6.61438 12.829 6.50855 12.9483 6.36795 12.9596L5.23028 13.024C5.18159 13.0283 5.1285 13.0161 5.08689 12.9921Z" fill="#EEA820"/>
<path d="M14.3599 3.81779C14.2871 3.77575 14.2378 3.70103 14.2307 3.60911L14.1663 2.47145C14.1604 2.32938 14.2663 2.21015 14.4069 2.19886C14.5489 2.19303 14.6682 2.29886 14.6795 2.43946L14.7439 3.57713C14.7498 3.7192 14.6439 3.83843 14.5033 3.84972C14.4512 3.85197 14.4015 3.84182 14.3599 3.81779Z" fill="#EEA820"/>
<path d="M8.40411 6.68634C8.39024 6.67833 8.3729 6.66832 8.36103 6.65684L7.51311 5.89912C7.40575 5.80477 7.39753 5.64282 7.49188 5.53546C7.58623 5.42811 7.74818 5.41989 7.85554 5.51424L8.70346 6.27196C8.81082 6.3663 8.81903 6.52826 8.72469 6.63561C8.64382 6.72763 8.50814 6.7464 8.40411 6.68634Z" fill="#EEA820"/>
<path d="M13.1211 15.2217C12.9685 15.1336 12.7877 15.1263 12.6226 15.1882C12.4539 15.248 12.2974 15.375 12.1933 15.5553C12.4015 15.1946 12.3235 14.7612 12.0218 14.587C12.1744 14.6751 12.3517 14.6804 12.5203 14.6205C12.6855 14.5587 12.842 14.4317 12.9461 14.2514C12.842 14.4317 12.8123 14.6273 12.8428 14.8067C12.8753 14.9827 12.972 15.1356 13.1211 15.2217Z" fill="white"/>
<path d="M17.3808 22.6514C17.2283 22.5633 17.0475 22.556 16.8823 22.6178C16.7137 22.6777 16.5572 22.8046 16.4531 22.985C16.6613 22.6243 16.5833 22.1909 16.2816 22.0167C16.4341 22.1048 16.6114 22.11 16.7801 22.0502C16.9452 21.9884 17.1018 21.8614 17.2059 21.6811C17.1018 21.8614 17.0721 22.057 17.1026 22.2364C17.1316 22.4104 17.2283 22.5633 17.3808 22.6514Z" fill="white"/>
<path d="M14.5019 7.40038C14.3494 7.31229 14.1686 7.30503 14.0034 7.36687C13.8348 7.42672 13.6783 7.55366 13.5742 7.73399C13.7824 7.37334 13.7044 6.9399 13.4027 6.76571C13.5552 6.8538 13.7325 6.85906 13.9012 6.79922C14.0663 6.73738 14.2229 6.61043 14.327 6.4301C14.2229 6.61043 14.1932 6.80598 14.2237 6.98542C14.2527 7.15938 14.3494 7.31229 14.5019 7.40038Z" fill="white"/>
<path d="M13.1227 16.0916C13.0395 16.0436 12.9446 16.0397 12.8511 16.0735C12.7576 16.1074 12.6763 16.1761 12.6203 16.2732C12.7324 16.079 12.6927 15.8434 12.5263 15.7473C12.6095 15.7953 12.7043 15.7992 12.7979 15.7654C12.8879 15.7295 12.9726 15.6628 13.0287 15.5657C12.9726 15.6628 12.9573 15.7696 12.9712 15.8655C12.9872 15.9579 13.0395 16.0436 13.1227 16.0916Z" fill="white"/>
<path d="M20.0756 15.8615C19.9166 15.7605 20.1089 15.1872 20.3309 14.5062C20.5599 13.8293 20.7468 13.2575 20.9379 13.2707C21.1187 13.278 21.2254 13.95 20.9657 14.7202C20.7115 15.4889 20.2256 15.962 20.0756 15.8615Z" fill="white"/>
<path d="M19.3476 16.8424C19.2882 16.785 19.367 16.6086 19.5088 16.4269C19.6507 16.2453 19.8102 16.1293 19.8775 16.1728C19.9449 16.2163 19.8898 16.4157 19.7385 16.6057C19.5872 16.7958 19.4054 16.8943 19.3476 16.8424Z" fill="white"/>
<path d="M10.2794 7.81099C10.4149 7.9447 9.9779 8.58942 9.59717 9.43305C9.20257 10.2687 9.00156 11.0173 8.8104 11.004C8.72303 10.9952 8.65146 10.7828 8.66491 10.4391C8.67289 10.097 8.76936 9.62555 8.99149 9.15272C9.21015 8.67788 9.50735 8.29925 9.75969 8.07042C10.0086 7.83958 10.2131 7.7496 10.2794 7.81099Z" fill="white"/>
<path d="M11.5002 6.8092C11.5406 6.88338 11.3635 7.05395 11.1283 7.23716C10.8916 7.41491 10.671 7.53263 10.6172 7.47379C10.5598 7.41294 10.7004 7.19354 10.954 7.00246C11.2077 6.81137 11.4648 6.74249 11.5002 6.8092Z" fill="white"/>
<path d="M16.3795 24.2975C16.3827 24.4843 15.9962 24.6171 15.5805 24.6083C15.3724 24.6084 15.1927 24.5833 15.0498 24.5424C15.0146 24.5313 14.9829 24.5222 14.9531 24.5097L14.9303 24.5011C14.9234 24.4971 14.9159 24.5021 14.9111 24.4623C14.8965 24.4076 14.8837 24.3817 14.8718 24.3702C14.8649 24.3662 14.8649 24.3662 14.8649 24.3662C14.8435 24.3632 14.8559 24.3657 14.8525 24.3637C14.8619 24.3553 14.857 24.3478 14.8579 24.3622C14.8609 24.3732 14.8643 24.3752 14.8609 24.3732C14.8554 24.3746 14.8499 24.3761 14.8683 24.3682C14.8793 24.3653 14.8922 24.3589 14.9021 24.3739C14.9209 24.3893 14.8929 24.4379 14.869 24.4472C14.8451 24.4565 14.8207 24.4748 14.7687 24.4448C14.7389 24.4322 14.7193 24.3701 14.7229 24.3398C14.7246 24.313 14.7336 24.2812 14.7491 24.2624C14.7786 24.2193 14.812 24.2016 14.8364 24.1833C14.8588 24.1685 14.8628 24.1616 14.8798 24.1483C14.9062 24.1265 14.9381 24.1033 14.9734 24.0821C15.1183 23.9993 15.3386 23.9462 15.5735 23.9477C16.0453 23.9473 16.3779 24.1162 16.3795 24.2975Z" fill="white"/>
<path d="M17.0853 24.2519C17.1004 24.3299 16.9947 24.4169 16.8541 24.4282C16.7115 24.4429 16.597 24.3769 16.5929 24.2959C16.5923 24.2169 16.6969 24.1478 16.8286 24.136C16.9548 24.1256 17.0688 24.1684 17.0853 24.2519Z" fill="white"/>
</svg>
