<svg width="83" height="83" viewBox="0 0 83 83" fill="none" xmlns="http://www.w3.org/2000/svg">
<g clip-path="url(#clip0_52_50)">
<path d="M46.0626 74.3972L42.8009 74.5796C42.0259 74.6193 41.3125 74.1121 41.0429 73.3315L40.3892 71.4183L48.1088 70.9816L47.6733 72.9651C47.4979 73.7642 46.8422 74.3495 46.0626 74.3972Z" fill="#C7C4C4"/>
<path d="M49.7218 63.1425L38.2044 63.7909C38.3932 61.2624 37.0328 58.867 35.3505 56.9742C33.6727 55.0734 31.6544 53.5056 30.0372 51.5551C26.7089 47.5045 25.445 41.8599 26.6623 36.7794C26.777 36.3054 26.9031 35.8486 27.0621 35.3896C28.1737 32.0699 30.3872 29.1534 33.2068 27.0951C34.4408 26.187 35.8171 25.5093 37.2643 25.0208C38.7069 24.5402 40.2157 24.2568 41.7453 24.176C42.7514 24.1213 43.7571 24.1406 44.7567 24.2622C46.7809 24.4988 48.7579 25.1106 50.5466 26.1221C53.5871 27.8458 56.1114 30.5001 57.5935 33.6755C58.0962 34.7495 58.4723 35.8776 58.7277 37.0314C59.7082 41.4424 58.9097 46.2563 56.4499 50.0581C55.0728 52.1865 53.2352 53.9749 51.7879 56.0415C51.0516 57.0782 50.4229 58.2405 50.0296 59.4539C49.6328 60.6548 49.4793 61.9114 49.7218 63.1425Z" fill="#D9D9D9"/>
<path d="M58.7278 37.0313C58.6832 37.0903 58.626 37.1526 58.5689 37.2149C58.1745 37.6228 57.6158 37.8934 57.0596 37.8477C56.1236 37.7627 55.5062 36.8873 54.9851 36.1203C54.4515 35.3568 53.6825 34.5421 52.766 34.6802C52.0943 34.7797 51.6161 35.351 51.1395 35.8279C50.6629 36.3048 49.9908 36.7535 49.3546 36.5345C48.9479 36.395 48.6595 35.9955 48.5738 35.5752C48.488 35.155 48.556 34.707 48.6955 34.3003C48.8974 33.6754 49.2368 33.0875 49.3785 32.4385C49.5202 31.7894 49.4303 31.0279 48.9042 30.6182C48.2091 30.0792 47.2109 30.4138 46.3479 30.2757C45.5054 30.1388 44.7982 29.5292 44.4204 28.7709C44.0426 28.0126 43.9805 27.1294 44.0923 26.2936C44.1922 25.5886 44.4354 24.8922 44.7727 24.2713C46.7969 24.5079 48.7739 25.1197 50.5626 26.1313C53.6031 27.8549 56.1274 30.5093 57.6095 33.6846C58.0883 34.7449 58.4724 35.8776 58.7278 37.0313Z" fill="#B1B1B1"/>
<path d="M47.0534 41.2542C46.1477 40.7313 45.7728 39.5827 45.9546 37.8552C46.0781 36.6872 46.2032 35.4248 45.4773 34.6456C45.064 34.2057 44.4675 34.0097 43.8381 33.8157C43.479 33.7037 43.112 33.5872 42.7646 33.4184C40.9175 32.4897 40.2447 30.2794 40.4097 28.4892C40.5511 26.8867 41.2187 25.4185 41.9119 24.071C41.9636 23.9631 42.106 23.9182 42.2093 23.9779C42.3251 24.0341 42.362 24.172 42.3024 24.2752C41.6242 25.5784 40.9841 26.999 40.851 28.5321C40.7108 30.1142 41.3091 32.1967 42.9689 33.0279C43.2845 33.1783 43.631 33.2937 43.9742 33.3965C44.6354 33.6088 45.3172 33.8223 45.8075 34.349C46.6727 35.2722 46.5289 36.6403 46.4029 37.8492C46.2377 39.438 46.5347 40.4463 47.2815 40.8774C48.0282 41.3086 49.0469 40.9752 49.716 40.44C50.1088 40.1266 50.4564 39.7447 50.7994 39.3707C51.0944 39.0432 51.4065 38.7044 51.7492 38.4044C52.6938 37.5939 53.7714 37.3052 54.6347 37.6447C55.3775 37.9359 55.8057 38.6068 56.2272 39.2527C56.4679 39.6247 56.712 40.0092 57.0111 40.2984C57.5582 40.8367 58.3466 41.1224 59.1149 41.0576C59.239 41.0445 59.3444 41.1371 59.3495 41.2566C59.3626 41.3807 59.27 41.4861 59.1505 41.4912C58.2502 41.5646 57.3289 41.2339 56.6968 40.6042C56.3672 40.2762 56.1039 39.8699 55.8519 39.4808C55.453 38.8692 55.0812 38.2838 54.4668 38.0456C53.4229 37.6336 52.3418 38.4605 52.0379 38.73C51.7169 39.0107 51.4094 39.3416 51.119 39.6611C50.7668 40.051 50.4021 40.4442 49.9796 40.7723C49.25 41.3572 48.0384 41.8229 47.0534 41.2542Z" fill="#B1B1B1"/>
<path d="M49.7219 63.1424L38.2045 63.7909C38.3933 61.2624 37.0329 58.8669 35.3506 56.9741C33.6728 55.0733 31.6499 53.5135 30.0373 51.555C26.6965 47.5078 25.445 41.8598 26.6624 36.7793C26.6581 38.4928 26.7392 40.2238 27.2793 41.8384C27.9418 43.8098 29.398 45.6356 31.4142 46.1429C32.7985 46.4973 34.3642 46.2255 35.6034 46.941C37.005 47.7607 37.4625 49.5184 37.9323 51.0713C38.4022 52.6242 39.2478 54.3518 40.8451 54.649C42.0842 54.8878 43.3414 54.1413 44.5818 54.3596C46.0587 54.6085 46.9567 56.0803 47.7738 57.3252C48.3388 58.1811 49.112 59.0618 50.0138 59.4447C49.6329 60.6548 49.484 61.9034 49.7219 63.1424Z" fill="#B1B1B1"/>
<path d="M38.0944 63.9816C38.0785 63.9725 38.0626 63.9633 38.0513 63.9462C38.0049 63.8982 37.9835 63.8435 37.9918 63.7741C38.1891 61.1023 36.5797 58.6796 35.194 57.1169C35.1091 57.0255 35.1256 56.8868 35.2124 56.8098C35.3038 56.7248 35.4426 56.7414 35.5195 56.8282C36.9166 58.408 38.5339 60.8353 38.4365 63.5542L49.4588 62.9377C49.2874 61.8219 49.4122 60.6334 49.816 59.3836C50.1852 58.2304 50.7934 57.0669 51.5985 55.9111C52.2683 54.9526 53.0256 54.0446 53.7599 53.1763C54.619 52.147 55.5169 51.0872 56.2513 49.9435C59.3171 45.2205 59.7641 38.869 57.3827 33.7657C55.9479 30.6918 53.4612 28.0273 50.424 26.3162C47.8966 24.8782 44.8912 24.2128 41.7443 24.3979C40.2148 24.4787 38.7264 24.7634 37.3214 25.2339C35.8321 25.7404 34.4921 26.4285 33.3232 27.2789C31.5093 28.6043 29.9441 30.3063 28.7831 32.1887C28.7235 32.292 28.5982 32.3256 28.479 32.2568C28.3758 32.1972 28.3388 32.0593 28.411 31.9527C29.5961 30.0101 31.2047 28.2696 33.07 26.9102C34.2651 26.0326 35.6519 25.3186 37.1868 24.8066C38.6294 24.326 40.1553 24.0313 41.7225 23.9404C44.9558 23.7523 48.0465 24.4351 50.6454 25.9144L50.7646 25.9832C53.839 27.7582 56.3324 30.4477 57.7852 33.5638C60.2286 38.7983 59.7718 45.3136 56.6201 50.1671C55.864 51.3299 54.9695 52.4023 54.0933 53.4429C53.3669 54.3158 52.6063 55.2112 51.9501 56.1459C51.1681 57.262 50.5828 58.3858 50.2239 59.5027C49.811 60.7683 49.718 61.9751 49.927 63.0809C49.9438 63.1435 49.9275 63.2083 49.8875 63.2593C49.8474 63.3103 49.7881 63.3397 49.7221 63.3439L38.216 64.0095C38.1705 64.015 38.1341 64.0046 38.0944 63.9816Z" fill="#010101"/>
<path d="M41.2635 64.9321C41.192 64.8908 41.1481 64.8018 41.1576 64.712C41.6863 60.6957 41.643 56.6244 41.0474 52.6474C40.6037 52.6455 40.175 52.5992 39.7783 52.4973C38.061 52.0777 36.5264 50.7363 35.6789 48.9018C34.9835 47.4093 34.7073 45.5762 34.8668 43.4652C34.9031 42.9988 34.9567 42.4472 35.1922 41.9477C35.4598 41.3925 35.9235 40.9929 36.4348 40.8962C36.9962 40.786 37.6266 41.0335 38.0851 41.5418C38.4667 41.9634 38.6942 42.4866 38.9046 43.0212C40.0747 45.9847 40.9132 49.0639 41.4158 52.1928C41.4614 52.1873 41.5149 52.1864 41.5604 52.1809C42.7168 52.086 43.9004 52.0173 45.0657 51.9804C45.1192 51.9795 45.1647 51.974 45.2182 51.9731C45.3632 48.805 45.8482 45.6531 46.6777 42.5836C46.8304 42.0256 46.9944 41.4848 47.3264 41.0198C47.7294 40.4686 48.3235 40.1549 48.8923 40.1973C49.4121 40.2326 49.926 40.5717 50.2479 41.0965C50.5405 41.562 50.6599 42.1076 50.7431 42.5687C51.1321 44.647 51.0704 46.4967 50.5492 48.06C49.908 49.9778 48.5393 51.4861 46.8834 52.0977C46.4971 52.2348 46.0802 52.333 45.6374 52.3846C45.4943 56.4117 45.9086 60.4641 46.8856 64.3859C46.9112 64.5067 46.8424 64.6258 46.7217 64.6514C46.601 64.6771 46.4818 64.6083 46.4562 64.4876C45.4725 60.5407 45.0514 56.4632 45.1878 52.411C45.1469 52.4085 45.1093 52.4186 45.0683 52.4162C43.9031 52.4531 42.732 52.5184 41.5881 52.61C41.5551 52.6121 41.5095 52.6176 41.4765 52.6198C42.0742 56.6297 42.1163 60.7215 41.5863 64.7583C41.571 64.8766 41.4591 64.9602 41.3409 64.9449C41.3112 64.9596 41.2874 64.9458 41.2635 64.9321ZM37.3435 41.5055C37.0972 41.3633 36.8142 41.2847 36.5193 41.3369C36.1413 41.4046 35.794 41.7125 35.5919 42.136C35.4081 42.5278 35.3492 42.9599 35.3048 43.4956C35.158 45.5293 35.4188 47.2793 36.0769 48.7079C36.8703 50.4158 38.2949 51.6726 39.8827 52.0597C40.2271 52.142 40.5944 52.1846 40.9801 52.1954C40.4829 49.112 39.6533 46.0909 38.5045 43.1821C38.3088 42.6772 38.0993 42.1961 37.7675 41.8351C37.6475 41.7128 37.5023 41.5973 37.3435 41.5055ZM49.3254 40.7863C49.1745 40.6992 49.0131 40.6484 48.8619 40.6352C48.3625 40.6011 47.923 40.9405 47.6848 41.2796C47.3894 41.6811 47.2405 42.1777 47.1061 42.7039C46.2916 45.7291 45.8057 48.8274 45.6598 51.942C46.0366 51.8948 46.4034 51.81 46.7316 51.6817C48.2656 51.1162 49.5417 49.7133 50.1299 47.9239C50.6224 46.4287 50.6917 44.6575 50.3104 42.6578C50.2292 42.2297 50.1188 41.7422 49.8759 41.3372C49.7302 41.0942 49.5399 40.9102 49.3254 40.7863Z" fill="#010101"/>
<path d="M50.7455 66.286C50.6446 66.4607 50.5199 66.6218 50.3759 66.7611C49.9999 67.1371 49.5005 67.3784 48.9314 67.41L39.1667 67.9582C37.9421 68.0244 36.8926 67.0902 36.8264 65.8656C36.8046 65.4081 36.9123 64.983 37.1187 64.6255C37.1966 64.4905 37.2997 64.3487 37.4094 64.232C37.7879 63.815 38.3136 63.5465 38.9157 63.5128L45.4722 63.1461L48.6884 62.9692C49.7775 62.899 50.7277 63.6382 50.9667 64.6553C51.0162 64.7898 51.0326 64.9264 51.0365 65.0664C51.0596 65.5034 50.9519 65.9285 50.7455 66.286Z" fill="#F3EDED"/>
<path d="M50.9588 64.6508C50.4758 65.0286 49.7735 65.0892 49.2413 64.7819C48.6977 64.4575 48.3514 63.7915 47.7249 63.684C47.2485 63.6102 46.7796 63.8903 46.302 63.837C45.9472 63.791 45.6285 63.5541 45.4923 63.2212C45.481 63.2041 45.4743 63.1791 45.463 63.1619L48.6792 62.9851C49.7696 62.8944 50.7198 63.6336 50.9588 64.6508Z" fill="#D8D6D6"/>
<path d="M45.3534 64.7832C45.0118 64.586 44.7745 64.2265 44.6805 63.8757C44.6188 63.6706 44.5914 63.4429 44.5948 63.1801C44.5943 63.0527 44.6982 62.9644 44.8177 62.9592C44.9451 62.9587 45.0334 63.0626 45.0386 63.1821C45.0376 63.4039 45.0595 63.5861 45.1032 63.749C45.1984 64.0794 45.4721 64.4492 45.844 64.4839C46.0442 64.5041 46.2539 64.4345 46.476 64.3616C46.778 64.2605 47.105 64.1527 47.4561 64.2601C47.8357 64.3733 48.055 64.6906 48.2563 64.9657C48.34 65.0776 48.4112 65.1928 48.504 65.2888C48.7509 65.5584 49.1313 65.7251 49.509 65.7313C49.9197 65.7354 50.5179 65.5617 50.7511 65.3045C50.8346 65.215 50.9745 65.211 51.0641 65.2945C51.1536 65.378 51.1575 65.5179 51.074 65.6074C50.7093 66.0006 49.9382 66.1804 49.507 66.175C49.0098 66.174 48.5136 65.951 48.1772 65.5979C48.0731 65.4848 47.986 65.3604 47.891 65.2314C47.7248 64.9872 47.5495 64.7589 47.3234 64.6919C47.1098 64.6215 46.883 64.7024 46.6107 64.7888C46.3588 64.8765 46.0865 64.9628 45.8045 64.9377C45.6373 64.9153 45.4885 64.8612 45.3534 64.7832Z" fill="#D8D6D6"/>
<path d="M50.3759 66.7612C49.9999 67.1373 49.5005 67.3786 48.9315 67.4102L39.1621 67.9663C37.9375 68.0325 36.8927 67.0903 36.8219 65.8737C36.7954 65.4242 36.9077 64.9912 37.1141 64.6337C37.1921 64.4986 37.2951 64.3569 37.4128 64.2447C37.3723 64.6451 37.4831 65.0586 37.7217 65.3976C38.0632 65.8701 38.6548 66.1481 39.2318 66.1211C40.1889 66.0594 41.0733 65.2248 41.9799 65.5258C42.3469 65.6423 42.6368 65.9474 42.9258 66.199C43.2228 66.4552 43.595 66.6912 43.9764 66.636C44.5729 66.5568 44.9903 65.8339 45.5908 65.8946C46.0764 65.9525 46.413 66.5069 46.8943 66.4988C47.0547 66.4961 47.2063 66.4354 47.3692 66.3917C47.9444 66.2578 48.5418 66.5073 49.1019 66.693C49.5157 66.7836 49.9749 66.8687 50.3759 66.7612Z" fill="#D8D6D6"/>
<path d="M37.8245 67.8616C37.6815 67.779 37.5398 67.676 37.4151 67.5617C36.9278 67.1214 36.6426 66.5331 36.6079 65.8775C36.593 65.6465 36.6111 65.4133 36.6656 65.1906C36.6935 65.0689 36.8087 64.9978 36.9303 65.0256C37.0519 65.0535 37.1231 65.1687 37.0953 65.2903C37.0512 65.4767 37.0401 65.661 37.0529 65.859C37.0824 66.3951 37.3203 66.882 37.7181 67.2387C38.1158 67.5955 38.6271 67.7741 39.1631 67.7447L48.9324 67.1885C49.4229 67.1646 49.871 66.9572 50.2333 66.605C50.3601 66.477 50.4711 66.3398 50.5628 66.1809C50.7601 65.8393 50.8528 65.4585 50.8306 65.075C50.8011 64.539 50.5553 64.0475 50.1575 63.6907C49.7597 63.334 49.2485 63.1553 48.7079 63.1927L43.8506 63.4601C43.7311 63.4653 43.6257 63.3726 43.6205 63.2531C43.6154 63.1336 43.708 63.0282 43.8275 63.0231L48.6769 62.7511C49.3244 62.7119 49.9606 62.9309 50.44 63.3666C50.9319 63.7988 51.2205 64.3997 51.2551 65.0553C51.2803 65.5253 51.1701 65.9913 50.9316 66.4044C50.8216 66.5951 50.6922 66.764 50.5265 66.9226C50.0854 67.3564 49.5405 67.6031 48.9384 67.6369L39.1691 68.193C38.6957 68.2057 38.2297 68.0955 37.8245 67.8616Z" fill="#010101"/>
<path d="M49.5351 70.089C49.3838 70.3512 49.1655 70.5641 48.9179 70.7178C48.6875 70.8601 48.4026 70.9498 48.1101 70.9611L40.3984 71.4023C39.4254 71.4549 38.5947 70.7105 38.5421 69.7374C38.5196 69.4278 38.5836 69.1152 38.7224 68.8564C38.7328 68.8201 38.7512 68.7883 38.7695 68.7565C39.0539 68.264 39.5799 67.9216 40.1945 67.8845L47.9142 67.4478C48.8872 67.3952 49.71 68.1351 49.7705 69.1127C49.7813 69.4791 49.6957 69.811 49.5351 70.089Z" fill="#F3EDED"/>
<path d="M48.9133 70.7258C48.6828 70.8682 48.398 70.9579 48.1055 70.9691L40.3938 71.4104C39.4208 71.4629 38.5901 70.7185 38.5375 69.7455C38.515 69.4359 38.579 69.1233 38.7178 68.8645C38.6847 69.142 38.7494 69.4335 38.8997 69.6686C39.1165 70.0268 39.5296 70.2653 39.9563 70.2786C40.4079 70.2852 40.8196 70.0674 41.2335 69.8826C41.6507 69.7104 42.1269 69.5828 42.5345 69.7758C42.95 69.9733 43.1754 70.4636 43.6163 70.5805C44.3231 70.7873 45.0257 69.9007 45.7129 70.1597C46.0548 70.283 46.2671 70.6492 46.6274 70.7407C46.9968 70.8163 47.3588 70.538 47.7448 70.4748C48.1308 70.4117 48.5316 70.5796 48.9133 70.7258Z" fill="#D8D6D6"/>
<path d="M39.3029 71.3733C38.7388 71.0477 38.3466 70.4611 38.3145 69.7646C38.2898 69.422 38.3563 69.0685 38.5226 68.762C38.5238 68.7415 38.5514 68.6939 38.5697 68.6621C38.9045 68.0822 39.4978 67.715 40.1738 67.6816L47.8934 67.245C48.978 67.1827 49.9141 68.0197 49.9798 69.1168C49.985 69.2363 49.8923 69.3417 49.7728 69.3469C49.6533 69.352 49.5479 69.2594 49.5428 69.1399C49.4908 68.2943 48.7576 67.6379 47.9165 67.682L40.1969 68.1187C39.6813 68.1494 39.2079 68.4374 38.951 68.8823C38.9418 68.8982 38.9177 68.9583 38.9085 68.9742C38.788 69.2013 38.7265 69.4729 38.7561 69.7336C38.8035 70.5872 39.5288 71.2389 40.3823 71.1915L43.4916 71.0165C43.6111 71.0114 43.7165 71.104 43.7216 71.2235C43.7268 71.343 43.6342 71.4484 43.5147 71.4535L40.4054 71.6286C40.0093 71.6541 39.6286 71.5614 39.3029 71.3733Z" fill="#010101"/>
<path d="M62.1597 40.5169C61.9929 40.4206 61.8799 40.2494 61.8638 40.0388C61.8504 39.7134 62.0929 39.4402 62.415 39.4144L65.0212 39.2667C65.3467 39.2533 65.6198 39.4958 65.6457 39.8179C65.659 40.1433 65.4166 40.4165 65.0945 40.4424L62.4882 40.59C62.3642 40.6031 62.2551 40.5719 62.1597 40.5169Z" fill="#EEA820"/>
<path d="M20.0438 42.9041C19.877 42.8078 19.7639 42.6366 19.7478 42.426C19.7345 42.1006 19.9769 41.8274 20.299 41.8016L22.9052 41.6539C23.2307 41.6405 23.5038 41.883 23.5297 42.2051C23.543 42.5306 23.3006 42.8037 22.9785 42.8296L20.3723 42.9772C20.2607 42.987 20.1391 42.9591 20.0438 42.9041Z" fill="#EEA820"/>
<path d="M41.2867 21.8882C41.1199 21.7919 41.0069 21.6207 40.9908 21.4102L40.8431 18.8039C40.8297 18.4785 41.0722 18.2053 41.3943 18.1795C41.7197 18.1661 41.9929 18.4086 42.0187 18.7307L42.1664 21.3369C42.1798 21.6624 41.9373 21.9355 41.6152 21.9614C41.4957 21.9665 41.3821 21.9433 41.2867 21.8882Z" fill="#EEA820"/>
<path d="M27.6426 28.4586C27.6109 28.4403 27.5711 28.4174 27.5439 28.3911L25.6015 26.6552C25.3555 26.4391 25.3367 26.0681 25.5529 25.8222C25.769 25.5762 26.14 25.5574 26.3859 25.7735L28.3284 27.5094C28.5743 27.7255 28.5932 28.0965 28.377 28.3424C28.1918 28.5532 27.881 28.5962 27.6426 28.4586Z" fill="#EEA820"/>
<path d="M38.4489 48.0119C38.0993 47.8101 37.6852 47.7935 37.3069 47.9351C36.9205 48.0722 36.562 48.363 36.3235 48.7761C36.8005 47.9499 36.6217 46.957 35.9306 46.558C36.2801 46.7598 36.6863 46.7718 37.0726 46.6347C37.451 46.493 37.8095 46.2022 38.048 45.7891C37.8095 46.2022 37.7415 46.6502 37.8114 47.0613C37.8858 47.4644 38.1073 47.8147 38.4489 48.0119Z" fill="white"/>
<path d="M48.2071 65.0324C47.8575 64.8306 47.4434 64.814 47.065 64.9556C46.6787 65.0927 46.3202 65.3836 46.0817 65.7966C46.5587 64.9705 46.3799 63.9775 45.6888 63.5785C46.0383 63.7803 46.4444 63.7923 46.8308 63.6552C47.2091 63.5136 47.5677 63.2227 47.8062 62.8096C47.5677 63.2227 47.4997 63.6707 47.5696 64.0818C47.6361 64.4803 47.8575 64.8306 48.2071 65.0324Z" fill="white"/>
<path d="M41.6121 30.0939C41.2625 29.8921 40.8485 29.8755 40.4701 30.0172C40.0837 30.1543 39.7252 30.4451 39.4867 30.8582C39.9637 30.032 39.7849 29.039 39.0938 28.64C39.4433 28.8418 39.8495 28.8538 40.2358 28.7168C40.6142 28.5751 40.9727 28.2843 41.2112 27.8712C40.9727 28.2843 40.9047 28.7322 40.9746 29.1433C41.0411 29.5418 41.2625 29.8921 41.6121 30.0939Z" fill="white"/>
<path d="M38.4524 50.0054C38.2617 49.8954 38.0445 49.8864 37.8302 49.964C37.616 50.0415 37.4298 50.1989 37.3014 50.4213C37.5582 49.9764 37.4673 49.4367 37.086 49.2166C37.2767 49.3266 37.4939 49.3356 37.7082 49.258C37.9145 49.1759 38.1086 49.0231 38.237 48.8007C38.1086 49.0231 38.0734 49.2676 38.1054 49.4873C38.142 49.6991 38.2617 49.8954 38.4524 50.0054Z" fill="white"/>
<path d="M54.3805 49.4778C54.0163 49.2463 54.4568 47.933 54.9655 46.3731C55.4902 44.8223 55.9181 43.5123 56.356 43.5427C56.7701 43.5594 57.0147 45.0988 56.4197 46.8631C55.8373 48.6241 54.7243 49.708 54.3805 49.4778Z" fill="white"/>
<path d="M52.7128 51.7241C52.5769 51.5927 52.7573 51.1884 53.0823 50.7723C53.4073 50.3562 53.7726 50.0904 53.9269 50.1901C54.0812 50.2898 53.9551 50.7466 53.6084 51.182C53.2617 51.6173 52.8454 51.843 52.7128 51.7241Z" fill="white"/>
<path d="M31.9388 31.034C32.2492 31.3403 31.2482 32.8173 30.376 34.7499C29.472 36.6642 29.0116 38.3791 28.5736 38.3487C28.3735 38.3285 28.2095 37.8419 28.2403 37.0547C28.2586 36.2708 28.4796 35.1909 28.9885 34.1077C29.4894 33.0199 30.1703 32.1526 30.7483 31.6283C31.3184 31.0995 31.787 30.8934 31.9388 31.034Z" fill="white"/>
<path d="M34.7356 28.7403C34.8281 28.9103 34.4225 29.301 33.8836 29.7207C33.3413 30.1279 32.8361 30.3976 32.7126 30.2628C32.5813 30.1234 32.9032 29.6208 33.4843 29.183C34.0654 28.7453 34.6544 28.5875 34.7356 28.7403Z" fill="white"/>
<path d="M45.9135 68.8035C45.9207 69.2313 45.0353 69.5357 44.083 69.5155C43.6063 69.5157 43.1947 69.4581 42.8674 69.3645C42.7867 69.3391 42.714 69.3183 42.6458 69.2895L42.5936 69.27C42.5777 69.2608 42.5606 69.2721 42.5496 69.181C42.516 69.0557 42.4867 68.9964 42.4595 68.9701C42.4436 68.9609 42.4436 68.9609 42.4436 68.9609C42.3947 68.9539 42.4232 68.9597 42.4152 68.9551C42.4369 68.9359 42.4256 68.9188 42.4278 68.9518C42.4345 68.9768 42.4424 68.9814 42.4345 68.9768C42.4219 68.9802 42.4094 68.9836 42.4516 68.9655C42.4766 68.9588 42.5063 68.9442 42.5289 68.9784C42.572 69.0139 42.5078 69.1251 42.4531 69.1464C42.3983 69.1678 42.3424 69.2097 42.2232 69.1409C42.1551 69.1121 42.1102 68.9697 42.1185 68.9003C42.1222 68.8389 42.143 68.7662 42.1785 68.7231C42.246 68.6244 42.3224 68.5838 42.3784 68.5419C42.4297 68.508 42.4389 68.4922 42.4777 68.4616C42.5382 68.4118 42.6113 68.3587 42.6923 68.3101C43.0242 68.1204 43.5288 67.9987 44.067 68.0022C45.1479 68.0013 45.9097 68.3881 45.9135 68.8035Z" fill="white"/>
<path d="M47.5308 68.6992C47.5652 68.878 47.3231 69.0772 47.001 69.103C46.6743 69.1368 46.4122 68.9855 46.4028 68.8C46.4013 68.6191 46.6409 68.4608 46.9426 68.4337C47.2317 68.41 47.4929 68.5079 47.5308 68.6992Z" fill="white"/>
</g>
<defs>
<clipPath id="clip0_52_50">
<rect width="60.5427" height="60.5427" fill="white" transform="translate(30.2714) rotate(30)"/>
</clipPath>
</defs>
</svg>
