<svg width="1437" height="29" viewBox="0 0 1437 29" fill="none" xmlns="http://www.w3.org/2000/svg">
<path d="M1384.02 2C1384.02 2 1415.7 19.6852 1436 28L1 28.0001L64.4779 2.00012L116.46 23.2915L168.442 2.00011L220.424 23.2914L272.405 2.0001L324.387 23.2914L376.369 2.00009L428.351 23.2914L472.336 5.27567L516.32 23.2914L568.302 2.00008L620.284 23.2914L672.266 2.00007L724.248 23.2914L776.23 2.00006L828.212 23.2914L880.194 2.00005L932.176 23.2914L984.157 2.00004L1036.14 23.2914L1088.12 2.00003L1140.1 23.2914L1192.08 2.00002L1244.07 23.2914L1288.05 5.2756L1332.04 23.2913L1384.02 2Z" fill="#A900D3"/>
<path d="M1436 28L1436 29C1436.48 29 1436.89 28.662 1436.98 28.1932C1437.07 27.7243 1436.82 27.2557 1436.38 27.0746L1436 28ZM1384.02 2L1384.51 1.12684L1384.08 0.892024L1383.64 1.07462L1384.02 2ZM1332.04 23.2913L1331.66 24.2167L1332.04 24.372L1332.42 24.2167L1332.04 23.2913ZM1288.05 5.2756L1288.43 4.35022L1288.05 4.19497L1287.67 4.35022L1288.05 5.2756ZM1244.07 23.2914L1243.69 24.2167L1244.07 24.372L1244.45 24.2167L1244.07 23.2914ZM1192.08 2.00002L1192.46 1.07464L1192.08 0.91939L1191.71 1.07464L1192.08 2.00002ZM1140.1 23.2914L1139.72 24.2167L1140.1 24.372L1140.48 24.2167L1140.1 23.2914ZM1088.12 2.00003L1088.5 1.07465L1088.12 0.919399L1087.74 1.07465L1088.12 2.00003ZM1036.14 23.2914L1035.76 24.2168L1036.14 24.372L1036.52 24.2168L1036.14 23.2914ZM984.157 2.00004L984.536 1.07465L984.157 0.919408L983.778 1.07466L984.157 2.00004ZM932.176 23.2914L931.797 24.2168L932.176 24.372L932.555 24.2168L932.176 23.2914ZM880.194 2.00005L880.573 1.07466L880.194 0.919417L879.815 1.07466L880.194 2.00005ZM828.212 23.2914L827.833 24.2168L828.212 24.372L828.591 24.2168L828.212 23.2914ZM776.23 2.00006L776.609 1.07467L776.23 0.919426L775.851 1.07467L776.23 2.00006ZM724.248 23.2914L723.869 24.2168L724.248 24.372L724.627 24.2168L724.248 23.2914ZM672.266 2.00007L672.645 1.07468L672.266 0.919436L671.887 1.07468L672.266 2.00007ZM620.284 23.2914L619.905 24.2168L620.284 24.372L620.663 24.2168L620.284 23.2914ZM568.302 2.00008L568.681 1.07469L568.302 0.919445L567.923 1.07469L568.302 2.00008ZM516.32 23.2914L515.941 24.2168L516.32 24.3721L516.699 24.2168L516.32 23.2914ZM472.336 5.27567L472.715 4.35029L472.336 4.19504L471.957 4.35029L472.336 5.27567ZM428.351 23.2914L427.972 24.2168L428.351 24.3721L428.73 24.2168L428.351 23.2914ZM376.369 2.00009L376.748 1.07471L376.369 0.919461L375.99 1.07471L376.369 2.00009ZM324.387 23.2914L324.008 24.2168L324.387 24.3721L324.766 24.2168L324.387 23.2914ZM272.405 2.0001L272.784 1.07472L272.405 0.91947L272.026 1.07472L272.405 2.0001ZM220.424 23.2914L220.045 24.2168L220.424 24.3721L220.803 24.2168L220.424 23.2914ZM168.442 2.00011L168.821 1.07473L168.442 0.91948L168.063 1.07473L168.442 2.00011ZM116.46 23.2915L116.081 24.2168L116.46 24.3721L116.839 24.2168L116.46 23.2915ZM64.4779 2.00012L64.8569 1.07474L64.4779 0.919489L64.0989 1.07474L64.4779 2.00012ZM1 28.0001L0.620972 27.0747L1 29.0001L1 28.0001ZM1436.38 27.0746C1426.27 22.9359 1413.31 16.4543 1402.86 10.9955C1397.64 8.26839 1393.05 5.80065 1389.76 4.01476C1388.12 3.12186 1386.81 2.39952 1385.9 1.90057C1385.45 1.6511 1385.1 1.45748 1384.86 1.32632C1384.75 1.26074 1384.66 1.21078 1384.6 1.17726C1384.57 1.16049 1384.54 1.14784 1384.53 1.1394C1384.52 1.13519 1384.51 1.13202 1384.51 1.12992C1384.51 1.12887 1384.51 1.12809 1384.51 1.12757C1384.51 1.12732 1384.51 1.12713 1384.51 1.127C1384.51 1.12689 1384.51 1.12684 1384.02 2C1383.53 2.87317 1383.53 2.87326 1383.53 2.87341C1383.53 2.87355 1383.53 2.87377 1383.53 2.87405C1383.53 2.87461 1383.53 2.87544 1383.54 2.87654C1383.54 2.87873 1383.55 2.88199 1383.55 2.8863C1383.57 2.89493 1383.59 2.90777 1383.62 2.92473C1383.68 2.95863 1383.77 3.00899 1383.89 3.07497C1384.13 3.20693 1384.48 3.40139 1384.94 3.65174C1385.84 4.15243 1387.16 4.87671 1388.81 5.77172C1392.1 7.56164 1396.7 10.0349 1401.93 12.7684C1412.4 18.231 1425.43 24.7493 1435.62 28.9254L1436.38 27.0746ZM1383.64 1.07462L1331.66 22.366L1332.42 24.2167L1384.4 2.92539L1383.64 1.07462ZM1332.42 22.366L1288.43 4.35022L1287.67 6.20099L1331.66 24.2167L1332.42 22.366ZM1287.67 4.35022L1243.69 22.366L1244.45 24.2167L1288.43 6.20099L1287.67 4.35022ZM1244.45 22.366L1192.46 1.07464L1191.71 2.92541L1243.69 24.2167L1244.45 22.366ZM1191.71 1.07464L1139.72 22.366L1140.48 24.2167L1192.46 2.92541L1191.71 1.07464ZM1140.48 22.366L1088.5 1.07465L1087.74 2.92541L1139.72 24.2167L1140.48 22.366ZM1087.74 1.07465L1035.76 22.366L1036.52 24.2168L1088.5 2.92541L1087.74 1.07465ZM1036.52 22.366L984.536 1.07465L983.778 2.92542L1035.76 24.2168L1036.52 22.366ZM983.778 1.07466L931.797 22.366L932.555 24.2168L984.536 2.92542L983.778 1.07466ZM932.555 22.366L880.573 1.07466L879.815 2.92543L931.797 24.2168L932.555 22.366ZM879.815 1.07466L827.833 22.366L828.591 24.2168L880.573 2.92543L879.815 1.07466ZM828.591 22.366L776.609 1.07467L775.851 2.92544L827.833 24.2168L828.591 22.366ZM775.851 1.07467L723.869 22.366L724.627 24.2168L776.609 2.92544L775.851 1.07467ZM724.627 22.366L672.645 1.07468L671.887 2.92545L723.869 24.2168L724.627 22.366ZM671.887 1.07468L619.905 22.366L620.663 24.2168L672.645 2.92545L671.887 1.07468ZM620.663 22.366L568.681 1.07469L567.923 2.92546L619.905 24.2168L620.663 22.366ZM567.923 1.07469L515.941 22.366L516.699 24.2168L568.681 2.92546L567.923 1.07469ZM516.699 22.366L472.715 4.35029L471.957 6.20106L515.941 24.2168L516.699 22.366ZM471.957 4.35029L427.972 22.366L428.73 24.2168L472.715 6.20106L471.957 4.35029ZM428.73 22.366L376.748 1.07471L375.99 2.92548L427.972 24.2168L428.73 22.366ZM375.99 1.07471L324.008 22.3661L324.766 24.2168L376.748 2.92548L375.99 1.07471ZM324.766 22.3661L272.784 1.07472L272.026 2.92549L324.008 24.2168L324.766 22.3661ZM272.026 1.07472L220.045 22.3661L220.803 24.2168L272.784 2.92549L272.026 1.07472ZM220.803 22.3661L168.821 1.07473L168.063 2.9255L220.045 24.2168L220.803 22.3661ZM168.063 1.07473L116.081 22.3661L116.839 24.2168L168.821 2.9255L168.063 1.07473ZM116.839 22.3661L64.8569 1.07474L64.0989 2.9255L116.081 24.2168L116.839 22.3661ZM64.0989 1.07474L0.620972 27.0747L1.37903 28.9255L64.8569 2.9255L64.0989 1.07474ZM1 29.0001L1436 29L1436 27L1 27.0001L1 29.0001Z" fill="#EBFF00"/>
</svg>
