<svg width="12" height="13" viewBox="0 0 12 13" fill="none" xmlns="http://www.w3.org/2000/svg">
<g clip-path="url(#clip0_147_7374)">
<path d="M6.00001 0.5C4.20601 0.502203 2.7522 1.95598 2.75 3.75001V5.75C2.75 5.88807 2.86194 6.00001 3.00001 6.00001H4.00002C4.13809 6.00001 4.25002 5.88807 4.25002 5.75V3.75001C4.25 2.78349 5.03352 2 6.00001 2C6.9665 2 7.75002 2.78349 7.75002 3.75001V5.75C7.75002 5.88807 7.86195 6.00001 8.00002 6.00001H9.00001C9.13808 6.00001 9.25002 5.88807 9.25002 5.75V3.75001C9.24781 1.95598 7.79401 0.502203 6.00001 0.5Z" fill="#455A64"/>
<path d="M2.99999 5.5H8.99999C9.69034 5.5 10.25 6.05964 10.25 6.74999V11.25C10.25 11.9404 9.69034 12.5 8.99999 12.5H2.99999C2.30964 12.5 1.75 11.9404 1.75 11.25V6.75002C1.75 6.05964 2.30964 5.5 2.99999 5.5Z" fill="#FFC107"/>
<path d="M7.25 8.24991C7.2529 7.55955 6.69563 6.99755 6.00528 6.99464C5.31493 6.99173 4.75292 7.54901 4.75001 8.23936C4.748 8.71655 5.01783 9.15323 5.4455 9.3649L5.25249 10.7149C5.23315 10.8516 5.32831 10.9781 5.46502 10.9974C5.4766 10.9991 5.48829 10.9999 5.49999 10.9999H6.5C6.63807 11.0013 6.75113 10.8905 6.75251 10.7524C6.75263 10.7397 6.75181 10.727 6.74998 10.7144L6.55697 9.36441C6.97941 9.153 7.24725 8.72224 7.25 8.24991Z" fill="#455A64"/>
</g>
<defs>
<clipPath id="clip0_147_7374">
<rect width="12" height="12" fill="white" transform="translate(0 0.5)"/>
</clipPath>
</defs>
</svg>
