<svg width="22" height="23" viewBox="0 0 22 23" fill="none" xmlns="http://www.w3.org/2000/svg">
<g clip-path="url(#clip0_339_28254)">
<path d="M12.9336 21.2109V22.5H9.06641C9.06641 22.0336 9.06641 21.6774 9.06641 21.2109H12.9336Z" fill="#1C78BF"/>
<path d="M3.22266 8.92188C2.05646 8.92188 1.1662 8.92188 0 8.92188C0 8.45543 0 8.09926 0 7.63281H3.22266V8.92188Z" fill="#FFDA2D"/>
<path d="M2.97705 5.63113C2.04416 5.16469 1.33199 4.80852 0.398926 4.34207C0.607559 3.9248 0.767014 3.60623 0.975647 3.18896C1.90854 3.65541 2.62071 4.01158 3.55377 4.47803C3.34514 4.89529 3.18568 5.21387 2.97705 5.63113Z" fill="#FFDA2D"/>
<path d="M0.975647 13.3655C0.767014 12.9482 0.607559 12.6297 0.398926 12.2124C1.33199 11.746 2.04416 11.3898 2.97705 10.9233C3.18568 11.3406 3.34514 11.6592 3.55377 12.0764C2.62071 12.5429 1.90854 12.8991 0.975647 13.3655Z" fill="#FFDA2D"/>
<path d="M22 8.92188C20.8338 8.92188 19.9435 8.92188 18.7773 8.92188C18.7773 8.45543 18.7773 8.09926 18.7773 7.63281H22V8.92188Z" fill="#FDBF00"/>
<path d="M19.0225 5.63113C18.8139 5.21387 18.6544 4.89529 18.4458 4.47803C19.3789 4.01158 20.091 3.65541 21.0239 3.18896C21.2326 3.60623 21.392 3.9248 21.6006 4.34207C20.6676 4.80852 19.9554 5.16469 19.0225 5.63113Z" fill="#FDBF00"/>
<path d="M21.0239 13.3655C20.091 12.8991 19.3789 12.5429 18.4458 12.0764C18.6544 11.6592 18.8139 11.3406 19.0225 10.9233C19.9554 11.3898 20.6676 11.746 21.6006 12.2124C21.392 12.6297 21.2326 12.9482 21.0239 13.3655Z" fill="#FDBF00"/>
<path d="M14.2227 17.3008V19.8789H7.77734C7.77734 18.946 7.77734 18.2337 7.77734 17.3008C8.36044 16.8343 8.80557 16.4782 9.38867 16.0117H13.011C13.4494 16.4782 13.7842 16.8343 14.2227 17.3008Z" fill="#E0F4FF"/>
<path d="M11 21.2109H12.9336V22.5C12.2338 22.5 11.6998 22.5 11 22.5C11 22.0336 11 21.6774 11 21.2109Z" fill="#145383"/>
<path d="M14.2227 17.3008V19.8789C13.0565 19.8789 12.1662 19.8789 11 19.8789C11 18.4796 11 17.4111 11 16.0117H13.011C13.4494 16.4782 13.7842 16.8343 14.2227 17.3008Z" fill="#BBDCFF"/>
<path d="M16.5559 8.27734C17.1214 8.77551 17.4453 9.46654 17.4453 10.2109C17.4453 11.4426 16.5759 12.478 15.4085 12.7375C15.0879 12.8017 14.8672 13.0835 14.8672 13.4077V13.4207V13.4336C14.8672 14.271 14.3264 14.9803 13.5781 15.2512V16.6562H8.42188C8.42188 16.1478 8.42188 15.7596 8.42188 15.2512C7.67361 14.9803 7.13281 14.271 7.13281 13.4336C7.13281 13.2018 7.17142 12.9953 7.24879 12.7891C5.77174 12.8532 4.55469 11.673 4.55469 10.2109C4.55469 9.46654 4.87863 8.77551 5.44411 8.27734C4.87997 7.78018 4.55469 7.08966 4.55469 6.34375C4.55469 4.92595 5.71468 3.76562 7.13281 3.76562C7.13281 2.34782 8.2928 1.14453 9.71094 1.14453C10.1777 1.14453 10.6024 1.28015 11 1.5054C11.3976 1.28015 11.8223 1.14453 12.2891 1.14453C13.7069 1.14453 14.8672 2.34749 14.8672 3.76562C16.285 3.76562 17.4453 4.92561 17.4453 6.34375C17.4453 7.08966 17.12 7.78018 16.5559 8.27734Z" fill="#FFDA2D"/>
<path d="M16.5559 8.27734C17.1214 8.77551 17.4453 9.46654 17.4453 10.2109C17.4453 11.4426 16.5759 12.478 15.4085 12.7375C15.0879 12.8017 14.8672 13.0835 14.8672 13.4077V13.4207V13.4336C14.8672 14.271 14.3264 14.9803 13.5781 15.2512V16.6562C12.6452 16.6562 11.9329 16.6562 11 16.6562C11 11.1893 11 6.97234 11 1.5054C11.3976 1.28015 11.8223 1.14453 12.2891 1.14453C13.7069 1.14453 14.8672 2.34749 14.8672 3.76562C16.285 3.76562 17.4453 4.92561 17.4453 6.34375C17.4453 7.08966 17.12 7.78018 16.5559 8.27734Z" fill="#FDBF00"/>
<path d="M18.0898 6.34375C18.0898 4.78429 16.9686 3.4588 15.4602 3.17262C15.1745 1.66687 13.851 0.5 12.2891 0.5C11.8337 0.5 11.4089 0.59198 11 0.783493C10.5911 0.59198 10.1663 0.5 9.71094 0.5C8.15114 0.5 6.82582 1.66469 6.53981 3.17262C5.03423 3.4583 3.91016 4.78143 3.91016 6.34375C3.91016 7.019 4.1297 7.70683 4.56761 8.27734C4.15572 8.81412 3.91016 9.49323 3.91016 10.2109C3.91016 11.1017 4.25911 11.9262 4.9028 12.5312C5.35095 12.9666 5.89058 13.2522 6.48828 13.3691V13.4336C6.48828 14.3715 7.00021 15.205 7.77734 15.6636V17.3008H14.2227C14.2227 16.7085 14.2227 16.2561 14.2227 15.6636C14.9998 15.205 15.5117 14.3715 15.5117 13.4336L15.5376 13.3691C17.0183 13.0472 18.0898 11.7207 18.0898 10.2109C18.0898 9.53703 17.8711 8.84903 17.4324 8.27734C17.8451 7.73956 18.0898 7.06012 18.0898 6.34375ZM10.3555 16.0117C9.88902 16.0117 9.53285 16.0117 9.06641 16.0117C9.06641 15.5733 9.06641 15.2384 9.06641 14.8C8.32201 14.5293 7.77734 14.2461 7.77734 13.4336C7.77734 13.1331 8.05916 12.4117 8.16406 12.1058C8.09927 12.1084 7.1783 12.1469 7.11485 12.1469C6.60057 12.1469 6.14789 11.947 5.79222 11.6031C5.40953 11.246 5.19922 10.7457 5.19922 10.2109C5.19922 9.71814 5.39493 9.28023 5.71484 8.92188H6.57858C6.86543 10.0438 7.87856 10.8555 9.06641 10.8555V9.56641C8.35742 9.56641 7.77734 8.98633 7.77734 8.27734C7.77734 7.56836 8.35742 6.98828 9.06641 6.98828V5.69922C7.87856 5.69922 6.86543 6.51093 6.57858 7.63281C6.26605 7.63281 6.02737 7.63281 5.71484 7.63281C5.36942 7.24576 5.19922 6.8018 5.19922 6.34375C5.19922 5.27373 6.06279 4.41016 7.13281 4.41016H7.77734C7.77734 4.17685 7.77734 3.99893 7.77734 3.76562C7.77734 2.6956 8.64091 1.78906 9.71094 1.78906C9.93015 1.78906 10.1494 1.84059 10.3555 1.91797V16.0117ZM14.2227 8.27734C14.2227 8.98633 13.6426 9.56641 12.9336 9.56641V10.8555C14.1214 10.8555 15.1346 10.0438 15.4214 8.92188H16.2852C16.6051 9.28023 16.8008 9.71814 16.8008 10.2109C16.8008 11.1113 16.1576 11.9122 15.2668 12.1058C14.6738 12.232 14.2223 12.7699 14.2223 13.3943C14.2223 13.403 14.2225 13.4119 14.2227 13.4207V13.4336C14.2227 14.3178 13.6317 14.5462 12.9336 14.8V16.0117C12.4671 16.0117 12.111 16.0117 11.6445 16.0117C11.6445 10.9273 11.6445 7.00238 11.6445 1.91797C11.8506 1.84059 12.0699 1.78906 12.2891 1.78906C13.3591 1.78906 14.2227 2.6956 14.2227 3.76562V4.41016H14.8672C15.9372 4.41016 16.8008 5.27373 16.8008 6.34375C16.8008 6.8018 16.6306 7.24576 16.2852 7.63281C15.9726 7.63281 15.7339 7.63281 15.4214 7.63281C15.1346 6.51093 14.1214 5.69922 12.9336 5.69922V6.98828C13.6426 6.98828 14.2227 7.56836 14.2227 8.27734Z" fill="#FDBF00"/>
<path d="M18.0898 6.34375C18.0898 4.78429 16.9686 3.4588 15.4602 3.17262C15.1745 1.66687 13.851 0.5 12.2891 0.5C11.8337 0.5 11.4089 0.59198 11 0.783493V17.3008H14.2227C14.2227 16.7085 14.2227 16.2561 14.2227 15.6636C14.9998 15.205 15.5117 14.3715 15.5117 13.4336L15.5376 13.3691C17.0183 13.0472 18.0898 11.7207 18.0898 10.2109C18.0898 9.53703 17.8711 8.84903 17.4324 8.27734C17.8451 7.73956 18.0898 7.06012 18.0898 6.34375ZM14.2227 8.27734C14.2227 8.98633 13.6426 9.56641 12.9336 9.56641V10.8555C14.1214 10.8555 15.1346 10.0438 15.4214 8.92188H16.2852C16.6051 9.28023 16.8008 9.71814 16.8008 10.2109C16.8008 11.1113 16.1576 11.9122 15.2668 12.1058C14.6738 12.232 14.2223 12.7699 14.2223 13.3943C14.2223 13.403 14.2225 13.4119 14.2227 13.4207V13.4336C14.2227 14.3178 13.6317 14.5462 12.9336 14.8V16.0117C12.4671 16.0117 12.111 16.0117 11.6445 16.0117C11.6445 10.9273 11.6445 7.00238 11.6445 1.91797C11.8506 1.84059 12.0699 1.78906 12.2891 1.78906C13.3591 1.78906 14.2227 2.6956 14.2227 3.76562V4.41016H14.8672C15.9372 4.41016 16.8008 5.27373 16.8008 6.34375C16.8008 6.8018 16.6306 7.24576 16.2852 7.63281C15.9726 7.63281 15.7339 7.63281 15.4214 7.63281C15.1346 6.51093 14.1214 5.69922 12.9336 5.69922V6.98828C13.6426 6.98828 14.2227 7.56836 14.2227 8.27734Z" fill="#FF9100"/>
</g>
<defs>
<clipPath id="clip0_339_28254">
<rect width="22" height="22" fill="white" transform="translate(0 0.5)"/>
</clipPath>
</defs>
</svg>
