<svg width="72" height="30" viewBox="0 0 72 30" fill="none" xmlns="http://www.w3.org/2000/svg">
<path d="M0.29 22.5V0.365999H4.971V18.625H13.961V22.5H0.29ZM32.8223 14.006C32.8223 15.4113 32.626 16.6617 32.2333 17.757C31.8613 18.8523 31.3137 19.7823 30.5903 20.547C29.8877 21.291 29.03 21.8593 28.0173 22.252C27.0047 22.624 25.8577 22.81 24.5763 22.81C23.3983 22.81 22.303 22.624 21.2903 22.252C20.2983 21.8593 19.4407 21.291 18.7173 20.547C17.994 19.7823 17.4257 18.8523 17.0123 17.757C16.6197 16.6617 16.4233 15.4113 16.4233 14.006C16.4233 12.1253 16.754 10.5443 17.4153 9.263C18.0767 7.961 19.0273 6.969 20.2673 6.287C21.5073 5.605 22.9747 5.264 24.6693 5.264C26.2607 5.264 27.666 5.605 28.8853 6.287C30.1047 6.969 31.0657 7.961 31.7683 9.263C32.471 10.5443 32.8223 12.1253 32.8223 14.006ZM21.1353 14.006C21.1353 15.122 21.249 16.0623 21.4763 16.827C21.7243 17.571 22.1067 18.1393 22.6233 18.532C23.14 18.904 23.8117 19.09 24.6383 19.09C25.465 19.09 26.1263 18.904 26.6223 18.532C27.139 18.1393 27.511 17.571 27.7383 16.827C27.9863 16.0623 28.1103 15.122 28.1103 14.006C28.1103 12.89 27.9863 11.96 27.7383 11.216C27.511 10.472 27.139 9.914 26.6223 9.542C26.1057 9.17 25.434 8.984 24.6073 8.984C23.388 8.984 22.4993 9.40767 21.9413 10.255C21.404 11.0817 21.1353 12.332 21.1353 14.006ZM42.1267 5.264C43.16 5.264 44.09 5.47067 44.9167 5.884C45.7433 6.29733 46.446 6.91733 47.0247 7.744H47.1487L47.5207 5.574H51.4267V22.531C51.4267 24.143 51.1063 25.4967 50.4657 26.592C49.8457 27.6873 48.9053 28.514 47.6447 29.072C46.384 29.6507 44.8237 29.94 42.9637 29.94C41.765 29.94 40.649 29.8677 39.6157 29.723C38.603 29.5783 37.611 29.32 36.6397 28.948V25.259C37.3423 25.5483 38.045 25.786 38.7477 25.972C39.471 26.1787 40.2047 26.3233 40.9487 26.406C41.7133 26.5093 42.478 26.561 43.2427 26.561C44.4413 26.561 45.33 26.2407 45.9087 25.6C46.508 24.9593 46.8077 23.9983 46.8077 22.717V22.376C46.8077 22.0247 46.818 21.663 46.8387 21.291C46.88 20.919 46.911 20.5883 46.9317 20.299H46.8077C46.229 21.1877 45.5367 21.8283 44.7307 22.221C43.9247 22.6137 43.0153 22.81 42.0027 22.81C39.998 22.81 38.4273 22.0453 37.2907 20.516C36.1747 18.966 35.6167 16.8167 35.6167 14.068C35.6167 12.208 35.875 10.627 36.3917 9.325C36.9083 8.00233 37.6523 7 38.6237 6.318C39.6157 5.61533 40.7833 5.264 42.1267 5.264ZM43.5837 9.015C42.8603 9.015 42.2507 9.21133 41.7547 9.604C41.2793 9.976 40.9177 10.5443 40.6697 11.309C40.4423 12.053 40.3287 12.9933 40.3287 14.13C40.3287 15.8247 40.5973 17.0957 41.1347 17.943C41.672 18.7697 42.509 19.183 43.6457 19.183C44.245 19.183 44.7617 19.1107 45.1957 18.966C45.6297 18.8007 45.981 18.5423 46.2497 18.191C46.539 17.819 46.756 17.3437 46.9007 16.765C47.0453 16.1863 47.1177 15.4837 47.1177 14.657V14.099C47.1177 12.8797 46.9937 11.898 46.7457 11.154C46.4977 10.41 46.1153 9.87267 45.5987 9.542C45.082 9.19067 44.4103 9.015 43.5837 9.015ZM71.6329 14.006C71.6329 15.4113 71.4365 16.6617 71.0439 17.757C70.6719 18.8523 70.1242 19.7823 69.4009 20.547C68.6982 21.291 67.8405 21.8593 66.8279 22.252C65.8152 22.624 64.6682 22.81 63.3869 22.81C62.2089 22.81 61.1135 22.624 60.1009 22.252C59.1089 21.8593 58.2512 21.291 57.5279 20.547C56.8045 19.7823 56.2362 18.8523 55.8229 17.757C55.4302 16.6617 55.2339 15.4113 55.2339 14.006C55.2339 12.1253 55.5645 10.5443 56.2259 9.263C56.8872 7.961 57.8379 6.969 59.0779 6.287C60.3179 5.605 61.7852 5.264 63.4799 5.264C65.0712 5.264 66.4765 5.605 67.6959 6.287C68.9152 6.969 69.8762 7.961 70.5789 9.263C71.2815 10.5443 71.6329 12.1253 71.6329 14.006ZM59.9459 14.006C59.9459 15.122 60.0595 16.0623 60.2869 16.827C60.5349 17.571 60.9172 18.1393 61.4339 18.532C61.9505 18.904 62.6222 19.09 63.4489 19.09C64.2755 19.09 64.9369 18.904 65.4329 18.532C65.9495 18.1393 66.3215 17.571 66.5489 16.827C66.7969 16.0623 66.9209 15.122 66.9209 14.006C66.9209 12.89 66.7969 11.96 66.5489 11.216C66.3215 10.472 65.9495 9.914 65.4329 9.542C64.9162 9.17 64.2445 8.984 63.4179 8.984C62.1985 8.984 61.3099 9.40767 60.7519 10.255C60.2145 11.0817 59.9459 12.332 59.9459 14.006Z" fill="url(#paint0_linear_432_19071)"/>
<defs>
<linearGradient id="paint0_linear_432_19071" x1="-2.5" y1="6.85714" x2="61.6584" y2="21.8971" gradientUnits="userSpaceOnUse">
<stop stop-color="#1DF1FF"/>
<stop offset="0.305" stop-color="#A0CC39"/>
<stop offset="0.655" stop-color="#FF1D92"/>
<stop offset="1" stop-color="#FCE572"/>
</linearGradient>
</defs>
</svg>
