<svg width="22" height="23" viewBox="0 0 22 23" fill="none" xmlns="http://www.w3.org/2000/svg">
<path d="M17.1147 6.81878C16.9545 6.81878 16.8527 6.75635 16.7765 6.68021C16.453 6.35661 16.7691 5.78555 17.0807 5.3242C17.3032 4.99459 17.5674 4.67623 17.8656 4.37798L19.4484 2.79523C19.7469 2.49668 20.0654 2.23251 20.395 2.01006C20.8562 1.69867 21.4271 1.38272 21.7505 1.70619C21.9653 1.92094 22.0712 2.34075 20.9746 3.69203C20.6726 4.0638 20.3087 4.46465 19.922 4.85133C19.5352 5.23813 19.1343 5.60208 18.7628 5.9038C17.8904 6.6118 17.4062 6.81878 17.1147 6.81878ZM18.3282 4.8405C18.0594 5.10931 17.822 5.39523 17.6228 5.69029C17.5199 5.84266 17.4492 5.96284 17.4006 6.05591C17.6014 5.95055 17.9121 5.75182 18.3505 5.39604C18.7048 5.10832 19.0883 4.76002 19.4594 4.38885C19.8305 4.01782 20.1789 3.63432 20.4668 3.27979C20.8224 2.84159 21.021 2.53102 21.1263 2.33027C21.0333 2.37878 20.9133 2.44942 20.761 2.55216C20.466 2.75132 20.18 2.98868 19.911 3.2577L18.3282 4.8405Z" fill="#F4DD45"/>
<path d="M17.1968 18.1264H17.2054C17.9394 18.1264 18.5342 17.5311 18.5342 16.7976C18.5342 16.0636 17.9394 15.4683 17.2054 15.4683C17.1958 15.4683 17.1863 15.4683 17.1767 15.4688H5.00884C4.9993 15.4683 4.98971 15.4683 4.98018 15.4683C4.24614 15.4683 3.65137 16.0636 3.65137 16.7976C3.65137 17.5311 4.24614 18.1264 4.98018 18.1264H4.98873" fill="#F1B986"/>
<path d="M16.8913 11.9979C13.0257 11.6231 9.16009 11.6231 5.29449 11.9979C4.99453 14.4014 4.90618 16.8048 5.02942 19.2083C5.11914 20.9579 6.51919 22.3506 8.26913 22.4332C10.1516 22.522 12.0341 22.522 13.9166 22.4332C15.6665 22.3506 17.0666 20.9579 17.1563 19.2083C17.2796 16.8048 17.1912 14.4013 16.8913 11.9979Z" fill="#F1D0A5"/>
<path d="M5.29493 11.9976C7.22741 11.8102 9.16044 11.7168 11.0935 11.7168C10.1149 11.7168 9.13621 11.8114 8.1576 12.0005C8.00536 14.4272 7.96093 16.8539 8.02323 19.28C8.06418 20.8768 8.64778 22.179 9.41362 22.476C9.03244 22.4656 8.65066 22.4512 8.26949 22.4333C6.51984 22.3508 5.11966 20.9581 5.02969 19.2085C4.90684 16.8049 4.99505 14.4012 5.29493 11.9976Z" fill="#F1B986"/>
<path d="M11.0929 19.6807C10.4387 19.6807 9.83472 19.2987 9.55414 18.7076C9.47667 18.5444 9.54619 18.3493 9.70934 18.2719C9.87245 18.1945 10.0676 18.2639 10.145 18.4271C10.3179 18.7913 10.69 19.0266 11.0929 19.0266C11.4959 19.0266 11.868 18.7913 12.0408 18.4271C12.1183 18.2639 12.3134 18.1945 12.4765 18.2719C12.6397 18.3493 12.7092 18.5444 12.6317 18.7076C12.3512 19.2987 11.7471 19.6807 11.0929 19.6807Z" fill="#DA4A54"/>
<path d="M8.26329 15.5088C7.95924 15.5088 7.71191 15.8774 7.71191 16.3305C7.71191 16.7836 7.95924 17.1522 8.26329 17.1522C8.56734 17.1522 8.81471 16.7835 8.81471 16.3305C8.81475 15.8774 8.56738 15.5088 8.26329 15.5088Z" fill="#454045"/>
<path d="M13.922 15.5088C13.6179 15.5088 13.3706 15.8774 13.3706 16.3305C13.3706 16.7836 13.6179 17.1522 13.922 17.1522C14.226 17.1522 14.4734 16.7835 14.4734 16.3305C14.4734 15.8774 14.226 15.5088 13.922 15.5088Z" fill="#454045"/>
<path d="M14.3125 13.9967C12.0906 14.855 8.93455 14.4765 7.34398 12.886C7.34398 12.886 6.96628 15.4685 5.00935 15.4685L4.15599 15.7555C1.8768 6.80911 6.73812 9.19954 6.73812 9.19954C7.19706 8.31009 7.86557 7.94189 8.56407 7.85307C8.62556 7.84547 8.68705 7.8398 8.74892 7.83597C8.75387 7.83597 8.75881 7.83559 8.76375 7.8352C9.25574 7.80899 9.75379 7.90885 10.1964 8.0512C10.3505 8.10092 10.4982 8.15562 10.6364 8.21216C11.1925 8.43955 11.5975 8.69505 11.6826 8.7497C11.6936 8.75731 11.6993 8.76109 11.6993 8.76109C12.1996 8.09903 12.6768 7.5 13.2014 7.5C13.4167 7.5 13.5655 7.58237 13.6653 7.71411C14.0438 8.21027 13.7329 9.40339 13.7078 9.49714L13.7067 9.50131C13.707 9.50054 13.7074 9.49904 13.7082 9.49714L13.7108 9.49031C13.778 9.32102 14.5296 7.5 15.8777 7.5C15.9627 7.5 16.039 7.50795 16.1069 7.52316C17.1118 7.74522 16.3252 9.50286 16.2387 9.68887L16.2364 9.6942C16.2341 9.69875 16.2326 9.70219 16.2318 9.7037C16.2747 9.64904 17.9576 7.51259 18.7054 8.49275C18.7058 8.49352 18.7058 8.49352 18.7062 8.49391C19.4604 9.48803 16.5333 13.1388 14.3125 13.9967Z" fill="#F4DD45"/>
<path d="M18.7057 8.49275H18.7053C18.3272 8.11506 17.0175 9.89809 16.231 9.70486L16.2367 9.69425C16.2344 9.6988 16.2329 9.70224 16.2321 9.70374C16.275 9.64904 17.9578 7.51259 18.7057 8.49275Z" fill="#ECC32E"/>
<path d="M16.1071 7.52316C15.5391 7.39417 15.0126 8.4753 14.7151 9.24281C14.5712 9.61398 14.1256 9.76291 13.7873 9.55318L13.7061 9.50282L13.7068 9.50131L13.708 9.49714H13.7084L13.711 9.49031C13.7782 9.32102 14.5299 7.5 15.8779 7.5C15.9629 7.5 16.0392 7.50799 16.1071 7.52316Z" fill="#ECC32E"/>
<path d="M8.56403 7.85303C6.93852 8.13963 6.32433 11.8663 7.34398 12.8859C7.34398 12.8859 6.96628 15.4684 5.00935 15.4684L4.15599 15.7554C1.8768 6.8091 6.73812 9.1995 6.73812 9.1995C7.19702 8.31009 7.86553 7.94189 8.56403 7.85303Z" fill="#ECC32E"/>
<path d="M13.6652 7.71411C13.0938 7.1428 12.7131 10.0726 11.427 10.5418C10.1408 11.0111 10.0205 10.4113 10.0205 10.4113V10.4109C10.6537 10.1767 11.1882 9.43643 11.6988 8.7607C11.6992 8.76109 11.6992 8.76109 11.6992 8.76109C11.7147 8.74021 11.7303 8.71971 11.7459 8.69921C11.7653 8.673 11.7854 8.64684 11.8051 8.62101C12.2675 8.01704 12.7139 7.5 13.2013 7.5C13.4165 7.5 13.5653 7.58237 13.6652 7.71411Z" fill="#ECC32E"/>
<path d="M4.51608 5.78576C4.51385 5.78576 4.5117 5.78576 4.50946 5.78572C4.36402 5.78279 4.23803 5.68418 4.20022 5.54376L3.5834 3.25266H2.72596C2.54532 3.25266 2.39893 3.10623 2.39893 2.92563C2.39893 2.74503 2.54532 2.59859 2.72596 2.59859H3.83408C3.98198 2.59859 4.11145 2.69781 4.1499 2.84064L4.53959 4.28817L5.65295 0.72941C5.69566 0.592941 5.82212 0.5 5.96512 0.5H8.15936C8.34 0.5 8.48639 0.646437 8.48639 0.827035C8.48639 1.00763 8.34 1.15407 8.15936 1.15407H6.20544L4.82816 5.5563C4.78537 5.69307 4.65878 5.78576 4.51608 5.78576Z" fill="#454045"/>
<path d="M7.12994 6.42116C6.46903 6.42116 6.42061 6.405 6.37631 6.39022C6.26721 6.35387 6.1857 6.27145 6.15265 6.16407C6.09563 5.97871 6.17599 5.87348 6.39074 5.59229C6.56657 5.36211 6.89382 4.93362 7.44206 4.15026C7.60543 3.91681 7.71079 3.70768 7.7553 3.52837L7.76721 3.43521C7.75741 3.13641 7.51128 2.89634 7.21012 2.89634C6.94435 2.89634 6.7143 3.08519 6.66321 3.34532C6.62836 3.52257 6.45662 3.63803 6.2792 3.60318C6.10195 3.56838 5.98649 3.39646 6.02134 3.21921C6.13259 2.6531 6.63253 2.24219 7.21012 2.24219C7.87815 2.24219 8.42162 2.78566 8.42162 3.45369C8.42162 3.46757 8.42072 3.48145 8.419 3.49524L8.4019 3.62892C8.40048 3.63979 8.39859 3.65057 8.3961 3.66123C8.33478 3.92575 8.19406 4.21647 7.97797 4.52525C7.56487 5.11555 7.27504 5.50764 7.08009 5.76618C7.40889 5.76597 7.83596 5.7633 8.23703 5.75828H8.24119C8.4199 5.75828 8.56591 5.90201 8.5681 6.08123C8.57042 6.26183 8.42583 6.41011 8.24523 6.41239C7.75148 6.41858 7.39243 6.42116 7.12994 6.42116Z" fill="#665E66"/>
<path d="M19.2636 5.81243C20.1578 5.81243 20.8827 5.08753 20.8827 4.19332C20.8827 3.29912 20.1578 2.57422 19.2636 2.57422C18.3694 2.57422 17.6445 3.29912 17.6445 4.19332C17.6445 5.08753 18.3694 5.81243 19.2636 5.81243Z" fill="#80B4FB"/>
<path d="M20.7068 4.92817C20.6319 5.07586 20.5323 5.2143 20.4086 5.33797C19.7762 5.97038 18.751 5.97008 18.1188 5.33797C17.4864 4.70555 17.4864 3.68057 18.1188 3.04816C18.2425 2.9245 18.381 2.82489 18.5286 2.75C18.2184 3.35805 18.318 4.12122 18.8268 4.63001C19.3355 5.1388 20.0988 5.23836 20.7068 4.92817Z" fill="#5490F9"/>
<path d="M13.0784 4.65894L11.7325 1.09245C11.7313 1.08944 11.7302 1.08647 11.7289 1.08346C11.6656 0.929465 11.5171 0.830078 11.3507 0.830078C11.3505 0.830078 11.3503 0.830078 11.3502 0.830078C11.1835 0.830293 11.0351 0.930109 10.972 1.08441C10.971 1.08682 10.9701 1.08927 10.9692 1.09167L9.61087 4.65804C9.54655 4.82682 9.63133 5.01579 9.80006 5.08007C9.96885 5.14431 10.1578 5.05966 10.2221 4.89084L10.4802 4.21327H12.2111L12.4665 4.88989C12.5159 5.02086 12.6404 5.10156 12.7725 5.10156C12.8109 5.10156 12.8499 5.09477 12.888 5.08042C13.0569 5.01665 13.1422 4.82793 13.0784 4.65894ZM10.7293 3.55915L11.3496 1.93051L11.9642 3.55915H10.7293Z" fill="#6EC17D"/>
<path d="M1.66515 1.7475L1.82259 1.59006C1.95029 1.46236 1.95029 1.25525 1.82259 1.12755C1.69484 0.999802 1.48777 0.999802 1.36003 1.12755L1.20259 1.28499L1.04515 1.12755C0.917406 0.999845 0.71034 0.999802 0.582594 1.12755C0.454891 1.25525 0.454891 1.46236 0.582594 1.59006L0.740031 1.7475L0.582594 1.90494C0.454891 2.03264 0.454891 2.23975 0.582594 2.36745C0.646488 2.43131 0.730191 2.46323 0.813895 2.46323C0.897598 2.46323 0.981301 2.43131 1.0452 2.36745L1.20263 2.21002L1.36007 2.36745C1.42396 2.43131 1.50762 2.46323 1.59137 2.46323C1.67503 2.46323 1.75878 2.43131 1.82267 2.36745C1.95037 2.23975 1.95037 2.03264 1.82267 1.90494L1.66515 1.7475Z" fill="#DA4A54"/>
<path d="M21.6055 7.49993L21.763 7.34249C21.8907 7.21479 21.8907 7.00768 21.763 6.87997C21.6353 6.75227 21.4282 6.75223 21.3005 6.87997L21.143 7.03745L20.9855 6.87997C20.8579 6.75227 20.6508 6.75227 20.523 6.87997C20.3953 7.00772 20.3953 7.21479 20.5231 7.34249L20.6805 7.49993L20.5231 7.65736C20.3953 7.78507 20.3953 7.99218 20.523 8.11988C20.5869 8.18373 20.6706 8.21566 20.7543 8.21566C20.838 8.21566 20.9217 8.18373 20.9856 8.11988L21.1431 7.9624L21.3005 8.11988C21.3644 8.18373 21.4481 8.21566 21.5318 8.21566C21.6155 8.21566 21.6992 8.18373 21.7631 8.11988C21.8908 7.99213 21.8908 7.78507 21.7631 7.65736L21.6055 7.49993Z" fill="#F4DD45"/>
<path d="M14.9405 5.81243L15.0979 5.65499C15.2257 5.52729 15.2257 5.32018 15.098 5.19247C14.9702 5.06477 14.7631 5.06473 14.6355 5.19247L14.478 5.34995L14.3205 5.19247C14.1928 5.06477 13.9857 5.06477 13.858 5.19247C13.7303 5.32018 13.7303 5.52729 13.858 5.65499L14.0155 5.81243L13.858 5.96986C13.7303 6.09757 13.7303 6.30468 13.858 6.43238C13.9219 6.49623 14.0055 6.52816 14.0893 6.52816C14.1729 6.52816 14.2567 6.49623 14.3205 6.43238L14.478 6.2749L14.6355 6.43238C14.6994 6.49623 14.7831 6.52816 14.8668 6.52816C14.9504 6.52816 15.0342 6.49623 15.0981 6.43238C15.2258 6.30468 15.2258 6.09757 15.098 5.96986L14.9405 5.81243Z" fill="#DA4A54"/>
<path d="M2.66549 13.918H2.03501V13.2875C2.03501 13.1068 1.88862 12.9604 1.70798 12.9604C1.52734 12.9604 1.38094 13.1069 1.38094 13.2875V13.918H0.750375C0.569734 13.918 0.42334 14.0644 0.42334 14.245C0.42334 14.4257 0.569734 14.5721 0.750375 14.5721H1.3809V15.2026C1.3809 15.3832 1.52729 15.5296 1.70793 15.5296C1.88857 15.5296 2.03497 15.3832 2.03497 15.2026V14.5721H2.66545C2.84609 14.5721 2.99248 14.4256 2.99248 14.245C2.99257 14.0644 2.84613 13.918 2.66549 13.918Z" fill="#DA4A54"/>
<path d="M2.23621 9.22096C3.26305 9.22096 4.09547 8.38854 4.09547 7.3617C4.09547 6.33486 3.26305 5.50244 2.23621 5.50244C1.20937 5.50244 0.376953 6.33486 0.376953 7.3617C0.376953 8.38854 1.20937 9.22096 2.23621 9.22096Z" fill="#F6F1F1"/>
<path d="M2.23614 9.54792C1.03061 9.54792 0.0498047 8.56712 0.0498047 7.36159C0.0498047 6.15605 1.03061 5.17529 2.23614 5.17529C3.44163 5.17529 4.42243 6.15605 4.42243 7.36159C4.42243 8.56712 3.44167 9.54792 2.23614 9.54792ZM2.23614 5.82941C1.39129 5.82941 0.703918 6.51673 0.703918 7.36159C0.703918 8.20644 1.39129 8.89381 2.23614 8.89381C3.08099 8.89381 3.76832 8.20648 3.76832 7.36159C3.76832 6.51669 3.08099 5.82941 2.23614 5.82941Z" fill="#80B4FB"/>
<path d="M2.7258 7.68858H2.23621C2.05557 7.68858 1.90918 7.54214 1.90918 7.36154V6.42616C1.90918 6.24552 2.05557 6.09912 2.23621 6.09912C2.41686 6.09912 2.56325 6.24556 2.56325 6.42616V7.03451H2.72576C2.9064 7.03451 3.05279 7.18095 3.05279 7.36154C3.05284 7.54218 2.90644 7.68858 2.7258 7.68858Z" fill="#454045"/>
<path d="M15.6741 4.30313C15.6266 4.30313 15.5783 4.29273 15.5326 4.27078C15.3698 4.19253 15.3013 3.99711 15.3795 3.8343L15.9111 2.72863H15.2323C15.1199 2.72863 15.0153 2.67088 14.9555 2.57566C14.8956 2.48044 14.8888 2.3612 14.9376 2.25984L15.6944 0.68542C15.7727 0.522611 15.9683 0.454119 16.1309 0.532365C16.2937 0.610654 16.3622 0.806033 16.284 0.968841L15.7524 2.07451H16.4312C16.5436 2.07451 16.6482 2.13226 16.708 2.22748C16.7679 2.3227 16.7747 2.44194 16.726 2.5433L15.9691 4.11772C15.9128 4.23477 15.7958 4.30313 15.6741 4.30313Z" fill="#F4DD45"/>
<path d="M21.4502 11.4474C21.5829 11.2695 21.6615 11.049 21.6615 10.8106C21.6615 10.222 21.1827 9.74316 20.5942 9.74316H19.6596C19.4789 9.74316 19.3325 9.8896 19.3325 10.0702V11.5518V11.5542V13.2877C19.3325 13.3747 19.3672 13.4581 19.4288 13.5195C19.4901 13.5805 19.5731 13.6147 19.6596 13.6147H19.6611C19.6611 13.6147 20.5205 13.6109 20.7574 13.6109C21.4153 13.6109 21.9505 13.0757 21.9505 12.4178C21.9505 12.0181 21.7527 11.664 21.4502 11.4474ZM20.5942 10.3972C20.822 10.3972 21.0074 10.5826 21.0074 10.8105C21.0074 11.0384 20.822 11.2238 20.5942 11.2238C20.5252 11.2238 20.395 11.2242 20.2532 11.2246H19.9866V10.3972L20.5942 10.3972ZM20.7574 12.9568C20.6166 12.9568 20.2566 12.9581 19.9866 12.9592V11.8798C20.0726 11.8795 20.1662 11.8791 20.2554 11.8788H20.7574C21.0546 11.8788 21.2964 12.1206 21.2964 12.4178C21.2964 12.715 21.0545 12.9568 20.7574 12.9568Z" fill="#DA4A54"/>
<path d="M20.7397 2.92822C20.661 3.035 20.5707 3.15196 20.4667 3.28018C20.1788 3.63467 19.8304 4.01817 19.4593 4.38925C19.0882 4.76041 18.7047 5.10871 18.3504 5.39643C18.244 5.48276 18.1453 5.55971 18.0537 5.62846L18.5919 6.04036C18.6472 5.99714 18.704 5.95193 18.7627 5.90428C19.1342 5.60251 19.5351 5.23857 19.9218 4.8518C20.3085 4.46513 20.6725 4.06427 20.9744 3.69251C21.0593 3.58792 21.1362 3.48957 21.2071 3.39577L20.7397 2.92822Z" fill="#F4DD45"/>
</svg>
