<svg width="398" height="422" viewBox="0 0 398 422" fill="none" xmlns="http://www.w3.org/2000/svg">
<path d="M337.998 415.263L12.0669 365.732L61.2819 13.5195L387.276 63.0504L337.998 415.263Z" fill="#8D964D"/>
<path d="M324.983 421.898L2.14795 354.93L74.3595 6.88672L397.195 73.8545L324.983 421.898Z" fill="#DDDDDD"/>
<path d="M387.023 352.592L47.9515 398.522L0 45.8666L339.072 0L387.023 352.592Z" fill="#FFFFFD"/>
<path d="M339.072 0C214.487 50.0995 0 45.8666 0 45.8666L339.072 0Z" fill="#EFEFEF"/>
<path d="M47.446 398.711C47.446 398.711 136.336 366.869 211.833 355.561C287.33 344.315 386.518 352.844 386.518 352.844L47.446 398.711Z" fill="#EFEFEF"/>
<path d="M319.677 33.5469L359.162 325.552L67.1574 365.038L27.6716 73.0326L319.677 33.5469Z" fill="#FFE6C7"/>
<path d="M338.503 172.663L352.529 276.273L191.806 303.692C191.806 303.692 210.948 167.861 168.746 173.863C126.607 179.802 65.325 290.867 65.325 290.867L56.3539 284.865L39.7383 162.491C62.4189 130.587 92.9335 90.027 120.795 60.4601L198.123 49.9727C198.692 80.3609 180.181 122.753 206.526 123.448C244.432 124.459 301.608 22.301 313.043 78.5919C321.572 120.226 316.897 160.217 338.503 172.663Z" fill="#FFCB9B"/>
<path d="M166.851 183.214L141.454 168.873L153.205 157.754L166.851 183.214Z" fill="#FFB600"/>
<path d="M167.609 192.627L150.993 200.272L149.098 190.416L167.609 192.627Z" fill="#FFB600"/>
<path d="M178.665 178.348L172.663 159.901L181.698 157.879L178.665 178.348Z" fill="#FFB600"/>
<path d="M296.617 64.6926L308.557 38.1582L320.687 48.8983L296.617 64.6926Z" fill="#FFB600"/>
<path d="M287.267 66.2733L278.169 50.4158L287.835 47.6992L287.267 66.2733Z" fill="#FFB600"/>
<path d="M302.429 76.0644L320.308 68.4199L323.151 77.2647L302.429 76.0644Z" fill="#FFB600"/>
<path d="M128.629 71.2629L140.632 44.7285L152.762 55.4686L128.629 71.2629Z" fill="#FFB600"/>
<path d="M119.278 72.9048L110.181 57.0474L119.847 54.2676L119.278 72.9048Z" fill="#FFB600"/>
<path d="M134.504 82.634L152.383 75.0527L155.163 83.8344L134.504 82.634Z" fill="#FFB600"/>
<path d="M334.081 160.975L321.761 166.788L232.682 208.674C227.185 199.387 223.205 189.531 220.425 179.739C211.264 146.887 216.319 114.414 225.29 103.294C246.201 77.2023 279.433 93.7547 279.433 93.7547C279.433 93.7547 286.445 87.8161 298.196 90.7222C313.991 98.9984 334.081 160.975 334.081 160.975Z" fill="#1D1E1E"/>
<path d="M250.371 229.523C250.371 229.523 233.439 240.643 232.176 249.045C230.912 257.448 241.084 341.537 241.084 341.537L275.642 336.861L250.371 229.523Z" fill="#A3B744"/>
<path d="M342.294 200.714L359.162 325.553L275.705 336.861L273.367 327.258C273.367 327.258 273.346 327.237 273.304 327.195C265.407 322.457 254.414 315.381 248.981 309.506C245.885 306.157 245.127 295.67 245.38 283.35C245.422 283.308 245.422 283.287 245.38 283.287C245.948 259.975 250.308 230.218 250.371 229.523L261.553 220.994L275.578 210.254L309.441 200.02L327.573 200.399L342.294 200.714Z" fill="#A3B744"/>
<path d="M272.483 325.552C272.483 325.552 281.517 324.73 286.95 319.929C292.321 315.064 294.721 304.387 294.721 304.387C294.721 304.387 311.274 313.232 318.792 311.589C326.373 309.947 339.324 298.322 339.324 298.322C339.324 298.322 327.384 315.57 323.909 316.77C320.434 318.034 298.006 311.969 298.006 311.969C298.006 311.969 293.205 324.794 290.046 324.983C286.95 325.109 272.483 325.552 272.483 325.552Z" fill="#80A309"/>
<path d="M309.442 200.018C309.442 200.018 288.53 211.769 284.739 211.453C280.949 211.137 275.579 210.253 275.579 210.253C276.084 209.179 278.738 199.702 277.727 197.049C275.452 191.047 270.904 183.024 270.904 183.024L289.73 170.262C289.73 170.262 292.194 175.948 295.1 181.886C298.007 187.951 307.862 199.386 309.442 200.018Z" fill="#F3A080"/>
<path d="M295.1 181.886C290.488 187.699 284.866 194.648 282.781 196.038C281.075 197.175 279.243 197.302 277.727 197.049C275.452 191.047 270.84 183.024 270.84 183.024L289.73 170.262C289.73 170.262 292.194 175.948 295.1 181.886Z" fill="#EA7C6F"/>
<path d="M285.434 108.918C270.525 98.9359 250.308 100.199 237.672 112.898C234.766 115.804 232.618 118.837 232.05 121.617C229.775 132.925 232.618 171.463 245.001 187.068C257.321 202.61 268.629 196.924 272.546 194.586C276.463 192.185 294.216 178.413 297.059 170.642C299.965 162.871 300.786 126.544 296.175 118.331C294.658 115.615 290.425 112.203 285.434 108.918Z" fill="#F8BF92"/>
<path d="M286.066 105.885C271.156 95.9027 251.003 97.1662 238.304 109.865C235.398 112.834 233.25 115.804 232.681 118.646C230.407 129.955 233.25 168.493 245.633 184.035C257.952 199.576 269.261 193.954 273.178 191.553C277.095 189.152 294.848 175.443 297.754 167.609C300.597 159.838 301.418 123.511 296.806 115.361C295.29 112.581 291.057 109.233 286.066 105.885Z" fill="#F3A080"/>
<path d="M260.164 162.176C261.048 161.797 261.869 161.229 262.88 161.229C262.059 163.503 260.353 165.398 258.205 166.409C258.079 166.535 257.889 166.599 257.7 166.599C257.447 166.599 257.257 166.472 257.068 166.409C255.804 165.777 254.604 164.893 253.719 163.819C253.53 163.629 253.34 163.377 253.214 163.124C252.961 162.176 253.593 162.366 254.162 162.492C254.836 162.703 255.509 162.829 256.183 162.871C257.573 162.997 258.9 162.745 260.164 162.176Z" fill="#EA7C6F"/>
<path d="M257.953 165.903C257.384 165.461 256.689 165.081 256.12 164.639C255.362 164.05 254.646 163.418 253.972 162.744C256.879 160.47 256.626 157.311 256.184 153.773C255.994 152.193 255.425 150.614 254.541 149.287C254.078 148.571 253.551 147.918 252.962 147.329C252.625 147.034 252.288 146.76 251.951 146.507C251.572 146.255 251.256 146.128 250.877 146.002C251.066 146.191 251.193 146.444 251.382 146.634C251.888 147.202 252.33 147.708 252.772 148.276C253.193 148.866 253.572 149.498 253.909 150.172C254.541 151.435 254.92 152.888 255.11 154.278C255.236 155.731 255.11 157.184 254.731 158.511C254.225 160.09 253.277 161.607 251.951 162.618C251.951 162.618 254.225 164.829 254.415 165.018C254.962 165.482 255.573 165.903 256.247 166.282C256.879 166.598 257.573 166.977 258.332 166.914C258.521 166.914 258.774 166.85 258.963 166.661C258.837 166.577 258.711 166.492 258.584 166.408C258.542 166.366 258.479 166.324 258.395 166.282C258.268 166.155 258.121 166.029 257.953 165.903Z" fill="#DD5B67"/>
<path d="M254.415 174.494L277.411 166.471C277.411 166.471 278.801 178.032 270.398 181.57C262.059 185.108 254.415 174.494 254.415 174.494Z" fill="white"/>
<path d="M294.09 151.879C295.037 151.12 298.512 142.592 303.44 145.877C308.368 149.162 311.274 156.048 308.81 160.976C306.472 165.462 302.998 170.579 297.059 170.642L294.09 151.879Z" fill="#F3A080"/>
<path d="M304.767 151.373C305.272 152.258 305.335 153.269 305.335 154.279C305.082 158.575 302.113 162.556 299.27 166.283C299.839 164.072 299.712 161.797 298.954 159.776C298.638 159.018 298.323 158.323 298.133 157.628C297.312 154.595 301.987 146.066 304.767 151.373Z" fill="#EA7C6F"/>
<path d="M297.754 167.862C297.754 167.862 297.817 167.82 297.944 167.736C298.07 167.609 298.196 167.42 298.449 167.23C298.828 166.725 299.333 166.03 299.776 165.082C300.155 164.072 300.471 162.871 300.407 161.544C300.281 160.218 299.902 158.701 298.891 157.438C298.765 157.312 298.617 157.164 298.449 156.996L298.386 156.932C298.323 156.869 298.386 156.869 298.386 156.869V156.743L298.449 156.49C298.491 156.322 298.533 156.153 298.575 155.985C298.786 155.311 299.018 154.679 299.27 154.09C299.523 153.458 299.776 152.889 300.028 152.384C300.344 151.815 300.597 151.373 300.913 150.931C301.166 150.552 301.545 150.236 301.924 150.109C302.303 149.983 302.682 149.983 302.935 150.046C303.187 150.109 303.377 150.236 303.503 150.362C303.566 150.425 303.566 150.552 303.566 150.552C303.566 150.552 303.566 150.425 303.503 150.299C303.44 150.173 303.314 149.983 302.998 149.857C302.745 149.73 302.303 149.667 301.797 149.793C301.292 149.92 300.786 150.236 300.407 150.615C299.965 151.057 299.649 151.562 299.27 152.068C298.891 152.573 298.554 153.142 298.259 153.774C297.922 154.405 297.628 155.079 297.375 155.795C297.333 155.964 297.291 156.132 297.249 156.301L297.122 156.617L297.059 156.996L296.996 157.248C297.038 157.333 297.101 157.396 297.185 157.438L297.438 157.754C297.564 157.88 297.67 158.007 297.754 158.133C298.638 159.207 299.081 160.47 299.333 161.671C299.46 162.871 299.397 164.008 299.144 164.956C298.891 165.904 298.512 166.599 298.259 167.104C298.133 167.357 297.944 167.546 297.88 167.673C297.796 167.799 297.754 167.862 297.754 167.862Z" fill="#B54B57"/>
<path d="M304.703 168.178C305.462 170.579 304.198 173.106 301.797 173.928C299.397 174.686 296.869 173.359 296.111 171.021C295.29 168.621 296.617 166.03 299.017 165.272C301.355 164.514 303.945 165.841 304.703 168.178Z" fill="white"/>
<path d="M233.755 140.696C233.755 140.696 237.925 135.199 241.337 134.631C244.685 134.062 246.517 136.842 245.38 137.789C244.243 138.737 233.755 140.696 233.755 140.696Z" fill="#444444"/>
<path d="M237.104 153.583C238.304 151.688 240.705 150.298 243.106 150.172C245.506 150.045 247.844 151.182 248.855 152.951C245.317 151.814 240.831 152.193 237.104 153.583Z" fill="#1D1E1E"/>
<path d="M279.243 136.715C279.054 138.168 277.6 139.684 276.526 140.569C275.705 140 274.821 139.747 273.999 140C271.851 140.505 270.84 143.664 271.725 147.076C272.546 150.487 274.947 152.825 277.095 152.256C279.18 151.751 280.191 148.592 279.369 145.181C279.117 144.107 278.674 143.159 278.169 142.401C279.433 140.569 279.243 136.715 279.243 136.715Z" fill="#1D1E1E"/>
<path d="M275.515 146.823C275.515 146.823 278.042 147.076 280.317 145.812C282.591 144.549 283.665 142.148 283.665 142.148C283.665 142.148 281.075 141.895 278.864 143.222C276.589 144.486 275.515 146.823 275.515 146.823Z" fill="white"/>
<path d="M281.707 133.366C281.707 133.366 272.357 128.754 266.987 129.133C261.616 129.513 260.479 132.987 262.69 133.682C264.965 134.377 281.707 133.366 281.707 133.366Z" fill="#444444"/>
<path d="M274.568 160.344C275.2 161.86 278.927 161.734 282.907 160.091C286.951 158.448 289.667 155.858 289.036 154.342C288.404 152.826 284.676 152.952 280.633 154.594C276.653 156.237 273.936 158.827 274.568 160.344Z" fill="#EA7C6F"/>
<path d="M232.05 163.059C231.797 164.323 234.64 165.839 238.304 166.471C241.969 167.166 245.127 166.723 245.38 165.523C245.57 164.26 242.79 162.743 239.126 162.112C235.398 161.417 232.239 161.859 232.05 163.059Z" fill="#EA7C6F"/>
<path d="M294.216 134.63L294.09 151.877L303.44 145.875C303.44 145.875 304.009 116.245 300.723 112.139C297.375 108.032 281.265 92.1117 265.218 92.933C249.171 93.7543 231.039 108.096 231.039 108.096C231.039 108.096 223.647 126.543 228.006 136.967C228.006 136.967 251.887 131.977 264.207 117.951C264.207 117.951 279.243 133.493 294.216 134.63Z" fill="#1D1E1E"/>
<path d="M253.53 242.854C253.53 242.854 246.896 296.491 249.676 304.641C252.456 312.854 273.367 327.258 273.367 327.258C273.367 327.258 244.685 314.749 243.295 304.578C241.842 294.406 253.53 242.854 253.53 242.854Z" fill="#80A309"/>
<path d="M341.852 233.188L347.79 241.401L349.559 254.478L341.852 233.188Z" fill="#80A309"/>
<path d="M275.579 210.254L261.553 220.994C261.553 220.994 268.629 235.841 274.884 234.957C281.075 234.072 288.719 220.426 288.719 220.426C288.719 220.426 308.936 230.787 315.254 226.68C321.572 222.574 327.573 200.399 327.573 200.399L309.442 200.02C309.442 200.02 283.602 214.298 275.579 210.254Z" fill="white"/>
<path d="M334.081 160.975L329.974 162.871L321.761 166.788C316.265 143.286 304.703 129.892 304.703 129.892C289.983 129.387 263.828 108.854 263.828 108.854C255.994 120.1 220.678 137.916 220.678 137.916C219.793 143.349 220.046 163.123 220.425 179.739C217.961 170.831 216.508 161.923 215.94 153.457C214.297 130.777 218.719 111.381 225.29 103.294C246.201 77.2023 279.433 93.7547 279.433 93.7547C279.433 93.7547 286.445 87.8161 298.196 90.7222C313.991 98.9984 334.081 160.975 334.081 160.975Z" fill="#444444"/>
<path d="M334.081 160.975L329.974 162.871C323.467 142.528 303.377 114.477 303.377 114.477C292.258 116.309 261.996 99.3143 261.996 99.3143C257.068 107.275 221.12 129.703 221.12 129.703C219.667 132.166 217.456 144.107 215.94 153.457C214.297 130.777 218.719 111.381 225.29 103.294C246.201 77.2023 279.433 93.7547 279.433 93.7547C279.433 93.7547 286.445 87.8161 298.196 90.7222C313.991 98.9984 334.081 160.975 334.081 160.975Z" fill="#595959"/>
<path d="M190.858 348.296L137.031 355.625L129.071 335.471L151.12 226.111C151.12 226.111 168.557 236.346 172.031 244.875C175.506 253.341 180.75 326.5 180.75 326.5C180.75 326.5 185.425 336.292 190.858 348.296Z" fill="#F3803D"/>
<path d="M150.298 326.247C149.982 327.384 150.614 331.617 151.815 337.745C152.699 342.041 153.836 347.285 155.163 353.16L67.1571 365.037L46.3718 211.138L54.5849 208.232C54.5849 208.232 54.6059 208.232 54.648 208.232L71.0109 202.482L100.199 205.894L123.006 214.928L151.12 226.111C151.12 226.111 151.436 253.34 151.372 279.432C151.372 301.607 151.12 322.898 150.298 326.247Z" fill="#F3803D"/>
<path d="M151.815 337.745L155.668 353.097L150.425 353.792L144.676 337.745L151.372 279.433L155.416 244.18C159.775 262.312 151.815 337.745 151.815 337.745Z" fill="#CC4F29"/>
<path d="M110.686 243.484C111.002 245.885 109.36 248.096 106.959 248.412C104.558 248.728 102.347 247.085 102.031 244.684C101.715 242.284 103.358 240.072 105.759 239.756C108.159 239.441 110.37 241.146 110.686 243.484Z" fill="#CC4F29"/>
<path d="M112.455 266.102C112.834 268.439 111.129 270.651 108.728 270.966C106.327 271.282 104.179 269.64 103.863 267.239C103.484 264.838 105.19 262.627 107.591 262.311C109.992 261.995 112.14 263.701 112.455 266.102Z" fill="#CC4F29"/>
<path d="M114.287 288.656C114.603 290.994 112.961 293.205 110.56 293.521C108.159 293.837 105.948 292.194 105.632 289.794C105.316 287.393 106.959 285.245 109.36 284.866C111.76 284.55 113.972 286.256 114.287 288.656Z" fill="#CC4F29"/>
<path d="M100.704 201.851C100.704 201.851 120.1 209.243 123.006 214.929C125.975 220.615 124.206 240.705 124.206 240.705L103.611 226.49L85.0366 246.391C85.0366 246.391 52.9425 228.638 54.5851 208.232C54.5851 208.232 65.1989 202.23 71.0112 200.524C76.8235 198.819 100.704 201.851 100.704 201.851Z" fill="white"/>
<path d="M103.674 224.596L71.5798 209.559C70.6954 204.253 70.9481 196.039 71.4535 188.774C72.0221 180.308 73.0329 173.043 73.0329 173.043L103.421 180.435L100.894 200.146L100.199 205.832L103.674 224.596Z" fill="#F3A080"/>
<path d="M103.421 180.435L100.894 200.146C94.3238 200.904 87.5638 198.946 81.7515 195.787C78.024 193.765 74.802 191.301 71.4536 188.774C72.0222 180.308 73.033 173.043 73.033 173.043L103.421 180.435Z" fill="#EA7C6F"/>
<path d="M66.273 174.748C66.273 174.748 67.2838 177.022 71.1376 179.992C71.9379 180.623 72.8645 181.255 73.9174 181.887C77.9608 184.351 114.856 197.176 120.353 196.039C125.786 194.901 129.64 175.569 129.766 173.548C130.651 161.165 132.862 123.006 132.862 123.006C116.309 82.762 69.2423 107.591 63.9986 112.013C58.7549 116.499 66.273 174.748 66.273 174.748Z" fill="#F3A080"/>
<path d="M71.1377 179.991C71.9379 180.623 72.8645 181.254 73.9175 181.886C77.9608 184.35 114.856 197.175 120.353 196.038C125.786 194.901 129.64 175.569 129.766 173.547C126.923 182.139 123.891 193.89 119.974 193.827C114.035 193.7 75.6865 181.949 71.1377 179.991Z" fill="#F8BF92"/>
<path d="M128.629 135.767C128.629 135.767 125.723 125.154 120.984 127.049C116.246 128.944 117.699 129.892 117.699 129.892L128.629 135.767Z" fill="#4A0F2F"/>
<path d="M77.2026 131.915C77.2026 131.915 90.7226 119.09 95.2081 124.586C97.8616 127.745 95.6504 129.514 95.6504 129.514L77.2026 131.915Z" fill="#4A0F2F"/>
<path d="M121.237 162.492C121.932 163.945 125.154 163.882 128.566 162.366C131.914 160.85 134.062 158.386 133.43 156.933C132.735 155.417 129.45 155.48 126.102 157.059C122.753 158.575 120.542 161.039 121.237 162.492Z" fill="#EA7C6F"/>
<path d="M74.3596 156.237C73.9805 158.575 77.8975 161.228 83.2044 162.239C88.5113 163.187 93.1864 162.113 93.6286 159.775C94.0077 157.501 90.0907 154.784 84.7838 153.837C79.4769 152.889 74.8018 153.963 74.3596 156.237Z" fill="#EA7C6F"/>
<path d="M115.235 160.535C114.919 161.294 114.098 161.673 113.34 161.988C112.266 162.431 111.192 162.873 109.992 162.999C108.791 163.126 107.907 162.368 106.769 161.988C105.822 161.609 105.001 160.851 104.558 159.904C104.116 158.956 104.116 157.819 104.495 156.871C107.338 158.451 110.75 158.83 113.845 157.945C114.351 158.703 115.488 159.714 115.235 160.535Z" fill="#EA7C6F"/>
<path d="M109.676 140.76C108.665 147.583 110.308 154.785 114.161 160.471C111.634 162.114 108.349 162.493 105.506 161.229C106.833 162.998 109.044 163.946 111.255 163.756C113.466 163.567 115.551 162.177 116.499 160.218C113.466 154.343 110.687 147.267 109.676 140.76Z" fill="#DD5B67"/>
<path d="M91.7332 166.852L116.056 168.873C116.056 168.873 114.414 180.308 102.6 179.929C90.7855 179.55 91.7332 166.852 91.7332 166.852Z" fill="white"/>
<path d="M125.217 144.613C125.344 147.646 123.954 150.173 122.058 150.299C120.163 150.425 118.457 148.025 118.331 144.929C118.141 141.896 119.531 139.369 121.49 139.243C123.385 139.117 125.028 141.517 125.217 144.613Z" fill="#1D1E1E"/>
<path d="M127.997 141.77C127.997 141.77 126.923 143.412 124.965 144.36C123.006 145.244 120.984 145.055 120.984 145.055C120.984 145.055 122.122 143.349 124.08 142.402C125.975 141.517 127.997 141.77 127.997 141.77Z" fill="white"/>
<path d="M83.4573 141.58C83.6468 145.245 85.6685 148.151 88.006 148.024C90.2804 147.898 92.0494 144.802 91.7967 141.075C91.6071 137.411 89.5854 134.505 87.2479 134.631C84.9735 134.757 83.2677 137.853 83.4573 141.58Z" fill="#1D1E1E"/>
<path d="M79.6665 138.484C79.6665 138.484 81.2459 140.379 83.7098 141.264C86.1738 142.085 88.5745 141.516 88.5745 141.516C88.5745 141.516 86.9951 139.621 84.5312 138.8C82.1304 137.979 79.6665 138.484 79.6665 138.484Z" fill="white"/>
<path d="M71.6431 175.823C64.2513 175.76 58.5654 171.78 55.4065 168.305C54.7116 167.547 54.143 166.789 53.7008 166.094C51.3 162.43 49.7838 149.226 54.9643 145.751C58.6286 143.35 61.5979 146.256 63.051 148.215C63.051 148.257 63.051 148.278 63.051 148.278C63.6828 149.099 64.0618 149.731 64.0618 149.731L71.6431 175.823Z" fill="#F8BF92"/>
<path d="M71.6429 175.823C64.2512 175.76 58.5653 171.78 55.4064 168.305C55.1537 167.968 54.922 167.631 54.7115 167.294C52.3107 163.63 50.7313 150.426 55.975 146.951C58.9443 144.993 61.4714 146.509 63.0508 148.215C63.0508 148.257 63.0508 148.278 63.0508 148.278C63.6826 149.099 64.0617 149.731 64.0617 149.731L71.6429 175.823Z" fill="#F3A080"/>
<path d="M54.0165 156.428C53.827 157.502 54.0797 158.576 54.522 159.587C56.2909 163.946 60.966 167.041 65.4516 169.884C63.9985 167.8 63.3668 165.399 63.4931 162.998C63.4931 162.177 63.6195 161.356 63.5563 160.534C63.3668 157.186 55.1537 150.047 54.0165 156.428Z" fill="#EA7C6F"/>
<path d="M67.6628 170.958C67.6628 170.958 67.5786 170.916 67.4101 170.831C67.2837 170.768 67.031 170.642 66.7151 170.516C66.1465 170.136 65.2621 169.631 64.5039 168.747C63.6826 167.925 62.9245 166.725 62.4822 165.335C62.1032 163.945 62.04 162.303 62.6718 160.66C62.756 160.449 62.8613 160.239 62.9877 160.028L63.0509 159.902C63.0509 159.839 63.0509 159.902 63.0509 159.839L62.9877 159.712L62.7981 159.46C62.7139 159.333 62.6086 159.186 62.4822 159.017C62.0189 158.386 61.5346 157.796 61.0292 157.248C60.5659 156.743 60.0815 156.259 59.5761 155.795C59.0707 155.353 58.6284 154.911 58.123 154.658C57.6808 154.342 57.1754 154.153 56.7331 154.153C56.2909 154.089 55.8486 154.216 55.5959 154.405C55.2801 154.595 55.1537 154.784 55.0905 154.911C55.0274 155.037 55.0273 155.164 55.0273 155.164C55.0273 155.164 54.9642 155.037 55.0273 154.911C55.0273 154.721 55.1537 154.532 55.4064 154.279C55.6591 154.026 56.1014 153.837 56.7331 153.774C57.3017 153.71 57.9967 153.837 58.5653 154.153C59.197 154.405 59.7656 154.784 60.3342 155.227C60.9239 155.648 61.4925 156.111 62.04 156.617C62.6297 157.164 63.1983 157.754 63.7458 158.386C63.8721 158.554 63.9985 158.722 64.1249 158.891L64.2512 159.144L64.5039 159.523L64.6934 159.775C64.6513 159.86 64.6092 159.944 64.5671 160.028L64.3776 160.407C64.2933 160.576 64.2091 160.765 64.1249 160.976C63.5563 162.366 63.5563 163.819 63.7458 165.146C63.9985 166.409 64.5039 167.546 65.1357 168.431C65.7043 169.315 66.3992 169.947 66.8415 170.389C67.0942 170.579 67.3469 170.705 67.4733 170.831C67.5996 170.916 67.6628 170.958 67.6628 170.958Z" fill="#B54B57"/>
<path d="M132.419 122.249C130.019 123.386 127.302 123.892 124.648 123.702C125.217 122.691 125.596 120.986 125.47 119.785C121.616 123.071 116.12 124.208 111.318 122.818C113.908 120.859 115.425 117.321 115.93 114.163C110.876 119.343 102.663 121.238 95.9028 118.711C97.8613 116.311 99.6303 112.773 99.5671 109.677C95.7765 116.5 88.3216 120.164 81.2457 123.45C79.4768 124.271 77.3919 125.155 75.4966 124.524C77.5814 122.502 78.845 119.722 79.1609 116.816C76.1284 119.975 71.5796 122.439 67.2204 122.818C71.5164 127.935 72.5905 135.516 70.0002 141.708C69.1789 139.56 68.4208 137.222 67.0309 135.39C69.1157 142.34 69.4316 149.794 67.9153 156.87C65.1355 151.879 61.2817 143.603 55.9117 145.688C53.3214 146.699 51.4261 157.313 51.4261 157.313C51.4261 157.313 47.825 151.121 44.4134 142.908C40.7492 133.874 37.3376 122.312 39.4856 113.72C43.6553 97.3574 59.3864 99.3791 59.3864 99.3791C65.5146 91.0397 84.2782 82.8267 96.5978 81.9422C108.728 81.0577 127.239 92.1137 130.461 105.95C130.545 106.16 130.608 106.371 130.65 106.581C131.851 112.709 132.419 122.249 132.419 122.249Z" fill="#38102B"/>
<path d="M130.461 105.949C130.166 106.201 129.871 106.433 129.577 106.644C126.734 108.792 123.701 110.876 120.226 111.192C121.111 108.665 121.679 105.949 121.806 103.295C118.205 107.149 112.771 109.171 107.528 108.602C109.36 106.075 110.244 102.853 109.865 99.7572C107.465 102.474 104.369 104.622 101.02 105.822C101.652 103.485 101.526 100.958 100.705 98.6201C95.2714 106.012 85.7316 110.118 76.6341 109.107C77.7713 106.959 78.1503 104.432 77.7713 102.032C72.5276 108.665 65.4517 113.656 57.4282 116.246C60.9661 120.163 62.6087 125.66 61.9138 130.904C60.1448 128.882 57.4282 127.682 54.7748 127.808C57.8705 131.346 59.8921 135.768 60.5871 140.38C57.1123 138.169 52.8795 135.895 49.0888 137.411C46.7513 138.359 45.235 140.443 44.4137 142.907C42.5184 138.169 40.6863 132.799 39.6123 127.492C38.7278 122.627 38.4751 117.826 39.4859 113.719C43.6556 97.3565 59.3867 99.3782 59.3867 99.3782C65.5149 91.0388 84.2785 82.8258 96.5981 81.9413C106.706 81.1832 121.111 88.7012 127.618 99.1887C128.945 101.337 129.892 103.611 130.461 105.949Z" fill="#4A0F2F"/>
<path d="M127.618 99.1887C126.481 100.831 124.901 102.032 122.943 102.537C122.943 100.263 122.438 97.9883 121.616 95.9034C119.089 97.4829 116.373 98.6832 113.53 99.4414C113.972 96.2825 113.845 92.9973 113.087 89.9016C110.813 92.3655 107.654 94.0713 104.369 94.5135C105.001 92.7446 105.19 90.7229 104.811 88.8276C98.8093 94.0713 91.228 97.4197 83.3309 98.3042C84.6576 96.1562 85.2262 93.6291 85.0998 91.1652C77.7713 101.274 66.6521 108.602 54.4589 111.382C52.3109 111.824 50.5419 112.772 48.4571 112.077C50.7314 115.299 53.1322 118.963 52.5636 122.88C50.1628 121.996 47.5094 121.743 44.9191 122.248C47.0672 123.954 48.5834 126.355 49.2784 128.945C47.3199 128.061 45.1718 127.429 43.0238 127.176C42.1393 127.05 41.1917 126.987 40.3072 127.239C40.0966 127.281 39.865 127.366 39.6123 127.492C38.7278 122.627 38.4751 117.826 39.4859 113.719C43.6556 97.3565 59.3867 99.3782 59.3867 99.3782C65.5149 91.0388 84.2785 82.8258 96.5981 81.9413C106.706 81.1832 121.111 88.7012 127.618 99.1887Z" fill="#5F1234"/>
<path d="M237.167 248.223C240.642 249.865 241.842 254.098 242.221 257.952C242.663 261.743 242.79 265.849 245.254 268.818C247.907 271.977 252.645 272.735 255.488 275.705C259.721 280.064 258.711 287.645 262.754 292.131C264.523 294.026 266.924 295.163 268.945 296.743C275.516 302.05 274.821 311.4 274.631 319.866L156.49 335.849C153.584 329.026 153.647 321.003 156.616 314.18C157.437 312.284 158.575 310.452 158.954 308.367C160.217 302.492 155.858 296.427 157.185 290.615C158.196 286.129 162.176 283.096 164.45 279.116C166.598 275.389 167.104 270.777 165.903 266.607C181.129 259.91 196.986 255.867 213.223 252.456C221.183 250.813 229.207 249.865 237.167 248.223Z" fill="#4A0F2F"/>
<path d="M165.714 292.256C165.524 297.879 169.694 302.618 170.831 308.051C172.663 317.275 165.587 327.509 170.073 335.722C177.781 332.816 185.804 330.731 193.954 329.594C200.272 328.773 206.653 328.457 212.97 327.699C220.488 326.878 227.88 325.425 235.272 324.035C245.801 322.013 256.31 319.97 266.797 317.906C262.438 314.937 259.216 310.325 257.952 305.208C256.626 299.964 257.131 293.836 253.277 290.045C251.698 288.466 249.613 287.581 247.781 286.444C238.62 280.632 235.714 268.755 234.324 258.014C234.198 256.751 234.008 255.424 233.25 254.35C232.05 252.771 229.839 252.329 227.88 252.139C213.413 250.623 198.503 253.908 185.994 261.363C181.003 264.395 174.495 268.312 172.284 273.935C170.136 279.242 165.903 286.571 165.714 292.256Z" fill="#38102B"/>
<path d="M196.733 279.749L201.535 300.156L224.974 296.997L223.647 276.527L196.733 279.749Z" fill="#EA7C6F"/>
<path d="M180.497 277.35C174.306 278.108 168.872 274.443 165.65 271.158C164.892 270.4 164.324 269.642 163.818 269.01C161.228 265.346 157.69 251.573 161.481 247.404C164.134 244.434 167.103 247.214 168.683 249.172C169.315 249.994 169.757 250.626 169.757 250.626L180.497 277.35Z" fill="#F8BF92"/>
<path d="M181.634 277.224C175.38 277.918 168.872 274.444 165.65 271.159C165.356 270.822 165.082 270.485 164.829 270.148C162.239 266.547 158.701 252.711 162.492 248.541C164.64 246.14 167.04 247.53 168.683 249.173C169.315 249.994 169.757 250.626 169.757 250.626L181.634 277.224Z" fill="#F3A080"/>
<path d="M162.491 258.712C162.491 259.913 162.871 260.987 163.376 262.061C165.65 266.42 170.073 269.2 174.306 271.727C172.726 269.705 171.842 267.241 171.463 264.714C171.399 263.83 171.336 262.945 171.147 262.061C170.389 258.586 162.365 251.889 162.491 258.712Z" fill="#EA7C6F"/>
<path d="M176.327 272.674C176.327 272.674 176.264 272.653 176.137 272.611C175.948 272.485 175.758 272.422 175.443 272.295C174.937 271.979 174.116 271.474 173.295 270.653C172.473 269.831 171.652 268.694 171.083 267.304C170.515 265.851 170.199 264.082 170.452 262.313C170.494 262.061 170.536 261.829 170.578 261.618L170.641 261.429C170.641 261.429 170.641 261.429 170.578 261.429L170.515 261.302L170.325 261.05C170.199 260.881 170.094 260.734 170.009 260.608C169.504 259.976 168.998 259.407 168.493 258.902C167.988 258.396 167.503 257.933 167.04 257.512C166.535 257.07 166.092 256.691 165.65 256.438C165.208 256.185 164.766 255.996 164.323 256.059C163.944 256.059 163.628 256.248 163.439 256.438C163.249 256.627 163.123 256.88 163.123 257.006C163.06 257.196 163.123 257.259 163.123 257.259C163.123 257.259 163.06 257.196 163.06 257.006C163.06 256.88 163.06 256.627 163.249 256.311C163.439 256.059 163.818 255.743 164.26 255.617C164.766 255.553 165.334 255.617 165.903 255.869C166.471 256.122 166.977 256.438 167.545 256.817C168.093 257.196 168.662 257.638 169.251 258.144C169.841 258.607 170.388 259.154 170.894 259.786C171.062 259.955 171.21 260.123 171.336 260.292L171.526 260.544L171.778 260.923L171.968 261.176C171.968 261.26 171.947 261.345 171.905 261.429L171.841 261.871C171.757 262.082 171.715 262.271 171.715 262.44C171.462 264.019 171.715 265.599 172.094 266.925C172.536 268.252 173.105 269.389 173.8 270.274C174.432 271.095 175.063 271.727 175.569 272.106C175.822 272.295 176.011 272.422 176.137 272.548C176.264 272.632 176.327 272.674 176.327 272.674Z" fill="#B54B57"/>
<path d="M235.272 263.829C241.21 261.934 244.685 256.437 246.265 252.078C246.644 251.067 246.896 250.183 247.023 249.361C247.907 245.002 245.506 230.977 240.326 228.702C236.725 227.123 235.145 230.85 234.514 233.251C234.198 234.262 234.135 235.083 234.135 235.083L235.272 263.829Z" fill="#F8BF92"/>
<path d="M234.198 264.146C240.2 262.251 244.685 256.438 246.265 252.079C246.391 251.658 246.496 251.237 246.58 250.816C247.465 246.456 245.001 232.431 239.884 230.157C236.914 228.893 235.335 231.104 234.514 233.252C234.198 234.263 234.135 235.084 234.135 235.084L234.198 264.146Z" fill="#F3A080"/>
<path d="M244.053 239.444C244.559 240.518 244.622 241.718 244.559 242.855C244.369 247.783 241.4 252.142 238.62 256.186C239.189 253.658 239.062 251.068 238.304 248.604C238.052 247.72 237.736 246.898 237.546 246.077C236.788 242.539 241.337 233.126 244.053 239.444Z" fill="#EA7C6F"/>
<path d="M237.104 257.891C237.104 257.891 237.167 257.828 237.293 257.701C237.42 257.575 237.609 257.385 237.799 257.133C238.178 256.627 238.683 255.869 239.062 254.795C239.504 253.721 239.757 252.331 239.757 250.752C239.631 249.236 239.252 247.53 238.241 245.95C238.114 245.74 237.988 245.55 237.862 245.382L237.735 245.255L237.799 245.066L237.862 244.813C237.904 244.603 237.946 244.413 237.988 244.245C238.157 243.486 238.367 242.77 238.62 242.097C238.873 241.423 239.146 240.791 239.441 240.201C239.694 239.633 239.947 239.064 240.263 238.622C240.515 238.243 240.894 237.927 241.273 237.737C241.589 237.611 241.968 237.674 242.284 237.737C242.537 237.864 242.726 238.053 242.79 238.18C242.916 238.306 242.916 238.369 242.916 238.369C242.916 238.369 242.916 238.306 242.853 238.116C242.79 237.99 242.663 237.737 242.347 237.611C242.095 237.421 241.652 237.295 241.147 237.358C240.642 237.485 240.136 237.8 239.757 238.243C239.378 238.685 238.999 239.19 238.683 239.759C238.304 240.349 237.967 240.98 237.672 241.654C237.335 242.37 237.04 243.107 236.788 243.865C236.746 244.076 236.704 244.287 236.661 244.497L236.535 244.813L236.472 245.255L236.409 245.571C236.451 245.656 236.514 245.74 236.598 245.824L236.851 246.14C236.977 246.308 237.083 246.477 237.167 246.645C238.051 247.972 238.494 249.488 238.683 250.878C238.809 252.268 238.746 253.532 238.494 254.606C238.241 255.616 237.862 256.438 237.609 257.006C237.483 257.322 237.356 257.512 237.23 257.638C237.146 257.807 237.104 257.891 237.104 257.891Z" fill="#B54B57"/>
<path d="M164.766 232.493C167.167 242.096 171.273 258.901 172.284 261.618C173.674 265.408 188.268 296.555 211.77 291.69C236.914 286.51 237.23 251.51 236.914 247.466C236.662 244.56 233.376 227.123 231.481 217.457C209.558 223.396 186.562 226.175 164.766 232.493Z" fill="#F8BF92"/>
<path d="M166.408 231.987C168.62 241.148 172.6 257.132 173.547 259.722C174.874 263.323 188.71 293.016 211.138 288.341C235.082 283.413 235.398 250.119 235.082 246.202C234.829 243.485 231.67 226.87 229.902 217.709C209.053 223.332 187.131 225.985 166.408 231.987Z" fill="#F3A080"/>
<path d="M175.948 248.415C175.948 248.415 182.455 236.537 186.309 235.969C190.163 235.4 191.995 237.232 190.921 239.001C189.91 240.707 175.948 248.415 175.948 248.415Z" fill="#4A0F2F"/>
<path d="M229.08 236.348C229.08 236.348 217.519 229.335 213.918 230.788C210.254 232.178 209.622 234.705 211.391 235.716C213.16 236.664 229.08 236.348 229.08 236.348Z" fill="#4A0F2F"/>
<path d="M187.131 251.004C191.048 250.498 195.154 252.773 196.86 256.247C194.143 254.352 190.669 253.468 187.383 253.847C184.035 254.226 181.95 255.932 179.297 257.574C179.865 254.099 183.909 251.383 187.131 251.004Z" fill="#1D1E1E"/>
<path d="M218.719 242.791C215.055 244.118 212.338 247.909 212.401 251.826C213.981 248.919 216.697 246.582 219.793 245.445C222.952 244.307 225.605 244.939 228.701 245.192C226.616 242.349 221.815 241.717 218.719 242.791Z" fill="#1D1E1E"/>
<path d="M240.136 250.752C240.894 252.648 238.051 255.554 233.755 257.323C229.522 259.029 225.416 258.965 224.658 257.07C223.9 255.238 226.743 252.332 231.039 250.563C235.271 248.794 239.378 248.92 240.136 250.752Z" fill="#EA7C6F"/>
<path d="M171.842 263.513C171.589 265.535 175.127 267.62 179.676 268.125C184.288 268.694 188.141 267.493 188.394 265.535C188.647 263.513 185.109 261.428 180.56 260.923C175.948 260.354 172.031 261.555 171.842 263.513Z" fill="#EA7C6F"/>
<path d="M219.035 264.588C218.403 268.821 214.55 272.485 210.001 273.875C205.389 275.202 200.272 274.38 196.292 272.106C200.461 273.243 205.01 273.054 209.116 271.664C213.223 270.211 216.761 267.936 219.035 264.588Z" fill="#DD5B67"/>
<path d="M215.055 273.369C214.865 275.644 213.223 277.665 211.201 278.297C209.18 278.992 206.905 278.486 205.073 277.16C206.968 277.855 208.99 277.792 210.759 277.097C212.591 276.402 214.107 275.201 215.055 273.369Z" fill="#DD5B67"/>
<path d="M201.598 262.122C204.252 261.806 206.842 260.922 209.18 259.658C209.053 261.364 207.853 262.754 206.653 264.017C204.884 264.017 203.115 263.07 201.598 262.122Z" fill="#EA7C6F"/>
<path d="M202.356 254.668C203.178 257.321 202.42 260.354 200.587 262.439C202.167 264.081 204.82 264.713 206.968 263.955C205.578 263.576 204.189 263.007 202.988 262.186C203.304 261.87 203.241 261.175 203.304 260.733C203.43 258.648 203.241 256.626 202.356 254.668Z" fill="#DD5B67"/>
<path d="M242.158 230.028H242.095C242.305 231.208 242.453 232.408 242.537 233.629C242.6 235.777 242.221 238.304 240.389 239.315C238.051 240.579 235.335 238.684 233.755 236.536C231.923 234.008 230.596 230.471 230.217 227.312C229.901 228.259 228.954 228.891 227.943 229.144C226.932 229.397 225.921 229.333 224.91 229.144C220.741 228.512 216.382 227.059 213.096 224.532C213.728 225.48 214.423 226.869 213.539 227.691C213.223 228.007 212.78 228.07 212.338 228.133C209.874 228.512 206.842 227.691 204.694 226.301C202.609 229.776 198.818 232.113 194.775 232.366C195.196 230.807 195.533 229.249 195.786 227.691C192.816 230.85 188.899 233.187 184.603 234.198C184.161 234.261 183.656 234.388 183.214 234.198C182.203 233.756 181.824 232.619 182.076 231.608C181.002 234.514 179.423 237.167 177.464 239.568C177.085 240.01 176.643 240.516 176.075 240.642C175.127 240.958 174.053 240.2 173.611 239.252C173.484 238.999 173.4 238.747 173.358 238.494C173.421 243.295 172.852 248.034 171.652 252.709C171.526 253.214 171.336 253.783 171.02 254.225C170.01 255.426 168.114 255.046 166.724 254.352C164.197 252.962 162.302 250.561 161.102 247.844L160.975 248.097C160.975 248.097 160.596 247.212 160.091 245.759C157.879 239.126 153.583 219.92 172.094 204.126C191.679 187.384 232.176 187.7 240.768 221.815C241.4 224.342 241.863 227.08 242.158 230.028Z" fill="#38102B"/>
<path d="M225.163 212.086C225.542 214.36 225.732 216.698 225.542 218.972C219.73 218.909 213.981 216.887 209.369 213.349C209.495 215.624 209.601 217.898 209.685 220.173C206.842 220.109 203.999 218.277 202.799 215.624C201.851 218.593 199.134 222.194 196.544 220.552C193.891 218.846 196.039 214.423 194.333 211.833C190.858 217.33 185.804 221.752 179.929 224.469C179.549 222.868 179.149 221.268 178.728 219.667C176.643 225.606 172.6 230.913 167.419 234.514C166.956 233.04 166.493 231.566 166.03 230.091C166.03 233.503 166.03 237.041 164.766 240.263C163.882 242.537 162.176 244.622 160.091 245.759C159.27 243.295 158.196 239.126 158.006 234.072C157.817 225.416 160.407 214.108 172.095 204.126C189.405 189.279 223.268 187.826 236.725 211.517C238.431 214.487 239.82 217.961 240.768 221.815C234.45 221.31 228.322 217.646 225.163 212.086Z" fill="#4A0F2F"/>
<path d="M229.144 209.938C225.227 208.358 221.815 205.831 218.467 203.304C218.972 204.757 219.288 206.337 219.351 207.916C219.351 208.358 219.351 208.927 218.972 209.306C218.53 209.748 217.835 209.748 217.203 209.685C212.465 208.927 208.8 205.326 205.452 201.914C205.578 203.431 205.578 204.947 205.515 206.463C205.515 206.905 205.452 207.411 205.199 207.79C204.504 208.927 202.735 208.611 201.851 207.664C200.967 206.779 200.524 205.452 199.64 204.505C199.324 206.4 198.376 208.232 197.05 209.559C195.217 206.905 194.08 203.81 193.764 200.524C190.795 206.4 185.741 211.201 179.676 213.665C179.297 213.855 178.918 213.981 178.539 213.792C178.223 213.665 178.096 213.223 177.97 212.844C177.633 211.623 177.296 210.401 176.959 209.18C175.253 215.877 171.21 221.942 165.714 226.111C165.25 225.185 164.787 224.258 164.324 223.331C164.197 227.691 161.67 231.797 158.006 234.072C157.817 225.416 160.407 214.108 172.095 204.126C189.405 189.279 223.268 187.826 236.725 211.517C234.135 211.517 231.481 210.949 229.144 209.938Z" fill="#5F1234"/>
<path d="M175.001 314.369C175.001 314.369 160.281 322.393 156.427 326.436C152.573 330.543 146.887 354.234 146.887 354.234L181.445 349.622L175.001 314.369Z" fill="#F3A080"/>
<path d="M264.08 306.473C264.08 306.473 272.357 308.242 277.158 313.296C282.023 318.287 288.467 335.092 288.467 335.092L256.562 339.451L256.436 313.549L264.08 306.473Z" fill="#F3A080"/>
<path d="M201.535 300.155C201.535 300.155 170.01 310.263 162.491 321.825L181.445 349.623L262.122 338.693L264.08 306.473L224.974 296.996L201.535 300.155Z" fill="#FFB600"/>
<path d="M201.219 298.638L184.098 306.977C184.098 306.977 197.871 320.876 204.378 318.16C210.885 315.443 213.665 309.125 213.665 309.125C213.665 309.125 221.878 318.16 230.091 314.811C238.367 311.463 239.631 300.154 239.631 300.154L224.847 295.416L201.219 298.638Z" fill="white"/>
<path d="M211.959 81.689C211.959 81.689 235.777 61.4091 229.649 60.2088C223.584 59.0716 218.719 67.3478 218.719 67.3478C218.719 67.3478 217.645 50.669 213.16 54.7755C208.737 58.882 211.959 81.689 211.959 81.689Z" fill="#DB4B28"/>
<path d="M44.4767 193.513C44.4767 193.513 41.8865 162.303 37.4009 166.599C32.9153 170.895 36.7691 179.677 36.7691 179.677C36.7691 179.677 22.6174 170.832 23.3124 176.834C24.0705 182.836 44.4767 193.513 44.4767 193.513Z" fill="#DB4B28"/>
<path d="M347.285 139.874C347.285 139.874 370.029 117.573 363.522 116.436C357.014 115.298 352.845 124.27 352.845 124.27C352.845 124.27 349.875 106.264 345.642 110.813C341.41 115.298 347.285 139.874 347.285 139.874Z" fill="#DB4B28"/>
<path d="M207.284 150.109C207.284 150.109 204.441 129.703 201.346 132.672C198.25 135.578 201.346 141.264 201.346 141.264C201.346 141.264 190.858 135.831 191.553 139.748C192.248 143.728 207.284 150.109 207.284 150.109Z" fill="#DB4B28"/>
<path d="M145.623 117.195C145.623 117.195 158.827 101.338 154.531 101.022C150.298 100.706 148.213 106.834 148.213 106.834C148.213 106.834 145.118 95.399 142.717 98.6211C140.253 101.78 145.623 117.195 145.623 117.195Z" fill="#DB4B28"/>
</svg>
