<svg width="126" height="82" viewBox="0 0 126 82" fill="none" xmlns="http://www.w3.org/2000/svg">
<line x1="97" y1="41" x2="126" y2="41" stroke="#7CFF45" stroke-width="4"/>
<path d="M2.5 2.5H78C98.7107 2.5 115.5 19.2893 115.5 40V42C115.5 62.7107 98.7107 79.5 78 79.5H2.5V2.5Z" fill="#43D000" stroke="#7CFF45" stroke-width="5"/>
<path d="M71.9239 57.4102C71.9244 55.2524 72.7574 53.1779 74.2494 51.619C74.3423 51.5215 74.4538 51.4435 74.5773 51.3895C74.7007 51.3356 74.8337 51.3068 74.9684 51.3048C75.1032 51.3028 75.2369 51.3277 75.3619 51.3781C75.4869 51.4284 75.6006 51.5031 75.6964 51.5979C75.7921 51.6927 75.868 51.8056 75.9197 51.93C75.9713 52.0545 75.9976 52.188 75.9971 52.3227C75.9965 52.4574 75.9691 52.5907 75.9165 52.7147C75.8638 52.8387 75.787 52.951 75.6904 53.045C74.9851 53.7908 74.4721 54.6972 74.1959 55.6858C73.9196 56.6744 73.8884 57.7155 74.105 58.7189C74.17 58.9798 74.1287 59.2558 73.9902 59.4863C73.8517 59.7168 73.6273 59.8828 73.3664 59.9478C73.1055 60.0128 72.8294 59.9716 72.599 59.833C72.3685 59.6945 72.2025 59.4701 72.1375 59.2092C71.9936 58.6204 71.9218 58.0163 71.9239 57.4102Z" fill="black"/>
<path d="M71.9238 23.7197C71.9213 23.1116 71.993 22.5054 72.1374 21.9147C72.1696 21.7853 72.227 21.6635 72.3062 21.5563C72.3855 21.4491 72.4851 21.3585 72.5993 21.2898C72.7136 21.2211 72.8403 21.1755 72.9721 21.1557C73.104 21.136 73.2384 21.1424 73.3678 21.1746C73.4972 21.2068 73.619 21.2641 73.7262 21.3434C73.8334 21.4227 73.924 21.5223 73.9927 21.6365C74.0614 21.7508 74.107 21.8775 74.1267 22.0093C74.1465 22.1412 74.1401 22.2756 74.1079 22.405C73.8913 23.4084 73.9225 24.4495 74.1988 25.4381C74.475 26.4267 74.988 27.3331 75.6933 28.0789C75.7899 28.1729 75.8667 28.2852 75.9194 28.4092C75.972 28.5332 75.9994 28.6665 76 28.8012C76.0005 28.9359 75.9742 29.0694 75.9226 29.1939C75.871 29.3183 75.7951 29.4312 75.6993 29.526C75.6035 29.6208 75.4898 29.6955 75.3648 29.7458C75.2398 29.7962 75.1061 29.8211 74.9714 29.8191C74.8366 29.8171 74.7037 29.7883 74.5802 29.7344C74.4567 29.6804 74.3453 29.6024 74.2523 29.5049C72.7606 27.9479 71.9266 25.8759 71.9238 23.7197Z" fill="black"/>
<path d="M43.0012 46.8023C43.0011 46.6249 43.0478 46.4505 43.1366 46.2969C44.7461 43.5081 44.7461 37.6146 43.1366 34.8258C43.07 34.7105 43.0268 34.5831 43.0095 34.4511C42.9921 34.319 43.0009 34.1848 43.0354 34.0562C43.0699 33.9275 43.1295 33.807 43.2106 33.7013C43.2917 33.5957 43.3928 33.507 43.5081 33.4405C43.6235 33.3739 43.7508 33.3307 43.8829 33.3133C44.015 33.296 44.1491 33.3048 44.2778 33.3393C44.4064 33.3738 44.527 33.4333 44.6327 33.5144C44.7383 33.5955 44.8269 33.6966 44.8935 33.812C46.861 37.2175 46.861 43.9052 44.8935 47.3108C44.782 47.5044 44.6096 47.6557 44.4031 47.7412C44.1967 47.8268 43.9678 47.8417 43.752 47.7837C43.5362 47.7257 43.3456 47.5981 43.2098 47.4206C43.074 47.2431 43.0007 47.0258 43.0012 46.8023Z" fill="black"/>
<path d="M67.2656 43.1194C65.8432 42.2399 64.2361 41.7025 62.5708 41.5493C60.9055 41.3962 59.2273 41.6315 57.6683 42.2369C56.1094 42.8422 54.7122 43.8011 53.5866 45.0379C52.461 46.2748 51.6377 47.756 51.1816 49.3649C50.7255 50.9739 50.6489 52.6667 50.9579 54.3103C51.2668 55.9538 51.953 57.5033 52.9623 58.8367C53.9716 60.1702 55.2765 61.2513 56.7744 61.9949C58.2724 62.7386 59.9224 63.1245 61.5948 63.1224C61.9807 63.1219 62.3663 63.1008 62.75 63.0592C66.4594 56.0165 67.4401 48.7602 67.2807 43.1194L67.2656 43.1194Z" fill="white"/>
<path d="M67.2686 45.5053C66.2253 44.4749 64.9219 43.747 63.4974 43.3992C62.0729 43.0514 60.5808 43.0967 59.18 43.5302C57.7793 43.9638 56.5224 44.7694 55.5436 45.8612C54.5647 46.9529 53.9004 48.2899 53.6217 49.7295C53.3429 51.169 53.4601 52.6573 53.9607 54.0355C54.4613 55.4138 55.3266 56.6303 56.4642 57.5554C57.6019 58.4805 58.9693 59.0795 60.4207 59.2885C61.872 59.4976 63.3529 59.3088 64.7054 58.7423C65.8546 56.0769 67.1903 50.4993 67.2686 45.5053Z" fill="black"/>
<path d="M61.5385 44.7599C61.539 44.6079 61.5735 44.458 61.6395 44.3212C61.7055 44.1844 61.8013 44.064 61.9199 43.9691C62.0385 43.8742 62.1769 43.807 62.3249 43.7726C62.4728 43.7381 62.6266 43.7373 62.775 43.7701C64.1735 44.1169 65.4566 44.8243 66.4964 45.8218C66.5875 45.919 66.6585 46.0332 66.7054 46.1578C66.7524 46.2825 66.7743 46.4151 66.77 46.5482C66.7656 46.6814 66.7351 46.8123 66.6802 46.9336C66.6253 47.055 66.547 47.1643 66.4498 47.2553C66.3526 47.3464 66.2384 47.4174 66.1138 47.4644C65.9891 47.5113 65.8565 47.5332 65.7234 47.5289C65.5902 47.5246 65.4593 47.4941 65.338 47.4391C65.2166 47.3842 65.1073 47.3059 65.0163 47.2087C64.2534 46.5096 63.3311 46.0076 62.3297 45.7466C62.1055 45.6962 61.9051 45.571 61.7614 45.3918C61.6176 45.2125 61.5391 44.9897 61.5385 44.7599Z" fill="white"/>
<path d="M67.2656 38.003C65.8432 38.8825 64.2361 39.4199 62.5708 39.5731C60.9055 39.7262 59.2273 39.4908 57.6683 38.8855C56.1094 38.2801 54.7122 37.3213 53.5866 36.0845C52.461 34.8476 51.6377 33.3664 51.1816 31.7575C50.7255 30.1485 50.6489 28.4557 50.9579 26.8121C51.2668 25.1685 51.953 23.6191 52.9623 22.2856C53.9716 20.9522 55.2765 19.8711 56.7744 19.1275C58.2724 18.3838 59.9224 17.9979 61.5948 18C61.9807 18.0005 62.3663 18.0216 62.75 18.0632C66.4594 25.1059 67.4401 32.3622 67.2807 38.003L67.2656 38.003Z" fill="white"/>
<path d="M67.2686 35.6355C66.2253 36.6659 64.9219 37.3938 63.4974 37.7416C62.0729 38.0895 60.5808 38.0442 59.18 37.6106C57.7793 37.177 56.5224 36.3714 55.5436 35.2796C54.5647 34.1879 53.9004 32.851 53.6217 31.4114C53.3429 29.9718 53.4601 28.4835 53.9607 27.1053C54.4613 25.7271 55.3266 24.5105 56.4642 23.5854C57.6019 22.6603 58.9693 22.0613 60.4207 21.8523C61.872 21.6432 63.3529 21.832 64.7054 22.3985C65.8546 25.0489 67.1903 30.6295 67.2686 35.6355Z" fill="black"/>
<path d="M62.2998 23.6301C62.2991 23.3982 62.378 23.1729 62.5233 22.9921C62.6686 22.8112 62.8715 22.6857 63.0982 22.6364C63.3249 22.5871 63.5617 22.6171 63.7689 22.7213C63.9762 22.8255 64.1415 22.9976 64.2372 23.209C64.8569 24.5748 65.5278 27.1951 65.6872 27.9442C65.7439 28.2075 65.6936 28.4825 65.5475 28.7088C65.4014 28.935 65.1714 29.0939 64.9081 29.1506C64.6448 29.2072 64.3697 29.157 64.1435 29.0108C63.9173 28.8647 63.7583 28.6347 63.7017 28.3714C63.5362 27.6013 62.9014 25.1825 62.387 24.0483C62.3286 23.9167 62.2988 23.7742 62.2998 23.6301Z" fill="white"/>
</svg>
