<svg width="118" height="82" viewBox="0 0 118 82" fill="none" xmlns="http://www.w3.org/2000/svg">
<path d="M2.5 2.5H78C98.7107 2.5 115.5 19.2893 115.5 40V42C115.5 62.7107 98.7107 79.5 78 79.5H2.5V2.5Z" fill="#43D000" stroke="#7CFF45" stroke-width="5"/>
<path d="M46.6221 15.0972C46.6221 17.36 48.4564 19.1944 50.7192 19.1944C52.982 19.1944 54.8164 17.36 54.8164 15.0972C54.8164 12.8344 52.982 11 50.7192 11C48.4564 11 46.6221 12.8344 46.6221 15.0972Z" fill="#7CFF45"/>
<path d="M46.6221 67.9019C46.6221 70.1647 48.4564 71.999 50.7192 71.999C52.982 71.999 54.8164 70.1647 54.8164 67.9019C54.8164 65.6391 52.982 63.8047 50.7192 63.8047C48.4564 63.8047 46.6221 65.6391 46.6221 67.9019Z" fill="#7CFF45"/>
<path d="M72.8867 59.735C72.8867 54.6405 68.742 50.4961 63.6478 50.4961C58.5537 50.4961 54.4089 54.6407 54.4089 59.735C54.4089 64.8293 58.5537 68.9739 63.6478 68.9739C68.742 68.9739 72.8867 64.8295 72.8867 59.735Z" fill="black"/>
<path d="M72.8867 23.2627C72.8867 18.1682 68.742 14.0234 63.6478 14.0234C58.5537 14.0234 54.4089 18.1682 54.4089 23.2627C54.4089 28.3572 58.5537 32.5016 63.6478 32.5016C68.742 32.5016 72.8867 28.3568 72.8867 23.2627Z" fill="black"/>
<path d="M53.9424 51.1677C53.9424 50.3092 53.2464 49.6133 52.388 49.6133C50.5797 49.6133 49.1083 48.1419 49.1083 46.3338C49.1083 44.5256 50.5797 43.0542 52.388 43.0542C53.2464 43.0542 53.9424 42.3586 53.9424 41.4999C53.9424 40.6415 53.2464 39.9455 52.388 39.9455C50.5797 39.9455 49.1083 38.4741 49.1083 36.6658C49.1083 34.8575 50.5797 33.386 52.388 33.386C53.2464 33.386 53.9424 32.6901 53.9424 31.8317C53.9424 30.9733 53.2464 30.2773 52.388 30.2773C48.8654 30.2773 45.9998 33.1429 45.9998 36.6656C45.9998 38.595 46.8593 40.3272 48.2159 41.4995C46.8593 42.6718 45.9998 44.4042 45.9998 46.3333C45.9998 49.8556 48.8654 52.7214 52.388 52.7214C53.2466 52.722 53.9424 52.0264 53.9424 51.1677Z" fill="black"/>
<path d="M60.1286 28.9997C60.1286 29.8581 60.8245 30.554 61.683 30.554C62.5414 30.554 63.2373 29.8581 63.2373 28.9997C63.2373 28.1412 62.5414 27.4453 61.683 27.4453C60.8245 27.4453 60.1286 28.1412 60.1286 28.9997Z" fill="white"/>
<path d="M60.1286 66.0895C60.1286 66.9479 60.8245 67.6438 61.683 67.6438C62.5414 67.6438 63.2373 66.9479 63.2373 66.0895C63.2373 65.2311 62.5414 64.5352 61.683 64.5352C60.8245 64.5352 60.1286 65.2311 60.1286 66.0895Z" fill="white"/>
<path d="M57.2273 19.6012C57.2273 20.4597 57.9232 21.1556 58.7816 21.1556C59.64 21.1556 60.3359 20.4597 60.3359 19.6012C60.3359 18.7428 59.64 18.0469 58.7816 18.0469C57.9232 18.0469 57.2273 18.7428 57.2273 19.6012Z" fill="white"/>
<path d="M57.2273 56.695C57.2273 57.5534 57.9232 58.2493 58.7816 58.2493C59.64 58.2493 60.3359 57.5534 60.3359 56.695C60.3359 55.8365 59.64 55.1406 58.7816 55.1406C57.9232 55.1406 57.2273 55.8365 57.2273 56.695Z" fill="white"/>
<path d="M63.3221 62.2945C63.3221 64.1076 64.7919 65.5773 66.6049 65.5773C68.4179 65.5773 69.8877 64.1076 69.8877 62.2945C69.8877 60.4815 68.4179 59.0117 66.6049 59.0117C64.7919 59.0117 63.3221 60.4815 63.3221 62.2945Z" fill="white"/>
<path d="M63.3221 25.818C63.3221 27.631 64.7919 29.1008 66.6049 29.1008C68.4179 29.1008 69.8877 27.631 69.8877 25.818C69.8877 24.0049 68.4179 22.5352 66.6049 22.5352C64.7919 22.5352 63.3221 24.0049 63.3221 25.818Z" fill="white"/>
</svg>
