<svg width="24" height="24" viewBox="0 0 24 24" fill="none" xmlns="http://www.w3.org/2000/svg">
<g clip-path="url(#clip0_557_24453)">
<path d="M9.63 0L13.7262 11.9638L9.63 24C9.52875 24 9.4275 23.9784 9.33328 23.9344L0.406406 19.7077C0.158438 19.5923 0 19.3439 0 19.0702V2.36531C0 1.05891 1.06125 0 2.37 0L9.63 0Z" fill="#C4C4C4"/>
<path d="M21.6271 0C20.3207 0 21.6297 6.33281 21.6297 6.33281L19.2594 13.9419V19.0702C19.2594 19.3439 19.101 19.5923 18.853 19.7077L9.9266 23.9344C9.83238 23.9784 9.73113 24 9.62988 24V0L21.6271 0Z" fill="#A8A8A8"/>
<path d="M24 2.36766V13.2388C24 13.6271 23.6852 13.9419 23.2969 13.9419H19.2598V2.36513C19.2613 1.05858 20.3208 0 21.6274 0H21.6323C21.6398 0 21.6468 0 21.6542 0.000515625C22.9519 0.0119531 24 1.06753 24 2.36766Z" fill="#444444"/>
<path d="M9.06445 10.6348C9.06445 12.2012 8.83594 13.3516 8.37891 14.0859C7.92578 14.8164 7.22461 15.1816 6.27539 15.1816C5.31445 15.1816 4.60938 14.8086 4.16016 14.0625C3.71094 13.3164 3.48633 12.1777 3.48633 10.6465C3.48633 9.07227 3.71289 7.92188 4.16602 7.19531C4.62305 6.46484 5.32617 6.09961 6.27539 6.09961C7.23633 6.09961 7.94141 6.47656 8.39062 7.23047C8.83984 7.98438 9.06445 9.11914 9.06445 10.6348ZM7.56445 13.2949C7.67773 13.0059 7.75781 12.6406 7.80469 12.1992C7.85156 11.7578 7.875 11.2363 7.875 10.6348C7.875 10.0371 7.85156 9.51758 7.80469 9.07617C7.75781 8.63477 7.67578 8.26758 7.55859 7.97461C7.44141 7.67773 7.2793 7.45312 7.07227 7.30078C6.86914 7.14453 6.60352 7.06641 6.27539 7.06641C5.95117 7.06641 5.68359 7.14453 5.47266 7.30078C5.26562 7.45312 5.10156 7.68164 4.98047 7.98633C4.86328 8.2832 4.7832 8.6582 4.74023 9.11133C4.69727 9.56445 4.67578 10.0762 4.67578 10.6465C4.67578 11.2559 4.69336 11.7656 4.72852 12.1758C4.76758 12.5859 4.84961 12.9531 4.97461 13.2773C5.08789 13.5781 5.24805 13.8105 5.45508 13.9746C5.66602 14.1348 5.93945 14.2148 6.27539 14.2148C6.59961 14.2148 6.86523 14.1387 7.07227 13.9863C7.2832 13.8301 7.44727 13.5996 7.56445 13.2949ZM15.5742 15H10.1895V13.7754C10.5762 13.4082 10.9414 13.0566 11.2852 12.7207C11.6289 12.3848 11.9648 12.0352 12.293 11.6719C12.957 10.9414 13.4102 10.3574 13.6523 9.91992C13.8945 9.47852 14.0156 9.02344 14.0156 8.55469C14.0156 8.3125 13.9766 8.09961 13.8984 7.91602C13.8242 7.73242 13.7207 7.58008 13.5879 7.45898C13.4512 7.3418 13.293 7.25391 13.1133 7.19531C12.9336 7.13672 12.7363 7.10742 12.5215 7.10742C12.3145 7.10742 12.1035 7.13477 11.8887 7.18945C11.6777 7.24023 11.4746 7.30469 11.2793 7.38281C11.1152 7.44922 10.957 7.5293 10.8047 7.62305C10.6523 7.7168 10.5293 7.79688 10.4355 7.86328H10.3711V6.62109C10.6133 6.5 10.9492 6.38281 11.3789 6.26953C11.8125 6.15234 12.2227 6.09375 12.6094 6.09375C13.4219 6.09375 14.0586 6.31055 14.5195 6.74414C14.9805 7.17383 15.2109 7.75781 15.2109 8.49609C15.2109 8.83594 15.1699 9.15039 15.0879 9.43945C15.0098 9.72852 14.9004 9.99609 14.7598 10.2422C14.6152 10.4961 14.4414 10.748 14.2383 10.998C14.0352 11.248 13.8203 11.4941 13.5938 11.7363C13.2266 12.1348 12.8164 12.5488 12.3633 12.9785C11.9141 13.4082 11.5547 13.748 11.2852 13.998H15.5742V15Z" fill="white"/>
</g>
<defs>
<clipPath id="clip0_557_24453">
<rect width="24" height="24" fill="white"/>
</clipPath>
</defs>
</svg>
