<svg width="100" height="100" viewBox="0 0 100 100" fill="none" xmlns="http://www.w3.org/2000/svg">
<path d="M26.5 9.2968L97 50L26.5 90.7032L26.5 9.2968Z" fill="#FFDA8B" stroke="#FFBF46" stroke-width="3"/>
<path d="M60.3802 58.7848C60.3793 58.4 60.4252 58.0166 60.517 57.6429C60.5323 57.5557 60.5654 57.4726 60.6142 57.3987C60.663 57.3249 60.7265 57.2619 60.8008 57.2136C60.875 57.1654 60.9584 57.1329 61.0457 57.1183C61.133 57.1036 61.2224 57.1071 61.3083 57.1285C61.3942 57.1499 61.4748 57.1887 61.545 57.2426C61.6153 57.2965 61.6737 57.3642 61.7166 57.4416C61.7595 57.5191 61.7861 57.6045 61.7946 57.6926C61.8031 57.7807 61.7934 57.8696 61.766 57.9538C61.4654 59.1694 61.8783 60.652 62.7725 61.5552C62.8405 61.6132 62.8957 61.6847 62.9346 61.7652C62.9736 61.8456 62.9953 61.9333 62.9986 62.0226C63.0019 62.1119 62.9865 62.201 62.9536 62.284C62.9206 62.3671 62.8707 62.4424 62.8071 62.5052C62.7435 62.568 62.6676 62.6169 62.5841 62.6488C62.5006 62.6807 62.4114 62.6949 62.3221 62.6905C62.2328 62.6861 62.1455 62.6632 62.0655 62.6233C61.9855 62.5833 61.9148 62.5272 61.8576 62.4585C60.9106 61.4698 60.3814 60.1539 60.3802 58.7848Z" fill="black"/>
<path d="M60.3802 41.8739C60.3797 40.5025 60.9091 39.1841 61.8576 38.1938C61.9148 38.125 61.9855 38.0689 62.0655 38.029C62.1455 37.989 62.2328 37.9661 62.3221 37.9617C62.4114 37.9573 62.5006 37.9715 62.5841 38.0034C62.6676 38.0353 62.7435 38.0842 62.8071 38.147C62.8707 38.2098 62.9206 38.2851 62.9536 38.3682C62.9865 38.4513 63.0019 38.5403 62.9986 38.6296C62.9953 38.7189 62.9736 38.8066 62.9346 38.8871C62.8957 38.9675 62.8405 39.039 62.7725 39.097C61.8783 40.0003 61.4641 41.4816 61.766 42.6984C61.7934 42.7826 61.8031 42.8715 61.7946 42.9596C61.7861 43.0478 61.7595 43.1332 61.7166 43.2106C61.6737 43.288 61.6153 43.3558 61.545 43.4097C61.4748 43.4635 61.3942 43.5024 61.3083 43.5238C61.2224 43.5451 61.133 43.5486 61.0457 43.534C60.9584 43.5193 60.875 43.4869 60.8008 43.4386C60.7265 43.3904 60.663 43.3274 60.6142 43.2535C60.5654 43.1797 60.5323 43.0966 60.517 43.0094C60.4257 42.6378 60.3798 42.2565 60.3802 41.8739Z" fill="black"/>
<path d="M42.0201 54.2911C42.0203 54.1783 42.0501 54.0675 42.1065 53.9698C43.1285 52.2007 43.1285 48.4574 42.1065 46.6883C42.0581 46.6149 42.0251 46.5324 42.0097 46.4459C41.9942 46.3593 41.9967 46.2705 42.0168 46.1849C42.037 46.0993 42.0744 46.0187 42.1268 45.9481C42.1793 45.8775 42.2456 45.8183 42.3217 45.7743C42.3978 45.7302 42.4821 45.7022 42.5695 45.6919C42.6568 45.6816 42.7453 45.6893 42.8296 45.7145C42.9138 45.7397 42.9921 45.7818 43.0594 45.8383C43.1268 45.8949 43.1819 45.9646 43.2214 46.0431C44.4705 48.2058 44.4705 52.4498 43.2214 54.6124C43.1498 54.7341 43.0403 54.829 42.9096 54.8825C42.7789 54.936 42.6343 54.9451 42.4979 54.9085C42.3615 54.8718 42.241 54.7915 42.1546 54.6797C42.0683 54.568 42.0211 54.431 42.0201 54.2898L42.0201 54.2911Z" fill="black"/>
<path d="M53.9257 50.9297C53.8887 50.9297 53.8517 50.9297 53.8147 50.9297C51.9941 50.9297 50.2481 51.6529 48.9607 52.9403C47.6733 54.2277 46.9501 55.9737 46.9501 57.7944C46.9501 59.615 47.6733 61.3611 48.9607 62.6484C50.2481 63.9358 51.9941 64.6591 53.8147 64.6591C55.0916 64.6577 56.3428 64.3002 57.4277 63.6268C57.3684 58.3015 55.6032 53.4949 53.9193 50.9336L53.9257 50.9297Z" fill="white"/>
<path d="M53.8153 62.262C52.4654 62.2406 51.1781 61.6894 50.2311 60.7273C49.2841 59.7651 48.7534 58.4693 48.7534 57.1193C48.7534 55.7693 49.2841 54.4734 50.2311 53.5113C51.1781 52.5492 52.4654 51.9979 53.8153 51.9766C54.0062 51.9766 54.5172 52.0282 54.5804 52.0385C55.8114 54.1289 56.9947 57.9109 57.2695 60.929C56.3236 61.787 55.0923 62.2621 53.8153 62.262Z" fill="black"/>
<path d="M53.1992 52.9694C53.2001 52.8277 53.2475 52.6903 53.3343 52.5782C53.4211 52.4662 53.5423 52.3859 53.6793 52.3496C53.8162 52.3133 53.9613 52.3232 54.0922 52.3776C54.223 52.432 54.3323 52.528 54.4031 52.6507C54.921 53.6087 55.3633 54.6058 55.7257 55.6327C55.7611 55.7132 55.7797 55.8001 55.7803 55.888C55.7808 55.976 55.7635 56.0631 55.7291 56.1441C55.6948 56.225 55.6443 56.2981 55.5807 56.3589C55.5172 56.4196 55.4418 56.4667 55.3594 56.4973C55.2769 56.5279 55.1891 56.5413 55.1013 56.5366C55.0134 56.532 54.9275 56.5095 54.8487 56.4705C54.7699 56.4314 54.6999 56.3767 54.643 56.3096C54.5862 56.2426 54.5436 56.1646 54.518 56.0805C54.1791 55.1188 53.7663 54.1848 53.2831 53.2869C53.2282 53.19 53.1993 53.0807 53.1992 52.9694Z" fill="white"/>
<path d="M53.9257 49.7294C53.8887 49.7294 53.8517 49.7294 53.8147 49.7294C51.9941 49.7294 50.2481 49.0061 48.9607 47.7188C47.6733 46.4314 46.9501 44.6853 46.9501 42.8647C46.9501 41.0441 47.6733 39.298 48.9607 38.0106C50.2481 36.7232 51.9941 36 53.8147 36C55.0916 36.0014 56.3428 36.3589 57.4277 37.0323C57.3684 42.3576 55.6032 47.1641 53.9193 49.7255L53.9257 49.7294Z" fill="white"/>
<path d="M53.8153 38.3906C52.4654 38.412 51.1781 38.9632 50.2311 39.9253C49.2841 40.8875 48.7534 42.1833 48.7534 43.5333C48.7534 44.8833 49.2841 46.1792 50.2311 47.1413C51.1781 48.1034 52.4654 48.6547 53.8153 48.676C54.0062 48.676 54.5172 48.6244 54.5804 48.6141C55.8114 46.5237 56.9947 42.7417 57.2695 39.7236C56.3236 38.8656 55.0923 38.3905 53.8153 38.3906Z" fill="black"/>
<path d="M53.6017 39.4301C53.6023 39.3361 53.6234 39.2434 53.6636 39.1584C53.7037 39.0735 53.762 38.9983 53.8343 38.9382C53.9066 38.8781 53.9911 38.8345 54.082 38.8105C54.1728 38.7865 54.2679 38.7826 54.3604 38.7991C55.2677 38.9647 56.1143 39.3702 56.8121 39.9734C56.9308 40.0877 57.0013 40.2431 57.0091 40.4078C57.0168 40.5725 56.9612 40.7338 56.8538 40.8588C56.7463 40.9838 56.595 41.0629 56.4311 41.0799C56.2671 41.0969 56.1029 41.0505 55.972 40.9502C55.4483 40.4965 54.8124 40.1917 54.1307 40.0676C53.9817 40.0403 53.8471 39.9615 53.7504 39.845C53.6536 39.7284 53.601 39.5816 53.6017 39.4301Z" fill="white"/>
</svg>
