<svg width="100" height="100" viewBox="0 0 100 100" fill="none" xmlns="http://www.w3.org/2000/svg">
<path d="M26.5 9.2968L97 50L26.5 90.7032L26.5 9.2968Z" fill="#FFDA8B" stroke="#FFBF46" stroke-width="3"/>
<path d="M41.7554 31.2268C41.7554 32.8665 43.0847 34.1957 44.7244 34.1957C46.3641 34.1957 47.6934 32.8665 47.6934 31.2268C47.6934 29.5871 46.3641 28.2578 44.7244 28.2578C43.0847 28.2578 41.7554 29.5871 41.7554 31.2268Z" fill="#FFC950"/>
<path d="M41.7554 69.4924C41.7554 71.1321 43.0847 72.4614 44.7244 72.4614C46.3641 72.4614 47.6934 71.1321 47.6934 69.4924C47.6934 67.8527 46.3641 66.5234 44.7244 66.5234C43.0847 66.5234 41.7554 67.8527 41.7554 69.4924Z" fill="#FFC950"/>
<path d="M47.0605 57.3645C47.0605 56.7424 46.5562 56.2382 45.9342 56.2382C44.6238 56.2382 43.5576 55.1719 43.5576 53.8617C43.5576 52.5514 44.6238 51.4852 45.9342 51.4852C46.5562 51.4852 47.0605 50.9811 47.0605 50.3588C47.0605 49.7368 46.5562 49.2325 45.9342 49.2325C44.6238 49.2325 43.5576 48.1662 43.5576 46.8559C43.5576 45.5455 44.6238 44.4792 45.9342 44.4792C46.5562 44.4792 47.0605 43.9749 47.0605 43.3529C47.0605 42.7309 46.5562 42.2266 45.9342 42.2266C43.3816 42.2266 41.305 44.3031 41.305 46.8557C41.305 48.2539 41.9279 49.5091 42.911 50.3586C41.9279 51.2081 41.305 52.4634 41.305 53.8613C41.305 56.4137 43.3816 58.4903 45.9342 58.4903C46.5563 58.4908 47.0605 57.9868 47.0605 57.3645Z" fill="black"/>
<path d="M44.8978 41.8705C44.8978 46.9874 49.0458 51.1354 54.1627 51.1354C59.2797 51.1354 63.4277 46.9874 63.4277 41.8705C63.4277 36.7535 59.2797 32.6055 54.1627 32.6055C49.0458 32.6055 44.8978 36.7535 44.8978 41.8705Z" fill="white"/>
<path d="M50.3657 42.3909C50.3657 44.488 52.0657 46.188 54.1628 46.188C56.2599 46.188 57.96 44.488 57.96 42.3909C57.96 40.2938 56.2599 38.5937 54.1628 38.5937C52.0657 38.5937 50.3657 40.2938 50.3657 42.3909Z" fill="#333333"/>
<path d="M44.8978 60.4017C44.8978 65.5186 49.0458 69.6667 54.1627 69.6667C59.2797 69.6667 63.4277 65.5186 63.4277 60.4017C63.4277 55.2848 59.2797 51.1367 54.1627 51.1367C49.0458 51.1367 44.8978 55.2848 44.8978 60.4017Z" fill="white"/>
<path d="M49.8979 60.8753C49.8979 62.9723 51.598 64.6724 53.6951 64.6724C55.7922 64.6724 57.4922 62.9723 57.4922 60.8753C57.4922 58.7782 55.7922 57.0781 53.6951 57.0781C51.598 57.0781 49.8979 58.7782 49.8979 60.8753Z" fill="#333333"/>
</svg>
