<svg width="33" height="32" viewBox="0 0 33 32" fill="none" xmlns="http://www.w3.org/2000/svg">
<path d="M4.10853 23.6509L4.10815 22.0672C4.10815 21.7096 4.35346 21.4095 4.68456 21.3249C5.0459 21.1914 7.56621 20.0934 8.06853 15.2686C8.61432 10.03 9.35098 5.30344 15.7345 4.95193V2.52574C15.7345 1.51693 17.2668 1.51693 17.2668 2.52574V4.95193C23.695 5.30571 24.3969 10.1245 24.9328 15.2686C25.4733 20.4616 28.3519 21.3373 28.3603 21.34C28.6846 21.4439 28.8909 21.7444 28.8909 22.0672H28.8932V23.6509C28.8932 23.9518 28.7197 24.2118 28.4672 24.3373C26.9277 25.2021 24.3458 25.7849 21.409 26.0862C20.5068 31.6771 12.4742 31.5478 11.5924 26.0865C8.63057 25.7826 6.029 25.1923 4.49444 24.3154C4.24763 24.174 4.10929 23.9162 4.10853 23.6509ZM16.5007 9.73364C15.4919 9.73364 15.4919 8.20134 16.5007 8.20134C21.3455 8.20134 21.9472 11.5324 22.3328 15.2686C22.4359 16.2684 20.9158 16.4264 20.8122 15.4244C20.4868 12.2717 20.2509 9.73364 16.5007 9.73364ZM19.817 26.22C17.6437 26.364 15.3577 26.364 13.1844 26.22C14.1138 29.5514 18.8876 29.5514 19.817 26.22ZM5.64082 22.5574V23.1875C10.1341 25.3321 22.8672 25.3321 27.3605 23.1875V22.5574C26.2837 21.981 23.9085 20.1879 23.4122 15.4244C22.9024 10.5296 22.473 6.46381 16.5007 6.46381C10.5148 6.46381 10.0952 10.5659 9.58911 15.4244C9.09283 20.1879 6.71766 21.981 5.64082 22.5574Z" fill="white"/>
</svg>
