<svg width="118" height="82" viewBox="0 0 118 82" fill="none" xmlns="http://www.w3.org/2000/svg">
<path d="M4.02279 2.5H78C98.7107 2.5 115.5 19.2893 115.5 40V42C115.5 62.7107 98.7107 79.5 78 79.5H3.97999L22.2521 41.5854L22.7816 40.4866L22.2416 39.393L4.02279 2.5Z" fill="#4ECDC4" stroke="#20978F" stroke-width="5"/>
<path d="M75.2701 17.0748C75.481 19.1921 75.5629 21.2008 76.2543 23.244C77.2784 26.2701 79.3776 28.5671 81.6594 30.7242C82.0974 31.1399 82.1153 31.832 81.6995 32.2699C81.3797 32.6068 80.8941 32.694 80.4887 32.5275C74.3179 29.9752 70.9887 23.0694 73.1413 16.7404C73.3354 16.1696 73.9555 15.8642 74.5262 16.0585C74.9439 16.2006 75.2193 16.5707 75.2611 16.9826L75.2701 17.0748Z" fill="#333333"/>
<path d="M73.141 64.7337C70.9878 58.403 74.3173 51.4988 80.4884 48.9466C81.0464 48.7158 81.6858 48.981 81.9167 49.5391C82.0943 49.9684 81.9782 50.4458 81.6611 50.7484C79.2777 52.9984 77.131 55.3957 76.1439 58.5879C75.538 60.5475 75.4734 62.4729 75.2606 64.4905C75.2009 65.0905 74.6661 65.5283 74.0661 65.4684C73.6271 65.4246 73.2749 65.1255 73.141 64.7337Z" fill="#333333"/>
<path d="M51.2083 27.2064C51.2083 32.3233 55.3564 36.4714 60.4733 36.4714C65.5902 36.4714 69.7383 32.3233 69.7383 27.2064C69.7383 22.0895 65.5902 17.9414 60.4733 17.9414C55.3564 17.9414 51.2083 22.0895 51.2083 27.2064Z" fill="white"/>
<path d="M56.6763 28.7268C56.6763 30.8239 58.3763 32.5239 60.4734 32.5239C62.5705 32.5239 64.2705 30.8239 64.2705 28.7268C64.2705 26.6297 62.5705 24.9297 60.4734 24.9297C58.3763 24.9297 56.6763 26.6297 56.6763 28.7268Z" fill="#333333"/>
<path d="M51.2083 54.2845C51.2083 59.4014 55.3564 63.5495 60.4733 63.5495C65.5902 63.5495 69.7383 59.4014 69.7383 54.2845C69.7383 49.1676 65.5902 45.0195 60.4733 45.0195C55.3564 45.0195 51.2083 49.1676 51.2083 54.2845Z" fill="white"/>
<path d="M56.6763 52.7581C56.6763 54.8552 58.3763 56.5552 60.4734 56.5552C62.5705 56.5552 64.2705 54.8552 64.2705 52.7581C64.2705 50.661 62.5705 48.9609 60.4734 48.9609C58.3763 48.9609 56.6763 50.661 56.6763 52.7581Z" fill="#333333"/>
<path d="M43.7496 51.311C46.9608 48.948 49.0283 45.1481 49.0283 40.8632C49.0283 36.5775 46.9282 32.7771 43.6904 30.4141C42.6813 29.6776 41.5442 29.4021 40.4578 29.4934C37.4924 29.7426 35.4987 32.6738 36.2752 35.5465C37.2489 39.1482 37.1733 42.9437 36.0972 46.924C36.0004 47.2824 35.9745 47.6574 36.0248 48.0252C36.5127 51.5953 40.7212 53.5395 43.7496 51.311Z" fill="url(#paint0_linear_1309_205439)"/>
<path d="M49.0283 40.8593C49.0283 37.4089 47.6663 34.2736 45.446 31.9492L45.446 49.8146C47.6701 47.4856 49.0283 44.3318 49.0283 40.8593Z" fill="white"/>
<defs>
<linearGradient id="paint0_linear_1309_205439" x1="42.5142" y1="29.4765" x2="42.5142" y2="52.2592" gradientUnits="userSpaceOnUse">
<stop stop-color="#B23A00"/>
<stop offset="1" stop-color="#332A22"/>
</linearGradient>
</defs>
</svg>
