<svg width="118" height="82" viewBox="0 0 118 82" fill="none" xmlns="http://www.w3.org/2000/svg">
<path d="M4.02279 2.5H78C98.7107 2.5 115.5 19.2893 115.5 40V42C115.5 62.7107 98.7107 79.5 78 79.5H3.97999L22.2521 41.5854L22.7816 40.4866L22.2416 39.393L4.02279 2.5Z" fill="#4ECDC4" stroke="#20978F" stroke-width="5"/>
<path d="M53.6221 15.0972C53.6221 17.36 55.4564 19.1944 57.7192 19.1944C59.982 19.1944 61.8164 17.36 61.8164 15.0972C61.8164 12.8344 59.982 11 57.7192 11C55.4564 11 53.6221 12.8344 53.6221 15.0972Z" fill="#2C9F97"/>
<path d="M53.6221 67.9019C53.6221 70.1647 55.4564 71.999 57.7192 71.999C59.982 71.999 61.8164 70.1647 61.8164 67.9019C61.8164 65.6391 59.982 63.8047 57.7192 63.8047C55.4564 63.8047 53.6221 65.6391 53.6221 67.9019Z" fill="#2C9F97"/>
<path d="M60.9434 51.1677C60.9434 50.3092 60.2474 49.6133 59.389 49.6133C57.5807 49.6133 56.1093 48.1419 56.1093 46.3338C56.1093 44.5256 57.5807 43.0542 59.389 43.0542C60.2474 43.0542 60.9434 42.3586 60.9434 41.4999C60.9434 40.6415 60.2474 39.9455 59.389 39.9455C57.5807 39.9455 56.1093 38.4741 56.1093 36.6658C56.1093 34.8575 57.5807 33.386 59.389 33.386C60.2474 33.386 60.9434 32.6901 60.9434 31.8317C60.9434 30.9733 60.2474 30.2773 59.389 30.2773C55.8664 30.2773 53.0008 33.1429 53.0008 36.6656C53.0008 38.595 53.8603 40.3272 55.2169 41.4995C53.8603 42.6718 53.0008 44.4042 53.0008 46.3333C53.0008 49.8556 55.8664 52.7214 59.389 52.7214C60.2476 52.722 60.9434 52.0264 60.9434 51.1677Z" fill="black"/>
<path d="M65.0003 26.265C65.0003 31.3819 69.1484 35.53 74.2653 35.53C79.3822 35.53 83.5303 31.3819 83.5303 26.265C83.5303 21.1481 79.3822 17 74.2653 17C69.1484 17 65.0003 21.1481 65.0003 26.265Z" fill="white"/>
<path d="M70.4682 26.7854C70.4682 28.8825 72.1683 30.5825 74.2654 30.5825C76.3625 30.5825 78.0625 28.8825 78.0625 26.7854C78.0625 24.6883 76.3625 22.9883 74.2654 22.9883C72.1683 22.9883 70.4682 24.6883 70.4682 26.7854Z" fill="#333333"/>
<path d="M65.0003 52.3236C65.0003 57.4405 69.1484 61.5886 74.2653 61.5886C79.3822 61.5886 83.5303 57.4405 83.5303 52.3236C83.5303 47.2067 79.3822 43.0586 74.2653 43.0586C69.1484 43.0586 65.0003 47.2067 65.0003 52.3236Z" fill="white"/>
<path d="M70.0005 52.7971C70.0005 54.8942 71.7005 56.5943 73.7976 56.5943C75.8947 56.5943 77.5947 54.8942 77.5947 52.7971C77.5947 50.7 75.8947 49 73.7976 49C71.7005 49 70.0005 50.7 70.0005 52.7971Z" fill="#333333"/>
</svg>
