<svg width="147" height="93" viewBox="0 0 147 93" fill="none" xmlns="http://www.w3.org/2000/svg">
<line x1="103" y1="8" x2="8" y2="8" stroke="#4ECDC4" stroke-width="4"/>
<circle cx="7.5" cy="7.5" r="6" transform="rotate(-180 7.5 7.5)" fill="#FF0000" stroke="#FF0000" stroke-width="3"/>
<line x1="103" y1="86" x2="8" y2="86" stroke="#4ECDC4" stroke-width="4"/>
<circle cx="7.5" cy="85.5" r="6" transform="rotate(-180 7.5 85.5)" fill="#FF0000" stroke="#FF0000" stroke-width="3"/>
<path d="M33.0228 8.5H107C127.711 8.5 144.5 25.2893 144.5 46V48C144.5 68.7107 127.711 85.5 107 85.5H32.98L51.2521 47.5854L51.7816 46.4866L51.2416 45.393L33.0228 8.5Z" fill="#4ECDC4" stroke="#20978F" stroke-width="5"/>
<path d="M104.27 23.0748C104.481 25.1921 104.563 27.2008 105.254 29.244C106.278 32.2701 108.378 34.5671 110.659 36.7242C111.097 37.1399 111.115 37.832 110.7 38.2699C110.38 38.6068 109.894 38.694 109.489 38.5275C103.318 35.9752 99.9887 29.0694 102.141 22.7404C102.335 22.1696 102.955 21.8642 103.526 22.0585C103.944 22.2006 104.219 22.5707 104.261 22.9826L104.27 23.0748Z" fill="#333333"/>
<path d="M102.141 70.7337C99.9878 64.403 103.317 57.4988 109.488 54.9466C110.046 54.7158 110.686 54.981 110.917 55.5391C111.094 55.9684 110.978 56.4458 110.661 56.7484C108.278 58.9984 106.131 61.3957 105.144 64.5879C104.538 66.5475 104.473 68.4729 104.261 70.4905C104.201 71.0905 103.666 71.5283 103.066 71.4684C102.627 71.4246 102.275 71.1255 102.141 70.7337Z" fill="#333333"/>
<path d="M80.2083 33.2064C80.2083 38.3233 84.3564 42.4714 89.4733 42.4714C94.5902 42.4714 98.7383 38.3233 98.7383 33.2064C98.7383 28.0895 94.5902 23.9414 89.4733 23.9414C84.3564 23.9414 80.2083 28.0895 80.2083 33.2064Z" fill="white"/>
<path d="M85.6763 34.7268C85.6763 36.8239 87.3763 38.5239 89.4734 38.5239C91.5705 38.5239 93.2705 36.8239 93.2705 34.7268C93.2705 32.6297 91.5705 30.9297 89.4734 30.9297C87.3763 30.9297 85.6763 32.6297 85.6763 34.7268Z" fill="#333333"/>
<path d="M80.2083 60.2845C80.2083 65.4014 84.3564 69.5495 89.4733 69.5495C94.5902 69.5495 98.7383 65.4014 98.7383 60.2845C98.7383 55.1676 94.5902 51.0195 89.4733 51.0195C84.3564 51.0195 80.2083 55.1676 80.2083 60.2845Z" fill="white"/>
<path d="M85.6763 58.7581C85.6763 60.8552 87.3763 62.5552 89.4734 62.5552C91.5705 62.5552 93.2705 60.8552 93.2705 58.7581C93.2705 56.661 91.5705 54.9609 89.4734 54.9609C87.3763 54.9609 85.6763 56.661 85.6763 58.7581Z" fill="#333333"/>
<path d="M72.7496 57.311C75.9608 54.948 78.0283 51.1481 78.0283 46.8632C78.0283 42.5775 75.9282 38.7771 72.6904 36.4141C71.6813 35.6776 70.5442 35.4021 69.4578 35.4934C66.4924 35.7426 64.4987 38.6738 65.2752 41.5465C66.2489 45.1482 66.1733 48.9437 65.0972 52.924C65.0004 53.2824 64.9745 53.6574 65.0248 54.0252C65.5127 57.5953 69.7212 59.5395 72.7496 57.311Z" fill="url(#paint0_linear_918_261901)"/>
<path d="M78.0283 46.8593C78.0283 43.4089 76.6663 40.2736 74.446 37.9492L74.446 55.8146C76.6701 53.4856 78.0283 50.3318 78.0283 46.8593Z" fill="white"/>
<defs>
<linearGradient id="paint0_linear_918_261901" x1="71.5142" y1="35.4765" x2="71.5142" y2="58.2592" gradientUnits="userSpaceOnUse">
<stop stop-color="#B23A00"/>
<stop offset="1" stop-color="#332A22"/>
</linearGradient>
</defs>
</svg>
