<svg width="32" height="32" viewBox="0 0 32 32" fill="none" xmlns="http://www.w3.org/2000/svg">
<path d="M2.42753 24.3557C2.85177 24.601 3.28668 24.8245 3.7302 25.0257C3.30282 26.2376 3.46109 27.2587 4.20572 28.0708C5.06626 29.0203 6.41339 29.1471 7.54967 28.5651C7.74089 28.8927 7.94433 29.214 8.16038 29.527C10.0758 32.8232 14.8602 32.7973 15.7707 28.6369C16.0883 26.9527 15.2936 25.6075 15.2326 24.0957C16.2919 23.277 17.3366 22.4796 18.4021 21.6543C19.1399 22.4502 19.8661 23.2822 20.5714 24.1403C21.8181 25.7275 23.3675 28.0209 25.4058 28.2489C27.6 28.649 30.0084 26.6973 29.8287 24.4266C29.7855 23.6431 29.5692 22.9168 29.3523 22.2622C29.9061 21.8464 30.3857 21.4233 30.8223 20.9658C31.1623 20.6152 31.6759 20.0852 31.8947 19.3167C32.3584 17.6119 31.2147 15.8447 29.9432 14.699C29.1937 14.0808 28.1875 13.5215 27.0697 13.3155C28.2967 11.3743 29.1529 9.03669 28.9272 6.83184C28.2524 0.374581 21.2015 0.408019 16.9769 4.05367C16.0769 1.65587 13.5078 -0.457094 10.8753 0.0860162C9.29581 0.686051 8.91549 1.63117 8.05392 2.82263C7.24062 2.67365 6.43894 2.50346 5.64003 2.48665C3.62809 2.42062 2.0166 4.26954 1.92292 6.11339C1.77635 8.69362 4.08505 10.0784 5.46459 10.9059C6.88752 11.7692 8.27315 12.732 9.49527 13.6384C9.39774 13.7976 7.7066 16.5573 7.7066 16.5573C7.59158 16.7443 7.50086 16.8838 7.43538 16.9746C6.96739 16.9846 6.49936 16.9229 5.96866 16.8573C5.11054 16.7568 4.16668 16.6067 3.29054 16.7765C-0.714055 17.6393 -1.1374 22.4928 2.42753 24.3557Z" fill="white"/>
<path d="M3.28568 22.8699C4.0897 23.3345 4.95777 23.7219 5.8465 24.0055C5.83843 24.1205 5.83162 24.3175 5.87747 24.5572C5.82216 24.6474 5.76192 24.7338 5.70939 24.8258C5.36919 25.4206 4.90891 26.2995 5.46968 26.911C5.99056 27.4796 6.75025 27.1038 7.26817 26.7391C7.46373 26.6018 7.65373 26.4567 7.84248 26.3098C7.99465 26.3317 8.18322 26.2946 8.31257 26.2785C8.65627 27.0763 9.07997 27.8383 9.57248 28.5532C10.0132 29.1933 10.5164 29.7877 11.2678 30.0689C12.0978 30.3795 13.0786 30.1147 13.6023 29.4031C13.8383 29.0818 14.0102 28.6915 14.0881 28.3003C14.1818 27.8309 14.0957 27.357 14.0111 26.8916C13.8365 25.9286 13.525 24.9847 13.4783 24.0121C13.4464 23.3482 13.6406 23.1579 14.183 22.738C15.6444 21.6078 17.1175 20.4895 18.57 19.3464C19.7345 20.53 20.8416 21.7675 21.8959 23.0504C22.4925 23.7763 23.0424 24.5481 23.6601 25.2551C24.1834 25.854 24.8731 26.424 25.6802 26.5551C26.8505 26.7451 28.1836 25.7609 28.1153 24.5197C28.0707 23.7063 27.7384 22.87 27.4901 22.1005C27.4337 21.9253 27.3705 21.7525 27.3112 21.5781C28.111 21.08 28.885 20.5024 29.5395 19.8237C29.8051 19.5483 30.1369 19.2235 30.2447 18.8452C30.3342 18.5312 30.2787 18.1865 30.1644 17.8869C29.8888 17.1641 29.3952 16.4967 28.815 15.9903C28.4904 15.7071 28.083 15.4863 27.6925 15.3058C27.3392 15.1424 26.9669 15.0009 26.5733 14.9866C26.1444 14.9707 25.828 15.1613 25.5324 15.4553C25.3203 15.6663 25.1255 15.8962 24.9429 16.1352C24.6511 15.5778 24.351 15.0248 24.0399 14.4773C25.2896 13.0664 26.3297 11.4894 26.8999 9.67517C27.1687 8.81951 27.3103 7.89819 27.2202 7.00211C27.1423 6.22471 26.9408 5.24705 26.3924 4.65665C25.8514 4.07414 25.2853 3.64918 24.51 3.44435C23.6605 3.2197 22.7712 3.23072 21.9157 3.41494C20.1824 3.78858 18.64 4.84033 17.3271 5.99258C16.8801 6.38459 16.4557 6.80287 16.0477 7.23657C15.5724 7.02945 15.0931 6.82932 14.6109 6.63412C14.8041 6.44169 14.9875 6.23982 15.1551 6.02288C15.3645 5.7522 15.4925 5.47555 15.4668 5.12468C15.4382 4.73581 15.2754 4.36795 15.0818 4.03425C14.8655 3.66061 14.599 3.26403 14.2935 2.9587C13.7626 2.42818 13.0502 2.01497 12.3355 1.79278C12.0214 1.69525 11.6651 1.6438 11.3435 1.73519C10.9933 1.83465 10.7347 2.12142 10.5004 2.38408C9.86768 3.09334 9.35801 3.91852 8.93515 4.77158C8.00509 4.5485 7.06611 4.36432 6.11642 4.23617C5.54494 4.1593 4.98238 4.18311 4.5247 4.56602C4.02466 4.98466 3.67272 5.54476 3.63489 6.20992C3.53301 8.0042 5.65731 8.97926 6.91022 9.77906C8.58406 10.8474 10.2116 11.985 11.765 13.2227C11.248 14.0548 10.7388 14.8923 10.2271 15.7266C9.87409 16.3024 9.52058 16.878 9.16796 17.4534C8.72063 18.1827 8.39531 18.6235 7.75709 18.6741C6.89216 18.7421 6.01445 18.5785 5.15548 18.4868C4.65226 18.4332 4.11197 18.366 3.61001 18.4607C3.21468 18.5358 2.83033 18.7326 2.51115 18.973C1.80852 19.5028 1.51157 20.3951 1.79731 21.2451C2.04186 21.9734 2.63889 22.4957 3.28568 22.8699Z" fill="#68182B"/>
<path d="M7.42451 25.4478C7.22963 25.6059 7.00973 25.7874 6.77755 25.9459C6.05233 26.4407 5.86273 26.5571 6.3668 25.5913C6.58723 25.1688 6.84425 24.7662 7.11721 24.3757C7.71532 23.5213 8.37819 22.676 9.14788 21.9685C9.50718 21.6384 9.76347 21.4785 9.99269 21.3949C10.4581 21.2259 10.661 21.3805 10.5756 21.8278C10.5286 22.0738 10.3872 22.3076 10.1182 22.6966C9.99533 22.8754 9.85948 23.0436 9.71941 23.2088C9.35837 23.6339 8.96953 24.0361 8.56891 24.424C8.20101 24.7797 7.82231 25.1256 7.42451 25.4478Z" fill="#00EBED"/>
<path d="M13.1329 28.2367C13.0415 28.5576 12.8596 28.9697 12.5455 29.1292C11.7935 29.5113 11.0504 28.9708 10.609 28.3855C10.0783 27.6822 9.61192 26.8962 9.25195 26.0848C9.86001 25.9069 10.4418 25.6319 10.933 25.2546C11.3117 24.9636 11.689 24.671 12.0665 24.3786C12.4562 24.0763 12.5219 24.1472 12.58 24.5971C12.6761 25.3402 12.8794 26.0742 13.0333 26.8066C13.1303 27.2679 13.2654 27.7716 13.1329 28.2367Z" fill="#E5E5E5"/>
<path d="M26.2132 16.1146C26.4074 15.9204 26.462 15.9092 26.7099 15.9469C27.1904 16.0204 27.7681 16.3711 28.1076 16.6255C28.5683 16.9708 28.9262 17.4876 29.1841 17.9944C29.3415 18.3039 29.3848 18.544 29.2422 18.7336C29.1991 18.7908 29.1519 18.8453 29.1049 18.8999C28.4226 17.7086 27.3086 16.8393 26.0723 16.2598C26.1164 16.2133 26.1659 16.1622 26.2132 16.1146Z" fill="#00EBED"/>
<path d="M26.1583 16.9284C27.0015 17.3693 27.7614 17.9705 28.3202 18.7342C28.7084 19.2646 28.7063 19.3492 28.1854 19.7876C27.8069 20.1064 27.404 20.3969 26.9876 20.6639C26.8747 20.3608 26.7612 20.0579 26.6399 19.7582C26.2717 18.8496 25.8639 17.9593 25.4297 17.0825C25.7023 16.6863 25.8948 16.7904 26.1583 16.9284Z" fill="#FF2E60"/>
<path d="M26.873 23.3137C27.0032 23.7601 27.3215 24.5342 27.1121 24.9101C26.8775 25.3313 26.4263 25.6882 25.9214 25.6383C25.1972 25.5672 24.6003 24.93 24.1698 24.3978C23.6437 23.7471 23.1375 23.0811 22.6068 22.4343C21.7193 21.3523 20.7945 20.3028 19.8296 19.2902C19.3861 18.8241 19.3921 18.6951 19.9035 18.2829C20.1248 18.1046 20.3452 17.9257 20.5641 17.7452C21.3234 17.1186 22.0833 16.4602 22.8066 15.7608C23.2905 15.2928 23.4173 15.2919 23.73 15.8684C25.1428 18.477 26.0541 20.5082 26.873 23.3137Z" fill="#E5E5E5"/>
<path d="M23.4295 4.22018C23.824 4.23403 24.2409 4.2932 24.5966 4.43448C25.4992 4.79409 25.9038 5.51931 26.1041 6.18201C26.1668 6.3902 26.2131 6.60185 26.2447 6.81548C26.3057 7.22538 26.2569 7.24496 25.8497 7.0949C24.6667 6.65981 23.6636 5.8059 23.1886 4.6386C23.0429 4.28164 23.0457 4.20687 23.4295 4.22018Z" fill="#00EBED"/>
<path d="M12.2895 2.75895C12.7167 2.91637 13.1386 3.18898 13.4382 3.45791C13.8687 3.84432 14.2865 4.37869 14.4693 4.93426C14.6062 5.34833 14.4743 5.37809 14.2873 5.6001C13.6063 4.4102 12.4941 3.54142 11.2598 2.96191C11.6448 2.55044 11.7952 2.57689 12.2895 2.75895Z" fill="#00EBED"/>
<path d="M10.5365 3.88286C10.8464 3.42061 11.0135 3.45459 11.3959 3.6584C12.3259 4.15476 13.1506 4.84793 13.7089 5.74088C13.8644 5.99004 13.8457 6.07247 13.6442 6.25145C12.4059 5.77853 11.1472 5.35639 9.86914 5.0092C10.0715 4.62243 10.2935 4.24512 10.5365 3.88286Z" fill="#FF2E60"/>
<path d="M11.7143 11.9846C10.7354 11.2291 9.73234 10.5064 8.70443 9.81826C8.01583 9.35708 7.31826 8.9094 6.61532 8.47063C5.97239 8.06934 5.2568 7.68167 4.83189 7.02808C4.51024 6.53293 4.53615 6.0653 4.81019 5.65226C5.10226 5.21067 5.555 5.09687 6.1272 5.18284C7.10088 5.32941 8.06823 5.53196 9.02541 5.77131C9.03065 5.77306 9.03661 5.77377 9.04221 5.77552C9.54068 5.90035 10.0374 6.03186 10.5287 6.17753C11.9448 6.59635 13.3299 7.10916 14.6926 7.67629C15.4854 8.00632 15.3514 7.99897 14.9183 8.54629C14.7952 8.70178 14.6745 8.85915 14.5576 9.01903C13.9465 9.85438 13.3667 10.7107 12.8039 11.579C12.328 12.3137 12.2881 12.4269 11.7143 11.9846Z" fill="#E5E5E5"/>
<path d="M2.65658 20.3807C2.70333 20.0502 2.88733 19.8417 3.16366 19.6626C3.85472 19.2143 4.66345 19.37 5.44188 19.4622C6.03456 19.5326 6.62496 19.6088 7.21464 19.6207C7.84968 19.6333 7.74148 19.7625 7.46013 20.1988C6.95167 20.9865 6.4441 21.7898 6.13124 22.6591C6.08346 22.7917 6.04106 22.9269 6.00413 23.0633C5.37572 22.853 4.76712 22.5865 4.18009 22.2794C3.92218 22.1448 3.66741 22.0029 3.42461 21.8426C3.41515 21.8363 3.38082 21.8117 3.35877 21.7964C3.33689 21.7778 3.29064 21.7403 3.29225 21.7417C3.25581 21.7086 3.21888 21.6768 3.18315 21.6433C3.05115 21.5195 2.92646 21.3889 2.83107 21.2347C2.66864 20.9732 2.61369 20.6854 2.65658 20.3807Z" fill="#E5E5E5"/>
<path d="M18.63 7.73878C19.0701 7.69764 19.5228 7.67294 19.9551 7.77522C20.2771 7.85102 20.6279 7.99915 20.8807 8.22923C20.9994 8.33707 21.0826 8.41972 20.9877 8.55961C20.8536 8.76077 20.7501 8.69618 20.4656 8.55069C19.9551 8.29032 19.4055 8.11403 18.838 8.03542C18.7526 8.02349 18.6435 8.02192 18.546 7.99741C18.1823 7.90651 18.4663 7.75434 18.63 7.73878Z" fill="#FFC522"/>
<path d="M25.9385 7.72693C24.4301 7.26015 23.128 6.17182 22.5949 4.67763C22.4621 4.30592 22.4059 4.25899 21.9327 4.3793C21.4721 4.49642 21.0238 4.67028 20.6017 4.87758C17.7109 6.29647 15.7003 8.90911 13.9916 11.4939C12.5997 13.5993 11.3086 15.772 9.98902 17.9231C9.31199 19.027 8.63472 20.1308 7.9575 21.2349C7.6308 21.7677 7.31144 22.2954 7.08594 22.8566C7.37396 22.4922 7.66916 22.1338 7.98552 21.794C8.33482 21.4188 8.71509 21.0243 9.16927 20.7762C9.51543 20.5871 9.8745 20.3868 10.2716 20.3397C10.6612 20.294 11.1376 20.4276 11.358 20.7776C11.68 21.2894 11.4545 22.0428 11.2614 22.5644C11.0306 23.1434 10.609 23.632 10.1992 24.0932C9.89275 24.4381 9.56779 24.7666 9.23547 25.0875C9.30952 25.0609 9.38428 25.0361 9.4573 25.0068C9.936 24.8148 10.3315 24.5311 10.7368 24.2177C11.249 23.8215 11.7612 23.4253 12.2736 23.029C13.298 22.2369 14.3226 21.4445 15.3468 20.6524C16.2995 19.9158 20.3053 16.7545 21.2021 15.9669C23.4052 14.0324 25.6309 11.5504 26.2027 8.58303C26.2269 8.45731 26.2463 8.33091 26.2614 8.20379C26.3008 7.87368 26.2393 7.81993 25.9385 7.72693ZM20.7853 9.2628C20.459 9.25142 20.1836 9.02363 19.8919 8.90109C19.5613 8.76205 19.211 8.66385 18.8574 8.60343C18.5539 8.55161 18.2699 8.5474 18.0207 8.34184C17.7889 8.15081 17.6777 7.79398 17.8441 7.52384C17.9885 7.28906 18.2746 7.20605 18.532 7.17575C19.2756 7.10291 20.0281 7.10466 20.7113 7.44625C21.1196 7.65024 21.8112 8.10684 21.568 8.65381C21.4236 8.97881 21.1719 9.27612 20.7853 9.2628ZM23.4883 12.8225C23.1313 12.9277 22.7892 12.712 22.6327 12.394C22.5607 12.2484 22.5348 12.0964 22.4949 11.9404C22.4497 11.7642 22.3944 11.5904 22.3298 11.4204C22.203 11.0867 22.0304 10.7689 21.829 10.4745C21.6466 10.2077 21.5132 9.91196 21.6732 9.59261C21.8034 9.33313 22.1438 9.05456 22.4476 9.07908C22.6748 9.0971 22.8769 9.24819 23.0347 9.40301C23.2624 9.62658 23.4584 9.89659 23.5946 10.1853C23.8693 10.7683 23.9207 11.4104 23.9276 12.0466C23.9246 12.3503 23.8145 12.7263 23.4883 12.8225Z" fill="#E5E5E5"/>
<path d="M22.2642 9.74609C22.4344 9.61072 22.4731 9.65976 22.605 9.77132C22.8229 9.95621 23.015 10.2638 23.1253 10.5194C23.3317 10.9986 23.3541 11.5339 23.3596 12.048C23.3563 12.3526 23.2139 12.3689 23.1108 12.0671C23.0957 12.0222 23.0841 11.9739 23.0729 11.9235C22.9497 11.3781 22.7314 10.8478 22.437 10.3724C22.37 10.2641 22.2917 10.1632 22.2234 10.056C22.1919 10.0063 22.1562 9.94868 22.1656 9.88463C22.1735 9.83031 22.2168 9.78392 22.2642 9.74609Z" fill="#FFC522"/>
<path d="M8.16296 24.5466C7.55732 25.1463 6.9342 25.7174 6.2832 26.2602C6.39996 26.1978 6.56491 26.0867 6.77764 25.9417C7.00982 25.7833 7.22971 25.6017 7.4246 25.4436C7.8224 25.1214 8.2011 24.7755 8.56895 24.4199C8.96958 24.0319 9.35841 23.6297 9.71945 23.2046C9.85952 23.0395 9.99538 22.8712 10.1183 22.6925C10.3872 22.3034 10.5287 22.0697 10.5756 21.8237C10.6227 21.5772 10.5793 21.4229 10.4555 21.3594C10.2997 22.5345 8.88186 23.8354 8.16296 24.5466Z" fill="#19BFBB"/>
<path d="M26.1626 16.1641C26.132 16.1958 26.1006 16.2273 26.0723 16.2572C27.1832 16.7781 28.1928 17.5354 28.8819 18.5478C28.7837 18.3467 28.6919 18.1859 28.6624 18.1379C28.1261 17.2629 27.1536 16.5044 26.1626 16.1641Z" fill="#19BFBB"/>
<path d="M23.2734 4.8125C23.775 5.88734 24.7288 6.67912 25.8498 7.09144C26.2569 7.2415 26.3057 7.22187 26.2448 6.81202C26.2131 6.59839 26.1669 6.38674 26.1042 6.17855C26.094 6.14583 26.0815 6.11252 26.0704 6.07962C26.0941 6.86051 25.2232 6.57477 24.8366 6.36433C24.1748 6.0036 23.6997 5.42006 23.2734 4.8125Z" fill="#19BFBB"/>
<path d="M11.4064 3.03906C12.5812 3.61772 13.6329 4.46078 14.2865 5.60267C14.3359 5.54417 14.3807 5.49886 14.4185 5.45646C14.2264 5.12101 13.9759 4.8146 13.7927 4.59852C13.2358 3.94111 12.3268 3.11136 11.4064 3.03906Z" fill="#19BFBB"/>
<path d="M25.3248 5.31258C25.0412 5.01581 24.6604 4.75772 24.2552 4.61519C23.9152 4.49543 23.7687 4.6194 23.9654 4.93894C24.1731 5.27632 24.439 5.59169 24.7465 5.8158C24.9316 5.95062 25.3602 6.18347 25.585 6.05183C25.8707 5.88442 25.4414 5.43445 25.3248 5.31258Z" fill="#6CFFFB"/>
<path d="M9.15716 22.2004C8.82064 22.5215 7.82684 23.6271 7.18306 24.5773C6.77701 25.1761 6.88611 25.2488 7.42469 24.761C8.20083 24.0574 8.9525 23.2756 9.43609 22.3586C9.69677 21.8644 9.58086 21.7968 9.15716 22.2004Z" fill="#6CFFFB"/>
<path d="M28.4444 17.1822C28.8745 17.6841 29.065 18.1912 29.2157 18.7662C29.2243 18.7552 29.2339 18.7448 29.2425 18.7336C29.385 18.544 29.3418 18.3039 29.1844 17.9944C28.9265 17.4877 28.5686 16.9708 28.1079 16.6256C27.8202 16.4099 27.3614 16.1268 26.9355 16C27.5179 16.2857 28.0124 16.6772 28.4444 17.1822Z" fill="#6CFFFB"/>
<path d="M11.5781 2.6989C12.8142 2.96555 13.7742 3.73999 14.4142 4.79941C14.2117 4.29498 13.8306 3.81664 13.4365 3.46299C13.1369 3.19406 12.7149 2.92145 12.2877 2.76403C11.9539 2.64113 11.7763 2.59317 11.5781 2.6989Z" fill="#6CFFFB"/>
<path d="M13.4773 6.18786C13.2073 5.98177 12.9057 5.81073 12.6784 5.67698C11.8416 5.1843 10.6538 4.85987 10.5257 3.89844C10.2869 4.25563 10.0684 4.62662 9.86914 5.00743C11.09 5.3392 12.2925 5.74049 13.4773 6.18786Z" fill="#EA0F4D"/>
<path d="M25.6367 17.5156C25.9918 18.2521 26.3316 18.9957 26.6393 19.7544C26.7606 20.0542 26.874 20.3571 26.987 20.6602C27.4033 20.3932 27.8062 20.1027 28.1848 19.7839C28.2865 19.6982 28.3627 19.6285 28.4259 19.5641C28.2441 19.6279 28.0545 19.676 27.8512 19.6949C27.1227 19.7631 26.8109 19.0236 26.4865 18.5474C26.2329 18.1752 25.9667 17.8143 25.6367 17.5156Z" fill="#EA0F4D"/>
<path d="M12.5957 4.68624C12.9597 4.93523 13.2596 5.20591 13.5408 5.49129C12.991 4.71739 12.2378 4.1053 11.3962 3.65605C11.0778 3.4864 10.908 3.43911 10.6816 3.69263C11.3663 3.93847 11.9794 4.26447 12.5957 4.68624Z" fill="#FF6699"/>
<path d="M28.5068 19.0123C28.461 18.9331 28.4014 18.8448 28.3202 18.7339C27.7613 17.9702 27.0014 17.3689 26.1582 16.9281C25.9287 16.808 25.7533 16.714 25.5312 16.9533C26.667 17.4434 27.6962 18.0919 28.5068 19.0123Z" fill="#FF6699"/>
<path d="M18.8375 8.02809C19.405 8.10671 19.9546 8.28304 20.4651 8.54337C20.7497 8.68886 20.8531 8.75349 20.9872 8.55229C20.9899 8.54807 20.9893 8.54529 20.9919 8.54126C20.2609 8.16448 19.4006 8.03194 18.5586 7.99219C18.6528 8.01375 18.7559 8.0167 18.8375 8.02809Z" fill="#FFA222"/>
<path d="M22.4369 10.3696C22.7312 10.8449 22.9496 11.3753 23.0729 11.9207C23.0841 11.9711 23.0956 12.0194 23.1107 12.0642C23.0893 11.2529 22.612 10.2752 22.2766 9.73438C22.2722 9.73769 22.2687 9.7398 22.2642 9.74329C22.2167 9.78112 22.1735 9.82752 22.1656 9.8818C22.1562 9.94589 22.1919 10.0035 22.2234 10.0532C22.2916 10.1604 22.3699 10.2612 22.4369 10.3696Z" fill="#FFA222"/>
<path d="M13.2959 21.6549C12.4997 22.0697 11.9993 21.7349 11.506 21.2217C11.5608 21.6687 11.4024 22.1789 11.26 22.5634C11.0293 23.1425 10.6077 23.6311 10.1978 24.0923C9.8914 24.4372 9.56644 24.7656 9.23413 25.0866C9.30818 25.06 9.38294 25.0352 9.45596 25.0059C9.93466 24.8138 10.3302 24.5302 10.7355 24.2168C11.2476 23.8206 11.7599 23.4243 12.2722 23.0281C13.2966 22.236 14.3212 21.4436 15.3455 20.6515C16.2981 19.9149 20.3039 16.7535 21.2008 15.966C23.1424 14.2612 25.1001 12.1302 25.9291 9.61719C25.5005 10.5359 24.9388 11.3936 24.3367 12.205C23.0255 13.9719 21.3723 15.4705 19.7022 16.8887C18.0109 18.3249 16.2355 19.6631 14.4193 20.9365C14.0539 21.1927 13.6921 21.448 13.2959 21.6549Z" fill="#C6C6C6"/>
<path d="M4.82921 7.0307C5.25412 7.68429 5.96971 8.07191 6.61264 8.47325C7.31563 8.91202 8.01315 9.3597 8.70175 9.82088C9.7297 10.509 10.7328 11.2317 11.7116 11.9872C12.2854 12.4295 12.3253 12.3164 12.8012 11.5815C13.2681 10.8609 13.7518 10.1518 14.2506 9.45266C13.6932 9.73961 13.1239 9.99071 12.4903 10.1294C11.1931 10.4136 10.0579 9.87166 8.94581 9.27198C7.99562 8.75967 7.07117 8.20257 6.184 7.5873C5.46824 7.09076 4.88837 6.53277 4.72553 5.79688C4.53334 6.17378 4.54382 6.59139 4.82921 7.0307Z" fill="#C6C6C6"/>
<path d="M10.6071 28.381C11.0485 28.9663 11.7916 29.5067 12.5436 29.1247C12.5676 29.1126 12.5894 29.0964 12.612 29.0813C12.3574 29.0873 12.0962 29.0409 11.8245 28.9179C11.1163 28.5978 10.9634 27.5386 10.9384 26.868C10.9023 25.9098 11.6445 25.2677 11.9521 24.4609C11.6119 24.7244 11.2722 24.988 10.931 25.25C10.4399 25.6273 9.85806 25.9024 9.25 26.0803C9.61001 26.8917 10.0764 27.6776 10.6071 28.381Z" fill="#C6C6C6"/>
<path d="M23.1378 21.5503C22.4677 20.6061 21.7441 19.5548 21.693 18.3597C21.6567 17.5075 22.1477 16.7473 22.553 15.9922C21.9054 16.6031 21.2366 17.1882 20.5641 17.7431C20.3452 17.9236 20.1248 18.1025 19.9035 18.2808C19.3921 18.6929 19.3861 18.8219 19.8296 19.2881C20.7945 20.3008 21.7193 21.3502 22.6068 22.4322C23.1375 23.079 23.6437 23.745 24.1698 24.3957C24.6003 24.9279 25.1972 25.5651 25.9214 25.6362C26.4127 25.6847 26.8511 25.3476 27.0908 24.9416C25.2609 25.037 24.1423 22.9655 23.1378 21.5503Z" fill="#C6C6C6"/>
<path d="M2.65625 20.7334C2.67812 20.9086 2.73204 21.0771 2.83029 21.235C2.92572 21.3892 3.05037 21.5198 3.18237 21.6436C3.2181 21.6771 3.25503 21.7089 3.29147 21.742C3.2899 21.7406 3.33611 21.7781 3.35799 21.7967C3.38004 21.8121 3.41437 21.8366 3.42383 21.8429C3.66668 22.0033 3.92145 22.1451 4.17931 22.2797C4.76639 22.5868 5.37498 22.8533 6.00335 23.0636C6.04028 22.9272 6.08268 22.792 6.13046 22.6594C6.43772 21.8059 6.93269 21.0161 7.43187 20.2422C6.85936 20.6615 6.36856 21.1936 5.78237 21.6121C4.6486 22.4216 3.31213 21.7871 2.65625 20.7334Z" fill="#C6C6C6"/>
<path d="M13.4319 7.77958C12.2107 7.35238 10.9748 6.96194 9.73693 6.58776C8.82121 6.31094 7.85211 5.94904 6.8874 5.80512C5.96205 5.6668 5.60105 5.75958 6.53197 6.42232C6.94868 6.71891 7.6098 6.8744 7.99164 7.02688C9.01623 7.43589 10.0529 7.79693 11.1205 8.07774C11.8609 8.27263 12.6323 8.19593 13.3902 8.10329C13.857 8.04623 13.9225 7.95116 13.4319 7.77958Z" fill="#F4F4F4"/>
<path d="M26.0106 21.9531C25.7771 21.2568 25.4854 20.5782 25.1853 19.9083C24.885 19.2391 24.5618 18.3938 24.13 17.6844C23.7065 16.9875 23.3211 16.6562 23.3052 17.6353C23.2833 19.0551 23.9516 20.2951 24.6185 21.5758C24.6658 21.6669 26.004 24.0906 26.2612 23.4545C26.4459 22.9977 26.1563 22.3875 26.0106 21.9531Z" fill="#F4F4F4"/>
<path d="M18.9068 9.7016C18.7393 9.52353 17.1278 9.22398 16.1711 10.5133C15.2092 11.8104 13.58 14.0373 11.6476 17.2657C10.8203 18.6478 10.9044 19.5313 12.5328 17.989C14.5038 16.1222 17.8987 12.3501 18.575 11.5073C18.9984 10.9798 19.4587 10.2883 18.9068 9.7016Z" fill="#F4F4F4"/>
<path d="M12.033 25.9794C11.7562 26.3485 11.558 26.8046 11.54 27.2383C11.519 27.7385 11.8584 28.3508 12.358 28.4672C13.0576 28.6302 12.7446 26.9305 12.5371 26.0685C12.3921 25.4656 12.3471 25.5601 12.033 25.9794Z" fill="#F4F4F4"/>
<path d="M5.88729 19.9545C4.87372 19.7868 2.94794 19.5583 3.33592 20.651C3.50364 21.123 4.25616 21.1568 4.64383 21.1411C5.0791 21.1231 5.55605 20.7993 5.95837 20.4719C6.34846 20.1552 6.48938 20.0538 5.88729 19.9545Z" fill="#F4F4F4"/>
</svg>
