<svg width="33" height="33" viewBox="0 0 33 33" fill="none" xmlns="http://www.w3.org/2000/svg">
<g clip-path="url(#clip0_880_183766)">
<path d="M16.7283 32.0975C25.5649 32.0975 32.7283 24.9341 32.7283 16.0976C32.7283 7.26107 25.5649 0.0976562 16.7283 0.0976562C7.89181 0.0976562 0.728394 7.26107 0.728394 16.0976C0.728394 24.9341 7.89181 32.0975 16.7283 32.0975Z" fill="#FFDD33"/>
<path d="M16.7283 26.7595C24.0907 26.7595 30.0592 20.7911 30.0592 13.4286C30.0592 6.06612 24.0907 0.0976562 16.7283 0.0976562C9.3658 0.0976562 3.39734 6.06612 3.39734 13.4286C3.39734 20.7911 9.3658 26.7595 16.7283 26.7595Z" fill="#FFDD33"/>
<path d="M28.8907 17.9262L28.2284 20.7094C27.8574 20.7476 27.4797 20.7631 27.0975 20.7554C24.339 20.6991 21.8873 19.4401 20.233 17.4884C20.4632 16.9812 20.8175 16.5428 21.2571 16.2124C21.6074 15.9481 21.823 15.5418 21.8322 15.1031L21.8337 15.0333C21.8395 14.7412 21.7534 14.4602 21.5943 14.2228C21.5152 14.1032 21.4174 13.9947 21.3042 13.9018C20.5471 13.2819 20.0716 12.3337 20.093 11.2797L20.1265 9.61125C20.1551 8.21981 21.0395 7.04825 22.2679 6.58744C22.6544 6.44194 22.9172 6.07937 22.926 5.66631L22.9506 4.45312L26.6112 4.52737L26.5865 5.74056C26.5784 6.15375 26.8254 6.52656 27.2067 6.68781C28.4144 7.198 29.2512 8.40475 29.2233 9.79562L29.189 11.464C29.1676 12.518 28.6542 13.4462 27.8725 14.0347C27.5476 14.2794 27.339 14.6453 27.3029 15.0465C27.2995 15.079 27.2982 15.1111 27.2974 15.144L27.2959 15.2137C27.2867 15.6526 27.4855 16.0673 27.8255 16.3453C28.3225 16.7521 28.698 17.2999 28.8907 17.9262Z" fill="#E8E8E8"/>
<path d="M26.6112 4.52763L26.5945 5.34706L24.296 5.30037C24.1874 5.29812 24.0881 5.34025 24.0154 5.40975C23.943 5.47956 23.897 5.57712 23.8947 5.68575C23.8863 6.09944 23.7585 6.46394 23.5752 6.61375C22.9921 7.0875 22.5633 8.26869 22.535 9.66019L22.5012 11.3282C22.4797 12.3822 22.693 13.3256 23.0427 13.9366C23.1994 14.2114 23.2891 14.623 23.2802 15.0623L23.2787 15.1321C23.2698 15.5711 23.1635 15.9793 22.9957 16.2467C22.6214 16.8439 22.3701 17.7771 22.3487 18.8311L22.3387 19.3232C21.5464 18.8204 20.8365 18.2002 20.2327 17.4881C20.4625 16.9804 20.817 16.5424 21.2569 16.2114C21.6074 15.9477 21.8228 15.5416 21.8317 15.1026L21.8331 15.0329C21.842 14.5936 21.6434 14.1798 21.3038 13.9012C20.546 13.2819 20.0714 12.3332 20.0929 11.2791L20.1267 9.61112C20.155 8.21956 21.0393 7.04769 22.2673 6.58706C22.6543 6.44137 22.9171 6.07962 22.9254 5.66594L22.95 4.45312L26.6112 4.52763Z" fill="#D6D6D6"/>
<path d="M26.9048 3.08292L26.8737 4.61323L22.6848 4.52817L22.7159 2.99786C22.7251 2.54548 23.0991 2.1863 23.5514 2.19548L26.1018 2.2473C26.5543 2.25655 26.9139 2.63055 26.9048 3.08292Z" fill="#2ABC05"/>
<path d="M27.2353 12.1093C26.7564 12.0996 26.3761 11.7035 26.3858 11.2246L26.4283 9.13093C26.4381 8.65206 26.8341 8.27168 27.3131 8.28143C27.7919 8.29118 28.1723 8.68725 28.1626 9.16618L28.1201 11.2598C28.1104 11.7387 27.7142 12.1191 27.2353 12.1093Z" fill="#FCFCFC"/>
<path d="M27.9492 19.6739L27.9276 20.7335C27.6537 20.7521 27.377 20.7589 27.0975 20.7532C26.7921 20.7471 26.4904 20.7262 26.1934 20.6907L26.2147 19.6386C26.2245 19.1597 26.6204 18.7795 27.0993 18.7892C27.3388 18.7941 27.5536 18.8954 27.7073 19.0555C27.8615 19.2156 27.954 19.4344 27.9492 19.6739Z" fill="#FCFCFC"/>
<path d="M11.4104 13.7928L11.3874 13.8586C11.2429 14.2732 11.3037 14.729 11.5407 15.0988C12.0685 15.9226 12.2267 16.9712 11.8796 17.9671L11.343 19.5069C10.7208 19.4262 10.0977 19.2806 9.48191 19.0659C6.87647 18.1579 4.93541 16.2008 3.96729 13.8326C4.34341 13.4216 4.81629 13.1147 5.33647 12.9366C5.7516 12.7941 6.0826 12.4748 6.22704 12.0603L6.25004 11.9944C6.39454 11.5798 6.33372 11.124 6.09704 10.7544C5.56929 9.93056 5.41122 8.88169 5.75816 7.88613L6.30735 6.31044C6.76529 4.9965 7.9696 4.15638 9.27979 4.09894C9.69279 4.08069 10.055 3.81744 10.191 3.42706L10.5903 2.28125L14.0478 3.48619L13.6484 4.632C13.5123 5.02237 13.6321 5.45356 13.9447 5.72463C14.935 6.58388 15.3567 7.99062 14.8987 9.30456L14.3495 10.8802C14.0025 11.8757 13.2268 12.5992 12.3013 12.9166C11.8858 13.0589 11.5548 13.3781 11.4104 13.7928Z" fill="#E8E8E8"/>
<path d="M14.0476 3.48631L13.7779 4.26025L11.607 3.50369C11.5044 3.46794 11.3969 3.47725 11.3062 3.52075C11.2158 3.56469 11.1417 3.64319 11.106 3.74575C10.9698 4.1365 10.7354 4.44344 10.5146 4.52913C9.81348 4.79881 9.03973 5.789 8.58166 7.10337L8.03266 8.67875C7.68566 9.67425 7.59616 10.6372 7.73929 11.3266C7.8031 11.6364 7.76085 12.0555 7.61623 12.4704L7.59323 12.5363C7.44873 12.9509 7.22104 13.3061 6.97879 13.5085C6.43785 13.9603 5.90973 14.7696 5.56285 15.7651L5.40085 16.2299C4.80335 15.5064 4.32066 14.6967 3.96716 13.8326C4.34298 13.4211 4.81573 13.1145 5.33648 12.9361C5.75148 12.7939 6.0821 12.4746 6.2266 12.06L6.2496 11.9941C6.39416 11.5792 6.33348 11.1243 6.09698 10.7542C5.56841 9.9305 5.41116 8.8815 5.7581 7.88594L6.3071 6.31056C6.76516 4.99625 7.96916 4.15606 9.27929 4.09856C9.69241 4.07994 10.0544 3.81744 10.1905 3.42669L10.5897 2.28125L14.0476 3.48631Z" fill="#D6D6D6"/>
<path d="M14.7739 2.20604L14.2702 3.65142L10.3138 2.27254L10.8176 0.827166C10.9665 0.399854 11.4334 0.174292 11.8607 0.323229L14.2695 1.16273C14.6967 1.31167 14.9228 1.77873 14.7739 2.20604Z" fill="#279FC9"/>
<path d="M14.7739 2.20573L14.2702 3.6511L11.4579 2.67098L11.9616 1.2256C12.1105 0.798292 12.5774 0.572729 13.0048 0.721667L14.2695 1.16248C14.6968 1.31135 14.9229 1.77842 14.7739 2.20573Z" fill="#34ABE0"/>
<path d="M12.2916 10.8905C11.8393 10.7329 11.6004 10.2384 11.758 9.78604L12.4472 7.80867C12.6048 7.35636 13.0993 7.11748 13.5516 7.27511C14.004 7.43273 14.2428 7.92723 14.0852 8.37954L13.396 10.3569C13.2384 10.8092 12.7439 11.0481 12.2916 10.8905Z" fill="#FCFCFC"/>
<path d="M10.626 18.3053L10.2772 19.3062C10.011 19.239 9.74591 19.1597 9.48191 19.0677C9.19341 18.9672 8.91298 18.8538 8.6416 18.7281L8.98791 17.7344C9.14554 17.282 9.63979 17.0433 10.0922 17.2009C10.3183 17.2797 10.4912 17.4426 10.5878 17.6425C10.6847 17.8424 10.7049 18.0791 10.626 18.3053Z" fill="#FCFCFC"/>
<path d="M21.425 16.4059L21.4335 16.4752C21.4874 16.9109 21.7437 17.2927 22.1198 17.5195C22.9577 18.0247 23.5635 18.8951 23.6928 19.9417L23.893 21.56C23.2993 21.763 22.6761 21.9081 22.0288 21.9881C19.2906 22.3267 16.6838 21.4305 14.7678 19.7351C14.9232 19.2001 15.2115 18.7157 15.5992 18.3257C15.9085 18.0142 16.064 17.5814 16.0101 17.1457L16.0015 17.0765C15.9477 16.6407 15.6914 16.2589 15.3156 16.0321C14.4778 15.5268 13.8718 14.6562 13.7426 13.6098L13.5378 11.9538C13.3672 10.5728 14.0754 9.28653 15.225 8.65528C15.5873 8.45616 15.7955 8.05991 15.7448 7.64959L15.5959 6.44534L19.2296 5.99609L19.3785 7.20034C19.4292 7.61059 19.7274 7.94428 20.1276 8.04916C21.3959 8.38147 22.3965 9.45653 22.5672 10.8375L22.772 12.4935C22.9014 13.5398 22.5257 14.5318 21.8362 15.2259C21.5266 15.5375 21.3711 15.9702 21.425 16.4059Z" fill="#E8E8E8"/>
<path d="M19.2297 5.99609L19.3302 6.80953L17.0486 7.09159C16.9408 7.10491 16.8485 7.16084 16.7865 7.23991C16.7249 7.31941 16.6932 7.42253 16.7065 7.53028C16.7572 7.94091 16.6829 8.31991 16.5228 8.49441C16.0134 9.04653 15.7577 10.2768 15.9284 11.6582L16.1332 13.3138C16.2626 14.3601 16.6084 15.2633 17.0418 15.8182C17.2361 16.0678 17.3837 16.4623 17.4376 16.8985L17.4462 16.9677C17.5001 17.4035 17.4531 17.8228 17.3254 18.1114C17.0402 18.7559 16.9247 19.7154 17.0541 20.7617L17.1145 21.2502C16.2586 20.8657 15.4674 20.3531 14.768 19.7346C14.9231 19.1993 15.2113 18.7152 15.5994 18.3248C15.9087 18.0137 16.0638 17.581 16.0099 17.1452L16.0014 17.076C15.9474 16.6398 15.6917 16.2587 15.3159 16.0316C14.4774 15.5268 13.8721 14.6557 13.7429 13.6093L13.5381 11.9537C13.3674 10.5723 14.0752 9.28609 15.2248 8.65484C15.5871 8.45541 15.7954 8.05984 15.7446 7.64916L15.5958 6.44528L19.2297 5.99609Z" fill="#D6D6D6"/>
<path d="M19.3142 4.52729L19.502 6.04636L15.3439 6.56042L15.1561 5.04136C15.1006 4.59229 15.4194 4.18342 15.8685 4.12786L18.4001 3.81486C18.8492 3.75942 19.2587 4.07823 19.3142 4.52729Z" fill="#EF4152"/>
<path d="M19.3142 4.52729L19.502 6.04636L16.5463 6.41179L16.3584 4.89273C16.3029 4.44367 16.6218 4.03479 17.0709 3.97923L18.4001 3.81486C18.8493 3.75942 19.2587 4.07823 19.3142 4.52729Z" fill="#FF525D"/>
<path d="M20.9303 13.4119C20.455 13.4707 20.022 13.1329 19.9632 12.6575L19.7062 10.5793C19.6475 10.1039 19.9852 9.67086 20.4606 9.61211C20.936 9.55336 21.369 9.89111 21.4278 10.3665L21.6847 12.4447C21.7435 12.9201 21.4058 13.3531 20.9303 13.4119Z" fill="#FCFCFC"/>
<path d="M22.7175 20.7999L22.8475 21.8518C22.5791 21.9093 22.3062 21.9555 22.0288 21.9898C21.7256 22.0273 21.424 22.0498 21.125 22.0571L20.9959 21.0127C20.9371 20.5373 21.2747 20.1045 21.7501 20.0457C21.9878 20.0163 22.215 20.086 22.39 20.2223C22.5654 20.3588 22.6881 20.5621 22.7175 20.7999Z" fill="#FCFCFC"/>
<path d="M30.2689 12.0781L30.1971 12.8742L30.0358 14.6571L28.9733 26.3952C26.0383 29.8812 21.6419 32.0964 16.7283 32.0964C14.0893 32.0964 11.5992 31.4577 9.40488 30.3259C7.51363 29.3503 5.84176 28.0089 4.48345 26.3952L3.25895 12.8749L3.18713 12.0781H30.2689Z" fill="#EF4152"/>
<path d="M30.0359 14.6602L29.7982 17.2835L29.5403 20.1328L28.9734 26.3983C26.0385 29.8843 21.6422 32.0995 16.7285 32.0995C14.0895 32.0995 11.5994 31.4608 9.4051 30.329L8.28835 17.9842C8.12641 16.1988 9.53241 14.6602 11.3251 14.6602L30.0359 14.6602Z" fill="#FF525D"/>
<path d="M31.4523 13.2937C2.00069 13.2937 31.4554 13.2937 2.00381 13.2937C1.65506 13.2937 1.37231 13.011 1.37231 12.6622V10.7135C1.37231 10.3648 1.655 10.082 2.00381 10.082H31.4523C31.801 10.082 32.0838 10.3647 32.0838 10.7135V12.6622C32.0838 13.0109 31.8011 13.2937 31.4523 13.2937Z" fill="#FF525D"/>
<path d="M16.3334 27.4454V30.2016C15.0418 30.2016 14.204 30.1946 13.664 30.0392C13.3526 29.9496 13.089 29.7411 12.9244 29.4621C12.9244 29.4619 12.9244 29.4618 12.9243 29.4617C12.8212 29.1765 12.658 28.5208 12.9076 28.0283C13.0728 27.7019 13.4958 27.6924 13.6234 27.4453H16.3335V27.4454H16.3334Z" fill="#FCFCFC"/>
<path d="M14.0664 24.0977L15.4414 26.8477L14.2708 26.2161C14.2708 26.2161 14.055 26.6063 13.6233 27.4424C13.4956 27.6894 13.3493 27.9754 13.184 28.3019C12.9345 28.7945 12.8212 29.1737 12.9242 29.4588L11.4731 26.9983C11.3292 26.754 11.3191 26.4532 11.4469 26.1999L12.0472 25.0083L10.9634 24.3766L14.0664 24.0977Z" fill="#494B5B"/>
<path d="M18.8743 25.2101L21.2612 23.832C21.907 24.9506 22.3198 25.6796 22.4553 26.225C22.5335 26.5394 22.4847 26.872 22.3254 27.154C22.3253 27.1541 22.3252 27.1542 22.3251 27.1543C22.1297 27.3861 21.6434 27.8553 21.0921 27.8855C20.7268 27.9057 20.5071 27.5441 20.2293 27.5571L18.8743 25.2101Z" fill="#FCFCFC"/>
<path d="M17.1112 28.8471L18.8053 26.2812L18.8435 27.6109C18.8435 27.6109 19.2894 27.6026 20.2293 27.5585C20.507 27.5455 20.828 27.5293 21.1933 27.5092C21.7446 27.4789 22.1296 27.3875 22.3251 27.1557L20.9197 29.6426C20.7801 29.8894 20.5245 30.0485 20.2414 30.0645L18.9093 30.1404L18.904 31.3949L17.1112 28.8471Z" fill="#494B5B"/>
<path d="M15.6059 24.1794L13.219 22.8013C13.8648 21.6827 14.2897 20.9607 14.6943 20.5707C14.9275 20.3458 15.2399 20.2218 15.5639 20.2188C15.5641 20.2188 15.5641 20.2189 15.5643 20.2188C15.8628 20.2722 16.5122 20.4587 16.8141 20.9211C17.0141 21.2274 16.8109 21.5984 16.961 21.8324L15.6059 24.1794Z" fill="#FCFCFC"/>
<path d="M19.6359 23.8876L16.5668 23.7034L17.6991 23.0054C17.6991 23.0054 17.469 22.6234 16.9609 21.8314C16.8108 21.5974 16.6363 21.3276 16.4362 21.0213C16.1345 20.5589 15.8627 20.2711 15.5642 20.2178L18.4206 20.1914C18.7041 20.1889 18.9698 20.3307 19.1251 20.5679L19.857 21.6836L20.946 21.0609L19.6359 23.8876Z" fill="#494B5B"/>
<path d="M8.26489 15.0495C8.26489 14.9276 8.37702 14.8203 8.54758 14.8203H9.55671C10.2001 14.8203 10.7071 15.1226 10.7071 15.9416V15.9659C10.7071 16.7849 10.1806 17.0969 9.50796 17.0969H9.02533V18.1499C9.02533 18.3059 8.83521 18.3839 8.64514 18.3839C8.45508 18.3839 8.26496 18.3059 8.26496 18.1499L8.26489 15.0495ZM9.02533 15.4833V16.5119H9.50796C9.78102 16.5119 9.94677 16.3559 9.94677 16.0244V15.9707C9.94677 15.6392 9.78102 15.4832 9.50796 15.4832H9.02533V15.4833Z" fill="#FCFCFC"/>
<path d="M11.3704 18.3839C11.2046 18.3839 11.0389 18.3059 11.0389 18.1499V15.0495C11.0389 14.8886 11.2291 14.8203 11.4191 14.8203C11.6092 14.8203 11.7993 14.8886 11.7993 15.0495V17.7209H12.9108C13.0571 17.7209 13.1301 17.8867 13.1301 18.0524C13.1301 18.2182 13.0571 18.3839 12.9108 18.3839L11.3704 18.3839Z" fill="#FCFCFC"/>
<path d="M13.1937 18.0737C13.1937 18.0591 13.1985 18.0397 13.2035 18.0201L14.1102 15.0465C14.1638 14.8758 14.3832 14.793 14.6074 14.793C14.8317 14.793 15.051 14.8758 15.1046 15.0465L16.0162 18.0201C16.0211 18.0396 16.026 18.0591 16.026 18.0737C16.026 18.2541 15.7481 18.3857 15.5385 18.3857C15.4166 18.3857 15.3191 18.3467 15.2899 18.2443L15.1241 17.6349H14.0955L13.9298 18.2443C13.9005 18.3466 13.803 18.3857 13.6812 18.3857C13.4716 18.3857 13.1937 18.2541 13.1937 18.0737ZM14.9633 17.05L14.6074 15.7436L14.2515 17.05H14.9633Z" fill="#FCFCFC"/>
<path d="M17.7714 17.4303C17.7714 16.8404 16.2261 16.9428 16.2261 15.8021C16.2261 15.0708 16.8646 14.793 17.474 14.793C17.7324 14.793 18.4441 14.8418 18.4441 15.222C18.4441 15.3537 18.3563 15.6217 18.1418 15.6217C17.9662 15.6217 17.8737 15.4365 17.4739 15.4365C17.1278 15.4365 16.9864 15.5779 16.9864 15.729C16.9864 16.2165 18.5317 16.1238 18.5317 17.3523C18.5317 18.0543 18.0199 18.4346 17.3131 18.4346C16.6744 18.4346 16.1382 18.1227 16.1382 17.8008C16.1382 17.6351 16.2844 17.3914 16.4697 17.3914C16.6989 17.3914 16.8451 17.7521 17.2984 17.7521C17.5228 17.752 17.7714 17.6643 17.7714 17.4303Z" fill="#FCFCFC"/>
<path d="M21.0181 14.8203C21.179 14.8203 21.2473 14.9959 21.2473 15.1567C21.2473 15.3419 21.1644 15.5028 21.0181 15.5028H20.3454V18.1499C20.3454 18.3059 20.1553 18.3839 19.9652 18.3839C19.775 18.3839 19.585 18.3059 19.585 18.1499V15.5028H18.9123C18.766 15.5028 18.6831 15.3419 18.6831 15.1567C18.6831 14.9958 18.7514 14.8203 18.9123 14.8203H21.0181Z" fill="#FCFCFC"/>
<path d="M21.5498 15.0495C21.5498 14.8886 21.7399 14.8203 21.93 14.8203C22.1201 14.8203 22.3102 14.8886 22.3102 15.0495V18.1499C22.3102 18.3059 22.1201 18.3839 21.93 18.3839C21.7399 18.3839 21.5498 18.3059 21.5498 18.1499V15.0495Z" fill="#FCFCFC"/>
<path d="M23.997 15.4833C23.7191 15.4833 23.5582 15.6393 23.5582 15.9708V17.2626C23.5582 17.5941 23.7191 17.7501 24.0018 17.7501C24.3918 17.7501 24.4162 17.4528 24.4308 17.2626C24.4454 17.0823 24.6112 17.0336 24.8061 17.0336C25.0694 17.0336 25.1912 17.1018 25.1912 17.3942C25.1912 18.0426 24.6647 18.4131 23.9677 18.4131C23.3291 18.4131 22.7977 18.1011 22.7977 17.2626V15.9708C22.7977 15.1324 23.3291 14.8203 23.9677 14.8203C24.6648 14.8203 25.1912 15.1713 25.1912 15.7904C25.1912 16.0829 25.0694 16.1511 24.811 16.1511C24.6062 16.1511 24.4405 16.0975 24.4309 15.9221C24.426 15.7954 24.4114 15.4833 23.997 15.4833Z" fill="#FCFCFC"/>
</g>
<defs>
<clipPath id="clip0_880_183766">
<rect width="32" height="32" fill="white" transform="translate(0.728271 0.0976562)"/>
</clipPath>
</defs>
</svg>
