<svg width="31" height="32" viewBox="0 0 31 32" fill="none" xmlns="http://www.w3.org/2000/svg">
<path d="M28.0947 21.1849C28.0709 21.1849 28.0477 21.178 28.0279 21.1649C28.0081 21.1519 27.9926 21.1333 27.9832 21.1115C27.9739 21.0897 27.9711 21.0657 27.9753 21.0423C27.9795 21.019 27.9905 20.9974 28.0069 20.9802C29.9898 18.8974 29.7676 15.9354 28.2369 14.5162C27.1023 13.4639 25.2211 13.2308 23.5555 13.9368C23.5407 13.9437 23.5247 13.9476 23.5084 13.9482C23.4921 13.9488 23.4759 13.9461 23.4607 13.9403C23.4454 13.9345 23.4316 13.9257 23.4198 13.9144C23.4081 13.9031 23.3988 13.8895 23.3924 13.8745C23.3861 13.8595 23.3828 13.8433 23.3828 13.827C23.3828 13.8107 23.3861 13.7946 23.3926 13.7796C23.399 13.7647 23.4083 13.7511 23.4201 13.7398C23.4318 13.7285 23.4458 13.7198 23.461 13.714C25.2399 12.9602 27.1792 13.2054 28.4016 14.3388C30.0322 15.8525 30.2568 18.9676 28.1824 21.1473C28.1711 21.1592 28.1575 21.1687 28.1424 21.1751C28.1273 21.1816 28.1111 21.1849 28.0947 21.1849Z" fill="black"/>
<path d="M28.316 20.8134C28.316 20.8134 28.6139 21.2645 28.4062 21.6411C28.1986 22.0177 27.9903 22.3174 27.8196 22.2466C27.6488 22.1757 27.9334 21.695 27.9334 21.695C27.9334 21.695 27.584 22.1842 27.5095 21.9977C27.4351 21.8112 27.6597 21.6484 27.6597 21.6484C27.6597 21.6484 27.2117 21.7937 27.2559 21.603C27.3001 21.4122 27.5229 21.2603 27.5229 21.2603C27.5229 21.2603 27.0022 21.3814 27.1105 21.1822C27.2189 20.983 27.9588 20.3708 28.316 20.8134Z" fill="black"/>
<path d="M14.9436 28.709C14.9436 28.709 15.6502 28.9451 15.6502 29.2975C15.6502 29.6499 13.5159 30.0483 13.5795 29.7316C13.6431 29.4149 14.647 28.5788 14.9436 28.709Z" fill="black"/>
<path d="M14.9213 29.3429C14.8934 29.3428 14.8664 29.333 14.8449 29.3152C14.8234 29.2974 14.8087 29.2728 14.8032 29.2454L13.9483 25.0229C13.9447 25.0072 13.9444 24.9908 13.9472 24.9749C13.95 24.959 13.956 24.9439 13.9647 24.9303C13.9735 24.9167 13.9849 24.9051 13.9983 24.896C14.0116 24.8869 14.0267 24.8806 14.0425 24.8774C14.0583 24.8742 14.0746 24.8742 14.0905 24.8774C14.1063 24.8806 14.1213 24.887 14.1347 24.8961C14.148 24.9052 14.1594 24.9168 14.1681 24.9304C14.1769 24.944 14.1829 24.9592 14.1857 24.9751L15.0406 29.1976C15.0442 29.2153 15.0438 29.2335 15.0395 29.251C15.0351 29.2684 15.027 29.2847 15.0155 29.2987C15.0041 29.3126 14.9897 29.3238 14.9734 29.3314C14.9571 29.3391 14.9393 29.343 14.9213 29.3429Z" fill="black"/>
<path d="M19.7611 28.6699C19.7611 28.6699 20.4646 28.906 20.4646 29.2584C20.4646 29.6108 18.331 30.0092 18.3939 29.6925C18.4569 29.3759 19.4638 28.5397 19.7611 28.6699Z" fill="black"/>
<path d="M19.7391 29.3077C19.7107 29.3082 19.683 29.2988 19.6609 29.281C19.6387 29.2631 19.6235 29.2381 19.618 29.2102L18.7655 24.9859C18.76 24.9547 18.7669 24.9227 18.7847 24.8966C18.8025 24.8705 18.8299 24.8524 18.8608 24.8461C18.8918 24.8399 18.924 24.846 18.9506 24.8632C18.9771 24.8803 18.9959 24.9072 19.0029 24.938L19.8602 29.1636C19.8636 29.1813 19.8631 29.1996 19.8585 29.217C19.854 29.2345 19.8456 29.2507 19.834 29.2645C19.8224 29.2783 19.8079 29.2894 19.7914 29.2969C19.775 29.3043 19.7571 29.308 19.7391 29.3077Z" fill="black"/>
<path d="M24.7558 11.0591C24.7619 11.0591 24.5803 10.1963 24.0057 10.008C23.4311 9.81969 22.3788 9.86389 22.3788 9.86389L22.8868 10.3022C18.6073 10.1006 7.17242 10.6244 6.87695 12.2488C6.87695 12.2488 6.87695 20.752 7.89414 23.9743L7.52057 24.2868C7.52057 24.2868 8.13572 25.1344 8.85623 25.2162C11.3296 25.6569 26.1533 25.3681 26.4863 23.4494C26.7866 21.7008 25.6114 13.3393 24.7558 11.0591Z" fill="#DB9019"/>
<path d="M2.96686 7.26949L3.89201 7.13569C3.89643 7.13493 3.90053 7.13294 3.90386 7.12993C3.90718 7.12693 3.90958 7.12305 3.91078 7.11873L4.36912 5.47186C4.36999 5.46662 4.37269 5.46187 4.37674 5.45844C4.38078 5.45501 4.38592 5.45312 4.39122 5.45312C4.39653 5.45312 4.40166 5.45501 4.40571 5.45844C4.40975 5.46187 4.41245 5.46662 4.41332 5.47186L4.75541 7.12418C4.75635 7.12848 4.75851 7.13242 4.76162 7.13553C4.76473 7.13865 4.76867 7.1408 4.77297 7.14174L5.65635 7.32338C5.66102 7.32432 5.66529 7.32668 5.66856 7.33015C5.67183 7.33362 5.67394 7.33801 5.6746 7.34273C5.67527 7.34745 5.67445 7.35226 5.67227 7.35649C5.67008 7.36073 5.66663 7.36418 5.6624 7.36637C4.72514 7.83076 4.77297 7.80231 4.76934 7.81865L4.44359 9.32567C4.44241 9.33072 4.43955 9.33523 4.43549 9.33845C4.43142 9.34168 4.42638 9.34343 4.42119 9.34343C4.416 9.34343 4.41096 9.34168 4.4069 9.33845C4.40283 9.33523 4.39997 9.33072 4.39879 9.32567C3.98707 7.61582 4.01613 7.71512 3.99918 7.70846L2.96201 7.31248C2.95778 7.31038 2.95429 7.30703 2.95203 7.30288C2.94976 7.29873 2.94883 7.29399 2.94936 7.28929C2.94989 7.28459 2.95186 7.28017 2.95499 7.27663C2.95812 7.27309 2.96226 7.2706 2.96686 7.26949Z" fill="#4F8AB3"/>
<path d="M23.2998 27.7054L24.225 27.5716C24.2293 27.571 24.2334 27.5691 24.2368 27.5662C24.2401 27.5633 24.2425 27.5595 24.2438 27.5553L24.7021 25.9084C24.7033 25.9033 24.7061 25.8988 24.7102 25.8956C24.7143 25.8924 24.7193 25.8906 24.7245 25.8906C24.7297 25.8906 24.7347 25.8924 24.7388 25.8956C24.7429 25.8988 24.7457 25.9033 24.7469 25.9084L25.0884 27.5565C25.0893 27.5609 25.0914 27.5649 25.0945 27.5681C25.0976 27.5713 25.1016 27.5736 25.1059 27.5746L25.9899 27.7593C25.9946 27.7603 25.9988 27.7628 26.002 27.7663C26.0052 27.7698 26.0072 27.7742 26.0078 27.7789C26.0084 27.7836 26.0075 27.7884 26.0053 27.7926C26.0031 27.7967 25.9996 27.8001 25.9954 27.8023C25.0581 28.2667 25.1059 28.2382 25.1023 28.2546L24.7766 29.7616C24.7754 29.7666 24.7725 29.7712 24.7685 29.7744C24.7644 29.7776 24.7594 29.7794 24.7542 29.7794C24.749 29.7794 24.7439 29.7776 24.7399 29.7744C24.7358 29.7712 24.7329 29.7666 24.7318 29.7616C24.32 28.0517 24.3497 28.1504 24.3321 28.1438L23.295 27.7484C23.291 27.7461 23.2878 27.7427 23.2857 27.7386C23.2837 27.7345 23.2828 27.7299 23.2834 27.7253C23.2839 27.7208 23.2857 27.7165 23.2886 27.7129C23.2915 27.7094 23.2954 27.7068 23.2998 27.7054Z" fill="#4F8AB3"/>
<path d="M8.87787 28.7627L9.3792 28.6901C9.3851 28.6891 9.39062 28.6865 9.39511 28.6825C9.3996 28.6785 9.4029 28.6734 9.40463 28.6677L9.66801 27.7201C9.66941 27.7131 9.6732 27.7068 9.67871 27.7023C9.68423 27.6978 9.69115 27.6953 9.69828 27.6953C9.70541 27.6953 9.71233 27.6978 9.71784 27.7023C9.72336 27.7068 9.72715 27.7131 9.72855 27.7201L9.92472 28.6677C9.92605 28.6734 9.92897 28.6787 9.93314 28.6829C9.93732 28.687 9.94258 28.69 9.94834 28.6913L10.4406 28.7936C10.4467 28.795 10.4523 28.7983 10.4566 28.803C10.4608 28.8077 10.4635 28.8136 10.4643 28.8198C10.4651 28.8261 10.4639 28.8325 10.461 28.8381C10.4581 28.8437 10.4535 28.8482 10.4478 28.8511C9.90959 29.1181 9.93865 29.0982 9.93441 29.1187L9.74793 29.9791C9.74793 29.9871 9.74474 29.9948 9.73906 30.0005C9.73338 30.0062 9.72568 30.0094 9.71765 30.0094C9.70963 30.0094 9.70193 30.0062 9.69625 30.0005C9.69057 29.9948 9.68738 29.9871 9.68738 29.9791L9.46639 29.0624C9.46526 29.0575 9.46296 29.053 9.45969 29.0492C9.45642 29.0454 9.45228 29.0425 9.44762 29.0406L8.8706 28.8208C8.86439 28.8184 8.85917 28.8139 8.85576 28.8081C8.85236 28.8024 8.85097 28.7956 8.8518 28.789C8.85263 28.7823 8.85564 28.7762 8.86035 28.7714C8.86507 28.7667 8.87123 28.7636 8.87787 28.7627Z" fill="#4F8AB3"/>
<path d="M22.4996 5.32522L23.0016 5.25257C23.0075 5.25158 23.013 5.24896 23.0175 5.245C23.022 5.24104 23.0253 5.2359 23.027 5.23016L23.2904 4.28261C23.2918 4.27561 23.2955 4.26932 23.3011 4.2648C23.3066 4.26028 23.3135 4.25781 23.3206 4.25781C23.3278 4.25781 23.3347 4.26028 23.3402 4.2648C23.3457 4.26932 23.3495 4.27561 23.3509 4.28261L23.5471 5.23016C23.5484 5.23592 23.5513 5.24118 23.5555 5.24536C23.5597 5.24954 23.5649 5.25245 23.5707 5.25378L24.0629 5.3561C24.0703 5.35639 24.0773 5.35929 24.0827 5.36427C24.0881 5.36925 24.0915 5.37599 24.0924 5.38328C24.0933 5.39057 24.0915 5.39793 24.0874 5.40405C24.0834 5.41017 24.0773 5.41463 24.0702 5.41665C23.5319 5.68366 23.561 5.66368 23.5568 5.68427L23.3715 6.54161C23.3715 6.54964 23.3683 6.55734 23.3626 6.56302C23.3569 6.56869 23.3492 6.57188 23.3412 6.57188C23.3332 6.57188 23.3255 6.56869 23.3198 6.56302C23.3141 6.55734 23.3109 6.54964 23.3109 6.54161L23.0899 5.62493C23.0888 5.62005 23.0865 5.61551 23.0833 5.61171C23.08 5.60792 23.0758 5.60497 23.0712 5.60313L22.4942 5.38335C22.488 5.381 22.4827 5.37668 22.4792 5.37106C22.4757 5.36543 22.4741 5.35881 22.4747 5.35221C22.4754 5.34561 22.4781 5.33939 22.4826 5.33452C22.4871 5.32964 22.4931 5.32638 22.4996 5.32522Z" fill="#4F8AB3"/>
<path d="M26.0794 10.2659C25.9982 10.2659 25.9468 10.2659 25.9371 10.2659C25.913 10.2645 25.8905 10.2535 25.8745 10.2355C25.8585 10.2174 25.8503 10.1937 25.8517 10.1697C25.8532 10.1456 25.8641 10.123 25.8822 10.107C25.9002 10.091 25.9239 10.0828 25.948 10.0843C25.9595 10.0843 27.1353 10.1448 27.656 9.609C27.8413 9.41827 27.9218 9.16882 27.8982 8.86911C27.8861 8.70552 27.8523 8.54427 27.7977 8.38958C27.4677 8.55972 27.0033 8.60271 26.8635 8.29392C26.6491 7.82347 27.4689 7.44626 27.8746 8.1262C28.1107 7.9488 28.3117 7.64909 28.2034 7.218C28.1778 7.11446 28.137 7.01529 28.0823 6.92374C27.9776 7.01418 27.8557 7.08237 27.7238 7.12415C27.0766 7.33062 26.749 6.83232 27.0003 6.54351C27.2158 6.29708 27.7517 6.28921 28.0901 6.63857C28.1446 6.54975 28.1796 6.45044 28.1929 6.34714C28.2063 6.24384 28.1977 6.13889 28.1676 6.03915C28.0726 5.66013 27.8013 5.40947 27.3612 5.29322C27.1453 5.23873 26.9222 5.2183 26.7 5.23267C26.6759 5.23492 26.6519 5.2275 26.6333 5.21206C26.6147 5.19662 26.6029 5.17441 26.6007 5.15032C26.5984 5.12624 26.6059 5.10224 26.6213 5.08362C26.6367 5.065 26.6589 5.05328 26.683 5.05103C26.697 5.05103 28.0756 4.92993 28.3438 5.99556C28.425 6.3207 28.3559 6.58831 28.2088 6.78267C28.2861 6.90178 28.3424 7.03325 28.3753 7.17138C28.4994 7.66665 28.2754 8.0596 27.9515 8.2915C28.0188 8.47175 28.0596 8.66081 28.0726 8.85277C28.1676 9.89478 27.125 10.2659 26.0794 10.2659ZM27.0263 8.21581C27.0869 8.34599 27.3145 8.37505 27.5713 8.28544C27.6216 8.26765 27.6706 8.2462 27.7178 8.22126C27.4308 7.73083 26.9101 7.9597 27.0263 8.21581ZM27.1117 6.82323C27.2001 7.04847 27.676 7.04181 27.9733 6.77238C27.6094 6.38488 27.0039 6.54835 27.1117 6.82323Z" fill="#E83122"/>
<path d="M26.7265 10.6444C26.6998 10.6444 26.7731 10.6716 25.831 10.2781C25.8169 10.2722 25.8046 10.2628 25.7951 10.2509C25.7856 10.239 25.7793 10.2249 25.7767 10.2098C25.7741 10.1948 25.7753 10.1794 25.7803 10.165C25.7852 10.1506 25.7937 10.1376 25.805 10.1273L26.3832 9.59513C26.4013 9.58213 26.4236 9.57627 26.4458 9.57864C26.4679 9.58102 26.4885 9.59147 26.5034 9.60801C26.5184 9.62454 26.5267 9.64601 26.5269 9.66831C26.5271 9.69061 26.519 9.71219 26.5043 9.72893L26.0302 10.1649L26.7598 10.4676C26.7806 10.4746 26.7981 10.4889 26.8092 10.5078C26.8203 10.5267 26.8241 10.549 26.8201 10.5705C26.816 10.592 26.8043 10.6114 26.7871 10.625C26.7699 10.6385 26.7484 10.6455 26.7265 10.6444Z" fill="#E83122"/>
<path d="M5.05625 28.2006C3.72421 28.2006 2.38613 27.7343 2.50177 26.3993C2.51814 26.1468 2.57306 25.8983 2.66464 25.6624C2.24566 25.37 1.9514 24.8668 2.11003 24.2299C2.15354 24.048 2.2292 23.8754 2.33345 23.7201C2.1391 23.4694 2.04646 23.1261 2.15181 22.7065C2.49027 21.3527 4.25218 21.5041 4.27095 21.5059C4.29504 21.5081 4.31725 21.5199 4.33269 21.5385C4.34813 21.5571 4.35554 21.5811 4.3533 21.6052C4.35105 21.6293 4.33932 21.6515 4.3207 21.6669C4.30208 21.6824 4.27809 21.6898 4.254 21.6875C3.96406 21.6687 3.67295 21.6952 3.39121 21.7662C2.81117 21.9188 2.45394 22.2506 2.32921 22.7501C2.24203 23.0983 2.30923 23.3719 2.45031 23.5736C3.07878 22.893 4.14925 23.2557 3.91494 23.8527C3.73693 24.308 2.94195 24.3038 2.46181 23.8581C2.12578 24.3891 2.18632 25.1127 2.74335 25.5032C3.24408 24.6083 4.28912 25.0763 4.0221 25.663C3.89617 25.9397 3.50988 26.0209 3.06002 25.8634C2.97898 25.8355 2.9004 25.8009 2.82509 25.7599C2.74634 25.9703 2.69822 26.1909 2.6822 26.415C2.64769 26.811 2.75486 27.1416 2.99947 27.3923C3.68183 28.0946 5.21306 28.0159 5.2288 28.0159C5.25272 28.0149 5.27609 28.0232 5.29395 28.0392C5.31181 28.0551 5.32276 28.0774 5.32447 28.1013C5.32521 28.1132 5.32358 28.1251 5.31968 28.1365C5.31579 28.1478 5.3097 28.1582 5.30177 28.1671C5.29384 28.1761 5.28422 28.1834 5.27347 28.1886C5.26271 28.1938 5.25103 28.1968 5.2391 28.1975C5.22638 28.1975 5.16039 28.2006 5.05625 28.2006ZM2.90138 25.597C2.9719 25.6335 3.04495 25.6649 3.11996 25.6909C3.46507 25.812 3.77507 25.7678 3.85742 25.5867C3.87918 25.5423 3.88678 25.4922 3.8792 25.4433C3.87162 25.3943 3.84923 25.3489 3.81503 25.3131C3.75098 25.2505 3.67031 25.2077 3.58262 25.1897C3.49493 25.1716 3.4039 25.1792 3.32037 25.2114C3.14902 25.2695 3.00855 25.4027 2.90138 25.5983V25.597ZM2.5714 23.7116C2.69211 23.8252 2.83703 23.9098 2.99523 23.9592C3.34216 24.07 3.66548 23.9956 3.74783 23.7855C3.76593 23.7458 3.77196 23.7017 3.76518 23.6586C3.7584 23.6156 3.7391 23.5755 3.70968 23.5433C3.60675 23.4258 3.35185 23.3423 3.06365 23.4119C2.87238 23.4589 2.7004 23.564 2.5714 23.7128V23.7116Z" fill="#E83122"/>
<path d="M4.21925 28.6848C4.19836 28.6847 4.17814 28.6774 4.16201 28.6641C4.14588 28.6508 4.13482 28.6324 4.13069 28.6119C4.12657 28.5914 4.12963 28.5701 4.13937 28.5517C4.1491 28.5332 4.16491 28.5186 4.18414 28.5104L5.16499 28.0999L4.52199 27.5102C4.50726 27.4934 4.4992 27.4719 4.49936 27.4496C4.49951 27.4273 4.50787 27.4058 4.52284 27.3893C4.5378 27.3727 4.55833 27.3623 4.5805 27.3599C4.60268 27.3575 4.62495 27.3634 4.64308 27.3764L5.39144 28.0636C5.40267 28.0739 5.41113 28.0869 5.41602 28.1013C5.42091 28.1158 5.42208 28.1312 5.41943 28.1463C5.41677 28.1613 5.41038 28.1754 5.40083 28.1873C5.39128 28.1992 5.37889 28.2085 5.3648 28.2143C4.17082 28.7139 4.24589 28.6848 4.21925 28.6848Z" fill="#E83122"/>
<path d="M6.15625 11.7535C6.15625 11.7535 6.15625 24.1868 7.95449 24.6815C9.75273 25.1761 25.4229 24.9273 25.7656 22.9541C26.1083 20.9809 24.5655 10.5819 23.7282 10.011C22.8908 9.44002 6.51045 9.80451 6.15625 11.7535Z" fill="#FDB93F"/>
<path d="M12.6446 14.8791C12.6446 14.8791 13.6134 22.4971 14.4144 22.5686C15.2155 22.64 20.8082 17.3277 20.7718 16.5666C20.7355 15.8055 15.2706 14.4153 14.3381 14.1489C13.4057 13.8825 12.5447 14.1417 12.6446 14.8791Z" fill="#EB3122"/>
<path d="M14.3284 13.0822C14.062 13.082 13.8024 12.9982 13.5862 12.8425C13.37 12.6868 13.2082 12.4672 13.1236 12.2145C13.1133 12.1841 13.1155 12.1508 13.1298 12.1221C13.144 12.0933 13.1691 12.0713 13.1995 12.0611C13.23 12.0508 13.2632 12.053 13.292 12.0673C13.3208 12.0815 13.3427 12.1066 13.353 12.137C13.4218 12.3412 13.553 12.5187 13.728 12.6444C13.903 12.7701 14.113 12.8377 14.3284 12.8377C14.5439 12.8377 14.7539 12.7701 14.9289 12.6444C15.1039 12.5187 15.235 12.3412 15.3038 12.137C15.3089 12.122 15.3169 12.1081 15.3274 12.0961C15.3379 12.0841 15.3506 12.0743 15.3649 12.0673C15.3791 12.0602 15.3946 12.056 15.4105 12.055C15.4263 12.0539 15.4423 12.056 15.4573 12.0611C15.4724 12.0661 15.4863 12.0741 15.4983 12.0846C15.5103 12.0951 15.5201 12.1078 15.5271 12.1221C15.5342 12.1363 15.5384 12.1518 15.5394 12.1677C15.5405 12.1836 15.5384 12.1995 15.5333 12.2145C15.4482 12.4669 15.2863 12.6862 15.0702 12.8418C14.8541 12.9974 14.5947 13.0815 14.3284 13.0822Z" fill="black"/>
<path d="M18.7818 7.27327C18.7632 7.27325 18.7448 7.26892 18.7281 7.26062C18.7114 7.25233 18.6968 7.24029 18.6856 7.22544C18.5722 7.08124 18.4303 6.96202 18.2687 6.87523C18.1071 6.78844 17.9293 6.73596 17.7465 6.72108C17.5712 6.71187 17.3959 6.73788 17.2309 6.79757C17.0658 6.85726 16.9144 6.94943 16.7856 7.06862C16.7742 7.08025 16.7605 7.08945 16.7455 7.09568C16.7304 7.1019 16.7142 7.10502 16.6979 7.10485C16.6816 7.10468 16.6655 7.10122 16.6506 7.09467C16.6357 7.08813 16.6222 7.07864 16.6111 7.06677C16.5999 7.05491 16.5912 7.04091 16.5856 7.02561C16.58 7.01032 16.5775 6.99404 16.5783 6.97776C16.5791 6.96148 16.5832 6.94553 16.5903 6.93087C16.5974 6.91621 16.6074 6.90313 16.6197 6.89243C16.7751 6.74564 16.9596 6.63321 17.1613 6.56244C17.363 6.49167 17.5773 6.46416 17.7904 6.48169C18.0034 6.49923 18.2103 6.56141 18.3977 6.6642C18.5852 6.767 18.7488 6.90809 18.8781 7.07831C18.8919 7.09625 18.9004 7.11771 18.9027 7.14025C18.9049 7.16278 18.9008 7.18549 18.8907 7.20579C18.8807 7.2261 18.8652 7.24318 18.8459 7.25511C18.8267 7.26704 18.8045 7.27333 18.7818 7.27327Z" fill="black"/>
<path d="M9.05696 7.27327C9.03431 7.27333 9.0121 7.26704 8.99286 7.25511C8.97361 7.24318 8.95809 7.2261 8.94806 7.20579C8.93804 7.18549 8.9339 7.16278 8.93614 7.14025C8.93837 7.11771 8.94687 7.09625 8.96069 7.07831C9.08997 6.90809 9.25364 6.767 9.44104 6.6642C9.62845 6.56141 9.8354 6.49923 10.0484 6.48169C10.2615 6.46416 10.4758 6.49167 10.6775 6.56244C10.8792 6.63321 11.0637 6.74564 11.2191 6.89243C11.2314 6.90313 11.2414 6.91621 11.2485 6.93087C11.2556 6.94553 11.2597 6.96148 11.2605 6.97776C11.2613 6.99404 11.2588 7.01032 11.2532 7.02561C11.2476 7.04091 11.2389 7.05491 11.2277 7.06677C11.2166 7.07864 11.2031 7.08813 11.1882 7.09467C11.1732 7.10122 11.1572 7.10468 11.1409 7.10485C11.1246 7.10502 11.1084 7.1019 11.0933 7.09568C11.0783 7.08945 11.0646 7.08025 11.0532 7.06862C10.9244 6.94937 10.773 6.85717 10.608 6.79747C10.4429 6.73777 10.2676 6.7118 10.0923 6.72108C9.90954 6.73618 9.73184 6.78875 9.57027 6.87552C9.40871 6.96229 9.26674 7.08141 9.15322 7.22544C9.14194 7.24029 9.12739 7.25233 9.11069 7.26062C9.09399 7.26892 9.0756 7.27325 9.05696 7.27327Z" fill="black"/>
<path d="M18.5825 12.9667C19.0185 12.9667 19.372 12.7398 19.372 12.4599C19.372 12.18 19.0185 11.9531 18.5825 11.9531C18.1465 11.9531 17.793 12.18 17.793 12.4599C17.793 12.7398 18.1465 12.9667 18.5825 12.9667Z" fill="#DB9019"/>
<path d="M9.11961 12.9667C9.55566 12.9667 9.90914 12.7398 9.90914 12.4599C9.90914 12.18 9.55566 11.9531 9.11961 11.9531C8.68356 11.9531 8.33008 12.18 8.33008 12.4599C8.33008 12.7398 8.68356 12.9667 9.11961 12.9667Z" fill="#DB9019"/>
<path d="M14.0012 24.9654C10.7274 24.9654 7.99435 24.7492 7.94652 24.7456C7.93046 24.7443 7.91557 24.7367 7.90513 24.7244C7.89468 24.7122 7.88953 24.6963 7.89082 24.6802C7.8921 24.6641 7.89971 24.6492 7.91198 24.6388C7.92424 24.6284 7.94015 24.6232 7.95621 24.6245C8.0331 24.6305 15.7062 25.2372 20.7576 24.4071C25.8091 23.577 25.783 23.2791 25.7503 22.2571C25.7213 21.2448 25.0716 11.8291 23.6772 10.0515C23.6673 10.0388 23.6627 10.0227 23.6647 10.0067C23.6666 9.99064 23.6748 9.97605 23.6875 9.9661C23.7002 9.95614 23.7163 9.95163 23.7323 9.95356C23.7483 9.95549 23.7629 9.9637 23.7729 9.97639C25.186 11.7789 25.8418 21.2381 25.8714 22.2535C25.9017 23.356 25.9435 23.6775 20.777 24.5264C18.7227 24.8667 16.236 24.9654 14.0012 24.9654Z" fill="black"/>
<path d="M24.7788 22.8747C24.7624 22.8746 24.7463 22.8701 24.7322 22.8617C24.7182 22.8533 24.7066 22.8412 24.6988 22.8268C24.691 22.8123 24.6872 22.7961 24.6879 22.7797C24.6885 22.7633 24.6936 22.7474 24.7025 22.7336C24.8672 22.4848 24.9761 22.09 25.027 21.5614C25.0293 21.5374 25.0411 21.5152 25.0598 21.4998C25.0785 21.4844 25.1025 21.4771 25.1266 21.4794C25.1507 21.4817 25.1729 21.4935 25.1883 21.5122C25.2036 21.5309 25.211 21.5549 25.2086 21.579C25.1548 22.1372 25.0361 22.5599 24.8551 22.8335C24.8468 22.8462 24.8355 22.8566 24.8221 22.8638C24.8088 22.871 24.7939 22.8747 24.7788 22.8747ZM25.142 20.3923C25.1187 20.3921 25.0963 20.383 25.0795 20.3668C25.0627 20.3505 25.0528 20.3284 25.0518 20.3051C25.0361 19.92 25.0028 19.495 24.9531 19.0427C24.9518 19.0308 24.9529 19.0187 24.9562 19.0072C24.9596 18.9957 24.9652 18.9849 24.9727 18.9755C24.9802 18.9662 24.9895 18.9584 25 18.9526C25.0105 18.9468 25.022 18.9432 25.034 18.9419C25.0459 18.9406 25.058 18.9416 25.0695 18.945C25.081 18.9483 25.0918 18.9539 25.1011 18.9614C25.1105 18.9689 25.1183 18.9782 25.124 18.9887C25.1298 18.9992 25.1335 19.0108 25.1348 19.0227C25.185 19.4792 25.2189 19.9085 25.2341 20.2978C25.2343 20.3101 25.2321 20.3223 25.2275 20.3337C25.2229 20.3451 25.216 20.3554 25.2073 20.3641C25.1986 20.3728 25.1882 20.3796 25.1768 20.3841C25.1653 20.3886 25.1531 20.3908 25.1408 20.3905L25.142 20.3923ZM24.872 17.862C24.8504 17.8621 24.8295 17.8545 24.813 17.8405C24.7966 17.8265 24.7857 17.8071 24.7824 17.7857C24.6668 17.0561 24.5572 16.5421 24.556 16.5367C24.5527 16.5247 24.5519 16.5122 24.5536 16.5C24.5554 16.4877 24.5596 16.476 24.566 16.4654C24.5725 16.4548 24.581 16.4457 24.5911 16.4386C24.6012 16.4314 24.6126 16.4264 24.6248 16.4238C24.6369 16.4213 24.6494 16.4212 24.6615 16.4237C24.6736 16.4261 24.6851 16.431 24.6953 16.4381C24.7055 16.4451 24.7141 16.4542 24.7206 16.4647C24.7272 16.4752 24.7315 16.4869 24.7334 16.4991C24.7334 16.504 24.8454 17.0228 24.9616 17.7573C24.9635 17.7702 24.9625 17.7834 24.9587 17.7959C24.955 17.8084 24.9486 17.8199 24.9399 17.8297C24.9313 17.8395 24.9207 17.8473 24.9087 17.8525C24.8968 17.8578 24.8838 17.8604 24.8708 17.8602L24.872 17.862Z" fill="black"/>
<path d="M6.67935 14.9837C6.64138 14.9838 6.60476 14.9696 6.57681 14.9439C6.54886 14.9182 6.53164 14.8829 6.52859 14.845C6.52859 14.8371 6.45654 14.0149 6.46804 13.1788C6.49529 11.5773 6.80347 11.3018 7.03294 11.2328C7.07148 11.2214 7.11297 11.2258 7.14829 11.245C7.1836 11.2641 7.20984 11.2966 7.22124 11.3351C7.23265 11.3737 7.22827 11.4151 7.20908 11.4505C7.18989 11.4858 7.15746 11.512 7.11892 11.5234C6.84646 11.6039 6.65755 12.8875 6.82708 14.819C6.82891 14.8396 6.82648 14.8605 6.81992 14.8802C6.81337 14.8998 6.80284 14.918 6.78898 14.9334C6.77513 14.9488 6.75825 14.9613 6.73939 14.9699C6.72053 14.9786 6.70009 14.9832 6.67935 14.9837Z" fill="white"/>
<path d="M6.77315 15.4141C6.48071 15.4141 6.5243 15.8663 6.81492 15.8663C7.10555 15.8663 7.06377 15.4141 6.77315 15.4141Z" fill="white"/>
<path d="M7.01373 20.6631C6.98056 20.6631 6.94832 20.6522 6.92195 20.6321C6.89559 20.612 6.87657 20.5837 6.86781 20.5517C6.67104 19.8252 6.64379 16.5556 6.64258 16.417C6.64258 16.3768 6.65853 16.3383 6.68691 16.31C6.7153 16.2816 6.7538 16.2656 6.79395 16.2656C6.83409 16.2656 6.87259 16.2816 6.90098 16.31C6.92937 16.3383 6.94531 16.3768 6.94531 16.417C6.94531 16.4509 6.97316 19.7882 7.16025 20.4736C7.16608 20.496 7.1667 20.5194 7.16207 20.5421C7.15744 20.5648 7.14767 20.5861 7.13352 20.6044C7.11937 20.6227 7.10122 20.6375 7.08045 20.6477C7.05969 20.6579 7.03686 20.6632 7.01373 20.6631Z" fill="white"/>
<path d="M16.1012 15.1632C16.0915 15.1589 15.1137 14.7781 14.2945 14.5577C13.5631 14.3579 13.1962 14.8138 13.1926 14.8187C13.1803 14.8343 13.1651 14.8474 13.1478 14.8572C13.1305 14.867 13.1114 14.8733 13.0917 14.8757C13.0719 14.8781 13.0519 14.8766 13.0328 14.8713C13.0136 14.866 12.9957 14.857 12.98 14.8447C12.9644 14.8325 12.9513 14.8173 12.9415 14.8C12.9317 14.7826 12.9254 14.7636 12.923 14.7438C12.9206 14.7241 12.9221 14.7041 12.9274 14.6849C12.9327 14.6658 12.9418 14.6479 12.954 14.6322C12.974 14.6068 13.4511 14.0134 14.3744 14.2653C15.2094 14.4899 16.2011 14.8786 16.2114 14.8786C16.2488 14.8932 16.2789 14.9221 16.295 14.9589C16.3112 14.9957 16.312 15.0374 16.2974 15.0748C16.2828 15.1122 16.2539 15.1423 16.2171 15.1584C16.1803 15.1745 16.1386 15.1754 16.1012 15.1608V15.1632Z" fill="white"/>
<path d="M16.7768 15.0312C16.485 15.0312 16.528 15.4835 16.8186 15.4835C17.1092 15.4835 17.0674 15.0312 16.7768 15.0312Z" fill="white"/>
<path d="M7.60787 9.03828C7.60787 9.03828 7.44864 11.2125 7.95239 11.3718C8.45614 11.531 13.2551 11.6896 13.467 11.3718C13.6789 11.0539 13.5996 8.5866 13.467 8.37589C13.3344 8.16519 8.40346 8.30929 8.11162 8.37589C7.81979 8.4425 7.62967 8.53634 7.60787 9.03828Z" fill="#0069AB"/>
<path d="M8.93555 8.69466C8.93555 8.69466 8.26953 8.69466 8.18961 8.87328C8.10969 9.05189 8.04066 10.703 8.25016 10.8816C8.45965 11.0602 12.6943 11.2298 12.9825 11.0409C13.2707 10.8519 13.304 8.74431 13.1387 8.64501C12.9734 8.54572 9.56887 8.60626 8.93555 8.69466Z" fill="#F15C2B"/>
<path d="M21.0505 9.03828C21.0505 9.03828 21.2098 11.2125 20.706 11.3718C20.2023 11.531 15.4033 11.6896 15.1914 11.3718C14.9795 11.0539 15.0588 8.5866 15.1914 8.37589C15.324 8.16519 20.2549 8.30929 20.5468 8.37589C20.8386 8.4425 21.0293 8.53634 21.0505 9.03828Z" fill="#0069AB"/>
<path d="M19.7204 8.69466C19.7204 8.69466 20.3865 8.69466 20.4664 8.87328C20.5463 9.05189 20.6153 10.703 20.4058 10.8816C20.1963 11.0602 15.9617 11.2298 15.6735 11.0409C15.3853 10.8519 15.352 8.74431 15.5179 8.64501C15.6838 8.54572 19.0871 8.60626 19.7204 8.69466Z" fill="#78CDD1"/>
<path d="M13.3711 9.40625H15.3001V10.3508H13.3711V9.40625Z" fill="#0069AB"/>
<path d="M15.7103 9.75563C15.7006 9.81013 15.6267 10.2721 15.8574 10.4259C16.0633 10.5627 16.3018 10.3127 16.8704 10.1686C17.6575 9.96997 18.0892 10.2225 18.1981 10.0117C18.3071 9.80104 17.9378 9.34573 17.5842 9.12716C17.3222 8.97079 17.0175 8.90088 16.7135 8.92735C16.5051 8.93309 16.3024 8.99728 16.1287 9.11263C15.9106 9.26414 15.7605 9.49491 15.7103 9.75563Z" fill="#BCF7F7"/>
<path d="M9.67663 9.92751C9.66755 9.982 9.59368 10.4446 9.82376 10.5978C10.0296 10.7346 10.2688 10.4845 10.8373 10.3404C11.6244 10.1418 12.0561 10.3943 12.1645 10.1836C12.2729 9.97292 11.9042 9.51761 11.5512 9.29903C11.2891 9.14267 10.9845 9.07276 10.6805 9.09923C10.4719 9.10533 10.2691 9.16949 10.095 9.2845C9.87698 9.43602 9.72683 9.66678 9.67663 9.92751Z" fill="#FFA58D"/>
<path d="M10.2928 10.3512C10.5041 10.3512 10.6755 10.1799 10.6755 9.96859C10.6755 9.75726 10.5041 9.58594 10.2928 9.58594C10.0815 9.58594 9.91016 9.75726 9.91016 9.96859C9.91016 10.1799 10.0815 10.3512 10.2928 10.3512Z" fill="black"/>
<path d="M16.3202 10.0544C16.5315 10.0544 16.7028 9.88305 16.7028 9.67172C16.7028 9.46038 16.5315 9.28906 16.3202 9.28906C16.1088 9.28906 15.9375 9.46038 15.9375 9.67172C15.9375 9.88305 16.1088 10.0544 16.3202 10.0544Z" fill="black"/>
<path d="M12.6357 8.50195H9.91113C9.88705 8.50195 9.86395 8.49238 9.84691 8.47535C9.82988 8.45832 9.82031 8.43522 9.82031 8.41113C9.82031 8.38705 9.82988 8.36395 9.84691 8.34691C9.86395 8.32988 9.88705 8.32031 9.91113 8.32031H12.6357C12.6598 8.32031 12.6829 8.32988 12.7 8.34691C12.717 8.36395 12.7266 8.38705 12.7266 8.41113C12.7266 8.43522 12.717 8.45832 12.7 8.47535C12.6829 8.49238 12.6598 8.50195 12.6357 8.50195Z" fill="white"/>
<path d="M13.0133 8.60871C13.0779 8.60871 13.1302 8.55639 13.1302 8.49186C13.1302 8.42732 13.0779 8.375 13.0133 8.375C12.9488 8.375 12.8965 8.42732 12.8965 8.49186C12.8965 8.55639 12.9488 8.60871 13.0133 8.60871Z" fill="white"/>
<path d="M20.8737 9.32795C20.8611 9.328 20.8486 9.32541 20.837 9.32037C20.8254 9.31532 20.8151 9.30791 20.8065 9.29863C20.798 9.28934 20.7914 9.27838 20.7874 9.26643C20.7833 9.25449 20.7818 9.24183 20.7829 9.22926C20.7968 9.07426 20.7829 8.73641 20.6472 8.68434C20.4795 8.61773 19.2153 8.53418 18.407 8.49422C18.3951 8.49368 18.3834 8.49078 18.3725 8.48571C18.3617 8.48064 18.352 8.47348 18.344 8.46465C18.3359 8.45582 18.3297 8.44549 18.3257 8.43425C18.3216 8.42302 18.3198 8.41109 18.3204 8.39916C18.3218 8.37507 18.3326 8.35249 18.3505 8.3363C18.3684 8.3201 18.392 8.31158 18.4161 8.31258C18.625 8.32287 20.465 8.41611 20.7169 8.51541C21.0135 8.63348 20.9718 9.18143 20.9663 9.24682C20.9639 9.2695 20.953 9.29045 20.9358 9.30548C20.9187 9.32051 20.8965 9.32853 20.8737 9.32795Z" fill="white"/>
<path d="M20.8427 9.76742C20.9316 9.76742 21.0038 9.69531 21.0038 9.60637C21.0038 9.51742 20.9316 9.44531 20.8427 9.44531C20.7537 9.44531 20.6816 9.51742 20.6816 9.60637C20.6816 9.69531 20.7537 9.76742 20.8427 9.76742Z" fill="white"/>
<path d="M5.07384 18.5815C2.44247 18.5815 0.908821 15.6637 2.17304 13.3587C2.18007 13.3437 2.19009 13.3304 2.20249 13.3194C2.21489 13.3085 2.2294 13.3002 2.24513 13.295C2.26086 13.2899 2.27747 13.288 2.29395 13.2896C2.31042 13.2911 2.3264 13.296 2.34091 13.304C2.35542 13.3119 2.36814 13.3228 2.37829 13.3359C2.38844 13.3489 2.39581 13.3639 2.39993 13.3799C2.40406 13.396 2.40486 13.4127 2.40229 13.429C2.39971 13.4454 2.39381 13.461 2.38495 13.475C2.16485 13.874 2.02787 14.3134 1.9823 14.7668C1.93672 15.2202 1.98348 15.6782 2.11976 16.113C2.62956 17.7587 4.24556 18.6796 5.93421 18.2243C6.71698 18.0119 7.39823 17.5271 7.85536 16.8571C7.86284 16.8413 7.87365 16.8273 7.88704 16.8161C7.90044 16.8049 7.9161 16.7967 7.93297 16.7921C7.94983 16.7875 7.96749 16.7866 7.98473 16.7895C8.00197 16.7923 8.01838 16.7989 8.03284 16.8087C8.0473 16.8185 8.05946 16.8314 8.06849 16.8463C8.07753 16.8613 8.08321 16.878 8.08516 16.8954C8.08711 16.9128 8.08528 16.9304 8.07979 16.947C8.07429 16.9636 8.06528 16.9788 8.05335 16.9915C7.72256 17.478 7.27858 17.8768 6.75959 18.1538C6.24059 18.4307 5.6621 18.5775 5.07384 18.5815Z" fill="black"/>
<path d="M1.7559 13.7077C1.7559 13.7077 2.50426 13.9693 2.66834 13.5261C2.83242 13.0828 3.08248 12.194 2.8627 12.2358C2.64291 12.2776 2.45098 12.6881 2.45098 12.6881C2.45098 12.6881 1.87578 12.3853 1.69233 12.4834C1.50887 12.5815 1.59424 12.7862 1.59424 12.7862C1.5489 12.7978 1.50765 12.8217 1.47498 12.8553C1.4423 12.8888 1.41947 12.9307 1.40897 12.9763C1.3932 13.0217 1.39209 13.0709 1.40578 13.1169C1.41946 13.163 1.44726 13.2036 1.48526 13.233C1.44829 13.2455 1.41682 13.2704 1.39627 13.3036C1.37571 13.3367 1.36736 13.376 1.37264 13.4146C1.38354 13.5557 1.59606 13.6677 1.7559 13.7077Z" fill="black"/>
<path d="M11.7792 4.4725C12.2527 4.4725 12.6366 4.08865 12.6366 3.61516C12.6366 3.14166 12.2527 2.75781 11.7792 2.75781C11.3057 2.75781 10.9219 3.14166 10.9219 3.61516C10.9219 4.08865 11.3057 4.4725 11.7792 4.4725Z" fill="#FDB93F"/>
<path d="M28.1512 27.1227C28.7137 27.1227 29.1696 26.6668 29.1696 26.1043C29.1696 25.5419 28.7137 25.0859 28.1512 25.0859C27.5888 25.0859 27.1328 25.5419 27.1328 26.1043C27.1328 26.6668 27.5888 27.1227 28.1512 27.1227Z" fill="#FDB93F"/>
<path d="M5.67475 24.8104C6.08839 24.8104 6.42371 24.4751 6.42371 24.0615C6.42371 23.6478 6.08839 23.3125 5.67475 23.3125C5.2611 23.3125 4.92578 23.6478 4.92578 24.0615C4.92578 24.4751 5.2611 24.8104 5.67475 24.8104Z" fill="#FDB93F"/>
</svg>
