<svg width="22" height="23" viewBox="0 0 22 23" fill="none" xmlns="http://www.w3.org/2000/svg">
<g clip-path="url(#clip0_339_28535)">
<path d="M7.55664 0.5H20.9681C21.5397 0.5 21.9998 0.959938 21.9998 1.53125V11.5C21.9998 12.0713 21.5397 12.5312 20.9681 12.5312H7.55664V0.5Z" fill="#D0E5F8"/>
<path d="M9.96401 2.5625C9.96401 3.70159 9.04024 4.625 7.90071 4.625C6.76118 4.625 5.8374 3.70159 5.8374 2.5625C5.8374 1.42341 6.76118 0.5 7.90071 0.5C9.04024 0.5 9.96401 1.42341 9.96401 2.5625Z" fill="#B0D2F0"/>
<path d="M10.3081 8.35892L11.0454 9.09591H13.3535C13.762 9.09591 14.0908 8.7672 14.0908 8.3589C14.0908 7.95059 13.762 7.62188 13.3535 7.62188H12.1513L10.6767 5.77935C10.1388 5.10726 9.93942 4.67383 8.83347 4.67383H6.99022C5.5606 4.67383 4.40967 5.82431 4.40967 7.25338V11.307L10.3081 11.307V8.35892Z" fill="#B0D2F0"/>
<path d="M20.9807 0.501465C19.8752 9.29775 11.2798 11.4773 7.55713 12.0117V12.5314H20.9686C21.5402 12.5314 22.0003 12.0714 22.0003 11.5001V1.53137C22.0003 0.964211 21.5465 0.508082 20.9807 0.501465Z" fill="#B0D2F0"/>
<path d="M18.561 6.6875H19.9366V10.125H18.561V6.6875Z" fill="#427096"/>
<path d="M9.62026 2.5625C9.62026 3.70159 8.69649 4.625 7.55696 4.625C6.41743 4.625 5.49365 3.70159 5.49365 2.5625C5.49365 1.42341 6.41743 0.5 7.55696 0.5C8.69649 0.5 9.62026 1.42341 9.62026 2.5625Z" fill="#FFD1B5"/>
<path d="M8.63026 0.804199C8.82724 1.12674 8.93179 1.49717 8.9325 1.87506C8.9325 3.01415 8.00873 3.93756 6.86919 3.93756C6.49028 3.93662 6.11894 3.83139 5.7959 3.63342C6.16967 4.24843 6.83708 4.62424 7.55696 4.62506C8.6965 4.62506 9.62027 3.70165 9.62027 2.56256C9.61918 1.84408 9.24412 1.17794 8.63026 0.804199Z" fill="#FFB98D"/>
<path d="M9.62031 8.06252L10.3081 8.75H12.7153C13.0963 8.75 13.403 8.44338 13.403 8.0625C13.403 7.68163 13.0963 7.375 12.7153 7.375H11.3397L9.96419 5.65625C9.46245 5.02931 9.27642 4.625 8.24476 4.625H6.52535C5.19177 4.625 4.11816 5.69819 4.11816 7.03125V10.8125L9.62031 10.8125V8.06252Z" fill="#427096"/>
<path d="M5.48869 7.71291C5.2987 7.71636 5.14751 7.87317 5.15107 8.06309V10.8874C5.1091 11.3843 5.87844 11.3843 5.83647 10.8874V8.06309C5.84009 7.86921 5.68267 7.7107 5.48869 7.71291Z" fill="#365B7A"/>
<path d="M18.5633 3.24805C18.5094 3.24843 18.4563 3.26147 18.4084 3.28611L15.9638 4.50666L15.4307 3.4409C15.3492 3.27603 15.1524 3.20447 14.984 3.2785L11.887 4.65384C11.4673 4.83992 11.7465 5.46923 12.1662 5.28314L14.9611 4.04229L15.5018 5.12328C15.5873 5.29288 15.7942 5.36106 15.9638 5.27553L18.7156 3.90019C19.0422 3.73927 18.9274 3.24777 18.5633 3.24805Z" fill="#549AD4"/>
<path d="M17.5018 2.90571C17.1252 2.93299 17.0614 3.45918 17.4206 3.57562L18.1238 3.81161L17.8699 4.5551C17.6824 5.00721 18.3929 5.2486 18.5198 4.77587L18.8853 3.70503C18.9466 3.52493 18.8499 3.32933 18.6696 3.26858L17.6389 2.92347C17.5949 2.90834 17.5483 2.9023 17.5018 2.90571Z" fill="#549AD4"/>
<path d="M16.39 5.99879C16.347 6.00107 16.3048 6.0114 16.2656 6.02924L13.1712 7.40458C12.7515 7.59067 13.0307 8.21997 13.4504 8.03389L16.5448 6.65855C16.9009 6.50794 16.7759 5.97541 16.39 5.99879Z" fill="#FFBD8D"/>
<path d="M9.91181 5.58984C8.75607 8.35874 5.95524 9.43673 4.11816 9.85718V10.8126H9.62031V8.06256L10.3081 8.75006H12.7153C13.0963 8.75006 13.403 8.44344 13.403 8.06256C13.403 7.68169 13.0963 7.37506 12.7153 7.37506H11.3397L9.9642 5.65631C9.9446 5.63182 9.93051 5.61365 9.91181 5.58984Z" fill="#365B7A"/>
<path d="M17.1855 8.75H15.81V10.125H17.1855V8.75Z" fill="#427096"/>
<path d="M19.8433 6.6875C19.1466 8.56451 16.9883 9.44133 15.8101 9.79199V10.125H17.1856H18.5611H19.9367V6.6875H19.8433Z" fill="#365B7A"/>
<path d="M18.561 7.71875H17.1855V10.125H18.561V7.71875Z" fill="#549AD4"/>
<path d="M18.5611 8.41016C18.1283 8.76468 17.6496 9.03895 17.1855 9.26013V10.1249H18.5611V8.41016Z" fill="#3588CB"/>
<path d="M6.97564 1.77578C6.80912 1.89738 6.60836 1.906 6.52724 1.79505C6.44612 1.68409 6.51536 1.49557 6.68188 1.37398C6.8484 1.25238 7.04916 1.24376 7.13028 1.35471C7.2114 1.46567 7.14216 1.65419 6.97564 1.77578Z" fill="#FFE5DD"/>
<path d="M7.48614 1.23742C7.40885 1.29386 7.31567 1.29786 7.27802 1.24636C7.24037 1.19486 7.2725 1.10736 7.34979 1.05092C7.42709 0.994484 7.52027 0.99048 7.55792 1.04198C7.59557 1.09348 7.56344 1.18098 7.48614 1.23742Z" fill="#FFE5DD"/>
<path d="M0 10.8125V13.9063L2.3986 15.2812V22.1562H11.3396V15.2812L13.7468 13.5625V10.8125H0Z" fill="#FFBD8D"/>
<path d="M11.8862 10.8125C10.8304 18.3006 5.42645 20.6966 2.39844 21.2573V22.1562H11.3394V15.2812L13.7466 13.5625V10.8125H11.8862Z" fill="#FFA465"/>
<path d="M1.71119 21.8125C1.25187 21.8118 1.25187 22.5009 1.71119 22.5002H20.2803C20.7397 22.5009 20.7397 21.8118 20.2803 21.8125H1.71119Z" fill="#FFA465"/>
</g>
<defs>
<clipPath id="clip0_339_28535">
<rect width="22" height="22" fill="white" transform="translate(0 0.5)"/>
</clipPath>
</defs>
</svg>
