<svg width="22" height="23" viewBox="0 0 22 23" fill="none" xmlns="http://www.w3.org/2000/svg">
<g clip-path="url(#clip0_339_28309)">
<path d="M22 11.5C22 17.5752 17.0752 22.5 11 22.5C4.92479 22.5 0 17.5752 0 11.5C0 5.42479 4.92479 0.5 11 0.5C17.0752 0.5 22 5.42479 22 11.5Z" fill="#84DEEA"/>
<path d="M10.8387 5.27037L9.72906 5.07617C9.64447 4.77791 9.52194 4.49576 9.36618 4.2356L10.0033 3.27971C10.1896 3.00041 10.1527 2.62846 9.91537 2.39113C9.67351 2.14909 9.29266 2.11603 9.01253 2.31274L8.06923 2.97507C7.81209 2.83072 7.53531 2.71725 7.24326 2.64105L7.01414 1.49583C6.94835 1.16669 6.65932 0.929688 6.32362 0.929688C5.98138 0.929688 5.68883 1.17558 5.62975 1.51262L5.43051 2.65163C5.13947 2.73102 4.86386 2.847 4.60823 2.9942L3.63908 2.34799C3.35979 2.16185 2.98784 2.19861 2.7505 2.43611C2.50864 2.67798 2.4754 3.05882 2.67212 3.33879L3.32538 4.26917C3.1723 4.53101 3.05229 4.8145 2.97089 5.11394L1.85521 5.33717C1.52606 5.40297 1.28906 5.692 1.28906 6.02786C1.28906 6.36993 1.53496 6.66266 1.87199 6.72157L2.9583 6.91174C3.03886 7.22444 3.16223 7.51985 3.32051 7.7926L2.70737 8.71223C2.52122 8.99153 2.55798 9.36348 2.79532 9.60098C3.03735 9.84285 3.4182 9.87592 3.69817 9.67937L4.58054 9.05984C4.85933 9.22383 5.16263 9.35106 5.48405 9.43314L5.69655 10.4961C5.76234 10.8254 6.05154 11.0623 6.38724 11.0623C6.72931 11.0623 7.02203 10.8165 7.08095 10.4793L7.26591 9.42239C7.58617 9.33646 7.88829 9.20688 8.16524 9.0397L9.07161 9.64395C9.35091 9.83009 9.72285 9.79333 9.96036 9.556C10.2022 9.31396 10.2353 8.93312 10.0387 8.65315L9.41016 7.75786C9.56508 7.48393 9.68425 7.18718 9.76112 6.87364L10.8555 6.65477C11.1848 6.58897 11.4216 6.29994 11.4216 5.96408C11.4216 5.62201 11.1759 5.32945 10.8387 5.27037ZM6.35535 7.20413C5.70964 7.20413 5.18629 6.68062 5.18629 6.03491C5.18629 5.38921 5.70964 4.86586 6.35535 4.86586C7.00105 4.86586 7.52457 5.38921 7.52457 6.03491C7.52457 6.68062 7.00105 7.20413 6.35535 7.20413Z" fill="#056099"/>
<path d="M5.33836 9.39242C5.07082 9.31118 4.81686 9.19906 4.58054 9.06008L3.69817 9.67961C3.4182 9.87615 3.03735 9.84309 2.79549 9.60105C2.55798 9.36372 2.52122 8.99177 2.70753 8.71247L3.32051 7.79284C3.1624 7.52009 3.03886 7.22468 2.95847 6.91198L1.87199 6.72181C1.53496 6.6629 1.28906 6.37017 1.28906 6.0281C1.28906 5.69241 1.52606 5.40321 1.85521 5.33741L2.97105 5.11434C3.05229 4.81474 3.1723 4.53141 3.32538 4.2694L2.67212 3.33903C2.47557 3.05906 2.50864 2.67822 2.7505 2.43635C2.98784 2.19885 3.35979 2.16209 3.63908 2.34823L4.60823 2.99444C4.8365 2.86285 5.08089 2.7566 5.33786 2.67872C4.64096 3.61614 4.22839 4.77747 4.22839 6.03515C4.22839 7.29333 4.64113 8.455 5.33836 9.39242Z" fill="#015081"/>
<path d="M6.35527 4.08643C5.27904 4.08643 4.40674 4.95889 4.40674 6.03496C4.40674 7.11119 5.27904 7.98366 6.35527 7.98366C7.4315 7.98366 8.30397 7.11119 8.30397 6.03496C8.30397 4.95889 7.4315 4.08643 6.35527 4.08643ZM6.35527 7.20418C5.70956 7.20418 5.18622 6.68066 5.18622 6.03496C5.18622 5.38925 5.70956 4.86591 6.35527 4.86591C7.00098 4.86591 7.52449 5.38925 7.52449 6.03496C7.52449 6.68066 7.00098 7.20418 6.35527 7.20418Z" fill="#012D4E"/>
<path d="M21.2441 12.5606C21.2515 13.6317 20.3473 14.5078 19.2763 14.5078H16.648C16.3353 14.5078 16.0708 14.7305 16.0075 15.0367C15.6441 16.7952 14.087 18.1172 12.2207 18.1172H9.42387C9.20651 18.1172 9.00359 18.2258 8.88257 18.4064C8.30417 19.2683 7.32109 19.8359 6.20508 19.8359H5.99023C4.21039 19.8359 2.76758 18.3931 2.76758 16.6133C2.76758 16.5336 2.76758 14.25 2.76758 14.25H2.77161C2.77228 14.2287 2.77328 14.2074 2.77412 14.1861C2.25229 13.8398 1.9082 13.2473 1.9082 12.5742C1.9082 11.7125 2.47217 10.9827 3.25098 10.7331C3.36578 10.6964 3.42336 10.5686 3.37854 10.4568C3.28941 10.2348 3.24023 9.99223 3.24023 9.73828C3.24023 8.67044 4.10599 7.80469 5.17383 7.80469H5.17618C5.2935 7.80486 5.38884 7.70952 5.38867 7.59219V7.58984C5.38867 6.522 6.25443 5.65625 7.32227 5.65625C7.62473 5.65625 7.91074 5.72591 8.16553 5.84978C8.26573 5.89845 8.38474 5.86102 8.44046 5.76451C8.77464 5.18628 9.39937 4.79688 10.1152 4.79688C10.6453 4.79688 11.1252 5.01021 11.4745 5.35564C11.5542 5.43452 11.6843 5.43452 11.7638 5.35564C12.1131 5.01038 12.5932 4.79688 13.123 4.79688C13.8391 4.79688 14.4638 5.18628 14.798 5.76451C14.8537 5.86102 14.9725 5.89845 15.0728 5.84978C15.3277 5.72591 15.6136 5.65625 15.916 5.65625C16.984 5.65625 17.8496 6.522 17.8496 7.58984V7.59219C17.8496 7.70952 17.9448 7.80486 18.0621 7.80469H18.0645C19.1325 7.80469 19.998 8.67044 19.998 9.73828C19.998 10.0023 19.945 10.2536 19.849 10.4828C19.8035 10.5914 19.8587 10.7163 19.9695 10.7564C20.7089 11.0243 21.2384 11.7301 21.2441 12.5606Z" fill="#FD5CA6"/>
<path d="M20.9184 13.6484C20.5714 14.1665 19.9809 14.5078 19.3105 14.5078C19.277 14.5078 17.8929 14.5078 16.9473 14.5078C15.6441 14.5078 14.584 13.4476 14.584 12.1445C14.584 11.9071 14.7763 11.7148 15.0137 11.7148C15.251 11.7148 15.4434 11.9071 15.4434 12.1445C15.4434 12.9738 16.1181 13.6484 16.9473 13.6484H19.2021C19.0794 12.9416 18.4621 12.4023 17.7207 12.4023C17.4835 12.4023 17.291 12.2099 17.291 11.9726C17.291 11.7353 17.4835 11.5429 17.7207 11.5429C18.9368 11.5429 19.9408 12.4661 20.0697 13.6484H20.9184ZM14.2048 14.5794C13.8302 14.5816 13.4762 14.6719 13.1618 14.8298C12.8805 13.8392 11.9683 13.1113 10.8887 13.1113C10.6515 13.1113 10.459 13.3036 10.459 13.541C10.459 13.5446 10.4595 13.548 10.4595 13.5517C10.4595 13.5554 10.459 13.5587 10.459 13.5624C10.459 14.3357 9.87236 14.9744 9.12074 15.0569C8.72714 14.2976 7.93423 13.7773 7.02148 13.7773H6.69469C7.02786 13.3745 7.23029 12.8598 7.23616 12.2989C7.23868 12.0637 7.06512 11.8569 6.83031 11.8444C6.58223 11.8311 6.37695 12.0283 6.37695 12.2734C6.37695 13.1027 5.70238 13.7773 4.87305 13.7773H4.09088C4.03482 13.7773 3.98245 13.7501 3.94972 13.7048C3.71977 13.3869 3.58398 12.9965 3.58398 12.5742C3.58398 11.7626 4.08417 11.0686 4.79298 10.7819C4.81363 10.7735 4.83595 10.7695 4.85828 10.7695H8.0957C8.92218 10.7695 9.59508 11.4395 9.59961 12.2648C9.60078 12.46 9.72331 12.6376 9.91214 12.6876C10.2 12.7637 10.459 12.5488 10.459 12.2734C10.459 10.9702 9.39886 9.9101 8.0957 9.9101H7.9438C8.1291 9.28957 8.70482 8.83588 9.38477 8.83588H12.8077C13.0364 8.83588 13.2362 8.66316 13.2511 8.43489C13.2674 8.18463 13.0692 7.9765 12.8223 7.9765H11.7083C11.507 6.88583 10.555 6.05482 9.40961 6.04308C9.17445 6.04056 8.96733 6.21579 8.95575 6.45061C8.94333 6.69801 9.14021 6.90228 9.38477 6.90228C10.0647 6.90228 10.6404 7.35597 10.8259 7.9765H9.38477C8.22847 7.9765 7.26419 8.81154 7.06143 9.9101H5.0889C4.99457 9.9101 4.91618 9.8344 4.91602 9.7399C4.91602 9.7394 4.91602 9.73872 4.91602 9.73822C4.91602 8.67038 5.78177 7.80463 6.84961 7.80463H6.85196C6.96928 7.80463 7.06445 7.70946 7.06445 7.59213V7.58978C7.06445 6.82239 7.5116 6.15939 8.15948 5.84703C7.9062 5.72484 7.62238 5.65619 7.32227 5.65619C6.25443 5.65619 5.38867 6.52194 5.38867 7.58978V7.59213C5.38867 7.70946 5.2935 7.80463 5.17618 7.80463H5.17383C4.10599 7.80463 3.24023 8.67038 3.24023 9.73822C3.24023 9.99217 3.28941 10.2347 3.37837 10.4568C3.42336 10.5686 3.36562 10.6963 3.25098 10.733C2.47217 10.9826 1.9082 11.7124 1.9082 12.5742C1.9082 13.2472 2.25229 13.8397 2.77396 14.186C2.77328 14.2073 2.77228 14.2286 2.77161 14.2499H2.76758V16.6132C2.76758 18.3931 4.21039 19.8359 5.99023 19.8359H6.20508C6.45685 19.8359 6.70157 19.8065 6.93655 19.752C6.22505 19.5873 5.60402 19.187 5.15956 18.638C5.0842 18.5446 5.12549 18.4062 5.23828 18.3657C6.14482 18.0411 6.79691 17.1779 6.80647 16.1634C6.80882 15.9291 6.63292 15.7231 6.39894 15.7115C6.15154 15.6991 5.94727 15.896 5.94727 16.1406C5.94727 16.8586 5.44138 17.4605 4.76747 17.6091C4.67868 17.6287 4.58905 17.5757 4.56438 17.4882C4.48582 17.2099 4.44336 16.9167 4.44336 16.6132V14.8095C4.44336 14.714 4.5209 14.6367 4.61641 14.6367H7.02148C7.84796 14.6367 8.52069 15.3067 8.52539 16.132C8.52657 16.3272 8.64909 16.5048 8.83792 16.5548C9.12561 16.6308 9.38477 16.416 9.38477 16.1406C9.38477 16.0555 9.38007 15.9717 9.37134 15.889C10.3272 15.7184 11.0859 14.9708 11.2734 14.0207C11.9077 14.1887 12.3788 14.7617 12.3919 15.4452C12.0569 15.853 11.8555 16.3747 11.8555 16.9425V18.1171H12.2207C12.3882 18.1171 12.553 18.106 12.7148 18.0854V16.9425C12.7148 16.1134 13.3896 15.4386 14.2188 15.4386C14.4633 15.4386 14.6602 15.2344 14.6479 14.9871C14.6365 14.7565 14.4358 14.5781 14.2048 14.5794ZM17.0762 9.37299C17.3135 9.37299 17.5059 9.18063 17.5059 8.9433C17.5059 8.48692 17.7105 8.07771 18.0324 7.80161C17.9293 7.78717 17.8496 7.69939 17.8496 7.59213V7.58978C17.8496 7.36588 17.8112 7.15103 17.7412 6.95096C17.0836 7.37108 16.6465 8.10692 16.6465 8.9433C16.6465 9.18063 16.8388 9.37299 17.0762 9.37299ZM12.3926 10.5546C12.3926 10.792 12.5851 10.9843 12.8223 10.9843C13.5757 10.9843 14.2475 10.6295 14.6805 10.0786C15.0978 10.7505 15.842 11.1992 16.6895 11.1992C16.9268 11.1992 17.1191 11.0068 17.1191 10.7695C17.1191 10.5321 16.9268 10.3398 16.6895 10.3398C15.8603 10.3398 15.1855 9.66521 15.1855 8.83588C15.1855 8.81406 15.1834 8.79274 15.1802 8.77176C15.1834 8.72191 15.1855 8.67172 15.1855 8.62103V5.7997C15.1474 5.81531 15.1097 5.83176 15.0728 5.84972C14.9725 5.89839 14.8537 5.86096 14.798 5.76445C14.6761 5.5538 14.5155 5.3685 14.3262 5.21777V8.62103C14.3262 9.45036 13.6516 10.1249 12.8223 10.1249C12.5851 10.1249 12.3926 10.3173 12.3926 10.5546Z" fill="#FD3D96"/>
<path d="M17.444 14.8036L16.7399 14.6804C16.6684 14.4271 16.5658 14.1872 16.4364 13.9647L16.8369 13.3641C17.023 13.0846 16.9863 12.7127 16.7487 12.4754C16.5069 12.2333 16.126 12.2003 15.8461 12.397L15.261 12.8077C15.0364 12.682 14.7948 12.5829 14.5402 12.5155L14.3989 11.8083C14.3331 11.4792 14.0439 11.2422 13.7082 11.2422C13.3661 11.2422 13.0734 11.4881 13.0145 11.8251L12.8913 12.5292C12.638 12.6007 12.3982 12.7033 12.1756 12.8327L11.5749 12.4322C11.2956 12.2461 10.9236 12.2828 10.6863 12.5202C10.4443 12.7622 10.4112 13.1431 10.6079 13.423L11.0186 14.008C10.8929 14.2327 10.7939 14.4742 10.7264 14.7289L10.0193 14.8702C9.69012 14.936 9.45312 15.2252 9.45312 15.5609C9.45312 15.903 9.69902 16.1957 10.0361 16.2546L10.7402 16.3778C10.8117 16.6309 10.9142 16.8709 11.0436 17.0935L10.6432 17.694C10.457 17.9735 10.4938 18.3455 10.7311 18.5828C10.9731 18.8247 11.3538 18.8577 11.634 18.6612L12.2189 18.2505C12.4436 18.3762 12.6852 18.4752 12.9398 18.5427L13.0811 19.2498C13.1469 19.579 13.4361 19.816 13.7718 19.816C14.1139 19.816 14.4066 19.5701 14.4655 19.233L14.5887 18.5289C14.8418 18.4574 15.0819 18.3549 15.3044 18.2254L15.905 18.6259C16.1844 18.8121 16.5564 18.7753 16.7937 18.5378C17.0356 18.2959 17.0687 17.9151 16.8721 17.6351L16.4614 17.05C16.5871 16.8254 16.6861 16.5839 16.7536 16.3295L17.4608 16.188C17.7899 16.1222 18.0269 15.8331 18.0269 15.4973C18.0269 15.1552 17.781 14.8625 17.444 14.8036ZM13.7399 16.6982C13.0942 16.6982 12.5709 16.1749 12.5709 15.5292C12.5709 14.8835 13.0942 14.3599 13.7399 14.3599C14.3856 14.3599 14.9091 14.8835 14.9091 15.5292C14.9091 16.1749 14.3858 16.6982 13.7399 16.6982Z" fill="#056099"/>
<path d="M14.507 18.9965L14.4655 19.233C14.4066 19.5701 14.1139 19.816 13.7718 19.816C13.4361 19.816 13.1469 19.579 13.0811 19.2498L12.9398 18.5427C12.6852 18.4752 12.4436 18.3762 12.2189 18.2505L11.634 18.6612C11.3538 18.8577 10.9731 18.8248 10.7311 18.5828C10.4938 18.3455 10.457 17.9735 10.6432 17.694L11.0436 17.0935C10.9142 16.8709 10.8117 16.6309 10.7402 16.3778L10.0361 16.2546C9.69902 16.1957 9.45312 15.9029 9.45312 15.5609C9.45312 15.2252 9.69012 14.9362 10.0193 14.8702L10.7264 14.7289C10.7939 14.4742 10.8929 14.2327 11.0186 14.0081L10.6079 13.423C10.4114 13.143 10.4443 12.7622 10.6863 12.5203C10.9236 12.2828 11.2956 12.2461 11.5749 12.4322L12.0944 12.7786C11.8983 13.3183 11.7914 13.9005 11.7914 14.5078C11.7914 16.4573 12.8928 18.1494 14.507 18.9965Z" fill="#015081"/>
<path d="M13.74 13.5806C12.664 13.5806 11.7915 14.453 11.7915 15.5293C11.7915 16.6053 12.664 17.4778 13.74 17.4778C14.8163 17.4778 15.6887 16.6053 15.6887 15.5293C15.6887 14.453 14.8163 13.5806 13.74 13.5806ZM13.74 16.6983C13.0943 16.6983 12.571 16.175 12.571 15.5293C12.571 14.8836 13.0943 14.36 13.74 14.36C14.3857 14.36 14.9093 14.8836 14.9093 15.5293C14.9093 16.175 14.3859 16.6983 13.74 16.6983Z" fill="#012D4E"/>
</g>
<defs>
<clipPath id="clip0_339_28309">
<rect width="22" height="22" fill="white" transform="translate(0 0.5)"/>
</clipPath>
</defs>
</svg>
