<svg width="27" height="26" viewBox="0 0 27 26" fill="none" xmlns="http://www.w3.org/2000/svg">
<g clip-path="url(#clip0_68_2728)">
<path d="M4.1083 6.44935C3.39269 6.99794 3.35658 7.14647 3.71459 8.06886C3.13406 7.26769 2.98969 7.21741 2.14062 7.52083C2.85623 6.97224 2.89229 6.82376 2.53433 5.90137C3.11486 6.70249 3.25918 6.75277 4.1083 6.44935Z" fill="#F3CA0B"/>
<path d="M3.87712 8.36751L3.67928 8.09446C3.11139 7.3108 2.98302 7.26591 2.15518 7.56186L1.89355 7.65535L2.114 7.48635C2.81178 6.95142 2.84372 6.81949 2.49359 5.91721L2.37166 5.60303L2.5694 5.87598C3.13719 6.65943 3.26541 6.70427 4.09355 6.40852L4.35518 6.31503L4.13473 6.48403C3.43685 7.01901 3.40491 7.15104 3.75509 8.05327L3.87712 8.36751ZM2.83362 7.30664C3.10763 7.30664 3.29522 7.45167 3.56893 7.8017C3.35418 7.18187 3.41273 6.96214 3.88403 6.57148C3.30009 6.75541 3.08387 6.68533 2.6797 6.16868C2.89445 6.78857 2.8359 7.00835 2.3647 7.39886C2.55305 7.33954 2.70311 7.30664 2.83362 7.30664Z" fill="black"/>
<path d="M23.8951 5.09845C23.0012 5.21621 22.8957 5.32682 22.745 6.30471C22.6424 5.32062 22.5424 5.20499 21.6553 5.04366C22.5492 4.9259 22.6547 4.81525 22.8053 3.8374C22.908 4.82149 23.008 4.93712 23.8951 5.09845Z" fill="#F3CA0B"/>
<path d="M22.7367 6.64452L22.7016 6.30922C22.6012 5.34666 22.5125 5.24382 21.6474 5.0865L21.374 5.03679L21.6495 5.00053C22.5212 4.88571 22.6149 4.7873 22.7622 3.83073L22.8135 3.49756L22.8486 3.83287C22.949 4.79548 23.0377 4.89826 23.9028 5.05558L24.1762 5.10529L23.9007 5.14155C23.029 5.25647 22.9353 5.35488 22.788 6.31135L22.7367 6.64452ZM21.9104 5.04989C22.508 5.18223 22.6604 5.35092 22.7524 6.00052C22.876 5.35615 23.0364 5.19518 23.6399 5.09219C23.0422 4.95991 22.8898 4.79121 22.7979 4.14157C22.6742 4.78593 22.5138 4.94696 21.9104 5.04989Z" fill="black"/>
<path d="M5.16437 2.9761C4.56571 3.16328 4.50665 3.25164 4.51985 3.93977C4.33227 3.27759 4.25 3.21025 3.6228 3.20538C4.22141 3.0182 4.28047 2.92979 4.26727 2.2417C4.4549 2.90389 4.53717 2.97122 5.16437 2.9761Z" fill="#F3CA0B"/>
<path d="M4.56993 4.27608L4.47801 3.95184C4.29515 3.30646 4.23116 3.2539 3.62255 3.24913L3.34473 3.24695L3.60991 3.16402C4.19079 2.98232 4.23675 2.91352 4.2238 2.2428L4.21735 1.90576L4.30927 2.2301C4.49213 2.87553 4.55611 2.92804 5.16478 2.93276L5.44255 2.93495L5.17742 3.01787C4.59648 3.19962 4.55058 3.26843 4.56348 3.93914L4.56993 4.27608ZM3.8632 3.16981C4.22304 3.19515 4.35086 3.29432 4.47761 3.65568C4.4937 3.2731 4.58719 3.14096 4.92402 3.01203C4.56424 2.98674 4.43627 2.88752 4.30962 2.52621C4.29362 2.90884 4.20003 3.04098 3.8632 3.16981Z" fill="black"/>
<path d="M21.6665 2.13821C21.0679 2.32539 21.0088 2.4138 21.0221 3.10188C20.8344 2.43975 20.7522 2.37236 20.125 2.36748C20.7236 2.1803 20.7827 2.09189 20.7695 1.40381C20.9571 2.06595 21.0393 2.13333 21.6665 2.13821Z" fill="#F3CA0B"/>
<path d="M21.0722 3.43795L20.9803 3.11351C20.7974 2.46813 20.7334 2.41557 20.1247 2.4108L19.8469 2.40862L20.1121 2.32569C20.6929 2.1441 20.7389 2.07519 20.7259 1.40442L20.7195 1.06738L20.8114 1.39167C20.9943 2.0371 21.0583 2.08966 21.6669 2.09438L21.9447 2.09657L21.6796 2.17949C21.0986 2.36124 21.0527 2.43005 21.0657 3.10077L21.0722 3.43795ZM20.3655 2.33148C20.7252 2.35682 20.8531 2.456 20.9799 2.81725C20.9958 2.43472 21.0894 2.30264 21.4262 2.1737C21.0664 2.14841 20.9385 2.04919 20.8118 1.68788C20.7958 2.07052 20.7022 2.20265 20.3655 2.33148Z" fill="black"/>
<path d="M18.4569 23.5386C18.4569 23.5386 17.5101 23.1863 18.9808 22.6385C20.5577 22.0511 19.7804 23.0597 19.7804 23.0597L20.0655 23.1131C20.0655 23.1131 21.3193 21.1746 22.4196 22.2959C23.52 23.4172 21.7501 24.2819 20.6239 24.691C19.4976 25.1002 18.3696 25.7755 18.4569 23.5386Z" fill="#00B871"/>
<path d="M19.2071 25.1593C19.0534 25.1593 18.9148 25.1249 18.7964 25.0404C18.5109 24.8364 18.3853 24.3543 18.4124 23.5674C18.3314 23.5314 18.1136 23.4174 18.1135 23.232C18.1135 23.0189 18.3923 22.8115 18.9657 22.5979C19.5356 22.3855 19.8666 22.3553 19.9773 22.5055C20.0862 22.6532 19.9354 22.9125 19.8558 23.0296L20.0452 23.0651C20.1576 22.8987 20.8068 21.9859 21.5707 21.9085C21.8905 21.876 22.1866 21.9962 22.4508 22.2655C22.745 22.5654 22.8594 22.8707 22.7908 23.1732C22.6319 23.8732 21.5328 24.4073 20.6388 24.7321C20.5286 24.7721 20.4185 24.8147 20.3095 24.8568C19.9106 25.0109 19.5266 25.1593 19.2071 25.1593ZM19.7246 22.4981C19.591 22.4981 19.368 22.5409 18.9962 22.6795C18.3042 22.9372 18.2007 23.1361 18.2007 23.2318C18.2006 23.3667 18.3967 23.4697 18.4723 23.498L18.5017 23.509L18.5005 23.5405C18.4703 24.3139 18.5837 24.7813 18.8471 24.9696C19.173 25.2025 19.7097 24.9952 20.2781 24.7756C20.3877 24.7332 20.4984 24.6905 20.609 24.6502C21.3243 24.3904 22.5477 23.8505 22.7059 23.1539C22.7676 22.8822 22.6608 22.6038 22.3886 22.3265C22.1439 22.077 21.8714 21.9662 21.5794 21.9951C20.7978 22.0743 20.1089 23.1262 20.1021 23.1368L20.0862 23.1613L19.7027 23.0895L19.746 23.0332C19.8138 22.945 19.9892 22.6682 19.9072 22.5572C19.8858 22.5282 19.8366 22.4981 19.7246 22.4981Z" fill="black"/>
<path d="M18.457 23.5387C18.457 23.5387 18.7514 23.5829 19.136 23.4111L18.457 23.5387Z" fill="white"/>
<path d="M18.5524 23.5878C18.4912 23.5878 18.4548 23.5826 18.4507 23.582L18.4636 23.4958C18.4664 23.4964 18.7515 23.5356 19.1184 23.3716L19.1539 23.4511C18.8933 23.5674 18.6739 23.5878 18.5524 23.5878Z" fill="black"/>
<path d="M19.5459 23.2275C19.5459 23.2275 19.6367 23.2057 19.7806 23.0601L19.5459 23.2275Z" fill="white"/>
<path d="M19.556 23.2697L19.5352 23.1852C19.536 23.185 19.6189 23.1616 19.7496 23.0293L19.8115 23.0905C19.6632 23.2406 19.5665 23.2672 19.556 23.2697Z" fill="black"/>
<path d="M20.0257 23.093L19.6726 23.7529L19.7494 23.794L20.1024 23.1341L20.0257 23.093Z" fill="black"/>
<path d="M20.108 23.1022L20.0237 23.124L20.179 23.725L20.2633 23.7032L20.108 23.1022Z" fill="black"/>
<path d="M21.4685 22.2225C22.0041 22.0822 22.5238 22.5731 22.4547 23.113L22.446 23.1141C22.4334 23.0547 22.4243 22.9945 22.4088 22.936C22.2928 22.4797 21.9066 22.2446 21.4685 22.2225Z" fill="black"/>
<path d="M17.1022 17.191C18.0893 17.576 18.7111 18.2179 19.0648 19.2367C19.4181 20.2544 19.4756 21.5641 19.3792 22.6316C19.3172 23.3185 18.2419 23.27 18.3045 22.5778C18.3781 21.7631 18.3291 20.8335 18.1673 20.0336C17.9947 19.1799 17.5885 18.5334 16.774 18.2157C16.1322 17.9653 16.4548 16.9384 17.1022 17.191Z" fill="black"/>
<path d="M18.8256 23.1807C18.6945 23.1807 18.5647 23.1436 18.4619 23.0711C18.3037 22.9597 18.2271 22.7826 18.2461 22.5723C18.3196 21.7581 18.27 20.8369 18.1098 20.045C17.9259 19.1352 17.482 18.5546 16.7526 18.2701C16.5447 18.189 16.4067 18.0193 16.3739 17.8046C16.3392 17.5778 16.4283 17.3355 16.5955 17.2016C16.7424 17.084 16.9298 17.0608 17.1235 17.1363C18.1289 17.5285 18.7633 18.1898 19.1201 19.2173C19.5686 20.5092 19.4915 22.039 19.4375 22.6367C19.4175 22.8587 19.2992 23.0305 19.1045 23.1207C19.0175 23.1609 18.9212 23.1807 18.8256 23.1807ZM16.9042 17.2096C16.8 17.2096 16.7219 17.2505 16.6687 17.293C16.5331 17.4016 16.4612 17.6001 16.4897 17.7869C16.5165 17.9616 16.6249 18.0945 16.7952 18.161C17.5647 18.4611 18.0323 19.0698 18.2247 20.0218C18.387 20.8244 18.4374 21.7579 18.3629 22.5829C18.3435 22.7967 18.4427 22.9143 18.5294 22.9753C18.6742 23.0773 18.8856 23.0929 19.0553 23.0143C19.2104 22.9425 19.3047 22.8047 19.3208 22.6262C19.4335 21.3787 19.3199 20.1503 19.0094 19.2558C18.6647 18.263 18.0519 17.6242 17.0809 17.2454C17.0154 17.2199 16.9565 17.2096 16.9042 17.2096Z" fill="black"/>
<path d="M10.3329 21.4541C10.3329 21.4541 11.0747 20.7683 10.8996 22.3279C10.7119 24.0001 10.1629 22.8513 10.1629 22.8513L9.98657 23.0815C9.98657 23.0815 11.1503 25.0754 9.65304 25.5511C8.15581 26.0267 8.18313 24.0571 8.32643 22.8675C8.46973 21.6778 8.3764 20.3664 10.3329 21.4541Z" fill="#00B871"/>
<path d="M9.23235 25.6672C9.02552 25.6672 8.84834 25.6068 8.7028 25.4863C8.14989 25.0285 8.16939 23.8067 8.28314 22.8624C8.29716 22.746 8.30889 22.6285 8.32052 22.5122C8.38354 21.882 8.443 21.2867 8.83971 21.0792C9.15039 20.9166 9.63738 21.022 10.3274 21.4015C10.3962 21.3454 10.5963 21.2024 10.7616 21.2863C10.9518 21.3824 11.011 21.7247 10.9428 22.3329C10.875 22.9373 10.7525 23.2462 10.5685 23.2772C10.388 23.3077 10.2244 23.0561 10.1558 22.9322L10.0386 23.0852C10.1363 23.2606 10.6578 24.252 10.382 24.9685C10.2665 25.2684 10.0257 25.4785 9.66612 25.5927C9.50977 25.6423 9.36494 25.6672 9.23235 25.6672ZM9.17334 21.0916C9.06015 21.0916 8.9626 21.1132 8.88008 21.1564C8.52502 21.3421 8.46778 21.9147 8.40715 22.5209C8.39547 22.6378 8.38369 22.7559 8.36957 22.8728C8.27857 23.6283 8.20809 24.9637 8.75836 25.4193C8.9728 25.5969 9.26942 25.6275 9.63982 25.5098C9.97284 25.404 10.1952 25.2114 10.3007 24.9374C10.5828 24.2047 9.95527 23.1145 9.94892 23.1036L9.9342 23.0784L10.1713 22.7685L10.202 22.8326C10.2502 22.9331 10.4196 23.2155 10.554 23.1914C10.632 23.1782 10.7749 23.0479 10.8563 22.3232C10.9386 21.5894 10.8078 21.4073 10.7225 21.364C10.6021 21.3032 10.4217 21.4316 10.3624 21.4863L10.3392 21.5076L10.3117 21.4923C9.82984 21.2244 9.45355 21.0916 9.17334 21.0916Z" fill="black"/>
<path d="M10.3328 21.4541C10.3328 21.4541 10.1604 21.6968 10.1401 22.1176L10.3328 21.4541Z" fill="white"/>
<path d="M10.1837 22.1199L10.0967 22.1157C10.1174 21.6872 10.29 21.4395 10.2974 21.4292L10.3684 21.4795C10.3667 21.4818 10.2031 21.7184 10.1837 22.1199Z" fill="black"/>
<path d="M10.1194 22.5664C10.1194 22.5664 10.0978 22.6573 10.1629 22.8514L10.1194 22.5664Z" fill="white"/>
<path d="M10.1215 22.8652C10.0544 22.665 10.0745 22.5667 10.077 22.5562L10.1617 22.5763L10.1194 22.5663L10.1618 22.5758C10.1617 22.5766 10.145 22.6612 10.204 22.8375L10.1215 22.8652Z" fill="black"/>
<path d="M9.59305 22.4432L9.52173 22.4932L9.95123 23.1062L10.0226 23.0562L9.59305 22.4432Z" fill="black"/>
<path d="M9.39069 22.9067L9.37207 22.9917L9.97843 23.1245L9.99705 23.0394L9.39069 22.9067Z" fill="black"/>
<path d="M10.1482 24.7358C10.0316 25.2771 9.35903 25.5193 8.90845 25.2138L8.91134 25.2056C8.96999 25.2211 9.02789 25.2401 9.0871 25.2528C9.55042 25.354 9.92758 25.1188 10.1482 24.7358Z" fill="black"/>
<path d="M13.7244 17.6151C13.2883 16.9118 12.5065 17.6614 12.94 18.3605C13.3599 19.0378 13.7533 20.3195 13.5059 21.0247C13.0667 22.2766 11.5537 21.8688 11.044 21.6916C10.9027 21.6425 10.7439 21.6687 10.6327 21.7687C10.5003 21.8878 10.4175 22.0562 10.4108 22.2381C10.4014 22.4929 10.5427 22.7335 10.7727 22.8545C11.1029 23.0018 11.9372 23.2874 12.9073 23.0812C13.5891 22.9363 14.1758 22.5443 14.4715 21.8259C14.9657 20.625 14.4558 18.7947 13.7244 17.6151Z" fill="black"/>
<path d="M12.2169 23.2116C11.4985 23.2116 10.9372 22.9923 10.7488 22.9082C10.4964 22.7755 10.3421 22.5124 10.3523 22.2361C10.3594 22.043 10.4474 21.8568 10.5935 21.7253C10.7181 21.6132 10.8981 21.5791 11.0632 21.6364C11.6437 21.8382 13.0383 22.1807 13.4505 21.0055C13.6973 20.3023 13.2758 19.0135 12.8901 18.3915C12.7284 18.1307 12.7102 17.8289 12.8414 17.5843C12.9408 17.399 13.1134 17.2804 13.2918 17.2748C13.4731 17.267 13.6468 17.3789 13.7742 17.5844C14.5228 18.7917 15.0213 20.644 14.5256 21.8484C14.2457 22.5287 13.6902 22.9749 12.9194 23.1388C12.6746 23.1908 12.4382 23.2116 12.2169 23.2116ZM10.9018 21.7262C10.8167 21.7262 10.7347 21.7559 10.672 21.8124C10.5492 21.9229 10.4754 22.0789 10.4694 22.2404C10.4608 22.4719 10.5906 22.6926 10.8 22.8028C11.0348 22.9075 11.8902 23.2377 12.8951 23.024C13.4051 22.9157 14.0831 22.616 14.4173 21.8037C14.898 20.6357 14.4076 18.828 13.6747 17.6462C13.5703 17.4778 13.4343 17.3856 13.2956 17.3919C13.1588 17.3962 13.0244 17.4911 12.9448 17.6396C12.8336 17.8469 12.8504 18.105 12.9898 18.3297C13.3978 18.9878 13.8234 20.2972 13.5612 21.0443C13.1014 22.3547 11.5035 21.9136 11.0248 21.7471C10.9843 21.733 10.9427 21.7262 10.9018 21.7262Z" fill="black"/>
<path d="M21.1275 7.22902C19.9892 2.94588 16.3279 -0.00730854 12.3486 0.418746C8.36822 0.844902 5.41417 4.50852 5.21069 8.93644L6.0043 8.86154C6.32108 4.80269 8.93672 1.51857 12.4407 1.14339C15.9425 0.768477 19.1902 3.41936 20.3617 7.31322L21.1275 7.22902Z" fill="#8AE3E2"/>
<path d="M5.16504 8.98454L5.16732 8.93447C5.37578 4.39792 8.39402 0.798346 12.344 0.37549C16.292 -0.0468067 20.0036 2.83046 21.1697 7.21791L21.1827 7.26686L20.3306 7.3604L20.3201 7.32572C19.1218 3.34315 15.8851 0.818912 12.4454 1.18667C9.00273 1.55529 6.37191 4.71267 6.04782 8.8649L6.04498 8.90141L5.16504 8.98454ZM13.1124 0.421447C12.8607 0.421447 12.6076 0.434853 12.3533 0.462072C8.4609 0.878783 5.48303 4.4188 5.2567 8.88841L5.96388 8.82168C6.12516 6.84472 6.84534 4.98937 7.99381 3.5935C9.16772 2.16665 10.7453 1.28117 12.4362 1.10019C14.1256 0.919103 15.8538 1.44962 17.3021 2.59336C18.7189 3.71228 19.8155 5.37054 20.393 7.266C20.8196 7.21908 20.9976 7.19953 21.0725 7.19135C19.9796 3.15531 16.7112 0.421447 13.1124 0.421447Z" fill="black"/>
<path d="M21.1368 7.22803L21.2431 8.22065C23.4294 8.21577 25.2994 9.78877 25.5275 11.9188C25.7556 14.0488 24.261 15.9831 22.1232 16.4412L22.2302 17.4405L6.25555 19.1508L6.14998 18.1648C6.04913 18.1834 5.9468 18.1989 5.84291 18.21C3.45751 18.4654 1.32495 16.821 1.08033 14.5362C0.835823 12.2525 2.57198 10.194 4.95738 9.93858C5.06128 9.92746 5.16457 9.92086 5.26694 9.91659L5.16223 8.93834C5.16685 8.98216 21.1368 7.22803 21.1368 7.22803Z" fill="#BD80DD"/>
<path d="M6.21688 19.1988L6.11166 18.2161C6.02061 18.2319 5.93378 18.2441 5.84755 18.2534C5.68282 18.2711 5.51884 18.2796 5.3569 18.2797C3.15477 18.2798 1.26688 16.6877 1.03704 14.541C0.917504 13.4246 1.25926 12.3265 1.99935 11.4488C2.73898 10.5719 3.78776 10.0202 4.95268 9.8955C5.03429 9.88666 5.12168 9.88011 5.21868 9.87534L5.11889 8.94315L5.16216 8.93853L5.16789 8.89577C5.37579 8.90933 15.7026 7.78132 21.1321 7.185L21.1755 7.18018L21.2823 8.17742C23.5035 8.19098 25.3436 9.7913 25.5708 11.9143C25.7982 14.0379 24.3385 15.9919 22.1706 16.4755L22.2781 17.4793L6.21688 19.1988ZM6.18824 18.1136L6.29422 19.103L22.1822 17.4019L22.0757 16.4071L22.1141 16.3989C24.2593 15.9392 25.7082 14.0152 25.4843 11.9236C25.2608 9.83598 23.4426 8.26441 21.2534 8.26441C21.2499 8.26441 21.2467 8.26441 21.2432 8.26441L21.204 8.26446L21.0982 7.2763C7.73011 8.74459 5.56983 8.95361 5.20979 8.97402L5.31521 9.95837L5.26875 9.96025C5.15489 9.96492 5.0545 9.97208 4.96198 9.98198C3.8195 10.1043 2.79098 10.6452 2.06592 11.505C1.34132 12.3642 1.00663 13.4391 1.12357 14.5317C1.36524 16.7886 3.48069 18.4189 5.83826 18.1669C5.93677 18.1563 6.0361 18.1417 6.14208 18.1222L6.18824 18.1136Z" fill="black"/>
<path d="M8.04212 7.87583L6.55322 8.03516L6.63413 8.79122L8.12303 8.63189L8.04212 7.87583Z" fill="#E33D59"/>
<path d="M6.59615 8.83895L6.50586 7.99633L8.0814 7.82764L8.17169 8.67025L6.59615 8.83895ZM6.60173 8.07362L6.67344 8.74317L8.07581 8.59301L8.00416 7.92341L6.60173 8.07362Z" fill="black"/>
<path d="M19.4069 6.65791L17.918 6.81738L17.999 7.57345L19.4879 7.41397L19.4069 6.65791Z" fill="#00B871"/>
<path d="M17.9602 7.62215L17.8699 6.77954L19.4454 6.61084L19.5357 7.45345L17.9602 7.62215ZM17.9657 6.85677L18.0375 7.52632L19.4398 7.37616L19.3682 6.70661L17.9657 6.85677Z" fill="black"/>
<path d="M16.5583 11.1742L10.0842 11.8677L10.5633 16.3403L17.0374 15.6468L16.5583 11.1742Z" fill="white"/>
<path d="M10.5239 16.389L10.0359 11.8297L16.5967 11.1274L17.0847 15.6867L10.5239 16.389ZM10.1317 11.9071L10.6012 16.2932L16.9889 15.6093L16.5193 11.2232L10.1317 11.9071Z" fill="black"/>
<path d="M16.95 14.8632L10.4944 15.5547L10.5775 16.3303L17.033 15.6389L16.95 14.8632Z" fill="#8AE3E2"/>
<path d="M10.5383 16.3789L10.446 15.5167L10.4893 15.5122L16.9883 14.8164L17.0806 15.6786L17.0373 15.6832L10.5383 16.3789ZM10.5418 15.5941L10.6157 16.2832L16.9848 15.6013L16.911 14.9122L10.5418 15.5941Z" fill="black"/>
<path d="M16.5535 11.1601L10.0979 11.8516L10.1663 12.4899L16.6218 11.7984L16.5535 11.1601Z" fill="#8AE3E2"/>
<path d="M10.1273 12.5386L10.0496 11.8137L16.5919 11.1133L16.6696 11.8382L16.6262 11.8428L10.1273 12.5386ZM10.1454 11.891L10.2045 12.4428L16.5736 11.7609L16.5146 11.2091L10.1454 11.891Z" fill="black"/>
<path d="M12.4438 13.915C12.4901 14.3474 12.1771 14.7354 11.7448 14.7817C11.3124 14.828 10.9244 14.515 10.8781 14.0826C10.8318 13.6503 11.1448 13.2623 11.5771 13.216C12.0095 13.1697 12.3975 13.4827 12.4438 13.915Z" fill="black"/>
<path d="M11.6604 14.8297C11.2416 14.8297 10.8804 14.5128 10.8348 14.0872C10.7861 13.6316 11.117 13.2214 11.5725 13.1726C12.0272 13.1247 12.4384 13.4547 12.4872 13.9103C12.5359 14.3658 12.205 14.7761 11.7495 14.8249C11.7196 14.828 11.6898 14.8297 11.6604 14.8297ZM11.6616 13.2549C11.6352 13.2549 11.6086 13.2563 11.5818 13.2591C11.174 13.3028 10.8777 13.6701 10.9214 14.0779C10.965 14.4857 11.3321 14.7816 11.7402 14.7383C12.1479 14.6946 12.4443 14.3273 12.4006 13.9195C12.3598 13.5385 12.0365 13.2549 11.6616 13.2549Z" fill="black"/>
<path d="M12.0277 13.9815C12.0473 14.165 11.9145 14.3295 11.7312 14.3492C11.5477 14.3689 11.3832 14.2361 11.3635 14.0526C11.3438 13.8692 11.4766 13.7046 11.66 13.685C11.8434 13.6654 12.008 13.7982 12.0277 13.9815Z" fill="white"/>
<path d="M11.6954 14.3947C11.5051 14.3947 11.341 14.2508 11.3203 14.0574C11.2981 13.8504 11.4485 13.664 11.6555 13.6418C11.8614 13.6198 12.0488 13.7701 12.071 13.977C12.0818 14.0772 12.0529 14.1757 11.9895 14.2542C11.9263 14.3327 11.8361 14.3818 11.7359 14.3925C11.7223 14.394 11.7088 14.3947 11.6954 14.3947ZM11.6959 13.7267C11.6855 13.7267 11.6752 13.7273 11.6647 13.7284C11.5055 13.7454 11.3898 13.8889 11.4069 14.0481C11.4239 14.2073 11.5672 14.3229 11.7266 14.3059C11.8037 14.2977 11.873 14.2599 11.9217 14.1995C11.9704 14.1391 11.9927 14.0633 11.9844 13.9862H11.9844C11.9685 13.8375 11.8423 13.7267 11.6959 13.7267Z" fill="black"/>
<path d="M16.3152 13.4712C16.3615 13.9035 16.0485 14.2915 15.6161 14.3379C15.1837 14.3841 14.7957 14.0712 14.7494 13.6388C14.7031 13.2065 15.0161 12.8184 15.4485 12.7721C15.8808 12.7258 16.2688 13.0388 16.3152 13.4712Z" fill="black"/>
<path d="M15.5306 14.386C15.3416 14.386 15.1597 14.322 15.0106 14.2017C14.8378 14.0624 14.7296 13.8641 14.706 13.6434C14.6824 13.4227 14.7461 13.2061 14.8855 13.0333C15.0248 12.8606 15.2231 12.7524 15.4438 12.7288C15.8992 12.6807 16.3095 13.011 16.3583 13.4666H16.3584C16.382 13.6873 16.3183 13.9039 16.1789 14.0767C16.0395 14.2494 15.8413 14.3575 15.6206 14.3812C15.5905 14.3843 15.5605 14.386 15.5306 14.386ZM15.5327 12.8111C15.5064 12.8111 15.4798 12.8125 15.453 12.8153C15.2554 12.8365 15.0779 12.9333 14.9532 13.088C14.8285 13.2427 14.7714 13.4366 14.7926 13.6341C14.8137 13.8317 14.9105 14.0092 15.0652 14.1339C15.2199 14.2586 15.414 14.3152 15.6114 14.2946C15.8089 14.2734 15.9864 14.1766 16.1111 14.0219C16.2359 13.8673 16.2929 13.6733 16.2718 13.4758C16.231 13.0948 15.9077 12.8111 15.5327 12.8111Z" fill="black"/>
<path d="M15.8892 13.5401C15.9089 13.7236 15.7761 13.8881 15.5927 13.9078C15.4093 13.9274 15.2447 13.7947 15.2251 13.6112C15.2054 13.4278 15.3382 13.2632 15.5216 13.2436C15.705 13.224 15.8696 13.3567 15.8892 13.5401Z" fill="white"/>
<path d="M15.5565 13.9534C15.4707 13.9534 15.388 13.9243 15.3203 13.8697C15.2418 13.8064 15.1926 13.7162 15.1819 13.616C15.1597 13.409 15.3101 13.2226 15.5171 13.2004C15.6171 13.1898 15.7158 13.2186 15.7943 13.282C15.8727 13.3453 15.9219 13.4354 15.9325 13.5357C15.9434 13.6359 15.9144 13.7343 15.8511 13.8128C15.7878 13.8913 15.6977 13.9405 15.5974 13.9513C15.5837 13.9527 15.5701 13.9534 15.5565 13.9534ZM15.5578 13.2853C15.5473 13.2853 15.5369 13.2859 15.5263 13.287C15.367 13.304 15.2514 13.4475 15.2684 13.6067C15.2767 13.6838 15.3145 13.7532 15.3749 13.8019C15.4354 13.8506 15.5111 13.8726 15.5882 13.8646C15.6653 13.8563 15.7346 13.8186 15.7833 13.7581C15.832 13.6977 15.8542 13.622 15.846 13.5449H15.846C15.8377 13.4677 15.8 13.3984 15.7395 13.3497C15.6874 13.3077 15.6238 13.2853 15.5578 13.2853Z" fill="black"/>
<path d="M16.6288 11.9776L10.1753 12.6694L10.1846 12.7559L16.638 12.064L16.6288 11.9776Z" fill="black"/>
<path d="M16.9125 14.627L10.459 15.3188L10.4683 15.4053L16.9218 14.7135L16.9125 14.627Z" fill="black"/>
<path d="M14.3151 13.2855C14.2882 13.1687 14.2051 13.0731 14.0914 13.0353C13.9358 12.9835 13.6803 12.996 13.4754 13.4049C13.1865 13.0502 12.9385 13.0933 12.7978 13.1775C12.695 13.2391 12.6347 13.3505 12.6338 13.4704C12.6291 14.0878 13.6025 14.5761 13.6064 14.578C13.6085 14.5763 14.4539 13.8875 14.3151 13.2855Z" fill="#BD80DD"/>
<path d="M13.6119 14.6292L13.5872 14.6171C13.5772 14.6121 12.5855 14.1162 12.5903 13.47C12.5914 13.3323 12.6607 13.2091 12.7755 13.1402C12.9053 13.0623 13.1629 12.9884 13.467 13.328C13.7001 12.9142 13.9885 12.955 14.1053 12.9939C14.2324 13.0362 14.3267 13.1415 14.3576 13.2756C14.5028 13.9051 13.6421 14.6053 13.6333 14.6121L13.6119 14.6292ZM13.0027 13.1632C12.9264 13.1632 12.8643 13.1885 12.8203 13.2148C12.7317 13.268 12.6783 13.3636 12.6774 13.4707C12.6734 14.0027 13.4501 14.4451 13.6007 14.5259C13.7303 14.4144 14.3924 13.8143 14.2728 13.2952C14.2488 13.1909 14.1758 13.1092 14.0778 13.0766C13.9531 13.0351 13.7143 13.0253 13.5143 13.4245L13.4842 13.4846L13.4416 13.4324C13.2714 13.2233 13.1202 13.1632 13.0027 13.1632Z" fill="black"/>
<path d="M6.14696 17.475C8.10259 17.2657 9.52552 15.5781 9.32515 13.7057C9.12478 11.8333 7.377 10.485 5.42136 10.6943C3.46573 10.9036 2.0428 12.5911 2.24317 14.4636C2.44354 16.336 4.19132 17.6842 6.14696 17.475Z" fill="#F3CA0B"/>
<path d="M5.74507 17.5403C4.93201 17.5403 4.15104 17.2784 3.5111 16.7847C2.76426 16.2086 2.29885 15.3861 2.20064 14.4685C1.99792 12.5752 3.44097 10.8627 5.41737 10.6511C6.3745 10.5489 7.31253 10.8092 8.05881 11.3849C8.8056 11.9609 9.27106 12.7837 9.36927 13.7011H9.36932C9.46753 14.6186 9.18682 15.5211 8.57881 16.2422C7.97132 16.9627 7.10961 17.4161 6.15259 17.5185C6.01614 17.5331 5.88014 17.5403 5.74507 17.5403ZM5.82454 10.7164C5.69261 10.7164 5.55977 10.7235 5.42657 10.7377C3.49789 10.9443 2.08958 12.6137 2.28707 14.4593C2.38279 15.353 2.83637 16.1544 3.56427 16.7157C4.29267 17.2776 5.20866 17.5318 6.14324 17.4319C7.07792 17.3318 7.91921 16.8894 8.51219 16.186C9.10475 15.4832 9.37836 14.604 9.28269 13.7104C9.18702 12.8167 8.73344 12.0153 8.00559 11.4538C7.38093 10.972 6.61845 10.7164 5.82454 10.7164Z" fill="black"/>
<path d="M7.73812 13.0652C7.67358 12.785 7.47416 12.5556 7.20131 12.4649C6.82797 12.3408 6.21463 12.3705 5.72292 13.3519C5.02981 12.5008 4.43465 12.6041 4.09721 12.8064C3.85061 12.9542 3.70584 13.2214 3.70365 13.5089C3.69243 14.9904 6.02817 16.1623 6.03736 16.1669C6.04249 16.1628 8.07115 14.5099 7.73812 13.0652Z" fill="white"/>
<path d="M6.04301 16.2184L6.01767 16.2056C5.92098 16.1569 3.64903 14.9945 3.6602 13.5085C3.66253 13.1996 3.81762 12.9231 4.07498 12.7688C4.37784 12.5874 4.98858 12.4168 5.7144 13.2731C6.23882 12.276 6.87754 12.3112 7.21514 12.4234C7.49987 12.518 7.71127 12.7542 7.78064 13.0552C8.11737 14.5157 6.08546 16.1839 6.06489 16.2006L6.04301 16.2184ZM4.59021 12.7098C4.39358 12.7098 4.23306 12.7756 4.11972 12.8435C3.88861 12.9821 3.74942 13.2309 3.74729 13.5092C3.73698 14.8776 5.76716 15.9775 6.03168 16.1149C6.24852 15.9316 8.00143 14.4005 7.69583 13.0748C7.63332 12.8037 7.4434 12.591 7.18767 12.5061C6.87003 12.4006 6.26253 12.3724 5.76193 13.3712L5.73177 13.4314L5.68926 13.3792C5.26631 12.8598 4.88712 12.7098 4.59021 12.7098Z" fill="black"/>
<path d="M5.31526 12.9451L3.98511 14.4272L4.04988 14.4854L5.38003 13.0033L5.31526 12.9451Z" fill="black"/>
<path d="M7.13866 12.4174L4.69165 15.2427L4.75744 15.2997L7.20445 12.4744L7.13866 12.4174Z" fill="black"/>
<path d="M7.74142 13.3745L5.45776 15.8159L5.5214 15.8754L7.80506 13.434L7.74142 13.3745Z" fill="black"/>
<path d="M3.86343 12.9853L3.80396 13.0488L6.57304 15.6404L6.63252 15.5769L3.86343 12.9853Z" fill="black"/>
<path d="M5.74486 13.2848L5.68213 13.3452L7.18487 14.9058L7.2476 14.8454L5.74486 13.2848Z" fill="black"/>
<path d="M6.38041 12.5564L6.32056 12.6196L7.68635 13.9119L7.74621 13.8486L6.38041 12.5564Z" fill="black"/>
<path d="M21.287 15.7114C23.2427 15.502 24.6655 13.8142 24.4649 11.9418C24.2643 10.0694 22.5164 8.72131 20.5608 8.93078C18.6051 9.14025 17.1824 10.828 17.3829 12.7004C17.5835 14.5728 19.3314 15.9209 21.287 15.7114Z" fill="#F3CA0B"/>
<path d="M20.8883 15.7774C19.0791 15.7775 17.5282 14.4694 17.3393 12.7058C17.1366 10.8125 18.5796 9.09999 20.556 8.88848C21.5133 8.78616 22.4512 9.04657 23.1975 9.62222C23.9443 10.1983 24.4097 11.0209 24.508 11.9384C24.6062 12.8559 24.3255 13.7583 23.7175 14.4795C23.11 15.2 22.2483 15.6534 21.2913 15.7558C21.156 15.7703 21.0213 15.7773 20.8883 15.7774ZM20.9633 8.95369C20.8313 8.95369 20.6985 8.96074 20.5653 8.97496C18.6366 9.18144 17.2283 10.8509 17.4258 12.6965C17.6099 14.4154 19.1233 15.6901 20.8883 15.6903C21.0184 15.6903 21.1496 15.6834 21.282 15.6692C22.2166 15.5691 23.0578 15.1267 23.6509 14.4233C24.2434 13.7205 24.517 12.8413 24.4214 11.9476C24.3257 11.0539 23.8721 10.2526 23.1443 9.69113C22.5197 9.20932 21.7572 8.95369 20.9633 8.95369Z" fill="black"/>
<path d="M22.887 11.4431C22.8225 11.1629 22.6231 10.9335 22.3502 10.8428C21.9769 10.7187 21.3636 10.7484 20.8718 11.7298C20.1787 10.8788 19.5836 10.982 19.2461 11.1843C18.9995 11.3321 18.8548 11.5993 18.8526 11.8869C18.8414 13.3684 21.1771 14.5402 21.1863 14.5449C21.1915 14.5407 23.2201 12.8879 22.887 11.4431Z" fill="white"/>
<path d="M21.1919 14.5963L21.1667 14.5836C21.07 14.535 18.7979 13.3756 18.8091 11.8864C18.8114 11.5776 18.9664 11.3011 19.2239 11.1468C19.5267 10.9654 20.1375 10.7948 20.8633 11.6511C21.3877 10.654 22.0263 10.6891 22.364 10.8013C22.6488 10.896 22.8601 11.1322 22.9295 11.4332C23.2662 12.8937 21.2343 14.5618 21.2138 14.5785L21.1919 14.5963ZM19.7391 11.0878C19.5425 11.0878 19.3819 11.1536 19.2686 11.2215C19.0375 11.36 18.8982 11.6089 18.8962 11.8871C18.886 13.2411 20.9289 14.3602 21.1807 14.4928C21.3979 14.3092 23.1503 12.7783 22.8447 11.4529C22.7822 11.1816 22.5923 10.969 22.3365 10.8841C22.0191 10.7785 21.4115 10.7504 20.9108 11.7492L20.8806 11.8094L20.8381 11.7571C20.4152 11.2378 20.036 11.0878 19.7391 11.0878Z" fill="black"/>
<path d="M20.4632 11.3236L19.1331 12.8057L19.1978 12.8638L20.528 11.3817L20.4632 11.3236Z" fill="black"/>
<path d="M22.2878 10.7949L19.8408 13.6201L19.9066 13.6771L22.3536 10.8518L22.2878 10.7949Z" fill="black"/>
<path d="M22.89 11.7506L20.6067 14.1924L20.6703 14.2519L22.9537 11.8101L22.89 11.7506Z" fill="black"/>
<path d="M19.0116 11.3637L18.9521 11.4272L21.7212 14.0188L21.7807 13.9553L19.0116 11.3637Z" fill="black"/>
<path d="M20.8948 11.6622L20.832 11.7227L22.335 13.2832L22.3977 13.2228L20.8948 11.6622Z" fill="black"/>
<path d="M21.5296 10.9348L21.4697 10.998L22.8355 12.2903L22.8954 12.2271L21.5296 10.9348Z" fill="black"/>
<path d="M22.0986 16.4884L6.15356 18.1963L6.25378 19.1319L22.1988 17.424L22.0986 16.4884Z" fill="#8AE3E2"/>
<path d="M6.21431 19.1805L6.10498 18.1583L22.1368 16.4419L22.2462 17.4641L6.21431 19.1805ZM6.20075 18.2356L6.29165 19.0847L22.1503 17.3868L22.0595 16.5377L6.20075 18.2356Z" fill="black"/>
<path d="M21.1071 7.23353L5.16211 8.94141L5.26232 9.87702L21.2073 8.16914L21.1071 7.23353Z" fill="#8AE3E2"/>
<path d="M5.22335 9.92511L5.11401 8.90293L21.1458 7.18652L21.2553 8.20865L5.22335 9.92511ZM5.20979 8.98022L5.30069 9.82923L21.1594 8.13131L21.0685 7.2823L5.20979 8.98022Z" fill="black"/>
<path d="M12.354 8.17772L9.52097 8.48104C9.40066 8.1406 9.30555 7.76396 9.24527 7.36791C9.13239 6.6164 9.16443 5.91308 9.30855 5.35875C9.48831 4.66757 9.84226 4.20373 10.3078 4.15498C11.1493 4.06825 12.0373 5.36622 12.2905 7.05195C12.3493 7.4448 12.3688 7.8251 12.354 8.17772Z" fill="white"/>
<path d="M9.4915 8.52794L9.48008 8.49549C9.35526 8.14241 9.26182 7.76521 9.20241 7.37434C9.09313 6.64685 9.11588 5.92718 9.26659 5.34772C9.45819 4.61108 9.83611 4.16055 10.3034 4.11155C11.1646 4.02405 12.0773 5.33873 12.3336 7.04538C12.3915 7.43132 12.413 7.81294 12.3976 8.17948L12.3961 8.21696L9.4915 8.52794ZM10.3889 4.19427C10.3633 4.19427 10.3379 4.19559 10.3123 4.19823C9.88323 4.24317 9.53274 4.67009 9.35079 5.36965C9.20307 5.938 9.18093 6.64533 9.28843 7.3614C9.34525 7.73474 9.43346 8.09544 9.55077 8.434L12.312 8.1384C12.3243 7.78887 12.3026 7.42569 12.2476 7.05833C12.0059 5.44882 11.1834 4.19427 10.3889 4.19427Z" fill="black"/>
<path d="M9.29325 5.39861C8.81962 5.21732 8.76137 4.62714 8.75903 4.60206L8.84577 4.59424C8.84628 4.59982 8.90183 5.15562 9.32433 5.31726L9.29325 5.39861Z" fill="black"/>
<path d="M9.18438 5.95996C8.6461 5.94828 8.44227 5.32494 8.43384 5.29838L8.51681 5.27197C8.51869 5.27791 8.7106 5.86261 9.18621 5.87282L9.18438 5.95996Z" fill="black"/>
<path d="M9.1828 6.80898C8.64503 6.78546 8.43637 6.24449 8.42773 6.22154L8.50929 6.19092C8.51122 6.19605 8.70703 6.70102 9.18661 6.72204L9.1828 6.80898Z" fill="black"/>
<path d="M11.3623 5.55539C11.3231 5.29193 11.2393 5.0333 11.1249 4.96597C10.9366 4.85521 10.7637 5.14776 10.619 5.92355C10.29 5.19728 10.0171 4.94906 9.86012 5.09607C9.7647 5.18544 9.72316 5.47195 9.74804 5.73693C9.86631 6.99762 10.7093 7.92555 10.8408 8.06337C10.8408 8.06347 11.5488 6.80658 11.3623 5.55539Z" fill="black"/>
<path d="M10.853 8.1611L10.7984 8.10387C10.6341 7.93172 9.80849 7.00877 9.68966 5.74244C9.66615 5.49137 9.69692 5.16866 9.82007 5.05334C9.8706 5.00596 9.93255 4.98762 9.99917 5.00123C10.2078 5.04272 10.4282 5.3957 10.5963 5.73782C10.7357 5.08228 10.8755 4.94573 10.9713 4.90206C11.0305 4.87509 11.094 4.87977 11.1546 4.91536C11.3244 5.0153 11.397 5.39012 11.4203 5.54668C11.6077 6.80331 10.9212 8.04009 10.8919 8.09219L10.853 8.1611ZM9.95723 5.11417C9.93615 5.11417 9.91803 5.12214 9.9002 5.13885C9.82449 5.20974 9.78239 5.47563 9.80641 5.73147C9.91148 6.85145 10.61 7.71732 10.8277 7.96239C10.9706 7.67934 11.4607 6.61202 11.3044 5.56399C11.263 5.28576 11.1789 5.06568 11.0952 5.01647C11.0594 4.99529 11.0362 5.00123 11.0199 5.00875C10.9503 5.04044 10.8131 5.20289 10.6766 5.93434L10.6425 6.11735L10.5656 5.94775C10.2357 5.21924 10.0312 5.12707 9.97632 5.1161C9.96962 5.11483 9.96327 5.11417 9.95723 5.11417Z" fill="black"/>
<path d="M14.1993 7.96746L17.0323 7.66415C17.0778 7.30599 17.091 6.91771 17.0661 6.51791C17.0173 5.75949 16.8372 5.07892 16.5789 4.56766C16.2569 3.9302 15.8128 3.55178 15.3475 3.60271C14.5067 3.6961 13.9136 5.15266 14.023 6.85378C14.0487 7.25013 14.1102 7.62596 14.1993 7.96746Z" fill="white"/>
<path d="M14.1665 8.01474L14.1571 7.97849C14.0644 7.62332 14.0047 7.24586 13.9795 6.85663C13.8687 5.13433 14.4802 3.65527 15.3426 3.5595C15.8098 3.50821 16.2746 3.86871 16.6177 4.54806C16.8876 5.08243 17.0623 5.78108 17.1095 6.51512C17.1342 6.90985 17.1226 7.29822 17.0754 7.66968L17.071 7.70381L14.1665 8.01474ZM15.4302 3.64172C15.4042 3.64172 15.3782 3.64314 15.3522 3.64593C14.5353 3.73668 13.9585 5.1744 14.0664 6.85094C14.0903 7.22144 14.146 7.58092 14.232 7.92014L16.9932 7.62454C17.0362 7.26882 17.0461 6.89766 17.0226 6.52056C16.9761 5.79799 16.8047 5.11138 16.54 4.58726C16.2338 3.98119 15.8332 3.64172 15.4302 3.64172Z" fill="black"/>
<path d="M16.6026 4.60353L16.5549 4.53061C16.9336 4.2832 16.8703 3.72821 16.8696 3.72263L16.9561 3.71191C16.9591 3.7369 17.0271 4.32616 16.6026 4.60353Z" fill="black"/>
<path d="M16.8281 5.12905L16.8079 5.04434C17.2705 4.93359 17.3343 4.32162 17.335 4.31543L17.4216 4.32361C17.419 4.35138 17.3517 5.00372 16.8281 5.12905Z" fill="black"/>
<path d="M17.0092 5.9586L16.9871 5.87436C17.4513 5.75238 17.5358 5.2173 17.5366 5.21191L17.6228 5.22456C17.6192 5.24893 17.5297 5.82175 17.0092 5.9586Z" fill="black"/>
<path d="M14.6148 5.20746C14.5974 4.94167 14.6245 4.67116 14.7221 4.58113C14.8826 4.43305 15.1135 4.68233 15.4193 5.40993C15.587 4.63049 15.8012 4.33012 15.9858 4.44056C16.0979 4.5077 16.1991 4.77897 16.231 5.04319C16.3823 6.30038 15.7549 7.38567 15.6555 7.54823C15.6554 7.54828 14.6973 6.46983 14.6148 5.20746Z" fill="black"/>
<path d="M15.6641 7.64634L15.6116 7.58718C15.5719 7.54254 14.6393 6.47903 14.5563 5.21128C14.546 5.05335 14.5376 4.67157 14.6823 4.53807C14.7341 4.49034 14.795 4.47231 14.8586 4.48622C14.9616 4.50862 15.1272 4.61236 15.4021 5.22362C15.4939 4.85368 15.6346 4.4621 15.8297 4.3773C15.8919 4.35028 15.9564 4.3547 16.0158 4.3903C16.1606 4.47703 16.2589 4.78588 16.2891 5.03623C16.441 6.29876 15.8295 7.37578 15.7054 7.57885L15.6641 7.64634ZM14.8172 4.59881C14.802 4.59881 14.7836 4.60409 14.7617 4.6242C14.6904 4.69001 14.6548 4.92284 14.6732 5.20361C14.7424 6.26194 15.4472 7.20058 15.6469 7.44672C15.8076 7.16118 16.3071 6.16693 16.1727 5.05015C16.142 4.79507 16.0446 4.54411 15.9556 4.49079C15.9285 4.47459 15.9041 4.47272 15.8764 4.4848C15.8251 4.50704 15.6448 4.6405 15.4764 5.42232L15.4372 5.60432L15.3651 5.43268C15.0769 4.74668 14.9084 4.61698 14.8337 4.60073C14.8287 4.59962 14.8232 4.59881 14.8172 4.59881Z" fill="black"/>
<path d="M17.6779 8.7188C17.7326 9.23027 17.1488 9.71218 16.3738 9.79516C15.5989 9.87814 14.9262 9.53074 14.8715 9.01927C14.8167 8.5078 15.4006 8.02589 16.1755 7.94291C16.9505 7.85994 17.6232 8.20733 17.6779 8.7188Z" fill="#E33D59"/>
<path d="M10.6153 10.412C11.3902 10.3291 11.9741 9.84726 11.9194 9.33578C11.8646 8.82429 11.192 8.47688 10.4171 8.55981C9.64214 8.64274 9.05829 9.1246 9.11302 9.63608C9.16775 10.1476 9.84034 10.495 10.6153 10.412Z" fill="#E33D59"/>
<path d="M13.8497 8.27771C13.4088 8.31158 12.9677 8.355 12.5284 8.41076C12.15 8.4588 11.1558 8.43036 11.2057 9.1449C11.2297 9.4889 11.5298 9.73315 11.7652 9.88443C12.3915 10.2867 13.1461 10.3994 13.8665 10.2319C14.4609 10.0936 15.1292 9.78221 15.4941 9.1803C15.6805 8.87302 15.7296 8.45077 15.3995 8.29894C15.1621 8.18971 14.8784 8.21393 14.6237 8.22759C14.366 8.2413 14.1079 8.25786 13.8497 8.27771Z" fill="#FF8AC2"/>
<path d="M13.2154 10.351C12.6911 10.351 12.1836 10.205 11.7417 9.92108C11.3715 9.68322 11.1819 9.43033 11.1621 9.14794C11.116 8.48545 11.8854 8.42222 12.3451 8.38439C12.4125 8.37886 12.4731 8.37393 12.5229 8.36758C12.9416 8.31446 13.3869 8.26963 13.8463 8.23433C14.0943 8.21529 14.355 8.19833 14.6214 8.18406L14.6706 8.18137C14.9121 8.16791 15.1856 8.15263 15.4176 8.25942C15.5385 8.31497 15.6224 8.40998 15.6604 8.53409C15.7177 8.72087 15.6682 8.97716 15.5314 9.20288C15.1097 9.89838 14.3135 10.1727 13.8763 10.2743C13.6556 10.3257 13.434 10.351 13.2154 10.351ZM13.853 8.32122C13.3949 8.35641 12.9511 8.4011 12.5338 8.45401C12.483 8.46041 12.4211 8.46559 12.3523 8.47123C11.7736 8.51876 11.2119 8.60976 11.249 9.14189C11.2667 9.39499 11.4432 9.62584 11.7887 9.84786C12.395 10.2373 13.1292 10.3586 13.8567 10.1895C14.2805 10.0909 15.0519 9.82587 15.4569 9.15774C15.5813 8.95248 15.6274 8.72331 15.5773 8.55959C15.5462 8.45843 15.4803 8.38404 15.3813 8.33848C15.169 8.24078 14.9181 8.2547 14.6755 8.26825L14.6261 8.271C14.3603 8.28532 14.1003 8.30218 13.853 8.32122Z" fill="black"/>
<path d="M13.6961 8.53505C13.348 8.56476 13.0002 8.60101 12.6544 8.64575C12.3566 8.68424 11.5672 8.67917 11.6383 9.16997C11.6725 9.40625 11.9213 9.56992 12.1146 9.67057C12.6289 9.93824 13.2322 10.0048 13.7959 9.87908C14.2609 9.77538 14.7769 9.55144 15.0396 9.13203C15.1737 8.91794 15.194 8.62681 14.9256 8.52713C14.7325 8.45542 14.5087 8.47619 14.3074 8.4893C14.1038 8.5025 13.8999 8.51763 13.6961 8.53505Z" fill="white"/>
<path d="M13.2369 9.98438C12.8369 9.98438 12.4445 9.8912 12.0946 9.70915C11.7874 9.54923 11.6241 9.37485 11.5953 9.17615C11.5791 9.06453 11.6027 8.96769 11.6653 8.88847C11.8318 8.67763 12.2393 8.64096 12.509 8.61664C12.5621 8.61186 12.6098 8.6076 12.6489 8.60252C12.9801 8.55971 13.3312 8.52249 13.6924 8.49172C13.8965 8.4743 14.1008 8.45911 14.3047 8.44586L14.3434 8.44327C14.5346 8.43042 14.7513 8.416 14.9409 8.48628C15.05 8.52681 15.1255 8.60064 15.1593 8.69992C15.2039 8.83114 15.173 9.00131 15.0767 9.15512C14.7707 9.64354 14.1489 9.84493 13.8055 9.92151C13.6167 9.96356 13.426 9.98438 13.2369 9.98438ZM13.6999 8.5784C13.3399 8.60907 12.99 8.64619 12.6601 8.6889C12.6201 8.69408 12.5712 8.69845 12.5168 8.70337C12.262 8.72632 11.8769 8.76101 11.7336 8.94245C11.6857 9.00303 11.6687 9.07545 11.6815 9.1637C11.7059 9.3327 11.8543 9.48591 12.1348 9.63191C12.6317 9.89054 13.2183 9.96331 13.7864 9.83645C14.1166 9.76287 14.7137 9.57051 15.0028 9.10886C15.0842 8.97901 15.1125 8.83307 15.0767 8.72795C15.0514 8.6532 14.9954 8.59937 14.9105 8.56784C14.7386 8.504 14.5406 8.51731 14.3492 8.53006L14.3103 8.53265C14.107 8.5459 13.9033 8.56103 13.6999 8.5784Z" fill="black"/>
<path d="M12.2909 9.78346C12.2215 9.57795 12.1938 9.36493 12.2088 9.15022C12.2205 8.98127 12.2587 8.81573 12.3221 8.6582L12.4029 8.6907C12.3428 8.8398 12.3068 8.99641 12.2956 9.15632C12.2815 9.35939 12.3076 9.56104 12.3734 9.75559L12.2909 9.78346Z" fill="black"/>
<path d="M13.1252 9.94761C13.0749 9.6936 13.0478 9.43401 13.0445 9.17594C13.0421 8.9821 13.0531 8.78639 13.0773 8.59424L13.1636 8.6051C13.14 8.79325 13.1293 8.9849 13.1316 9.17482C13.1347 9.42756 13.1614 9.68182 13.2106 9.9306L13.1252 9.94761Z" fill="black"/>
<path d="M14.0633 9.82623L13.9771 9.81364C14.0118 9.57715 14.0028 9.3396 13.9502 9.10748C13.9058 8.91161 13.8312 8.72448 13.7285 8.55122L13.8034 8.50684C13.9107 8.68787 13.9887 8.88348 14.0351 9.08828C14.09 9.33086 14.0995 9.57918 14.0633 9.82623Z" fill="black"/>
<path d="M14.7416 9.49994L14.6556 9.48608C14.6856 9.29971 14.6727 9.10659 14.6181 8.92764C14.5715 8.77473 14.4964 8.63387 14.395 8.50889L14.4627 8.4541C14.5711 8.58776 14.6515 8.73853 14.7014 8.90225C14.7598 9.09384 14.7736 9.30052 14.7416 9.49994Z" fill="black"/>
<path d="M13.7569 8.01794C13.7567 7.98442 13.7541 7.95004 13.7505 7.91577C13.7063 7.50347 13.4616 7.19092 13.204 7.21849C12.9454 7.24617 12.7723 7.60346 12.8164 8.01576C12.8201 8.05003 12.8249 8.08416 12.8317 8.11696L13.7569 8.01794Z" fill="#F3CA0B"/>
<path d="M12.7973 8.16462L12.7892 8.12603C12.782 8.09175 12.7771 8.05615 12.7733 8.02045C12.7511 7.81291 12.781 7.61182 12.8577 7.45399C12.9376 7.2893 13.059 7.19033 13.1995 7.17535C13.3388 7.16017 13.4788 7.23136 13.5916 7.37543C13.6999 7.5135 13.7717 7.70383 13.7938 7.91122C13.7977 7.94697 13.8004 7.98282 13.8006 8.01776L13.8008 8.05712L12.7973 8.16462ZM13.2358 7.26041C13.2268 7.26041 13.2177 7.26092 13.2087 7.26183C13.0991 7.27356 13.0023 7.35532 12.9359 7.49197C12.8663 7.63533 12.8393 7.81966 12.8598 8.01116C12.8619 8.03071 12.8644 8.05026 12.8674 8.06946L13.7122 7.97907C13.7111 7.95962 13.7094 7.94007 13.7072 7.92046C13.6868 7.72902 13.6214 7.55448 13.5231 7.42905C13.4372 7.31947 13.3362 7.26041 13.2358 7.26041Z" fill="black"/>
<path d="M10.4385 15.1799C10.4207 15.212 10.3995 15.2433 10.3748 15.2739C9.99555 15.7416 9.48235 16.0761 9.02989 16.4655C8.50365 16.9176 7.96506 17.3487 7.35858 17.6887C7.04434 17.8654 6.71305 18.0295 6.3718 18.1733C6.30243 18.2042 6.23174 18.233 6.15979 18.2609C5.31565 18.595 4.41235 18.8046 3.52068 18.7882C2.43295 18.7683 1.28194 18.2934 0.782103 17.2691C0.19888 16.0715 0.641946 14.6858 1.01793 13.4984C1.04804 13.4035 1.09151 13.3296 1.1459 13.2734C1.05845 13.6786 1.03357 14.1039 1.07983 14.5361C1.15225 15.2125 1.38955 15.8311 1.74943 16.3628C1.78808 16.5464 1.85689 16.7191 1.96429 16.8764C2.18458 17.2006 2.51186 17.3858 2.87536 17.481C3.34234 17.6031 3.87184 17.5778 4.31379 17.5081C4.50173 17.4779 4.68997 17.4399 4.8771 17.3919L4.87822 17.3918C5.7287 17.18 6.56761 16.7972 7.27179 16.3048C7.68566 16.0146 8.06256 15.6813 8.44702 15.3561C8.72591 15.1206 9.03497 14.9164 9.28979 14.6543L9.29091 14.6542C9.33727 14.6068 9.38018 14.5586 9.42263 14.5059C9.70797 14.1534 10.1453 14.2586 10.3687 14.5288C10.5149 14.7032 10.5712 14.9466 10.4385 15.1799Z" fill="black"/>
<path d="M11.7368 12.3451C11.2661 12.5935 11.1067 13.3611 11.2811 13.8096C11.4503 14.2443 11.8896 14.4282 12.3051 14.5552C12.4896 14.6116 12.5536 14.6465 12.732 14.7207C12.9785 14.8232 13.2519 15.016 13.2866 15.2998C13.3293 15.6487 12.9576 15.8236 12.6257 15.7292C12.2767 15.63 11.9519 15.4011 11.91 15.3771C11.9098 15.3772 11.3303 15.9673 10.3425 15.7378C10.3425 15.7378 10.6513 16.2247 10.1227 16.2243C9.59431 16.224 7.80402 14.8418 8.69975 14.5213C8.71376 14.5163 8.81284 13.8179 8.83645 13.7436C8.96645 13.3349 9.34838 12.6328 9.34828 12.6256C9.34035 12.1496 9.39408 11.6359 9.47553 11.1665C9.5154 10.9366 9.61371 10.3977 9.95562 10.46C10.2329 10.5106 10.3611 11.0437 10.3254 11.2772C10.3796 10.9226 10.5456 10.5504 10.7037 10.2269C10.8194 9.99014 11.0874 9.58983 11.3859 9.80621C11.7004 10.0342 11.5864 10.5101 11.5407 10.8318C11.5064 11.0725 11.3998 11.3121 11.3534 11.546C11.4226 11.5029 11.4981 11.4691 11.5607 11.4436C11.7324 11.3736 11.9202 11.346 12.1049 11.3618C12.4755 11.3934 12.8425 11.5733 13.1006 11.8402C13.287 12.033 13.5379 12.3725 13.3535 12.6431C12.9628 13.2163 12.4408 12.2237 11.9914 12.2686C11.8984 12.2779 11.8135 12.3046 11.7368 12.3451Z" fill="white"/>
<path d="M10.1234 16.2677C10.1231 16.2677 10.123 16.2677 10.1228 16.2677C9.69731 16.2674 8.51106 15.4315 8.41564 14.8805C8.3936 14.7533 8.41991 14.5838 8.66467 14.4878C8.67635 14.4345 8.70256 14.2703 8.72414 14.1354C8.76055 13.9077 8.78345 13.7667 8.79508 13.7302C8.90304 13.3908 9.18452 12.8481 9.27699 12.6698C9.29014 12.6444 9.29979 12.626 9.30472 12.6161C9.29827 12.183 9.3425 11.6793 9.43264 11.1588C9.46133 10.9936 9.52841 10.607 9.73047 10.466C9.79948 10.4178 9.87799 10.4012 9.96345 10.417C10.1774 10.4559 10.302 10.7278 10.3506 10.9722C10.4291 10.707 10.5498 10.4425 10.6646 10.2075C10.7283 10.0772 10.9015 9.76792 11.1345 9.70978C11.2299 9.68601 11.3231 9.70653 11.4115 9.77061C11.7156 9.991 11.6484 10.4213 11.5993 10.7355C11.5938 10.7708 11.5885 10.805 11.5838 10.8376C11.5644 10.9745 11.5221 11.1111 11.4812 11.2432C11.4581 11.3176 11.436 11.3892 11.4178 11.46C11.4554 11.441 11.4971 11.4223 11.5444 11.403C11.721 11.331 11.916 11.3016 12.1087 11.3182C12.4827 11.3501 12.8652 11.5338 13.1319 11.8097C13.3164 12.0005 13.5952 12.3656 13.3896 12.6673C13.3116 12.7818 13.2242 12.8452 13.1225 12.8612C12.9276 12.8922 12.7242 12.7342 12.5277 12.5817C12.3464 12.441 12.1581 12.2961 11.9959 12.3118C11.9117 12.3202 11.8315 12.3443 11.7574 12.3834C11.3177 12.6155 11.1504 13.3529 11.3219 13.7936C11.483 14.2077 11.8959 14.3843 12.318 14.5134C12.4595 14.5566 12.5332 14.5883 12.6352 14.6321C12.6686 14.6464 12.7054 14.6622 12.749 14.6803C12.9092 14.747 13.2867 14.9402 13.33 15.2943C13.3481 15.4421 13.298 15.575 13.1889 15.6684C13.0471 15.7898 12.8217 15.8299 12.6139 15.7709C12.3052 15.6831 12.0136 15.495 11.9178 15.4332C11.917 15.4327 11.9161 15.4321 11.9153 15.4316C11.7943 15.5395 11.2621 15.9569 10.4238 15.7991C10.463 15.8868 10.5052 16.0252 10.4468 16.1313C10.3969 16.2218 10.2881 16.2677 10.1234 16.2677ZM9.90211 10.4983C9.85788 10.4983 9.81766 10.5113 9.78023 10.5374C9.60793 10.6577 9.54517 11.0193 9.51841 11.1737C9.42842 11.6929 9.38465 12.1947 9.39186 12.6246C9.39201 12.6369 9.39201 12.6369 9.35423 12.7099C9.26257 12.8866 8.98368 13.4243 8.878 13.7566C8.86754 13.7895 8.83697 13.9806 8.81011 14.1491C8.74592 14.5508 8.74592 14.5508 8.71449 14.562C8.54615 14.6223 8.47648 14.7215 8.50141 14.8656C8.58941 15.3736 9.72925 16.1804 10.1228 16.1806C10.1231 16.1806 10.1232 16.1806 10.1234 16.1806C10.2539 16.1806 10.337 16.1499 10.3704 16.0894C10.425 15.9903 10.3422 15.8186 10.3057 15.7608L10.2491 15.6711L10.3524 15.6951C11.2993 15.9155 11.856 15.3695 11.8792 15.3462L11.9027 15.3225L11.9318 15.3391C11.9377 15.3425 11.949 15.3497 11.9649 15.36C12.058 15.4201 12.3414 15.6029 12.6376 15.6871C12.8181 15.7384 13.012 15.7051 13.1322 15.6022C13.1932 15.55 13.2621 15.4561 13.2435 15.3048C13.2057 14.9962 12.8616 14.8215 12.7154 14.7607C12.6714 14.7424 12.6343 14.7265 12.6008 14.712C12.4976 14.6678 12.4294 14.6385 12.2925 14.5967C11.8706 14.4676 11.4156 14.275 11.2407 13.8252C11.0554 13.3489 11.2264 12.5653 11.7167 12.3064C11.8008 12.262 11.8918 12.2346 11.9872 12.2251C12.1841 12.2063 12.3861 12.3617 12.581 12.513C12.7629 12.6541 12.951 12.7995 13.1089 12.7752C13.1856 12.7632 13.2539 12.7119 13.3176 12.6183C13.4885 12.3675 13.2354 12.042 13.0693 11.8703C12.8168 11.6091 12.4549 11.4352 12.1012 11.405C11.9225 11.3897 11.7411 11.4169 11.5772 11.4837C11.4949 11.5172 11.4311 11.5487 11.3764 11.5827L11.2912 11.6359L11.3107 11.5373C11.3319 11.431 11.3654 11.3224 11.398 11.2175C11.4378 11.0887 11.4791 10.9555 11.4976 10.8254C11.5023 10.7924 11.5077 10.7578 11.5132 10.7221C11.5614 10.4139 11.6213 10.0303 11.3603 9.84115C11.2928 9.79219 11.2258 9.7766 11.1555 9.79433C10.9525 9.84496 10.7884 10.1526 10.7429 10.2457C10.5877 10.5631 10.422 10.9345 10.3686 11.2828C10.3685 11.2831 10.3685 11.2833 10.3685 11.2835L10.2824 11.2704C10.2824 11.2703 10.2824 11.2702 10.2825 11.2701C10.3178 11.0377 10.1884 10.5464 9.94791 10.5027C9.93212 10.4997 9.91689 10.4983 9.90211 10.4983Z" fill="black"/>
<path d="M10.27 12.7917L10.1938 12.7494C10.6997 11.8419 11.3302 11.508 11.3568 11.4941L11.3969 11.5714C11.3906 11.5747 10.7621 11.9088 10.27 12.7917Z" fill="black"/>
<path d="M9.88149 12.5443L9.79785 12.5202C9.9958 11.8358 10.298 11.2364 10.301 11.2305L10.3787 11.2698C10.3757 11.2757 10.077 11.8681 9.88149 12.5443Z" fill="black"/>
<path d="M10.3963 12.9177C10.3971 12.9671 10.4378 13.0065 10.4873 13.0057C10.5367 13.0049 10.5761 12.9641 10.5753 12.9147C10.5744 12.8653 10.5337 12.8259 10.4843 12.8267C10.4348 12.8275 10.3954 12.8683 10.3963 12.9177Z" fill="black"/>
<path d="M9.88014 12.7301C9.88095 12.7795 9.92168 12.8189 9.97114 12.8181C10.0205 12.8173 10.06 12.7766 10.0591 12.7272C10.0583 12.6778 10.0176 12.6383 9.96814 12.6392C9.91873 12.64 9.87933 12.6807 9.88014 12.7301Z" fill="black"/>
<path d="M9.46779 12.5695C9.4686 12.6189 9.50932 12.6583 9.55874 12.6575C9.60815 12.6567 9.64755 12.6159 9.64674 12.5665C9.64593 12.5171 9.6052 12.4777 9.55574 12.4785C9.50638 12.4793 9.46697 12.52 9.46779 12.5695Z" fill="black"/>
<path d="M9.8493 15.4131L9.80615 15.4888L10.3332 15.7894L10.3763 15.7137L9.8493 15.4131Z" fill="black"/>
<path d="M8.69043 14.4805L8.63354 14.5464L8.90825 14.7836L8.96514 14.7178L8.69043 14.4805Z" fill="black"/>
<path d="M16.5436 14.5262C16.5678 14.5538 16.5952 14.5799 16.6257 14.6046C17.0954 14.9814 17.6677 15.1996 18.1924 15.4845C18.8024 15.815 19.4201 16.1222 20.0848 16.3261C20.4293 16.4324 20.7878 16.5225 21.1518 16.5909C21.2261 16.6064 21.3013 16.6196 21.3775 16.6316C22.2732 16.7794 23.2004 16.7931 24.0684 16.5884C25.1273 16.3386 26.1516 15.6308 26.4234 14.5239C26.7399 13.23 26.0135 11.9695 25.3946 10.8886C25.3451 10.8022 25.287 10.7392 25.2219 10.6958C25.3932 11.0733 25.5075 11.4836 25.5538 11.9158C25.6262 12.5923 25.5253 13.2471 25.2861 13.8429C25.2872 14.0306 25.2565 14.2139 25.1848 14.3904C25.0381 14.7538 24.7575 15.0041 24.4224 15.1741C23.9918 15.3924 23.469 15.4797 23.0223 15.5051C22.8322 15.5155 22.6402 15.5181 22.4471 15.5108L22.446 15.5109C21.5699 15.484 20.669 15.2875 19.8765 14.9553C19.4105 14.7593 18.9716 14.5133 18.5271 14.2769C18.2046 14.1058 17.8594 13.9716 17.5548 13.7695L17.5537 13.7696C17.4984 13.733 17.4462 13.695 17.3936 13.6526C17.0401 13.3684 16.635 13.5639 16.4738 13.8752C16.368 14.0765 16.3645 14.3262 16.5436 14.5262Z" fill="black"/>
<path d="M14.983 12.0213C15.4957 12.1645 15.814 12.8809 15.7385 13.3562C15.6652 13.8168 15.2748 14.0895 14.8955 14.3016C14.7271 14.3958 14.672 14.4435 14.5133 14.5538C14.294 14.7061 14.0677 14.9525 14.0939 15.2371C14.126 15.5872 14.5264 15.6794 14.8307 15.5169C15.1508 15.346 15.4198 15.0536 15.4556 15.0212C15.4558 15.0213 16.1471 15.4754 17.064 15.0418C17.064 15.0418 16.8652 15.5831 17.3817 15.4709C17.8981 15.3587 19.3552 13.6288 18.4119 13.5052C18.3972 13.5033 18.1525 12.8417 18.1137 12.7741C17.9001 12.4022 17.3782 11.7968 17.3768 11.7897C17.2838 11.3229 17.1225 10.8322 16.9436 10.3906C16.856 10.1745 16.6458 9.66852 16.3248 9.80182C16.0645 9.90994 16.0521 10.4581 16.1365 10.6787C16.0084 10.3436 15.7674 10.015 15.5444 9.73235C15.3812 9.52542 15.0345 9.19092 14.7886 9.46555C14.5295 9.755 14.7416 10.196 14.8544 10.5007C14.9388 10.7287 15.0937 10.9403 15.1887 11.1591C15.1119 11.1316 15.0309 11.1146 14.9643 11.1029C14.7817 11.0708 14.5923 11.0836 14.4152 11.1381C14.0596 11.2475 13.7391 11.501 13.5433 11.8165C13.4019 12.0444 13.2285 12.4292 13.4661 12.6547C13.9693 13.1322 14.2693 12.0516 14.718 12.0004C14.8109 11.9899 14.8996 11.998 14.983 12.0213Z" fill="white"/>
<path d="M14.5257 15.6378C14.4327 15.6378 14.3434 15.6176 14.2677 15.5769C14.1413 15.5088 14.0642 15.3895 14.0505 15.2411C14.018 14.8858 14.346 14.617 14.4885 14.518C14.5274 14.491 14.5601 14.4677 14.5897 14.4466C14.68 14.3823 14.7453 14.3359 14.8742 14.2637C15.2595 14.0481 15.6256 13.7882 15.6954 13.3494C15.7697 12.8823 15.4501 12.1971 14.9713 12.0633C14.8905 12.0407 14.8071 12.0341 14.723 12.0438C14.5602 12.0623 14.4078 12.2442 14.2604 12.4202C14.1006 12.6109 13.9353 12.8081 13.7383 12.8193C13.6344 12.8249 13.5366 12.7817 13.4362 12.6863C13.1713 12.435 13.3665 12.0191 13.5064 11.7936C13.7087 11.4676 14.0437 11.207 14.4024 11.0966C14.5874 11.0397 14.7841 11.0272 14.9719 11.0601C15.0223 11.069 15.0668 11.0783 15.1077 11.089C15.0749 11.0236 15.0381 10.9583 14.9998 10.8904C14.9319 10.77 14.8617 10.6456 14.8137 10.5158C14.8023 10.485 14.7898 10.4527 14.777 10.4194C14.6625 10.1227 14.5058 9.71635 14.7563 9.43659C14.8291 9.35519 14.9169 9.31594 15.0141 9.31848C15.2541 9.32599 15.4888 9.59158 15.5786 9.70543C15.7407 9.91084 15.9146 10.1438 16.0475 10.3864C16.0433 10.1372 16.1074 9.84508 16.3082 9.76164C16.3887 9.72833 16.4688 9.72777 16.5464 9.76027C16.7738 9.85539 16.9211 10.2191 16.9841 10.3743C17.1823 10.8633 17.3322 11.3462 17.4178 11.7715C17.4247 11.78 17.4379 11.7959 17.4559 11.8176C17.584 11.9724 17.9741 12.4433 18.1517 12.7524C18.1708 12.7857 18.223 12.9186 18.3068 13.1335C18.3565 13.2608 18.4168 13.4156 18.4395 13.4652C18.699 13.5072 18.7606 13.6674 18.766 13.7963C18.7894 14.3551 17.8069 15.4231 17.3912 15.5134C17.2299 15.5486 17.1136 15.5267 17.0456 15.4487C16.9662 15.3575 16.9781 15.2132 16.9978 15.1192C16.2135 15.4498 15.6033 15.1551 15.4624 15.0757C15.4617 15.0764 15.4611 15.077 15.4605 15.0777C15.3799 15.1584 15.1347 15.404 14.8513 15.5553C14.7486 15.6102 14.6347 15.6378 14.5257 15.6378ZM14.7979 11.9524C14.8645 11.9524 14.9304 11.9614 14.9947 11.9794H14.9948C15.5287 12.1286 15.8617 12.8583 15.7814 13.363C15.7057 13.8397 15.3018 14.1242 14.9167 14.3397C14.792 14.4095 14.7316 14.4525 14.6403 14.5175C14.6104 14.5388 14.5774 14.5622 14.5382 14.5896C14.4082 14.6799 14.1089 14.9235 14.1373 15.2332C14.1512 15.3849 14.2384 15.4622 14.3091 15.5003C14.4484 15.5754 14.6451 15.5668 14.8103 15.4786C15.0822 15.3334 15.3205 15.0947 15.3988 15.0163C15.4121 15.0029 15.4215 14.9936 15.4266 14.9891L15.4515 14.9665L15.4796 14.985C15.4863 14.9894 16.163 15.4201 17.0455 15.0026L17.1413 14.9573L17.1049 15.057C17.0815 15.1212 17.0369 15.3066 17.1113 15.3919C17.1569 15.4439 17.2448 15.4562 17.3726 15.4286C17.7571 15.345 18.7004 14.3152 18.6789 13.8001C18.6727 13.6541 18.5837 13.5717 18.4064 13.5485C18.3733 13.5443 18.3733 13.5443 18.2256 13.1653C18.1636 13.0063 18.0933 12.8259 18.076 12.796C17.9023 12.4934 17.5158 12.0267 17.3887 11.8734C17.3367 11.8106 17.3367 11.8106 17.3342 11.7987C17.25 11.3761 17.101 10.895 16.9033 10.4072C16.8444 10.2619 16.7066 9.92186 16.5127 9.84076C16.4566 9.8173 16.4006 9.81771 16.3416 9.84223C16.1157 9.93603 16.0933 10.4438 16.1772 10.6634L16.0959 10.6945C15.97 10.3651 15.7292 10.037 15.5103 9.75946C15.4461 9.67811 15.2206 9.41217 15.0114 9.40562C14.9383 9.40333 14.877 9.43253 14.8212 9.49469C14.6063 9.73483 14.746 10.0971 14.8582 10.3881C14.8713 10.4218 14.8839 10.4545 14.8954 10.4857C14.941 10.6089 15.0095 10.7302 15.0757 10.8477C15.1297 10.9434 15.1855 11.0423 15.2287 11.1419L15.2687 11.2341L15.174 11.2002C15.0946 11.1717 15.0121 11.1555 14.957 11.1459C14.7826 11.1153 14.5998 11.127 14.4281 11.1799C14.0889 11.2842 13.772 11.5309 13.5804 11.8395C13.4545 12.0425 13.276 12.4143 13.4962 12.6232C13.5782 12.7011 13.6556 12.7379 13.7334 12.7323C13.8929 12.7233 14.0458 12.5407 14.1938 12.3642C14.3522 12.1752 14.5159 11.9797 14.7132 11.9572C14.7414 11.9541 14.7697 11.9524 14.7979 11.9524Z" fill="black"/>
<path d="M16.5112 12.1474C15.8432 11.3887 15.1583 11.1952 15.1514 11.1934L15.1742 11.1094C15.2031 11.1172 15.89 11.3102 16.5765 12.0899L16.5112 12.1474Z" fill="black"/>
<path d="M16.8384 11.8232C16.5041 11.2037 16.0869 10.688 16.0828 10.6829L16.1503 10.6279C16.1545 10.6332 16.5768 11.1548 16.9151 11.7819L16.8384 11.8232Z" fill="black"/>
<path d="M16.4146 12.2976C16.4242 12.3461 16.3928 12.3932 16.3443 12.4029C16.2958 12.4125 16.2487 12.381 16.239 12.3326C16.2294 12.2841 16.2608 12.237 16.3093 12.2273C16.3578 12.2177 16.4049 12.2492 16.4146 12.2976Z" fill="black"/>
<path d="M16.8794 12.0051C16.8891 12.0536 16.8576 12.1007 16.8092 12.1104C16.7607 12.1201 16.7135 12.0886 16.7039 12.0401C16.6942 11.9917 16.7257 11.9445 16.7742 11.9348C16.8226 11.9252 16.8697 11.9567 16.8794 12.0051Z" fill="black"/>
<path d="M17.2483 11.7605C17.258 11.809 17.2265 11.8561 17.1781 11.8658C17.1296 11.8754 17.0824 11.844 17.0728 11.7955C17.0631 11.747 17.0946 11.6999 17.1431 11.6902C17.1916 11.6806 17.2386 11.7121 17.2483 11.7605Z" fill="black"/>
<path d="M17.4756 14.6215L17.0239 15.0269L17.0821 15.0916L17.5337 14.6863L17.4756 14.6215Z" fill="black"/>
<path d="M18.4117 13.4623L18.1936 13.7524L18.2632 13.8047L18.4812 13.5146L18.4117 13.4623Z" fill="black"/>
</g>
<defs>
<clipPath id="clip0_68_2728">
<rect width="26" height="26" fill="white" transform="translate(0.5 0.000488281)"/>
</clipPath>
</defs>
</svg>
