<svg width="161" height="274" viewBox="0 0 161 274" fill="none" xmlns="http://www.w3.org/2000/svg">
<path d="M25.4165 179.548C4.40401 161.191 84.493 50.5537 112.734 12.3308C114.407 10.0671 114.509 7.02533 113.006 4.64564V4.64564C111.049 1.54636 106.991 0.549884 103.821 2.38994L32.0291 44.0572C13.5482 54.7834 17.6284 80.7833 38.6506 84.6127C70.6446 90.4408 109.161 97.0535 142.022 103.305C162.155 107.135 166.31 131.12 147.687 139.676C118.942 152.881 82.082 164.773 44.5 164.773C-2.26079 164.773 -4.2842 219.62 7.21799 260.46C12.0525 277.626 30.1983 275.778 33.1849 258.197C38.2235 228.536 39.4094 191.774 25.4165 179.548ZM25.4165 179.548L21 170.094" stroke="#FF1D92" stroke-width="2" stroke-linejoin="round" stroke-dasharray="10 10"/>
</svg>
