<svg width="20" height="21" viewBox="0 0 20 21" fill="none" xmlns="http://www.w3.org/2000/svg">
<path fill-rule="evenodd" clip-rule="evenodd" d="M9.70317 2.79794L9.70312 1.27118C9.70312 1.14807 9.77797 1.04242 9.88467 0.997279C10.1767 0.867303 10.4455 0.811467 10.7583 0.851727C11.5267 0.950551 11.79 1.53118 12.5027 1.61345C13.1368 1.68663 13.4864 1.68848 13.8884 1.21583C14.0967 0.971055 14.4843 1.1907 14.3978 1.48977L14.3982 1.4899C14.1279 2.4257 13.6133 3.12362 12.5604 3.22328C11.4937 3.32422 11.2137 2.72569 10.0898 3.08134C9.89791 3.14197 9.70361 2.99796 9.70317 2.79794Z" fill="#FA6E85"/>
<path fill-rule="evenodd" clip-rule="evenodd" d="M9.70312 2.54346H10.2977V5.34252H9.70312V2.54346Z" fill="#FA6E85"/>
<path fill-rule="evenodd" clip-rule="evenodd" d="M10.0003 3.93555C11.6341 3.93555 12.9708 5.27227 12.9708 6.90608V12.3597L9.95627 13.6271L7.02979 12.3597V6.90608C7.02979 5.27227 8.36646 3.93555 10.0003 3.93555Z" fill="#60B7FE"/>
<path fill-rule="evenodd" clip-rule="evenodd" d="M9.47685 13.4191L7.02979 12.3593V6.90572C7.02979 5.43757 8.10924 4.20953 9.51363 3.97559C10.918 4.20953 11.9975 5.43757 11.9975 6.90572V12.3593L9.47685 13.4191Z" fill="#88C8FE"/>
<path fill-rule="evenodd" clip-rule="evenodd" d="M10.0003 3.93555C11.6341 3.93555 12.9708 5.14656 12.9708 6.62672H7.02979C7.02979 5.14656 8.3665 3.93555 10.0003 3.93555Z" fill="#FFBF31"/>
<path fill-rule="evenodd" clip-rule="evenodd" d="M11.9842 6.62644H7.02979C7.02979 5.3001 8.10316 4.19007 9.50179 3.97363C10.8217 4.188 11.8572 5.28012 11.9842 6.62644Z" fill="#FFE177"/>
<path fill-rule="evenodd" clip-rule="evenodd" d="M10.0003 7.87549L10.4238 9.18739L11.8024 9.18475L10.6855 9.9929L11.114 11.3032L10.0003 10.4907L8.88658 11.3032L9.31509 9.9929L8.19824 9.18475L9.57681 9.18739L10.0003 7.87549Z" fill="#E33F65"/>
<path fill-rule="evenodd" clip-rule="evenodd" d="M10.4236 9.18697L10.4238 9.18732L11.6123 9.18504L10.496 9.99283L10.8651 11.1216L10.0003 10.4906L9.90553 10.5598L9.81076 10.4906L8.94594 11.1216L9.31505 9.99283L8.19873 9.18504L9.3873 9.18732L9.38739 9.18697L9.57677 9.18732L9.90553 8.16895L10.2343 9.18732L10.4236 9.18697Z" fill="#FA6E85"/>
<path fill-rule="evenodd" clip-rule="evenodd" d="M3.842 8.03516H3.97074C4.56448 8.03516 5.07545 8.27575 5.45372 8.73339C5.89398 9.26606 5.95765 10.3595 6.40909 10.8809C7.47979 12.1177 8.94384 12.7821 10.294 13.1608C10.4788 13.2126 10.4953 13.4643 10.4899 13.6562C10.4844 13.8496 10.4079 14.0109 10.2649 14.1409C10.0126 14.3697 9.71305 14.1944 9.37491 14.1533C8.52144 14.0494 6.94602 13.7694 5.92179 12.5408V17.6543H1.76221V10.115C1.76221 8.97108 2.69809 8.03516 3.842 8.03516Z" fill="#14B5A2"/>
<path fill-rule="evenodd" clip-rule="evenodd" d="M3.842 8.03516H3.97074C4.56448 8.03516 5.07545 8.27575 5.45372 8.73339C5.89398 9.26606 5.95765 10.3595 6.40909 10.8809C7.29714 11.9068 8.45588 12.5387 9.5957 12.9406C9.53534 12.9586 9.47514 12.976 9.41522 12.9928C9.23037 13.0446 9.21383 13.2963 9.21928 13.4883C9.22285 13.6138 9.25659 13.7267 9.31934 13.826C9.25162 13.8105 9.18215 13.7959 9.11091 13.7872C8.25744 13.6833 6.68207 13.4033 5.65783 12.1747V16.9315H1.76221V10.115C1.76221 8.97108 2.69809 8.03516 3.842 8.03516Z" fill="#19CFBA"/>
<path fill-rule="evenodd" clip-rule="evenodd" d="M3.97186 8.03503C4.76157 8.03503 5.40173 7.39487 5.40173 6.60516C5.40173 5.81549 4.76157 5.17529 3.97186 5.17529C3.18215 5.17529 2.54199 5.81545 2.54199 6.60516C2.54204 7.39487 3.18219 8.03503 3.97186 8.03503ZM16.0281 8.03503C15.2385 8.03503 14.5983 7.39487 14.5983 6.60516C14.5983 5.81549 15.2384 5.17529 16.0281 5.17529C16.8178 5.17529 17.458 5.81545 17.458 6.60516C17.4579 7.39487 16.8178 8.03503 16.0281 8.03503Z" fill="#F0B16E"/>
<path fill-rule="evenodd" clip-rule="evenodd" d="M3.52271 5.24756C2.95308 5.43588 2.54199 5.97259 2.54199 6.60535C2.54199 7.23812 2.95304 7.77483 3.52271 7.96315C4.09233 7.77483 4.50342 7.23812 4.50342 6.60535C4.50342 5.97259 4.09238 5.43592 3.52271 5.24756ZM15.579 5.24756C16.1486 5.43588 16.5597 5.97259 16.5597 6.60535C16.5597 7.23812 16.1486 7.77483 15.579 7.96315C15.0093 7.77483 14.5983 7.23812 14.5983 6.60535C14.5983 5.97259 15.0093 5.43592 15.579 5.24756Z" fill="#FCD4A9"/>
<path fill-rule="evenodd" clip-rule="evenodd" d="M16.1581 8.03516H16.0293C15.4355 8.03516 14.9246 8.27575 14.5463 8.73339C14.106 9.26606 14.0424 10.3595 13.5909 10.8809C12.5202 12.1177 11.0561 12.7821 9.70604 13.1608C9.5212 13.2126 9.50466 13.4643 9.51011 13.6562C9.51561 13.8496 9.59208 14.0109 9.73513 14.1409C9.98738 14.3697 10.287 14.1944 10.6251 14.1533C11.4786 14.0494 13.054 13.7694 14.0782 12.5408V17.6543H18.2378V10.115C18.2379 8.97108 17.302 8.03516 16.1581 8.03516Z" fill="#E33F65"/>
<path fill-rule="evenodd" clip-rule="evenodd" d="M16.1581 8.03516H16.0293C15.4356 8.03516 14.9246 8.27575 14.5463 8.73339C14.1061 9.26606 14.0424 10.3595 13.591 10.8809C12.5518 12.0812 11.1421 12.7424 9.82572 13.1265C9.80429 13.383 9.84842 13.5936 10.0474 13.7747C10.2997 14.0036 10.5993 13.8283 10.9374 13.7871C11.7909 13.6833 13.3247 13.2367 14.3489 12.0082L14.3905 16.9314H18.2379V10.115C18.2379 8.97108 17.302 8.03516 16.1581 8.03516Z" fill="#FA6E85"/>
<path fill-rule="evenodd" clip-rule="evenodd" d="M0.745018 17.9515C0.580854 17.9515 0.447754 17.8184 0.447754 17.6542C0.447754 17.49 0.580854 17.3569 0.745018 17.3569H19.2553C19.4195 17.3569 19.5526 17.49 19.5526 17.6542C19.5526 17.8184 19.4195 17.9515 19.2553 17.9515H0.745018Z" fill="#A37767"/>
<path d="M12.1957 18.0117C12.3882 16.6412 11.4331 15.3742 10.0626 15.1818C8.69213 14.9893 7.42512 15.9444 7.23269 17.3149C7.04027 18.6854 7.99529 19.9524 9.3658 20.1448C10.7363 20.3372 12.0033 19.3822 12.1957 18.0117Z" fill="#FFBF31"/>
<path fill-rule="evenodd" clip-rule="evenodd" d="M9.33824 20.132C8.13361 19.9494 7.21045 18.9095 7.21045 17.6539C7.21045 16.3983 8.13366 15.3584 9.33824 15.1758C10.5429 15.3584 11.466 16.3983 11.466 17.6539C11.466 18.9095 10.5429 19.9494 9.33824 20.132Z" fill="#FFE177"/>
<path fill-rule="evenodd" clip-rule="evenodd" d="M8.35512 17.7618C8.23905 17.6458 8.23905 17.4575 8.35512 17.3415C8.47119 17.2254 8.65942 17.2254 8.7755 17.3415L9.36219 17.9282L10.4801 16.8102C10.5962 16.6941 10.7844 16.6941 10.9005 16.8102C11.0166 16.9263 11.0166 17.1145 10.9005 17.2306L9.57238 18.5587C9.45631 18.6748 9.26808 18.6748 9.152 18.5587L8.35512 17.7618Z" fill="#14B5A2"/>
<path fill-rule="evenodd" clip-rule="evenodd" d="M10.2925 3.02461V1.49781C10.52 1.37906 10.7394 1.34241 10.9501 1.37211C11.5637 1.45861 11.8118 2.04227 12.5448 2.13502C13.2315 2.22188 13.6198 2.18241 14.0454 1.63404C13.8318 2.44478 13.4488 3.06716 12.6027 3.1549C11.9632 3.22125 11.6711 2.94141 11.0937 2.90045C10.8504 2.8832 10.5838 2.92328 10.2925 3.02461Z" fill="#E33F65"/>
</svg>
