<svg width="106" height="107" viewBox="0 0 106 107" fill="none" xmlns="http://www.w3.org/2000/svg">
<g clip-path="url(#clip0_517_15561)">
<path d="M31.3493 46.2578L8.20068 90.2822L29.2217 88.3218L39.3959 106.995L62.5445 62.971L31.3493 46.2578Z" fill="#E95454"/>
<path d="M34.0006 94.1762C34.6501 92.7679 33.9707 91.0852 32.612 90.3559L31.2797 89.64C29.9475 88.8739 29.4404 87.1711 30.1662 85.7929C30.9019 84.3912 32.6319 83.8559 34.0205 84.5986L37.7852 86.6158C38.9484 87.2381 40.4066 86.7864 41.0065 85.6055L41.0993 85.4249C41.7886 84.3109 41.381 82.839 40.2343 82.2268L28.9732 76.1952C27.6011 75.4592 26.9284 73.7832 27.568 72.3715C28.2739 70.8694 30.0568 70.2773 31.4918 71.0467L41.9377 76.6434C43.101 77.2657 44.5591 76.814 45.1756 75.6398L45.2352 75.486L45.2518 75.4525C45.9179 74.2214 45.4506 72.6759 44.2211 72.0169L38.3619 68.8789C36.9898 68.143 36.3171 66.467 36.9666 65.0385C37.6659 63.5532 39.4555 62.9444 40.8905 63.7138L47.3628 67.1829C48.5725 67.8319 50.0174 67.2899 50.6437 66.0588C50.6537 66.0421 50.6537 66.0421 50.6603 66.0254C50.6703 66.0087 50.6703 66.0087 50.6769 65.9919C51.3364 64.7776 50.9718 63.2655 49.7589 62.6199L42.7762 58.8798C41.4207 58.1539 40.748 56.4779 41.3876 55.0661C42.0935 53.5641 43.8764 52.972 45.3114 53.7414L62.5379 62.9711L39.3892 106.995L33.0097 95.2902C33.4206 95.0092 33.7785 94.6613 34.0006 94.1762Z" fill="#ED6362"/>
<path d="M74.6507 46.2578L97.7994 90.2822L76.7784 88.3218L66.6042 106.995L43.4556 62.971L74.6507 46.2578Z" fill="#ED6362"/>
<path d="M71.9995 94.1788C71.3499 92.7704 72.0293 91.0877 73.3881 90.3584L74.7203 89.6425C76.0526 88.8764 76.5596 87.1737 75.8339 85.7954C75.0981 84.3937 73.3682 83.8584 71.9796 84.6011L68.2148 86.6183C67.0516 87.2406 65.5934 86.7889 64.9936 85.6081L64.9008 85.4274C64.2115 84.3134 64.6191 82.8415 65.7658 82.2293L77.0302 76.1943C78.4022 75.4584 79.075 73.7824 78.4354 72.3706C77.7295 70.8686 75.9465 70.2765 74.5115 71.0459L64.0656 76.6426C62.9024 77.2648 61.4442 76.8132 60.8278 75.639L60.7682 75.4851L60.7516 75.4517C60.0855 74.2206 60.5527 72.6751 61.7823 72.016L67.6415 68.8781C69.0135 68.1421 69.6863 66.4661 69.0367 65.0377C68.3375 63.5524 66.5479 62.9435 65.1129 63.7129L58.6339 67.1887C57.4243 67.8377 55.9794 67.2958 55.353 66.0647C55.3431 66.048 55.3431 66.048 55.3364 66.0313C55.3265 66.0145 55.3265 66.0145 55.3199 65.9978C54.6604 64.7834 55.0249 63.2714 56.2379 62.6257L63.2206 58.8856C64.576 58.1597 65.2488 56.4837 64.6092 55.072C63.9033 53.5699 62.1203 52.9778 60.6853 53.7472L43.4589 62.977L66.6075 107.001L72.9871 95.2961C72.5795 95.0117 72.2215 94.6638 71.9995 94.1788Z" fill="#E95454"/>
<path d="M53 78.0864C74.3614 78.0864 91.6783 60.6062 91.6783 39.0432C91.6783 17.4802 74.3614 0 53 0C31.6385 0 14.3217 17.4802 14.3217 39.0432C14.3217 60.6062 31.6385 78.0864 53 78.0864Z" fill="#FFCC5B"/>
<path d="M58.2461 34.563H33.7354C31.8298 34.563 30.2656 32.984 30.2656 31.0605L30.2921 30.8196V30.7661C30.2656 28.7355 31.906 27.0762 33.921 27.0762H50.9088C53.159 27.0762 55.1475 25.3935 55.28 23.1187C55.3861 20.7402 53.507 18.733 51.1474 18.733H33.1521C31.167 18.733 29.6823 17.0503 29.7088 15.0431C29.7088 15.0163 29.7088 15.0163 29.7088 14.9896C29.7088 14.9628 29.7088 14.9628 29.7088 14.936C29.6823 12.9322 31.1637 11.2461 33.1521 11.2461H51.9826C54.2063 11.2461 56.1947 9.56345 56.3273 7.3154C56.4333 4.91012 54.5543 2.92969 52.1947 2.92969H38.4049C24.3433 8.78065 14.4343 22.7373 14.4343 39.0424C14.4343 55.3475 24.3433 69.3008 38.4082 75.1451H55.9163C58.1401 75.1451 60.1285 73.4624 60.2611 71.2143C60.3671 68.809 58.488 66.832 56.1284 66.832L36.211 66.8286C33.8613 66.8286 31.969 64.8448 32.0949 62.4429C32.2109 60.1948 34.2126 58.5055 36.443 58.5055H44.1647C46.3851 58.4419 48.178 56.6053 48.178 54.3472C48.178 52.049 46.3255 50.1756 44.0454 50.1756H32.3402C30.4346 50.1756 28.8703 48.6 28.8969 46.6731V46.3787C28.7643 44.4819 30.2755 42.8761 32.1546 42.8761H58.0075C60.2577 42.8761 62.2462 41.1934 62.3787 38.9454C62.4848 36.5434 60.6024 34.563 58.2461 34.563Z" fill="#FDBC4B"/>
<path d="M53 66.9102C37.7752 66.9102 25.3906 54.4054 25.3906 39.0403C25.3906 23.6753 37.7752 11.1738 53 11.1738C68.2248 11.1738 80.6094 23.6786 80.6094 39.0437C80.6094 54.4087 68.2248 66.9102 53 66.9102Z" fill="#FFDB70"/>
<path opacity="0.2" d="M80.6093 39.0435C80.6093 24.217 69.0698 12.0902 54.5841 11.2539H52.0124C50.3156 11.2539 48.801 12.5385 48.6983 14.2513C48.6188 16.0845 50.0504 17.5966 51.85 17.5966L67.0416 17.6C68.8345 17.6 70.2761 19.1121 70.18 20.9453C70.0905 22.6614 68.5661 23.9494 66.8626 23.9494H60.9736C59.2801 23.9996 57.9114 25.3979 57.9114 27.1208C57.9114 28.8737 59.3265 30.3021 61.063 30.3021H69.9911C71.446 30.3021 72.6357 31.5065 72.6158 32.9717V33.1925C72.7152 34.641 71.5653 35.8621 70.1303 35.8621H50.415C48.6983 35.8621 47.1838 37.1467 47.081 38.8595C47.0015 40.6927 48.4332 42.2048 50.2327 42.2048H68.924C70.3788 42.2048 71.5686 43.4091 71.5686 44.8744L71.5487 45.0583V45.0985C71.5686 46.6474 70.3159 47.9119 68.7815 47.9119H55.8235C54.1068 47.9119 52.5923 49.1965 52.4896 50.9294C52.41 52.7425 53.8417 54.2747 55.6412 54.2747H69.3647C70.8793 54.2747 72.0093 55.5593 71.9895 57.0881C71.9895 57.1082 71.9895 57.1082 71.9895 57.1283C71.9895 57.1483 71.9895 57.1483 71.9895 57.1684C72.0093 58.6972 70.8793 59.9818 69.3647 59.9818H55.0049C53.3081 59.9818 51.7936 61.2664 51.6909 62.9792C51.6114 64.8158 53.043 66.3245 54.8426 66.3245H58.6305C71.1676 63.6884 80.6093 52.4582 80.6093 39.0435Z" fill="white"/>
<path d="M72.2745 32.8711H58.846L54.6935 19.9783C54.1599 18.3223 51.8367 18.3223 51.3032 19.9783L47.154 32.8711H33.7254C31.9988 32.8711 31.2797 35.1025 32.6782 36.1261L43.5417 44.0947L39.3925 56.9875C38.8589 58.6435 40.738 60.0217 42.1365 58.9981L53 51.0295L63.8634 58.9981C65.262 60.0217 67.141 58.6435 66.6075 56.9875L62.4583 44.0947L73.3218 36.1261C74.717 35.1025 74.0011 32.8711 72.2745 32.8711Z" fill="#EC9922"/>
</g>
<defs>
<clipPath id="clip0_517_15561">
<rect width="106" height="107" fill="white"/>
</clipPath>
</defs>
</svg>
