<svg width="126" height="126" viewBox="0 0 126 126" fill="none" xmlns="http://www.w3.org/2000/svg">
<path d="M63 126C40.2324 126 19.1633 113.652 8.01503 93.776C2.77151 84.4259 0 73.7836 0 63C0 56.9865 0.847055 51.0352 2.51779 45.311C8.25694 25.6592 23.2563 9.97762 42.6414 3.36238C49.1769 1.13129 56.0267 0 63 0C68.1003 0 73.1701 0.610559 78.0683 1.8147C88.0036 4.25324 97.3077 9.16502 104.974 16.0192C112.592 22.8296 118.495 31.4646 122.046 40.9906C124.669 48.0193 126 55.4247 126 63C126 71.3389 124.395 79.442 121.231 87.0845C116.521 98.4614 108.633 108.152 98.42 115.107C87.9559 122.233 75.7078 126 63 126Z" fill="white"/>
<path d="M103.574 65.2787C103.574 74.2173 121.641 80.424 118.166 88.0618C116.143 92.5107 113.596 96.6687 110.606 100.463C109.247 102.188 104.553 98.6059 103.017 100.171C95.716 107.617 72.2392 122.877 72.0307 122.908C69.0842 123.349 66.0698 123.577 62.9998 123.577C55.9342 123.577 49.1519 122.368 42.8494 120.146C19.3 111.839 14.4869 87.7709 14.4869 61.3813C14.4869 55.7913 3.1791 52.0017 4.59906 46.8622V46.8598C5.65308 43.0288 7.07796 39.3483 8.82966 35.8614C18.7812 16.0309 36.8789 23.7048 60.5768 23.7048C64.1774 23.7048 70.1262 2.73789 73.555 3.33885C90.5675 6.32889 105.133 16.4163 114.088 30.4338C120.095 39.84 103.574 53.2917 103.574 65.2787Z" fill="#6E72FF"/>
<path d="M47.1435 104.758C47.1339 108.335 46.688 111.943 45.4304 115.289C44.781 117.014 43.9088 118.645 42.8499 120.147C19.3 111.841 2.4231 89.3907 2.4231 63.0011C2.4231 57.4111 3.1791 52.0027 4.59906 46.8633C8.77158 47.6072 12.714 49.6838 15.5682 52.8242C20.1672 57.8883 21.7397 65.5113 19.5178 71.9835C27.4823 71.8236 35.1974 76.0906 40.0777 82.3859C44.9602 88.6808 47.1652 96.7935 47.1435 104.758Z" fill="#FF1E00"/>
<path d="M72.2221 17.5682C70.53 20.9227 67.743 23.6083 64.465 25.4073C62.7101 26.3702 60.8715 27.0034 58.9466 27.5261C56.6262 28.1561 54.2829 28.7349 51.8926 29.0253C48.1069 29.485 44.241 28.9444 40.6685 27.6356C39.246 30.4293 39.1427 30.7401 37.7203 33.5316C36.8432 35.2545 35.9393 37.0135 34.5292 38.3341C33.136 39.6352 31.3356 40.4227 29.4988 40.9341C24.9532 42.2014 20.0099 41.712 15.6922 39.8606C13.4461 38.8962 10.9576 37.566 8.83008 35.8626C18.7811 16.0318 39.3024 2.42383 63 2.42383C66.6006 2.42383 70.1261 2.73883 73.555 3.33979C74.9434 7.98235 74.42 13.2113 72.2221 17.5682Z" fill="#FF1E00"/>
<path d="M123.577 63.0016C123.577 71.9402 121.641 80.426 118.166 88.0636C117.672 88.2841 117.163 88.4827 116.642 88.6525C112.099 90.1426 107.006 89.4375 102.724 87.3125C97.0785 84.509 92.62 79.0014 91.9657 72.7351C91.3116 66.4666 94.9993 59.75 100.965 57.7121C98.0745 51.0631 98.5807 42.8369 102.967 37.0651C105.671 33.508 109.754 31.3225 114.089 30.4355C120.095 39.8417 123.577 51.0146 123.577 63.0016Z" fill="#FF1E00"/>
<path d="M110.547 55.7685L119.054 51.7183L114.112 59.7286L119.562 65.5967L112.321 64.5885L108.948 71.4914L108.54 62.1588L100.789 60.5774L106.866 57.9169L104.679 49.2578L110.547 55.7685Z" fill="#F7EDE5"/>
<path d="M16.758 65.3842L21.2355 57.0938L21.9735 66.4771L29.8369 67.9972L23.3957 71.457L24.7475 79.0197L18.9096 71.7272L10.333 75.8702L15.0548 69.2907L8.17896 63.5914L16.758 65.3842Z" fill="#F7EDE5"/>
<path d="M59.9404 12.5521L64.4178 4.26172L65.1559 13.645L73.0193 15.1649L66.578 18.625L67.9298 26.1877L62.092 18.8952L53.5154 23.0382L58.2372 16.4586L51.3613 10.7593L59.9404 12.5521Z" fill="#F7EDE5"/>
<path d="M98.7245 57.0578C96.392 55.8426 93.8077 55.644 91.3072 55.456C92.6391 53.5544 93.3827 52.3247 93.3827 52.3247C93.3827 52.3247 92.3674 45.221 86.3809 38.6891C86.4525 38.6904 86.5234 38.6946 86.5955 38.6946C93.6623 38.6946 99.3911 32.9657 99.3911 25.8992C99.3911 18.8323 93.6623 13.1035 86.5955 13.1035C79.5287 13.1035 73.7998 18.8323 73.7998 25.8992C73.7998 27.6509 74.1527 29.3196 74.7896 30.84C65.5048 27.1897 58.3338 29.4596 58.3338 29.4596C58.3338 29.4596 57.6775 30.3057 56.6744 31.7761C56.5959 31.6073 56.5182 31.439 56.4411 31.2719C55.3859 28.9859 54.2944 26.6222 52.3316 24.8547C49.172 22.0099 44.2135 21.4441 40.2735 23.4793C36.6129 25.3698 34.0399 29.3898 33.7183 33.7203C33.4213 37.7225 35.0019 41.9765 37.9469 45.0999C39.0664 46.2875 40.339 47.2901 41.5699 48.26C42.3948 48.9099 43.2475 49.5817 44.0205 50.2868C45.3595 51.5082 46.3114 52.7377 46.8718 53.963C45.7338 60.9515 46.9963 67.9814 53.7442 72.8524L37.3046 96.0521L19.9471 94.3831L48.4866 112.909L41.5214 98.3546L56.1643 74.3718C62.4347 77.7459 68.8472 76.1043 74.5438 72.5273C75.5631 72.7451 76.6528 73.1502 77.808 73.7427C78.7389 74.2202 79.667 74.784 80.5642 75.3293C81.9035 76.1429 83.2882 76.984 84.7924 77.6175C86.7621 78.4468 88.8763 78.8612 90.9523 78.8612C93.0463 78.861 95.102 78.4394 96.9324 77.5966C100.877 75.7799 103.742 71.963 104.232 67.8724C104.76 63.4693 102.495 59.0224 98.7245 57.0578ZM47.5242 50.8737C46.9574 50.1313 46.2797 49.3982 45.4887 48.6769C44.6577 47.9189 43.7734 47.2222 42.9183 46.5486C41.6959 45.5854 40.5413 44.6756 39.5323 43.6054C36.9997 40.9192 35.6386 37.2842 35.8913 33.8817C36.1581 30.2897 38.2705 26.9665 41.2734 25.4156C44.3754 23.8128 48.4131 24.2587 50.8737 26.4745C52.5041 27.9425 53.4555 30.0035 54.463 32.1856C54.7239 32.7507 54.9958 33.3287 55.2776 33.9004C52.7224 37.9253 49.2306 44.2302 47.5242 50.8737ZM102.069 67.6133C101.667 70.9688 99.2927 74.1106 96.0211 75.6175C92.9223 77.0446 89.0407 77.0414 85.6382 75.6091C84.2824 75.0384 83.0261 74.275 81.6962 73.4669C80.7658 72.9016 79.8038 72.3171 78.8029 71.8038C78.1402 71.4639 77.4922 71.1799 76.8576 70.9451C82.2596 66.953 86.8517 61.4964 89.8137 57.5222C90.25 57.5604 90.6848 57.5943 91.1115 57.6266C93.5083 57.8067 95.7721 57.977 97.7177 58.9904C100.654 60.5204 102.484 64.1466 102.069 67.6133Z" fill="#FFC063"/>
<path d="M85.4467 53.4001C84.5724 54.3707 83.7836 55.4185 83.0931 56.5277C82.8059 56.9888 82.5266 57.497 82.562 58.0392C82.5955 58.5501 82.9046 58.9999 83.2437 59.3833C83.6606 59.8549 84.2458 60.302 84.861 60.1694C85.1546 60.1061 85.4034 59.9181 85.6399 59.7333C87.2964 58.4391 89.7863 56.4706 89.8707 54.1502C89.9047 53.217 89.3623 52.5604 88.4894 52.2737C87.2351 51.8617 86.2682 52.4885 85.4467 53.4001Z" fill="#F7EDE5"/>
<path d="M81.7234 63.4674C81.0077 64.0334 79.969 63.9123 79.4027 63.1967C78.8367 62.481 78.9578 61.4423 79.6734 60.876C80.3891 60.31 81.4281 60.431 81.9941 61.1467C82.5601 61.8623 82.439 62.9013 81.7234 63.4674Z" fill="#F7EDE5"/>
<path d="M95.7209 23.2616C95.7345 23.3305 95.746 23.3999 95.7586 23.4691C95.7802 23.5867 95.7539 23.4026 95.7682 23.533C95.7815 23.6553 95.7925 23.7777 95.7979 23.9007C95.8083 24.1288 95.8034 24.3577 95.7834 24.5851C95.7788 24.6375 95.7731 24.6899 95.7672 24.7423C95.7591 24.8081 95.7586 24.812 95.7657 24.7542C95.7618 24.7802 95.7578 24.8063 95.7534 24.8322C95.7347 24.9449 95.7126 25.0569 95.6865 25.1681C95.6304 25.4078 95.556 25.6423 95.467 25.8717C95.3636 26.1379 95.5807 26.481 95.8474 26.5418C96.1597 26.6129 96.4068 26.4463 96.5175 26.1613C96.9113 25.1474 96.9824 24.0353 96.7715 22.9719C96.7159 22.6919 96.3672 22.5054 96.1014 22.5915C95.8036 22.688 95.6614 22.9616 95.7209 23.2616Z" fill="#F7EDE5"/>
<path d="M94.7346 28.1623C94.6878 28.906 94.2232 29.5936 93.8654 30.2236C93.4928 30.8789 93.0907 31.5092 92.5249 32.0159C92.3056 32.2122 92.3248 32.5863 92.5249 32.7861C92.7427 33.0039 93.0757 32.983 93.2954 32.7861C93.9434 32.2054 94.4176 31.4619 94.8419 30.7098C95.2932 29.91 95.7652 29.0992 95.824 28.162C95.8425 27.8682 95.5605 27.6172 95.2792 27.6172C94.9688 27.6177 94.753 27.8675 94.7346 28.1623Z" fill="#F7EDE5"/>
<path d="M93.5611 52.0509L58.5124 29.1858C58.3611 29.0874 58.1588 29.13 58.0601 29.2808C57.9614 29.4319 58.0042 29.6345 58.1553 29.7329L65.377 34.4441C64.291 35.7221 58.036 43.2732 54.6933 51.4777C51.4493 59.4399 52.9325 69.996 53.3344 72.409L53.3223 72.4021C53.1658 72.3128 52.9662 72.3672 52.8764 72.5239C52.7868 72.6804 52.8412 72.8803 52.998 72.9698L56.5028 74.9726C56.554 75.0016 56.6096 75.0156 56.6648 75.0156C56.7782 75.0156 56.8885 74.9563 56.9488 74.851C56.9965 74.7673 57.0022 74.6718 56.9743 74.5869C66.4342 73.1062 73.1582 65.6643 77.1678 59.5912C81.2166 53.4588 83.3667 47.4841 83.7336 46.4195L93.2043 52.598C93.2594 52.6339 93.3212 52.6511 93.3824 52.6511C93.4892 52.6511 93.5938 52.5989 93.6566 52.5027C93.755 52.3519 93.7122 52.1493 93.5611 52.0509ZM76.622 59.2309C72.589 65.3397 65.772 72.8593 56.1859 74.0384L54.0687 72.8286C54.0677 72.8153 54.0675 72.802 54.065 72.7885C54.0409 72.6669 51.7072 60.5399 55.2987 51.7246C58.667 43.4571 65.0393 35.8449 65.929 34.8044L83.1681 46.0509C83.1312 46.1638 81.0012 52.598 76.622 59.2309Z" fill="#412945"/>
<path d="M86.5955 37.5775C80.1562 37.5775 74.9171 32.3386 74.9171 25.8991C74.9171 19.4598 80.1562 14.2207 86.5955 14.2207C93.0348 14.2207 98.2736 19.4595 98.2736 25.8991C98.2736 32.3386 93.0348 37.5775 86.5955 37.5775ZM86.5955 14.6565C80.3964 14.6565 75.353 19.6997 75.353 25.8991C75.353 32.0984 80.3962 37.1416 86.5955 37.1416C92.7946 37.1416 97.8378 32.0984 97.8378 25.8991C97.8378 19.6997 92.7946 14.6565 86.5955 14.6565Z" fill="#412945"/>
<path d="M82.384 30.6664L87.9086 22.0753L86.0585 20.8857L86.8654 19.6309C87.6054 20.1068 88.1985 20.3517 88.6604 20.3758C89.1329 20.3839 89.6443 20.1897 90.2051 19.777L91.3957 20.5426L84.1539 31.8046L82.384 30.6664Z" fill="#412945"/>
<path d="M89.1114 99.6515C89.1114 99.6515 70.0645 86.8007 64.6718 84.0469C59.2789 81.2931 46.8871 67.9831 45.1659 69.016C43.4447 70.0486 44.3627 74.6382 44.3627 74.6382C44.3627 74.6382 40.4616 75.2119 41.1499 78.5393C41.1499 78.5393 37.5491 78.337 37.5929 81.9814C37.5929 81.9814 32.8886 82.8994 34.4948 87.1447C34.4948 87.1447 32.0853 88.1773 33.8065 91.9637C35.5277 95.7501 40.1173 98.9629 42.4121 97.2417C42.4121 97.2417 47.2311 103.552 50.7882 103.552C54.3452 103.552 55.6072 102.749 55.6072 102.749L75.3424 116.747L89.1114 99.6515Z" fill="#DE8157"/>
<path d="M51.2018 82.7164L50.9921 82.5185C50.9402 82.4693 45.7695 77.5666 44.67 74.5271C43.614 71.6085 45.3893 69.2617 45.423 69.2179C45.5345 69.0759 45.5097 68.8704 45.3677 68.7592C45.2257 68.6477 45.0202 68.6726 44.9087 68.8146C44.8275 68.9182 42.987 71.3154 43.9551 74.4501C43.9 74.4176 43.835 74.4011 43.7671 74.4078C43.7366 74.41 40.8314 74.6694 40.8147 78.1607C40.7829 78.1491 40.7495 78.1408 40.7135 78.1395C40.6523 78.1359 39.2146 78.1002 38.2039 79.1183C37.5697 79.7569 37.2574 80.6568 37.2658 81.7894C37.206 81.7532 37.1349 81.7352 37.0605 81.7456C37.0362 81.7483 34.6326 82.0581 34.1401 84.4494C33.9829 85.2128 34.0176 86.1546 34.2452 87.1638C34.2186 87.1685 34.1921 87.1754 34.1662 87.1869C34.0855 87.2234 32.1994 88.114 32.983 91.1276C33.722 93.9698 36.3503 96.5183 38.3614 97.2497C39.2266 97.5642 40.2406 97.8716 41.2016 97.8716C41.7545 97.8716 42.29 97.7697 42.7689 97.5091C43.5564 97.0806 44.09 96.2784 44.3548 95.1242C44.357 95.1148 44.357 95.1057 44.3582 95.0964C44.4414 95.0829 44.5218 95.0674 44.5994 95.0494C45.2304 94.9047 45.6549 94.6234 45.8269 94.2363C46.2307 93.3275 46.5821 92.2803 45.8729 91.1454C46.2502 91.2221 46.6161 91.2679 46.9537 91.2679C47.3802 91.2679 47.7612 91.1961 48.0671 91.0341C48.0673 91.0457 48.0671 91.057 48.0671 91.0686C48.1412 96.0222 48.6501 97.9668 48.6717 98.0471C48.7111 98.193 48.8428 98.289 48.987 98.289C49.015 98.289 49.0436 98.285 49.0719 98.2776C49.2461 98.2309 49.3495 98.0517 49.303 97.8775C49.298 97.8585 48.7931 95.9115 48.7207 91.059C48.6491 86.2658 51.0074 82.9817 51.0313 82.949L51.2018 82.7164ZM42.4566 96.935C41.3743 97.5239 39.819 97.0843 38.5848 96.6355C36.9668 96.0473 34.3397 93.7488 33.6157 90.9635C33.0162 88.6581 34.2103 87.9041 34.4113 87.7955C34.9456 89.5775 36.0705 91.4973 37.853 93.0024C39.6142 94.4895 41.867 95.1586 43.535 95.1586C43.5813 95.1586 43.6253 95.1564 43.6709 95.1555C43.4393 96.021 43.033 96.6214 42.4566 96.935ZM45.0259 91.1023C45.8525 92.0394 45.7353 92.8336 45.2299 93.971C45.1469 94.1575 44.8639 94.3182 44.4534 94.4125C42.9596 94.7546 40.2873 94.2023 38.2745 92.5026C35.4385 90.1078 34.3574 86.634 34.78 84.5813C35.1757 82.6588 37.0573 82.4046 37.1373 82.3945C37.1954 82.3876 37.2473 82.3645 37.2914 82.332C37.519 85.0038 39.1358 87.4692 41.994 89.4805C42.7042 89.9803 43.8205 90.5442 44.9459 90.9025C44.9496 90.9736 44.9749 91.0445 45.0259 91.1023ZM42.3703 88.9458C39.5249 86.9433 38.0274 84.5958 37.9192 81.9685C37.8766 80.9285 38.1269 80.126 38.6628 79.5834C39.4686 78.7673 40.6788 78.7932 40.6916 78.7929C40.7455 78.7951 40.7967 78.7819 40.843 78.759C41.2116 82.2808 46.1879 86.661 48.4968 87.2261C48.2785 88.131 48.119 89.1461 48.0767 90.2547C48.0252 90.2695 47.976 90.2924 47.9354 90.333C47.1848 91.0833 44.1146 90.173 42.3703 88.9458ZM48.6634 86.5946C46.7731 86.1415 41.6585 81.8664 41.4762 78.522C41.301 75.306 43.7117 75.0685 43.8165 75.0597C43.946 75.0498 44.0508 74.9649 44.0951 74.8515C45.1937 77.716 49.3588 81.8506 50.3422 82.8008C50.0031 83.3215 49.2166 84.6593 48.6634 86.5946Z" fill="#412945"/>
<path d="M110.606 100.462C109.247 102.187 107.798 103.838 106.262 105.403C98.9609 112.849 89.7556 118.417 79.4332 121.32C79.409 121.327 79.3871 121.334 79.3652 121.339C76.9882 121.974 74.7273 122.473 72.6607 122.808C72.4498 122.844 72.2391 122.876 72.0307 122.907C69.9396 121.061 66.7096 117.668 67.5141 114.911L61.1705 110.738L76.5256 88.875L82.5347 92.7131C82.5347 92.7131 88.0422 91.5451 90.5453 92.8802L110.606 100.462Z" fill="#B5E1E8"/>
</svg>
