<svg width="24" height="24" viewBox="0 0 24 24" fill="none" xmlns="http://www.w3.org/2000/svg">
<path d="M7.0979 10.376L1.85669 20.2506L6.61617 19.8109L8.91975 23.9994L14.161 14.1247L7.0979 10.376Z" fill="#E95454"/>
<path d="M7.69834 21.1236C7.84541 20.8077 7.69159 20.4303 7.38394 20.2667L7.0823 20.1061C6.78066 19.9343 6.66585 19.5524 6.83018 19.2432C6.99676 18.9288 7.38844 18.8088 7.70284 18.9754L8.55524 19.4278C8.81861 19.5674 9.14877 19.4661 9.28458 19.2012L9.30559 19.1607C9.46167 18.9108 9.36937 18.5807 9.10975 18.4434L6.56006 17.0905C6.24941 16.9254 6.09709 16.5495 6.24191 16.2328C6.40173 15.8959 6.80542 15.7631 7.13032 15.9357L9.49543 17.191C9.7588 17.3306 10.089 17.2293 10.2285 16.9659L10.242 16.9314L10.2458 16.9239C10.3966 16.6478 10.2908 16.3011 10.0124 16.1533L8.6858 15.4495C8.37516 15.2844 8.22283 14.9085 8.3699 14.5881C8.52823 14.2549 8.93342 14.1183 9.25832 14.2909L10.7238 15.069C10.9976 15.2146 11.3248 15.093 11.4666 14.8169C11.4689 14.8132 11.4689 14.8132 11.4704 14.8094C11.4726 14.8057 11.4726 14.8057 11.4741 14.8019C11.6234 14.5295 11.5409 14.1904 11.2663 14.0456L9.68527 13.2067C9.37838 13.0438 9.22605 12.6679 9.37087 12.3513C9.5307 12.0144 9.93439 11.8815 10.2593 12.0541L14.1596 14.1243L8.91841 23.999L7.47398 21.3735C7.56703 21.3105 7.64806 21.2324 7.69834 21.1236Z" fill="#ED6362"/>
<path d="M16.9022 10.376L22.1434 20.2506L17.3839 19.8109L15.0803 23.9994L9.83911 14.1247L16.9022 10.376Z" fill="#ED6362"/>
<path d="M16.3019 21.1239C16.1548 20.808 16.3086 20.4305 16.6163 20.2669L16.9179 20.1064C17.2196 19.9345 17.3344 19.5526 17.17 19.2435C17.0035 18.9291 16.6118 18.809 16.2974 18.9756L15.445 19.4281C15.1816 19.5676 14.8514 19.4663 14.7156 19.2014L14.6946 19.1609C14.5385 18.9111 14.6308 18.5809 14.8905 18.4436L17.4409 17.09C17.7516 16.9249 17.9039 16.549 17.7591 16.2323C17.5992 15.8954 17.1955 15.7626 16.8706 15.9352L14.5055 17.1905C14.2422 17.3301 13.912 17.2288 13.7724 16.9654L13.7589 16.9309L13.7552 16.9234C13.6044 16.6473 13.7102 16.3006 13.9885 16.1528L15.3152 15.4489C15.6258 15.2839 15.7781 14.9079 15.6311 14.5875C15.4727 14.2544 15.0675 14.1178 14.7426 14.2904L13.2757 15.07C13.0018 15.2156 12.6747 15.094 12.5329 14.8179C12.5306 14.8141 12.5306 14.8141 12.5291 14.8104C12.5269 14.8066 12.5269 14.8066 12.5254 14.8029C12.376 14.5305 12.4586 14.1914 12.7332 14.0465L14.3142 13.2076C14.6211 13.0448 14.7734 12.6689 14.6286 12.3522C14.4688 12.0153 14.0651 11.8825 13.7402 12.0551L9.83984 14.1253L15.0811 23.9999L16.5255 21.3745C16.4332 21.3107 16.3521 21.2327 16.3019 21.1239Z" fill="#E95454"/>
<path d="M12 17.5147C16.8366 17.5147 20.7574 13.5939 20.7574 8.75735C20.7574 3.9208 16.8366 0 12 0C7.16348 0 3.24268 3.9208 3.24268 8.75735C3.24268 13.5939 7.16348 17.5147 12 17.5147Z" fill="#FFCC5B"/>
<path d="M13.1877 7.75255H7.63811C7.20666 7.75255 6.8525 7.39839 6.8525 6.96693L6.8585 6.91291V6.9009C6.8525 6.44544 7.22392 6.07327 7.68013 6.07327H11.5264C12.0359 6.07327 12.4861 5.69584 12.5162 5.1856C12.5402 4.6521 12.1147 4.20189 11.5805 4.20189H7.50605C7.05659 4.20189 6.72043 3.82446 6.72644 3.37425C6.72644 3.36825 6.72644 3.36825 6.72644 3.36224C6.72644 3.35624 6.72644 3.35624 6.72644 3.35024C6.72043 2.90078 7.05584 2.5226 7.50605 2.5226H11.7696C12.273 2.5226 12.7232 2.14517 12.7533 1.64094C12.7773 1.10143 12.3518 0.657227 11.8176 0.657227H8.69536C5.51162 1.96959 3.26807 5.10006 3.26807 8.75727C3.26807 12.4145 5.51162 15.5442 8.69611 16.8551H12.6602C13.1637 16.8551 13.6139 16.4776 13.6439 15.9734C13.6679 15.4339 13.2425 14.9904 12.7082 14.9904L8.19863 14.9897C7.66663 14.9897 7.23818 14.5447 7.26669 14.006C7.29295 13.5017 7.74617 13.1228 8.25115 13.1228H9.99947C10.5022 13.1086 10.9081 12.6966 10.9081 12.1901C10.9081 11.6746 10.4887 11.2544 9.97246 11.2544H7.32222C6.89076 11.2544 6.5366 10.901 6.5426 10.4688V10.4028C6.51259 9.97734 6.85475 9.61718 7.2802 9.61718H13.1337C13.6432 9.61718 14.0934 9.23975 14.1234 8.73551C14.1474 8.19676 13.7212 7.75255 13.1877 7.75255Z" fill="#FDBC4B"/>
<path d="M12 15.0075C8.55284 15.0075 5.74878 12.2027 5.74878 8.75629C5.74878 5.30992 8.55284 2.50586 12 2.50586C15.4471 2.50586 18.2511 5.31067 18.2511 8.75704C18.2511 12.2034 15.4471 15.0075 12 15.0075Z" fill="#FFDB70"/>
<path opacity="0.2" d="M18.2512 8.75759C18.2512 5.43203 15.6385 2.712 12.3587 2.52441H11.7764C11.3922 2.52441 11.0493 2.81255 11.0261 3.19673C11.0081 3.60792 11.3322 3.94708 11.7397 3.94708L15.1793 3.94783C15.5852 3.94783 15.9116 4.28699 15.8898 4.69818C15.8696 5.08311 15.5244 5.372 15.1387 5.372H13.8054C13.4219 5.38325 13.112 5.6969 13.112 6.08333C13.112 6.47652 13.4324 6.79692 13.8256 6.79692H15.8471C16.1765 6.79692 16.4459 7.06704 16.4414 7.3957V7.44522C16.4639 7.77012 16.2035 8.044 15.8786 8.044H11.4147C11.0261 8.044 10.6832 8.33214 10.6599 8.71632C10.6419 9.12751 10.966 9.46667 11.3735 9.46667H15.6055C15.9349 9.46667 16.2042 9.73679 16.2042 10.0654L16.1997 10.1067V10.1157C16.2042 10.4631 15.9206 10.7468 15.5732 10.7468H12.6393C12.2506 10.7468 11.9077 11.0349 11.8845 11.4236C11.8665 11.8303 12.1906 12.1739 12.5981 12.1739H15.7053C16.0482 12.1739 16.304 12.4621 16.2995 12.805C16.2995 12.8095 16.2995 12.8095 16.2995 12.814C16.2995 12.8185 16.2995 12.8185 16.2995 12.823C16.304 13.1659 16.0482 13.454 15.7053 13.454H12.454C12.0698 13.454 11.7269 13.7422 11.7036 14.1264C11.6856 14.5383 12.0098 14.8767 12.4172 14.8767H13.2749C16.1135 14.2854 18.2512 11.7665 18.2512 8.75759Z" fill="white"/>
<path d="M16.364 7.37257H13.3235L12.3834 4.48072C12.2625 4.10929 11.7365 4.10929 11.6157 4.48072L10.6763 7.37257H7.63588C7.24494 7.37257 7.08212 7.87306 7.39876 8.10266L9.85842 9.89L8.91898 12.7819C8.79817 13.1533 9.22362 13.4624 9.54027 13.2328L11.9999 11.4455L14.4596 13.2328C14.7762 13.4624 15.2017 13.1533 15.0809 12.7819L14.1414 9.89L16.6011 8.10266C16.917 7.87306 16.7549 7.37257 16.364 7.37257Z" fill="#EC9922"/>
</svg>
