<svg width="87" height="86" viewBox="0 0 87 86" fill="none" xmlns="http://www.w3.org/2000/svg">
<circle cx="43.5" cy="43" r="43" fill="#DB00FF"/>
<path d="M58.8 24.26L44.8 21.14C43.9427 20.9598 43.0573 20.9598 42.2 21.14L28.2 24.26C26.8666 24.556 25.6741 25.298 24.8195 26.3635C23.9649 27.429 23.4995 28.7542 23.5 30.12V38.26C23.4749 43.9367 25.1671 49.4882 28.3546 54.1855C31.5421 58.8828 36.0757 62.5063 41.36 64.58C42.039 64.8589 42.7661 65.0016 43.5 65C44.2318 64.9983 44.9571 64.8627 45.64 64.6C50.9228 62.5181 55.454 58.8898 58.6406 54.1901C61.8273 49.4904 63.521 43.9382 63.5 38.26V30.12C63.5006 28.7542 63.0352 27.429 62.1806 26.3635C61.326 25.298 60.1335 24.556 58.8 24.26ZM53 38.52L43.38 47.98C43.0053 48.3525 42.4984 48.5616 41.97 48.5616C41.4417 48.5616 40.9348 48.3525 40.56 47.98L36 43.5C35.8126 43.3141 35.6638 43.0929 35.5623 42.8492C35.4607 42.6055 35.4084 42.3441 35.4084 42.08C35.4084 41.816 35.4607 41.5546 35.5623 41.3109C35.6638 41.0672 35.8126 40.846 36 40.66C36.3748 40.2875 36.8817 40.0784 37.41 40.0784C37.9384 40.0784 38.4453 40.2875 38.82 40.66L41.98 43.76L50.2 35.76C50.3878 35.5749 50.6102 35.4285 50.8546 35.3293C51.099 35.2301 51.3605 35.18 51.6242 35.1818C51.8879 35.1837 52.1487 35.2375 52.3916 35.3401C52.6345 35.4428 52.8549 35.5922 53.04 35.78C53.2252 35.9678 53.3716 36.1902 53.4708 36.4346C53.57 36.679 53.6201 36.9405 53.6182 37.2042C53.6164 37.4679 53.5626 37.7287 53.4599 37.9716C53.3573 38.2145 53.2078 38.4349 53.02 38.62L53 38.52Z" fill="white"/>
</svg>
