<svg width="24" height="26" viewBox="0 0 24 26" fill="none" xmlns="http://www.w3.org/2000/svg">
<path d="M21.8265 16.0779H21.3638V8.4691C21.3638 5.50969 18.9588 3.1085 16.0032 3.1085H15.8427C15.2615 1.49116 13.7091 0.382324 11.9733 0.382324C10.2336 0.382324 8.68118 1.49116 8.10385 3.1085H7.99678C5.0412 3.1085 2.63618 5.50969 2.63618 8.4691V16.0779H2.17355C1.2253 16.0779 0.456787 16.8464 0.456787 17.7909V21.6067C0.456787 22.5511 1.2253 23.3197 2.17355 23.3197H2.63618V23.4994C2.63618 24.6694 3.58826 25.6176 4.75443 25.6176H19.2456C20.4156 25.6176 21.3638 24.6694 21.3638 23.4994V23.3197H21.8265C22.7747 23.3197 23.5433 22.5511 23.5433 21.6067V17.7909C23.5433 16.8464 22.7747 16.0779 21.8265 16.0779ZM2.63618 22.555H2.17355C1.64972 22.555 1.22149 22.1306 1.22149 21.6067V17.7909C1.22149 17.267 1.64973 16.8426 2.17355 16.8426H2.63618V22.555ZM11.9733 1.14703C13.2924 1.14703 14.4815 1.93468 15.0206 3.1085H8.92589C9.4612 1.93468 10.6503 1.14703 11.9733 1.14703ZM20.5991 23.4994C20.5991 24.2488 19.995 24.8529 19.2456 24.8529H4.75443C4.00884 24.8529 3.40089 24.2488 3.40089 23.4994V12.0441C3.78324 12.3806 4.28795 12.5794 4.83471 12.5794H6.24559V13.1223C6.24559 13.5391 6.58589 13.8756 7.00267 13.8756H8.13442C8.55119 13.8756 8.89149 13.5391 8.89149 13.1223V12.5794H15.1124V13.1223C15.1124 13.5391 15.4527 13.8756 15.8694 13.8756H16.9974C17.4141 13.8756 17.7544 13.5391 17.7544 13.1223V12.5794H19.1729C19.7197 12.5794 20.2168 12.3806 20.5991 12.0479L20.5991 23.4994ZM7.0103 13.1223V11.0538L8.12679 11.0462L8.13442 13.1109L7.0103 13.1223ZM15.8771 13.1223V11.0538L16.9897 11.0462L16.9974 13.1109L15.8771 13.1223ZM20.5991 10.3847C20.5991 11.1723 19.9568 11.8147 19.1729 11.8147H17.7544V11.0462C17.7544 10.6256 17.4141 10.2891 16.9974 10.2891H15.8694C15.4527 10.2891 15.1124 10.6256 15.1124 11.0462V11.8147H8.89149V11.0462C8.89149 10.6256 8.5512 10.2891 8.13442 10.2891H7.00267C6.58589 10.2891 6.2456 10.6256 6.2456 11.0462V11.8147H4.83471C4.04326 11.8147 3.40089 11.1723 3.40089 10.3847V8.4691C3.40089 5.9341 5.46178 3.87321 7.99678 3.87321H16.0032C18.5382 3.87321 20.5991 5.93409 20.5991 8.4691L20.5991 10.3847ZM22.7786 21.6067C22.7786 22.1306 22.3503 22.555 21.8265 22.555H21.3638V16.8426H21.8265C22.3503 16.8426 22.7786 17.267 22.7786 17.7909V21.6067Z" fill="#A0A3BD"/>
<path d="M16.1721 16.5942H7.83019C6.9938 16.5942 6.31348 17.2746 6.31348 18.111V22.1077C6.31348 23.0106 7.04831 23.7454 7.95155 23.7454H16.0508C16.954 23.7454 17.6889 23.0106 17.6889 22.1077V18.111C17.6889 17.2746 17.0085 16.5942 16.1721 16.5942ZM7.83019 17.3589H16.1721C16.587 17.3589 16.9241 17.6961 16.9241 18.111V18.3787H7.07818V18.111C7.07818 17.6961 7.41536 17.3589 7.83019 17.3589ZM16.0508 22.9807H7.95155C7.46987 22.9807 7.07818 22.589 7.07818 22.1077V19.1434H7.88135V19.9716C7.88135 20.1829 8.05236 20.3539 8.2637 20.3539C8.47504 20.3539 8.64605 20.1829 8.64605 19.9716V19.1434H16.9241V22.1077C16.9241 22.589 16.5325 22.9807 16.0508 22.9807Z" fill="#A0A3BD"/>
<path d="M19.4023 19.7871C19.191 19.7871 19.02 19.9581 19.02 20.1695V21.7907C19.02 22.2616 18.7773 22.6913 18.3706 22.9397C18.1903 23.0498 18.1335 23.2854 18.2437 23.4654C18.3158 23.5834 18.4416 23.6483 18.5704 23.6483C18.6384 23.6483 18.7071 23.6304 18.7694 23.5923C19.4053 23.2036 19.7847 22.53 19.7847 21.7907V20.1695C19.7847 19.9581 19.6137 19.7871 19.4023 19.7871Z" fill="#A0A3BD"/>
<path d="M19.4024 18.2622C19.191 18.2622 19.02 18.4332 19.02 18.6446V18.8518C19.02 19.0631 19.191 19.2341 19.4024 19.2341C19.6137 19.2341 19.7847 19.0631 19.7847 18.8518V18.6446C19.7847 18.4332 19.6137 18.2622 19.4024 18.2622Z" fill="#A0A3BD"/>
</svg>
