<svg width="89" height="89" viewBox="0 0 89 89" fill="none" xmlns="http://www.w3.org/2000/svg">
<g clip-path="url(#clip0_55_1768)">
<path d="M60.2218 71.0127C45.4845 79.703 26.5305 74.8108 17.8598 60.1067C9.16943 45.3693 14.0617 26.4153 28.7991 17.725C43.5032 9.05428 62.4571 13.9466 71.1475 28.6839C79.8182 43.388 74.9259 62.342 60.2218 71.0127Z" fill="#FCD131"/>
<path d="M56.0407 63.9397C45.2166 70.3225 31.3056 66.7318 24.9326 55.9244C18.5499 45.1004 22.1405 31.1893 32.9646 24.8066C43.772 18.4336 57.683 22.0243 64.0658 32.8483C70.4387 43.6557 66.8481 57.5668 56.0407 63.9397Z" fill="#F6AF21"/>
<path fill-rule="evenodd" clip-rule="evenodd" d="M33.1541 47.626C34.3885 53.2 39.3469 57.1969 45.0822 57.1969C49.7492 57.1969 53.8049 54.5777 55.8624 50.7279L51.9263 50.728C50.286 52.6785 47.8287 53.918 45.0822 53.918C41.1558 53.918 37.6987 51.3548 36.5414 47.6261L38.3449 47.626L34.8478 40.625L31.3507 47.626L33.1541 47.626Z" fill="#DB4437"/>
<path fill-rule="evenodd" clip-rule="evenodd" d="M57.011 42.3092C55.7765 36.7351 50.8183 32.7383 45.0829 32.7383C40.416 32.7383 36.3603 35.3575 34.3027 39.2074L38.2386 39.2074C39.8789 37.2568 42.3363 36.0172 45.0829 36.0172C48.4223 36.0172 53.2484 38.813 53.6237 42.3092L51.8203 42.3092L55.3174 49.3102L58.8144 42.3092L57.011 42.3092Z" fill="#DB4437"/>
<path fill-rule="evenodd" clip-rule="evenodd" d="M49.2935 45.5251L43.2001 49.0466C42.9951 49.1651 42.7604 49.1651 42.5553 49.0466C42.3503 48.9281 42.2329 48.7246 42.2329 48.4876L42.2329 41.4447C42.2329 41.2077 42.3503 41.0042 42.5553 40.8857C42.7603 40.7673 42.9951 40.7672 43.2001 40.8857L49.2935 44.4072C49.4985 44.5257 49.6159 44.7292 49.6159 44.9661C49.6159 45.2032 49.4985 45.4066 49.2935 45.5251Z" fill="#1865C1"/>
</g>
<defs>
<clipPath id="clip0_55_1768">
<rect width="63.7957" height="63.7957" fill="white" transform="translate(55.7688 0.699219) rotate(59.4729)"/>
</clipPath>
</defs>
</svg>
