<svg width="72" height="72" viewBox="0 0 72 72" fill="none" xmlns="http://www.w3.org/2000/svg">
<circle cx="36" cy="36" r="36" fill="#EE5906"/>
<path d="M46.2 23.5066L36.8667 21.4266C36.2952 21.3065 35.7049 21.3065 35.1334 21.4266L25.8 23.5066C24.9111 23.7039 24.1161 24.1986 23.5463 24.909C22.9766 25.6193 22.6663 26.5027 22.6667 27.4133V32.84C22.6499 36.6244 23.7781 40.3254 25.9031 43.457C28.028 46.5885 31.0505 49.0042 34.5734 50.3866C35.026 50.5726 35.5107 50.6677 36 50.6666C36.4879 50.6655 36.9714 50.5751 37.4267 50.4C40.9485 49.012 43.9693 46.5932 46.0938 43.46C48.2182 40.3269 49.3473 36.6254 49.3334 32.84V27.4133C49.3337 26.5027 49.0234 25.6193 48.4537 24.909C47.884 24.1986 47.089 23.7039 46.2 23.5066ZM42.3334 33.0133L35.92 39.32C35.6702 39.5683 35.3323 39.7077 34.98 39.7077C34.6278 39.7077 34.2898 39.5683 34.04 39.32L31 36.3333C30.8751 36.2094 30.7759 36.0619 30.7082 35.8994C30.6405 35.7369 30.6056 35.5627 30.6056 35.3866C30.6056 35.2106 30.6405 35.0364 30.7082 34.8739C30.7759 34.7114 30.8751 34.5639 31 34.44C31.2498 34.1916 31.5878 34.0523 31.94 34.0523C32.2923 34.0523 32.6302 34.1916 32.88 34.44L34.9867 36.5066L40.4667 31.1733C40.5919 31.0499 40.7402 30.9523 40.9031 30.8862C41.066 30.82 41.2403 30.7866 41.4161 30.7879C41.5919 30.7891 41.7658 30.825 41.9277 30.8934C42.0897 30.9618 42.2366 31.0615 42.36 31.1866C42.4835 31.3118 42.581 31.4601 42.6472 31.623C42.7133 31.7859 42.7467 31.9603 42.7455 32.1361C42.7442 32.3119 42.7084 32.4857 42.64 32.6477C42.5715 32.8096 42.4719 32.9565 42.3467 33.08L42.3334 33.0133Z" fill="white"/>
</svg>
