<svg width="33" height="33" viewBox="0 0 33 33" fill="none" xmlns="http://www.w3.org/2000/svg">
<g clip-path="url(#clip0_880_183902)">
<path d="M16.7283 32.0977C25.5648 32.0977 32.7283 24.9342 32.7283 16.0977C32.7283 7.2611 25.5648 0.0976562 16.7283 0.0976562C7.89172 0.0976562 0.728271 7.2611 0.728271 16.0977C0.728271 24.9342 7.89172 32.0977 16.7283 32.0977Z" fill="#FFDD33"/>
<g clip-path="url(#clip1_880_183902)">
<path d="M18.7434 13.7262L17.4203 11.6256L15.1577 10.1406C14.7271 10.5354 14.357 10.8746 13.9264 11.2693L14.342 14.0913L15.7449 16.7247L17.703 15.5048L18.7434 13.7262Z" fill="#FF1D92"/>
<path d="M15.7449 16.7251L18.1999 18.2379L21.2003 18.5435C21.595 18.1129 21.9342 17.7429 22.3289 17.3122L20.7027 15.1753L18.7434 13.7266C18.3806 14.0894 16.1101 16.36 15.7449 16.7251Z" fill="#990250"/>
<path d="M15.7448 16.7249C15.5248 16.065 14.1478 11.9338 13.9264 11.2695C13.3818 11.7687 9.96966 14.8966 9.42151 15.399L10.8867 17.7038L13.2461 19.2237L14.8288 18.3109L15.7448 16.7249Z" fill="#8BCAFC"/>
<path d="M15.7448 16.7227C15.072 17.3954 13.638 18.8295 13.2461 19.2214L14.766 21.4865L17.0707 23.046C17.5699 22.5014 20.6977 19.0893 21.2002 18.5411C20.5403 18.3211 16.4091 16.9441 15.7448 16.7227Z" fill="#6492E0"/>
<path d="M11.2472 21.2201L9.64611 18.8949L7.3357 17.3086C6.81431 17.7866 6.29263 18.2647 5.77124 18.7427L7.46301 20.968L9.74793 22.7194L10.8397 22.3501L11.2472 21.2201Z" fill="#8BCAFC"/>
<path d="M9.74792 22.7219L11.2366 24.9754L13.7247 26.6986C14.2027 26.1772 14.6811 25.6553 15.1588 25.1342L13.5411 22.9651L11.2473 21.2227C10.7706 21.6992 10.2245 22.2454 9.74792 22.7219Z" fill="#6492E0"/>
<path d="M27.7389 4.73019C27.5641 4.55538 27.4139 4.40522 27.2392 4.23047C26.8163 4.53249 24.1666 6.42516 23.7409 6.7292C23.2643 7.20579 22.7183 7.75182 22.2417 8.2284L22.399 9.22793H23.2411L25.7399 7.47878L27.7389 4.73019Z" fill="#E6EFFB"/>
<path d="M23.2411 9.22826V10.1403L24.2406 10.2277C24.7397 9.72855 25.2407 9.22756 25.7398 8.72845C26.0418 8.30563 27.9346 5.65584 28.2386 5.23023C28.0638 5.05543 27.9136 4.90527 27.7388 4.73047C27.1946 5.27467 23.7888 8.68049 23.2411 9.22826Z" fill="#CFDBFD"/>
<path d="M23.2411 9.2292C22.488 8.47609 21.4951 7.48311 20.7424 6.73047C20.5005 6.97232 18.9869 8.48599 18.7434 8.72944L19.6348 10.4011L21.2421 11.2281L22.823 10.739L23.2411 9.2292Z" fill="#CFDBFD"/>
<path d="M21.2421 11.2255L21.8963 12.8642L23.7408 13.7242C23.9826 13.4824 25.4963 11.9687 25.7398 11.7252C24.987 10.9724 23.9938 9.9793 23.241 9.22656C22.9992 9.46841 21.4855 10.982 21.2421 11.2255Z" fill="#B3C7EF"/>
<path d="M28.7283 27.7706C28.2571 27.7706 20.7185 27.7706 20.2473 27.7706C19.0782 27.7706 18.1271 26.8195 18.1271 25.6504C18.1271 24.4813 19.0781 23.5301 20.2473 23.5301H24.4878C24.8776 23.5301 25.1946 23.2131 25.1946 22.8234C25.1946 22.4337 24.8776 22.1166 24.4878 22.1166C23.782 22.1166 23.0734 22.1166 22.3676 22.1166C22.3676 21.6223 22.3676 21.1975 22.3676 20.7031H24.4878C25.6569 20.7031 26.6081 21.6542 26.6081 22.8234C26.6081 23.9924 25.657 24.9436 24.4878 24.9436C23.9748 24.9436 20.7637 24.9436 20.2473 24.9436C19.8576 24.9436 19.5406 25.2607 19.5406 25.6504C19.5406 26.0401 19.8576 26.3571 20.2473 26.3571H28.7283V27.7706Z" fill="#CFDBFD"/>
<path d="M13.2462 19.2231C12.7836 18.7606 9.88715 15.864 9.42159 15.3984C9.16947 15.6295 7.58946 17.0779 7.33569 17.3105C7.81129 17.7862 10.7706 20.7454 11.2472 21.222L12.5833 20.5773L13.2462 19.2231Z" fill="#E6EFFB"/>
<path d="M11.2472 21.2216C11.7228 21.6973 14.6821 24.6565 15.1587 25.1332C15.3898 24.881 16.8381 23.3011 17.0708 23.0473C16.6083 22.5848 13.7117 19.6882 13.2462 19.2227C13.0043 19.4645 11.4906 20.9782 11.2472 21.2216Z" fill="#CFDBFD"/>
<path d="M5.7712 18.7461C5.40647 19.0804 5.09305 19.3677 4.72827 19.7021C5.21715 20.191 8.25853 23.2323 8.74845 23.7222L9.55183 23.5942L9.74793 22.7227C8.48374 21.4585 7.03543 20.0103 5.7712 18.7461Z" fill="#CFDBFD"/>
<path d="M8.74841 23.7221C9.23725 24.2111 12.2787 27.2524 12.7686 27.7423C13.103 27.3776 13.3902 27.0642 13.7246 26.6994C12.4604 25.4352 11.0121 23.9869 9.7479 22.7227C9.39834 23.0723 9.09797 23.3726 8.74841 23.7221Z" fill="#B3C7EF"/>
<path d="M21.2421 11.227C20.5692 10.5542 19.1352 9.1202 18.7433 8.72828C18.4012 8.38612 18.1073 8.09216 17.7651 7.75C17.0651 8.39168 15.582 9.75118 15.1577 10.1401L18.7433 13.7257L20.4671 12.9129L21.2421 11.227Z" fill="#8BCAFC"/>
<path d="M21.2421 11.2266C20.5693 11.8993 19.1354 13.3334 18.7434 13.7252C19.1772 14.159 21.8924 16.8743 22.329 17.3109C22.9707 16.611 24.3301 15.1278 24.7191 14.7035C24.377 14.3614 24.083 14.0674 23.7409 13.7252V13.7253C23.068 13.0525 21.6341 11.6185 21.2421 11.2266Z" fill="#6492E0"/>
</g>
</g>
<defs>
<clipPath id="clip0_880_183902">
<rect width="32" height="32" fill="white" transform="translate(0.728271 0.0976562)"/>
</clipPath>
<clipPath id="clip1_880_183902">
<rect width="24" height="24" fill="white" transform="translate(4.72827 4)"/>
</clipPath>
</defs>
</svg>
