<svg width="72" height="72" viewBox="0 0 72 72" fill="none" xmlns="http://www.w3.org/2000/svg">
<circle cx="36" cy="36" r="36" fill="#C826F0"/>
<path d="M41.975 30.5C40.625 30.535 40.625 32.515 41.975 32.55C43.325 32.515 43.325 30.535 41.975 30.5Z" fill="white"/>
<path d="M32.52 32.55C33.8701 32.515 33.8701 30.535 32.52 30.5C31.1701 30.535 31.1701 32.515 32.52 32.55Z" fill="white"/>
<path d="M36 22C28.27 22 22 29.825 22 37.555C22 45.29 28.27 50 36 50C43.73 50 50 45.29 50 37.555C50 29.825 43.73 22 36 22ZM28 32.4C28 30.8 29.3 29.5 30.9 29.5H32.52C35.195 29.585 35.195 33.465 32.52 33.55C31 33.59 29.97 31.795 30.78 30.51C29.79 30.575 29 31.395 29 32.4C28.99 33.055 28.01 33.055 28 32.4ZM42.865 43.34C42.68 43.54 42.365 43.555 42.16 43.365L39.25 40.68L36.34 43.365C36.15 43.545 35.85 43.545 35.66 43.365L32.75 40.68L29.84 43.365C29.355 43.81 28.685 43.075 29.16 42.635L32.41 39.635C32.6 39.455 32.9 39.455 33.09 39.635L36 42.32L38.91 39.635C39.1 39.455 39.4 39.455 39.59 39.635L42.84 42.635C43.04 42.82 43.055 43.135 42.865 43.34ZM39.95 31.525C39.95 31.155 40.06 30.81 40.235 30.51C39.245 30.575 38.455 31.395 38.455 32.4C38.445 33.055 37.465 33.055 37.455 32.4C37.455 30.8 38.755 29.5 40.355 29.5H41.975C43.09 29.5 44 30.41 44 31.525C43.915 34.2 40.035 34.2 39.95 31.525Z" fill="white"/>
</svg>
