<svg width="10" height="10" viewBox="0 0 10 10" fill="none" xmlns="http://www.w3.org/2000/svg">
<g clip-path="url(#clip0_147_7339)">
<path d="M4.39168 1.11696L3.18592 2.45671L1.59807 1.50399H0.956543L1.77734 5.24667C1.77734 5.40847 1.90852 5.53964 2.07031 5.53964H7.92969C8.09148 5.53964 8.22266 5.40847 8.22266 5.24667L9.04346 1.50399H8.40193L6.81408 2.45669L5.60832 1.11694L4.39168 1.11696Z" fill="#FFF68E"/>
<path d="M8.40193 1.50399L6.81408 2.45669L5.60832 1.11694H5V5.53962H7.92969C8.09148 5.53962 8.22266 5.40845 8.22266 5.24665L9.04346 1.50399H8.40193Z" fill="#FFCD00"/>
<path d="M1.77734 5.24658H8.22266V6.95312H1.77734V5.24658Z" fill="#FFCD00"/>
<path d="M5 5.24658H8.22266V6.95312H5V5.24658Z" fill="#FF9F00"/>
<path d="M5 4.29688C5.1618 4.29688 5.29297 4.16571 5.29297 4.00391C5.29297 3.8421 5.1618 3.71094 5 3.71094C4.8382 3.71094 4.70703 3.8421 4.70703 4.00391C4.70703 4.16571 4.8382 4.29688 5 4.29688Z" fill="#FF3C7D"/>
<path d="M5.29297 4.00391C5.29297 3.84211 5.1618 3.71094 5 3.71094V4.29688C5.1618 4.29688 5.29297 4.1657 5.29297 4.00391Z" fill="#E50058"/>
<path d="M3.82812 4.29688C3.98993 4.29688 4.12109 4.16571 4.12109 4.00391C4.12109 3.8421 3.98993 3.71094 3.82812 3.71094C3.66632 3.71094 3.53516 3.8421 3.53516 4.00391C3.53516 4.16571 3.66632 4.29688 3.82812 4.29688Z" fill="#FF3C7D"/>
<path d="M6.17188 4.29688C6.33368 4.29688 6.46484 4.16571 6.46484 4.00391C6.46484 3.8421 6.33368 3.71094 6.17188 3.71094C6.01007 3.71094 5.87891 3.8421 5.87891 4.00391C5.87891 4.16571 6.01007 4.29688 6.17188 4.29688Z" fill="#E50058"/>
<path d="M9.12109 10H0.878906C0.394277 10 0 9.60572 0 9.12109V7.36328C0 6.87865 0.394277 6.48438 0.878906 6.48438H9.12109C9.60572 6.48438 10 6.87865 10 7.36328V9.12109C10 9.60572 9.60572 10 9.12109 10Z" fill="#FF3C7D"/>
<path d="M9.12109 6.48438H5V10H9.12109C9.60572 10 10 9.60572 10 9.12109V7.36328C10 6.87865 9.60572 6.48438 9.12109 6.48438Z" fill="#E50058"/>
<path d="M5 1.75781C4.51537 1.75781 4.12109 1.36354 4.12109 0.878906C4.12109 0.394277 4.51537 0 5 0C5.48463 0 5.87891 0.394277 5.87891 0.878906C5.87891 1.36354 5.48463 1.75781 5 1.75781Z" fill="#FFCD00"/>
<path d="M5.87891 0.878906C5.87891 0.394277 5.48463 0 5 0V1.75781C5.48463 1.75781 5.87891 1.36354 5.87891 0.878906Z" fill="#FF9F00"/>
<path d="M8.71094 2.53906C8.22631 2.53906 7.83203 2.14479 7.83203 1.66016C7.83203 1.17553 8.22631 0.78125 8.71094 0.78125C9.19557 0.78125 9.58984 1.17553 9.58984 1.66016C9.58984 2.14479 9.19557 2.53906 8.71094 2.53906Z" fill="#FF9F00"/>
<path d="M1.28906 2.53906C0.804434 2.53906 0.410156 2.14479 0.410156 1.66016C0.410156 1.17553 0.804434 0.78125 1.28906 0.78125C1.77369 0.78125 2.16797 1.17553 2.16797 1.66016C2.16797 2.14479 1.77369 2.53906 1.28906 2.53906Z" fill="#FFCD00"/>
<path d="M3.24609 7.36328C3.13824 7.36328 3.05078 7.45074 3.05078 7.55859V8.92578C3.05078 9.03363 3.13824 9.12109 3.24609 9.12109C3.35395 9.12109 3.44141 9.03363 3.44141 8.92578V7.55859C3.44141 7.45072 3.35396 7.36328 3.24609 7.36328Z" fill="#FFF5F5"/>
<path d="M2.69829 7.36963C2.59251 7.34861 2.48966 7.41726 2.46861 7.52305L2.32903 8.22437L2.10622 7.50115C2.07445 7.39809 1.96515 7.34019 1.86206 7.37201C1.79273 7.39338 1.74403 7.44986 1.72913 7.5159L1.5098 8.22453L1.37058 7.52076C1.34966 7.41494 1.24691 7.34601 1.14109 7.36707C1.03527 7.38799 0.966457 7.49074 0.987394 7.59656L1.25378 8.94322C1.25562 8.95256 1.25814 8.96172 1.26132 8.97066C1.29333 9.06084 1.37886 9.12115 1.47445 9.12115H1.47593C1.57214 9.12051 1.65759 9.05889 1.68857 8.96781C1.68915 8.96609 1.68972 8.96437 1.69025 8.96266L1.91954 8.22185L2.1478 8.96281C2.14862 8.96549 2.1495 8.96812 2.15044 8.97076C2.18251 9.06086 2.268 9.12113 2.36353 9.12113H2.36509C2.46126 9.12047 2.54667 9.05885 2.57765 8.96779C2.58042 8.95969 2.58263 8.95141 2.58431 8.94301L2.85175 7.59926C2.87278 7.49351 2.80407 7.39068 2.69829 7.36963Z" fill="#FFF5F5"/>
<path d="M4.77732 7.36328C4.7767 7.36328 4.77603 7.36328 4.77539 7.36328C4.66754 7.36434 4.58094 7.45262 4.58197 7.56049L4.58928 8.314L3.99273 7.45016C3.94416 7.37982 3.85547 7.34932 3.77391 7.37469C3.69228 7.40014 3.63672 7.47568 3.63672 7.56115V8.92578C3.63672 9.03363 3.72418 9.12109 3.83203 9.12109C3.93988 9.12109 4.02734 9.03363 4.02734 8.92578V8.1877L4.59404 9.00832C4.65047 9.08982 4.74502 9.12436 4.8348 9.09635C4.92629 9.06777 4.98539 8.98275 4.98539 8.87783L4.97262 7.55672C4.97154 7.44947 4.88432 7.36328 4.77732 7.36328Z" fill="#FFF5F5"/>
<path d="M6.32127 7.36328C6.32064 7.36328 6.31998 7.36328 6.31934 7.36328C6.21148 7.36434 6.12488 7.45262 6.12592 7.56049L6.13322 8.31398L5.53668 7.45016C5.48813 7.37982 5.39949 7.34932 5.31783 7.37469C5.23623 7.40014 5.18066 7.47568 5.18066 7.56115V8.92578C5.18066 9.03363 5.26813 9.12109 5.37598 9.12109C5.48383 9.12109 5.57129 9.03363 5.57129 8.92578V8.18768L6.13801 9.00832C6.19445 9.08982 6.28898 9.12436 6.37877 9.09635C6.47023 9.06777 6.52934 8.98275 6.52934 8.87783L6.51656 7.55672C6.51551 7.44947 6.42828 7.36328 6.32127 7.36328Z" fill="#D8F1FB"/>
<path d="M7.496 7.75391C7.60385 7.75391 7.69131 7.66645 7.69131 7.55859C7.69131 7.45074 7.60385 7.36328 7.496 7.36328H6.91992C6.81207 7.36328 6.72461 7.45074 6.72461 7.55859V8.92578C6.72461 9.03363 6.81207 9.12109 6.91992 9.12109H7.496C7.60385 9.12109 7.69131 9.03363 7.69131 8.92578C7.69131 8.81793 7.60385 8.73047 7.496 8.73047H7.11523V8.4375H7.45352C7.56137 8.4375 7.64883 8.35004 7.64883 8.24219C7.64883 8.13434 7.56137 8.04688 7.45352 8.04688H7.11523V7.75391H7.496Z" fill="#D8F1FB"/>
<path d="M8.64494 8.42988C8.86172 8.35174 9.01652 8.14996 9.01652 7.91391C9.01652 7.61029 8.76051 7.36328 8.44578 7.36328H8.08246C8.08238 7.36328 8.0823 7.36328 8.08225 7.36328C8.08217 7.36328 8.08211 7.36328 8.08203 7.36328C7.97418 7.36328 7.88672 7.45074 7.88672 7.55859V8.92578C7.88672 9.03363 7.97418 9.12109 8.08203 9.12109C8.18988 9.12109 8.27734 9.03363 8.27734 8.92578V8.60348L8.67459 9.05482C8.7132 9.09869 8.76709 9.12111 8.82129 9.12111C8.86713 9.12111 8.91314 9.10508 8.95025 9.07242C9.03123 9.00115 9.0391 8.87773 8.96783 8.79678L8.64494 8.42988ZM8.44578 7.75391C8.54342 7.75391 8.6259 7.82719 8.6259 7.91391C8.6259 8.00062 8.54342 8.07391 8.44578 8.07391C8.40627 8.07391 8.3424 8.07416 8.27924 8.07443C8.27895 8.01322 8.27855 7.81816 8.27838 7.75389H8.44578V7.75391Z" fill="#D8F1FB"/>
</g>
<defs>
<clipPath id="clip0_147_7339">
<rect width="10" height="10" fill="white"/>
</clipPath>
</defs>
</svg>
