<svg width="24" height="24" viewBox="0 0 24 24" fill="none" xmlns="http://www.w3.org/2000/svg">
<path fill-rule="evenodd" clip-rule="evenodd" d="M1.64939 5.92537C2.00887 5.37525 2.59125 5.30161 3.19851 5.36475C4.61109 5.51292 6.02723 5.63095 7.43428 5.81916C8.61065 5.97642 9.55589 5.823 10.3116 4.72664C11.1729 3.47742 12.2227 2.35758 13.1899 1.18172C13.5753 0.712968 13.9964 0.377203 14.6781 0.514359C14.6952 0.517968 14.7109 0.522375 14.7277 0.526218C14.7443 0.530343 14.7603 0.53339 14.7771 0.538078C15.4481 0.721547 15.6735 1.21041 15.8076 1.8022C16.1439 3.2873 16.5792 4.75922 16.7881 6.26227C16.9713 7.58077 17.7468 8.14247 18.8686 8.53008C20.2102 8.99358 21.529 9.52383 22.8574 10.026C23.4288 10.2417 23.916 10.5689 23.9902 11.2219C24.0683 11.9081 23.6732 12.3299 23.0975 12.6643C21.5952 13.5366 20.1195 14.4542 18.622 15.3352C18.0514 15.6706 17.7648 16.103 17.7394 16.7943C17.6771 18.4762 17.5645 20.1566 17.4266 21.8343C17.3755 22.4554 17.3198 23.155 16.6039 23.429C15.9177 23.6913 15.3966 23.32 14.9019 22.8775C13.6648 21.7717 12.4101 20.6855 11.1682 19.585C10.8932 19.3408 10.6187 19.188 10.3188 19.1228C10.0216 19.0464 9.70767 19.0599 9.35236 19.1543C7.74834 19.5805 6.13987 19.9875 4.53778 20.4206C3.89718 20.5936 3.26484 20.6916 2.76961 20.1489C2.25286 19.5828 2.51714 18.9325 2.75029 18.3547C3.38015 16.7938 4.03401 15.2413 4.73367 13.7109C5.02115 13.0814 4.95909 12.5668 4.59984 12.0106C3.65714 10.5515 2.75053 9.06881 1.79981 7.61489C1.43531 7.05764 1.27143 6.50391 1.64939 5.92537Z" fill="#F9D555"/>
<path d="M8.51558 8.96066C8.84085 8.17494 9.4161 7.36077 10.3718 7.51888C11.2615 7.66593 11.437 8.75544 11.4585 9.48407C11.4728 9.97213 10.7172 10.0099 10.7028 9.52269C10.6904 9.11657 10.6912 8.39957 10.2076 8.25716C9.68174 8.10266 9.33383 8.95326 9.1843 9.31494C8.99816 9.7649 8.33019 9.4079 8.51558 8.96066Z" fill="#074785"/>
<path d="M13.8618 10.0387C14.2019 9.25929 14.7918 8.45534 15.7439 8.63079C16.6314 8.79411 16.7868 9.88695 16.795 10.6164C16.8006 11.1039 16.044 11.1279 16.0383 10.6401C16.0336 10.2342 16.0476 9.51748 15.5665 9.36603C15.0434 9.20187 14.6801 10.0467 14.5242 10.405C14.33 10.8517 13.6689 10.4826 13.8618 10.0387Z" fill="#074785"/>
<path d="M11.4268 11.4334C11.8277 11.6611 12.1445 11.9869 12.6151 12.0412C13.0058 12.0862 13.4475 11.9701 13.8329 11.9176C14.1891 11.8701 14.551 11.9143 14.7265 12.2652C14.9707 12.7549 14.8791 13.4869 14.6184 13.9523C14.3585 14.415 13.9116 14.7902 13.4229 14.9916C13.1685 15.0964 12.8579 15.1905 12.5818 15.2048C12.5226 15.2079 12.4711 15.2101 12.4132 15.2057L10.0303 13.486C9.99177 13.396 9.95713 13.3038 9.92661 13.2099C9.57093 12.1871 10.2265 10.7531 11.4268 11.4334Z" fill="#074785"/>
<path d="M10.0303 13.4816C10.4179 13.2498 10.9013 13.15 11.3557 13.2002C12.4659 13.3114 12.6954 14.3369 12.4132 15.2056C11.3303 15.1896 10.4485 14.4632 10.0303 13.4816Z" fill="#FD6085"/>
<path fill-rule="evenodd" clip-rule="evenodd" d="M8.89241 11.2367C8.83227 11.7573 8.24544 12.1171 7.58193 12.0407C6.91841 11.964 6.42899 11.4798 6.48913 10.9595C6.54927 10.4389 7.13582 10.0791 7.79933 10.1558C8.46308 10.2323 8.95251 10.7164 8.89241 11.2367Z" fill="#FD6085"/>
<path fill-rule="evenodd" clip-rule="evenodd" d="M18.2724 13.1982C18.1731 13.7124 17.5606 14.0267 16.9045 13.8998C16.2488 13.7729 15.798 13.2528 15.8972 12.7385C15.9969 12.2243 16.6093 11.91 17.2651 12.0369C17.9209 12.1636 18.372 12.6837 18.2724 13.1982Z" fill="#FD6085"/>
<path d="M6.10716 16.546C6.01889 16.4607 5.84255 15.2655 5.682 15.2755C5.52145 15.2851 5.3813 16.4701 5.30653 16.5482C5.15559 16.7049 4.05398 16.8155 4.0628 16.9675C4.07217 17.119 5.15395 17.1904 5.30677 17.3386C5.39203 17.4211 5.57137 18.6192 5.73192 18.6099C5.89247 18.6005 6.02991 17.4189 6.10795 17.338C6.25336 17.1868 7.36355 17.0701 7.35441 16.9175C7.34559 16.7653 6.2542 16.6889 6.10716 16.546Z" fill="white"/>
<path d="M12.8569 6.46053C12.8161 6.42083 12.7338 5.86574 12.6596 5.87014C12.5849 5.87483 12.5198 6.42524 12.485 6.46138C12.4149 6.53422 11.9028 6.58583 11.9073 6.65642C11.9114 6.72678 12.4141 6.75988 12.485 6.82888C12.5247 6.86722 12.608 7.42367 12.6828 7.41955C12.7573 7.41514 12.821 6.8661 12.8575 6.82832C12.9248 6.75824 13.4407 6.70414 13.4366 6.63327C13.4324 6.56263 12.9253 6.52705 12.8569 6.46053Z" fill="white"/>
<path d="M12.9963 17.5162C12.9555 17.4765 12.8736 16.9214 12.7991 16.9258C12.7243 16.9305 12.6592 17.4809 12.6244 17.5173C12.5543 17.5902 12.0426 17.6418 12.0464 17.7121C12.0508 17.7824 12.5535 17.8155 12.6247 17.8845C12.6644 17.9229 12.7475 18.4796 12.8222 18.4752C12.8967 18.4708 12.9605 17.9218 12.9969 17.8843C13.0645 17.8139 13.5804 17.7596 13.576 17.6887C13.5718 17.618 13.0647 17.5827 12.9963 17.5162Z" fill="white"/>
<path d="M3.58744 8.30112C3.32283 7.84146 3.01416 7.39784 2.81245 6.90513C2.73989 6.72748 2.58127 6.60359 2.37905 6.65876C2.21048 6.7054 2.05983 6.91423 2.13295 7.09244C2.35945 7.6459 2.68172 8.14029 2.97886 8.65676C3.20531 9.05074 3.8145 8.69538 3.58744 8.30112Z" fill="white"/>
<path d="M3.91161 9.10059C3.4572 9.10059 3.4572 9.80577 3.91161 9.80577C4.36629 9.80573 4.36629 9.10059 3.91161 9.10059Z" fill="white"/>
<path d="M8.29784 15.3945C7.84343 15.3945 7.84343 16.0992 8.29784 16.0992C8.75248 16.0992 8.75248 15.3945 8.29784 15.3945Z" fill="white"/>
<path d="M14.748 4.41504C14.2936 4.41504 14.2936 5.11995 14.748 5.11995C15.2027 5.11995 15.2027 4.41504 14.748 4.41504Z" fill="white"/>
<path d="M21.8561 12.1467C21.7524 11.9695 21.548 11.9392 21.3741 12.0201C20.9308 12.227 20.5068 12.47 20.07 12.6899C19.6641 12.8941 20.0209 13.5021 20.4259 13.2985C20.8623 13.0786 21.2866 12.8356 21.7297 12.629C21.9039 12.5475 21.9463 12.3007 21.8561 12.1467Z" fill="white"/>
<path d="M22.4389 11.4316C21.9842 11.4316 21.9842 12.1368 22.4389 12.1368C22.8936 12.1368 22.8936 11.4316 22.4389 11.4316Z" fill="white"/>
<path d="M12.9563 2.6839C12.7935 2.55917 12.5927 2.60801 12.4622 2.74873C12.1297 3.10737 11.8285 3.49254 11.5071 3.86084C11.2083 4.2035 11.7683 4.63165 12.0663 4.29012C12.3874 3.92178 12.6887 3.53665 13.0211 3.17829C13.1519 3.03758 13.0981 2.79261 12.9563 2.6839Z" fill="white"/>
<path d="M13.2263 1.80183C12.8055 1.97344 13.0712 2.62622 13.4922 2.45461C13.9132 2.28356 13.6472 1.6305 13.2263 1.80183Z" fill="white"/>
<path d="M16.7932 18.3048C16.8291 17.8518 16.1264 17.7936 16.0911 18.2466C16.0412 18.8798 16.0544 19.516 16.0045 20.1492C15.9689 20.6019 16.6713 20.6601 16.7069 20.2071C16.7568 19.574 16.7436 18.9377 16.7932 18.3048Z" fill="white"/>
<path d="M16.3168 20.8955C15.8622 20.8955 15.8622 21.6004 16.3168 21.6004C16.7712 21.6004 16.7712 20.8955 16.3168 20.8955Z" fill="white"/>
<path d="M9.4114 23.2678C9.68014 22.418 9.94859 21.568 10.2173 20.7183C10.3547 20.2837 9.67324 20.1022 9.53693 20.5337C9.2682 21.3837 8.99951 22.2335 8.73078 23.0832C8.59367 23.518 9.27485 23.6993 9.4114 23.2678Z" fill="#FFA4AC"/>
<path d="M19.071 7.15512C19.7365 6.56225 20.4017 5.96904 21.0671 5.37645C21.4076 5.07326 20.9145 4.56865 20.5766 4.86992C19.9111 5.46279 19.2459 6.05572 18.5805 6.64859C18.2403 6.95178 18.7331 7.45611 19.071 7.15512Z" fill="#FFA4AC"/>
<path d="M0.377485 13.1604C1.26722 13.108 2.15695 13.0552 3.04645 13.0031C3.50166 12.9758 3.42774 12.2748 2.97581 12.3015C2.08636 12.3539 1.19658 12.4064 0.307126 12.4588C-0.148077 12.4858 -0.0744366 13.1869 0.377485 13.1604Z" fill="#FFA4AC"/>
<path d="M7.05352 2.1879C7.39341 3.01172 7.73358 3.83551 8.07376 4.65933C8.24757 5.0806 8.88624 4.78182 8.71355 4.36355C8.37366 3.53972 8.03349 2.71594 7.69332 1.89212C7.51946 1.47085 6.88079 1.7694 7.05352 2.1879Z" fill="#FFA4AC"/>
<path d="M19.2014 17.0789C19.8406 17.7 20.4799 18.3207 21.1191 18.9417C21.4463 19.259 21.9137 18.7315 21.5889 18.4162C20.9497 17.7948 20.3104 17.1741 19.6712 16.5531C19.344 16.2358 18.8766 16.7633 19.2014 17.0789Z" fill="#FFA4AC"/>
</svg>
