<svg width="142" height="142" viewBox="0 0 142 142" fill="none" xmlns="http://www.w3.org/2000/svg">
<path d="M133.644 80.6252C138.511 71.581 135.789 64.133 132.634 59.4592C130.933 56.9309 129.107 55.2164 128.277 54.4942C128.046 54.2931 127.894 54.17 127.825 54.1178C127.818 54.1117 127.81 54.1059 127.803 54.1001C127.795 54.0945 127.795 54.0945 127.795 54.0945C139.62 46.0158 119.097 33.7203 119.097 33.7203C122.388 29.4345 119.92 25.063 114.459 21.3771C115.929 17.4155 116.211 12.4383 111.631 8.18303C103.921 1.02062 90.5176 2.94262 83.934 12.1718C80.2761 11.923 76.7255 11.9807 73.4956 12.405C68.1869 13.1025 62.2978 14.9818 56.6716 17.54C47.9469 9.88065 34.1302 11.3886 28.4283 20.4616C25.1995 25.5924 26.5679 30.2008 28.8904 33.6215C30.0416 35.325 31.4281 36.7267 32.6032 37.7565C31.8483 40.4334 32.4681 42.8679 34.9534 44.7747C34.9534 44.7747 18.2956 61.9547 31.8064 66.7051C31.8064 66.7051 29.8686 69.2208 28.5809 73.1563C27.9094 75.1995 27.411 77.6285 27.4662 80.2777C27.4615 80.4485 27.4632 80.6186 27.4726 80.7944C27.6343 84.8259 29.0743 89.3571 33.0084 93.8462C34.6663 95.7332 36.4022 97.2828 38.1953 98.5388C42.4769 101.549 47.1149 103.4 51.629 104.494C47.8812 106.753 45.1976 112.81 45.1976 119.93C45.1976 128.978 49.53 136.313 54.8744 136.313C59.5663 136.313 63.4774 130.659 64.3626 123.156C69.5601 129.597 80.6142 132.155 92.3025 132.155C107.795 132.155 118.759 127.662 119.593 115.587C120.811 116.046 122.05 116.173 123.256 115.9C128.469 114.723 131.079 106.613 129.085 97.7878C128.446 94.957 127.409 92.3987 126.126 90.2649C129.047 87.5735 131.617 84.3918 133.644 80.6252Z" fill="#FFD5AE"/>
<path d="M133.644 80.6267C119.005 107.833 76.0782 104.652 76.0782 104.652C76.0782 104.652 49.7904 112.976 33.0081 93.8474C29.0739 89.3583 27.6343 84.8271 27.4723 80.7956C33.5356 83.3979 42.0109 83.2584 49.7985 79.6471C57.206 76.2017 58.7006 61.2931 68.1816 60.0475C77.6626 58.802 83.0362 72.434 91.0034 74.2342C119.537 80.6686 130.716 68.6083 132.634 59.4609C135.789 64.1345 138.511 71.5822 133.644 80.6267Z" fill="#FFF1E6"/>
<path d="M49.0338 84.3522C49.9505 91.3291 45.6719 97.6464 39.4716 98.461C39.0431 98.5173 38.6176 98.5459 38.1947 98.5403C36.4019 97.2842 34.6658 95.7347 33.0078 93.8477C29.0737 89.3586 27.634 84.8273 27.472 80.7959C27.4626 80.6203 27.4606 80.4503 27.4654 80.2792C28.993 76.5092 32.1821 73.72 36.1526 73.1983C42.3532 72.3837 48.1183 77.382 49.0338 84.3522Z" fill="#FF9EB6"/>
<path d="M114.597 85.9313C119.571 80.9566 119.571 72.891 114.597 67.9163C109.622 62.9416 101.556 62.9416 96.5817 67.9163C91.607 72.891 91.607 80.9566 96.5817 85.9313C101.556 90.9061 109.622 90.9061 114.597 85.9313Z" fill="#FF9EB6"/>
<path d="M76.9676 73.5863C75.5449 71.7283 73.3838 70.604 71.0929 70.4609L70.536 66.2203C70.4259 65.3835 69.6588 64.7931 68.8218 64.904C67.9847 65.0138 67.3957 65.7818 67.5055 66.6186L68.0627 70.8591C65.8853 71.5899 64.0878 73.2346 63.1939 75.3954C62.8714 76.1753 63.2422 77.0691 64.0221 77.3917C64.2131 77.471 64.4112 77.5082 64.6059 77.5082C65.2058 77.5082 65.7752 77.1526 66.0187 76.5638C66.6943 74.9303 68.2044 73.7724 69.9594 73.5416C71.71 73.3128 73.4662 74.0408 74.5412 75.4442C75.0542 76.1145 76.0138 76.2421 76.6839 75.7285C77.3537 75.2157 77.4807 74.2563 76.9676 73.5863Z" fill="#FF9356"/>
<path d="M71.9491 63.6467C71.0078 62.9142 69.6508 63.0837 68.9186 64.025L68.7416 64.2524L68.5142 64.0754C67.5729 63.343 66.2159 63.5124 65.4837 64.4537C64.7512 65.395 64.9207 66.7518 65.862 67.4843L66.6704 68.1133C68.2324 69.3286 70.4836 69.0474 71.699 67.4854L72.328 66.6769C73.0599 65.7359 72.8904 64.3791 71.9491 63.6467Z" fill="#FD80A6"/>
<path d="M103.969 25.7188L95.5317 22.9592C92.9901 22.128 92.071 18.9943 93.7772 16.9356C96.6588 13.4588 100.853 10.2175 105.414 12.6792C109.663 14.9695 109.647 19.4325 108.594 23.2834C108.052 25.2648 105.922 26.3575 103.969 25.7188Z" fill="#FFF1E6"/>
<path d="M136.058 62.4925C134.357 58.6039 131.787 55.7195 130.174 54.1608C132.115 52.3828 133.062 50.3149 132.993 47.9941C132.804 41.6318 124.52 35.4687 121.212 33.2563C122.006 31.7548 122.277 30.1917 122.019 28.5911C121.582 25.8815 119.647 23.257 116.27 20.7789C116.439 20.2159 116.586 19.6388 116.697 19.048C117.559 14.456 116.168 10.3128 112.672 7.06648C108.16 2.87721 101.587 1.32353 95.0893 2.91077C90.2929 4.08254 86.1386 6.8202 83.2023 10.599C79.6415 10.3963 76.3098 10.4917 73.2984 10.8872C65.355 11.9305 55.5575 15.6786 47.0905 20.9129C38.2851 26.3563 32.454 32.3916 31.0922 37.4717C30.3287 40.3203 30.9175 42.8491 32.7945 44.8715C30.1681 47.8643 23.7545 55.9589 25.2139 62.1539C25.7464 64.4145 27.1958 66.1679 29.5316 67.384C28.5939 68.9594 27.2654 71.5966 26.5088 74.902C25.3623 79.9105 25.3598 87.4374 31.861 94.8513C38.6054 102.538 47.5498 106.897 58.4455 107.807C58.4888 107.811 58.5318 107.813 58.5745 107.813C59.361 107.813 60.0294 107.209 60.096 106.412C60.1661 105.57 59.5413 104.831 58.7001 104.761C48.62 103.919 40.363 99.907 34.1591 92.8359C29.6508 87.6945 28.0711 81.9266 29.4636 75.693C30.5253 70.9415 32.9962 67.6641 33.0192 67.6339C33.3179 67.2454 33.4122 66.737 33.2727 66.2669C33.1332 65.7971 32.7768 65.4227 32.3145 65.2601C29.9462 64.4276 28.5969 63.1828 28.1892 61.455C27.0222 56.5102 33.4696 48.5033 36.0519 45.8361C36.3554 45.523 36.5109 45.0953 36.479 44.6602C36.4471 44.2253 36.2311 43.8248 35.8853 43.5594C34.0404 42.1435 33.4554 40.4609 34.0445 38.2632C35.1897 33.991 40.6675 28.4769 48.6977 23.5127C56.8153 18.4947 66.1604 14.9078 73.6964 13.9177C76.0186 13.6124 78.5574 13.5003 81.2609 13.576C80.7459 14.5306 80.2982 15.5302 79.9263 16.5705C79.6423 17.3654 80.0564 18.2401 80.8513 18.5241C81.6459 18.8081 82.5206 18.3943 82.8049 17.5994C84.8991 11.7397 89.7626 7.35853 95.8148 5.88029C101.311 4.53794 106.836 5.81844 110.592 9.30631C113.225 11.7514 116.673 17.1729 110.179 26.0104C109.679 26.6905 109.825 27.6473 110.505 28.1468C110.778 28.3473 111.095 28.4439 111.409 28.4439C111.879 28.4439 112.343 28.2281 112.642 27.8204C113.428 26.751 114.333 25.3545 115.112 23.7384C117.388 25.5415 118.726 27.3678 119.002 29.0776C119.204 30.3329 118.84 31.5462 117.887 32.7868C117.622 33.1326 117.516 33.575 117.598 34.0032C117.68 34.4314 117.94 34.8047 118.314 35.0286C121.496 36.935 129.787 42.9964 129.938 48.0845C129.991 49.8606 129.009 51.4126 126.935 52.8296C126.531 53.1053 126.285 53.5584 126.27 54.0471C126.256 54.5358 126.477 55.0029 126.864 55.3018C126.882 55.3157 127.029 55.4314 127.274 55.643C130.16 58.1601 139.05 67.3483 132.3 79.8981C129.097 85.851 124.188 90.7744 117.709 94.5318C112.469 97.5704 106.196 99.8613 99.063 101.341C98.2366 101.512 97.7055 102.321 97.8771 103.148C98.0269 103.87 98.6628 104.366 99.372 104.366C99.4749 104.366 99.5795 104.356 99.684 104.334C107.138 102.788 113.718 100.379 119.242 97.176C126.218 93.1307 131.517 87.8049 134.992 81.3464C138.352 75.0992 138.721 68.5794 136.058 62.4925Z" fill="#FF9356"/>
<path d="M84.1217 69.6902C83.366 69.6902 82.7095 69.13 82.6083 68.3609C82.4984 67.5239 83.0875 66.7562 83.9245 66.6463L94.4536 65.2632C95.2904 65.1531 96.058 65.7425 96.1682 66.5795C96.278 67.4165 95.6889 68.1842 94.8519 68.294L84.3228 69.6772C84.2551 69.6858 84.188 69.6902 84.1217 69.6902Z" fill="#605C5D"/>
<path d="M44.3432 74.915C43.5874 74.915 42.9309 74.3548 42.8297 73.5857C42.7199 72.7487 43.3092 71.981 44.146 71.8712L54.6748 70.4881C55.5115 70.3769 56.2792 70.9673 56.389 71.8043C56.4989 72.6414 55.9098 73.4091 55.0728 73.5189L44.544 74.902C44.4766 74.9109 44.4097 74.915 44.3432 74.915Z" fill="#605C5D"/>
<path d="M22.0894 1.5293H48.4115C57.4562 1.5293 64.7881 8.86143 64.7881 17.9059V26.3549C64.7881 33.9677 59.5932 40.3663 52.555 42.2015C54.9685 45.7701 57.4335 50.6627 53.9373 51.9909C49.4984 53.6771 39.8718 48.2318 35.0568 42.7315H22.0894C13.0449 42.7315 5.71277 35.3993 5.71277 26.3549V17.9059C5.71277 8.86116 13.0446 1.5293 22.0894 1.5293Z" fill="white"/>
<path d="M52.0328 53.8283C46.4951 53.8291 38.5849 48.7764 34.3785 44.2591H22.0894C12.2165 44.2591 4.18433 36.2269 4.18433 26.354V17.905C4.18433 8.03215 12.2165 0 22.0894 0H48.4118C58.2847 0 66.3168 8.03215 66.3168 17.905V26.3543C66.3168 33.8049 61.7173 40.4001 54.9077 43.044C56.9132 46.391 57.596 48.9589 56.9939 50.8604C56.6164 52.0527 55.7472 52.9374 54.4803 53.4189C53.7418 53.6993 52.9169 53.8283 52.0328 53.8283ZM22.0894 3.05661C13.9019 3.05661 7.24121 9.71757 7.24121 17.9048V26.354C7.24121 34.5415 13.9022 41.2022 22.0894 41.2022H35.0568C35.4975 41.2022 35.9166 41.3924 36.2067 41.7239C41.0181 47.2203 50.0132 51.8458 53.3945 50.5611C53.8829 50.3756 54.0147 50.1418 54.0793 49.9377C54.2188 49.4975 54.4293 47.7004 51.2889 43.0568C51.011 42.6458 50.9498 42.1257 51.1248 41.6615C51.2998 41.1975 51.6891 40.8472 52.1692 40.7218C58.699 39.0189 63.2597 33.111 63.2597 26.3543V17.905C63.2597 9.71757 56.5987 3.05688 48.4112 3.05688H22.0894V3.05661Z" fill="#E3E3E3"/>
<path d="M121.946 117.575C116.332 117.575 110.732 111.312 108.716 102.389C107.693 97.8578 107.781 93.3371 108.964 89.6598C110.238 85.7032 112.629 83.1425 115.699 82.4489C118.77 81.7566 122.03 83.0396 124.88 86.0646C127.529 88.8763 129.552 92.9202 130.575 97.4515C131.599 101.983 131.511 106.503 130.328 110.181C129.054 114.137 126.662 116.698 123.593 117.392C123.046 117.515 122.496 117.575 121.946 117.575ZM111.698 101.715C113.472 109.569 118.611 115.383 122.919 114.41C124.891 113.964 126.489 112.13 127.418 109.244C128.436 106.08 128.499 102.131 127.594 98.1249C126.689 94.1189 124.935 90.5803 122.655 88.1607C120.576 85.9545 118.345 84.9832 116.373 85.4306C114.4 85.876 112.802 87.7106 111.874 90.5961C110.855 93.7606 110.793 97.7094 111.698 101.715Z" fill="#FF9356"/>
<path d="M54.8742 137.842C48.591 137.842 43.6689 129.975 43.6689 119.931C43.6689 109.887 48.5907 102.02 54.8739 102.02C61.1571 102.02 66.0792 109.887 66.0792 119.931C66.0792 129.975 61.1574 137.842 54.8742 137.842ZM54.8742 105.076C50.4572 105.076 46.7258 111.879 46.7258 119.931C46.7258 127.983 50.4572 134.786 54.8742 134.786C59.2912 134.786 63.0225 127.983 63.0225 119.931C63.0225 111.879 59.2909 105.076 54.8742 105.076Z" fill="#FF9356"/>
<path d="M32.4479 23.8438C32.122 23.4622 31.9592 22.9228 31.9592 22.2264C31.947 20.06 32.8301 18.9348 34.2506 17.4075C35.3242 16.266 36.5603 14.7128 35.2615 13.4312C33.836 12.4406 31.9897 13.2779 30.5439 14.1052L29.7352 14.5095C28.3959 15.2326 27.4127 15.5282 26.4498 14.4252C25.5442 13.3039 25.6396 11.4055 26.9384 10.5668C29.9909 8.32145 34.7079 7.44393 38.1933 8.96599C41.1545 10.1403 42.7931 13.4773 41.344 16.3628C40.5236 17.9805 39.58 18.6167 38.1595 19.9347C36.9908 20.9611 36.0694 21.5699 35.6997 22.8665C35.5333 24.3938 33.3761 24.9399 32.4479 23.8438ZM31.5717 31.5268C29.5807 29.5582 30.981 25.8404 33.8801 25.9331C35.718 25.8915 37.1816 27.3836 37.1486 29.2015C37.2553 32.1039 33.5453 33.5714 31.5717 31.5268Z" fill="#FD80A6"/>
<path d="M124.614 104.736C126.894 102.694 126.923 99.1338 124.677 97.0554L106.015 79.7871L101.856 83.5121L116.974 103.955C118.793 106.415 122.335 106.777 124.614 104.736Z" fill="#777677"/>
<path d="M121.146 107.588C120.92 107.588 120.693 107.577 120.466 107.554C118.589 107.362 116.867 106.381 115.745 104.863L100.627 84.4206C100.158 83.7863 100.248 82.8997 100.836 82.3733L104.994 78.648C105.582 78.1216 106.473 78.1285 107.052 78.6646L125.714 95.9329C127.1 97.2148 127.886 99.0327 127.87 100.921C127.855 102.808 127.04 104.613 125.634 105.873C124.398 106.981 122.792 107.588 121.146 107.588ZM103.912 83.7217L118.203 103.046C118.823 103.885 119.738 104.406 120.777 104.513C121.817 104.621 122.817 104.293 123.595 103.597C124.373 102.9 124.806 101.941 124.814 100.896C124.822 99.8517 124.405 98.8863 123.638 98.1769L105.998 81.8535L103.912 83.7217Z" fill="#605C5D"/>
<path d="M77.9932 55.8145C78.585 55.3355 80.8934 53.4673 81.4852 52.9881C89.0792 46.8419 101.136 49.1505 108.415 58.1442C115.694 67.1379 115.439 79.4112 107.845 85.5574C107.253 86.0364 104.945 87.9046 104.353 88.3838C96.7591 94.53 84.7021 92.2214 77.4232 83.2277C70.1444 74.234 70.3995 61.9607 77.9932 55.8145Z" fill="#FFFF9D"/>
<path d="M94.3451 93.3591C93.0813 93.3591 91.7897 93.2355 90.4828 92.9853C85.0425 91.9439 79.9826 88.8201 76.2354 84.1902C72.4882 79.5602 70.4877 73.9603 70.6031 68.4226C70.7202 62.7873 73.0035 57.8883 77.0319 54.6275L80.524 51.8011C88.7611 45.1349 101.806 47.5495 109.603 57.1838C113.351 61.8138 115.351 67.4136 115.236 72.9516C115.119 78.587 112.835 83.486 108.807 86.7467L105.315 89.5729C102.237 92.064 98.4362 93.3591 94.3451 93.3591ZM91.5229 51.0784C88.21 51.0784 85.0364 52.0812 82.4468 54.1771L78.955 57.0033L78.9548 57.0035C75.638 59.688 73.7571 63.766 73.6589 68.4859C73.5588 73.303 75.3177 78.1973 78.6114 82.2671C81.9052 86.3365 86.3252 89.077 91.0578 89.983C95.695 90.8717 100.075 89.8815 103.392 87.1968L106.884 84.3704C110.201 81.686 112.082 77.608 112.179 72.8881C112.28 68.0707 110.521 63.1764 107.227 59.1066C103.009 53.8945 97.0717 51.0784 91.5229 51.0784Z" fill="#FFCC6B"/>
<path d="M99.1077 82.9577C103.568 79.348 103.4 71.7472 98.7329 65.9807C94.0658 60.2142 86.6669 58.4657 82.2068 62.0754C77.7468 65.6851 77.9146 73.286 82.5817 79.0525C87.2487 84.819 94.6477 86.5674 99.1077 82.9577Z" fill="#DDFCFC"/>
<path d="M93.5692 86.3696C92.5976 86.3696 91.5945 86.2503 90.5733 86.0093C87.1243 85.1942 83.8652 83.0653 81.396 80.0145C76.2063 73.6023 76.1395 65.0219 81.2476 60.8875C83.7806 58.8377 87.1536 58.1756 90.7461 59.0246C94.1951 59.8397 97.4542 61.9686 99.9234 65.0194C102.392 68.0699 103.795 71.7014 103.874 75.2445C103.955 78.9345 102.605 82.096 100.072 84.1461C98.2588 85.6135 96.0151 86.3696 93.5692 86.3696ZM83.772 78.0917C85.8174 80.6186 88.4824 82.3742 91.2761 83.0345C93.9264 83.6602 96.3676 83.212 98.1487 81.7701C99.9298 80.3285 100.877 78.0351 100.817 75.3122C100.754 72.4422 99.5925 69.4696 97.5468 66.9425C95.5014 64.415 92.8364 62.6597 90.0427 61.9997C87.3922 61.3731 84.9513 61.8219 83.1702 63.2638C79.3728 66.3373 79.6432 72.9894 83.772 78.0917Z" fill="#FFCC6B"/>
<path d="M119.241 83.7498C123.606 87.3495 125.882 91.7989 122.282 96.1643C118.682 100.529 112.226 101.15 107.86 97.5507C103.495 93.9511 102.875 87.4945 106.474 83.1292C110.074 78.764 114.876 80.1505 119.241 83.7498Z" fill="#FFD5AE"/>
<path d="M114.357 101.421C111.633 101.421 109.017 100.485 106.888 98.7298C104.462 96.7293 102.96 93.9037 102.659 90.7733C102.358 87.6429 103.294 84.5827 105.295 82.1568C107.303 79.7215 109.879 78.6088 112.744 78.9344C115.1 79.2037 117.613 80.4273 120.213 82.5709C122.813 84.7145 124.493 86.9485 125.206 89.2105C126.073 91.9604 125.469 94.7011 123.461 97.1364C121.46 99.5629 118.635 101.064 115.505 101.366C115.121 101.403 114.738 101.421 114.357 101.421ZM111.772 81.9349C110.204 81.9349 108.852 82.648 107.653 84.1015C106.172 85.8979 105.479 88.1635 105.702 90.481C105.925 92.7985 107.037 94.8905 108.833 96.3718C110.629 97.8528 112.895 98.5445 115.212 98.3232C117.53 98.1005 119.622 96.9883 121.103 95.192C122.458 93.5487 122.846 91.893 122.291 90.1296C121.766 88.4642 120.375 86.6659 118.268 84.9291C116.162 83.1924 114.132 82.1696 112.397 81.9713C112.185 81.9471 111.976 81.9349 111.772 81.9349Z" fill="#FF9356"/>
<path d="M66.6876 140.472C80.9708 137.552 95.254 134.632 109.538 131.712C105.446 111.699 98.1645 92.4729 87.9704 74.7715C75.3366 82.0465 62.703 89.3218 50.0695 96.5968C57.9238 110.237 63.5348 125.051 66.6876 140.472Z" fill="white"/>
<path d="M89.4021 106.115C86.2493 103.892 82.1255 103.142 78.1819 104.445C77.2007 104.769 76.2791 105.209 75.4429 105.734L77.0273 113.287L82.1335 116.404L87.813 114.138L89.4021 106.115Z" fill="#89D770"/>
<path d="M94.0928 112.451C93.2136 109.79 91.5279 107.616 89.4027 106.113L82.134 116.402L86.718 122.825L92.3053 123.831C94.6159 120.664 95.4171 116.459 94.0928 112.451Z" fill="#FD80A6"/>
<path d="M92.3048 123.833L82.1337 116.404L75.4431 105.734C70.6387 108.737 68.3165 114.732 70.1747 120.355C72.3571 126.96 79.4804 130.545 86.085 128.363C88.6818 127.505 90.8071 125.885 92.3048 123.833Z" fill="#65E1E9"/>
<path d="M66.6876 142C66.3903 142 66.0971 141.913 65.8453 141.747C65.5069 141.523 65.2715 141.174 65.1902 140.778C62.0648 125.49 56.5318 110.881 48.7448 97.3592C48.3236 96.6275 48.5751 95.6932 49.3067 95.2719L87.2077 73.4463C87.9393 73.025 88.8734 73.2769 89.295 74.0082C99.5886 91.883 106.903 111.194 111.035 131.406C111.116 131.802 111.036 132.216 110.813 132.554C110.589 132.892 110.241 133.128 109.844 133.209L66.9938 141.969C66.892 141.99 66.7894 142 66.6876 142ZM52.1495 97.162C59.4539 110.152 64.737 124.101 67.871 138.67L107.728 130.521C103.716 111.672 96.8848 93.6358 87.403 76.861L52.1495 97.162Z" fill="#E3E3E3"/>
<path d="M62.7784 105.125C62.206 105.125 61.6574 104.802 61.3961 104.25C61.0348 103.487 61.3604 102.576 62.1233 102.215L87.1592 90.3584C87.9221 89.997 88.8335 90.3229 89.1946 91.0853C89.556 91.8483 89.2304 92.7596 88.4674 93.121L63.4316 104.977C63.2202 105.078 62.9975 105.125 62.7784 105.125Z" fill="#678490"/>
<path d="M48.5432 115.213C46.4756 109.789 46.703 104.666 52.1273 102.598C57.5519 100.531 63.6254 103.252 65.6927 108.677C67.7603 114.101 65.0388 120.174 59.6145 122.242C54.1902 124.31 50.6108 120.638 48.5432 115.213Z" fill="#FFD5AE"/>
<path d="M56.6813 124.351C54.9665 124.351 53.3565 123.822 51.9187 122.772C49.9599 121.342 48.3438 118.982 47.1154 115.758C45.8868 112.535 45.5224 109.698 46.0318 107.327C46.6503 104.448 48.5701 102.319 51.5834 101.171C54.5882 100.026 57.8594 100.119 60.7943 101.434C63.7289 102.749 65.9762 105.128 67.1213 108.133C68.2668 111.138 68.1733 114.409 66.8584 117.344C65.5433 120.279 63.1642 122.526 60.1592 123.671C58.968 124.125 57.802 124.351 56.6813 124.351ZM49.9712 114.67C50.9716 117.295 52.2685 119.243 53.7215 120.304C55.2649 121.431 57.0147 121.598 59.0701 120.815C61.3121 119.96 63.0871 118.284 64.0683 116.094C65.0496 113.904 65.1192 111.464 64.2647 109.222C63.4102 106.98 61.7337 105.205 59.544 104.223C57.3544 103.242 54.9138 103.172 52.6717 104.027C50.6161 104.811 49.4215 106.1 49.0202 107.969C48.6422 109.728 48.9711 112.045 49.9712 114.67Z" fill="#FF9356"/>
</svg>
