<svg width="22" height="23" viewBox="0 0 22 23" fill="none" xmlns="http://www.w3.org/2000/svg">
<g clip-path="url(#clip0_339_28766)">
<path d="M10.9385 21.0654C10.7594 21.0654 10.6119 20.9229 10.6067 20.7428C10.6015 20.5595 10.7458 20.4068 10.9291 20.4016C11.1128 20.3932 11.267 20.5353 11.2751 20.7186C11.2833 20.9017 11.1409 21.0568 10.9577 21.0649L10.9481 21.0652C10.9449 21.0654 10.9417 21.0654 10.9385 21.0654ZM9.60347 21.0154C9.59038 21.0154 9.57746 21.0147 9.5642 21.0132L9.56336 21.013C9.38091 20.9947 9.24881 20.8323 9.26711 20.6496C9.28541 20.4672 9.44922 20.3344 9.63151 20.3526L9.64174 20.3536C9.82386 20.375 9.95411 20.54 9.93262 20.7222C9.91282 20.8912 9.76947 21.0154 9.60347 21.0154ZM12.2706 20.913C12.1151 20.913 11.9763 20.8034 11.9453 20.6451C11.9097 20.4652 12.0268 20.2906 12.2068 20.2552L12.213 20.254C12.3931 20.2196 12.567 20.3378 12.6014 20.5179C12.6358 20.6978 12.5178 20.8719 12.3377 20.9063L12.3352 20.9068C12.3134 20.911 12.2919 20.913 12.2706 20.913ZM8.28621 20.7624C8.25735 20.7624 8.22797 20.7586 8.1986 20.7507L8.19675 20.7502C8.01967 20.703 7.91393 20.5212 7.96093 20.3442C8.00793 20.1669 8.18954 20.0613 8.36661 20.1082L8.3735 20.11C8.55041 20.1584 8.65464 20.3408 8.6063 20.5177C8.56602 20.6654 8.43224 20.7624 8.28621 20.7624ZM13.5643 20.5583C13.4285 20.5583 13.3013 20.4747 13.2521 20.3398C13.1895 20.1674 13.2785 19.9769 13.4507 19.9143L13.4562 19.9125C13.6286 19.8505 13.8188 19.94 13.8809 20.1125C13.943 20.2851 13.8532 20.4752 13.6806 20.5374L13.6778 20.5384C13.6402 20.552 13.6019 20.5583 13.5643 20.5583ZM7.02166 20.3096C6.97634 20.3096 6.93035 20.3002 6.88621 20.2802L6.88167 20.2782C6.71467 20.2025 6.64065 20.0058 6.71635 19.8388C6.79204 19.6718 6.98859 19.5977 7.15577 19.6734C7.32294 19.749 7.39898 19.9464 7.32362 20.1135C7.26806 20.2366 7.14788 20.3096 7.02166 20.3096ZM14.7872 20.0096C14.6684 20.0096 14.5538 19.9459 14.494 19.8339C14.4076 19.6721 14.4688 19.4709 14.6306 19.3846C14.7913 19.2963 14.9932 19.3549 15.0816 19.5155C15.1699 19.6761 15.1115 19.8781 14.9507 19.9663L14.9432 19.9705C14.8933 19.9971 14.84 20.0096 14.7872 20.0096ZM17.8026 17.0418L17.8048 17.0433L17.7697 17.0183L17.8026 17.0418ZM2.47688 15.5946C2.34579 15.5946 2.22158 15.5164 2.16905 15.3875L2.16821 15.3851C2.09822 15.2156 2.17895 15.0214 2.34831 14.9516C2.51783 14.8816 2.71203 14.9623 2.78186 15.1317L2.78421 15.1376C2.85336 15.3074 2.77145 15.5011 2.60159 15.5701C2.5608 15.5867 2.51834 15.5946 2.47688 15.5946ZM18.9567 14.9575C18.922 14.9575 18.8866 14.9519 18.8517 14.9403C18.6789 14.8828 18.5849 14.6968 18.6405 14.5237C18.6947 14.3494 18.8797 14.2508 19.0544 14.3039C19.2298 14.3572 19.3288 14.542 19.2758 14.7173L19.2716 14.7304C19.2253 14.8695 19.0957 14.9575 18.9567 14.9575ZM2.07086 14.3165C1.92064 14.3165 1.78451 14.2139 1.74809 14.0615L1.74708 14.0571C1.70462 13.8787 1.81456 13.6996 1.99298 13.657C2.1714 13.6144 2.35049 13.7245 2.39296 13.9029L2.39396 13.9072C2.4366 14.0855 2.32649 14.2646 2.14824 14.3072C2.12222 14.3134 2.09637 14.3165 2.07086 14.3165ZM19.262 13.6516C19.2429 13.6516 19.2236 13.6499 19.204 13.6464C19.0247 13.6149 18.9045 13.4447 18.9341 13.2656C18.9619 13.0851 19.1303 12.9606 19.3109 12.9871C19.4922 13.014 19.6175 13.182 19.5908 13.3634L19.5887 13.3772C19.5603 13.5382 19.4201 13.6516 19.262 13.6516ZM1.86592 12.9905C1.69555 12.9905 1.5507 12.8606 1.5356 12.6878L1.53459 12.6741C1.52385 12.491 1.66349 12.334 1.84662 12.3231C2.02806 12.312 2.18466 12.4502 2.19725 12.6314C2.21185 12.8134 2.0769 12.9737 1.89479 12.9893C1.88505 12.9901 1.87548 12.9905 1.86592 12.9905ZM19.3638 12.3144C19.1803 12.3144 19.0317 12.1658 19.0317 11.9824V11.978C19.0317 11.9757 19.0317 11.9733 19.0317 11.9711C19.0317 11.9683 19.0317 11.9653 19.0317 11.9624V11.958C19.0317 11.7746 19.1803 11.6259 19.3638 11.6259C19.547 11.6259 19.6957 11.7746 19.6957 11.958V11.9624C19.6957 11.9648 19.6957 11.9671 19.6956 11.9693C19.6957 11.9721 19.6957 11.975 19.6957 11.978V11.9824C19.6957 12.1658 19.5472 12.3144 19.3638 12.3144ZM1.86508 11.65C1.85551 11.65 1.84578 11.6495 1.83604 11.6487C1.65359 11.6329 1.51848 11.4725 1.53392 11.2902C1.54667 11.1089 1.70176 10.9708 1.88455 10.9822C2.06767 10.9929 2.20732 11.15 2.19658 11.333L2.1954 11.3467C2.18046 11.5196 2.03544 11.65 1.86508 11.65ZM19.2595 10.9575C19.1014 10.9575 18.9614 10.8442 18.9331 10.6831L18.9307 10.6693C18.9042 10.4879 19.0296 10.3192 19.211 10.2925C19.3914 10.2658 19.5605 10.3909 19.5875 10.5718C19.6169 10.7507 19.4969 10.9206 19.3176 10.9523C19.2981 10.9558 19.2787 10.9575 19.2595 10.9575ZM2.06649 10.3244C2.04098 10.3244 2.01497 10.3214 1.98912 10.3152C1.81103 10.2727 1.70092 10.0939 1.74305 9.91586C1.78233 9.73878 1.95706 9.62565 2.13514 9.66291C2.31457 9.70051 2.42971 9.87641 2.39212 10.0558L2.3891 10.0694C2.35284 10.2218 2.21672 10.3244 2.06649 10.3244ZM18.9549 9.65368C18.8152 9.65368 18.6848 9.56439 18.6383 9.42491L18.6346 9.41332C18.5806 9.23809 18.6789 9.05229 18.8543 8.99841C19.0297 8.94436 19.2152 9.04272 19.2693 9.21812L19.2694 9.21862C19.3273 9.39268 19.2328 9.57882 19.0588 9.63673C19.0245 9.64831 18.9895 9.65368 18.9549 9.65368ZM2.46899 9.04423C2.42736 9.04423 2.38507 9.03634 2.34411 9.01972C2.17425 8.95074 2.09251 8.75704 2.1615 8.58718L2.16317 8.58316C2.23216 8.41329 2.42569 8.33139 2.59571 8.40037C2.76557 8.46936 2.84732 8.66305 2.77833 8.83291L2.77665 8.83711C2.72428 8.96601 2.60008 9.04423 2.46899 9.04423ZM18.4513 8.41011C18.3305 8.41011 18.2137 8.34381 18.1546 8.22933L18.1495 8.2196C18.0686 8.05494 18.1365 7.85604 18.3011 7.77514C18.4656 7.69424 18.6645 7.76205 18.7456 7.92654L18.7457 7.92721C18.83 8.09002 18.7654 8.28909 18.6024 8.37318C18.5541 8.39819 18.5024 8.41011 18.4513 8.41011ZM3.0635 7.84144C3.00459 7.84144 2.94483 7.82583 2.89096 7.79277C2.73469 7.6976 2.68518 7.494 2.77967 7.33773C2.87115 7.18147 3.07173 7.12709 3.22984 7.21672C3.38929 7.30719 3.44535 7.50978 3.35505 7.66923C3.35253 7.67359 3.34985 7.67796 3.34716 7.68232C3.28472 7.78488 3.17546 7.84144 3.0635 7.84144ZM17.762 7.25834C17.6557 7.25834 17.5512 7.20732 17.4871 7.11282C17.3805 6.9636 17.4159 6.75766 17.5653 6.65107C17.7143 6.54449 17.9228 6.58058 18.0294 6.72979L18.0364 6.73986C18.1393 6.8916 18.0999 7.09805 17.9481 7.20111C17.8911 7.23988 17.8263 7.25834 17.762 7.25834ZM3.83492 6.74389C3.76007 6.74389 3.68504 6.71872 3.62293 6.66736C3.48194 6.5502 3.46247 6.34089 3.57963 6.19973L3.58248 6.19638C3.69964 6.05522 3.90878 6.03592 4.04994 6.15291C4.1911 6.27006 4.21057 6.47937 4.09341 6.62053L4.09056 6.62388C4.02493 6.70311 3.93026 6.74389 3.83492 6.74389ZM16.9066 6.22542C16.8194 6.22542 16.7323 6.19134 16.6671 6.12336C16.5387 5.99244 16.5406 5.7818 16.6717 5.65339C16.8024 5.52516 17.0124 5.52701 17.1406 5.65793L17.1462 5.66347C17.2732 5.79573 17.2689 6.00604 17.1366 6.13293C17.0721 6.19487 16.9894 6.22542 16.9066 6.22542ZM4.76412 5.77643C4.67214 5.77643 4.58083 5.73866 4.51521 5.66447C4.39369 5.52717 4.40661 5.31737 4.54391 5.19584L4.54525 5.19467C4.68171 5.07265 4.89169 5.08372 5.01405 5.22018C5.13624 5.35647 5.1255 5.56578 4.98937 5.68831L4.984 5.69317C4.92072 5.74907 4.84217 5.77643 4.76412 5.77643ZM15.9041 5.33415C15.836 5.33415 15.7675 5.31334 15.7082 5.27003L15.697 5.26147C15.5523 5.14885 15.5261 4.94038 15.6387 4.79553C15.7512 4.65101 15.9592 4.62483 16.1038 4.73678C16.2489 4.84572 16.2797 5.0515 16.1723 5.19819C16.1072 5.28715 16.0063 5.33415 15.9041 5.33415ZM5.82894 4.96136C5.71934 4.96136 5.61208 4.90715 5.54881 4.80795C5.45028 4.65353 5.49543 4.44876 5.64935 4.3499C5.80074 4.24986 6.00501 4.28998 6.10706 4.44054C6.21012 4.59227 6.17051 4.79872 6.01878 4.90161L6.00719 4.90933C5.95197 4.94458 5.89021 4.96136 5.82894 4.96136ZM14.777 4.60536C14.7246 4.60536 14.6714 4.59294 14.6219 4.56659L14.614 4.56222C14.4534 4.47394 14.3948 4.27202 14.4831 4.11139C14.5714 3.95076 14.7733 3.89218 14.9339 3.98047L14.935 3.98097C15.0952 4.06842 15.1558 4.26967 15.0692 4.43046C15.0091 4.54191 14.895 4.60536 14.777 4.60536ZM7.00538 4.31818C6.87882 4.31818 6.7578 4.2455 6.70241 4.1228C6.62688 3.95579 6.70107 3.75925 6.86808 3.68372L6.8758 3.68036C7.04365 3.60667 7.23936 3.68338 7.31304 3.85139C7.38639 4.01941 7.30985 4.21512 7.14184 4.28863C7.09753 4.30861 7.05103 4.31818 7.00538 4.31818Z" fill="#A7C7D3"/>
<path d="M13.1706 18.4234L8.17198 13.4247C7.85861 13.1115 7.85828 12.6047 8.17114 12.292C8.29468 12.1684 8.4491 12.0936 8.60956 12.0682C8.85445 12.0288 9.11444 12.1035 9.30394 12.293L8.01672 11.0057C7.86029 10.8493 7.78174 10.6442 7.78174 10.4396C7.78174 10.397 7.7851 10.3542 7.79198 10.3115C7.81766 10.1507 7.89218 9.99665 8.01588 9.87295C8.13824 9.75059 8.28998 9.6764 8.44842 9.65005C8.66411 9.61413 8.89137 9.66667 9.07248 9.80782L8.5827 9.31805C8.4261 9.16145 8.34755 8.95584 8.34755 8.75106C8.34721 8.70759 8.35107 8.66378 8.35829 8.62098C8.38397 8.46119 8.45833 8.30795 8.58136 8.18492C8.70506 8.06121 8.85931 7.98635 9.02061 7.96101C9.26533 7.92157 9.5255 7.99643 9.71483 8.18576L10.2758 8.7467C10.0868 8.5577 10.0116 8.29721 10.051 8.05249C10.0764 7.89186 10.1509 7.73777 10.2749 7.6139C10.5873 7.30154 11.0947 7.30188 11.4077 7.61491L14.6562 10.8634L14.6653 10.8505C14.8299 10.6858 15.024 10.5688 15.2309 10.499C15.7417 10.3268 16.3297 10.4445 16.7372 10.8522L18.2518 12.3668C18.543 12.6579 18.7064 13.0523 18.707 13.4635L18.7079 14.4112C18.7082 14.854 18.8844 15.2788 19.1982 15.5925L19.5359 15.9302L15.6725 19.7935L15.2408 19.3618C14.9538 19.0748 14.572 18.9019 14.1673 18.8754C13.7913 18.8507 13.4373 18.6901 13.1706 18.4234Z" fill="#FECBAA"/>
<path d="M15.4217 20.0443L19.8069 15.6592C19.9514 15.5147 20.1856 15.5147 20.3301 15.6592L21.8917 17.2208C22.0362 17.3653 22.0362 17.5996 21.8917 17.744L17.5067 22.1291C17.3622 22.2737 17.1279 22.2737 16.9835 22.1291L15.4217 20.5675C15.2774 20.423 15.2774 20.1887 15.4217 20.0443Z" fill="#FDD559"/>
<path d="M19.9235 17.6276C20.0532 17.7573 20.2632 17.7575 20.3926 17.6281C20.522 17.4987 20.5218 17.2885 20.3923 17.159C20.2625 17.0292 20.0525 17.029 19.9231 17.1585C19.7937 17.288 19.7939 17.498 19.9235 17.6276Z" fill="#FF8812"/>
<path d="M15.7748 11.9818L14.6562 10.8634L14.6653 10.8505C14.83 10.6858 15.024 10.5688 15.231 10.499L16.2442 11.5123C16.3738 11.6419 16.3738 11.8522 16.2442 11.9818C16.1143 12.1117 15.9044 12.1114 15.7748 11.9818Z" fill="#FFAE85"/>
<path d="M8.82911 18.424L13.8277 13.4254C14.1411 13.112 14.1415 12.6053 13.8288 12.2926C13.7051 12.1689 13.5508 12.094 13.3902 12.0687C13.1453 12.0293 12.8853 12.1041 12.6958 12.2934L13.983 11.0064C14.1394 10.85 14.218 10.6449 14.218 10.4401C14.218 10.3976 14.2146 10.3547 14.2078 10.3122C14.1821 10.1512 14.1075 9.99731 13.9838 9.87361C13.8615 9.75125 13.7098 9.67706 13.5513 9.65071C13.3356 9.61479 13.1084 9.66732 12.9273 9.80848L13.417 9.31854C13.5736 9.1621 13.6522 8.95649 13.6522 8.75172C13.6525 8.70808 13.6487 8.66427 13.6414 8.62147C13.6159 8.46185 13.5414 8.30844 13.4184 8.18541C13.2947 8.06187 13.1404 7.98701 12.9791 7.96167C12.7344 7.92222 12.4742 7.99691 12.2849 8.18641L11.724 8.74736C11.913 8.55819 11.9881 8.29786 11.9487 8.05297C11.9234 7.89251 11.8488 7.73843 11.7248 7.61439C11.4124 7.30203 10.905 7.30236 10.592 7.6154L7.3435 10.8639L7.33444 10.8511C7.16978 10.6865 6.97575 10.5695 6.76879 10.4997C6.25787 10.3275 5.67007 10.4451 5.26254 10.8527L3.74789 12.3675C3.45668 12.6585 3.29336 13.053 3.29269 13.4642L3.29169 14.4117C3.29152 14.8546 3.11528 15.2794 2.80157 15.5931L2.46387 15.9309L6.32719 19.7942L6.75889 19.3625C7.04591 19.0755 7.42776 18.9026 7.83244 18.8761C8.20841 18.8514 8.5624 18.6908 8.82911 18.424Z" fill="#FECBAA"/>
<path d="M6.57837 20.0446L2.19321 15.6597C2.04869 15.5151 1.81455 15.5151 1.67003 15.6597L0.108387 17.2213C-0.036129 17.3658 -0.036129 17.6 0.108387 17.7445L4.49338 22.1296C4.63789 22.2742 4.87221 22.2742 5.01672 22.1296L6.57837 20.568C6.72288 20.4235 6.72288 20.1892 6.57837 20.0446Z" fill="#FF84A7"/>
<path d="M5.08169 20.6331C5.21143 20.5034 5.2116 20.2934 5.08219 20.164C4.95278 20.0344 4.74264 20.0346 4.61306 20.1643C4.48331 20.2939 4.48315 20.504 4.61256 20.6334C4.74213 20.7628 4.95211 20.7627 5.08169 20.6331Z" fill="#EF6085"/>
<path d="M6.22502 11.9823L7.34338 10.8637L7.33432 10.851C7.16966 10.6863 6.97563 10.5693 6.76868 10.4995L5.75539 11.5126C5.62581 11.6422 5.62581 11.8527 5.75539 11.9823C5.8853 12.1122 6.09528 12.1118 6.22502 11.9823Z" fill="#FFAE85"/>
<path d="M14.197 6.44397V13.5132C14.197 13.9563 13.839 14.3148 13.3967 14.3148C13.2218 14.3148 13.0598 14.2586 12.9282 14.1629C12.7273 14.0177 12.5962 13.7809 12.5962 13.5132V15.3335C12.5962 15.5547 12.5068 15.7553 12.3621 15.8999C12.332 15.9301 12.2991 15.958 12.2642 15.9832C12.1323 16.0789 11.9708 16.1351 11.7959 16.1351C11.6229 16.1351 11.4629 16.0802 11.3323 15.9869C11.1544 15.8598 11.0309 15.6619 11.0027 15.4338V16.1267C11.0027 16.3481 10.9127 16.549 10.768 16.6937C10.7375 16.7247 10.7038 16.7531 10.6685 16.7783C10.5374 16.8731 10.3763 16.9288 10.2022 16.9288C10.0275 16.9288 9.86537 16.8726 9.73344 16.7766C9.53253 16.6314 9.40144 16.3946 9.40144 16.1267V15.3335C9.40144 15.6008 9.27052 15.838 9.06944 15.9832C8.93802 16.0789 8.77638 16.1351 8.60115 16.1351C8.15921 16.1351 7.80069 15.7761 7.80069 15.3335V10.7393L7.78525 10.742C7.55244 10.742 7.3324 10.6875 7.13669 10.5906C6.65379 10.3511 6.32129 9.85226 6.32129 9.27587V7.13365C6.32129 6.72209 6.4846 6.32765 6.77498 6.03627L7.44435 5.36572C7.75738 5.05218 7.93312 4.62736 7.93312 4.18375V3.70605H13.3965V4.31651C13.3965 4.72237 13.5444 5.11462 13.8118 5.4196C14.0602 5.70292 14.197 6.06682 14.197 6.44397Z" fill="#FEDFC5"/>
<path d="M13.8288 12.2926C13.7051 12.1689 13.5508 12.0942 13.3902 12.0687C13.1453 12.0293 12.8853 12.1041 12.6958 12.2936L13.983 11.0064C14.1394 10.85 14.2182 10.6449 14.2182 10.4403C14.2182 10.3976 14.2146 10.3547 14.2078 10.3122C14.1821 10.1512 14.1077 9.99731 13.984 9.87361C13.8617 9.75125 13.7098 9.67706 13.5515 9.65071C13.3358 9.61479 13.1085 9.66732 12.9273 9.80848L13.4172 9.31854C13.5736 9.1621 13.6522 8.95649 13.6522 8.75172C13.6525 8.70825 13.6488 8.66444 13.6416 8.62147C13.6159 8.46185 13.5414 8.30844 13.4184 8.18541C13.2948 8.06187 13.1404 7.98701 12.9793 7.96167C12.7346 7.92222 12.4742 7.99708 12.2849 8.18641L11.724 8.74736C11.913 8.55819 11.9882 8.29786 11.9487 8.05297C11.9234 7.89251 11.8488 7.73843 11.725 7.61439C11.4124 7.30203 10.905 7.30236 10.592 7.6154L7.3435 10.8639L7.33444 10.8511C7.16978 10.6865 6.97575 10.5695 6.7688 10.4997C6.52374 10.4171 6.26106 10.4018 6.00879 10.4527C6.21188 10.7597 6.49588 11.0143 6.84198 11.186C6.93799 11.2335 7.03635 11.2734 7.13672 11.3057V15.3338C7.13672 16.142 7.79367 16.7995 8.60101 16.7995C8.69819 16.7995 8.79387 16.7901 8.88702 16.7716C8.99125 16.9846 9.14668 17.1721 9.34256 17.3136C9.46408 17.4022 9.59668 17.47 9.73616 17.517L13.8278 13.4254C14.1411 13.112 14.1415 12.6053 13.8288 12.2926Z" fill="#FFAE85"/>
<path d="M14.8608 13.5134V10.6862C14.7922 10.7343 14.7267 10.7892 14.6653 10.8505L14.6562 10.8634L11.4077 7.61491C11.0947 7.30188 10.5873 7.30154 10.2749 7.6139C10.1509 7.73777 10.0764 7.89186 10.051 8.05249C10.0116 8.29721 10.0868 8.5577 10.2758 8.7467L9.71483 8.18576C9.5255 7.99643 9.26534 7.92157 9.02062 7.96101C8.85932 7.98635 8.70507 8.06121 8.58136 8.18492C8.45833 8.30795 8.38381 8.46119 8.35813 8.62098C8.35108 8.66378 8.34722 8.70759 8.34755 8.75106C8.34755 8.95584 8.42611 9.16145 8.58271 9.31805L9.07248 9.80782C8.89121 9.66667 8.66411 9.61413 8.44843 9.65005C8.28998 9.6764 8.13825 9.75059 8.01589 9.87295C7.89219 9.99665 7.81766 10.1507 7.79198 10.3115C7.7851 10.3542 7.78158 10.397 7.78174 10.4396C7.78158 10.6444 7.8603 10.8493 8.01673 11.0057L9.30394 12.293C9.11461 12.1036 8.85445 12.0288 8.60973 12.0682C8.4491 12.0936 8.29468 12.1684 8.17115 12.292C7.85845 12.6048 7.85879 13.1115 8.17199 13.4249L11.5207 16.7735C11.6107 16.7906 11.7026 16.7993 11.7958 16.7993C12.1061 16.7993 12.4029 16.7031 12.6526 16.522C12.7163 16.476 12.7765 16.4248 12.8316 16.3698C13.108 16.0933 13.2603 15.7254 13.2603 15.3337V14.9728C13.3052 14.977 13.3509 14.979 13.3965 14.979C14.2039 14.979 14.8608 14.3216 14.8608 13.5134Z" fill="#FFAE85"/>
<path d="M14.197 6.44397V13.5132C14.197 13.9563 13.839 14.3148 13.3967 14.3148C13.3848 14.3148 13.3718 14.3148 13.3591 14.314C13.1991 14.3064 13.0509 14.252 12.9292 14.1634C12.9287 14.1634 12.9287 14.1629 12.9282 14.1629C12.7273 14.0177 12.5962 13.7809 12.5962 13.5132V15.3335C12.5962 15.5547 12.5068 15.7553 12.3621 15.8999C12.332 15.9301 12.2991 15.958 12.2642 15.9832C12.1323 16.0789 11.9708 16.1351 11.7959 16.1351C11.6229 16.1351 11.4629 16.0802 11.3323 15.9869C11.1544 15.8598 11.0309 15.6619 11.0027 15.4338V16.1267C11.0027 16.3481 10.9127 16.549 10.768 16.6937C10.7375 16.7247 10.7038 16.7531 10.6685 16.7783C10.5374 16.8731 10.3763 16.9288 10.2022 16.9288C10.0275 16.9288 9.86537 16.8726 9.73344 16.7766C9.53253 16.6314 9.40144 16.3946 9.40144 16.1267V15.3335C9.40144 15.6008 9.27052 15.838 9.06944 15.9832C8.93802 16.0789 8.77638 16.1351 8.60115 16.1351C8.15921 16.1351 7.80069 15.7761 7.80069 15.3335V10.7393L7.78525 10.742C7.55244 10.742 7.3324 10.6875 7.13669 10.5906C6.65379 10.3511 6.32129 9.85226 6.32129 9.27587V7.13365C6.32129 6.72209 6.4846 6.32765 6.77498 6.03627L7.44435 5.36572C7.63788 5.17186 7.77904 4.93536 7.85826 4.67772C7.90794 4.51843 7.93312 4.35059 7.93312 4.18375V3.70605H13.3965V4.31651C13.3965 4.45331 13.4113 4.59766 13.4492 4.72941C13.513 4.9832 13.637 5.22003 13.8118 5.4196C14.058 5.70074 14.197 6.0695 14.197 6.44397Z" fill="#FEDFC5"/>
<path d="M14.1971 6.44397V13.5132C14.1971 13.9563 13.8391 14.3148 13.3968 14.3148C13.3849 14.3148 13.372 14.3148 13.3592 14.314C13.1993 14.3064 13.0511 14.252 12.9294 14.1634L12.943 7.35151C12.943 7.31039 12.9337 7.24527 12.9165 7.16252C12.611 5.67456 11.3551 4.67772 9.8363 4.67772H7.8584C7.90808 4.51826 7.93326 4.35059 7.93326 4.18375V3.70605H13.3967V4.31651C13.3967 4.45331 13.4114 4.59766 13.4494 4.72941C13.5131 4.9832 13.6372 5.22003 13.8119 5.4196C14.0581 5.70074 14.1971 6.0695 14.1971 6.44397Z" fill="#FECBAA"/>
<path d="M13.7517 3.70637H7.55011C7.34584 3.70637 7.18018 3.54071 7.18018 3.33644V1.12775C7.18018 0.923477 7.34584 0.757812 7.55011 0.757812H13.7517C13.956 0.757812 14.1216 0.923477 14.1216 1.12775V3.33644C14.1216 3.54071 13.956 3.70637 13.7517 3.70637Z" fill="#83D9FF"/>
<path d="M8.93301 2.23239C8.93301 2.04893 8.78464 1.90039 8.60152 1.90039C8.4184 1.90039 8.27002 2.04893 8.27002 2.23239C8.27002 2.41568 8.4184 2.56439 8.60152 2.56439C8.78464 2.56439 8.93301 2.41568 8.93301 2.23239Z" fill="#5186FF"/>
<path d="M12.9283 9.81393V14.1632C12.7272 14.018 12.5962 13.7812 12.5962 13.5133V15.3336C12.5962 15.555 12.5069 15.7555 12.362 15.9002C12.332 15.9304 12.2992 15.9583 12.2642 15.9835V9.81393C12.2642 9.63065 12.413 9.48193 12.5962 9.48193C12.7794 9.48193 12.9283 9.63065 12.9283 9.81393Z" fill="#FECBAA"/>
<path d="M11.3325 9.81393V15.987C11.1544 15.8599 11.031 15.662 11.0026 15.4341V16.127C11.0026 16.3482 10.9128 16.5493 10.768 16.694C10.7374 16.725 10.7039 16.7532 10.6685 16.7786V9.81393C10.6685 9.63065 10.8172 9.48193 11.0005 9.48193C11.1837 9.48193 11.3325 9.63065 11.3325 9.81393Z" fill="#FECBAA"/>
<path d="M9.73334 9.81393V16.7767C9.53242 16.6315 9.40134 16.3947 9.40134 16.127V15.3336C9.40134 15.6009 9.27042 15.8383 9.06934 15.9835V9.81393C9.06934 9.63065 9.21822 9.48193 9.40134 9.48193C9.58513 9.48193 9.73334 9.63065 9.73334 9.81393Z" fill="#FECBAA"/>
<path d="M7.80072 9.15768V10.7395L7.78511 10.742C7.55231 10.742 7.33226 10.6876 7.13672 10.5908V9.15768C7.13672 8.9744 7.28543 8.82568 7.46872 8.82568C7.65234 8.82568 7.80072 8.9744 7.80072 9.15768Z" fill="#FECBAA"/>
</g>
<defs>
<clipPath id="clip0_339_28766">
<rect width="22" height="22" fill="white" transform="translate(0 0.5)"/>
</clipPath>
</defs>
</svg>
