<svg width="215" height="216" viewBox="0 0 215 216" fill="none" xmlns="http://www.w3.org/2000/svg">
<path d="M64.7999 55.0985C64.7999 55.0985 76.5999 18.4985 96.9999 13.6985C117.4 8.79852 141.2 51.6985 141.2 51.6985C141.2 51.6985 173 21.6985 188.8 26.2985C204.5 30.8985 199.3 50.8985 178.2 107.699C178.2 107.699 204.7 172.799 189 192.499C173.2 212.299 116.5 167.899 116.5 167.899C116.5 167.899 85.1999 217.198 67.8999 210.598C50.6999 204.098 39.9999 165.798 43.9999 129.799C43.9999 129.799 4.79991 88.1985 3.99991 60.1985C3.09991 32.1985 45.5999 47.2985 64.7999 55.0985Z" fill="url(#paint0_linear_910_215377)"/>
<path style="mix-blend-mode:screen" d="M137.5 55.3979L136.9 54.0978C128.4 38.7978 110.3 15.5978 98.1001 18.4978C83.6001 21.8978 72.5001 47.1978 69.5001 56.5978L67.9001 61.6978L62.9001 59.6978C42.3001 51.2979 29.7001 48.8979 22.1001 48.8979C16.9001 48.8979 13.9001 49.9978 12.3001 51.0978C10.7001 52.1978 8.70012 54.2978 8.90012 59.9978C9.70012 85.7978 47.2001 125.998 47.6001 126.398L49.1001 128.098L48.9001 130.398C47.1001 146.598 48.3001 162.098 51.3001 174.798C51.3001 174.698 52.4001 112.298 137.5 55.3979Z" fill="url(#paint1_linear_910_215377)"/>
<path style="mix-blend-mode:multiply" d="M67.9001 210.599C85.2001 217.199 116.5 167.899 116.5 167.899C116.5 167.899 173.2 212.299 189 192.499C204.7 172.799 178.2 107.699 178.2 107.699C199.3 50.8993 204.5 30.8992 188.8 26.2992C184.2 24.8992 178.3 26.4993 172.2 29.3993C176 27.6993 189.8 23.4992 193.2 32.1992C197.4 43.0992 171.1 103.899 171.1 103.899C171.1 103.899 190.9 148.899 189.2 174.799C187.5 200.799 112.5 153.199 112.5 153.199C112.5 153.199 83.5 202.799 64.6 199.499C58 198.299 53.1 192.499 49.3 185.499C53.7 198.199 60.2001 207.699 67.9001 210.599Z" fill="url(#paint2_linear_910_215377)"/>
<path style="mix-blend-mode:multiply" d="M188.8 26.2981C185.2 25.1981 180.9 25.9982 176.2 27.6982C176.733 27.6315 177.267 27.5981 177.8 27.5981C181.6 27.4981 185.3 28.1982 188.2 30.3982C198.3 38.2982 163.2 101.098 163.2 101.098C175.3 115.198 193.9 169.998 185 178.898C176 187.698 111 145.198 111 145.198C84.1001 195.098 69.6001 199.398 65.7001 199.598C64.9001 199.598 64.6 199.498 64.6 199.498C58 198.298 53.1 192.498 49.3 185.498C53.7 198.198 60.2001 207.698 67.9001 210.598C85.2001 217.198 116.5 167.898 116.5 167.898C116.5 167.898 173.2 212.298 189 192.498C204.7 172.798 178.2 107.698 178.2 107.698C199.3 50.8982 204.5 30.8981 188.8 26.2981Z" fill="url(#paint3_linear_910_215377)"/>
<path style="mix-blend-mode:color-dodge" opacity="0.6" d="M185 178.9C189.4 174.5 187.1 158.9 182.2 142.5C182.2 142.6 187.3 167.4 178.9 169.9C170.5 172.4 168.8 172.1 116.5 148.7C132.3 158.7 177.6 186.1 185 178.9Z" fill="url(#paint4_linear_910_215377)"/>
<g style="mix-blend-mode:screen">
<path d="M20.7001 59.8984C30.3001 49.5984 67.9001 61.6984 67.9001 61.6984L62.9001 59.6984C42.3001 51.2984 29.7001 48.8984 22.1001 48.8984C16.9001 48.8984 13.9001 49.9984 12.3001 51.0984C10.7001 52.1984 8.70012 54.2984 8.90012 59.9984C9.30012 72.8984 18.9001 89.4984 28.4001 102.798C28.4001 102.798 11.0001 70.0984 20.7001 59.8984Z" fill="white"/>
</g>
<g style="mix-blend-mode:screen">
<path d="M98.0999 18.4965C87.9999 20.8965 79.5 34.0965 74.2 44.9965C74.4 44.7965 89.2 24.7965 100.9 25.7965C112.7 26.7965 122.3 37.5965 132.9 47.5965C123.6 32.9965 108.7 15.9965 98.0999 18.4965Z" fill="white"/>
</g>
<path style="mix-blend-mode:color-dodge" opacity="0.6" d="M188.8 26.2992C184.2 24.8992 178.3 26.4993 172.2 29.3993C176 27.6993 189.8 23.4992 193.2 32.1992C193.6 33.1992 193.7 34.7992 193.6 36.6992C194.4 35.9992 197.5 33.7992 197.9 41.4992C198.2 32.7992 195.3 28.1992 188.8 26.2992Z" fill="url(#paint5_linear_910_215377)"/>
<path style="mix-blend-mode:color-dodge" opacity="0.6" d="M64.3 205.8C59.5 200.4 66.6001 199.6 67.7001 199.5C66.6001 199.6 65.6 199.6 64.6 199.5C58 198.3 53.1 192.5 49.3 185.5C53.7 198.2 60.2001 207.7 67.9001 210.6C72.5001 212.4 77.9 210.2 83.6 206.2C76.7 210.1 69.5 211.7 64.3 205.8Z" fill="url(#paint6_linear_910_215377)"/>
<path style="mix-blend-mode:multiply" d="M189.2 174.798C188.8 180.898 184.4 182.898 177.8 182.498L179.1 197.498C183.1 197.098 186.5 195.598 189 192.498C204.7 172.798 178.2 107.698 178.2 107.698L171.1 103.898C171.1 103.898 190.9 148.898 189.2 174.798Z" fill="url(#paint7_linear_910_215377)"/>
<path style="mix-blend-mode:multiply" d="M64.6 199.499C58 198.299 53.1 192.499 49.3 185.499C53.7 198.199 60.2001 207.699 67.9001 210.599C85.2001 217.199 116.5 167.899 116.5 167.899L112.5 153.199C112.5 153.199 83.5 202.799 64.6 199.499Z" fill="url(#paint8_linear_910_215377)"/>
<g style="mix-blend-mode:color-dodge">
<path d="M89.3998 155.499C88.7998 154.999 88.6998 153.999 89.1998 153.399C89.7998 152.699 90.6998 152.599 91.3998 153.199C91.9998 153.699 92.0997 154.699 91.5997 155.299C90.9997 155.899 90.0998 155.999 89.3998 155.499Z" fill="white"/>
</g>
<path style="mix-blend-mode:screen" d="M82.3998 164.097C76.9998 159.597 76.1998 151.597 80.6998 146.297C85.0998 140.897 93.0998 140.097 98.4998 144.597C103.9 149.097 104.6 156.997 100.1 162.397C95.6998 167.797 87.6998 168.497 82.3998 164.097Z" fill="url(#paint9_radial_910_215377)"/>
<g style="mix-blend-mode:color-dodge">
<path d="M93.7999 127.1C93.1999 126.6 93.0999 125.6 93.5999 125C94.0999 124.3 95.0999 124.2 95.7999 124.8C96.3999 125.3 96.4999 126.3 95.9999 126.9C95.3999 127.5 94.4999 127.6 93.7999 127.1Z" fill="white"/>
</g>
<path style="mix-blend-mode:screen" d="M86.6999 135.699C81.2999 131.199 80.5999 123.199 84.9999 117.899C89.4999 112.499 97.4999 111.699 102.8 116.199C108.2 120.599 109 128.599 104.5 133.999C100.1 139.399 92.0999 140.099 86.6999 135.699Z" fill="url(#paint10_radial_910_215377)"/>
<g style="mix-blend-mode:color-dodge">
<path d="M148.9 95.9986C148.2 95.4986 148.1 94.4987 148.7 93.8987C149.2 93.1987 150.2 93.0987 150.8 93.6987C151.4 94.1987 151.5 95.1986 151 95.7986C150.5 96.4986 149.5 96.4986 148.9 95.9986Z" fill="white"/>
</g>
<path style="mix-blend-mode:screen" d="M141.8 104.599C136.4 100.099 135.6 92.1988 140.1 86.7988C144.5 81.3988 152.5 80.6988 157.9 85.0988C163.3 89.5988 164 97.4988 159.6 102.899C155.1 108.299 147.1 108.999 141.8 104.599Z" fill="url(#paint11_radial_910_215377)"/>
<g style="mix-blend-mode:color-dodge">
<path d="M45.1999 102.599C44.4999 101.999 44.3999 101.099 44.9999 100.399C45.4999 99.7991 46.4999 99.699 47.0999 100.199C47.7999 100.699 47.7999 101.699 47.2999 102.399C46.7999 102.999 45.7999 103.099 45.1999 102.599Z" fill="white"/>
</g>
<path style="mix-blend-mode:screen" d="M38.1 111.099C32.7 106.699 32.0001 98.6988 36.4001 93.2988C40.9001 87.8988 48.8 87.1988 54.2 91.5988C59.6 96.0988 60.3 104.099 55.9 109.399C51.4 114.799 43.5 115.599 38.1 111.099Z" fill="url(#paint12_radial_910_215377)"/>
<g style="mix-blend-mode:color-dodge">
<path d="M86.7001 51.8998C86.1001 51.2998 86.0001 50.3998 86.5001 49.6998C87.1001 49.0998 88.0001 48.9998 88.7001 49.4998C89.3001 50.0998 89.4001 50.9998 88.9001 51.6998C88.3001 52.2998 87.4001 52.3998 86.7001 51.8998Z" fill="white"/>
</g>
<path style="mix-blend-mode:screen" d="M79.6 60.4003C74.3 56.0003 73.5 48.0002 78 42.6002C82.4 37.3002 90.4 36.5002 95.8 41.0002C101.1 45.4002 101.9 53.4002 97.4 58.8002C93 64.1002 85 64.9003 79.6 60.4003Z" fill="url(#paint13_radial_910_215377)"/>
<g style="mix-blend-mode:color-dodge">
<path d="M152.8 69.099C152.2 68.499 152.1 67.5991 152.6 66.8991C153.1 66.2991 154.1 66.199 154.7 66.699C155.4 67.299 155.5 68.1991 154.9 68.8991C154.4 69.4991 153.5 69.599 152.8 69.099Z" fill="white"/>
</g>
<path style="mix-blend-mode:screen" d="M145.7 77.5994C140.3 73.1994 139.6 65.1994 144 59.7994C148.5 54.4994 156.5 53.6995 161.8 58.1995C167.2 62.5995 168 70.5994 163.5 75.9994C159.1 81.3994 151.1 82.0994 145.7 77.5994Z" fill="url(#paint14_radial_910_215377)"/>
<g style="mix-blend-mode:color-dodge">
<path d="M135 135.9C134.3 135.3 134.3 134.4 134.8 133.7C135.3 133.1 136.3 133 136.9 133.5C137.6 134.1 137.7 135 137.1 135.7C136.6 136.3 135.6 136.4 135 135.9Z" fill="white"/>
</g>
<path style="mix-blend-mode:screen" d="M127.9 144.4C122.5 140 121.8 132 126.2 126.6C130.7 121.3 138.6 120.5 144 125C149.4 129.4 150.1 137.4 145.7 142.8C141.2 148.1 133.3 148.9 127.9 144.4Z" fill="url(#paint15_radial_910_215377)"/>
<g style="mix-blend-mode:color-dodge">
<path d="M174.4 46.499C173.8 45.999 173.7 44.9991 174.2 44.3991C174.7 43.7991 175.7 43.699 176.3 44.199C177 44.699 177.1 45.699 176.5 46.299C176 46.999 175.1 47.099 174.4 46.499Z" fill="white"/>
</g>
<path style="mix-blend-mode:screen" d="M167.3 55.0988C161.9 50.6988 161.2 42.6988 165.6 37.2988C170.1 31.8988 178.1 31.1988 183.4 35.5988C188.8 40.0988 189.6 48.0988 185.1 53.3988C180.7 58.7988 172.7 59.5988 167.3 55.0988Z" fill="url(#paint16_radial_910_215377)"/>
<g style="mix-blend-mode:color-dodge">
<path d="M169.4 84.5015C169.1 84.3015 169.1 83.9014 169.3 83.6014C169.5 83.3014 170 83.2015 170.2 83.5015C170.5 83.7015 170.6 84.1015 170.3 84.4015C170.1 84.7015 169.7 84.7015 169.4 84.5015Z" fill="white"/>
</g>
<path style="mix-blend-mode:screen" d="M166.3 88.2998C163.9 86.2998 163.6 82.7998 165.5 80.4998C167.5 78.0998 171 77.7998 173.4 79.6998C175.7 81.6998 176.1 85.1998 174.1 87.4998C172.1 89.8998 168.6 90.1998 166.3 88.2998Z" fill="url(#paint17_radial_910_215377)"/>
<g style="mix-blend-mode:color-dodge">
<path d="M122.7 113.397C122.4 113.197 122.4 112.797 122.6 112.497C122.8 112.197 123.3 112.197 123.5 112.397C123.8 112.597 123.9 113.097 123.6 113.297C123.4 113.597 123 113.697 122.7 113.397Z" fill="white"/>
</g>
<path style="mix-blend-mode:screen" d="M119.6 117.198C117.2 115.198 116.9 111.698 118.8 109.398C120.8 106.998 124.3 106.698 126.7 108.598C129 110.598 129.4 114.098 127.4 116.498C125.4 118.798 121.9 119.198 119.6 117.198Z" fill="url(#paint18_radial_910_215377)"/>
<g style="mix-blend-mode:color-dodge">
<path d="M115.5 102.499C115.3 102.299 115.2 101.899 115.5 101.599C115.7 101.299 116.1 101.299 116.4 101.499C116.7 101.699 116.7 102.199 116.5 102.399C116.3 102.699 115.8 102.799 115.5 102.499Z" fill="white"/>
</g>
<path style="mix-blend-mode:screen" d="M112.4 106.3C110.1 104.3 109.7 100.8 111.7 98.4998C113.7 96.0998 117.2 95.7998 119.5 97.6998C121.9 99.6998 122.2 103.2 120.3 105.6C118.3 107.9 114.8 108.3 112.4 106.3Z" fill="url(#paint19_radial_910_215377)"/>
<g style="mix-blend-mode:color-dodge">
<path d="M74.7999 111.596C74.4999 111.396 74.4999 110.996 74.6999 110.696C74.8999 110.396 75.3999 110.396 75.5999 110.596C75.8999 110.796 75.9999 111.296 75.6999 111.496C75.4999 111.796 75.0999 111.896 74.7999 111.596Z" fill="white"/>
</g>
<path style="mix-blend-mode:screen" d="M71.7 115.397C69.3 113.397 69 109.897 70.9 107.597C72.9 105.197 76.4 104.897 78.8 106.797C81.1 108.797 81.5 112.297 79.5 114.697C77.5 116.997 74 117.397 71.7 115.397Z" fill="url(#paint20_radial_910_215377)"/>
<g style="mix-blend-mode:color-dodge">
<path d="M38.5999 63.8964C38.3999 63.5964 38.2999 63.1964 38.4999 62.8964C38.7999 62.6964 39.1999 62.5964 39.4999 62.8964C39.7999 63.0964 39.7999 63.4963 39.5999 63.7963C39.2999 64.0963 38.8999 64.0964 38.5999 63.8964Z" fill="white"/>
</g>
<path style="mix-blend-mode:screen" d="M35.4998 67.5973C33.0998 65.6973 32.7998 62.1974 34.7998 59.7974C36.6998 57.4974 40.1998 57.0973 42.5998 59.0973C44.9998 60.9973 45.2998 64.4974 43.2998 66.8974C41.3998 69.2974 37.8998 69.5973 35.4998 67.5973Z" fill="url(#paint21_radial_910_215377)"/>
<g style="mix-blend-mode:color-dodge">
<path d="M31.8998 81.7995C31.5998 81.5995 31.4998 81.1996 31.7998 80.8996C31.9998 80.5996 32.3998 80.5995 32.6998 80.7995C32.9998 80.9995 32.9998 81.3996 32.7998 81.6996C32.5998 81.9996 32.1998 82.0995 31.8998 81.7995Z" fill="white"/>
</g>
<path style="mix-blend-mode:screen" d="M28.7 85.6006C26.4 83.6006 26.1 80.1006 28 77.8006C30 75.4006 33.4999 75.1006 35.7999 77.0006C38.1999 79.0006 38.4999 82.5006 36.5999 84.9006C34.5999 87.2006 31.1 87.5006 28.7 85.6006Z" fill="url(#paint22_radial_910_215377)"/>
<g style="mix-blend-mode:color-dodge">
<path d="M100.6 38.9979C100.3 38.7979 100.2 38.2979 100.5 37.9979C100.7 37.7979 101.1 37.6979 101.4 37.9979C101.7 38.1979 101.7 38.598 101.5 38.898C101.3 39.198 100.9 39.1979 100.6 38.9979Z" fill="white"/>
</g>
<path style="mix-blend-mode:screen" d="M97.3999 42.7989C95.0999 40.7989 94.7999 37.2989 96.6999 34.8989C98.6999 32.5989 102.2 32.1989 104.5 34.1989C106.9 36.0989 107.2 39.6989 105.3 41.9989C103.3 44.3989 99.7999 44.6989 97.3999 42.7989Z" fill="url(#paint23_radial_910_215377)"/>
<g style="mix-blend-mode:color-dodge">
<path d="M114.9 45.198C114.6 44.998 114.6 44.598 114.8 44.298C115 43.998 115.4 43.998 115.7 44.198C116 44.398 116.1 44.798 115.8 45.098C115.6 45.398 115.2 45.498 114.9 45.198Z" fill="white"/>
</g>
<path style="mix-blend-mode:screen" d="M111.8 48.999C109.4 46.999 109.1 43.499 111 41.199C113 38.799 116.5 38.499 118.9 40.399C121.2 42.399 121.5 45.899 119.6 48.199C117.6 50.599 114.1 50.899 111.8 48.999Z" fill="url(#paint24_radial_910_215377)"/>
<g style="mix-blend-mode:color-dodge">
<path d="M63.4001 121.8C63.1001 121.6 63.1 121.2 63.3 120.9C63.5 120.6 64 120.6 64.2 120.8C64.5 121 64.6 121.4 64.3 121.7C64.1 122 63.7001 122.1 63.4001 121.8Z" fill="white"/>
</g>
<path style="mix-blend-mode:screen" d="M60.3001 125.601C57.9001 123.601 57.6001 120.101 59.5001 117.801C61.5001 115.401 65.0001 115.101 67.4001 117.001C69.7001 119.001 70.1001 122.501 68.1001 124.801C66.1001 127.201 62.6001 127.501 60.3001 125.601Z" fill="url(#paint25_radial_910_215377)"/>
<g style="mix-blend-mode:color-dodge">
<path d="M67.4999 147.798C67.1999 147.498 67.1999 147.098 67.3999 146.798C67.6999 146.498 68.0999 146.498 68.3999 146.698C68.5999 146.998 68.6999 147.398 68.3999 147.698C68.1999 147.998 67.7999 147.998 67.4999 147.798Z" fill="white"/>
</g>
<path style="mix-blend-mode:screen" d="M64.3999 151.497C61.9999 149.597 61.6999 146.097 63.6999 143.697C65.5999 141.297 69.0999 140.997 71.4999 142.997C73.7999 144.897 74.1999 148.397 72.1999 150.797C70.2999 153.197 66.7999 153.497 64.3999 151.497Z" fill="url(#paint26_radial_910_215377)"/>
<g style="mix-blend-mode:color-dodge">
<path d="M66.0997 177.896C65.7997 177.696 65.7997 177.196 65.9997 176.996C66.2997 176.696 66.6997 176.596 66.9997 176.896C67.2997 177.096 67.2997 177.496 67.0997 177.796C66.7997 178.096 66.3997 178.096 66.0997 177.896Z" fill="white"/>
</g>
<path style="mix-blend-mode:screen" d="M62.9998 181.697C60.5998 179.697 60.2998 176.197 62.2998 173.797C64.1998 171.497 67.6998 171.097 70.0998 173.097C72.4998 175.097 72.7998 178.597 70.7998 180.897C68.8998 183.297 65.3998 183.597 62.9998 181.697Z" fill="url(#paint27_radial_910_215377)"/>
<g style="mix-blend-mode:color-dodge">
<path d="M170.1 157.998C169.8 157.798 169.7 157.298 170 157.098C170.2 156.798 170.6 156.698 170.9 156.998C171.2 157.198 171.2 157.598 171 157.898C170.8 158.198 170.3 158.198 170.1 157.998Z" fill="white"/>
</g>
<path style="mix-blend-mode:screen" d="M166.9 161.799C164.6 159.799 164.2 156.299 166.2 153.899C168.2 151.599 171.7 151.199 174 153.199C176.4 155.199 176.7 158.699 174.8 160.999C172.8 163.399 169.3 163.699 166.9 161.799Z" fill="url(#paint28_radial_910_215377)"/>
<g style="mix-blend-mode:color-dodge">
<path d="M163.8 130.397C163.5 130.197 163.5 129.797 163.7 129.497C164 129.197 164.4 129.197 164.7 129.397C165 129.597 165 130.097 164.8 130.297C164.5 130.597 164.1 130.697 163.8 130.397Z" fill="white"/>
</g>
<path style="mix-blend-mode:screen" d="M160.7 134.198C158.3 132.198 158 128.698 160 126.398C161.9 123.998 165.4 123.698 167.8 125.598C170.2 127.598 170.5 131.098 168.5 133.498C166.6 135.798 163.1 136.198 160.7 134.198Z" fill="url(#paint29_radial_910_215377)"/>
<path style="mix-blend-mode:screen" d="M214.9 108.298C214.9 167.698 166.8 215.798 107.4 215.798C48.1 215.798 0 167.698 0 108.298C0 48.9984 48.1 0.898438 107.4 0.898438C166.8 0.898438 214.9 48.9984 214.9 108.298Z" fill="url(#paint30_radial_910_215377)"/>
<path style="mix-blend-mode:multiply" d="M105.9 85.0007C110.5 84.1007 112.1 97.4008 106.9 96.9008C101.8 96.3008 102.6 85.5007 105.9 85.0007Z" fill="url(#paint31_linear_910_215377)"/>
<path style="mix-blend-mode:multiply" d="M106.9 94.5011C108.8 94.7011 109.8 93.0011 110.1 90.9011C109.7 87.7011 108.2 84.5011 105.9 85.0011C104.5 85.2011 103.5 87.3011 103.3 89.6011C103.6 92.0011 104.7 94.3011 106.9 94.5011Z" fill="url(#paint32_linear_910_215377)"/>
<path style="mix-blend-mode:multiply" d="M110.1 91.1016C110.1 91.2349 110.1 91.3683 110.1 91.5016C110.2 94.4016 109.3 97.1016 106.9 96.9016C105 96.7016 103.9 95.1016 103.5 93.1016C103.8 95.4016 104.9 97.4016 107 97.6016C109.7 97.9016 110.6 94.4016 110.1 91.1016Z" fill="url(#paint33_linear_910_215377)"/>
<path style="mix-blend-mode:screen" opacity="0.47" d="M105.9 85.0016C108.2 84.5016 109.7 87.7016 110 90.8016C110.067 90.9349 110.1 91.0349 110.1 91.1016C110.2 87.6016 108.5 83.3016 105.9 83.8016C104.2 84.1016 103.1 87.1016 103.3 90.0016C103.4 87.5016 104.4 85.2016 105.9 85.0016Z" fill="url(#paint34_linear_910_215377)"/>
<path style="mix-blend-mode:multiply" opacity="0.26" d="M140.5 62.5003C140.433 62.3003 140.4 62.1003 140.4 61.9003C140.2 61.3003 140 60.7337 139.8 60.2003C139.733 60.0003 139.633 59.8337 139.5 59.7003C139.3 59.2337 139.067 58.8003 138.8 58.4003C138.667 58.2003 138.5 58.0003 138.3 57.8003C138.167 57.6003 138.033 57.4003 137.9 57.2003C137.433 56.8003 136.967 56.4336 136.5 56.1003C136.433 56.0336 136.367 56.0003 136.3 56.0003C136.033 55.8003 135.7 55.6336 135.3 55.5003C134.5 55.1003 133.667 54.867 132.8 54.8003C132.1 54.7003 131.4 54.7003 130.7 54.8003C129.1 55.0003 127.4 55.7003 126 56.7003C126 56.7003 125.967 56.7336 125.9 56.8003C125.5 57.1336 125.1 57.467 124.7 57.8003C124.633 57.9336 124.533 58.0336 124.4 58.1003C124.133 58.4336 123.867 58.8003 123.6 59.2003C123.4 59.3003 123.3 59.5003 123.2 59.7003C123 60.1003 122.8 60.4003 122.7 60.7003C122.5 61.0003 122.5 61.3003 122.3 61.6003C122.3 61.9003 122.2 62.1003 122.1 62.4003C121.967 63.0003 121.867 63.6336 121.8 64.3003C122.1 57.4003 114.9 52.6003 109.2 54.5003C107.6 55.0003 106.2 56.0003 105.1 57.6003C105.033 57.7336 104.967 57.8337 104.9 57.9003C104.633 58.3003 104.367 58.7337 104.1 59.2003C103.967 59.467 103.867 59.7336 103.8 60.0003C103.6 60.4003 103.5 60.8003 103.3 61.2003C103.1 61.9337 102.9 62.7336 102.7 63.6003C102.7 63.867 102.7 64.1337 102.7 64.4003C102.433 63.7337 102.167 63.1336 101.9 62.6003C101.767 62.4003 101.667 62.2003 101.6 62.0003C101.267 61.467 100.933 60.967 100.6 60.5003C100.467 60.367 100.333 60.2336 100.2 60.1003C99.8666 59.7003 99.5333 59.367 99.2 59.1003C99 58.9003 98.7999 58.7003 98.5999 58.5003C98.3999 58.367 98.2 58.2336 98 58.1003C97.4666 57.767 96.9333 57.5337 96.4 57.4003C96.3333 57.3337 96.2666 57.3003 96.2 57.3003C95.8666 57.167 95.4999 57.067 95.0999 57.0003C94.2333 56.867 93.3666 56.867 92.5 57.0003C91.7 57.1003 91.1 57.3003 90.5 57.5003C88.9 58.2003 87.5 59.2003 86.4 60.5003C86.3333 60.567 86.2999 60.6003 86.2999 60.6003C85.9666 61.067 85.6666 61.5336 85.4 62.0003C85.3333 62.067 85.2666 62.167 85.2 62.3003C85 62.7003 84.7999 63.1003 84.5999 63.5003C84.4999 63.7003 84.5 64.0003 84.4 64.2003C84.3 64.5003 84.1999 64.9003 84.0999 65.2003C84.0999 65.5003 84.1 65.9003 84 66.2003C84 66.5003 84 66.8003 84 67.0003C84 67.6003 84.0666 68.2337 84.2 68.9003C82.7 62.2003 74.5999 59.3003 69.5999 62.5003C68.0999 63.5003 66.9999 64.8003 66.2999 66.6003C66.2333 66.7336 66.2 66.8337 66.2 66.9003C66 67.367 65.8666 67.867 65.7999 68.4003C65.7333 68.667 65.6666 68.9337 65.5999 69.2003C65.5999 69.6003 65.5 70.0003 65.5 70.5003C65.4333 71.2336 65.4333 72.067 65.5 73.0003C65.6 73.9003 65.7999 74.8003 66.0999 75.7003C66.2333 75.967 66.3333 76.2336 66.4 76.5003C66.6666 77.1003 66.9333 77.667 67.2 78.2003C67.4 78.467 67.5999 78.7336 67.7999 79.0003C68.1333 79.5336 68.5 80.0336 68.9 80.5003C69.1 80.767 69.3 81.0003 69.5 81.2003C69.9666 81.8003 70.4999 82.367 71.0999 82.9003C71.2333 82.967 71.3666 83.067 71.5 83.2003C72.2333 83.8003 72.9666 84.367 73.7 84.9003C73.9 85.0337 74.0999 85.167 74.2999 85.3003C74.8999 85.7003 75.5333 86.1003 76.2 86.5003C76.4666 86.567 76.7 86.667 76.9 86.8003C77.5666 87.2003 78.1999 87.5336 78.7999 87.8003C78.9999 87.9336 79.2 88.0336 79.4 88.1003C80.2 88.5003 80.9666 88.8336 81.7 89.1003C84 90.1003 85.9999 90.7003 87.2999 91.1003C87.8999 91.3003 88.3666 91.4336 88.7 91.5003C89 91.6003 89.2 91.6003 89.2 91.6003C89.2 91.6003 94.5 87.5003 98.7 81.7003C99.3666 80.7003 99.9999 79.7003 100.6 78.7003C101.2 77.6337 101.733 76.5337 102.2 75.4003C102.267 75.267 102.3 75.167 102.3 75.1003C102.9 73.5003 103.3 71.867 103.5 70.2003C103.7 70.7337 103.9 71.267 104.1 71.8003C104.233 72.067 104.367 72.3336 104.5 72.6003C104.9 73.267 105.3 73.9336 105.7 74.6003C105.767 74.7336 105.867 74.867 106 75.0003C106.533 75.7336 107.133 76.467 107.8 77.2003C107.933 77.3337 108.067 77.5003 108.2 77.7003C108.733 78.2337 109.267 78.767 109.8 79.3003C110 79.5003 110.167 79.667 110.3 79.8003C110.833 80.3336 111.4 80.8336 112 81.3003C112.133 81.4336 112.267 81.567 112.4 81.7003C113.067 82.2337 113.733 82.767 114.4 83.3003C116.4 84.7003 118.2 85.9003 119.4 86.6003C119.933 86.9336 120.333 87.167 120.6 87.3003C120.9 87.4003 121.1 87.5003 121.1 87.5003C121.1 87.5003 127.2 84.8003 132.7 80.2003C133.633 79.467 134.5 78.667 135.3 77.8003C136.167 76.9336 136.967 76.0003 137.7 75.0003C137.767 74.9336 137.833 74.8337 137.9 74.7003C140 71.8003 141.3 68.5003 140.9 64.9003C140.833 64.0337 140.7 63.2336 140.5 62.5003Z" fill="url(#paint35_linear_910_215377)"/>
<path d="M100.6 66.2022C95.9998 53.2022 82.3999 60.9022 84.3999 69.7022C82.3999 60.9022 66.8998 59.6022 68.0998 73.3022C69.1998 85.0022 88.6999 89.5022 88.6999 89.5022C88.6999 89.5022 104.6 77.2022 100.6 66.2022Z" fill="url(#paint36_linear_910_215377)"/>
<path style="mix-blend-mode:multiply" d="M100.6 66.1984C99.0999 61.7984 96.4999 59.8984 93.8999 59.3984C95.9999 60.1984 97.9999 62.1984 99.2999 65.7984C103.3 76.7984 87.4999 89.1984 87.4999 89.1984C87.4999 89.1984 87.2999 89.1984 87.0999 89.0984C88.0999 89.3984 88.6999 89.4984 88.6999 89.4984C88.6999 89.4984 104.6 77.1984 100.6 66.1984Z" fill="url(#paint37_linear_910_215377)"/>
<path style="mix-blend-mode:color-dodge" opacity="0.82" d="M84.4001 69.7001C85.6001 73.7001 98.3001 58.3002 91.6001 59.4002C91.5334 59.4002 91.5001 59.4002 91.5001 59.4002C91.0334 59.4668 90.4667 59.6335 89.8001 59.9002C86.2001 61.3002 83.4001 65.4001 84.4001 69.7001Z" fill="url(#paint38_linear_910_215377)"/>
<path style="mix-blend-mode:color-dodge" opacity="0.82" d="M72.7998 70.4987C75.7998 62.9987 83.0999 65.4987 84.3999 69.6987C82.3999 60.8987 66.8998 59.5987 68.0998 73.2987C68.7998 80.4987 76.3999 84.9988 82.1999 87.3988C82.0999 87.2988 69.8998 77.8987 72.7998 70.4987Z" fill="url(#paint39_linear_910_215377)"/>
<path style="mix-blend-mode:color-dodge" opacity="0.6" d="M98.7 78.3C99.8 76.3 100.7 74.2 101 72C96.5 74.9 84.8 76.1 78.2 72.5C71.8 68.8 73.1 63.6 73.2 63.5C72.1 63.8 71.1 64.5 70.2 65.4C66.4 85 93.5 79.5 98.7 78.3Z" fill="url(#paint40_linear_910_215377)"/>
<path style="mix-blend-mode:color-dodge" opacity="0.6" d="M80.0999 81C67.3999 78.1 68.0999 70.5 69.3999 66.5C68.3999 68.1 67.8999 70.4 68.0999 73.3C70.7999 85.2 85.0999 86.5 92.1999 86.4C93.6999 85 95.3999 83 96.9999 80.8C92.3999 82.1 86.6999 82.6 80.0999 81Z" fill="url(#paint41_linear_910_215377)"/>
<path d="M138.4 65.6993C137.1 51.9993 122.1 55.9992 121.8 65.0992C122.1 55.9992 107.4 50.9992 105.2 64.5992C103.3 76.0992 121.1 85.3993 121.1 85.3993C121.1 85.3993 139.5 77.2993 138.4 65.6993Z" fill="url(#paint42_linear_910_215377)"/>
<path style="mix-blend-mode:multiply" d="M138.4 65.7C138 61.1 136 58.5 133.6 57.5C135.5 58.8 136.9 61.2 137.3 65C138.4 76.7 120 84.7 120 84.7C120 84.7 119.9 84.7 119.7 84.6C120.6 85.1 121.1 85.4 121.1 85.4C121.1 85.4 139.5 77.3 138.4 65.7Z" fill="url(#paint43_linear_910_215377)"/>
<path style="mix-blend-mode:color-dodge" opacity="0.82" d="M121.8 65.1008C122 69.3008 138.1 57.5008 131.4 56.9008C131.333 56.8342 131.267 56.8008 131.2 56.8008C130.733 56.8008 130.2 56.8342 129.6 56.9008C125.7 57.4008 122 60.7008 121.8 65.1008Z" fill="url(#paint44_linear_910_215377)"/>
<path style="mix-blend-mode:color-dodge" opacity="0.82" d="M110.4 62.9993C115.1 56.4993 121.6 60.6992 121.8 65.0992C122.1 55.9992 107.4 50.9992 105.2 64.5992C104 71.6992 110.3 77.8993 115.4 81.6993C115.3 81.5993 105.7 69.4993 110.4 62.9993Z" fill="url(#paint45_linear_910_215377)"/>
<path style="mix-blend-mode:color-dodge" opacity="0.6" d="M133.5 76.9008C135.1 75.3008 136.5 73.5008 137.4 71.5008C132.3 73.1008 120.6 71.4008 115.2 66.2008C109.8 61.1008 112.4 56.4008 112.5 56.3008C111.3 56.4008 110.2 56.7008 109.2 57.4008C100.6 75.5008 128.3 76.9008 133.5 76.9008Z" fill="url(#paint46_linear_910_215377)"/>
<path style="mix-blend-mode:color-dodge" opacity="0.6" d="M114.9 75.0008C103.3 69.0008 105.8 61.8008 108.1 58.3008C106.7 59.6008 105.7 61.6008 105.2 64.6008C104.9 76.8008 118.4 81.6008 125.3 83.2008C127.1 82.2008 129.2 80.7008 131.3 79.0008C126.5 79.0008 120.9 78.1008 114.9 75.0008Z" fill="url(#paint47_linear_910_215377)"/>
<defs>
<linearGradient id="paint0_linear_910_215377" x1="102.961" y1="-85.7215" x2="298.914" y2="110.232" gradientUnits="userSpaceOnUse">
<stop stop-color="#FFB3EF"/>
<stop offset="1" stop-color="#E00045"/>
</linearGradient>
<linearGradient id="paint1_linear_910_215377" x1="82.6131" y1="-67.7262" x2="367.465" y2="217.126" gradientUnits="userSpaceOnUse">
<stop stop-color="#FF4FBD"/>
<stop offset="0.626"/>
</linearGradient>
<linearGradient id="paint2_linear_910_215377" x1="9.47405" y1="-204.052" x2="311.336" y2="97.8103" gradientUnits="userSpaceOnUse">
<stop stop-color="#B50060"/>
<stop offset="1" stop-color="white"/>
</linearGradient>
<linearGradient id="paint3_linear_910_215377" x1="5.51504" y1="-208.005" x2="311.333" y2="97.8132" gradientUnits="userSpaceOnUse">
<stop stop-color="#B50060"/>
<stop offset="1" stop-color="white"/>
</linearGradient>
<linearGradient id="paint4_linear_910_215377" x1="118.694" y1="58.7689" x2="259.001" y2="331.003" gradientUnits="userSpaceOnUse">
<stop stop-color="white"/>
<stop offset="1"/>
</linearGradient>
<linearGradient id="paint5_linear_910_215377" x1="101.352" y1="-62.7198" x2="279.71" y2="115.638" gradientUnits="userSpaceOnUse">
<stop offset="0.255" stop-color="white"/>
<stop offset="1"/>
</linearGradient>
<linearGradient id="paint6_linear_910_215377" x1="-34.7639" y1="74.5671" x2="142.912" y2="252.243" gradientUnits="userSpaceOnUse">
<stop offset="0.255" stop-color="white"/>
<stop offset="1"/>
</linearGradient>
<linearGradient id="paint7_linear_910_215377" x1="225.578" y1="-89.7195" x2="351.554" y2="75.0564" gradientUnits="userSpaceOnUse">
<stop stop-color="#B50060"/>
<stop offset="1" stop-color="white"/>
</linearGradient>
<linearGradient id="paint8_linear_910_215377" x1="340.434" y1="-21.2327" x2="82.7453" y2="236.456" gradientUnits="userSpaceOnUse">
<stop stop-color="#B50060"/>
<stop offset="1" stop-color="white"/>
</linearGradient>
<radialGradient id="paint9_radial_910_215377" cx="0" cy="0" r="1" gradientUnits="userSpaceOnUse" gradientTransform="translate(90.4138 154.331) rotate(129.627) scale(12.6406 12.6406)">
<stop stop-color="white"/>
<stop offset="1"/>
</radialGradient>
<radialGradient id="paint10_radial_910_215377" cx="0" cy="0" r="1" gradientUnits="userSpaceOnUse" gradientTransform="translate(94.7809 125.931) rotate(129.627) scale(12.6406)">
<stop stop-color="white"/>
<stop offset="1"/>
</radialGradient>
<radialGradient id="paint11_radial_910_215377" cx="0" cy="0" r="1" gradientUnits="userSpaceOnUse" gradientTransform="translate(149.828 94.8418) rotate(129.627) scale(12.6406)">
<stop stop-color="white"/>
<stop offset="1"/>
</radialGradient>
<radialGradient id="paint12_radial_910_215377" cx="0" cy="0" r="1" gradientUnits="userSpaceOnUse" gradientTransform="translate(46.141 101.381) rotate(129.627) scale(12.6406)">
<stop stop-color="white"/>
<stop offset="1"/>
</radialGradient>
<radialGradient id="paint13_radial_910_215377" cx="0" cy="0" r="1" gradientUnits="userSpaceOnUse" gradientTransform="translate(87.709 50.6902) rotate(129.627) scale(12.6406)">
<stop stop-color="white"/>
<stop offset="1"/>
</radialGradient>
<radialGradient id="paint14_radial_910_215377" cx="0" cy="0" r="1" gradientUnits="userSpaceOnUse" gradientTransform="translate(153.775 67.9114) rotate(129.627) scale(12.6406)">
<stop stop-color="white"/>
<stop offset="1"/>
</radialGradient>
<radialGradient id="paint15_radial_910_215377" cx="0" cy="0" r="1" gradientUnits="userSpaceOnUse" gradientTransform="translate(135.958 134.702) rotate(129.627) scale(12.6406 12.6406)">
<stop stop-color="white"/>
<stop offset="1"/>
</radialGradient>
<radialGradient id="paint16_radial_910_215377" cx="0" cy="0" r="1" gradientUnits="userSpaceOnUse" gradientTransform="translate(175.379 45.3678) rotate(129.627) scale(12.6406)">
<stop stop-color="white"/>
<stop offset="1"/>
</radialGradient>
<radialGradient id="paint17_radial_910_215377" cx="0" cy="0" r="1" gradientUnits="userSpaceOnUse" gradientTransform="translate(169.818 83.9978) rotate(129.622) scale(5.56041 5.56041)">
<stop stop-color="white"/>
<stop offset="1"/>
</radialGradient>
<radialGradient id="paint18_radial_910_215377" cx="0" cy="0" r="1" gradientUnits="userSpaceOnUse" gradientTransform="translate(123.122 112.922) rotate(129.63) scale(5.56106 5.56106)">
<stop stop-color="white"/>
<stop offset="1"/>
</radialGradient>
<radialGradient id="paint19_radial_910_215377" cx="0" cy="0" r="1" gradientUnits="userSpaceOnUse" gradientTransform="translate(115.976 102.009) rotate(129.63) scale(5.56104)">
<stop stop-color="white"/>
<stop offset="1"/>
</radialGradient>
<radialGradient id="paint20_radial_910_215377" cx="0" cy="0" r="1" gradientUnits="userSpaceOnUse" gradientTransform="translate(75.221 111.119) rotate(129.622) scale(5.56042 5.56041)">
<stop stop-color="white"/>
<stop offset="1"/>
</radialGradient>
<radialGradient id="paint21_radial_910_215377" cx="0" cy="0" r="1" gradientUnits="userSpaceOnUse" gradientTransform="translate(39.0608 63.3624) rotate(129.622) scale(5.56042 5.56041)">
<stop stop-color="white"/>
<stop offset="1"/>
</radialGradient>
<radialGradient id="paint22_radial_910_215377" cx="0" cy="0" r="1" gradientUnits="userSpaceOnUse" gradientTransform="translate(32.296 81.3076) rotate(129.63) scale(5.56105 5.56104)">
<stop stop-color="white"/>
<stop offset="1"/>
</radialGradient>
<radialGradient id="paint23_radial_910_215377" cx="0" cy="0" r="1" gradientUnits="userSpaceOnUse" gradientTransform="translate(100.994 38.4709) rotate(129.622) scale(5.5604)">
<stop stop-color="white"/>
<stop offset="1"/>
</radialGradient>
<radialGradient id="paint24_radial_910_215377" cx="0" cy="0" r="1" gradientUnits="userSpaceOnUse" gradientTransform="translate(115.308 44.7) rotate(129.622) scale(5.56041 5.56041)">
<stop stop-color="white"/>
<stop offset="1"/>
</radialGradient>
<radialGradient id="paint25_radial_910_215377" cx="0" cy="0" r="1" gradientUnits="userSpaceOnUse" gradientTransform="translate(63.8201 121.302) rotate(129.622) scale(5.56041 5.56041)">
<stop stop-color="white"/>
<stop offset="1"/>
</radialGradient>
<radialGradient id="paint26_radial_910_215377" cx="0" cy="0" r="1" gradientUnits="userSpaceOnUse" gradientTransform="translate(67.9329 147.251) rotate(129.622) scale(5.56041)">
<stop stop-color="white"/>
<stop offset="1"/>
</radialGradient>
<radialGradient id="paint27_radial_910_215377" cx="0" cy="0" r="1" gradientUnits="userSpaceOnUse" gradientTransform="translate(66.5498 177.377) rotate(129.63) scale(5.56106 5.56106)">
<stop stop-color="white"/>
<stop offset="1"/>
</radialGradient>
<radialGradient id="paint28_radial_910_215377" cx="0" cy="0" r="1" gradientUnits="userSpaceOnUse" gradientTransform="translate(170.487 157.488) rotate(129.63) scale(5.56104)">
<stop stop-color="white"/>
<stop offset="1"/>
</radialGradient>
<radialGradient id="paint29_radial_910_215377" cx="0" cy="0" r="1" gradientUnits="userSpaceOnUse" gradientTransform="translate(164.258 129.914) rotate(129.622) scale(5.56042 5.56041)">
<stop stop-color="white"/>
<stop offset="1"/>
</radialGradient>
<radialGradient id="paint30_radial_910_215377" cx="0" cy="0" r="1" gradientUnits="userSpaceOnUse" gradientTransform="translate(107.422 108.337) scale(107.432 107.432)">
<stop stop-color="#FF00FF"/>
<stop offset="1"/>
</radialGradient>
<linearGradient id="paint31_linear_910_215377" x1="100.627" y1="105.928" x2="95.7153" y2="93.0557" gradientUnits="userSpaceOnUse">
<stop stop-color="#FFD336"/>
<stop offset="1" stop-color="#2E2900"/>
</linearGradient>
<linearGradient id="paint32_linear_910_215377" x1="104.222" y1="105.21" x2="99.1513" y2="91.9223" gradientUnits="userSpaceOnUse">
<stop stop-color="#2E2900"/>
<stop offset="1" stop-color="#FFD336"/>
</linearGradient>
<linearGradient id="paint33_linear_910_215377" x1="106.435" y1="106.557" x2="99.6248" y2="88.7106" gradientUnits="userSpaceOnUse">
<stop stop-color="#B50060"/>
<stop offset="1" stop-color="white"/>
</linearGradient>
<linearGradient id="paint34_linear_910_215377" x1="103.868" y1="96.0476" x2="102.998" y2="83.4636" gradientUnits="userSpaceOnUse">
<stop offset="0.641"/>
<stop offset="1" stop-color="#FFFF00"/>
</linearGradient>
<linearGradient id="paint35_linear_910_215377" x1="93.884" y1="135.907" x2="93.884" y2="-25.7856" gradientUnits="userSpaceOnUse">
<stop stop-color="white"/>
<stop offset="1" stop-color="#B50060"/>
</linearGradient>
<linearGradient id="paint36_linear_910_215377" x1="123.61" y1="22.0263" x2="96.3305" y2="99.9611" gradientUnits="userSpaceOnUse">
<stop stop-color="#FF516F"/>
<stop offset="1" stop-color="#E01342"/>
</linearGradient>
<linearGradient id="paint37_linear_910_215377" x1="78.0059" y1="56.4664" x2="93.2615" y2="42.7591" gradientUnits="userSpaceOnUse">
<stop stop-color="#ED8600"/>
<stop offset="1" stop-color="white"/>
</linearGradient>
<linearGradient id="paint38_linear_910_215377" x1="57.2692" y1="37.1662" x2="113.323" y2="73.0251" gradientUnits="userSpaceOnUse">
<stop offset="0.255" stop-color="white"/>
<stop offset="1"/>
</linearGradient>
<linearGradient id="paint39_linear_910_215377" x1="45.4808" y1="28.5237" x2="115.653" y2="73.4142" gradientUnits="userSpaceOnUse">
<stop offset="0.28" stop-color="white"/>
<stop offset="1"/>
</linearGradient>
<linearGradient id="paint40_linear_910_215377" x1="184.567" y1="59.423" x2="61.633" y2="86.4337" gradientUnits="userSpaceOnUse">
<stop offset="0.662"/>
<stop offset="1" stop-color="white"/>
</linearGradient>
<linearGradient id="paint41_linear_910_215377" x1="182.539" y1="66.573" x2="70.8079" y2="91.1222" gradientUnits="userSpaceOnUse">
<stop offset="0.767"/>
<stop offset="1" stop-color="white"/>
</linearGradient>
<linearGradient id="paint42_linear_910_215377" x1="171.607" y1="28.5692" x2="125.936" y2="97.3604" gradientUnits="userSpaceOnUse">
<stop stop-color="#FF516F"/>
<stop offset="1" stop-color="#E01342"/>
</linearGradient>
<linearGradient id="paint43_linear_910_215377" x1="118.913" y1="50.692" x2="137.08" y2="41.1739" gradientUnits="userSpaceOnUse">
<stop stop-color="#ED8600"/>
<stop offset="1" stop-color="white"/>
</linearGradient>
<linearGradient id="paint44_linear_910_215377" x1="103.582" y1="26.8698" x2="149.052" y2="75.4549" gradientUnits="userSpaceOnUse">
<stop offset="0.255" stop-color="white"/>
<stop offset="1"/>
</linearGradient>
<linearGradient id="paint45_linear_910_215377" x1="94.2911" y1="15.5872" x2="151.212" y2="76.4074" gradientUnits="userSpaceOnUse">
<stop offset="0.28" stop-color="white"/>
<stop offset="1"/>
</linearGradient>
<linearGradient id="paint46_linear_910_215377" x1="221.449" y1="79.8578" x2="95.6501" y2="75.6912" gradientUnits="userSpaceOnUse">
<stop offset="0.662"/>
<stop offset="1" stop-color="white"/>
</linearGradient>
<linearGradient id="paint47_linear_910_215377" x1="217.721" y1="86.2858" x2="103.385" y2="82.4997" gradientUnits="userSpaceOnUse">
<stop offset="0.767"/>
<stop offset="1" stop-color="white"/>
</linearGradient>
</defs>
</svg>
