<svg width="24" height="24" viewBox="0 0 24 24" fill="none" xmlns="http://www.w3.org/2000/svg">
<g clip-path="url(#clip0_557_24393)">
<path d="M19.7344 7.9502V13.4064C19.7344 15.6846 15.7546 16.922 12 16.922C8.24542 16.922 4.26562 15.6846 4.26562 13.4064V7.9502C4.26562 7.57043 4.57489 7.24707 4.96875 7.24707H19.0312C19.4251 7.24707 19.7344 7.57043 19.7344 7.9502Z" fill="#444444"/>
<path d="M19.7344 7.9502V13.4064C19.7344 15.6846 15.7546 16.922 12 16.922V7.24707H19.0312C19.4251 7.24707 19.7344 7.57043 19.7344 7.9502Z" fill="#292929"/>
<path d="M23.9999 6.375C23.9999 6.67035 23.8171 6.9375 23.5498 7.03583L12.2529 11.2546C12.1687 11.2828 12.0843 11.2969 11.9999 11.2969C11.9155 11.2969 11.8311 11.2828 11.7468 11.2546L0.449951 7.03583V5.71399L11.7468 1.49524C11.8311 1.46722 11.9155 1.45312 11.9999 1.45312C12.0843 1.45312 12.1687 1.46722 12.2529 1.49524L23.5498 5.71399C23.8171 5.8125 23.9999 6.07965 23.9999 6.375Z" fill="#6E6E6E"/>
<path d="M24 6.375C24 6.67035 23.8173 6.9375 23.5499 7.03583L12.2531 11.2546C12.1688 11.2828 12.0844 11.2969 12 11.2969V1.45312C12.0844 1.45312 12.1688 1.46722 12.2531 1.49524L23.5499 5.71399C23.8173 5.8125 24 6.07965 24 6.375Z" fill="#5A5A5A"/>
<path d="M12.7031 6.375C12.7031 6.76868 12.3939 7.07812 12 7.07812H1.40625V17.5124L2.7702 21.6187C2.89691 21.9842 2.69989 22.3922 2.33441 22.5046C1.95465 22.6313 1.56097 22.4343 1.44855 22.0686L1.40625 21.9423C1.35004 22.2797 1.05469 22.5469 0.703125 22.5469C0.309265 22.5469 0 22.2374 0 21.8438V6.375C0 5.98114 0.309265 5.67188 0.703125 5.67188H12C12.3939 5.67188 12.7031 5.98114 12.7031 6.375Z" fill="#FDBF00"/>
</g>
<defs>
<clipPath id="clip0_557_24393">
<rect width="24" height="24" fill="white"/>
</clipPath>
</defs>
</svg>
