<svg width="135" height="155" viewBox="0 0 135 155" fill="none" xmlns="http://www.w3.org/2000/svg">
<path d="M0.925 154.875C0.625 154.875 0.35 154.65 0.325 154.325C0.3 154 0.55 153.7 0.875 153.675C1.4 153.625 1.9 153.575 2.4 153.475C2.725 153.425 3.025 153.625 3.1 153.95C3.15 154.275 2.95 154.575 2.6 154.65C2.05 154.75 1.525 154.825 0.975 154.875C0.975 154.875 0.95 154.875 0.925 154.875Z" fill="#010101"/>
<path d="M5.575 153.875C5.325 153.875 5.1 153.725 5 153.475C4.9 153.15 5.075 152.825 5.375 152.725C6.325 152.4 7.275 152 8.2 151.55C8.5 151.4 8.85 151.525 9 151.825C9.15 152.125 9.025 152.475 8.725 152.625C7.75 153.125 6.75 153.525 5.75 153.875C5.7 153.875 5.625 153.875 5.575 153.875ZM11.2 151.075C11 151.075 10.825 150.975 10.7 150.8C10.525 150.525 10.6 150.15 10.875 149.975C11.7 149.425 12.55 148.8 13.325 148.125C13.575 147.925 13.95 147.95 14.175 148.2C14.4 148.45 14.35 148.825 14.1 149.05C13.275 149.75 12.4 150.4 11.525 151C11.425 151.05 11.325 151.075 11.2 151.075ZM16 147C15.85 147 15.7 146.95 15.575 146.825C15.325 146.6 15.325 146.225 15.55 145.975C15.95 145.55 16.325 145.125 16.7 144.675C17 144.325 17.275 143.975 17.55 143.625C17.75 143.35 18.125 143.325 18.4 143.525C18.65 143.725 18.7 144.1 18.5 144.375C18.225 144.75 17.925 145.1 17.625 145.475C17.225 145.925 16.825 146.375 16.425 146.825C16.325 146.95 16.175 147 16 147ZM19.875 142.05C19.775 142.05 19.65 142.025 19.55 141.95C19.275 141.775 19.2 141.4 19.375 141.125C19.925 140.275 20.45 139.375 20.975 138.45C21.125 138.15 21.5 138.05 21.8 138.225C22.1 138.375 22.2 138.75 22.025 139.05C21.5 140 20.95 140.925 20.375 141.8C20.275 141.95 20.075 142.05 19.875 142.05ZM23.375 136.9H22.775C22.45 136.9 22.175 136.625 22.2 136.275C22.2 136.125 22.25 136 22.35 135.9C22.35 135.825 22.375 135.75 22.4 135.65C22.85 134.7 23.25 133.75 23.65 132.8C23.775 132.5 24.125 132.35 24.425 132.475C24.725 132.6 24.875 132.95 24.75 133.25C24.425 134.075 24.05 134.875 23.7 135.675H23.8C24.475 135.65 25.175 135.6 25.85 135.5C26.175 135.45 26.475 135.675 26.525 136C26.575 136.325 26.35 136.625 26.025 136.675C25.3 136.775 24.55 136.85 23.825 136.875L23.375 136.9ZM19.675 136.5C19.625 136.5 19.6 136.5 19.55 136.475C18.5 136.25 17.45 135.925 16.45 135.5C16.15 135.375 16 135.025 16.125 134.725C16.25 134.425 16.6 134.275 16.9 134.4C17.85 134.775 18.825 135.1 19.8 135.3C20.125 135.375 20.325 135.7 20.25 136.025C20.2 136.3 19.95 136.5 19.675 136.5ZM29 136.025C28.75 136.025 28.5 135.85 28.425 135.6C28.325 135.275 28.5 134.95 28.825 134.85C29.775 134.55 30.75 134.175 31.675 133.725C31.975 133.575 32.325 133.725 32.475 134.025C32.625 134.325 32.475 134.675 32.2 134.825C31.2 135.3 30.2 135.675 29.175 136C29.125 136 29.075 136.025 29 136.025ZM13.85 134.125C13.75 134.125 13.625 134.1 13.525 134.025C12.6 133.45 11.725 132.8 10.925 132.075C10.675 131.85 10.65 131.475 10.875 131.225C11.1 130.975 11.475 130.95 11.725 131.175C12.475 131.85 13.3 132.45 14.175 133C14.45 133.175 14.55 133.55 14.375 133.825C14.25 134.025 14.05 134.125 13.85 134.125ZM34.7 133.35C34.5 133.35 34.3 133.25 34.2 133.075C34.025 132.8 34.1 132.425 34.4 132.25C34.95 131.9 35.475 131.55 36 131.15C36.3 130.925 36.625 130.7 36.925 130.45C37.175 130.25 37.55 130.3 37.775 130.55C37.975 130.8 37.95 131.175 37.675 131.4C37.375 131.65 37.05 131.9 36.725 132.125C36.175 132.525 35.625 132.9 35.05 133.275C34.925 133.325 34.825 133.35 34.7 133.35ZM25.35 130.7C25.275 130.7 25.2 130.7 25.15 130.675C24.85 130.55 24.675 130.225 24.8 129.9C25.025 129.275 25.25 128.65 25.45 128.025C25.575 127.675 25.7 127.3 25.825 126.925C25.925 126.6 26.275 126.45 26.575 126.55C26.9 126.65 27.05 127 26.95 127.3C26.825 127.675 26.7 128.025 26.575 128.4C26.35 129.025 26.125 129.675 25.9 130.3C25.825 130.55 25.575 130.7 25.35 130.7ZM9.175 129.95C9 129.95 8.825 129.875 8.7 129.725C8.25 129.175 7.85 128.575 7.475 127.95C7.275 127.625 7.1 127.3 6.925 126.975C6.775 126.675 6.9 126.325 7.175 126.175C7.475 126.025 7.825 126.15 7.975 126.425C8.125 126.725 8.3 127.025 8.475 127.325C8.825 127.9 9.2 128.45 9.6 128.975C9.8 129.225 9.75 129.625 9.5 129.825C9.425 129.9 9.3 129.95 9.175 129.95ZM39.65 129.45C39.5 129.45 39.325 129.4 39.225 129.275C39 129.025 39 128.65 39.25 128.425C39.975 127.75 40.7 126.975 41.4 126.2C41.625 125.95 42 125.925 42.25 126.15C42.5 126.375 42.525 126.75 42.3 127C41.575 127.825 40.825 128.6 40.075 129.3C39.95 129.4 39.8 129.45 39.65 129.45ZM43.875 124.775C43.75 124.775 43.6 124.725 43.5 124.65C43.25 124.45 43.2 124.075 43.4 123.8C44 123.05 44.6 122.275 45.175 121.475L45.3 121.3C45.5 121.025 45.875 120.975 46.15 121.175C46.425 121.375 46.475 121.75 46.275 122.025L46.15 122.2C45.575 123 44.95 123.775 44.35 124.55C44.225 124.7 44.05 124.775 43.875 124.775ZM27.275 124.7C27.225 124.7 27.175 124.7 27.125 124.675C26.8 124.6 26.625 124.275 26.7 123.95C26.975 122.875 27.2 121.9 27.375 120.925C27.425 120.6 27.75 120.375 28.075 120.45C28.4 120.5 28.625 120.825 28.55 121.15C28.375 122.15 28.15 123.175 27.85 124.275C27.775 124.525 27.55 124.7 27.275 124.7ZM6.275 124.375C6.025 124.375 5.775 124.2 5.7 123.95C5.375 122.925 5.15 121.85 5.025 120.775C5 120.45 5.225 120.15 5.55 120.1C5.875 120.075 6.175 120.3 6.225 120.625C6.35 121.65 6.575 122.65 6.85 123.6C6.95 123.925 6.775 124.25 6.45 124.35C6.4 124.375 6.35 124.375 6.275 124.375ZM47.625 119.7C47.5 119.7 47.4 119.675 47.3 119.6C47.025 119.425 46.95 119.05 47.15 118.775C47.725 117.9 48.3 117.05 48.875 116.15C49.05 115.875 49.425 115.775 49.7 115.975C49.975 116.175 50.075 116.525 49.9 116.8C49.325 117.7 48.75 118.575 48.15 119.45C48 119.6 47.825 119.7 47.625 119.7ZM28.325 118.475H28.3C27.975 118.45 27.725 118.175 27.725 117.85C27.75 117.5 27.75 117.125 27.75 116.775C27.75 116.1 27.725 115.425 27.65 114.8C27.625 114.475 27.85 114.175 28.175 114.15C28.5 114.125 28.8 114.35 28.825 114.675C28.9 115.35 28.925 116.05 28.925 116.775C28.925 117.15 28.925 117.525 28.9 117.925C28.9 118.225 28.65 118.475 28.325 118.475ZM5.5 118.15H5.475C5.15 118.125 4.9 117.85 4.9 117.525C4.95 116.425 5.1 115.35 5.325 114.3C5.4 113.975 5.725 113.775 6.05 113.85C6.375 113.925 6.575 114.25 6.5 114.575C6.275 115.55 6.15 116.575 6.1 117.6C6.1 117.9 5.825 118.15 5.5 118.15ZM50.975 114.375C50.875 114.375 50.775 114.35 50.675 114.3C50.4 114.125 50.3 113.775 50.45 113.475C50.975 112.575 51.475 111.65 51.975 110.75C52.125 110.45 52.5 110.35 52.775 110.5C53.075 110.65 53.175 111.025 53.025 111.3C52.525 112.225 52 113.15 51.475 114.075C51.4 114.25 51.2 114.375 50.975 114.375ZM27.625 112.25C27.375 112.25 27.125 112.1 27.05 111.825C26.75 110.875 26.325 109.95 25.8 109.1C25.625 108.825 25.725 108.45 26 108.275C26.275 108.1 26.65 108.2 26.825 108.475C27.4 109.425 27.85 110.425 28.2 111.475C28.3 111.8 28.125 112.125 27.825 112.225C27.725 112.25 27.675 112.25 27.625 112.25ZM6.85 112.025C6.775 112.025 6.7 112 6.625 111.975C6.325 111.85 6.175 111.5 6.3 111.2C6.575 110.55 6.875 109.925 7.225 109.325C7.425 108.975 7.625 108.65 7.85 108.325C8.025 108.05 8.4 107.975 8.675 108.15C8.95 108.325 9.025 108.7 8.85 108.975C8.65 109.275 8.45 109.575 8.275 109.9C7.95 110.45 7.675 111.05 7.425 111.65C7.325 111.875 7.1 112.025 6.85 112.025ZM53.975 108.8C53.875 108.8 53.8 108.775 53.7 108.75C53.4 108.6 53.275 108.25 53.425 107.95C53.875 107.025 54.325 106.075 54.75 105.125C54.875 104.825 55.25 104.7 55.55 104.825C55.85 104.95 55.975 105.325 55.85 105.625C55.425 106.6 54.975 107.55 54.5 108.5C54.4 108.675 54.2 108.8 53.975 108.8ZM24.375 106.9C24.225 106.9 24.075 106.85 23.95 106.725C23.225 106 22.425 105.375 21.6 104.9C21.325 104.725 21.225 104.375 21.375 104.075C21.55 103.775 21.9 103.7 22.2 103.85C23.125 104.375 24 105.075 24.8 105.875C25.025 106.1 25.025 106.5 24.8 106.725C24.675 106.85 24.525 106.9 24.375 106.9ZM10.35 106.825C10.2 106.825 10.025 106.775 9.925 106.65C9.7 106.4 9.7 106.025 9.95 105.8C10.775 105 11.675 104.35 12.6 103.825C12.9 103.675 13.25 103.775 13.425 104.05C13.575 104.35 13.475 104.7 13.2 104.875C12.35 105.35 11.55 105.95 10.8 106.675C10.65 106.75 10.5 106.825 10.35 106.825ZM18.95 103.85C18.925 103.85 18.875 103.85 18.825 103.85C18.35 103.75 17.9 103.75 17.35 103.725C17.2 103.725 17.025 103.725 16.875 103.75C16.55 103.775 16.225 103.8 15.9 103.875C15.575 103.925 15.25 103.725 15.2 103.4C15.15 103.075 15.35 102.75 15.675 102.7C16.05 102.625 16.4 102.6 16.8 102.575C17 102.575 17.2 102.575 17.375 102.55C17.925 102.55 18.5 102.6 19.05 102.7C19.375 102.75 19.6 103.075 19.525 103.4C19.5 103.65 19.225 103.85 18.95 103.85ZM56.55 103.05C56.475 103.05 56.4 103.025 56.325 103C56.025 102.875 55.875 102.525 56 102.225C56.4 101.25 56.775 100.275 57.125 99.3003C57.25 99.0003 57.575 98.8253 57.9 98.9503C58.2 99.0753 58.375 99.4003 58.25 99.7253C57.875 100.725 57.5 101.7 57.1 102.675C57.025 102.925 56.8 103.05 56.55 103.05ZM58.75 97.1503C58.7 97.1503 58.625 97.1503 58.55 97.1253C58.225 97.0253 58.075 96.6753 58.175 96.3753C58.5 95.3753 58.8 94.3753 59.1 93.3753C59.2 93.0503 59.525 92.8753 59.85 92.9753C60.175 93.0753 60.35 93.4003 60.25 93.7253C59.95 94.7503 59.65 95.7503 59.3 96.7503C59.225 96.9753 59 97.1503 58.75 97.1503Z" fill="#010101"/>
<path d="M60.525 90.9757C60.475 90.9757 60.425 90.9757 60.375 90.9507C60.05 90.8757 59.85 90.5507 59.95 90.2257C60.075 89.7007 60.2 89.2007 60.325 88.6757C60.4 88.3507 60.725 88.1507 61.05 88.2257C61.375 88.3007 61.575 88.6257 61.5 88.9507C61.375 89.4757 61.25 90.0007 61.125 90.5257C61.05 90.8007 60.8 90.9757 60.525 90.9757Z" fill="#010101"/>
<path d="M59.65 93.1254L79.15 74.8004L66.55 69.5254L59.65 93.1254Z" fill="#46C4E2"/>
<path d="M59.65 93.7252C59.55 93.7252 59.425 93.7002 59.325 93.6252C59.1 93.4752 59 93.2002 59.075 92.9502L65.975 69.3502C66.025 69.1752 66.15 69.0502 66.3 68.9752C66.45 68.9002 66.625 68.9002 66.8 68.9752L79.4 74.2502C79.575 74.3252 79.725 74.5002 79.75 74.7002C79.775 74.9002 79.725 75.1002 79.575 75.2502L77.775 76.9252C77.525 77.1502 77.15 77.1502 76.925 76.9002C76.7 76.6502 76.7 76.2752 76.95 76.0502L78.075 75.0002L66.95 70.3252L60.85 91.1752L68.65 83.8502C68.9 83.6252 69.275 83.6252 69.5 83.8752C69.725 84.1252 69.725 84.5002 69.475 84.7252L60.075 93.5502C59.95 93.6752 59.8 93.7252 59.65 93.7252Z" fill="#010101"/>
<path d="M134.075 1.0002L131.75 12.8002L128.45 29.3752L116.65 88.7502C116.325 90.4252 114.55 91.2752 113.025 90.5502C103.825 86.0252 94.75 81.7252 85.875 77.7752C78.85 74.6002 71.925 71.6752 65.125 68.9252C61.2 67.3252 57.3 65.8502 53.425 64.4252C42.95 60.5002 32.8 57.2002 23.025 54.5752C21.95 54.2752 21.825 52.8502 22.825 52.3752L111.85 10.9252L133.75 0.750195C133.825 0.725195 133.875 0.725195 133.925 0.750195C133.95 0.750195 133.95 0.775195 133.95 0.775195C134.05 0.800195 134.1 0.900196 134.075 1.0002Z" fill="#97DAF4"/>
<path d="M133.325 4.72536C133.1 5.92536 132.85 7.12536 132.625 8.30036C132.325 9.80036 132.025 11.3004 131.725 12.8004C130.15 12.7754 128.45 12.3254 127.125 13.1754C125.925 14.0004 125.6 15.6004 125.25 17.0004C124.9 18.4004 124.175 20.0004 122.75 20.2754C121.7 20.4754 120.6 19.8754 119.55 20.0754C118.425 20.3004 117.65 21.3754 117.275 22.4754C116.9 23.5504 116.75 24.7504 116.225 25.7754C115.325 27.5504 113.2 28.6254 111.2 28.3004C109.375 28.0004 106.2 25.4504 107.775 23.6004C109.85 21.1754 112.35 19.0254 114.675 16.8504C119.4 12.4504 124.325 8.27536 129.425 4.32536C130.1 3.80036 130.775 3.30036 131.45 2.80036C131.8 2.55036 132.15 2.27536 132.5 2.02536C132.7 1.87536 132.9 1.65036 133.125 1.55036C133.525 1.37536 133.625 1.85036 133.675 2.15036C133.875 3.00036 133.5 3.87536 133.325 4.72536Z" fill="#68CDED"/>
<path d="M111.525 35.7003C110.525 35.7003 109.5 35.5003 108.625 35.1253C105.575 33.8253 103.8 30.9503 102.85 28.7503C102.725 28.4503 102.85 28.1003 103.175 27.9503C103.475 27.8253 103.825 27.9503 103.975 28.2753C104.825 30.2753 106.425 32.8753 109.1 34.0253C111.25 34.9503 114.425 34.5753 115.825 32.3753C116.275 31.6503 116.525 30.8253 116.775 29.9253C116.9 29.5003 117.025 29.0753 117.15 28.6753C117.775 26.9003 118.9 25.7003 120.225 25.4003C120.95 25.2253 121.65 25.3503 122.35 25.4503C123 25.5503 123.625 25.6503 124.175 25.4753C124.975 25.2003 125.575 24.3253 126 22.7253L126.075 22.4503C126.4 21.1753 126.775 19.7253 127.925 18.8503C128.625 18.3003 129.575 18.0503 130.625 18.1253C130.95 18.1503 131.2 18.4503 131.175 18.7753C131.15 19.1003 130.85 19.3503 130.525 19.3253C129.775 19.2753 129.125 19.4253 128.65 19.8003C127.825 20.4253 127.525 21.6003 127.25 22.7503L127.175 23.0253C126.825 24.3003 126.175 26.0503 124.575 26.6003C123.75 26.8753 122.95 26.7503 122.175 26.6253C121.575 26.5253 121.025 26.4503 120.5 26.5503C119.2 26.8503 118.525 28.4003 118.3 29.0503C118.175 29.4253 118.05 29.8253 117.925 30.2253C117.65 31.1503 117.375 32.1253 116.85 32.9753C115.675 34.8753 113.575 35.7003 111.525 35.7003Z" fill="#68CDED"/>
<path d="M128.45 29.375L116.65 88.75C116.325 90.425 114.55 91.275 113.025 90.55C103.825 86.025 94.75 81.725 85.875 77.775C88.425 77.85 91.075 76.6 92.325 74.325C93.4 72.425 93.55 70 95.05 68.4C96.525 66.775 98.9 66.4 101.075 66.3C103.275 66.2 105.55 66.25 107.475 65.2C110.35 63.65 111.475 60.15 112.15 56.975C112.85 53.8 113.5 50.3 115.925 48.15C117.625 46.625 120.05 45.95 121.4 44.125C123.475 41.35 122.275 37.275 123.725 34.15C124.675 32.125 126.625 30.8 128.375 29.4C128.4 29.4 128.425 29.375 128.45 29.375Z" fill="#68CDED"/>
<path d="M97.9 83.9001C97.825 83.9001 97.725 83.8751 97.65 83.8501C93.55 81.9251 89.5 80.0751 85.625 78.3501C78.85 75.3001 71.875 72.3251 64.9 69.5251C61.375 68.1001 57.675 66.6501 53.225 65.0251C42.575 61.0501 32.35 57.7251 22.875 55.2001C22.15 55.0001 21.625 54.4001 21.55 53.6501C21.475 52.9001 21.875 52.2001 22.575 51.8751L32.425 47.3001C32.725 47.1501 33.075 47.3001 33.225 47.6001C33.375 47.9001 33.225 48.2501 32.925 48.4001L23.075 52.9751C22.725 53.1501 22.725 53.4501 22.725 53.5501C22.725 53.6501 22.8 53.9501 23.15 54.0501C32.675 56.6001 42.925 59.9251 53.6 63.9251C58.05 65.5751 61.775 67.0001 65.3 68.4501C72.275 71.2501 79.275 74.2501 86.075 77.3001C89.95 79.0251 94 80.8751 98.125 82.8001C98.425 82.9501 98.55 83.3001 98.425 83.6001C98.35 83.7501 98.125 83.9001 97.9 83.9001Z" fill="#010101"/>
<path d="M124.95 47.5255C124.9 47.5255 124.875 47.5255 124.825 47.5255C124.5 47.4505 124.3 47.1505 124.35 46.8255L133.325 1.60047L104.975 14.8005C104.675 14.9505 104.325 14.8005 104.175 14.5005C104.025 14.2005 104.175 13.8505 104.475 13.7005L133.5 0.200472C133.775 0.125472 133.95 0.125472 134.125 0.175472C134.175 0.200472 134.225 0.225472 134.275 0.250472C134.425 0.325472 134.525 0.450472 134.6 0.600472C134.675 0.750472 134.7 1.05047 134.65 1.20047L125.55 47.0505C125.5 47.3255 125.25 47.5255 124.95 47.5255Z" fill="#010101"/>
<path d="M133.95 0.75L109.9 25.3L109.25 25.95L105.225 30.05L104.7 30.6L87.1 48.525L87.025 48.6L76.8 59.05L75.95 59.925L66.55 69.525L59.675 93.125L50.025 63.175L61.675 54.5L62.725 53.725L81.725 39.6L81.825 39.55L84.05 37.9L84.975 37.2L103.15 23.675L103.95 23.075L133.925 0.75H133.95Z" fill="#68CDED"/>
<path d="M59.675 93.7256C59.425 93.7256 59.175 93.5506 59.1 93.3006L56.625 85.5756C56.525 85.2506 56.7 84.9256 57 84.8256C57.325 84.7256 57.65 84.9006 57.75 85.2006L59.65 91.0756L66 69.3506C66.025 69.2506 66.075 69.1756 66.15 69.1006L128.325 5.65062L82.175 40.0006C82.15 40.0006 82.05 40.0756 82.05 40.0756L50.75 63.3756L52.3 68.1756C52.4 68.5006 52.225 68.8256 51.925 68.9256C51.6 69.0256 51.275 68.8506 51.175 68.5506L49.5 63.3506C49.425 63.1006 49.5 62.8506 49.7 62.6756L81.4 39.1006C81.425 39.1006 81.525 39.0256 81.525 39.0256L103.6 22.5756L133.55 0.25062C133.925 -0.0243798 134.55 0.30062 134.55 0.75062C134.55 0.90062 134.5 1.05062 134.375 1.17562L67.1 69.8506L60.25 93.3006C60.175 93.5506 59.95 93.7256 59.675 93.7256Z" fill="#010101"/>
<path d="M109.9 25.3005L109.25 25.9505L105.225 30.0505L104.725 30.6005L87.125 48.5255L87.05 48.6005L76.825 59.0505L75.975 59.9255L72.125 58.4755L62.15 54.6755L61.675 54.5005L49 49.7005L43.025 47.4505L41.025 46.6755C39.775 46.1755 39.175 44.7755 39.625 43.5505L47.175 23.6505L48.75 19.5505L53.65 6.57552C54.125 5.30052 55.5 4.70052 56.775 5.15052L70.525 10.3755L76.1 12.4755L103.95 23.0505L104.45 23.2255L108.775 24.8755L109.9 25.3005Z" fill="#FFCE3B"/>
<path d="M70.7 11.4755C70.725 12.8005 69.8 14.2005 68.475 14.3005C67.6 14.3755 66.725 13.8755 65.925 14.2255C65.15 14.5505 64.85 15.5005 64.65 16.3005C64.475 17.1255 64.225 18.0505 63.475 18.4505C63.175 18.6005 62.875 18.6505 62.55 18.6005C62.05 18.5505 61.55 18.3255 61.1 18.1005C60.375 17.7005 59.6 17.2005 58.775 17.3005C57.95 17.4005 57.275 18.0505 56.8 18.7505C56.325 19.4505 55.95 20.2255 55.325 20.7755C54.375 21.6505 52.925 21.8255 51.675 21.4755C50.55 21.1505 49.575 20.4255 48.775 19.5505L53.675 6.57552C54.15 5.30052 55.525 4.70052 56.8 5.15052L70.55 10.3755C70.65 10.7255 70.7 11.1005 70.7 11.4755Z" fill="#FAB815"/>
<path d="M53.725 27.276C53.025 27.276 52.325 27.176 51.7 27.001C49.65 26.401 48 25.126 46.775 24.076C46.525 23.851 46.5 23.476 46.7 23.226C46.925 22.976 47.3 22.951 47.55 23.151C48.675 24.101 50.2 25.301 52.025 25.826C54.025 26.401 56.775 25.976 57.875 24.001C58.05 23.701 58.175 23.376 58.325 23.026C58.7 22.126 59.1 21.101 60.125 20.651C61.575 20.001 63.125 20.951 63.9 21.426C64.325 21.676 64.675 21.851 64.975 21.951C65.625 22.201 66.125 22.201 66.475 22.001C67.2 21.576 67.325 20.426 67.425 19.376C67.625 17.401 68.475 16.176 69.725 16.026C70.35 15.951 70.9 16.176 71.375 16.376C71.55 16.451 71.7 16.526 71.875 16.576C73.125 16.976 74.65 16.426 75.325 15.326C75.775 14.576 75.85 13.551 75.525 12.676C75.4 12.376 75.575 12.026 75.875 11.901C76.175 11.801 76.525 11.951 76.65 12.251C77.125 13.501 77 14.876 76.35 15.951C75.375 17.551 73.275 18.301 71.5 17.726C71.3 17.676 71.1 17.576 70.9 17.501C70.525 17.351 70.15 17.201 69.85 17.226C69.075 17.326 68.7 18.476 68.625 19.426C68.5 20.751 68.35 22.326 67.075 23.051C66.4 23.451 65.55 23.451 64.575 23.076C64.2 22.951 63.775 22.751 63.275 22.426C62.35 21.851 61.375 21.376 60.625 21.726C60.05 22.001 59.75 22.701 59.45 23.476C59.3 23.851 59.15 24.226 58.95 24.576C57.9 26.476 55.775 27.276 53.725 27.276Z" fill="#FAB815"/>
<path d="M109.9 25.301L109.25 25.951L105.225 30.051L104.725 30.601L87.125 48.526L87.05 48.601L76.825 59.051L75.975 59.926L62.15 54.676L61.675 54.501L49 49.701C53.5 50.526 58.875 51.726 62.575 48.576C63.925 47.426 65.05 45.926 66.675 45.276C70.375 43.801 74.65 47.276 78.475 46.001C80.55 45.301 81.875 43.401 82.925 41.426C83.15 41.001 83.375 40.601 83.575 40.176C84.05 39.276 84.55 38.326 85.15 37.501C86.125 36.126 87.35 35.001 88.95 34.626C90.875 34.201 93.025 34.951 94.75 34.076C97.175 32.876 97.475 29.251 99.8 27.851C101.275 26.951 103.175 27.226 104.925 27.126C106.5 27.051 108.325 26.301 108.775 24.876L109.9 25.301Z" fill="#FAB815"/>
<path d="M87.1 48.5508C84.5 45.7258 82.55 42.4758 81.375 38.8008C83.975 41.6258 85.9 44.8758 87.1 48.5508Z" fill="#EEA820"/>
<path d="M71.825 35.0508C61.525 39.2508 50.925 42.7008 40.125 45.3508C50.425 41.1258 61.025 37.7008 71.825 35.0508Z" fill="#EEA820"/>
<path d="M55.225 5.52539C60.6 14.1504 67.9 26.9754 73.025 35.9254C74.125 38.5004 76.95 39.9254 79.625 38.8254C82.4 37.8754 85.175 36.9004 87.975 36.0004C93.55 34.1504 99.125 32.3004 104.75 30.6004C99.3 32.7754 93.8 34.8254 88.275 36.8754C85.525 37.9254 82.75 38.8754 80 39.8754C77 41.2254 73.25 39.5004 72 36.5254C66.25 26.2754 60.55 16.0004 55.225 5.52539Z" fill="#EEA820"/>
<path d="M75.975 60.5255C75.9 60.5255 75.825 60.5255 75.775 60.4755L71.925 59.0255C71.625 58.9005 71.45 58.5505 71.575 58.2505C71.7 57.9505 72.05 57.7755 72.35 57.9005L75.825 59.2255L86.625 48.1755C86.65 48.1505 86.75 48.0755 86.75 48.0505L108.85 25.5005L103.75 23.5755L56.55 5.70051C55.6 5.35051 54.575 5.8255 54.2 6.7755L40.2 43.7505C39.85 44.6755 40.325 45.7505 41.25 46.1255L43.25 46.9005C43.55 47.0255 43.725 47.3755 43.6 47.6755C43.475 47.9755 43.125 48.1505 42.825 48.0255L40.825 47.2505C39.275 46.6505 38.5 44.9005 39.075 43.3505L53.1 6.37551C53.7 4.80051 55.4 4.0255 56.975 4.6005L110.125 24.7755C110.3 24.8505 110.45 25.0005 110.5 25.2005C110.55 25.4005 110.475 25.6005 110.35 25.7505L105.175 31.0505L87.55 49.0005C87.525 49.0255 87.425 49.1005 87.425 49.1005L76.4 60.3755C76.275 60.4755 76.125 60.5255 75.975 60.5255Z" fill="#010101"/>
<path d="M109.9 65.5256C108.8 65.5256 107.8 66.0506 107.1 66.9006C106.375 67.7506 105.925 68.9256 105.925 70.2006C105.925 67.6256 104.15 65.5256 101.975 65.5256C103.075 65.5256 104.05 65.0006 104.775 64.1506C105.475 63.3006 105.925 62.1256 105.925 60.8506C105.925 62.1506 106.375 63.3006 107.1 64.1506C107.825 65.0006 108.825 65.5256 109.9 65.5256Z" fill="white"/>
<path d="M70.8 45.3508C69.7 45.3508 68.7 45.8758 68 46.7258C67.275 47.5758 66.825 48.7508 66.825 50.0258C66.825 47.4508 65.05 45.3508 62.875 45.3508C63.975 45.3508 64.95 44.8258 65.675 43.9758C66.375 43.1258 66.825 41.9508 66.825 40.6758C66.825 41.9758 67.275 43.1258 68 43.9758C68.7 44.8008 69.7 45.3508 70.8 45.3508Z" fill="white"/>
<path d="M112.5 58.1504C111.95 58.1504 111.45 58.4254 111.075 58.8504C110.7 59.2754 110.475 59.8754 110.475 60.5254C110.475 59.2004 109.575 58.1504 108.475 58.1504C109.025 58.1504 109.525 57.8754 109.9 57.4504C110.25 57.0254 110.475 56.4254 110.475 55.7754C110.475 56.4254 110.7 57.0254 111.075 57.4504C111.45 57.9004 111.95 58.1504 112.5 58.1504Z" fill="white"/>
<path d="M90.175 22.1752C89.775 23.2502 87 23.2252 83.95 22.1252C80.9 21.0002 78.75 19.2252 79.15 18.1502C79.55 17.0752 82.325 17.1002 85.375 18.2002C88.425 19.3252 90.575 21.1002 90.175 22.1752Z" fill="white"/>
<path d="M95.05 23.9504C94.875 24.4254 93.975 24.5254 93.025 24.1754C92.075 23.8254 91.45 23.1754 91.625 22.7004C91.8 22.2254 92.7 22.1254 93.65 22.4754C94.6 22.8254 95.225 23.5004 95.05 23.9504Z" fill="white"/>
<path d="M85.425 57.8012C86.3 58.5512 84.825 61.6262 82.15 64.6512C79.475 67.6762 76.625 69.5262 75.75 68.7512C74.875 68.0012 76.35 64.9262 79.025 61.9012C81.7 58.8762 84.55 57.0512 85.425 57.8012Z" fill="white"/>
<path d="M89.7 52.9507C90.075 53.2757 89.7 54.3007 88.875 55.2507C88.05 56.2007 87.075 56.6757 86.7 56.3507C86.325 56.0257 86.7 55.0007 87.525 54.0507C88.35 53.1007 89.325 52.6007 89.7 52.9507Z" fill="white"/>
</svg>
