<svg width="51" height="32" viewBox="0 0 51 32" fill="none" xmlns="http://www.w3.org/2000/svg">
<path opacity="0.07" d="M46.7752 0.183594H4.35316C2.09949 0.183594 0.376099 1.90699 0.376099 4.16066V28.023C0.376099 30.2767 2.23206 32.0001 4.35316 32.0001H46.7752C49.0289 32.0001 50.7522 30.2767 50.7522 28.023V4.16066C50.7522 1.90699 48.8963 0.183594 46.7752 0.183594Z" fill="black"/>
<path d="M46.7752 1.50977C48.2334 1.50977 49.4266 2.70288 49.4266 4.16114V28.0235C49.4266 29.4818 48.2334 30.6749 46.7752 30.6749H4.35316C2.8949 30.6749 1.70178 29.4818 1.70178 28.0235V4.16114C1.70178 2.70288 2.8949 1.50977 4.35316 1.50977H46.7752Z" fill="white"/>
<path d="M37.893 13.573H37.4953C36.9651 14.8987 36.5674 15.5615 36.1697 17.5501H38.6885C38.2908 15.5615 38.2908 14.6336 37.893 13.573ZM41.7375 21.3946H39.4839C39.3513 21.3946 39.3513 21.3946 39.2187 21.262L38.9536 20.0689L38.821 19.8037H35.6394C35.5068 19.8037 35.3742 19.8037 35.3742 20.0689L34.9765 21.262C34.9765 21.3946 34.844 21.3946 34.844 21.3946H32.06L32.3252 20.7317L36.1697 11.717C36.1697 11.0542 36.5674 10.7891 37.2302 10.7891H39.2187C39.3513 10.7891 39.4839 10.7891 39.4839 11.0542L41.3398 19.6712C41.4724 20.2014 41.605 20.5992 41.605 21.1294C41.7375 21.262 41.7375 21.262 41.7375 21.3946ZM23.9733 20.9969L24.5036 18.6106C24.6362 18.6106 24.7687 18.7432 24.7687 18.7432C25.6967 19.1409 26.6247 19.406 27.5527 19.2735C27.8178 19.2735 28.2155 19.1409 28.4807 19.0083C29.1435 18.7432 29.1435 18.0803 28.6132 17.5501C28.3481 17.2849 27.9504 17.1524 27.5527 16.8872C27.0224 16.6221 26.4921 16.357 26.0944 15.9592C24.5036 14.6336 25.0339 12.7776 25.9619 11.8496C26.7573 11.3193 27.155 10.7891 28.2155 10.7891C29.8064 10.7891 31.5297 10.7891 32.3252 11.0542H32.4577C32.3252 11.8496 32.1926 12.5125 31.9275 13.3079C31.2646 13.0427 30.6018 12.7776 29.9389 12.7776C29.5412 12.7776 29.1435 12.7776 28.7458 12.9102C28.4807 12.9102 28.3481 13.0427 28.2155 13.1753C27.9504 13.4404 27.9504 13.8381 28.2155 14.1033L28.8784 14.6336C29.4086 14.8987 29.9389 15.1638 30.3366 15.429C30.9995 15.8267 31.6623 16.4895 31.7949 17.2849C32.06 18.4781 31.6623 19.5386 30.6018 20.334C29.9389 20.8643 29.6738 21.1294 28.7458 21.1294C26.8898 21.1294 25.4316 21.262 24.2385 20.8643C24.1059 21.1294 24.1059 21.1294 23.9733 20.9969ZM19.3334 21.3946C19.466 20.4666 19.466 20.4666 19.5986 20.0689C20.2614 17.1524 20.9242 14.1033 21.4545 11.1868C21.5871 10.9216 21.5871 10.7891 21.8522 10.7891H24.2385C23.9733 12.3799 23.7082 13.573 23.3105 15.0313C22.9128 17.0198 22.5151 19.0083 21.9848 20.9969C21.9848 21.262 21.8522 21.262 21.5871 21.262M7.00452 11.0542C7.00452 10.9216 7.26965 10.7891 7.40222 10.7891H11.9096C12.5724 10.7891 13.1027 11.1868 13.2353 11.8496L14.4284 17.6826C14.4284 17.8152 14.4284 17.8152 14.5609 17.9478C14.5609 17.8152 14.6935 17.8152 14.6935 17.8152L17.4775 11.0542C17.3449 10.9216 17.4775 10.7891 17.61 10.7891H20.394C20.394 10.9216 20.394 10.9216 20.2614 11.0542L16.1518 20.7317C16.0192 20.9969 16.0192 21.1294 15.8866 21.262C15.7541 21.3946 15.4889 21.262 15.2238 21.262H13.2353C13.1027 21.262 12.9701 21.262 12.9701 20.9969L10.849 12.7776C10.5839 12.5125 10.1862 12.1148 9.65589 11.9822C8.86048 11.5845 7.40222 11.3193 7.13709 11.3193L7.00452 11.0542Z" fill="#142688"/>
</svg>
