<svg width="376" height="387" viewBox="0 0 376 387" fill="none" xmlns="http://www.w3.org/2000/svg">
<path d="M210.813 344.398C210.813 344.398 265.226 231.926 270.479 215.264C275.633 198.601 278.606 194.138 285.247 194.436C291.788 194.733 298.924 198.8 295.852 202.073C295.852 202.073 305.168 199.097 307.051 202.965C309.034 206.734 304.871 212.487 304.871 212.487C304.871 212.487 309.727 216.255 308.637 221.611C307.646 226.967 304.97 225.975 304.97 225.975C304.97 225.975 307.943 233.315 300.51 238.075C296.05 240.852 287.328 233.91 287.328 233.91L223.995 348.266L210.813 344.398Z" fill="#FFA585"/>
<path d="M284.751 263.069C282.372 279.037 280.291 294.014 278.606 306.907C276.921 319.701 275.434 330.413 274.443 337.951C273.551 345.489 273.056 349.753 273.056 349.753C272.857 351.142 273.848 352.332 275.137 352.53C276.425 352.63 277.615 351.836 277.912 350.547C277.912 350.547 278.705 346.282 280.093 338.843C281.48 331.405 283.462 320.792 285.841 307.998C288.121 295.303 290.797 280.426 293.473 264.358C295.257 254.044 296.744 245.216 298.528 234.207C295.257 233.215 292.581 230.835 289.806 228.852C287.922 241.15 286.337 251.465 284.751 263.069Z" fill="#E0A326"/>
<path d="M318.847 74.6247C317.558 74.5255 316.468 75.4182 316.17 76.6083C316.17 76.6083 315.972 77.6993 315.477 79.5838C315.08 81.5674 314.386 84.5428 313.693 88.2125C312.9 91.9814 312.008 96.4446 310.917 101.602C309.926 106.759 308.737 112.611 307.647 118.959C306.457 125.405 305.169 132.249 303.88 139.588C303.286 143.225 302.658 146.994 301.997 150.895C301.337 154.73 300.676 158.631 300.015 162.598C298.231 173.806 296.447 185.608 294.564 197.51C299.718 201.477 293.077 202.866 293.672 203.461C298.033 202.271 300.709 201.378 303.98 201.081C305.962 188.981 308.142 175.69 309.827 164.185C310.422 160.152 311.017 156.218 311.611 152.383C312.206 148.548 312.768 144.779 313.296 141.076C314.386 133.737 315.278 126.794 316.071 120.347C316.963 113.9 317.657 108.049 318.351 102.792C318.946 97.5356 319.441 92.9732 319.838 89.2044C320.234 85.4355 320.531 82.46 320.73 80.4764C320.928 78.3936 321.027 77.4018 321.027 77.4018C321.126 76.0133 320.135 74.8231 318.847 74.6247Z" fill="#E0A326"/>
<path d="M285.346 207.33C290.103 206.537 294.662 204.652 297.041 199.991C297.041 199.891 296.942 199.693 296.843 199.892C292.383 204.652 286.436 205.842 280.192 206.437C279.3 206.537 279.3 207.925 280.192 207.925C281.579 207.826 283.066 207.628 284.553 207.429C283.661 209.215 283.363 211.793 284.652 213.182C285.048 213.579 285.643 213.182 285.544 212.686C285.246 210.801 285.246 209.115 285.346 207.33Z" fill="#D67550"/>
<path d="M306.456 225.877C303.086 224.191 299.32 223.298 296.446 220.719C292.283 217.05 302.69 213.777 305.069 212.686C305.564 212.487 305.366 211.892 305.069 211.694C305.135 211.628 305.201 211.562 305.267 211.496V211.396C305.135 211.463 305.003 211.529 304.87 211.595C304.738 211.529 304.573 211.529 304.375 211.595C304.177 211.727 303.978 211.859 303.78 211.992C300.807 213.083 297.734 213.975 294.563 213.876C292.085 213.777 289.805 212.289 291.094 209.413C291.788 207.925 293.175 206.834 294.067 205.644C294.265 205.247 293.869 204.85 293.572 205.049C291.094 206.735 286.832 211.396 290.499 214.074C292.085 215.165 293.671 215.562 295.356 215.463C293.968 216.554 292.977 217.942 293.373 220.025C293.671 222.207 295.157 223.596 297.14 224.588C296.083 224.455 295.058 224.389 294.067 224.389C292.184 224.29 289.31 224.687 288.715 226.77C287.526 231.034 294.265 233.415 297.239 234.406C298.329 234.704 298.726 233.117 297.734 232.72C296.446 232.324 287.427 228.257 291.49 226.472C292.977 225.877 294.959 226.174 296.545 226.274C299.221 226.373 301.897 226.472 304.573 226.373C305.168 226.439 305.729 226.472 306.258 226.472C306.655 226.472 306.754 226.075 306.456 225.877Z" fill="#D67550"/>
<path d="M270.776 214.271C270.677 214.569 270.578 214.867 270.479 215.263C266.811 227.066 238.465 286.773 222.211 320.693C226.274 319.205 230.239 317.321 234.005 314.94C238.961 311.866 243.817 308.394 248.277 304.328L275.137 255.928C276.624 242.042 274.047 227.859 270.776 214.271Z" fill="#D67550"/>
<path d="M82.6596 212.784C79.9836 195.725 77.4067 178.666 74.7306 162.598C74.1359 158.631 73.5082 154.73 72.8475 150.895C72.1867 146.994 71.526 143.225 70.8652 139.588C69.6759 132.249 68.3874 125.405 67.198 118.959C66.1078 112.611 64.9184 106.759 63.9273 101.602C62.8371 96.4446 61.9451 91.9814 61.1522 88.2125C60.4584 84.5428 59.7646 81.5674 59.3681 79.5838C58.8726 77.6993 58.6743 76.6083 58.6743 76.6083C58.377 75.4182 57.2868 74.5255 55.9983 74.6247C54.7098 74.8231 53.6196 76.0133 53.8178 77.4018C53.8178 77.4018 53.9169 78.3936 54.1152 80.4764C54.3134 82.46 54.6107 85.4355 55.0072 89.2044C55.4036 92.9732 55.8992 97.5356 56.4939 102.792C57.1877 108.049 57.8814 113.9 58.7735 120.347C59.5664 126.794 60.4584 133.737 61.5486 141.076C62.0772 144.779 62.6389 148.548 63.2335 152.383C63.7621 156.218 64.3568 160.152 65.0176 164.185C67.3963 180.253 70.2705 197.213 72.9466 214.371C73.6073 218.074 74.235 221.81 74.8297 225.578C77.6049 223.396 80.6774 221.413 83.6508 219.628C83.3204 217.313 82.99 215.032 82.6596 212.784Z" fill="#E0A326"/>
<path d="M0 19.3806C0 19.3806 198.919 -31.1026 375.637 30.8856L357.103 124.81C178.304 75.2196 20.1199 128.083 20.1199 128.083L0 19.3806Z" fill="white"/>
<path opacity="0.1" d="M70.8656 91.0888C30.7249 90.097 0 19.3809 0 19.3809L20.1199 128.083C20.1199 128.083 178.304 75.2198 357.103 124.81C357.103 124.81 264.334 96.1471 70.8656 91.0888Z" fill="#B3D2FF"/>
<path d="M154.913 332.1L93.9591 255.135C93.9591 255.135 104.465 244.721 104.663 237.382C104.961 230.042 96.2387 229.447 96.2387 229.447C96.2387 229.447 96.536 212.586 89.7964 211.694C82.9576 210.9 55.9989 236.786 56.1971 244.721C56.4945 252.655 145.299 344.001 145.299 344.001L154.913 332.1Z" fill="#FFA585"/>
<path d="M101.788 349.753C101.788 349.753 101.293 345.488 100.401 337.95C99.4098 330.413 97.9231 319.701 96.2382 306.907C94.5533 294.013 92.4719 279.037 90.0932 263.069C89.7628 260.82 89.4324 258.572 89.1021 256.324C86.426 258.109 83.5517 259.002 80.4792 259.498C80.8096 261.151 81.107 262.771 81.3713 264.358C84.0473 280.425 86.7234 295.302 89.0029 307.998C91.3817 320.792 93.3639 331.404 94.7515 338.843C96.1391 346.282 96.932 350.546 96.932 350.546C97.2293 351.836 98.4187 352.629 99.7071 352.53C100.996 352.332 101.987 351.141 101.788 349.753Z" fill="#E0A326"/>
<path d="M99.3115 237.48C99.1133 235.397 97.8248 234.107 95.8426 233.413C96.4372 231.628 96.3381 229.843 96.0408 228.057C95.9417 227.958 95.7435 227.958 95.7435 228.157C95.5452 229.843 95.2479 231.429 94.5541 233.016C90.3914 231.925 84.7419 232.62 82.2641 232.818C81.9668 232.818 81.9668 233.215 82.2641 233.314C86.8233 233.512 92.4727 233.215 96.5364 235.397C100.204 237.48 97.0319 241.943 95.347 243.827C93.6621 245.811 91.2834 247.398 88.7065 247.596C85.1384 244.323 78.5969 243.43 74.5333 242.637C74.3351 242.637 74.236 242.835 74.4342 242.934C78.4978 244.521 82.9579 245.612 86.6251 248.092C89.7967 250.175 90.4905 253.844 87.6162 256.622C84.5437 259.597 81.0748 259.399 77.1103 258.903C75.7227 258.704 75.5245 260.688 76.912 260.688C82.5615 260.688 93.0674 259.399 90.8869 251.167C90.6887 250.307 90.3253 249.514 89.7967 248.786C94.6532 247.398 99.9062 242.736 99.3115 237.48Z" fill="#D67550"/>
<path d="M103.87 267.631C99.6085 276.16 97.8244 284.69 97.5271 293.715C105.952 302.84 114.574 311.965 122.206 319.899C128.549 318.114 135.19 315.833 139.551 312.758L103.87 267.631Z" fill="#D67550"/>
<path d="M131.523 433.66C131.523 433.66 171.168 464.109 248.178 436.239C248.178 436.239 233.212 392.797 223.103 360.861L239.159 331.603L210.813 316.924L201.695 340.033C201.695 340.033 195.649 334.38 172.06 338.942L151.742 318.61L137.767 349.356L156.598 358.382L131.523 433.66Z" fill="white"/>
<g style="mix-blend-mode:multiply" opacity="0.49">
<path d="M223.499 362.249C222.112 362.05 220.625 361.951 219.436 361.951C218.841 367.406 221.616 373.456 222.706 378.911C225.382 390.416 228.158 401.921 231.428 413.426C233.906 422.055 236.483 430.684 238.961 439.312C241.934 438.321 245.007 437.329 248.178 436.238C248.178 436.238 233.609 393.987 223.499 362.249Z" fill="#B0316F"/>
</g>
<g style="mix-blend-mode:multiply" opacity="0.3">
<path d="M184.944 436.932C173.943 423.245 170.672 405.195 170.672 388.83C170.276 372.068 173.051 355.207 174.439 338.446C173.646 338.578 172.853 338.743 172.06 338.942L151.742 318.609L137.767 349.356L156.598 358.381L131.523 433.66C131.523 433.66 153.724 450.719 197.234 447.644C192.675 444.867 188.513 441.396 184.944 436.932Z" fill="#B0316F"/>
</g>
<path d="M199.911 379.605C209.723 379.804 219.733 380.597 229.743 381.39C229.083 379.407 228.422 377.423 227.761 375.44C219.436 375.241 211.209 375.241 203.082 375.142C190.693 374.944 178.403 375.44 166.113 376.035C160.86 376.233 155.508 376.828 150.255 377.423L149.363 380.002C153.922 379.804 158.581 379.605 163.041 379.506C175.331 379.308 187.621 379.407 199.911 379.605Z" fill="#B0316F"/>
<path d="M154.022 357.091C156.499 353.718 158.68 349.949 160.96 346.577C163.536 342.941 166.18 339.337 168.889 335.767L167.303 334.18C161.158 340.825 155.112 347.867 150.454 355.404L154.022 357.091Z" fill="#B0316F"/>
<path d="M154.814 363.637C178.006 363.934 201.298 364.232 224.49 365.224C224.094 364.033 223.697 362.843 223.301 361.653C217.618 361.521 211.936 361.422 206.253 361.355C189.305 361.058 172.357 361.256 155.409 361.851L154.814 363.637Z" fill="#B0316F"/>
<path d="M228.95 350.149L230.833 346.678C226.869 344.397 222.607 342.314 218.741 340.132C214.182 337.652 209.028 335.867 204.172 333.586L203.577 335.272C207.343 337.454 211.308 339.239 214.975 341.223C219.534 343.702 224.193 347.273 228.95 350.149Z" fill="#B0316F"/>
<path d="M236.582 336.264L238.465 332.892C228.752 328.726 218.94 324.858 209.425 320.494L208.831 321.982C214.876 325.056 221.021 327.834 226.968 331.107C230.14 332.892 233.311 334.578 236.582 336.264Z" fill="#B0316F"/>
<path d="M151.147 339.637C153.724 335.075 156.598 330.711 159.374 326.248L157.986 324.859C151.643 333.191 145.597 341.522 140.146 350.448L143.813 352.233C146.588 348.266 148.868 343.803 151.147 339.637Z" fill="#B0316F"/>
<path d="M177.808 307.005C177.61 307.997 177.907 340.33 179.196 342.909C180.484 345.587 192.279 346.38 194.36 343.603C196.54 340.826 201.199 306.807 201.199 306.807L177.808 307.005Z" fill="#FFA585"/>
<path d="M198.919 322.18C200.208 314.047 201.199 306.807 201.199 306.807L177.808 307.005C177.709 307.501 177.709 314.344 177.907 321.981C184.746 322.973 191.882 322.973 198.919 322.18Z" fill="#D67550"/>
<path d="M131.522 302.642C131.522 302.642 148.372 315.039 188.611 315.436C228.851 315.734 267.307 285.583 268.298 240.951C269.289 196.419 233.906 173.409 210.813 168.251C187.719 163.094 140.145 184.021 140.145 184.021C140.145 184.021 111.898 265.548 131.522 302.642Z" fill="#FFA585"/>
<path d="M247.683 188.98C244.907 187.988 241.538 189.277 240.447 192.649C239.357 196.22 237.771 199.096 235.789 202.171C232.518 207.427 227.86 204.948 223.4 202.667C214.282 198.203 206.65 190.566 199.811 183.227C197.432 180.648 192.774 181.243 190.99 184.417C185.836 193.641 182.566 203.956 176.619 212.783C172.753 218.436 166.608 223.296 160.265 225.776C151.742 229.247 147.975 221.809 145.497 215.263C145.101 214.271 143.713 214.37 143.614 215.56C142.524 230.536 154.219 237.678 167.798 230.834C182.962 223.395 189.404 210.502 196.937 196.815C205.758 206.634 216.66 217.643 229.347 219.627C239.555 221.114 246.791 214.072 249.962 205.344C253.729 207.824 258.089 209.51 262.45 210.304C258.783 201.972 253.629 194.831 247.683 188.98Z" fill="#D67550"/>
<path d="M268.298 240.95C268.596 228.751 266.118 218.139 261.955 209.113C266.613 238.372 261.261 269.019 240.15 290.739C232.519 298.476 223.499 305.418 213.687 311.667C243.52 302.244 267.505 276.061 268.298 240.95Z" fill="#FFB199"/>
<path d="M167.203 255.035C162.842 260.788 172.257 268.524 181.871 265.945C191.386 263.267 192.774 252.952 186.53 251.068C180.385 249.283 171.96 248.787 167.203 255.035Z" fill="#F47069"/>
<path d="M263.441 234.404C258.386 235.991 250.259 248.884 255.512 251.066C257.594 253.546 265.423 249.876 267.108 245.512C268.992 240.454 268.595 232.916 263.441 234.404Z" fill="#F47069"/>
<path d="M241.141 256.322C240.645 259.496 239.456 262.571 237.969 265.348C237.474 266.24 238.762 267.034 239.357 266.141C241.438 262.769 242.43 259.298 242.826 255.43C242.826 254.834 242.33 254.636 241.934 254.735C237.771 255.529 233.906 257.909 230.04 259.595C229.941 259.595 229.941 259.694 230.04 259.794C233.807 260.389 237.573 257.512 241.141 256.322Z" fill="#D67550"/>
<path d="M246.196 265.843C245.898 265.05 245.204 264.752 244.312 264.653C243.619 264.554 242.627 264.554 242.033 264.851C241.636 264.951 241.636 265.446 241.835 265.744C241.967 265.81 242.066 265.876 242.132 265.942C239.852 277.348 235.491 290.242 223.796 295.002C216.561 297.978 209.326 292.622 205.857 286.671C202.982 281.712 203.28 275.861 203.181 270.306C204.073 270.505 204.965 270.604 205.064 269.513C205.064 269.215 204.866 268.918 204.568 268.719C202.982 267.827 201.198 267.827 199.513 268.521C198.522 269.017 196.738 270.306 197.333 271.596C197.432 271.695 197.432 271.695 197.531 271.695C198.027 271.497 198.522 271.1 199.018 270.802C199.811 270.306 200.802 270.108 201.694 270.009C201.826 270.009 201.991 270.042 202.19 270.108C200.604 280.72 205.163 296.887 218.147 297.482C234.005 298.176 241.339 279.332 243.123 266.24C243.189 266.24 243.288 266.273 243.42 266.339C244.114 266.438 244.61 266.934 245.403 266.934C245.898 266.934 246.295 266.339 246.196 265.843Z" fill="#B73427"/>
<path d="M217.156 254.241C220.03 250.968 212.498 228.156 198.424 227.859C184.35 227.561 180.385 247.001 183.359 252.753C185.638 257.316 204.569 268.721 217.156 254.241Z" fill="white"/>
<path d="M204.073 246.605C208.038 246.605 211.408 242.538 212.399 236.984C209.029 232.124 204.271 228.058 198.424 227.859C197.763 227.859 197.102 227.892 196.442 227.959C195.847 229.744 195.55 231.727 195.55 233.909C195.55 240.951 199.316 246.605 204.073 246.605Z" fill="#662C24"/>
<path d="M198.127 230.139C197.334 232.916 195.847 238.669 199.019 240.553C199.613 240.95 200.406 240.652 200.604 239.958C200.902 238.47 200.208 236.983 199.812 235.594C199.118 233.908 198.92 232.024 198.82 230.238C198.721 229.842 198.226 229.743 198.127 230.139Z" fill="#913C33"/>
<path d="M200.604 242.836C200.803 243.629 201.199 244.125 202.091 244.323C202.983 244.522 203.776 243.53 203.28 242.737C202.983 242.241 202.686 241.943 202.091 241.646C201.298 241.249 200.307 241.943 200.604 242.836Z" fill="#913C33"/>
<path d="M244.511 244.62C244.511 244.62 248.178 249.876 257.099 246.504C264.036 243.925 264.235 233.016 260.964 227.858C257.693 222.8 250.359 222.8 246.394 228.652C242.033 234.999 243.421 242.735 244.511 244.62Z" fill="white"/>
<path d="M251.152 238.37C254.72 238.37 257.594 234.403 257.594 229.543C257.594 227.658 257.197 225.873 256.405 224.484C253.035 223.493 248.971 224.782 246.394 228.65C245.799 229.576 245.304 230.501 244.907 231.427C245.502 235.394 248.079 238.37 251.152 238.37Z" fill="#662C24"/>
<path d="M246.494 230.931C246.394 232.022 246.593 233.014 246.989 234.006C247.584 235.295 249.07 236.684 250.557 235.791C251.945 234.998 251.152 233.212 250.062 232.518C249.17 232.022 248.476 231.427 248.079 230.535C247.683 229.642 246.494 230.138 246.494 230.931Z" fill="#913C33"/>
<path d="M251.35 236.983C251.35 237.049 251.35 237.082 251.35 237.082C251.548 237.479 252.043 237.578 252.341 237.578C252.737 237.379 252.936 237.28 253.134 236.983C253.332 236.685 253.233 236.189 252.936 236.09C252.44 235.892 252.044 235.793 251.548 235.991C251.251 236.189 251.151 236.586 251.35 236.983Z" fill="#913C33"/>
<path d="M127.162 182.831C127.162 182.831 136.379 164.383 131.523 163.094C126.765 161.904 117.251 169.243 115.665 188.98C115.665 188.98 115.566 163.491 105.555 165.573C95.5448 167.656 92.2741 195.824 108.628 199.791C108.628 199.791 83.9487 239.761 121.314 289.748L143.218 287.07C143.218 287.07 155.211 276.16 149.363 264.556C143.515 253.051 135.19 266.54 135.19 266.54C135.19 266.54 136.776 238.67 149.363 221.809C149.363 221.809 147.282 234.207 162.049 227.958C176.817 221.809 188.215 202.766 198.424 185.31C198.424 185.31 212.894 208.122 228.059 211.693C243.223 215.263 242.826 194.435 242.826 194.435C242.826 194.435 258.982 211.792 268.298 194.435C277.714 177.078 266.217 167.259 248.178 178.268C248.178 178.268 275.038 158.234 263.045 149.109C251.053 140.084 230.14 151.985 217.156 164.78C217.156 164.78 233.807 136.414 214.084 136.414C194.459 136.414 157.094 147.126 127.162 182.831Z" fill="#539181"/>
<path d="M192.477 193.941C186.233 201.875 180.484 210.008 173.844 217.546C170.276 221.711 166.212 225.579 160.959 227.464C146.786 232.522 152.138 210.008 153.03 203.958C153.03 203.66 152.634 203.561 152.534 203.76C150.255 211.297 146.191 219.331 149.957 226.869C152.733 232.125 159.076 232.324 163.734 230.34C169.384 228.059 173.645 222.703 177.313 217.942C182.962 210.603 189.603 203.264 193.567 194.833C193.864 194.139 192.972 193.246 192.477 193.941Z" fill="#376156"/>
<path d="M239.061 208.618C217.751 208.42 208.038 193.245 195.847 178.17C195.748 178.07 195.649 178.269 195.649 178.368C202.389 194.039 218.445 221.809 239.457 210.007C240.151 209.61 239.754 208.618 239.061 208.618Z" fill="#376156"/>
<path d="M261.46 199.892C250.755 200.784 242.926 193.842 237.474 185.312C237.276 184.915 236.681 185.114 236.781 185.51C240.745 195.329 250.26 206.537 261.658 200.685C261.955 200.487 261.856 199.892 261.46 199.892Z" fill="#376156"/>
<path d="M113.484 198.305C108.925 195.627 104.762 196.023 101.392 190.965C98.0226 185.907 98.5182 178.766 98.9146 172.914C98.9146 172.815 98.8155 172.815 98.8155 172.914C96.5359 180.353 95.8421 187.196 99.5093 194.238C101.789 198.9 108.033 202.669 113.088 201.379C114.574 200.983 114.773 198.999 113.484 198.305Z" fill="#376156"/>
<path d="M123.693 166.764C117.25 173.012 113.484 182.633 113.98 191.658C114.079 193.047 116.259 193.543 116.557 191.956C118.142 183.029 118.836 174.897 123.792 166.863C123.891 166.764 123.693 166.665 123.693 166.764Z" fill="#376156"/>
<path d="M217.155 165.773C228.454 155.954 240.249 148.714 255.314 147.127C256.107 147.028 256.107 145.937 255.314 145.838C245.799 144.647 238.366 147.821 230.139 152.383C225.679 154.962 217.552 159.921 216.462 165.376C216.462 165.773 216.858 166.07 217.155 165.773Z" fill="#6FC2AD"/>
<path d="M254.521 151.987C253.233 151.788 251.944 152.978 252.737 154.268C254.621 157.243 252.638 161.012 252.539 164.384C252.539 165.376 253.53 166.368 254.521 166.368C262.748 165.574 262.252 153.177 254.521 151.987Z" fill="#6FC2AD"/>
<path d="M249.17 160.019C248.575 159.126 247.386 159.126 246.791 160.019C246.395 160.614 245.899 161.209 245.701 161.904C245.403 163.094 245.502 164.086 246.395 165.077C247.088 165.97 248.872 165.97 249.566 165.077C250.458 164.086 250.557 163.094 250.26 161.904C250.062 161.209 249.566 160.614 249.17 160.019Z" fill="#6FC2AD"/>
<path d="M259.874 183.029C258.586 182.83 257.297 184.417 258.487 185.409C260.271 186.897 259.478 189.079 259.874 191.162C260.568 194.434 266.118 193.74 265.821 190.368C265.524 187.194 263.145 183.624 259.874 183.029Z" fill="#6FC2AD"/>
<path d="M200.703 150.299C198.721 149.01 196.243 152.184 198.127 153.672C202.983 157.54 203.875 164.383 195.649 161.209C191.387 159.523 187.621 161.309 184.251 163.887C182.962 164.879 181.971 166.962 181.178 168.35C179.592 171.326 180.286 174.103 176.52 172.417C173.249 170.83 170.375 168.945 166.708 169.045C160.563 169.144 158.779 176.087 157.589 180.946C157.292 182.236 156.995 183.525 156.598 184.814C155.607 188.187 152.832 183.327 152.039 182.335C150.453 180.153 148.868 177.574 146.39 176.384C145.101 175.789 144.011 176.979 144.606 178.169C146.588 182.632 151.643 198.997 159.77 192.947C163.14 190.468 164.626 187.096 165.915 183.228C166.212 182.037 166.906 178.07 167.996 178.566C170.97 180.054 172.952 183.029 176.124 184.418C181.575 186.699 186.332 184.219 189.801 179.855C191.783 177.376 192.675 174.4 193.468 171.425C193.865 169.739 201.001 169.937 202.686 168.945C210.516 164.482 206.65 154.564 200.703 150.299Z" fill="#6FC2AD"/>
<path d="M120.124 203.559C120.223 203.262 119.827 202.964 119.629 203.262C110.114 223.098 103.771 254.142 119.133 272.788C119.926 273.681 121.512 272.49 120.818 271.399C107.834 251.662 111.105 224.288 120.124 203.559Z" fill="#376156"/>
<path d="M136.082 282.904C127.062 275.366 128.153 262.373 129.144 251.959C130.135 240.752 133.207 229.842 135.487 218.833C135.586 218.436 134.991 218.237 134.892 218.634C131.621 231.032 127.657 243.132 126.17 255.926C125.08 265.944 125.278 278.639 134.595 284.689C135.685 285.482 137.073 283.697 136.082 282.904Z" fill="#376156"/>
<path d="M141.434 283.401C135.09 276.26 113.979 263.763 102.482 276.756C91.0844 289.749 111.303 312.461 127.657 312.362C143.911 312.164 150.849 294.014 141.434 283.401Z" fill="#FFA585"/>
<path d="M141.038 294.508C134.496 284.193 119.728 283.797 110.511 290.442C110.214 290.64 110.511 291.136 110.808 290.938C116.854 287.466 123.396 286.772 129.243 288.656C127.162 289.351 125.18 290.739 123.891 292.128C122.603 293.615 121.611 295.698 121.81 297.781C121.909 299.864 123.495 302.542 125.774 302.443C126.369 302.343 126.765 301.847 126.666 301.252C126.27 299.963 124.981 299.17 124.684 297.781C124.288 296.393 125.378 294.806 126.27 293.715C128.054 291.632 130.532 290.64 133.109 290.342C135.487 291.632 137.668 293.417 139.551 295.698C140.245 296.492 141.632 295.401 141.038 294.508Z" fill="#D67550"/>
<path d="M109.816 277.649C111.997 278.641 114.474 277.947 116.754 277.947C120.421 278.046 123.295 280.03 126.864 280.327C128.053 280.426 128.747 278.74 127.855 278.046C122.503 273.583 116.06 274.971 110.014 276.558C109.519 276.657 109.321 277.352 109.816 277.649Z" fill="#FFB199"/>
<path d="M129.441 281.715C129.639 282.211 130.036 282.509 130.432 282.806C132.216 284.096 134 280.823 132.117 280.029C131.324 279.633 130.531 279.533 129.838 280.129C129.342 280.624 129.144 281.12 129.441 281.715Z" fill="#FFB199"/>
</svg>
