<svg width="33" height="34" viewBox="0 0 33 34" fill="none" xmlns="http://www.w3.org/2000/svg">
<path d="M14.4926 4.18561L10.5136 8.60677L5.27364 5.46281H3.15662L5.86526 17.8136C5.86526 18.3476 6.29813 18.7804 6.83206 18.7804H26.168C26.7019 18.7804 27.1348 18.3476 27.1348 17.8136L29.8434 5.46281H27.7264L22.4865 8.60671L18.5075 4.18555L14.4926 4.18561Z" fill="#FFF68E"/>
<path d="M27.7264 5.46281L22.4865 8.60671L18.5075 4.18555H16.5V18.7804H26.168C26.7019 18.7804 27.1348 18.3475 27.1348 17.8136L29.8434 5.46281H27.7264Z" fill="#FFCD00"/>
<path d="M5.86523 17.8135H27.1348V23.4451H5.86523V17.8135Z" fill="#FFCD00"/>
<path d="M16.5 17.8135H27.1348V23.4451H16.5V17.8135Z" fill="#FF9F00"/>
<path d="M16.5 14.6797C17.0339 14.6797 17.4668 14.2468 17.4668 13.7129C17.4668 13.1789 17.0339 12.7461 16.5 12.7461C15.9661 12.7461 15.5332 13.1789 15.5332 13.7129C15.5332 14.2468 15.9661 14.6797 16.5 14.6797Z" fill="#FF3C7D"/>
<path d="M17.4668 13.7129C17.4668 13.179 17.0339 12.7461 16.5 12.7461V14.6797C17.0339 14.6797 17.4668 14.2468 17.4668 13.7129Z" fill="#E50058"/>
<path d="M12.6328 14.6797C13.1668 14.6797 13.5996 14.2468 13.5996 13.7129C13.5996 13.1789 13.1668 12.7461 12.6328 12.7461C12.0989 12.7461 11.666 13.1789 11.666 13.7129C11.666 14.2468 12.0989 14.6797 12.6328 14.6797Z" fill="#FF3C7D"/>
<path d="M20.3672 14.6797C20.9011 14.6797 21.334 14.2468 21.334 13.7129C21.334 13.1789 20.9011 12.7461 20.3672 12.7461C19.8332 12.7461 19.4004 13.1789 19.4004 13.7129C19.4004 14.2468 19.8332 14.6797 20.3672 14.6797Z" fill="#E50058"/>
<path d="M30.0996 33.5H2.90039C1.30112 33.5 0 32.1989 0 30.5996V24.7988C0 23.1996 1.30112 21.8984 2.90039 21.8984H30.0996C31.6989 21.8984 33 23.1996 33 24.7988V30.5996C33 32.1989 31.6989 33.5 30.0996 33.5Z" fill="#FF3C7D"/>
<path d="M30.0996 21.8984H16.5V33.5H30.0996C31.6989 33.5 33 32.1989 33 30.5996V24.7988C33 23.1996 31.6989 21.8984 30.0996 21.8984Z" fill="#E50058"/>
<path d="M16.5 6.30078C14.9007 6.30078 13.5996 4.99967 13.5996 3.40039C13.5996 1.80112 14.9007 0.5 16.5 0.5C18.0993 0.5 19.4004 1.80112 19.4004 3.40039C19.4004 4.99967 18.0993 6.30078 16.5 6.30078Z" fill="#FFCD00"/>
<path d="M19.4004 3.40039C19.4004 1.80112 18.0993 0.5 16.5 0.5V6.30078C18.0993 6.30078 19.4004 4.99967 19.4004 3.40039Z" fill="#FF9F00"/>
<path d="M28.7461 8.87891C27.1468 8.87891 25.8457 7.57779 25.8457 5.97852C25.8457 4.37924 27.1468 3.07812 28.7461 3.07812C30.3454 3.07812 31.6465 4.37924 31.6465 5.97852C31.6465 7.57779 30.3454 8.87891 28.7461 8.87891Z" fill="#FF9F00"/>
<path d="M4.25391 8.87891C2.65463 8.87891 1.35352 7.57779 1.35352 5.97852C1.35352 4.37924 2.65463 3.07812 4.25391 3.07812C5.85318 3.07812 7.1543 4.37924 7.1543 5.97852C7.1543 7.57779 5.85318 8.87891 4.25391 8.87891Z" fill="#FFCD00"/>
<path d="M10.7119 24.7988C10.356 24.7988 10.0674 25.0874 10.0674 25.4434V29.9551C10.0674 30.311 10.356 30.5996 10.7119 30.5996C11.0678 30.5996 11.3564 30.311 11.3564 29.9551V25.4434C11.3564 25.0874 11.0679 24.7988 10.7119 24.7988Z" fill="#FFF5F5"/>
<path d="M8.90407 24.8193C8.55499 24.7499 8.21558 24.9765 8.1461 25.3256L7.68552 27.6399L6.95024 25.2533C6.84538 24.9132 6.4847 24.7222 6.14451 24.8271C5.9157 24.8977 5.75502 25.0841 5.70584 25.302L4.98204 27.6405L4.52261 25.318C4.45358 24.9688 4.1145 24.7414 3.76529 24.8108C3.41608 24.8799 3.18901 25.219 3.25811 25.5682L4.13718 30.0121C4.14324 30.043 4.15156 30.0732 4.16206 30.1027C4.2677 30.4003 4.54994 30.5993 4.86538 30.5993H4.87027C5.18777 30.5972 5.46975 30.3938 5.57198 30.0933C5.57391 30.0876 5.57578 30.0819 5.57752 30.0763L6.3342 27.6316L7.08746 30.0768C7.09017 30.0856 7.09307 30.0943 7.09616 30.103C7.20199 30.4003 7.48411 30.5992 7.79935 30.5992H7.8045C8.12187 30.5971 8.40372 30.3937 8.50595 30.0932C8.5151 30.0665 8.52238 30.0391 8.52792 30.0114L9.41048 25.5771C9.4799 25.2281 9.25315 24.8888 8.90407 24.8193Z" fill="#FFF5F5"/>
<path d="M15.765 24.7988C15.7629 24.7988 15.7607 24.7988 15.7586 24.7988C15.4027 24.8023 15.1169 25.0936 15.1203 25.4496L15.1444 27.9362L13.1758 25.0855C13.0155 24.8534 12.7229 24.7527 12.4537 24.8365C12.1843 24.9205 12.001 25.1698 12.001 25.4518V29.9551C12.001 30.311 12.2896 30.5996 12.6455 30.5996C13.0014 30.5996 13.29 30.311 13.29 29.9551V27.5194L15.1601 30.2275C15.3464 30.4964 15.6584 30.6104 15.9547 30.5179C16.2566 30.4237 16.4516 30.1431 16.4516 29.7968L16.4094 25.4372C16.4059 25.0833 16.118 24.7988 15.765 24.7988Z" fill="#FFF5F5"/>
<path d="M20.8601 24.7988C20.858 24.7988 20.8558 24.7988 20.8537 24.7988C20.4978 24.8023 20.212 25.0936 20.2154 25.4496L20.2395 27.9361L18.2709 25.0855C18.1107 24.8534 17.8182 24.7527 17.5487 24.8365C17.2794 24.9205 17.0961 25.1698 17.0961 25.4518V29.9551C17.0961 30.311 17.3847 30.5996 17.7406 30.5996C18.0965 30.5996 18.3851 30.311 18.3851 29.9551V27.5193L20.2553 30.2275C20.4416 30.4964 20.7535 30.6104 21.0498 30.5179C21.3517 30.4237 21.5467 30.1431 21.5467 29.7968L21.5045 25.4372C21.5011 25.0833 21.2132 24.7988 20.8601 24.7988Z" fill="#D8F1FB"/>
<path d="M24.7367 26.0879C25.0927 26.0879 25.3813 25.7993 25.3813 25.4434C25.3813 25.0874 25.0927 24.7988 24.7367 24.7988H22.8357C22.4798 24.7988 22.1912 25.0874 22.1912 25.4434V29.9551C22.1912 30.311 22.4798 30.5996 22.8357 30.5996H24.7367C25.0927 30.5996 25.3813 30.311 25.3813 29.9551C25.3813 29.5992 25.0927 29.3105 24.7367 29.3105H23.4802V28.3438H24.5966C24.9525 28.3438 25.2411 28.0551 25.2411 27.6992C25.2411 27.3433 24.9525 27.0547 24.5966 27.0547H23.4802V26.0879H24.7367Z" fill="#D8F1FB"/>
<path d="M28.528 28.3186C29.2434 28.0607 29.7542 27.3949 29.7542 26.6159C29.7542 25.614 28.9094 24.7988 27.8708 24.7988H26.6718C26.6716 24.7988 26.6713 24.7988 26.6711 24.7988C26.6709 24.7988 26.6707 24.7988 26.6704 24.7988C26.3145 24.7988 26.0259 25.0874 26.0259 25.4434V29.9551C26.0259 30.311 26.3145 30.5996 26.6704 30.5996C27.0263 30.5996 27.3149 30.311 27.3149 29.9551V28.8915L28.6259 30.3809C28.7533 30.5257 28.9311 30.5997 29.11 30.5997C29.2612 30.5997 29.4131 30.5468 29.5355 30.439C29.8028 30.2038 29.8287 29.7965 29.5936 29.5294L28.528 28.3186ZM27.8708 26.0879C28.193 26.0879 28.4652 26.3297 28.4652 26.6159C28.4652 26.9021 28.193 27.1439 27.8708 27.1439C27.7404 27.1439 27.5296 27.1447 27.3212 27.1456C27.3202 26.9436 27.3189 26.2999 27.3184 26.0878H27.8708V26.0879Z" fill="#D8F1FB"/>
</svg>
