<svg width="33" height="33" viewBox="0 0 33 33" fill="none" xmlns="http://www.w3.org/2000/svg">
<g clip-path="url(#clip0_880_183810)">
<path d="M16.7283 32.0977C25.5648 32.0977 32.7283 24.9342 32.7283 16.0977C32.7283 7.2611 25.5648 0.0976562 16.7283 0.0976562C7.89172 0.0976562 0.728271 7.2611 0.728271 16.0977C0.728271 24.9342 7.89172 32.0977 16.7283 32.0977Z" fill="#FFDD33"/>
<g clip-path="url(#clip1_880_183810)">
<path d="M5.06323 11.5948L9.05018 16.6634V10.9574L5.49132 9.11328L5.06323 11.5948Z" fill="#BA5A18"/>
<path d="M24.4064 22.9991L28.1735 19.4811L27.3523 15.5586L24.4064 16.9197" fill="#BA5A18"/>
<path d="M9.05017 16.662V25.0291C9.05017 26.6693 12.4878 27.9989 16.7282 27.9989C20.9687 27.9989 24.4063 26.6693 24.4063 25.0291V6.96875H9.05017V10.956V16.662Z" fill="#BF682C"/>
<path d="M22.4747 6.96875V25.0291C22.4747 26.5428 19.547 27.7919 15.7625 27.9756C16.0788 27.991 16.4011 27.9989 16.7282 27.9989C20.9687 27.9989 24.4063 26.6693 24.4063 25.0291V6.96875H22.4747Z" fill="#BA5A18"/>
<path d="M22.2173 12.7703C22.0173 12.7703 21.8551 12.6082 21.8551 12.4082V8.70592C21.8551 8.50586 22.0173 8.34375 22.2173 8.34375C22.4173 8.34375 22.5794 8.50586 22.5794 8.70592V12.4082C22.5794 12.6082 22.4173 12.7703 22.2173 12.7703Z" fill="#A34708"/>
<path d="M19.4728 14.4004C19.2728 14.4004 19.1106 14.2383 19.1106 14.0382V12.409C19.1106 12.209 19.2728 12.0469 19.4728 12.0469C19.6728 12.0469 19.8349 12.209 19.8349 12.409V14.0382C19.8349 14.2383 19.6728 14.4004 19.4728 14.4004Z" fill="#A34708"/>
<path d="M19.4728 22.9356C19.2728 22.9356 19.1106 22.7735 19.1106 22.5735V15.6754C19.1106 15.2072 19.8349 15.2072 19.8349 15.6754V22.5735C19.8349 22.7735 19.6728 22.9356 19.4728 22.9356Z" fill="#A34708"/>
<path d="M16.7283 17.9529C16.5282 17.9529 16.3661 17.7908 16.3661 17.5908V13.788C16.3661 13.5879 16.5282 13.4258 16.7283 13.4258C16.9283 13.4258 17.0904 13.5879 17.0904 13.788V17.5908C17.0904 17.7908 16.9283 17.9529 16.7283 17.9529Z" fill="#A34708"/>
<path d="M16.7283 26.9418C16.5282 26.9418 16.3661 26.7797 16.3661 26.5796V19.5699C16.3661 19.1017 17.0904 19.1017 17.0904 19.5699V26.5796C17.0904 26.7797 16.9283 26.9418 16.7283 26.9418Z" fill="#A34708"/>
<path d="M21.8551 18.5309V27.2389C22.1129 27.1494 22.3549 27.0532 22.5794 26.9511V18.5309C22.5794 18.0626 21.8551 18.0626 21.8551 18.5309Z" fill="#A34708"/>
<path d="M13.9838 11C13.7837 11 13.6216 11.1621 13.6216 11.3622V27.7446C13.857 27.785 14.0987 27.8208 14.3459 27.852V11.3622C14.3459 11.1621 14.1838 11 13.9838 11Z" fill="#A34708"/>
<path d="M11.2392 21.1454C11.0392 21.1454 10.8771 20.9833 10.8771 20.7832V8.63636C10.8771 8.16809 11.6014 8.16809 11.6014 8.63636V20.7832C11.6014 20.9832 11.4393 21.1454 11.2392 21.1454Z" fill="#A34708"/>
<path d="M11.2392 24.8581C11.0392 24.8581 10.8771 24.6959 10.8771 24.4959V22.7574C10.8771 22.2892 11.6014 22.2892 11.6014 22.7574V24.4959C11.6014 24.6959 11.4393 24.8581 11.2392 24.8581Z" fill="#A34708"/>
<path d="M16.7282 9.93964C20.9687 9.93964 24.4063 8.61 24.4063 6.96982C24.4063 5.32963 20.9687 4 16.7282 4C12.4878 4 9.05017 5.32963 9.05017 6.96982C9.05017 8.61 12.4878 9.93964 16.7282 9.93964Z" fill="#FFEC96"/>
<path d="M16.7282 4C16.4011 4 16.0788 4.00797 15.7625 4.02332C19.547 4.20707 22.4747 5.45618 22.4747 6.96982C22.4747 8.48346 19.547 9.73257 15.7625 9.91631C16.0788 9.93167 16.4011 9.93964 16.7282 9.93964C20.9687 9.93964 24.4063 8.61003 24.4063 6.96982C24.4063 5.32961 20.9687 4 16.7282 4Z" fill="#FFE057"/>
<path d="M16.7283 8.85379C15.0235 8.85379 13.3812 8.62311 12.1041 8.20425C10.2788 7.60555 10.2596 6.34171 12.1041 5.73674C14.9563 4.80127 18.5001 4.80132 21.3524 5.73674C21.7974 5.88272 21.5717 6.5707 21.1267 6.42506C18.4136 5.53518 15.0428 5.53518 12.3298 6.42506C11.146 6.81326 11.1108 7.11614 12.3298 7.51593C13.5361 7.91156 15.0981 8.12945 16.7283 8.12945C17.1965 8.12945 17.1965 8.85379 16.7283 8.85379Z" fill="#E8B04F"/>
<path d="M19.9021 7.33129C19.8782 7.32313 17.8282 7.01731 16.7283 7.01731C16.26 7.01731 16.26 6.29297 16.7283 6.29297C17.8787 6.29297 19.0025 6.40432 19.9782 6.61501C20.3968 6.70541 20.2557 7.45192 19.9021 7.33129Z" fill="#E8B04F"/>
<path d="M27.6773 19.7338C28.2577 19.7338 28.7282 18.7756 28.7282 17.5935C28.7282 16.4114 28.2577 15.4531 27.6773 15.4531C27.097 15.4531 26.6265 16.4114 26.6265 17.5935C26.6265 18.7756 27.097 19.7338 27.6773 19.7338Z" fill="#FFEC96"/>
<path d="M5.38376 11.7638C5.74577 11.7638 6.03924 11.1661 6.03924 10.4288C6.03924 9.69146 5.74577 9.09375 5.38376 9.09375C5.02174 9.09375 4.72827 9.69146 4.72827 10.4288C4.72827 11.1661 5.02174 11.7638 5.38376 11.7638Z" fill="#FFEC96"/>
</g>
</g>
<defs>
<clipPath id="clip0_880_183810">
<rect width="32" height="32" fill="white" transform="translate(0.728271 0.0976562)"/>
</clipPath>
<clipPath id="clip1_880_183810">
<rect width="24" height="24" fill="white" transform="translate(4.72827 4)"/>
</clipPath>
</defs>
</svg>
