<svg width="118" height="61" viewBox="0 0 118 61" fill="none" xmlns="http://www.w3.org/2000/svg">
<line x1="31" y1="1.99609" x2="-6.99018e-09" y2="1.99609" stroke="#0A0A0A" stroke-width="4"/>
<line x1="106" y1="30" x2="75" y2="30" stroke="#0A0A0A" stroke-width="4"/>
<line x1="31" y1="58.9961" x2="-6.99018e-09" y2="58.9961" stroke="#0A0A0A" stroke-width="4"/>
<path d="M55.5 1.49609C71.5163 1.49609 84.5 14.4798 84.5 30.4961C84.5 46.5124 71.5163 59.4961 55.5 59.4961L14.5 59.4961L14.5 1.49609L55.5 1.49609Z" fill="#808080" stroke="#0A0A0A" stroke-width="3"/>
<path d="M58.3611 42.5767C58.3615 40.8474 58.9766 39.1849 60.0785 37.9355C60.1471 37.8573 60.2294 37.7948 60.3206 37.7516C60.4118 37.7083 60.51 37.6853 60.6095 37.6837C60.709 37.6821 60.8078 37.7021 60.9001 37.7424C60.9924 37.7827 61.0763 37.8426 61.1471 37.9186C61.2178 37.9945 61.2739 38.085 61.312 38.1847C61.3501 38.2845 61.3695 38.3915 61.3691 38.4995C61.3687 38.6074 61.3485 38.7142 61.3096 38.8136C61.2707 38.913 61.214 39.003 61.1427 39.0783C60.6218 39.676 60.243 40.4025 60.0389 41.1948C59.8349 41.9871 59.8119 42.8214 59.9718 43.6255C60.0199 43.8346 59.9894 44.0559 59.8871 44.2406C59.7848 44.4253 59.6191 44.5583 59.4264 44.6105C59.2337 44.6626 59.0299 44.6295 58.8597 44.5185C58.6895 44.4075 58.5669 44.2276 58.5188 44.0185C58.4126 43.5467 58.3596 43.0625 58.3611 42.5767Z" fill="black"/>
<path d="M58.3598 15.5755C58.358 15.0882 58.411 14.6024 58.5176 14.1289C58.5414 14.0252 58.5837 13.9276 58.6423 13.8417C58.7008 13.7558 58.7744 13.6832 58.8587 13.6281C58.9431 13.5731 59.0367 13.5366 59.134 13.5207C59.2314 13.5049 59.3307 13.51 59.4263 13.5358C59.5218 13.5616 59.6117 13.6076 59.6909 13.6711C59.7701 13.7346 59.837 13.8145 59.8877 13.906C59.9385 13.9976 59.9721 14.0991 59.9867 14.2048C60.0013 14.3105 59.9966 14.4182 59.9728 14.5219C59.8129 15.3261 59.8359 16.1604 60.0399 16.9527C60.2439 17.745 60.6228 18.4714 61.1436 19.0691C61.2149 19.1444 61.2717 19.2344 61.3106 19.3338C61.3495 19.4332 61.3697 19.54 61.3701 19.648C61.3705 19.756 61.3511 19.863 61.313 19.9627C61.2748 20.0625 61.2188 20.1529 61.148 20.2289C61.0773 20.3048 60.9933 20.3647 60.901 20.4051C60.8087 20.4454 60.71 20.4654 60.6105 20.4638C60.511 20.4622 60.4128 20.4391 60.3216 20.3959C60.2304 20.3526 60.1481 20.2901 60.0794 20.212C58.9779 18.9642 58.362 17.3036 58.3598 15.5755Z" fill="black"/>
<path d="M37.0011 34.0791C37.001 33.9369 37.0354 33.7972 37.1011 33.6741C38.2897 31.4391 38.2897 26.7158 37.1011 24.4808C37.0519 24.3884 37.02 24.2863 37.0072 24.1805C36.9944 24.0746 37.0009 23.9671 37.0264 23.864C37.0518 23.7609 37.0958 23.6643 37.1557 23.5796C37.2156 23.4949 37.2902 23.4239 37.3754 23.3705C37.4606 23.3172 37.5547 23.2826 37.6522 23.2686C37.7497 23.2547 37.8488 23.2618 37.9438 23.2895C38.0388 23.3171 38.1279 23.3648 38.2059 23.4298C38.2839 23.4948 38.3494 23.5758 38.3985 23.6683C39.8515 26.3976 39.8515 31.7573 38.3985 34.4866C38.3161 34.6418 38.1888 34.7631 38.0364 34.8316C37.8839 34.9002 37.7149 34.9121 37.5555 34.8657C37.3961 34.8192 37.2554 34.7169 37.1551 34.5747C37.0549 34.4324 37.0007 34.2582 37.0011 34.0791Z" fill="black"/>
<path d="M54.9203 31.1268C53.8698 30.4219 52.683 29.9912 51.4532 29.8684C50.2233 29.7457 48.984 29.9343 47.8327 30.4195C46.6814 30.9046 45.6496 31.673 44.8183 32.6643C43.9871 33.6556 43.3791 34.8426 43.0422 36.1321C42.7054 37.4215 42.6488 38.7782 42.877 40.0954C43.1052 41.4126 43.6119 42.6544 44.3573 43.7231C45.1026 44.7918 46.0663 45.6582 47.1726 46.2541C48.2788 46.8501 49.4973 47.1594 50.7324 47.1577C51.0174 47.1574 51.3021 47.1405 51.5855 47.1071C54.3249 41.4629 55.0491 35.6474 54.9314 31.1268L54.9203 31.1268Z" fill="white"/>
<path d="M54.9219 33.0412C54.1514 32.2154 53.1889 31.6321 52.1369 31.3533C51.0849 31.0745 49.983 31.1108 48.9485 31.4583C47.914 31.8058 46.9859 32.4514 46.263 33.3264C45.5401 34.2014 45.0495 35.2728 44.8437 36.4265C44.6378 37.5803 44.7244 38.773 45.094 39.8776C45.4637 40.9821 46.1027 41.9571 46.9429 42.6985C47.7831 43.4399 48.7929 43.92 49.8647 44.0875C50.9365 44.255 52.0302 44.1037 53.029 43.6497C53.8777 41.5136 54.8641 37.0435 54.9219 33.0412Z" fill="black"/>
<path d="M50.6899 32.4414C50.6902 32.3196 50.7157 32.1995 50.7645 32.0898C50.8132 31.9801 50.884 31.8837 50.9716 31.8076C51.0591 31.7315 51.1613 31.6777 51.2706 31.6501C51.3799 31.6225 51.4935 31.6218 51.603 31.6481C52.6358 31.9261 53.5834 32.493 54.3513 33.2925C54.4185 33.3704 54.471 33.4619 54.5057 33.5617C54.5403 33.6616 54.5565 33.768 54.5533 33.8746C54.5501 33.9813 54.5276 34.0863 54.487 34.1835C54.4464 34.2807 54.3886 34.3683 54.3168 34.4413C54.2451 34.5143 54.1608 34.5712 54.0687 34.6089C53.9767 34.6465 53.8787 34.664 53.7804 34.6606C53.6821 34.6571 53.5854 34.6327 53.4958 34.5886C53.4062 34.5446 53.3254 34.4818 53.2582 34.404C52.6948 33.8436 52.0137 33.4414 51.2742 33.2322C51.1086 33.1918 50.9607 33.0915 50.8545 32.9478C50.7483 32.8041 50.6903 32.6255 50.6899 32.4414Z" fill="white"/>
<path d="M54.9203 27.0271C53.8698 27.7319 52.683 28.1627 51.4532 28.2854C50.2233 28.4081 48.984 28.2195 47.8327 27.7344C46.6814 27.2492 45.6496 26.4808 44.8183 25.4895C43.9871 24.4983 43.3791 23.3112 43.0422 22.0218C42.7054 20.7323 42.6488 19.3756 42.877 18.0584C43.1052 16.7412 43.6119 15.4994 44.3573 14.4307C45.1026 13.3621 46.0663 12.4957 47.1726 11.8997C48.2788 11.3037 49.4973 10.9944 50.7324 10.9961C51.0174 10.9965 51.3021 11.0134 51.5855 11.0467C54.3249 16.691 55.0491 22.5064 54.9314 27.0271L54.9203 27.0271Z" fill="white"/>
<path d="M54.9219 25.1322C54.1514 25.9579 53.1889 26.5413 52.1369 26.8201C51.0849 27.0988 49.983 27.0625 48.9485 26.715C47.914 26.3675 46.9859 25.7219 46.263 24.8469C45.5401 23.972 45.0495 22.9005 44.8437 21.7468C44.6378 20.5931 44.7244 19.4003 45.094 18.2958C45.4637 17.1912 46.1027 16.2163 46.9429 15.4748C47.7831 14.7334 48.7929 14.2534 49.8647 14.0858C50.9365 13.9183 52.0302 14.0696 53.029 14.5236C53.8777 16.6477 54.8641 21.1202 54.9219 25.1322Z" fill="black"/>
<path d="M51.2531 15.5064C51.2525 15.3204 51.3108 15.1399 51.4181 14.995C51.5254 14.8501 51.6753 14.7494 51.8427 14.71C52.0101 14.6705 52.185 14.6945 52.338 14.778C52.4911 14.8615 52.6132 14.9994 52.6838 15.1688C53.1415 16.2634 53.637 18.3634 53.7547 18.9638C53.7965 19.1748 53.7594 19.3952 53.6515 19.5765C53.5436 19.7578 53.3737 19.8852 53.1793 19.9306C52.9848 19.976 52.7817 19.9357 52.6147 19.8186C52.4476 19.7015 52.3302 19.5172 52.2884 19.3061C52.1662 18.6889 51.6974 16.7504 51.3175 15.8415C51.2743 15.736 51.2524 15.6218 51.2531 15.5064Z" fill="white"/>
<circle cx="109" cy="30.9961" r="9" fill="#FF0000"/>
</svg>
